<?xml version="1.0" encoding="iso-8859-1"?>
<!-- Generator: Adobe Illustrator 21.0.2, SVG Export Plug-In . SVG Version: 6.00 Build 0)  -->
<svg version="1.1" xmlns="http://www.w3.org/2000/svg" xmlns:xlink="http://www.w3.org/1999/xlink" x="0px" y="0px"
	 viewBox="0 0 20 12.5" style="enable-background:new 0 0 20 12.5;" xml:space="preserve">
<g id="icon-templates">
	<g>
		<path style="fill:#333333;" d="M10.002,7.914l8.924-7.879C18.866,0.027,18.812,0,18.75,0H1.25C1.212,0,1.179,0.018,1.141,0.022
			L10.002,7.914z"/>
		<path style="fill:#333333;" d="M20,1.25c0-0.149-0.037-0.287-0.085-0.419l-6.302,5.563l6.221,5.443
			C19.93,11.66,20,11.466,20,11.25V1.25z"/>
		<path style="fill:#333333;" d="M0.098,0.767C0.035,0.915,0,1.079,0,1.25v10c0,0.182,0.043,0.353,0.113,0.509l6.28-5.384
			L0.098,0.767z"/>
		<path style="fill:#333333;" d="M12.668,7.228l-2.67,2.358L7.335,7.214l-6.152,5.273C1.207,12.488,1.227,12.5,1.25,12.5h17.444
			L12.668,7.228z"/>
	</g>
</g>
<g id="Layer_1">
</g>
</svg>
