<?xml version="1.0" encoding="iso-8859-1"?>
<!-- Generator: Adobe Illustrator 21.0.2, SVG Export Plug-In . SVG Version: 6.00 Build 0)  -->
<svg version="1.1" xmlns="http://www.w3.org/2000/svg" xmlns:xlink="http://www.w3.org/1999/xlink" x="0px" y="0px"
	 viewBox="0 0 18 18" style="enable-background:new 0 0 18 18;" xml:space="preserve">
<g id="social-off-state">
	<g>
		<path style="fill:#D1D1D1;" d="M15.75,5.625c-0.208,0-0.607,0-1.125,0V6.75c0,1.735-1.64,3.375-3.375,3.375H6.091L4.5,11.716
			c0,0.242,0,0.47,0,0.659c0,1.125,1.125,2.25,2.25,2.25c0.562,0,3.656,0,5.625,0L15.75,18v-3.375c1.125,0,2.25-1.125,2.25-2.25
			s0-3.375,0-4.5S16.875,5.625,15.75,5.625z"/>
		<path style="fill:#D1D1D1;" d="M11.25,9c1.125,0,2.25-1.125,2.25-2.25s0-3.375,0-4.5S12.375,0,11.25,0s-7.875,0-9,0
			S0,1.125,0,2.25s0,3.375,0,4.5S1.125,9,2.25,9v3.375L5.625,9C7.594,9,10.688,9,11.25,9z"/>
	</g>
</g>
<g id="Layer_1">
</g>
</svg>
