<?xml version="1.0" encoding="iso-8859-1"?>
<!-- Generator: Adobe Illustrator 21.0.2, SVG Export Plug-In . SVG Version: 6.00 Build 0)  -->
<svg version="1.1" xmlns="http://www.w3.org/2000/svg" xmlns:xlink="http://www.w3.org/1999/xlink" x="0px" y="0px"
	 viewBox="0 0 19.75 19.75" style="enable-background:new 0 0 19.75 19.75;" xml:space="preserve">
<g id="icon-countries">
	<g>
		<circle style="fill:#333333;" cx="9.875" cy="9.875" r="9.875"/>
		<g>
			<path style="fill:none;" d="M16.075,4.375c-0.001,0.002-0.005,0.002-0.006,0.002c0.192,0.034,0.334-0.069,0.528-0.047
				c0.235,0.027,0.439,0.178,0.688,0.208c0.109,0.013,0.13-0.075,0.241-0.069c-0.103-0.305-0.519-0.284-0.694-0.522
				c0.199-0.023,0.048-0.169,0.099-0.196c-0.079,0.017-0.335,0.071-0.326,0.103c0.018,0.063,0.145,0.081,0.198,0.086
				c-0.101,0.15-0.296,0.054-0.386-0.028c-0.223-0.2-0.17-0.131-0.4-0.1c0.029,0.056-0.04,0.081-0.064,0.149
				C16.013,4.189,15.867,4.144,16.075,4.375z"/>
			<path style="fill:none;" d="M3.419,4.545c0.049,0.11,0.309-0.268,0.349-0.312c0.126-0.143,0.473-0.208,0.21,0.073
				c0.041,0,0.043-0.013,0.083-0.023C4.039,4.336,4.022,4.359,4.039,4.386c0.047,0,0.189-0.157,0.238-0.207
				c0.021,0.055,0.247-0.035-0.094-0.13C4.068,4.017,4.165,3.721,4.005,3.84c-0.04-0.105-0.494,0.125-0.586,0.183
				c0.163-0.005,0.266-0.069,0.442-0.099c-0.033,0.041-0.062,0.05-0.091,0.073C3.883,3.994,4,4.037,4.129,4.036
				C3.984,4.108,3.767,4.068,3.635,4.223c0.047-0.019,0.078-0.044,0.111-0.044C3.685,4.217,3.378,4.455,3.419,4.545z"/>
			<path style="fill:none;" d="M18.126,4.881c0.018,0.003,0.033,0.001,0.043-0.003c-0.206-0.056-0.387-0.452-0.603-0.405
				C17.774,4.513,17.893,4.852,18.126,4.881z"/>
			<path style="fill:none;" d="M4.297,4.404C4.304,4.368,4.675,4.4,4.743,4.294C4.684,4.294,4.285,4.325,4.297,4.404z"/>
			<path style="fill:none;" d="M6.862,1.445C6.866,1.442,6.87,1.44,6.876,1.438C6.831,1.442,6.783,1.445,6.739,1.447
				c0.057,0.005,0.113,0.021,0.169,0.017C6.902,1.461,6.856,1.448,6.862,1.445z"/>
			<path style="fill:none;" d="M7.11,1.412c-0.005,0-0.024,0.003-0.055,0.007C7.079,1.416,7.098,1.415,7.11,1.412z"/>
			<path style="fill:none;" d="M3.885,4.5C3.861,4.534,3.838,4.586,3.872,4.587c0.071,0.001,0.225-0.052,0.334-0.091
				C4.159,4.516,3.88,4.536,3.885,4.5z"/>
			<path style="fill:none;" d="M6.842,2.258C6.832,2.258,6.823,2.257,6.818,2.257C6.828,2.26,6.834,2.26,6.842,2.258z"/>
			<path style="fill:none;" d="M3.137,8.546c0,0.002,0.001,0,0.001-0.002C3.138,8.545,3.14,8.545,3.137,8.546z"/>
			<path style="fill:none;" d="M10.264,1.387c-0.027,0.001-0.05,0.002-0.059,0.003C10.235,1.393,10.237,1.393,10.264,1.387z"/>
			<path style="fill:none;" d="M9.096,1.371c0.009,0.002,0.043,0.001,0.093-0.002C9.151,1.369,9.12,1.369,9.096,1.371z"/>
			<path style="fill:none;" d="M9.446,1.39C9.459,1.39,9.544,1.377,9.628,1.367C9.582,1.37,9.536,1.372,9.489,1.373
				C9.46,1.382,9.437,1.391,9.446,1.39z"/>
			<path style="fill:#FFFFFF;" d="M4.909,2.216c0.001,0.006-0.025,0.02-0.044,0.033C4.892,2.241,4.908,2.231,4.909,2.216z"/>
			<path style="fill:#FFFFFF;" d="M4.039,2.247C4.019,2.261,4.153,2.239,4.196,2.233C4.117,2.23,4.057,2.233,4.039,2.247z"/>
			<path style="fill:#FFFFFF;" d="M6.268,2.113c0.024-0.02,0.054-0.029,0.087-0.03C6.327,2.078,6.298,2.087,6.268,2.113z"/>
			<path style="fill:#FFFFFF;" d="M4.196,2.233c0.002,0.001,0.006,0,0.009,0.001c0.001-0.001,0.002-0.001,0.002-0.002
				C4.208,2.231,4.203,2.232,4.196,2.233z"/>
			<path style="fill:#FFFFFF;" d="M6.016,1.862c0.002,0,0.005,0,0.006,0.001C6.027,1.86,6.024,1.86,6.016,1.862z"/>
			<path style="fill:#FFFFFF;" d="M1.196,6.62c0.145-0.254,0.327-0.37,0.577-0.505c0.168-0.091,0.283,0.161,0.406,0.107
				C2.162,6.18,2.216,6.139,2.262,6.07C2.233,6.082,2.24,6.082,2.215,6.066c0.072-0.024,0.138-0.009,0.203-0.024
				C2.394,6.082,2.82,6.15,2.821,6.158C2.84,6.221,2.552,6.951,2.704,6.972c0.169,0.023,0.305-0.485,0.317-0.599
				c0.049-0.453,0.39-0.613,0.766-0.778C3.784,5.592,3.783,5.588,3.781,5.586c0.094-0.062,0.208-0.077,0.298-0.147
				C4.011,5.36,4.116,5.384,4.156,5.331C4.136,5.325,4.12,5.321,4.121,5.29C4.174,5.277,4.208,5.247,4.228,5.2
				c-0.009,0-0.021-0.001-0.029-0.001c-0.011-0.033,0.103-0.227,0.13-0.255C4.325,4.959,4.28,5.147,4.272,5.147
				C4.405,5.15,4.429,4.929,4.496,4.889C4.473,4.836,4.848,4.7,4.934,4.679C4.911,4.653,4.825,4.675,4.796,4.674
				c0.15-0.065,0.354-0.055,0.493-0.106C5.063,4.573,5.469,4.236,5.603,4.265c0.129,0.028,0.392-0.154,0.553-0.159
				C6.124,4.148,6.136,4.164,6.19,4.156C5.979,4.167,5.812,4.435,5.972,4.351C6.068,4.3,6.496,4.234,6.538,4.152
				c0.023-0.047-0.477-0.014-0.254-0.29c-0.02,0-0.059-0.009-0.096-0.009C6.252,3.813,6.37,3.831,6.412,3.756
				c0.05-0.088-0.575,0.055-0.606,0.058c0.258-0.206,1.5-0.164,1.376-0.581C7.146,3.243,6.741,3.35,6.734,3.3
				c0.093-0.027,0.321-0.048,0.37-0.095c0.03-0.037-0.321-0.006-0.251-0.121l0.003-0.007C6.773,3.078,6.744,3.047,6.71,3.026
				c0.211-0.067-0.053-0.423-0.176-0.257C6.55,2.789,6.57,2.802,6.591,2.813c-0.056-0.018-0.097-0.03-0.035-0.141
				C6.454,2.859,6.04,2.74,5.903,2.673c-0.481-0.23-0.335,0.089-0.696,0.17c0.007,0.173,0.249,0.174-0.082,0.306
				C4.857,3.257,5.014,3.315,4.876,3.467C4.756,3.469,4.71,3.457,4.7,3.438C4.72,3.446,4.742,3.451,4.767,3.45
				c0.026-0.037-0.033-0.038-0.071-0.029c0.013-0.052,0.15-0.137,0.056-0.205C4.47,3.226,4.504,3.02,4.156,3.036
				C4.251,2.937,4.267,2.879,4.12,2.904c0.189-0.128,0.552-0.239,0.704-0.376C4.812,2.516,4.797,2.508,4.782,2.502
				C4.955,2.519,5.246,2.487,5.36,2.388C5.279,2.379,5.177,2.39,5.189,2.348c0.08,0.025,0.177,0.025,0.282,0.01
				C5.377,2.397,5.254,2.467,5.208,2.506C5.234,2.502,5.292,2.496,5.331,2.5C5.308,2.516,5.282,2.533,5.316,2.532
				c0.137-0.006,0.363-0.03,0.501-0.068C5.81,2.445,5.748,2.455,5.719,2.438C5.712,2.432,5.732,2.421,5.731,2.411
				C5.716,2.376,5.583,2.358,5.551,2.372c0.002-0.01,0-0.017,0.001-0.025C5.584,2.339,5.616,2.33,5.647,2.321
				c-0.013,0.01-0.002,0.02,0.032,0.02C5.675,2.33,5.693,2.313,5.653,2.32c0.19-0.053,0.371-0.142,0.462-0.219
				C6.068,2.102,6.013,2.08,5.965,2.075c0.067-0.002,0.127-0.004,0.16-0.003c-0.046,0.035,0.176-0.023,0.237,0.01
				c-0.002,0-0.005,0.001-0.007,0.001c0.017,0.002,0.035,0.01,0.051,0.026C6.381,2.116,6.359,2.121,6.335,2.128
				c0.003-0.005,0.142,0.001,0.174,0.017C6.451,2.137,6.399,2.15,6.351,2.182c-0.004,0.003,0.185,0.057,0.19-0.02
				c0.118,0.086-0.237,0.149-0.137,0.183c-0.125,0.054-0.36,0.017-0.448,0.134C5.942,2.5,6.343,2.455,6.382,2.473
				C6.477,2.521,6.658,2.63,6.81,2.597C6.93,2.569,6.702,2.46,6.702,2.461c0.207-0.034,0.2,0.069,0.255-0.109
				C6.885,2.361,6.864,2.292,6.813,2.297c0.011-0.034,0.03-0.014,0.042-0.037c0.094,0.014,0.289,0.069,0.307-0.053
				c0-0.007-0.261-0.097-0.281-0.102C6.906,2.088,6.918,2.088,6.95,2.078C6.927,2.068,6.902,2.065,6.876,2.07
				c0.019-0.012,0.04-0.011,0.065-0.015C6.922,2.036,6.9,2.028,6.874,2.033c0.002-0.005,0.005-0.01,0.007-0.015
				C6.664,2.009,6.477,1.942,6.25,1.94c0.011,0,0.035-0.046,0.034-0.052c-0.032-0.091-0.567,0.09-0.442,0.033
				c-0.058,0,0.134-0.05,0.175-0.058C5.904,1.856,5.803,1.856,5.688,1.878c0.04-0.013,0.079-0.021,0.115-0.04
				c-0.238,0.01-0.326,0.009-0.498,0.131c0.056,0.002,0.11-0.011,0.16-0.042C5.454,1.928,5.443,1.928,5.432,1.929
				c0.061-0.03,0.166-0.021,0.225-0.04C5.622,1.908,5.406,1.932,5.44,1.999c0,0,0.149,0.003,0.166,0.01
				c-0.048,0.04-0.105,0.046-0.175,0.017C5.371,2.075,5.858,2.08,5.86,2.08C5.799,2.096,5.562,2.31,5.48,2.233
				C5.468,2.182,5.498,2.158,5.566,2.161c0.056-0.047-0.233,0.021-0.218,0.02C5.42,2.122,5.288,2.146,5.397,2.116
				C5.371,2.105,5.298,2.12,5.291,2.103C5.326,2.092,5.359,2.081,5.395,2.07C5.474,2.01,5.142,2.018,5.051,2.086
				c-0.025,0.018,0.12,0.031,0.094,0.051c-0.023,0.014-0.047,0.027-0.07,0.039c0.024-0.006,0.043-0.009,0.07-0.015
				C5.109,2.214,4.973,2.195,4.888,2.262C4.836,2.271,4.845,2.261,4.864,2.249c-0.12,0.031-0.454-0.008-0.66-0.015
				C4.127,2.297,3.989,2.308,3.943,2.292c-0.264-0.091-0.475,0.095-0.65,0.251C2.761,3.02,2.279,3.555,1.861,4.135
				C1.012,5.315,0.427,6.681,0.165,8.112c0.078-0.001,0.106,0.314,0.205,0.34C0.45,8.473,0.536,8.237,0.583,8.421
				c0.066,0.016,0.034,0.334,0.063,0.398C0.71,8.988,0.839,9.079,0.969,9.122c-0.04,0.144-0.016,0.265-0.008,0.41
				c0.011,0.159-0.12,0.322-0.082,0.472c0.011,0.005,0.024,0.009,0.038,0.013c-0.002-0.019,0.009-0.05,0.025-0.072
				c0.149,0.05,0.053,0.81,0.25,0.891c0.102,0.043,0.118-0.446,0.325-0.374c0.103,0.039,0.019,0.299,0.029,0.373
				c0.001,0.003,0.167-0.15,0.182-0.173c-0.034-0.123-0.04-0.459-0.261-0.364C1,10.498,1.2,9.687,1.295,9.446
				c0.106-0.279,0.506-0.79-0.032-0.823C0.816,8.596,1.33,8.179,1.387,8.079c0.042-0.049,0.08-0.091,0.12-0.178
				C1.57,7.77,1.681,7.674,1.744,7.543C1.239,7.451,1.22,8.106,0.755,8.005C0.414,7.934,1.151,6.707,1.189,6.618
				C1.192,6.619,1.193,6.62,1.196,6.62z M6.842,2.258C6.834,2.26,6.828,2.26,6.818,2.257C6.823,2.257,6.832,2.258,6.842,2.258z
				 M3.872,4.587C3.838,4.586,3.861,4.534,3.885,4.5C3.88,4.536,4.159,4.516,4.206,4.496C4.097,4.535,3.943,4.588,3.872,4.587z
				 M4.743,4.294C4.675,4.4,4.304,4.368,4.297,4.404C4.285,4.325,4.684,4.294,4.743,4.294z M3.635,4.223
				c0.133-0.154,0.35-0.115,0.495-0.187C4,4.037,3.883,3.994,3.769,3.997c0.03-0.023,0.058-0.033,0.091-0.073
				c-0.176,0.03-0.279,0.095-0.442,0.099C3.511,3.965,3.965,3.736,4.005,3.84c0.16-0.119,0.063,0.176,0.178,0.209
				c0.341,0.094,0.114,0.185,0.094,0.13c-0.049,0.05-0.191,0.207-0.238,0.207c-0.017-0.027,0-0.05,0.022-0.102
				c-0.04,0.01-0.042,0.023-0.083,0.023c0.263-0.281-0.085-0.216-0.21-0.073c-0.04,0.044-0.299,0.422-0.349,0.312
				c-0.04-0.091,0.266-0.329,0.327-0.367C3.712,4.179,3.681,4.203,3.635,4.223z"/>
			<path style="fill:#FFFFFF;" d="M6.714,4.016c0.006-0.012-0.013-0.019-0.015-0.032c-0.059,0.025-0.11,0.061-0.152,0.108
				C6.526,4.133,6.693,4.126,6.723,4.065C6.627,4.064,6.696,4.051,6.714,4.016z"/>
			<path style="fill:#FFFFFF;" d="M7.1,3.772C7.082,3.776,7.062,3.779,7.044,3.783c0,0,0.005-0.011,0.006-0.015
				c-0.026,0-0.053-0.001-0.077-0.001C6.975,3.744,6.989,3.73,7.012,3.726C6.966,3.703,6.92,3.705,6.876,3.734
				c0.005-0.01,0.238-0.199,0.178-0.199c-0.191,0-0.329,0.269-0.506,0.323c0,0.009,0.013,0.015,0.025,0.015
				C6.551,3.92,6.48,3.907,6.459,3.95C6.458,3.955,6.908,3.988,6.958,3.988c-0.027,0.01-0.05,0.028-0.07,0.051
				c-0.01,0.022,0.193-0.086,0.191-0.084c0.086,0.09,0.078,0.219,0.166-0.011C7.213,3.957,7.223,3.964,7.179,3.963
				c0.026-0.066,0.018-0.031,0.053-0.098c-0.016,0-0.041,0.003-0.053,0.009C7.198,3.827,7.214,3.8,7.225,3.772
				C7.2,3.781,7.143,3.781,7.1,3.772z"/>
			<path style="fill:#FFFFFF;" d="M5.072,2.653c0.051-0.006,0.159-0.044,0.206-0.065C5.212,2.57,5.156,2.602,5.095,2.63
				C5.088,2.637,5.081,2.644,5.072,2.653z"/>
			<path style="fill:#FFFFFF;" d="M4.408,1.714C4.353,1.708,4.307,1.728,4.271,1.775c0.045,0.006,0.078-0.006,0.098-0.038
				C4.428,1.732,4.44,1.724,4.408,1.714z"/>
			<path style="fill:#FFFFFF;" d="M4.443,1.754c0.026,0.004,0.047-0.002,0.069-0.014c-0.026,0.001-0.05,0.002-0.075,0.003
				C4.421,1.753,4.432,1.755,4.443,1.754z"/>
			<path style="fill:#FFFFFF;" d="M4.59,1.689c-0.022-0.014-0.045-0.013-0.069,0C4.542,1.708,4.564,1.708,4.59,1.689z"/>
			<path style="fill:#FFFFFF;" d="M6.428,3.652c0.058,0.046,0.168,0.126,0.247,0.07C6.607,3.686,6.562,3.632,6.428,3.652z"/>
			<path style="fill:#FFFFFF;" d="M4.8,1.682C4.702,1.687,4.719,1.683,4.853,1.67C4.852,1.664,4.847,1.66,4.839,1.657
				c0.011-0.001,0.024-0.003,0.034-0.004C4.808,1.654,4.689,1.646,4.653,1.665c0.031-0.009,0.063-0.01,0.095-0.004
				c-0.08,0.018-0.166,0.055-0.11,0.052C4.686,1.712,4.773,1.7,4.8,1.682z"/>
			<path style="fill:#FFFFFF;" d="M3.65,2.239C3.629,2.256,3.607,2.273,3.587,2.29c0.025-0.007,0.067-0.007,0.087-0.014
				C3.679,2.247,3.68,2.238,3.65,2.239z"/>
			<path style="fill:#FFFFFF;" d="M4.917,1.647C4.902,1.65,4.889,1.651,4.874,1.653C4.896,1.653,4.913,1.651,4.917,1.647z"/>
			<path style="fill:#FFFFFF;" d="M3.768,2.219c0.03,0.031,0.703,0.007,0.817-0.045c0,0-0.017-0.031-0.024-0.026
				c0.038-0.026,0.12-0.018,0.161-0.029C4.637,2.051,4.568,2.126,4.627,2.003c0.011-0.025,0.146-0.109,0.155-0.106
				C4.623,1.841,4.504,2.026,4.387,2.032c0.021-0.001-0.179-0.071-0.302-0.04C4.092,1.96,4.081,1.949,4.062,1.95
				c0.003-0.007,0.006-0.017,0.003-0.029C4.046,1.934,4.027,1.948,4.008,1.962c0.006,0.001,0.009,0.001,0.013,0.001
				C3.944,2,3.822,2.105,3.79,2.129C3.829,2.123,3.904,2.11,3.95,2.132C3.829,2.143,3.776,2.138,3.677,2.217
				C3.712,2.215,3.759,2.212,3.768,2.219z"/>
			<path style="fill:#FFFFFF;" d="M4.289,1.848C4.299,1.842,4.32,1.836,4.335,1.834c0.001,0.002,0,0.003,0,0.005
				C4.51,1.8,4.771,1.878,4.932,1.781c0.018-0.011-0.21,0.005-0.099-0.05C4.813,1.732,4.605,1.77,4.702,1.772
				C4.688,1.783,4.671,1.789,4.653,1.789c0.005,0.001,0.015,0.001,0.04,0C4.572,1.837,4.453,1.758,4.342,1.77
				c-0.01,0.005-0.007,0.007,0.001,0.009c-0.024,0-0.047,0.004-0.069,0.013c0.004,0.002,0.008,0.003,0.015,0.003
				c-0.03,0-0.048,0-0.071,0.017C4.224,1.813,4.23,1.814,4.235,1.814C4.201,1.811,4.174,1.825,4.152,1.858
				C4.199,1.862,4.245,1.858,4.289,1.848z"/>
			<path style="fill:#FFFFFF;" d="M4.335,1.839C4.304,1.847,4.277,1.856,4.252,1.871C4.309,1.886,4.336,1.875,4.335,1.839z"/>
			<path style="fill:#FFFFFF;" d="M3.221,6.799c-0.011,0.016-0.016,0.051,0,0.047C3.221,6.831,3.221,6.815,3.221,6.799z"/>
			<path style="fill:#FFFFFF;" d="M7.589,12.413c-0.205-0.042-0.321-0.165-0.514-0.219c-0.193-0.054-0.405,0.009-0.571,0.024
				c-0.037-0.154-0.087-0.147-0.219-0.204c-0.355-0.149-0.189,0.18-0.371,0.197c-0.184,0.022-0.39-0.216-0.245-0.407
				c0.095-0.126-0.252-0.624-0.454-0.609c-0.175,0.006-0.636-0.035-0.745-0.195c-0.136-0.205-0.631-0.257-0.674-0.485
				c0.016,0.01,0.051,0.002,0.066-0.014c-0.135,0-0.331,0.132-0.432,0.095c-0.073-0.026-0.287,0.002-0.337-0.055
				c-0.07-0.079-0.213-0.182-0.33-0.178c0.013,0.062,0.078,0.033,0.108,0.094c-0.33,0.02-0.089,0.355-0.152,0.359
				c-0.145,0.009-0.105-0.305-0.105-0.37c0.04-0.033,0.046-0.065,0.015-0.098c-0.058-0.083-0.107,0.06-0.153,0.079
				c-0.201,0.089-0.534,0.273-0.481,0.543c-0.255,0.105,0,0.434,0.042,0.629c-0.024,0.046-0.007,0.077,0.049,0.094
				c0.002,0.208-0.273,0.426-0.278,0.629c-0.005,0.236-0.068,0.267,0.146,0.385c0.004,0.142-0.152,0.209-0.111,0.37
				c0.042,0.171,0.192,0.178,0.267,0.282c0.149,0.218,0.337,0.447,0.524,0.649c0.224,0.241,0.281,0.554,0.645,0.617
				c0.285,0.039,0.602,0.217,0.715,0.483c0.105,0.242,0.141,0.494,0.226,0.741c0.043,0.261,0.019,0.717,0.178,0.926
				c0.147,0.361,0.17,0.589,0.174,0.954c0,0.188,0.105,0.208,0.168,0.342c0.059,0.13-0.041,0.245,0.154,0.36
				c0.006-0.045,0.03-0.066,0.07-0.067c0.171,0.36,0.856,0.553,1.223,0.701c0.028-0.145-0.534-0.239-0.249-0.414
				c0.173-0.081,0.035-0.308-0.007-0.401c0.032-0.009,0.181,0.042,0.138-0.057c0.029,0.063-0.416-0.14-0.24-0.187
				c0.096-0.026,0.329,0.049,0.263-0.108c0.003-0.079-0.149-0.245-0.005-0.281c0.122-0.03,0.328-0.058,0.39-0.192
				c0.167-0.378-0.19-0.273-0.287-0.523c0.022,0.053,0.526-0.024,0.557-0.187c0.047-0.245,0.136-0.458,0.169-0.701
				c0,0.002,0.001,0.003,0.001,0.006c-0.001-0.094,0.03-0.177,0.09-0.247c-0.035-0.106-0.07-0.213-0.102-0.321
				c-0.024-0.124,0.146-0.303,0.237-0.361c0.328-0.206,0.384-0.342,0.48-0.718c0.031-0.219-0.193-0.719-0.117-0.866
				C7.607,13.312,8.026,12.506,7.589,12.413z"/>
			<path style="fill:#FFFFFF;" d="M3.226,7.885C3.294,7.889,3.332,7.86,3.341,7.797C3.325,7.813,3.159,7.867,3.226,7.885z"/>
			<path style="fill:#FFFFFF;" d="M7.675,1.98c0.006-0.002,0.009-0.005,0.014-0.007C7.683,1.972,7.677,1.974,7.675,1.98z"/>
			<path style="fill:#FFFFFF;" d="M18.789,9.214c-0.335,0.06-0.462,0.156-0.553-0.247c-0.065-0.281-0.546-0.474-0.61-0.772
				c-0.049-0.226-0.104-0.305-0.253-0.47c-0.137-0.155-0.088-0.421-0.198-0.611c-0.096-0.165-0.119-0.338-0.207-0.509
				c-0.13-0.254-0.403-0.594-0.417-0.879c0.087,0.095,0.185,0.354,0.289,0.371c0.064-0.277,0.072-0.348-0.034-0.615
				c-0.183,0.05-0.341-0.065-0.516-0.001c-0.234,0.087-0.417,0.057-0.653-0.027c-0.166-0.059-0.834-0.451-0.825,0.003
				c0.009,0.526-0.617-0.157-0.78-0.21c-0.175-0.057-0.464,0.042-0.462-0.259c0.001-0.17,0.064-0.301,0.075-0.453
				c-0.05,0.048-0.096,0.044-0.137-0.011c-0.077-0.118-0.184,0.037-0.269,0.039c-0.175,0.006-0.334,0.002-0.507,0.008
				c-0.259,0.01-0.536,0.148-0.759,0.274c-0.275,0.161-0.519-0.074-0.675,0.137c0.003-0.001,0.006-0.001,0.009-0.001
				c-0.137,0.184-0.301,0.347-0.434,0.534c-0.091,0.129-0.059,0.296-0.106,0.441c-0.042,0.137-0.197,0.266-0.326,0.314
				c-0.235,0.087-0.329,0.354-0.426,0.567C9.938,7.01,9.874,7.172,9.781,7.336C9.658,7.553,9.824,7.895,9.814,8.129
				C9.809,8.295,9.748,8.488,9.658,8.627C9.571,8.763,9.685,8.928,9.681,9.107C9.676,9.108,9.672,9.108,9.666,9.108
				c0.09,0.145,0.201,0.274,0.314,0.4c0.201,0.223,0.246,0.524,0.462,0.741c0.162,0.164,0.355,0.421,0.615,0.333
				c0.12-0.042,0.215-0.116,0.346-0.119c0.108-0.003,0.194,0.093,0.301,0.091c0.253-0.006,0.503-0.36,0.809-0.367
				c0.223-0.005,0.205,0.377,0.398,0.373c0.625-0.013,0.55,0.434,0.391,0.867c-0.102,0.279,0.171,0.543,0.327,0.739
				c0.155,0.197,0.173,0.491,0.237,0.73c0.059,0.223,0.168,0.573,0.113,0.805c-0.054,0.23-0.247,0.394-0.289,0.632
				c-0.062,0.333,0.066,0.659,0.213,0.95c0.141,0.278,0.149,0.395,0.182,0.701c0.072,0.663,0.578,1.141,0.571,1.775
				c0.065-0.038,0.271,0.09,0.448-0.005c0.187-0.099,0.351-0.052,0.543-0.072c0.015-0.079,0.371-0.206,0.445-0.305
				c0.173-0.234,0.274-0.503,0.461-0.725c0.203-0.239-0.026-0.416,0.214-0.616c0.224-0.187,0.297-0.113,0.31-0.476
				c0.006-0.157-0.29-0.54,0.03-0.605c0.038-0.228,0.264-0.327,0.44-0.435c0.5-0.308,0.113-0.745,0.316-1.177
				c0.074-0.158-0.165-0.342-0.162-0.514c0.002-0.166-0.038-0.327-0.035-0.493c0.001-0.165,0.136-0.247,0.169-0.399
				c0.125-0.573,0.616-0.731,0.918-1.174c0.262-0.382,0.775-1.284,0.581-1.748C19.153,9.076,18.976,9.173,18.789,9.214z"/>
			<path style="fill:#FFFFFF;" d="M18.529,14.66c0.049-0.087,0.095-0.177,0.139-0.266C18.599,14.441,18.544,14.508,18.529,14.66z"/>
			<path style="fill:#FFFFFF;" d="M9.386,1.898c0.025-0.074,0.171,0.119,0.211-0.001c-0.039-0.022-0.08-0.038-0.123-0.05
				C9.55,1.845,9.673,1.903,9.74,1.825C9.728,1.823,9.716,1.816,9.718,1.808c0.053-0.003,0.111-0.015,0.134-0.034
				c-0.038,0.005-0.07-0.002-0.101-0.021c0.014-0.039,0.081,0.009,0.101-0.041c0.02-0.054-0.105-0.047-0.101-0.061
				c0.027-0.066,0.232,0.026,0.258-0.04C9.978,1.596,9.944,1.585,9.907,1.58c0.016,0,0.037-0.003,0.051-0.007
				C9.899,1.557,9.84,1.554,9.779,1.561c0.07-0.037,0.456-0.122,0.485-0.174c0.107-0.005,0.31-0.018,0.34-0.064
				c0.009-0.016-0.949,0.1-1.004,0.108c0.011-0.01,0.209-0.074,0.214-0.08C9.818,1.346,9.774,1.349,9.72,1.355
				c0.069-0.011,0.126-0.03,0.162-0.061c-0.505-0.01-1.053-0.04-1.548,0.074c0.005,0.005,0.019,0.005,0.027,0.009
				C8.335,1.376,8.309,1.381,8.286,1.39c0.023,0.017,0.05,0.025,0.081,0.023c-0.041,0.002-0.24-0.038-0.264,0.001
				C8.1,1.421,8.105,1.424,8.107,1.43C8.068,1.416,8.014,1.406,7.994,1.441c-0.072,0.005-0.57,0.025-0.623,0.129
				c0.031,0.012,0.062,0.015,0.093,0.009C7.41,1.68,7.183,1.591,7.14,1.681C7.126,1.712,7.345,1.696,7.364,1.695
				c-0.042,0.049-0.165-0.006-0.201,0.05c0.03-0.006,0.059-0.003,0.088,0.01C7.243,1.762,7.233,1.763,7.219,1.769
				C7.25,1.786,7.282,1.79,7.314,1.782C7.31,1.781,7.306,1.778,7.302,1.776C7.398,1.75,7.758,1.75,7.692,1.921
				c0.046,0.011,0.043,0.028-0.004,0.051c0.039-0.003,0.147,0.059,0.164,0.062C7.821,2.081,7.757,2.025,7.711,2.036
				C7.709,2.063,7.822,2.068,7.868,2.078c-0.049,0.06-0.181,0.077-0.205,0.157c0.01-0.005,0.022-0.004,0.031,0.001
				C7.631,2.321,7.741,2.335,7.769,2.369c-0.137,0.073,0.239,0.245,0.29,0.249c0.08,0.006,0.264-0.303,0.417-0.332
				C8.473,2.294,8.47,2.302,8.469,2.31c0.165,0.005,0.249-0.09,0.393-0.131C9.084,2.182,9.32,2.144,9.531,2.072
				C9.48,2.062,9.254,2.066,9.266,2.029c0.072-0.007,0.033-0.008,0.043-0.046c0.033,0.01,0.274,0.101,0.291,0.046
				C9.622,1.951,9.422,1.917,9.386,1.898z M10.264,1.387c-0.026,0.006-0.029,0.006-0.059,0.003
				C10.213,1.389,10.236,1.388,10.264,1.387z M9.446,1.39C9.437,1.391,9.46,1.382,9.489,1.373c0.047-0.001,0.094-0.002,0.14-0.006
				C9.544,1.377,9.459,1.39,9.446,1.39z M9.096,1.371C9.12,1.369,9.151,1.369,9.188,1.369C9.139,1.372,9.105,1.373,9.096,1.371z"/>
			<path style="fill:#FFFFFF;" d="M3.128,6.717C3.109,6.714,3.07,6.733,3.05,6.754c0.024,0.003,0.062,0.014,0.105,0.013
				C3.154,6.749,3.157,6.72,3.128,6.717z"/>
			<path style="fill:#FFFFFF;" d="M9.782,2.187C9.773,2.186,9.762,2.191,9.752,2.194c0.271,0.026,0.422,0.14,0.71,0.015
				c0.022-0.037-0.094-0.095-0.016-0.115c-0.035-0.004-0.336-0.035-0.342,0c-0.041-0.025-0.091,0.011-0.12-0.031
				C9.952,2.08,9.864,2.114,9.901,2.027C9.861,2.022,9.8,2.041,9.762,2.046C9.756,2.06,9.874,2.116,9.869,2.111
				C9.835,2.117,9.762,2.119,9.723,2.116c0.013,0.02,0.071,0.006,0.107,0.017C9.811,2.152,9.797,2.162,9.782,2.187z"/>
			<path style="fill:#FFFFFF;" d="M6.683,3.601C6.612,3.657,6.763,3.613,6.683,3.601L6.683,3.601z"/>
			<path style="fill:#FFFFFF;" d="M2.439,8.552c-0.033-0.007-0.16,0.157,0.126,0.145c0.008-0.03,0.008-0.054-0.014-0.074
				c0.001,0.006,0.002,0.011,0.003,0.016C2.535,8.619,2.492,8.565,2.439,8.552z"/>
			<path style="fill:#FFFFFF;" d="M2.888,8.705c0.09-0.249,0.303,0.138,0.305,0.139C3.228,8.85,3.372,8.626,3.382,8.723
				c0.001,0.002,0.312,0.002,0.324,0.005c0,0.008-0.038-0.13-0.056-0.195C3.592,8.431,3.613,8.28,3.462,8.257
				C3.39,8.245,3.311,8.309,3.26,8.229C3.15,8.058,3.14,8.498,3.138,8.543C3.11,8.529,2.653,8.567,2.888,8.705z M3.138,8.543
				c0,0.003-0.001,0.004-0.001,0.002C3.14,8.545,3.138,8.545,3.138,8.543z"/>
			<path style="fill:#FFFFFF;" d="M6.284,3.975C6.274,3.977,6.26,3.987,6.255,3.996c-0.016,0.03,0.168,0.135,0.216,0.032
				C6.394,4.053,6.331,4.035,6.284,3.975z"/>
			<path style="fill:#FFFFFF;" d="M3.009,8.181C2.947,8.094,3.044,8.018,2.909,7.979c0.013-0.074-0.183-0.357-0.27-0.441
				C2.373,7.276,2.188,7.326,1.942,7.636c0.241,0.033,0.267-0.302,0.345-0.037C2.59,7.637,2.653,7.956,2.568,8.157
				C2.72,8.182,2.869,8.37,3.009,8.181z"/>
			<path style="fill:#FFFFFF;" d="M3.861,8.856C3.827,8.964,4.014,9.018,4.065,8.944C4.063,8.893,3.894,8.75,3.861,8.856z"/>
			<path style="fill:#FFFFFF;" d="M3.649,8.533C3.65,8.534,3.652,8.537,3.653,8.539C3.635,8.481,3.638,8.494,3.649,8.533z"/>
			<path style="fill:#FFFFFF;" d="M2.999,7.131c0.01-0.02-0.009-0.118-0.023-0.092C2.969,7.055,2.951,7.233,2.999,7.131z"/>
			<path style="fill:#FFFFFF;" d="M2.128,7.669C2.095,7.677,2.073,7.698,2.062,7.734c0.021-0.043,0.033,0.101,0.107-0.109
				C2.144,7.598,2.145,7.633,2.128,7.669z"/>
			<path style="fill:#FFFFFF;" d="M5.525,1.778c-0.005,0-0.039,0.007-0.054,0.016c0.005,0,0.286,0.007,0.21-0.033
				C5.629,1.747,5.577,1.752,5.525,1.778z"/>
			<path style="fill:#FFFFFF;" d="M13.691,4.267c0.042,0.348,0.272-0.134-0.051-0.083C13.647,4.215,13.689,4.237,13.691,4.267z"/>
			<path style="fill:#FFFFFF;" d="M11.52,2.765c0.202,0.014,0.327-0.045,0.331-0.227c0-0.027,0.168-0.13-0.057-0.145
				c-0.039-0.003-0.235-0.011-0.163,0.069c-0.029,0.016-0.155,0.001-0.159,0.046c0.025,0.019,0.049,0.039,0.072,0.059
				C11.529,2.621,11.309,2.751,11.52,2.765z"/>
			<path style="fill:#FFFFFF;" d="M13.737,4.119c0.01-0.022,0.013-0.102,0.022-0.145c-0.014-0.004-0.021-0.023-0.023-0.041
				c-0.029,0.021-0.058,0.033-0.091,0.035C13.668,3.999,13.694,4.107,13.737,4.119z"/>
			<path style="fill:#FFFFFF;" d="M15.938,5.15c-0.078-0.029-0.186-0.061-0.278-0.054C15.718,5.128,15.867,5.182,15.938,5.15z"/>
			<path style="fill:#FFFFFF;" d="M12.958,4.272c0.003,0.003,0.096,0.073,0.091,0.023C13.037,4.24,13.007,4.232,12.958,4.272z"/>
			<path style="fill:#FFFFFF;" d="M12.042,2.506c-0.023,0.006-0.028,0.016-0.028,0.029c0.023,0.002,0.035,0.003,0.043,0.004
				c0-0.013,0.005-0.024,0.005-0.031C12.058,2.506,12.047,2.506,12.042,2.506z"/>
			<path style="fill:#FFFFFF;" d="M11.8,2.152c0.041,0.003,0.072-0.022,0.073-0.045C11.865,2.106,11.723,2.148,11.8,2.152z"/>
			<path style="fill:#FFFFFF;" d="M11.833,2.177c-0.001,0.028,0.027,0.038,0.085,0.048c-0.002,0.073,0.013,0.055,0.011,0.144
				c0.01,0.001,0.019,0.002,0.031,0.002c-0.008-0.01-0.018-0.018,0.001-0.036c0.128,0.065,0.026,0.023,0.025,0.111
				c-0.001,0.039,0.161,0.021,0.184,0.023c-0.044,0.057,0.006,0.068,0.066,0.069c0.001,0.082-0.111,0.081-0.174,0.075
				c0,0.095-0.08,0.107-0.08,0.158c0,0.014,0.213,0.053,0.242,0.023c0.002,0.046-0.219,0.082-0.266,0.161
				c0.079,0.004,0.755-0.057,0.754-0.087c-0.027-0.006-0.055-0.012-0.082-0.018c0.093-0.106,0.093-0.204,0.003-0.162
				c-0.015,0.005-0.017,0.012-0.046,0.015c-0.006-0.153-0.24-0.307-0.392-0.347c0.016-0.037,0.147-0.089,0.131-0.151
				c-0.115,0.053-0.193,0.042-0.231-0.034c0.031-0.014,0.063-0.031,0.093-0.05c0.004-0.129-0.323,0.042-0.256,0.069
				C11.933,2.202,11.841,2.177,11.833,2.177z"/>
			<path style="fill:#FFFFFF;" d="M4.94,1.817c0.033,0.006,0.054-0.003,0.065-0.028c-0.04,0.006-0.072,0.012-0.109,0.029
				C4.916,1.817,4.917,1.818,4.94,1.817z"/>
			<path style="fill:#FFFFFF;" d="M14.188,4.599c0.007,0.051,0.265,0.193,0.321,0.199c0.003,0,0.006-0.144,0.016-0.181
				C14.471,4.602,14.234,4.583,14.188,4.599z"/>
			<polygon style="fill:#FFFFFF;" points="12.928,1.32 12.928,1.318 12.924,1.319 			"/>
			<path style="fill:#FFFFFF;" d="M14.84,2.353c0.046,0.005,0.066-0.037,0.069-0.072c-0.028-0.01-0.122-0.039-0.041,0.023
				c-0.026-0.001-0.046,0.012-0.073,0.011C14.797,2.329,14.807,2.35,14.84,2.353z"/>
			<path style="fill:#FFFFFF;" d="M12.924,1.319c-0.03,0.006,0.027,0.028,0.066,0.033C12.976,1.336,12.95,1.332,12.924,1.319z"/>
			<path style="fill:#FFFFFF;" d="M13.044,1.341c-0.007,0-0.01,0.001-0.016,0.001c0.029,0.022,0.149,0.01,0.211,0.008
				c-0.051,0.007-0.144,0.022-0.144,0.02c0.003,0.024,0.165,0.019,0.184,0.025c-0.054,0.002-0.101-0.002-0.154-0.002
				c0.009,0.117,0.329,0.003,0.437-0.02c0.013,0.009,0.032,0.021,0.049,0.025c-0.003,0.013-0.032,0.007-0.035,0.025
				c0.034,0.002,0.089,0.005,0.122,0.008c-0.007,0.005-0.007,0.01,0,0.018c0.067-0.004,0.095-0.019,0.167-0.024
				c-0.078-0.039-0.174-0.051-0.247-0.06c0.007,0,0.016,0.001,0.025,0c-0.018-0.008-0.041-0.015-0.063-0.022
				c0.145,0.014,0.399-0.028,0.454-0.037c-0.151-0.075-0.407-0.039-0.571-0.042c0.004,0.003,0.009,0.005,0.013,0.007
				c-0.013,0-0.025,0-0.04-0.001c0,0.002,0,0.002,0.001,0.003c-0.027-0.002-0.054-0.003-0.081-0.003
				c0.015,0.031,0.101,0.026,0.12,0.027c0.005,0.001,0.106,0.005,0.117,0.006c-0.037,0.002-0.074,0.002-0.11,0.002
				c0.005,0.007,0.013,0.013,0.023,0.019c-0.058-0.013-0.119-0.019-0.162-0.014c-0.001-0.006,0.005-0.009,0.005-0.014
				c-0.001-0.005-0.201-0.057-0.105,0.025c-0.015-0.002-0.164-0.023-0.119-0.013C13.108,1.3,13.087,1.3,13.066,1.294
				c0.007-0.003,0.014-0.005,0.023-0.009c-0.056-0.011-0.112-0.009-0.168,0.009c0.022,0.01,0.042,0.017,0.066,0.02
				C12.978,1.326,13.009,1.333,13.044,1.341z"/>
			<path style="fill:#FFFFFF;" d="M13.679,2.417c0.003,0.005,0.007,0.01,0.008,0.016C13.684,2.422,13.682,2.418,13.679,2.417z"/>
			<path style="fill:#FFFFFF;" d="M14.447,2.417c0.022-0.028,0.042-0.055,0.064-0.082C14.488,2.334,14.396,2.377,14.447,2.417z"/>
			<path style="fill:#FFFFFF;" d="M12.379,3.028c0.002,0.042,0.024,0.07,0.026,0.108c-0.04,0.005-0.361-0.059-0.361,0.013
				c0,0.105,0.551,0.163,0.43,0.364c0.002-0.001,0.005-0.003,0.008-0.004c0.014,0.278-0.064,0.205-0.263,0.231
				c-0.182-0.014-0.354-0.061-0.535-0.076c-0.209-0.015-0.123,0.121-0.123,0.222c0,0.073-0.143,0.611,0.019,0.623
				c0.158,0.011,0.219-0.047,0.317,0.107c0.078,0.122,0.322-0.065,0.454-0.015c0.111-0.044,0.233-0.134,0.311-0.245
				c-0.258-0.114,0.337-0.369,0.343-0.391c-0.112-0.289,0.319-0.061,0.449-0.127c0.266-0.135,0.302-0.058,0.503,0.153
				c-0.038-0.082,0.874,0.631,0.59,0.604c0.021,0.121,0.174-0.116,0.177-0.092c-0.034-0.198-0.138-0.173,0.133-0.102
				c-0.002-0.167-0.29-0.13-0.318-0.279c-0.19-0.018-0.488-0.271-0.512-0.454c-0.017-0.118,0.558,0.28,0.606,0.285
				c0.023,0.13,0.302,0.16,0.338,0.359c0.022,0.118,0.257,0.351,0.368,0.363c-0.059,0.122,0.027,0.192,0.17,0.208
				c-0.024-0.013-0.058-0.171-0.064-0.197c0.059,0.053,0.129,0.093,0.2,0.057c-0.122-0.103-0.179-0.202-0.287-0.304
				c-0.016-0.09,0.158,0.031,0.159,0.032c0.003-0.03-0.001-0.053-0.017-0.085c0.104-0.019,0.12-0.064,0.23,0.013
				c0.141,0.101,0.122-0.031,0.251-0.013c-0.001,0.018,0.038,0.041,0.045,0.054c-0.056,0.022-0.383-0.034-0.355,0.09
				c0.021,0.088,0.158,0.03,0.021,0.171c0.126,0.064,0.195,0.138,0.303,0.229c-0.003,0.009-0.019,0.019-0.031,0.022
				c0.358,0.035,0.653,0.18,1.005,0.085c0.043,0.163,0.008,0.291-0.004,0.456c-0.002,0.048,0.013,0.211-0.029,0.242
				c-0.015,0.011,0.149,0.319,0.151,0.383c0.018,0.435,0.669,0.673,0.76,1.07c0.055,0.239,0.249,0.384,0.39,0.572
				c0.186,0.252,0.254,0.438,0.393,0.708c0.259,0.507,0.598,0.094,1.013-0.023c-0.072-0.481-0.177-0.949-0.315-1.405
				c-0.107-0.069-0.047-0.179-0.094-0.276c-0.042,0.005-0.015,0.068-0.063,0.077c-0.069-0.19-0.302-0.288-0.397-0.481
				c-0.192-0.392,0.209-0.143,0.328,0.025c-0.21-0.554-0.467-1.091-0.799-1.57c0.01-0.005,0.021-0.007,0.031-0.007
				c-0.482-0.801-1.081-1.532-1.77-2.166c-0.45-0.415-1.184-1.171-1.796-1.224c0.027-0.09-0.285-0.034-0.192-0.019
				c-0.128,0.019-0.271-0.021-0.391,0.019c0.014,0.006,0.01,0.005,0.028,0.011c-0.045-0.005-0.088-0.001-0.13,0.013
				c0.029,0.001,0.029,0.002,0.053,0.005c-0.007,0.001-0.263-0.022-0.271,0.011c0,0,0.033,0.006,0.051,0.006
				c-0.014,0.002-0.048,0.006-0.062,0.014c0.078,0.005,0.107-0.01,0.185-0.011c-0.019,0.061-0.591,0.293-0.664,0.297
				c0.031,0.006,0.047,0.01,0.086,0.018c-0.113-0.013-0.607,0.082-0.349,0.261c-0.024,0.011-0.04,0.028-0.054,0.05
				c0.042-0.007,0.042-0.007,0.094-0.004c0.007,0.061-0.059,0.022-0.056,0.059c0.014,0.133,0.381,0.038,0.422,0.013
				c0.129-0.078,0.161,0.005,0.235,0.114c0.029,0.043,0.146,0.272,0.203,0.277c0.066,0.005,0.361-0.066,0.358-0.162
				c-0.246-0.043,0.143-0.205,0.137-0.225c-0.029-0.115-0.185-0.078-0.207-0.206c-0.018-0.121,0.375-0.087,0.347-0.166
				c0.035-0.047,0.314-0.197,0.384-0.025c0.006,0.014-0.351,0.143-0.381,0.141c0.035,0.045,0.028,0.096,0.101,0.116
				c-0.129,0.16,0.733,0.137,0.801,0.211c-0.181,0.067-0.378-0.064-0.55,0.024c-0.054,0.028,0.141,0.101,0.142,0.16
				c-0.001-0.066-0.443,0.033-0.407,0.276c-0.046-0.002-0.091-0.004-0.136-0.006c-0.001-0.005,0.002-0.018,0.008-0.027
				c-0.111-0.04-0.565,0.118-0.544-0.02c-0.12-0.021-0.263-0.012-0.383-0.022c-0.009,0.028-0.005-0.014,0.007-0.067
				c0.026,0.011,0.07-0.006,0.077,0.035c0.009-0.058-0.019-0.074-0.064-0.081c0.01-0.047,0.024-0.088,0.033-0.087
				c-0.015-0.03-0.051-0.054-0.062-0.123c-0.234,0.093-0.237,0.093-0.107,0.313c0.058,0.099-0.176,0.088-0.242,0.082
				c-0.219-0.017-0.193,0.176-0.375,0.216C12.671,2.953,12.634,3.048,12.379,3.028z M18.169,4.878
				c-0.01,0.003-0.025,0.006-0.043,0.003c-0.233-0.029-0.352-0.367-0.56-0.408C17.782,4.427,17.964,4.822,18.169,4.878z
				 M16.018,3.81c0.23-0.031,0.177-0.1,0.4,0.1c0.09,0.082,0.286,0.178,0.386,0.028c-0.053-0.005-0.179-0.022-0.198-0.086
				c-0.009-0.032,0.247-0.086,0.326-0.103c-0.051,0.027,0.099,0.173-0.099,0.196c0.175,0.238,0.591,0.218,0.694,0.522
				c-0.111-0.006-0.133,0.082-0.241,0.069c-0.249-0.03-0.453-0.181-0.688-0.208c-0.194-0.022-0.336,0.081-0.528,0.047
				c0.001,0,0.005,0,0.006-0.002c-0.208-0.23-0.063-0.185-0.121-0.416C15.978,3.891,16.047,3.866,16.018,3.81z"/>
			<path style="fill:#FFFFFF;" d="M13.768,2.588c-0.007-0.015-0.016-0.015-0.028,0.001c0.114,0.077,0.083-0.064,0.157-0.072
				c-0.087-0.149-0.251,0.007-0.082,0.043C13.817,2.572,13.794,2.588,13.768,2.588z"/>
			<path style="fill:#FFFFFF;" d="M16.927,5.184c-0.069,0.005-0.17,0.034-0.225,0.057C16.73,5.363,16.929,5.243,16.927,5.184z"/>
			<path style="fill:#FFFFFF;" d="M5.368,1.654C5.349,1.657,5.331,1.66,5.316,1.661C5.346,1.66,5.37,1.658,5.39,1.654
				C5.475,1.652,5.551,1.64,5.528,1.62c0.01-0.002,0.024-0.006,0.032-0.009C5.511,1.564,5.313,1.586,5.248,1.592
				c-0.017,0.009-0.015,0.011,0.016,0.01c-0.009,0.003-0.022,0.007-0.03,0.009C5.243,1.616,5.262,1.61,5.312,1.609
				C5.282,1.628,5.248,1.635,5.21,1.631C5.223,1.646,5.295,1.654,5.368,1.654z"/>
			<path style="fill:#FFFFFF;" d="M5.099,1.702c0.016,0,0.038-0.006,0.051-0.011C5.113,1.686,5.14,1.668,5.081,1.67
				C5.062,1.681,5.075,1.704,5.099,1.702z"/>
			<path style="fill:#FFFFFF;" d="M5.329,1.765C5.299,1.773,5.235,1.78,5.2,1.801c0.051-0.032,0.306,0.046,0.305-0.084
				c0,0.001-0.205-0.001-0.222,0.002c-0.011,0.013,0.02,0.012,0.061,0.01C5.289,1.761,5.246,1.716,5.198,1.745
				c0.001,0.005,0.007,0.009,0.017,0.013C5.258,1.754,5.3,1.754,5.329,1.765z"/>
			<path style="fill:#FFFFFF;" d="M5.819,1.754C5.661,1.782,5.959,1.788,6.004,1.787C6.166,1.693,6.51,1.86,6.695,1.744
				c0,0-0.018,0.002-0.033,0.001c0.015-0.007,0.031-0.01,0.048-0.011C6.702,1.686,5.967,1.751,6.02,1.737
				C6,1.728,5.917,1.744,5.941,1.72C5.974,1.718,6.007,1.717,6.04,1.716C6.026,1.678,5.647,1.674,5.61,1.697
				c0.039,0.017,0.08,0.025,0.122,0.025C5.78,1.693,5.81,1.704,5.819,1.754z"/>
			<path style="fill:#FFFFFF;" d="M5.006,2.173c0.053-0.113-0.258-0.002-0.194-0.014C4.646,2.184,4.962,2.184,5.006,2.173z"/>
			<path style="fill:#FFFFFF;" d="M4.859,1.956C4.945,2.075,5.175,1.997,5.267,1.94c-0.013-0.002-0.041-0.003-0.05-0.004
				C5.282,1.892,5.194,1.92,5.16,1.924c0.047-0.01,0.091-0.025,0.136-0.044C5.28,1.89,4.87,1.909,5.055,1.914
				C4.986,1.96,4.923,1.913,4.859,1.956z"/>
			<path style="fill:#FFFFFF;" d="M5.852,1.659C5.877,1.66,5.899,1.653,5.918,1.638c-0.065,0.006-0.135,0.001-0.2,0.017
				C5.718,1.655,5.839,1.66,5.852,1.659z"/>
			<polygon style="fill:#FFFFFF;" points="5.215,1.758 5.211,1.758 5.218,1.76 			"/>
			<path style="fill:#FFFFFF;" d="M5.086,1.761c-0.003,0.003-0.007,0.006-0.01,0.01C5.111,1.77,5.162,1.762,5.211,1.758
				C5.181,1.75,5.071,1.708,5.071,1.74c0-0.001,0-0.002,0-0.002L5.044,1.754C5.052,1.76,5.058,1.766,5.086,1.761z"/>
			<path style="fill:#FFFFFF;" d="M5.767,1.551c0.009-0.005,0.018-0.01,0.028-0.015C5.78,1.537,5.747,1.538,5.716,1.539
				C5.682,1.557,5.806,1.55,5.767,1.551z"/>
			<path style="fill:#FFFFFF;" d="M6.092,1.596C6.079,1.6,6.069,1.6,6.059,1.6C6.056,1.6,6.053,1.601,6.051,1.602
				C6.068,1.601,6.08,1.598,6.092,1.596z"/>
			<path style="fill:#FFFFFF;" d="M6.028,1.548c-0.023,0-0.042,0.003-0.051,0.008C5.997,1.552,6.013,1.55,6.028,1.548z"/>
			<path style="fill:#FFFFFF;" d="M5.83,1.63c0.057-0.068-0.189-0.051-0.127-0.001C5.584,1.642,5.774,1.631,5.83,1.63z"/>
			<path style="fill:#FFFFFF;" d="M6.048,1.544C6.04,1.545,6.035,1.546,6.028,1.548c0.066-0.002,0.168,0.009,0.197,0.01
				C6.156,1.559,6.086,1.566,6.019,1.58C6.028,1.593,6.044,1.598,6.059,1.6c0.044-0.018,0.219-0.005,0.275-0.006
				C6.336,1.586,6.33,1.586,6.33,1.578c0.064-0.015,0.174-0.024,0.237,0.025C6.525,1.605,6.234,1.573,6.362,1.63
				C6.314,1.634,6.264,1.641,6.22,1.653c0.231-0.022,0.6,0.11,0.758-0.041c0.007-0.009-0.058-0.005-0.085-0.002
				c0.039-0.033,0.125-0.017,0.143-0.063c0.095-0.005,0.143-0.029,0.239-0.048c0-0.01-0.019-0.012-0.039-0.015
				c0.035-0.001,0.057,0,0.07-0.016C7.287,1.468,7.268,1.469,7.251,1.47c0.207-0.053,0.431-0.047,0.638-0.105
				C7.85,1.365,7.785,1.37,7.772,1.366c0.021-0.003,0.254-0.003,0.267-0.029c0.017-0.034-0.375,0.025-0.226-0.013
				C7.525,1.221,6.717,1.293,6.432,1.4c0.051-0.002,0.102-0.007,0.157-0.009C6.557,1.394,6.542,1.397,6.507,1.404
				c0.059,0.01,0.118-0.013,0.177-0.01C6.62,1.401,6.568,1.4,6.513,1.42c0.035-0.001,0.068-0.003,0.103-0.004
				C6.592,1.42,6.567,1.422,6.543,1.426c0.01,0.017,0.059,0.022,0.123,0.023C6.703,1.46,6.688,1.465,6.628,1.464
				C6.654,1.468,6.72,1.492,6.714,1.497C6.585,1.586,6.564,1.485,6.485,1.53c0.04-0.023,0.053-0.033-0.008-0.031
				C6.478,1.5,6.48,1.501,6.48,1.503C6.428,1.532,6.266,1.464,6.188,1.464c-0.016,0.01,0.022,0.009,0.04,0.013
				c-0.046,0-0.091,0.003-0.136,0.009c0.003,0.006,0.01,0.007,0.015,0.011C6.071,1.497,6.034,1.494,6.007,1.509
				c0.021,0.012,0.046,0.016,0.072,0.013c-0.039,0-0.082,0.001-0.123,0.002C5.925,1.545,5.97,1.546,6.048,1.544z M6.739,1.447
				c0.045-0.002,0.093-0.005,0.137-0.009C6.87,1.44,6.866,1.442,6.862,1.445c-0.006,0.003,0.04,0.016,0.046,0.019
				C6.852,1.468,6.796,1.451,6.739,1.447z M7.055,1.418c0.031-0.004,0.05-0.007,0.055-0.007C7.098,1.415,7.079,1.416,7.055,1.418z"
				/>
			<path style="fill:#FFFFFF;" d="M6.22,1.653C6.168,1.657,6.124,1.67,6.091,1.694C6.132,1.676,6.175,1.663,6.22,1.653z"/>
			<path style="fill:#FFFFFF;" d="M5.83,1.63c-0.001,0.001,0,0.002-0.001,0.002C5.854,1.63,5.85,1.629,5.83,1.63z"/>
			<path style="fill:#FFFFFF;" d="M6.619,1.464c0.005,0,0.006,0,0.009,0C6.625,1.464,6.621,1.464,6.619,1.464z"/>
			<path style="fill:#FFFFFF;" d="M6.483,1.836C6.458,1.854,6.554,1.876,6.56,1.876c0.064-0.002,0.194,0.002,0.257-0.028
				C6.74,1.832,6.558,1.779,6.483,1.836z"/>
		</g>
	</g>
</g>
<g id="Layer_1">
</g>
</svg>
