<?xml version="1.0" encoding="UTF-8" standalone="no"?>
<!DOCTYPE svg PUBLIC "-//W3C//DTD SVG 1.1//EN" "http://www.w3.org/Graphics/SVG/1.1/DTD/svg11.dtd">
<svg width="20px" height="20px" version="1.1" xmlns="http://www.w3.org/2000/svg" xmlns:xlink="http://www.w3.org/1999/xlink" xml:space="preserve" xmlns:serif="http://www.serif.com/" style="fill-rule:evenodd;clip-rule:evenodd;stroke-linejoin:round;stroke-miterlimit:2;">
    <g id="icon-countries">
        <g>
            <circle cx="9.875" cy="9.875" r="9.875" style="fill:white;"/>
            <g>
                <path d="M16.075,4.375C16.074,4.377 16.07,4.377 16.069,4.377C16.261,4.411 16.403,4.308 16.597,4.33C16.832,4.357 17.036,4.508 17.285,4.538C17.394,4.551 17.415,4.463 17.526,4.469C17.423,4.164 17.007,4.185 16.832,3.947C17.031,3.924 16.88,3.778 16.931,3.751C16.852,3.768 16.596,3.822 16.605,3.854C16.623,3.917 16.75,3.935 16.803,3.94C16.702,4.09 16.507,3.994 16.417,3.912C16.194,3.712 16.247,3.781 16.017,3.812C16.046,3.868 15.977,3.893 15.953,3.961C16.013,4.189 15.867,4.144 16.075,4.375Z" style="fill:rgb(51,51,51);fill-rule:nonzero;"/>
                <path d="M3.419,4.545C3.468,4.655 3.728,4.277 3.768,4.233C3.894,4.09 4.241,4.025 3.978,4.306C4.019,4.306 4.021,4.293 4.061,4.283C4.039,4.336 4.022,4.359 4.039,4.386C4.086,4.386 4.228,4.229 4.277,4.179C4.298,4.234 4.524,4.144 4.183,4.049C4.068,4.017 4.165,3.721 4.005,3.84C3.965,3.735 3.511,3.965 3.419,4.023C3.582,4.018 3.685,3.954 3.861,3.924C3.828,3.965 3.799,3.974 3.77,3.997C3.883,3.994 4,4.037 4.129,4.036C3.984,4.108 3.767,4.068 3.635,4.223C3.682,4.204 3.713,4.179 3.746,4.179C3.685,4.217 3.378,4.455 3.419,4.545Z" style="fill:rgb(51,51,51);fill-rule:nonzero;"/>
                <path d="M18.126,4.881C18.144,4.884 18.159,4.882 18.169,4.878C17.963,4.822 17.782,4.426 17.566,4.473C17.774,4.513 17.893,4.852 18.126,4.881Z" style="fill:rgb(51,51,51);fill-rule:nonzero;"/>
                <path d="M4.297,4.404C4.304,4.368 4.675,4.4 4.743,4.294C4.684,4.294 4.285,4.325 4.297,4.404Z" style="fill:rgb(51,51,51);fill-rule:nonzero;"/>
                <path d="M6.862,1.445C6.866,1.442 6.87,1.44 6.876,1.438C6.831,1.442 6.783,1.445 6.739,1.447C6.796,1.452 6.852,1.468 6.908,1.464C6.902,1.461 6.856,1.448 6.862,1.445Z" style="fill:rgb(51,51,51);fill-rule:nonzero;"/>
                <path d="M7.11,1.412C7.105,1.412 7.086,1.415 7.055,1.419C7.079,1.416 7.098,1.415 7.11,1.412Z" style="fill:rgb(51,51,51);fill-rule:nonzero;"/>
                <path d="M3.885,4.5C3.861,4.534 3.838,4.586 3.872,4.587C3.943,4.588 4.097,4.535 4.206,4.496C4.159,4.516 3.88,4.536 3.885,4.5Z" style="fill:rgb(51,51,51);fill-rule:nonzero;"/>
                <path d="M6.842,2.258C6.832,2.258 6.823,2.257 6.818,2.257C6.828,2.26 6.834,2.26 6.842,2.258Z" style="fill:rgb(51,51,51);fill-rule:nonzero;"/>
                <path d="M3.137,8.546C3.137,8.548 3.138,8.546 3.138,8.544C3.138,8.545 3.14,8.545 3.137,8.546Z" style="fill:rgb(51,51,51);fill-rule:nonzero;"/>
                <path d="M10.264,1.387C10.237,1.388 10.214,1.389 10.205,1.39C10.235,1.393 10.237,1.393 10.264,1.387Z" style="fill:rgb(51,51,51);fill-rule:nonzero;"/>
                <path d="M9.096,1.371C9.105,1.373 9.139,1.372 9.189,1.369C9.151,1.369 9.12,1.369 9.096,1.371Z" style="fill:rgb(51,51,51);fill-rule:nonzero;"/>
                <path d="M9.446,1.39C9.459,1.39 9.544,1.377 9.628,1.367C9.582,1.37 9.536,1.372 9.489,1.373C9.46,1.382 9.437,1.391 9.446,1.39Z" style="fill:rgb(51,51,51);fill-rule:nonzero;"/>
                <path d="M4.909,2.216C4.91,2.222 4.884,2.236 4.865,2.249C4.892,2.241 4.908,2.231 4.909,2.216Z" style="fill:rgb(51,51,51);fill-rule:nonzero;"/>
                <path d="M4.039,2.247C4.019,2.261 4.153,2.239 4.196,2.233C4.117,2.23 4.057,2.233 4.039,2.247Z" style="fill:rgb(51,51,51);fill-rule:nonzero;"/>
                <path d="M6.268,2.113C6.292,2.093 6.322,2.084 6.355,2.083C6.327,2.078 6.298,2.087 6.268,2.113Z" style="fill:rgb(51,51,51);fill-rule:nonzero;"/>
                <path d="M4.196,2.233C4.198,2.234 4.202,2.233 4.205,2.234C4.206,2.233 4.207,2.233 4.207,2.232C4.208,2.231 4.203,2.232 4.196,2.233Z" style="fill:rgb(51,51,51);fill-rule:nonzero;"/>
                <path d="M6.016,1.862C6.018,1.862 6.021,1.862 6.022,1.863C6.027,1.86 6.024,1.86 6.016,1.862Z" style="fill:rgb(51,51,51);fill-rule:nonzero;"/>
                <path d="M1.196,6.62C1.341,6.366 1.523,6.25 1.773,6.115C1.941,6.024 2.056,6.276 2.179,6.222C2.162,6.18 2.216,6.139 2.262,6.07C2.233,6.082 2.24,6.082 2.215,6.066C2.287,6.042 2.353,6.057 2.418,6.042C2.394,6.082 2.82,6.15 2.821,6.158C2.84,6.221 2.552,6.951 2.704,6.972C2.873,6.995 3.009,6.487 3.021,6.373C3.07,5.92 3.411,5.76 3.787,5.595C3.784,5.592 3.783,5.588 3.781,5.586C3.875,5.524 3.989,5.509 4.079,5.439C4.011,5.36 4.116,5.384 4.156,5.331C4.136,5.325 4.12,5.321 4.121,5.29C4.174,5.277 4.208,5.247 4.228,5.2C4.219,5.2 4.207,5.199 4.199,5.199C4.188,5.166 4.302,4.972 4.329,4.944C4.325,4.959 4.28,5.147 4.272,5.147C4.405,5.15 4.429,4.929 4.496,4.889C4.473,4.836 4.848,4.7 4.934,4.679C4.911,4.653 4.825,4.675 4.796,4.674C4.946,4.609 5.15,4.619 5.289,4.568C5.063,4.573 5.469,4.236 5.603,4.265C5.732,4.293 5.995,4.111 6.156,4.106C6.124,4.148 6.136,4.164 6.19,4.156C5.979,4.167 5.812,4.435 5.972,4.351C6.068,4.3 6.496,4.234 6.538,4.152C6.561,4.105 6.061,4.138 6.284,3.862C6.264,3.862 6.225,3.853 6.188,3.853C6.252,3.813 6.37,3.831 6.412,3.756C6.462,3.668 5.837,3.811 5.806,3.814C6.064,3.608 7.306,3.65 7.182,3.233C7.146,3.243 6.741,3.35 6.734,3.3C6.827,3.273 7.055,3.252 7.104,3.205C7.134,3.168 6.783,3.199 6.853,3.084L6.856,3.077C6.773,3.078 6.744,3.047 6.71,3.026C6.921,2.959 6.657,2.603 6.534,2.769C6.55,2.789 6.57,2.802 6.591,2.813C6.535,2.795 6.494,2.783 6.556,2.672C6.454,2.859 6.04,2.74 5.903,2.673C5.422,2.443 5.568,2.762 5.207,2.843C5.214,3.016 5.456,3.017 5.125,3.149C4.857,3.257 5.014,3.315 4.876,3.467C4.756,3.469 4.71,3.457 4.7,3.438C4.72,3.446 4.742,3.451 4.767,3.45C4.793,3.413 4.734,3.412 4.696,3.421C4.709,3.369 4.846,3.284 4.752,3.216C4.47,3.226 4.504,3.02 4.156,3.036C4.251,2.937 4.267,2.879 4.12,2.904C4.309,2.776 4.672,2.665 4.824,2.528C4.812,2.516 4.797,2.508 4.782,2.502C4.955,2.519 5.246,2.487 5.36,2.388C5.279,2.379 5.177,2.39 5.189,2.348C5.269,2.373 5.366,2.373 5.471,2.358C5.377,2.397 5.254,2.467 5.208,2.506C5.234,2.502 5.292,2.496 5.331,2.5C5.308,2.516 5.282,2.533 5.316,2.532C5.453,2.526 5.679,2.502 5.817,2.464C5.81,2.445 5.748,2.455 5.719,2.438C5.712,2.432 5.732,2.421 5.731,2.411C5.716,2.376 5.583,2.358 5.551,2.372C5.553,2.362 5.551,2.355 5.552,2.347C5.584,2.339 5.616,2.33 5.647,2.321C5.634,2.331 5.645,2.341 5.679,2.341C5.675,2.33 5.693,2.313 5.653,2.32C5.843,2.267 6.024,2.178 6.115,2.101C6.068,2.102 6.013,2.08 5.965,2.075C6.032,2.073 6.092,2.071 6.125,2.072C6.079,2.107 6.301,2.049 6.362,2.082C6.36,2.082 6.357,2.083 6.355,2.083C6.372,2.085 6.39,2.093 6.406,2.109C6.381,2.116 6.359,2.121 6.335,2.128C6.338,2.123 6.477,2.129 6.509,2.145C6.451,2.137 6.399,2.15 6.351,2.182C6.347,2.185 6.536,2.239 6.541,2.162C6.659,2.248 6.304,2.311 6.404,2.345C6.279,2.399 6.044,2.362 5.956,2.479C5.942,2.5 6.343,2.455 6.382,2.473C6.477,2.521 6.658,2.63 6.81,2.597C6.93,2.569 6.702,2.46 6.702,2.461C6.909,2.427 6.902,2.53 6.957,2.352C6.885,2.361 6.864,2.292 6.813,2.297C6.824,2.263 6.843,2.283 6.855,2.26C6.949,2.274 7.144,2.329 7.162,2.207C7.162,2.2 6.901,2.11 6.881,2.105C6.906,2.088 6.918,2.088 6.95,2.078C6.927,2.068 6.902,2.065 6.876,2.07C6.895,2.058 6.916,2.059 6.941,2.055C6.922,2.036 6.9,2.028 6.874,2.033C6.876,2.028 6.879,2.023 6.881,2.018C6.664,2.009 6.477,1.942 6.25,1.94C6.261,1.94 6.285,1.894 6.284,1.888C6.252,1.797 5.717,1.978 5.842,1.921C5.784,1.921 5.976,1.871 6.017,1.863C5.904,1.856 5.803,1.856 5.688,1.878C5.728,1.865 5.767,1.857 5.803,1.838C5.565,1.848 5.477,1.847 5.305,1.969C5.361,1.971 5.415,1.958 5.465,1.927C5.454,1.928 5.443,1.928 5.432,1.929C5.493,1.899 5.598,1.908 5.657,1.889C5.622,1.908 5.406,1.932 5.44,1.999C5.44,1.999 5.589,2.002 5.606,2.009C5.558,2.049 5.501,2.055 5.431,2.026C5.371,2.075 5.858,2.08 5.86,2.08C5.799,2.096 5.562,2.31 5.48,2.233C5.468,2.182 5.498,2.158 5.566,2.161C5.622,2.114 5.333,2.182 5.348,2.181C5.42,2.122 5.288,2.146 5.397,2.116C5.371,2.105 5.298,2.12 5.291,2.103C5.326,2.092 5.359,2.081 5.395,2.07C5.474,2.01 5.142,2.018 5.051,2.086C5.026,2.104 5.171,2.117 5.145,2.137C5.122,2.151 5.098,2.164 5.075,2.176C5.099,2.17 5.118,2.167 5.145,2.161C5.109,2.214 4.973,2.195 4.888,2.262C4.836,2.271 4.845,2.261 4.864,2.249C4.744,2.28 4.41,2.241 4.204,2.234C4.127,2.297 3.989,2.308 3.943,2.292C3.679,2.201 3.468,2.387 3.293,2.543C2.761,3.02 2.279,3.555 1.861,4.135C1.012,5.315 0.427,6.681 0.165,8.112C0.243,8.111 0.271,8.426 0.37,8.452C0.45,8.473 0.536,8.237 0.583,8.421C0.649,8.437 0.617,8.755 0.646,8.819C0.71,8.988 0.839,9.079 0.969,9.122C0.929,9.266 0.953,9.387 0.961,9.532C0.972,9.691 0.841,9.854 0.879,10.004C0.89,10.009 0.903,10.013 0.917,10.017C0.915,9.998 0.926,9.967 0.942,9.945C1.091,9.995 0.995,10.755 1.192,10.836C1.294,10.879 1.31,10.39 1.517,10.462C1.62,10.501 1.536,10.761 1.546,10.835C1.547,10.838 1.713,10.685 1.728,10.662C1.694,10.539 1.688,10.203 1.467,10.298C1,10.498 1.2,9.687 1.295,9.446C1.401,9.167 1.801,8.656 1.263,8.623C0.816,8.596 1.33,8.179 1.387,8.079C1.429,8.03 1.467,7.988 1.507,7.901C1.57,7.77 1.681,7.674 1.744,7.543C1.239,7.451 1.22,8.106 0.755,8.005C0.414,7.934 1.151,6.707 1.189,6.618C1.192,6.619 1.193,6.62 1.196,6.62ZM6.842,2.258C6.834,2.26 6.828,2.26 6.818,2.257C6.823,2.257 6.832,2.258 6.842,2.258ZM3.872,4.587C3.838,4.586 3.861,4.534 3.885,4.5C3.88,4.536 4.159,4.516 4.206,4.496C4.097,4.535 3.943,4.588 3.872,4.587ZM4.743,4.294C4.675,4.4 4.304,4.368 4.297,4.404C4.285,4.325 4.684,4.294 4.743,4.294ZM3.635,4.223C3.768,4.069 3.985,4.108 4.13,4.036C4,4.037 3.883,3.994 3.769,3.997C3.799,3.974 3.827,3.964 3.86,3.924C3.684,3.954 3.581,4.019 3.418,4.023C3.511,3.965 3.965,3.736 4.005,3.84C4.165,3.721 4.068,4.016 4.183,4.049C4.524,4.143 4.297,4.234 4.277,4.179C4.228,4.229 4.086,4.386 4.039,4.386C4.022,4.359 4.039,4.336 4.061,4.284C4.021,4.294 4.019,4.307 3.978,4.307C4.241,4.026 3.893,4.091 3.768,4.234C3.728,4.278 3.469,4.656 3.419,4.546C3.379,4.455 3.685,4.217 3.746,4.179C3.712,4.179 3.681,4.203 3.635,4.223Z" style="fill:rgb(51,51,51);fill-rule:nonzero;"/>
                <path d="M6.714,4.016C6.72,4.004 6.701,3.997 6.699,3.984C6.64,4.009 6.589,4.045 6.547,4.092C6.526,4.133 6.693,4.126 6.723,4.065C6.627,4.064 6.696,4.051 6.714,4.016Z" style="fill:rgb(51,51,51);fill-rule:nonzero;"/>
                <path d="M7.1,3.772C7.082,3.776 7.062,3.779 7.044,3.783C7.044,3.783 7.049,3.772 7.05,3.768C7.024,3.768 6.997,3.767 6.973,3.767C6.975,3.744 6.989,3.73 7.012,3.726C6.966,3.703 6.92,3.705 6.876,3.734C6.881,3.724 7.114,3.535 7.054,3.535C6.863,3.535 6.725,3.804 6.548,3.858C6.548,3.867 6.561,3.873 6.573,3.873C6.551,3.92 6.48,3.907 6.459,3.95C6.458,3.955 6.908,3.988 6.958,3.988C6.931,3.998 6.908,4.016 6.888,4.039C6.878,4.061 7.081,3.953 7.079,3.955C7.165,4.045 7.157,4.174 7.245,3.944C7.213,3.957 7.223,3.964 7.179,3.963C7.205,3.897 7.197,3.932 7.232,3.865C7.216,3.865 7.191,3.868 7.179,3.874C7.198,3.827 7.214,3.8 7.225,3.772C7.2,3.781 7.143,3.781 7.1,3.772Z" style="fill:rgb(51,51,51);fill-rule:nonzero;"/>
                <path d="M5.072,2.653C5.123,2.647 5.231,2.609 5.278,2.588C5.212,2.57 5.156,2.602 5.095,2.63C5.088,2.637 5.081,2.644 5.072,2.653Z" style="fill:rgb(51,51,51);fill-rule:nonzero;"/>
                <path d="M4.408,1.714C4.353,1.708 4.307,1.728 4.271,1.775C4.316,1.781 4.349,1.769 4.369,1.737C4.428,1.732 4.44,1.724 4.408,1.714Z" style="fill:rgb(51,51,51);fill-rule:nonzero;"/>
                <path d="M4.443,1.754C4.469,1.758 4.49,1.752 4.512,1.74C4.486,1.741 4.462,1.742 4.437,1.743C4.421,1.753 4.432,1.755 4.443,1.754Z" style="fill:rgb(51,51,51);fill-rule:nonzero;"/>
                <path d="M4.59,1.689C4.568,1.675 4.545,1.676 4.521,1.689C4.542,1.708 4.564,1.708 4.59,1.689Z" style="fill:rgb(51,51,51);fill-rule:nonzero;"/>
                <path d="M6.428,3.652C6.486,3.698 6.596,3.778 6.675,3.722C6.607,3.686 6.562,3.632 6.428,3.652Z" style="fill:rgb(51,51,51);fill-rule:nonzero;"/>
                <path d="M4.8,1.682C4.702,1.687 4.719,1.683 4.853,1.67C4.852,1.664 4.847,1.66 4.839,1.657C4.85,1.656 4.863,1.654 4.873,1.653C4.808,1.654 4.689,1.646 4.653,1.665C4.684,1.656 4.716,1.655 4.748,1.661C4.668,1.679 4.582,1.716 4.638,1.713C4.686,1.712 4.773,1.7 4.8,1.682Z" style="fill:rgb(51,51,51);fill-rule:nonzero;"/>
                <path d="M3.65,2.239C3.629,2.256 3.607,2.273 3.587,2.29C3.612,2.283 3.654,2.283 3.674,2.276C3.679,2.247 3.68,2.238 3.65,2.239Z" style="fill:rgb(51,51,51);fill-rule:nonzero;"/>
                <path d="M4.917,1.647C4.902,1.65 4.889,1.651 4.874,1.653C4.896,1.653 4.913,1.651 4.917,1.647Z" style="fill:rgb(51,51,51);fill-rule:nonzero;"/>
                <path d="M3.768,2.219C3.798,2.25 4.471,2.226 4.585,2.174C4.585,2.174 4.568,2.143 4.561,2.148C4.599,2.122 4.681,2.13 4.722,2.119C4.637,2.051 4.568,2.126 4.627,2.003C4.638,1.978 4.773,1.894 4.782,1.897C4.623,1.841 4.504,2.026 4.387,2.032C4.408,2.031 4.208,1.961 4.085,1.992C4.092,1.96 4.081,1.949 4.062,1.95C4.065,1.943 4.068,1.933 4.065,1.921C4.046,1.934 4.027,1.948 4.008,1.962C4.014,1.963 4.017,1.963 4.021,1.963C3.944,2 3.822,2.105 3.79,2.129C3.829,2.123 3.904,2.11 3.95,2.132C3.829,2.143 3.776,2.138 3.677,2.217C3.712,2.215 3.759,2.212 3.768,2.219Z" style="fill:rgb(51,51,51);fill-rule:nonzero;"/>
                <path d="M4.289,1.848C4.299,1.842 4.32,1.836 4.335,1.834C4.336,1.836 4.335,1.837 4.335,1.839C4.51,1.8 4.771,1.878 4.932,1.781C4.95,1.77 4.722,1.786 4.833,1.731C4.813,1.732 4.605,1.77 4.702,1.772C4.688,1.783 4.671,1.789 4.653,1.789C4.658,1.79 4.668,1.79 4.693,1.789C4.572,1.837 4.453,1.758 4.342,1.77C4.332,1.775 4.335,1.777 4.343,1.779C4.319,1.779 4.296,1.783 4.274,1.792C4.278,1.794 4.282,1.795 4.289,1.795C4.259,1.795 4.241,1.795 4.218,1.812C4.224,1.813 4.23,1.814 4.235,1.814C4.201,1.811 4.174,1.825 4.152,1.858C4.199,1.862 4.245,1.858 4.289,1.848Z" style="fill:rgb(51,51,51);fill-rule:nonzero;"/>
                <path d="M4.335,1.839C4.304,1.847 4.277,1.856 4.252,1.871C4.309,1.886 4.336,1.875 4.335,1.839Z" style="fill:rgb(51,51,51);fill-rule:nonzero;"/>
                <path d="M3.221,6.799C3.21,6.815 3.205,6.85 3.221,6.846L3.221,6.799Z" style="fill:rgb(51,51,51);fill-rule:nonzero;"/>
                <path d="M7.589,12.413C7.384,12.371 7.268,12.248 7.075,12.194C6.882,12.14 6.67,12.203 6.504,12.218C6.467,12.064 6.417,12.071 6.285,12.014C5.93,11.865 6.096,12.194 5.914,12.211C5.73,12.233 5.524,11.995 5.669,11.804C5.764,11.678 5.417,11.18 5.215,11.195C5.04,11.201 4.579,11.16 4.47,11C4.334,10.795 3.839,10.743 3.796,10.515C3.812,10.525 3.847,10.517 3.862,10.501C3.727,10.501 3.531,10.633 3.43,10.596C3.357,10.57 3.143,10.598 3.093,10.541C3.023,10.462 2.88,10.359 2.763,10.363C2.776,10.425 2.841,10.396 2.871,10.457C2.541,10.477 2.782,10.812 2.719,10.816C2.574,10.825 2.614,10.511 2.614,10.446C2.654,10.413 2.66,10.381 2.629,10.348C2.571,10.265 2.522,10.408 2.476,10.427C2.275,10.516 1.942,10.7 1.995,10.97C1.74,11.075 1.995,11.404 2.037,11.599C2.013,11.645 2.03,11.676 2.086,11.693C2.088,11.901 1.813,12.119 1.808,12.322C1.803,12.558 1.74,12.589 1.954,12.707C1.958,12.849 1.802,12.916 1.843,13.077C1.885,13.248 2.035,13.255 2.11,13.359C2.259,13.577 2.447,13.806 2.634,14.008C2.858,14.249 2.915,14.562 3.279,14.625C3.564,14.664 3.881,14.842 3.994,15.108C4.099,15.35 4.135,15.602 4.22,15.849C4.263,16.11 4.239,16.566 4.398,16.775C4.545,17.136 4.568,17.364 4.572,17.729C4.572,17.917 4.677,17.937 4.74,18.071C4.799,18.201 4.699,18.316 4.894,18.431C4.9,18.386 4.924,18.365 4.964,18.364C5.135,18.724 5.82,18.917 6.187,19.065C6.215,18.92 5.653,18.826 5.938,18.651C6.111,18.57 5.973,18.343 5.931,18.25C5.963,18.241 6.112,18.292 6.069,18.193C6.098,18.256 5.653,18.053 5.829,18.006C5.925,17.98 6.158,18.055 6.092,17.898C6.095,17.819 5.943,17.653 6.087,17.617C6.209,17.587 6.415,17.559 6.477,17.425C6.644,17.047 6.287,17.152 6.19,16.902C6.212,16.955 6.716,16.878 6.747,16.715C6.794,16.47 6.883,16.257 6.916,16.014C6.916,16.016 6.917,16.017 6.917,16.02C6.916,15.926 6.947,15.843 7.007,15.773C6.972,15.667 6.937,15.56 6.905,15.452C6.881,15.328 7.051,15.149 7.142,15.091C7.47,14.885 7.526,14.749 7.622,14.373C7.653,14.154 7.429,13.654 7.505,13.507C7.607,13.312 8.026,12.506 7.589,12.413Z" style="fill:rgb(51,51,51);fill-rule:nonzero;"/>
                <path d="M3.226,7.885C3.294,7.889 3.332,7.86 3.341,7.797C3.325,7.813 3.159,7.867 3.226,7.885Z" style="fill:rgb(51,51,51);fill-rule:nonzero;"/>
                <path d="M7.675,1.98C7.681,1.978 7.684,1.975 7.689,1.973C7.683,1.972 7.677,1.974 7.675,1.98Z" style="fill:rgb(51,51,51);fill-rule:nonzero;"/>
                <path d="M18.789,9.214C18.454,9.274 18.327,9.37 18.236,8.967C18.171,8.686 17.69,8.493 17.626,8.195C17.577,7.969 17.522,7.89 17.373,7.725C17.236,7.57 17.285,7.304 17.175,7.114C17.079,6.949 17.056,6.776 16.968,6.605C16.838,6.351 16.565,6.011 16.551,5.726C16.638,5.821 16.736,6.08 16.84,6.097C16.904,5.82 16.912,5.749 16.806,5.482C16.623,5.532 16.465,5.417 16.29,5.481C16.056,5.568 15.873,5.538 15.637,5.454C15.471,5.395 14.803,5.003 14.812,5.457C14.821,5.983 14.195,5.3 14.032,5.247C13.857,5.19 13.568,5.289 13.57,4.988C13.571,4.818 13.634,4.687 13.645,4.535C13.595,4.583 13.549,4.579 13.508,4.524C13.431,4.406 13.324,4.561 13.239,4.563C13.064,4.569 12.905,4.565 12.732,4.571C12.473,4.581 12.196,4.719 11.973,4.845C11.698,5.006 11.454,4.771 11.298,4.982C11.301,4.981 11.304,4.981 11.307,4.981C11.17,5.165 11.006,5.328 10.873,5.515C10.782,5.644 10.814,5.811 10.767,5.956C10.725,6.093 10.57,6.222 10.441,6.27C10.206,6.357 10.112,6.624 10.015,6.837C9.938,7.01 9.874,7.172 9.781,7.336C9.658,7.553 9.824,7.895 9.814,8.129C9.809,8.295 9.748,8.488 9.658,8.627C9.571,8.763 9.685,8.928 9.681,9.107C9.676,9.108 9.672,9.108 9.666,9.108C9.756,9.253 9.867,9.382 9.98,9.508C10.181,9.731 10.226,10.032 10.442,10.249C10.604,10.413 10.797,10.67 11.057,10.582C11.177,10.54 11.272,10.466 11.403,10.463C11.511,10.46 11.597,10.556 11.704,10.554C11.957,10.548 12.207,10.194 12.513,10.187C12.736,10.182 12.718,10.564 12.911,10.56C13.536,10.547 13.461,10.994 13.302,11.427C13.2,11.706 13.473,11.97 13.629,12.166C13.784,12.363 13.802,12.657 13.866,12.896C13.925,13.119 14.034,13.469 13.979,13.701C13.925,13.931 13.732,14.095 13.69,14.333C13.628,14.666 13.756,14.992 13.903,15.283C14.044,15.561 14.052,15.678 14.085,15.984C14.157,16.647 14.663,17.125 14.656,17.759C14.721,17.721 14.927,17.849 15.104,17.754C15.291,17.655 15.455,17.702 15.647,17.682C15.662,17.603 16.018,17.476 16.092,17.377C16.265,17.143 16.366,16.874 16.553,16.652C16.756,16.413 16.527,16.236 16.767,16.036C16.991,15.849 17.064,15.923 17.077,15.56C17.083,15.403 16.787,15.02 17.107,14.955C17.145,14.727 17.371,14.628 17.547,14.52C18.047,14.212 17.66,13.775 17.863,13.343C17.937,13.185 17.698,13.001 17.701,12.829C17.703,12.663 17.663,12.502 17.666,12.336C17.667,12.171 17.802,12.089 17.835,11.937C17.96,11.364 18.451,11.206 18.753,10.763C19.015,10.381 19.528,9.479 19.334,9.015C19.153,9.076 18.976,9.173 18.789,9.214Z" style="fill:rgb(51,51,51);fill-rule:nonzero;"/>
                <path d="M18.529,14.66C18.578,14.573 18.624,14.483 18.668,14.394C18.599,14.441 18.544,14.508 18.529,14.66Z" style="fill:rgb(51,51,51);fill-rule:nonzero;"/>
                <path d="M9.386,1.898C9.411,1.824 9.557,2.017 9.597,1.897C9.558,1.875 9.517,1.859 9.474,1.847C9.55,1.845 9.673,1.903 9.74,1.825C9.728,1.823 9.716,1.816 9.718,1.808C9.771,1.805 9.829,1.793 9.852,1.774C9.814,1.779 9.782,1.772 9.751,1.753C9.765,1.714 9.832,1.762 9.852,1.712C9.872,1.658 9.747,1.665 9.751,1.651C9.778,1.585 9.983,1.677 10.009,1.611C9.978,1.596 9.944,1.585 9.907,1.58C9.923,1.58 9.944,1.577 9.958,1.573C9.899,1.557 9.84,1.554 9.779,1.561C9.849,1.524 10.235,1.439 10.264,1.387C10.371,1.382 10.574,1.369 10.604,1.323C10.613,1.307 9.655,1.423 9.6,1.431C9.611,1.421 9.809,1.357 9.814,1.351C9.818,1.346 9.774,1.349 9.72,1.355C9.789,1.344 9.846,1.325 9.882,1.294C9.377,1.284 8.829,1.254 8.334,1.368C8.339,1.373 8.353,1.373 8.361,1.377C8.335,1.376 8.309,1.381 8.286,1.39C8.309,1.407 8.336,1.415 8.367,1.413C8.326,1.415 8.127,1.375 8.103,1.414C8.1,1.421 8.105,1.424 8.107,1.43C8.068,1.416 8.014,1.406 7.994,1.441C7.922,1.446 7.424,1.466 7.371,1.57C7.402,1.582 7.433,1.585 7.464,1.579C7.41,1.68 7.183,1.591 7.14,1.681C7.126,1.712 7.345,1.696 7.364,1.695C7.322,1.744 7.199,1.689 7.163,1.745C7.193,1.739 7.222,1.742 7.251,1.755C7.243,1.762 7.233,1.763 7.219,1.769C7.25,1.786 7.282,1.79 7.314,1.782C7.31,1.781 7.306,1.778 7.302,1.776C7.398,1.75 7.758,1.75 7.692,1.921C7.738,1.932 7.735,1.949 7.688,1.972C7.727,1.969 7.835,2.031 7.852,2.034C7.821,2.081 7.757,2.025 7.711,2.036C7.709,2.063 7.822,2.068 7.868,2.078C7.819,2.138 7.687,2.155 7.663,2.235C7.673,2.23 7.685,2.231 7.694,2.236C7.631,2.321 7.741,2.335 7.769,2.369C7.632,2.442 8.008,2.614 8.059,2.618C8.139,2.624 8.323,2.315 8.476,2.286C8.473,2.294 8.47,2.302 8.469,2.31C8.634,2.315 8.718,2.22 8.862,2.179C9.084,2.182 9.32,2.144 9.531,2.072C9.48,2.062 9.254,2.066 9.266,2.029C9.338,2.022 9.299,2.021 9.309,1.983C9.342,1.993 9.583,2.084 9.6,2.029C9.622,1.951 9.422,1.917 9.386,1.898ZM10.264,1.387C10.238,1.393 10.235,1.393 10.205,1.39C10.213,1.389 10.236,1.388 10.264,1.387ZM9.446,1.39C9.437,1.391 9.46,1.382 9.489,1.373C9.536,1.372 9.583,1.371 9.629,1.367C9.544,1.377 9.459,1.39 9.446,1.39ZM9.096,1.371C9.12,1.369 9.151,1.369 9.188,1.369C9.139,1.372 9.105,1.373 9.096,1.371Z" style="fill:rgb(51,51,51);fill-rule:nonzero;"/>
                <path d="M3.128,6.717C3.109,6.714 3.07,6.733 3.05,6.754C3.074,6.757 3.112,6.768 3.155,6.767C3.154,6.749 3.157,6.72 3.128,6.717Z" style="fill:rgb(51,51,51);fill-rule:nonzero;"/>
                <path d="M9.782,2.187C9.773,2.186 9.762,2.191 9.752,2.194C10.023,2.22 10.174,2.334 10.462,2.209C10.484,2.172 10.368,2.114 10.446,2.094C10.411,2.09 10.11,2.059 10.104,2.094C10.063,2.069 10.013,2.105 9.984,2.063C9.952,2.08 9.864,2.114 9.901,2.027C9.861,2.022 9.8,2.041 9.762,2.046C9.756,2.06 9.874,2.116 9.869,2.111C9.835,2.117 9.762,2.119 9.723,2.116C9.736,2.136 9.794,2.122 9.83,2.133C9.811,2.152 9.797,2.162 9.782,2.187Z" style="fill:rgb(51,51,51);fill-rule:nonzero;"/>
                <path d="M6.683,3.601C6.612,3.657 6.763,3.613 6.683,3.601Z" style="fill:rgb(51,51,51);fill-rule:nonzero;"/>
                <path d="M2.439,8.552C2.406,8.545 2.279,8.709 2.565,8.697C2.573,8.667 2.573,8.643 2.551,8.623C2.552,8.629 2.553,8.634 2.554,8.639C2.535,8.619 2.492,8.565 2.439,8.552Z" style="fill:rgb(51,51,51);fill-rule:nonzero;"/>
                <path d="M2.888,8.705C2.978,8.456 3.191,8.843 3.193,8.844C3.228,8.85 3.372,8.626 3.382,8.723C3.383,8.725 3.694,8.725 3.706,8.728C3.706,8.736 3.668,8.598 3.65,8.533C3.592,8.431 3.613,8.28 3.462,8.257C3.39,8.245 3.311,8.309 3.26,8.229C3.15,8.058 3.14,8.498 3.138,8.543C3.11,8.529 2.653,8.567 2.888,8.705ZM3.138,8.543C3.138,8.546 3.137,8.547 3.137,8.545C3.14,8.545 3.138,8.545 3.138,8.543Z" style="fill:rgb(51,51,51);fill-rule:nonzero;"/>
                <path d="M6.284,3.975C6.274,3.977 6.26,3.987 6.255,3.996C6.239,4.026 6.423,4.131 6.471,4.028C6.394,4.053 6.331,4.035 6.284,3.975Z" style="fill:rgb(51,51,51);fill-rule:nonzero;"/>
                <path d="M3.009,8.181C2.947,8.094 3.044,8.018 2.909,7.979C2.922,7.905 2.726,7.622 2.639,7.538C2.373,7.276 2.188,7.326 1.942,7.636C2.183,7.669 2.209,7.334 2.287,7.599C2.59,7.637 2.653,7.956 2.568,8.157C2.72,8.182 2.869,8.37 3.009,8.181Z" style="fill:rgb(51,51,51);fill-rule:nonzero;"/>
                <path d="M3.861,8.856C3.827,8.964 4.014,9.018 4.065,8.944C4.063,8.893 3.894,8.75 3.861,8.856Z" style="fill:rgb(51,51,51);fill-rule:nonzero;"/>
                <path d="M3.649,8.533C3.65,8.534 3.652,8.537 3.653,8.539C3.635,8.481 3.638,8.494 3.649,8.533Z" style="fill:rgb(51,51,51);fill-rule:nonzero;"/>
                <path d="M2.999,7.131C3.009,7.111 2.99,7.013 2.976,7.039C2.969,7.055 2.951,7.233 2.999,7.131Z" style="fill:rgb(51,51,51);fill-rule:nonzero;"/>
                <path d="M2.128,7.669C2.095,7.677 2.073,7.698 2.062,7.734C2.083,7.691 2.095,7.835 2.169,7.625C2.144,7.598 2.145,7.633 2.128,7.669Z" style="fill:rgb(51,51,51);fill-rule:nonzero;"/>
                <path d="M5.525,1.778C5.52,1.778 5.486,1.785 5.471,1.794C5.476,1.794 5.757,1.801 5.681,1.761C5.629,1.747 5.577,1.752 5.525,1.778Z" style="fill:rgb(51,51,51);fill-rule:nonzero;"/>
                <path d="M13.691,4.267C13.733,4.615 13.963,4.133 13.64,4.184C13.647,4.215 13.689,4.237 13.691,4.267Z" style="fill:rgb(51,51,51);fill-rule:nonzero;"/>
                <path d="M11.52,2.765C11.722,2.779 11.847,2.72 11.851,2.538C11.851,2.511 12.019,2.408 11.794,2.393C11.755,2.39 11.559,2.382 11.631,2.462C11.602,2.478 11.476,2.463 11.472,2.508C11.497,2.527 11.521,2.547 11.544,2.567C11.529,2.621 11.309,2.751 11.52,2.765Z" style="fill:rgb(51,51,51);fill-rule:nonzero;"/>
                <path d="M13.737,4.119C13.747,4.097 13.75,4.017 13.759,3.974C13.745,3.97 13.738,3.951 13.736,3.933C13.707,3.954 13.678,3.966 13.645,3.968C13.668,3.999 13.694,4.107 13.737,4.119Z" style="fill:rgb(51,51,51);fill-rule:nonzero;"/>
                <path d="M15.938,5.15C15.86,5.121 15.752,5.089 15.66,5.096C15.718,5.128 15.867,5.182 15.938,5.15Z" style="fill:rgb(51,51,51);fill-rule:nonzero;"/>
                <path d="M12.958,4.272C12.961,4.275 13.054,4.345 13.049,4.295C13.037,4.24 13.007,4.232 12.958,4.272Z" style="fill:rgb(51,51,51);fill-rule:nonzero;"/>
                <path d="M12.042,2.506C12.019,2.512 12.014,2.522 12.014,2.535C12.037,2.537 12.049,2.538 12.057,2.539C12.057,2.526 12.062,2.515 12.062,2.508C12.058,2.506 12.047,2.506 12.042,2.506Z" style="fill:rgb(51,51,51);fill-rule:nonzero;"/>
                <path d="M11.8,2.152C11.841,2.155 11.872,2.13 11.873,2.107C11.865,2.106 11.723,2.148 11.8,2.152Z" style="fill:rgb(51,51,51);fill-rule:nonzero;"/>
                <path d="M11.833,2.177C11.832,2.205 11.86,2.215 11.918,2.225C11.916,2.298 11.931,2.28 11.929,2.369C11.939,2.37 11.948,2.371 11.96,2.371C11.952,2.361 11.942,2.353 11.961,2.335C12.089,2.4 11.987,2.358 11.986,2.446C11.985,2.485 12.147,2.467 12.17,2.469C12.126,2.526 12.176,2.537 12.236,2.538C12.237,2.62 12.125,2.619 12.062,2.613C12.062,2.708 11.982,2.72 11.982,2.771C11.982,2.785 12.195,2.824 12.224,2.794C12.226,2.84 12.005,2.876 11.958,2.955C12.037,2.959 12.713,2.898 12.712,2.868C12.685,2.862 12.657,2.856 12.63,2.85C12.723,2.744 12.723,2.646 12.633,2.688C12.618,2.693 12.616,2.7 12.587,2.703C12.581,2.55 12.347,2.396 12.195,2.356C12.211,2.319 12.342,2.267 12.326,2.205C12.211,2.258 12.133,2.247 12.095,2.171C12.126,2.157 12.158,2.14 12.188,2.121C12.192,1.992 11.865,2.163 11.932,2.19C11.933,2.202 11.841,2.177 11.833,2.177Z" style="fill:rgb(51,51,51);fill-rule:nonzero;"/>
                <path d="M4.94,1.817C4.973,1.823 4.994,1.814 5.005,1.789C4.965,1.795 4.933,1.801 4.896,1.818C4.916,1.817 4.917,1.818 4.94,1.817Z" style="fill:rgb(51,51,51);fill-rule:nonzero;"/>
                <path d="M14.188,4.599C14.195,4.65 14.453,4.792 14.509,4.798C14.512,4.798 14.515,4.654 14.525,4.617C14.471,4.602 14.234,4.583 14.188,4.599Z" style="fill:rgb(51,51,51);fill-rule:nonzero;"/>
                <path d="M12.928,1.32L12.928,1.318L12.924,1.319L12.928,1.32Z" style="fill:rgb(51,51,51);fill-rule:nonzero;"/>
                <path d="M14.84,2.353C14.886,2.358 14.906,2.316 14.909,2.281C14.881,2.271 14.787,2.242 14.868,2.304C14.842,2.303 14.822,2.316 14.795,2.315C14.797,2.329 14.807,2.35 14.84,2.353Z" style="fill:rgb(51,51,51);fill-rule:nonzero;"/>
                <path d="M12.924,1.319C12.894,1.325 12.951,1.347 12.99,1.352C12.976,1.336 12.95,1.332 12.924,1.319Z" style="fill:rgb(51,51,51);fill-rule:nonzero;"/>
                <path d="M13.044,1.341C13.037,1.341 13.034,1.342 13.028,1.342C13.057,1.364 13.177,1.352 13.239,1.35C13.188,1.357 13.095,1.372 13.095,1.37C13.098,1.394 13.26,1.389 13.279,1.395C13.225,1.397 13.178,1.393 13.125,1.393C13.134,1.51 13.454,1.396 13.562,1.373C13.575,1.382 13.594,1.394 13.611,1.398C13.608,1.411 13.579,1.405 13.576,1.423C13.61,1.425 13.665,1.428 13.698,1.431C13.691,1.436 13.691,1.441 13.698,1.449C13.765,1.445 13.793,1.43 13.865,1.425C13.787,1.386 13.691,1.374 13.618,1.365C13.625,1.365 13.634,1.366 13.643,1.365C13.625,1.357 13.602,1.35 13.58,1.343C13.725,1.357 13.979,1.315 14.034,1.306C13.883,1.231 13.627,1.267 13.463,1.264C13.467,1.267 13.472,1.269 13.476,1.271C13.463,1.271 13.451,1.271 13.436,1.27C13.436,1.272 13.436,1.272 13.437,1.273C13.41,1.271 13.383,1.27 13.356,1.27C13.371,1.301 13.457,1.296 13.476,1.297C13.481,1.298 13.582,1.302 13.593,1.303C13.556,1.305 13.519,1.305 13.483,1.305C13.488,1.312 13.496,1.318 13.506,1.324C13.448,1.311 13.387,1.305 13.344,1.31C13.343,1.304 13.349,1.301 13.349,1.296C13.348,1.291 13.148,1.239 13.244,1.321C13.229,1.319 13.08,1.298 13.125,1.308C13.108,1.3 13.087,1.3 13.066,1.294C13.073,1.291 13.08,1.289 13.089,1.285C13.033,1.274 12.977,1.276 12.921,1.294C12.943,1.304 12.963,1.311 12.987,1.314C12.978,1.326 13.009,1.333 13.044,1.341Z" style="fill:rgb(51,51,51);fill-rule:nonzero;"/>
                <path d="M13.679,2.417C13.682,2.422 13.686,2.427 13.687,2.433C13.684,2.422 13.682,2.418 13.679,2.417Z" style="fill:rgb(51,51,51);fill-rule:nonzero;"/>
                <path d="M14.447,2.417C14.469,2.389 14.489,2.362 14.511,2.335C14.488,2.334 14.396,2.377 14.447,2.417Z" style="fill:rgb(51,51,51);fill-rule:nonzero;"/>
                <path d="M12.379,3.028C12.381,3.07 12.403,3.098 12.405,3.136C12.365,3.141 12.044,3.077 12.044,3.149C12.044,3.254 12.595,3.312 12.474,3.513C12.476,3.512 12.479,3.51 12.482,3.509C12.496,3.787 12.418,3.714 12.219,3.74C12.037,3.726 11.865,3.679 11.684,3.664C11.475,3.649 11.561,3.785 11.561,3.886C11.561,3.959 11.418,4.497 11.58,4.509C11.738,4.52 11.799,4.462 11.897,4.616C11.975,4.738 12.219,4.551 12.351,4.601C12.462,4.557 12.584,4.467 12.662,4.356C12.404,4.242 12.999,3.987 13.005,3.965C12.893,3.676 13.324,3.904 13.454,3.838C13.72,3.703 13.756,3.78 13.957,3.991C13.919,3.909 14.831,4.622 14.547,4.595C14.568,4.716 14.721,4.479 14.724,4.503C14.69,4.305 14.586,4.33 14.857,4.401C14.855,4.234 14.567,4.271 14.539,4.122C14.349,4.104 14.051,3.851 14.027,3.668C14.01,3.55 14.585,3.948 14.633,3.953C14.656,4.083 14.935,4.113 14.971,4.312C14.993,4.43 15.228,4.663 15.339,4.675C15.28,4.797 15.366,4.867 15.509,4.883C15.485,4.87 15.451,4.712 15.445,4.686C15.504,4.739 15.574,4.779 15.645,4.743C15.523,4.64 15.466,4.541 15.358,4.439C15.342,4.349 15.516,4.47 15.517,4.471C15.52,4.441 15.516,4.418 15.5,4.386C15.604,4.367 15.62,4.322 15.73,4.399C15.871,4.5 15.852,4.368 15.981,4.386C15.98,4.404 16.019,4.427 16.026,4.44C15.97,4.462 15.643,4.406 15.671,4.53C15.692,4.618 15.829,4.56 15.692,4.701C15.818,4.765 15.887,4.839 15.995,4.93C15.992,4.939 15.976,4.949 15.964,4.952C16.322,4.987 16.617,5.132 16.969,5.037C17.012,5.2 16.977,5.328 16.965,5.493C16.963,5.541 16.978,5.704 16.936,5.735C16.921,5.746 17.085,6.054 17.087,6.118C17.105,6.553 17.756,6.791 17.847,7.188C17.902,7.427 18.096,7.572 18.237,7.76C18.423,8.012 18.491,8.198 18.63,8.468C18.889,8.975 19.228,8.562 19.643,8.445C19.571,7.964 19.466,7.496 19.328,7.04C19.221,6.971 19.281,6.861 19.234,6.764C19.192,6.769 19.219,6.832 19.171,6.841C19.102,6.651 18.869,6.553 18.774,6.36C18.582,5.968 18.983,6.217 19.102,6.385C18.892,5.831 18.635,5.294 18.303,4.815C18.313,4.81 18.324,4.808 18.334,4.808C17.852,4.007 17.253,3.276 16.564,2.642C16.114,2.227 15.38,1.471 14.768,1.418C14.795,1.328 14.483,1.384 14.576,1.399C14.448,1.418 14.305,1.378 14.185,1.418C14.199,1.424 14.195,1.423 14.213,1.429C14.168,1.424 14.125,1.428 14.083,1.442C14.112,1.443 14.112,1.444 14.136,1.447C14.129,1.448 13.873,1.425 13.865,1.458C13.865,1.458 13.898,1.464 13.916,1.464C13.902,1.466 13.868,1.47 13.854,1.478C13.932,1.483 13.961,1.468 14.039,1.467C14.02,1.528 13.448,1.76 13.375,1.764C13.406,1.77 13.422,1.774 13.461,1.782C13.348,1.769 12.854,1.864 13.112,2.043C13.088,2.054 13.072,2.071 13.058,2.093C13.1,2.086 13.1,2.086 13.152,2.089C13.159,2.15 13.093,2.111 13.096,2.148C13.11,2.281 13.477,2.186 13.518,2.161C13.647,2.083 13.679,2.166 13.753,2.275C13.782,2.318 13.899,2.547 13.956,2.552C14.022,2.557 14.317,2.486 14.314,2.39C14.068,2.347 14.457,2.185 14.451,2.165C14.422,2.05 14.266,2.087 14.244,1.959C14.226,1.838 14.619,1.872 14.591,1.793C14.626,1.746 14.905,1.596 14.975,1.768C14.981,1.782 14.624,1.911 14.594,1.909C14.629,1.954 14.622,2.005 14.695,2.025C14.566,2.185 15.428,2.162 15.496,2.236C15.315,2.303 15.118,2.172 14.946,2.26C14.892,2.288 15.087,2.361 15.088,2.42C15.087,2.354 14.645,2.453 14.681,2.696C14.635,2.694 14.59,2.692 14.545,2.69C14.544,2.685 14.547,2.672 14.553,2.663C14.442,2.623 13.988,2.781 14.009,2.643C13.889,2.622 13.746,2.631 13.626,2.621C13.617,2.649 13.621,2.607 13.633,2.554C13.659,2.565 13.703,2.548 13.71,2.589C13.719,2.531 13.691,2.515 13.646,2.508C13.656,2.461 13.67,2.42 13.679,2.421C13.664,2.391 13.628,2.367 13.617,2.298C13.383,2.391 13.38,2.391 13.51,2.611C13.568,2.71 13.334,2.699 13.268,2.693C13.049,2.676 13.075,2.869 12.893,2.909C12.671,2.953 12.634,3.048 12.379,3.028ZM18.169,4.878C18.159,4.881 18.144,4.884 18.126,4.881C17.893,4.852 17.774,4.514 17.566,4.473C17.782,4.427 17.964,4.822 18.169,4.878ZM16.018,3.81C16.248,3.779 16.195,3.71 16.418,3.91C16.508,3.992 16.704,4.088 16.804,3.938C16.751,3.933 16.625,3.916 16.606,3.852C16.597,3.82 16.853,3.766 16.932,3.749C16.881,3.776 17.031,3.922 16.833,3.945C17.008,4.183 17.424,4.163 17.527,4.467C17.416,4.461 17.394,4.549 17.286,4.536C17.037,4.506 16.833,4.355 16.598,4.328C16.404,4.306 16.262,4.409 16.07,4.375C16.071,4.375 16.075,4.375 16.076,4.373C15.868,4.143 16.013,4.188 15.955,3.957C15.978,3.891 16.047,3.866 16.018,3.81Z" style="fill:rgb(51,51,51);fill-rule:nonzero;"/>
                <path d="M13.768,2.588C13.761,2.573 13.752,2.573 13.74,2.589C13.854,2.666 13.823,2.525 13.897,2.517C13.81,2.368 13.646,2.524 13.815,2.56C13.817,2.572 13.794,2.588 13.768,2.588Z" style="fill:rgb(51,51,51);fill-rule:nonzero;"/>
                <path d="M16.927,5.184C16.858,5.189 16.757,5.218 16.702,5.241C16.73,5.363 16.929,5.243 16.927,5.184Z" style="fill:rgb(51,51,51);fill-rule:nonzero;"/>
                <path d="M5.368,1.654C5.349,1.657 5.331,1.66 5.316,1.661C5.346,1.66 5.37,1.658 5.39,1.654C5.475,1.652 5.551,1.64 5.528,1.62C5.538,1.618 5.552,1.614 5.56,1.611C5.511,1.564 5.313,1.586 5.248,1.592C5.231,1.601 5.233,1.603 5.264,1.602C5.255,1.605 5.242,1.609 5.234,1.611C5.243,1.616 5.262,1.61 5.312,1.609C5.282,1.628 5.248,1.635 5.21,1.631C5.223,1.646 5.295,1.654 5.368,1.654Z" style="fill:rgb(51,51,51);fill-rule:nonzero;"/>
                <path d="M5.099,1.702C5.115,1.702 5.137,1.696 5.15,1.691C5.113,1.686 5.14,1.668 5.081,1.67C5.062,1.681 5.075,1.704 5.099,1.702Z" style="fill:rgb(51,51,51);fill-rule:nonzero;"/>
                <path d="M5.329,1.765C5.299,1.773 5.235,1.78 5.2,1.801C5.251,1.769 5.506,1.847 5.505,1.717C5.505,1.718 5.3,1.716 5.283,1.719C5.272,1.732 5.303,1.731 5.344,1.729C5.289,1.761 5.246,1.716 5.198,1.745C5.199,1.75 5.205,1.754 5.215,1.758C5.258,1.754 5.3,1.754 5.329,1.765Z" style="fill:rgb(51,51,51);fill-rule:nonzero;"/>
                <path d="M5.819,1.754C5.661,1.782 5.959,1.788 6.004,1.787C6.166,1.693 6.51,1.86 6.695,1.744C6.695,1.744 6.677,1.746 6.662,1.745C6.677,1.738 6.693,1.735 6.71,1.734C6.702,1.686 5.967,1.751 6.02,1.737C6,1.728 5.917,1.744 5.941,1.72C5.974,1.718 6.007,1.717 6.04,1.716C6.026,1.678 5.647,1.674 5.61,1.697C5.649,1.714 5.69,1.722 5.732,1.722C5.78,1.693 5.81,1.704 5.819,1.754Z" style="fill:rgb(51,51,51);fill-rule:nonzero;"/>
                <path d="M5.006,2.173C5.059,2.06 4.748,2.171 4.812,2.159C4.646,2.184 4.962,2.184 5.006,2.173Z" style="fill:rgb(51,51,51);fill-rule:nonzero;"/>
                <path d="M4.859,1.956C4.945,2.075 5.175,1.997 5.267,1.94C5.254,1.938 5.226,1.937 5.217,1.936C5.282,1.892 5.194,1.92 5.16,1.924C5.207,1.914 5.251,1.899 5.296,1.88C5.28,1.89 4.87,1.909 5.055,1.914C4.986,1.96 4.923,1.913 4.859,1.956Z" style="fill:rgb(51,51,51);fill-rule:nonzero;"/>
                <path d="M5.852,1.659C5.877,1.66 5.899,1.653 5.918,1.638C5.853,1.644 5.783,1.639 5.718,1.655C5.718,1.655 5.839,1.66 5.852,1.659Z" style="fill:rgb(51,51,51);fill-rule:nonzero;"/>
                <path d="M5.215,1.758L5.211,1.758L5.218,1.76L5.215,1.758Z" style="fill:rgb(51,51,51);fill-rule:nonzero;"/>
                <path d="M5.086,1.761C5.083,1.764 5.079,1.767 5.076,1.771C5.111,1.77 5.162,1.762 5.211,1.758C5.181,1.75 5.071,1.708 5.071,1.74L5.071,1.738L5.044,1.754C5.052,1.76 5.058,1.766 5.086,1.761Z" style="fill:rgb(51,51,51);fill-rule:nonzero;"/>
                <path d="M5.767,1.551C5.776,1.546 5.785,1.541 5.795,1.536C5.78,1.537 5.747,1.538 5.716,1.539C5.682,1.557 5.806,1.55 5.767,1.551Z" style="fill:rgb(51,51,51);fill-rule:nonzero;"/>
                <path d="M6.092,1.596C6.079,1.6 6.069,1.6 6.059,1.6C6.056,1.6 6.053,1.601 6.051,1.602C6.068,1.601 6.08,1.598 6.092,1.596Z" style="fill:rgb(51,51,51);fill-rule:nonzero;"/>
                <path d="M6.028,1.548C6.005,1.548 5.986,1.551 5.977,1.556C5.997,1.552 6.013,1.55 6.028,1.548Z" style="fill:rgb(51,51,51);fill-rule:nonzero;"/>
                <path d="M5.83,1.63C5.887,1.562 5.641,1.579 5.703,1.629C5.584,1.642 5.774,1.631 5.83,1.63Z" style="fill:rgb(51,51,51);fill-rule:nonzero;"/>
                <path d="M6.048,1.544C6.04,1.545 6.035,1.546 6.028,1.548C6.094,1.546 6.196,1.557 6.225,1.558C6.156,1.559 6.086,1.566 6.019,1.58C6.028,1.593 6.044,1.598 6.059,1.6C6.103,1.582 6.278,1.595 6.334,1.594C6.336,1.586 6.33,1.586 6.33,1.578C6.394,1.563 6.504,1.554 6.567,1.603C6.525,1.605 6.234,1.573 6.362,1.63C6.314,1.634 6.264,1.641 6.22,1.653C6.451,1.631 6.82,1.763 6.978,1.612C6.985,1.603 6.92,1.607 6.893,1.61C6.932,1.577 7.018,1.593 7.036,1.547C7.131,1.542 7.179,1.518 7.275,1.499C7.275,1.489 7.256,1.487 7.236,1.484C7.271,1.483 7.293,1.484 7.306,1.468C7.287,1.468 7.268,1.469 7.251,1.47C7.458,1.417 7.682,1.423 7.889,1.365C7.85,1.365 7.785,1.37 7.772,1.366C7.793,1.363 8.026,1.363 8.039,1.337C8.056,1.303 7.664,1.362 7.813,1.324C7.525,1.221 6.717,1.293 6.432,1.4C6.483,1.398 6.534,1.393 6.589,1.391C6.557,1.394 6.542,1.397 6.507,1.404C6.566,1.414 6.625,1.391 6.684,1.394C6.62,1.401 6.568,1.4 6.513,1.42C6.548,1.419 6.581,1.417 6.616,1.416C6.592,1.42 6.567,1.422 6.543,1.426C6.553,1.443 6.602,1.448 6.666,1.449C6.703,1.46 6.688,1.465 6.628,1.464C6.654,1.468 6.72,1.492 6.714,1.497C6.585,1.586 6.564,1.485 6.485,1.53C6.525,1.507 6.538,1.497 6.477,1.499C6.478,1.5 6.48,1.501 6.48,1.503C6.428,1.532 6.266,1.464 6.188,1.464C6.172,1.474 6.21,1.473 6.228,1.477C6.182,1.477 6.137,1.48 6.092,1.486C6.095,1.492 6.102,1.493 6.107,1.497C6.071,1.497 6.034,1.494 6.007,1.509C6.028,1.521 6.053,1.525 6.079,1.522C6.04,1.522 5.997,1.523 5.956,1.524C5.925,1.545 5.97,1.546 6.048,1.544ZM6.739,1.447C6.784,1.445 6.832,1.442 6.876,1.438C6.87,1.44 6.866,1.442 6.862,1.445C6.856,1.448 6.902,1.461 6.908,1.464C6.852,1.468 6.796,1.451 6.739,1.447ZM7.055,1.418C7.086,1.414 7.105,1.411 7.11,1.411C7.098,1.415 7.079,1.416 7.055,1.418Z" style="fill:rgb(51,51,51);fill-rule:nonzero;"/>
                <path d="M6.22,1.653C6.168,1.657 6.124,1.67 6.091,1.694C6.132,1.676 6.175,1.663 6.22,1.653Z" style="fill:rgb(51,51,51);fill-rule:nonzero;"/>
                <path d="M5.83,1.63C5.829,1.631 5.83,1.632 5.829,1.632C5.854,1.63 5.85,1.629 5.83,1.63Z" style="fill:rgb(51,51,51);fill-rule:nonzero;"/>
                <path d="M6.619,1.464L6.628,1.464L6.619,1.464Z" style="fill:rgb(51,51,51);fill-rule:nonzero;"/>
                <path d="M6.483,1.836C6.458,1.854 6.554,1.876 6.56,1.876C6.624,1.874 6.754,1.878 6.817,1.848C6.74,1.832 6.558,1.779 6.483,1.836Z" style="fill:rgb(51,51,51);fill-rule:nonzero;"/>
            </g>
        </g>
    </g>
</svg>
