<?xml version="1.0" encoding="utf-8"?>
<!-- Generator: Adobe Illustrator 21.0.2, SVG Export Plug-In . SVG Version: 6.00 Build 0)  -->
<svg version="1.1" id="Layer_1" xmlns="http://www.w3.org/2000/svg" xmlns:xlink="http://www.w3.org/1999/xlink" x="0px" y="0px"
	 viewBox="0 0 20 20" style="enable-background:new 0 0 20 20;" xml:space="preserve">
<style type="text/css">
	.st0{fill:#333333;}
</style>
<g>
	<polygon class="st0" points="10.9,6.6 9.2,8.4 7.7,8.7 6.8,8.7 6.5,9.4 6.8,10 6.5,14 9.4,18.7 12.3,18.6 12,14 13.8,12 15.2,10 	
		"/>
	<polygon class="st0" points="6.7,8 8.8,7.7 10.1,6.2 13.1,3.7 8.1,1.3 0.7,4.7 1.3,11.6 5,10.8 	"/>
	<polygon class="st0" points="6.1,10.3 6,14.5 7.4,16.6 8.5,18.7 0.7,18.7 0,12.6 4.9,11.6 	"/>
	<polygon class="st0" points="11.3,6.1 15.9,9.5 16.4,10 12.8,13.9 12.8,18.7 14.8,18.7 18,18.7 20,11.6 18.2,3.7 14.5,3.4 	"/>
</g>
</svg>
