<?xml version="1.0" encoding="utf-8"?>
<!-- Generator: Adobe Illustrator 21.0.2, SVG Export Plug-In . SVG Version: 6.00 Build 0)  -->
<svg version="1.1" id="Layer_1" xmlns="http://www.w3.org/2000/svg" xmlns:xlink="http://www.w3.org/1999/xlink" x="0px" y="0px"
	 viewBox="0 0 70 70" enable-background="new 0 0 70 70" xml:space="preserve">
<g id="oETfgs.tif_54_">
	<g>
		<g>
			<path fill="#676767" d="M38.4,70l-0.1-0.4c-0.2-1.4-0.6-2.2-1.4-2.7c-0.6-0.3-1.3-0.5-1.8-0.5c0,0,0,0,0,0
				c-1.7,0-2.7,0.9-3.3,3.1l-0.1,0.3l-0.3,0c-1.5,0-2.9-0.2-4.3-0.8c-0.4-0.2-0.5-0.7-0.5-1c0.1-0.9-0.2-1.8-0.8-2.5
				c-0.7-0.8-1.8-1.2-2.9-1.2c-1.2,0-2.1,0.7-2.6,2l-0.2,0.4l-1-0.5c-0.5-0.2-0.9-0.5-1.4-0.8c-0.4-0.2-0.9-0.5-1.3-0.8l-1-0.6
				l0.2-0.3c0.7-1.3,0.8-2.3,0.5-3.3c-0.2-0.6-0.6-1.2-1-1.5c-1.7-1.4-3.5-0.6-4.7,0.2L10,59.5l-3.6-4l0.3-0.3
				c1.1-0.8,1.6-1.8,1.6-2.9c0-0.7-0.2-1.4-0.4-1.9c-0.8-1.4-2.4-1.8-4.4-1.2l-0.3,0.1l-2-5l0.4-0.1c1.3-0.4,2.1-1,2.4-1.9
				c0.2-0.8,0.3-1.6,0.2-2.2c-0.2-1.4-1.5-2.3-3.7-2.5l-0.3,0l-0.1-0.3c-0.3-1.4-0.4-2.8-0.1-4.3c0.1-0.5,1-0.7,1-0.7
				c1.6-0.3,2.5-1,3-2.2c0.4-1.3,0.2-2.4-0.6-3.3c-0.3-0.3-0.7-0.6-1.2-0.9c-0.2-0.2-0.5-0.3-0.8-0.5L1.4,25l1.8-4.7l0.4,0.1
				C5,21,5.9,21,6.7,20.5c0.5-0.3,1.1-0.8,1.4-1.5c0.7-1.4,0.2-3-1.3-4.3l-0.3-0.3l3.5-4.3l0.3,0.3c1,0.9,1.8,1.3,2.8,1.1
				c0.8-0.2,1.5-0.5,2.1-0.9c1.2-1,1.4-2.5,0.5-4.5l-0.1-0.3L20,3.3l0.2,0.4c0.6,1.1,1.2,1.7,2.2,1.9c1,0.3,2.2,0,3-0.8
				c0.9-0.8,1.3-1.8,1.2-2.9c0-0.4,0.2-1,0.6-1.1c1-0.2,2-0.4,2.9-0.6L31.5,0l0.1,0.3c0.9,2.5,1.8,3.2,3.9,3.1
				c1.4-0.1,2.5-1.2,2.9-3.1L38.5,0l1.2,0.2c1,0.2,2.1,0.4,3.1,0.6c0.4,0.1,0.6,0.8,0.6,1c0,1.6,1,3.2,2.3,3.7
				c1.4,0.5,3.1,0,4.1-1.3c0.4-0.6,0.9-0.6,1.5-0.3c0.8,0.5,1.7,1,2.6,1.5c0.6,0.3,0.7,0.7,0.4,1.3c-0.7,1.5-0.5,2.9,0.7,3.8
				c1.6,1.3,2.8,1.4,4.4,0.3c0.3-0.2,0.9-0.3,1.1,0c0.7,0.8,1.4,1.5,2.1,2.4l0.9,1l-0.3,0.3c-1.7,1.3-2,2.8-1.1,4.6
				c0.8,1.5,1.9,1.9,4.7,1.5l0.3,0l0.4,1.1c0.3,0.9,0.6,1.9,0.9,2.8c0.1,0.4-0.4,0.9-0.6,1.1c-1.3,0.8-1.9,1.7-2.1,3
				c-0.2,1.8,1.5,3.4,3.2,3.6c0.6,0.1,1.2,0.3,1.1,1.3c0,1,0,2,0,3c0,0.7-0.3,1-1,1c-1.5,0.1-3.1,1.3-3.3,2.6
				c-0.3,1.4,0.6,3.2,2.1,3.8c0.3,0.1,0.9,0.4,0.6,1.3c-0.2,0.5-0.3,0.9-0.5,1.4c-0.2,0.6-0.4,1.1-0.6,1.7c-0.1,0.4-0.6,0.7-1,0.6
				c-2.2-0.4-3.3,0.1-4.3,1.8c-0.7,1.2-0.5,3.2,1,4.4c0.1,0.1,0.1,0.1,0.2,0.2c0,0,0,0.1,0.1,0.1l0.2,0.3l-3.4,3.7l-0.3-0.2
				c-1.9-1.3-3.3-1.3-4.8,0c-1.2,1-1.3,2.5-0.3,4.6l0.2,0.3l-4.5,2.5l-0.2-0.3c-1.2-1.9-2.4-2.4-4-1.9c-1.9,0.6-2.6,1.7-2.6,4.3
				l0,0.3L38.4,70z M35,65.6C35,65.6,35.1,65.6,35,65.6c1,0,1.8,0.4,2.2,0.6c1.2,0.7,1.6,1.9,1.8,2.9l3.6-0.7c0.1-2.7,1-4,3.1-4.7
				c1.9-0.6,3.4,0,4.7,1.9l3.3-1.8c-1-2.3-0.8-4,0.6-5.2c1.7-1.4,3.4-1.5,5.5-0.2l2.5-2.7c-1.8-1.5-1.9-3.8-1.1-5.3
				c1.1-2,2.6-2.6,5.1-2.2c0.1,0,0.1-0.1,0.2-0.1c0.2-0.5,0.4-1.1,0.6-1.6c0.2-0.5,0.3-1,0.5-1.4c0-0.1,0-0.2,0-0.2c0,0,0,0-0.2-0.1
				c-1.8-0.8-2.9-2.9-2.5-4.7c0.3-1.7,2.2-3.2,4.1-3.3c0.1,0,0.2,0,0.2,0c0,0,0-0.1,0-0.2c0-1,0-2,0-3.1c0-0.3,0-0.4-0.4-0.5
				c-2-0.3-4.1-2.2-3.9-4.5c0.2-1.5,1-2.7,2.5-3.6c0.1,0,0.2-0.2,0.2-0.2c-0.3-0.9-0.6-1.8-0.9-2.7l-0.2-0.5c-2.9,0.3-4.2-0.2-5.1-2
				c-1.1-2-0.8-3.8,0.9-5.3L62,13.9c-0.7-0.8-1.4-1.6-2.1-2.3c-0.1,0-0.1,0-0.2,0c-1.9,1.3-3.5,1.2-5.3-0.3c-1.4-1.2-1.7-3-0.9-4.8
				c0.1-0.1,0.1-0.2,0.1-0.2c0,0,0,0,0,0c0,0,0,0-0.2-0.1c-0.9-0.5-1.8-1-2.6-1.5c-0.2-0.1-0.3-0.2-0.5,0.1c-1.2,1.6-3.3,2.2-5,1.6
				c-1.6-0.6-2.8-2.5-2.8-4.5c0-0.1,0-0.2-0.1-0.2c-1-0.2-2-0.4-3-0.6l-0.5-0.1c-0.6,2-1.9,3.2-3.5,3.3C33.2,4.4,32,3.5,31,0.9
				L30.4,1c-0.9,0.2-1.9,0.3-2.8,0.5c0,0.1-0.1,0.2-0.1,0.2c0.1,1.3-0.4,2.7-1.5,3.6c-1.1,0.9-2.5,1.3-3.7,0.9
				c-1.1-0.3-1.9-0.9-2.5-2l-3.1,1.8c1.1,2.8,0.2,4.3-0.8,5.1c-0.7,0.5-1.5,0.9-2.4,1.1c-1.1,0.2-2.1-0.1-3.2-1l-2.5,3
				c1.6,1.5,2.1,3.4,1.2,5c-0.4,0.8-1.2,1.4-1.7,1.7c-1.2,0.8-2.5,0.6-3.5,0.3l-1.3,3.4c0.2,0.1,0.3,0.2,0.5,0.4
				c0.5,0.3,0.9,0.6,1.3,1c1.1,1.1,1.3,2.6,0.8,4.2c-0.5,1.5-1.7,2.4-3.5,2.8c-0.2,0-0.3,0.1-0.4,0.2c-0.2,1.2-0.2,2.4,0,3.6
				c2.3,0.3,3.9,1.5,4.1,3.2c0.1,0.8,0,1.7-0.3,2.6c-0.3,1.1-1.2,1.9-2.5,2.3l1.4,3.5c2.2-0.6,4,0,5,1.6c0.4,0.6,0.6,1.5,0.6,2.3
				c0,1.2-0.5,2.3-1.6,3.3l2.5,2.8c1.9-1.2,3.8-1.3,5.4,0c0.5,0.4,1,1.1,1.3,1.8c0.4,1.1,0.3,2.3-0.3,3.6l0.3,0.2
				c0.4,0.3,0.9,0.5,1.3,0.8c0.5,0.3,0.9,0.5,1.4,0.7l0.2,0.1c0.7-1.4,1.7-2.1,3.1-2.1c1.4,0,2.6,0.5,3.5,1.5c0.8,0.9,1.1,2,1,3.1
				c0,0,0,0.2,0,0.2c1.2,0.4,2.4,0.7,3.6,0.7C31.7,66.6,33,65.6,35,65.6z M34.9,61.5C34.9,61.5,34.9,61.5,34.9,61.5
				c-7.1,0-13.6-2.7-18.5-7.7c-4.9-4.9-7.6-11.6-7.5-18.6c0-7,2.8-13.6,7.8-18.5c5.1-5,11.7-7.6,18.8-7.5
				c14.3,0.3,25.7,12.2,25.5,26.7C60.7,49.9,49,61.5,34.9,61.5z M35,9.9c-6.6,0-12.9,2.6-17.7,7.3C12.4,22,9.7,28.3,9.7,35.1
				c0,6.9,2.6,13.3,7.3,18.1c4.7,4.8,11.1,7.4,17.9,7.5l0,0c0,0,0,0,0.1,0c13.7,0,25-11.2,25.2-24.9c0.2-14-10.8-25.6-24.7-25.9
				C35.3,9.9,35.1,9.9,35,9.9z"/>
		</g>
	</g>
</g>
<g>
	<g>
		<g>
			<rect x="25.3" y="37.4" fill="#676767" width="2.7" height="5.5"/>
		</g>
	</g>
	<g>
		<g>
			<rect x="35" y="34.9" fill="#676767" width="2.7" height="7.9"/>
		</g>
	</g>
	<g>
		<g>
			<rect x="45.2" y="32.3" fill="#676767" width="2.7" height="10.6"/>
		</g>
	</g>
	<g>
		<g>
			<polygon fill="#676767" points="19.4,41.7 18.7,39.5 53.3,28.2 54,30.4 			"/>
		</g>
	</g>
	<g>
		<g>
			<path fill="#676767" d="M25.4,47.3c-0.8,0-1.5-0.5-1.9-0.8c-0.4,0.3-1.1,0.8-1.9,0.8c-0.7,0-1.4-0.5-1.8-0.8
				c-0.4,0.3-1.1,0.8-1.9,0.8c-1.2,0-2.2-1.1-2.2-1.1l0.7-0.7c0.2,0.2,0.9,0.8,1.5,0.8c0.8,0,1.5-0.8,1.5-0.8l0.4-0.4l0.4,0.4
				c0.2,0.2,0.9,0.8,1.5,0.8c0.6,0,1.3-0.6,1.5-0.8l0.4-0.4l0.3,0.4c0,0,0.7,0.8,1.5,0.8c0.6,0,1.3-0.6,1.5-0.8l0.7,0.7
				C27.4,46.3,26.5,47.3,25.4,47.3z"/>
		</g>
	</g>
	<g>
		<g>
			<path fill="#676767" d="M31.8,52c-0.8,0-1.5-0.5-1.9-0.8c-0.4,0.3-1.1,0.8-1.9,0.8c-0.7,0-1.4-0.5-1.8-0.8
				c-0.4,0.3-1.1,0.8-1.9,0.8c-1.2,0-2.2-1.1-2.2-1.1l0.7-0.7c0.2,0.2,0.9,0.8,1.5,0.8c0.8,0,1.5-0.8,1.5-0.8l0.4-0.4l0.4,0.4
				c0.2,0.2,0.9,0.8,1.5,0.8c0.6,0,1.3-0.6,1.5-0.8l0.4-0.4l0.3,0.4c0,0,0.7,0.8,1.5,0.8c0.6,0,1.3-0.6,1.5-0.8l0.7,0.7
				C33.9,51,32.9,52,31.8,52z"/>
		</g>
	</g>
	<g>
		<g>
			<path fill="#676767" d="M47.9,52c-0.8,0-1.5-0.5-1.9-0.8c-0.4,0.3-1.1,0.8-1.9,0.8c-0.7,0-1.4-0.5-1.8-0.8
				c-0.4,0.3-1.1,0.8-1.9,0.8c-1.2,0-2.2-1.1-2.2-1.1l0.7-0.7c0.2,0.2,0.9,0.8,1.5,0.8c0.8,0,1.5-0.8,1.5-0.8l0.4-0.4l0.4,0.4
				c0.2,0.2,0.9,0.8,1.5,0.8c0.6,0,1.3-0.6,1.5-0.8l0.4-0.4l0.3,0.4c0,0,0.7,0.8,1.5,0.8c0.6,0,1.3-0.6,1.5-0.8l0.7,0.7
				C50,51,49,52,47.9,52z"/>
		</g>
	</g>
	<g>
		<g>
			<path fill="#676767" d="M43.6,47.4c-0.8,0-1.5-0.5-1.9-0.8c-0.4,0.3-1.1,0.8-1.9,0.8c-0.7,0-1.4-0.5-1.8-0.8
				c-0.4,0.3-1.1,0.8-1.9,0.8c-1.2,0-2.2-1.1-2.2-1.1l0.7-0.7c0.2,0.2,0.9,0.8,1.5,0.8c0.6,0,1.3-0.6,1.5-0.8l0.4-0.4l0.4,0.4
				c0.2,0.2,0.9,0.8,1.5,0.8c0.6,0,1.3-0.6,1.5-0.8l0.4-0.4l0.3,0.4c0,0,0.7,0.8,1.5,0.8c0.6,0,1.3-0.6,1.5-0.8l0.7,0.7
				C45.6,46.4,44.7,47.4,43.6,47.4z"/>
		</g>
	</g>
	<g>
		<g>
			<g>
				<path fill="#676767" d="M20.8,31.9c0,0,2.4,2.2,3.2,2.8c0.5,0.3,2.9,0.9,3.8,0.7c0.9-0.2,20.2-6.2,20.2-6.2s1.2-0.5,1.1-0.7
					S49,28.1,49,28.1l-0.5-1.6c0,0,0.2-0.7,0.6-1.1c0.4-0.4,0.5-0.5,0.5-0.5l0.1-0.1l-1.9,0.8c0,0-5.6,1.9-5.9,2
					c-0.3,0.1-6.6,1.9-7.1,2c-0.6,0.1-5.1,0.6-6.1,0.7c-1,0.1-4.1,0.5-5.1,0.7S20.8,31.9,20.8,31.9z"/>
			</g>
		</g>
		<g>
			<g>
				<path fill="#676767" d="M27.1,29.1l0.1,0.3c0,0,1.3-0.2,1.7-0.2c0.4,0,2.3-0.3,3.1-0.4c1-0.1,2.5-0.3,3-0.4
					c0.6-0.1,2.9-0.7,3.5-0.9c0.6-0.2,3.3-1,4.1-1.2c0.8-0.3,2.5-0.9,2.5-0.9l-1.3-3.9l-1.1,0.3l-1-0.3c0,0-5.8,1.7-6.4,2
					s-3,1.5-3,1.5l-1.3,2.4l-3.7,1.5L27.1,29.1z"/>
			</g>
		</g>
		<g>
			<g>
				<path fill="#FFFFFF" d="M33.2,25.1l-0.4,0.8l0.1,0.2l0.6,0.3l1-0.3l0.3-0.3l0.6-0.1c0,0,0.2-0.1,0.1-0.2s-0.2-0.7-0.2-0.7
					s-0.2-0.3-0.3-0.2C34.8,24.6,33.2,25.1,33.2,25.1z"/>
			</g>
		</g>
		<g>
			<g>
				<path fill="none" d="M37.4,25.2l-1,0.3c-0.3,0.1-0.6-0.1-0.7-0.4l0,0c-0.1-0.3,0.1-0.6,0.4-0.7l1-0.3c0.3-0.1,0.6,0.1,0.7,0.4
					l0,0C37.9,24.8,37.7,25.1,37.4,25.2z"/>
			</g>
		</g>
		<g>
			<g>
				<path fill="#FFFFFF" d="M39.8,24.3l-1,0.3c-0.3,0.1-0.6-0.1-0.7-0.4l0,0c-0.1-0.3,0.1-0.6,0.4-0.7l1-0.3
					c0.3-0.1,0.6,0.1,0.7,0.4l0,0C40.2,23.9,40.1,24.2,39.8,24.3z"/>
			</g>
		</g>
		<g>
			<g>
				<path fill="#FFFFFF" d="M37.3,25l-1,0.3c-0.3,0.1-0.6-0.1-0.7-0.4l0,0c-0.1-0.3,0.1-0.6,0.4-0.7l1-0.3c0.3-0.1,0.6,0.1,0.7,0.4
					l0,0C37.8,24.6,37.6,25,37.3,25z"/>
			</g>
		</g>
		<g>
			<g>
				<path fill="#676767" d="M20.5,31.3l0,0.2c0,0.1,0.2,0.2,0.3,0.2L23,31c0.6-0.2,1.8-0.4,2.8-0.5c1.2-0.2,3-0.3,4.2-0.4
					c1.2-0.1,4.1-0.4,4.7-0.5c0.6-0.1,4.1-1.2,5.2-1.5c1.2-0.3,6.7-2.2,7.4-2.4c0.5-0.2,1.9-0.7,2.3-0.9c0,0,0.1-0.1,0.1-0.1
					l0.1-0.2c0-0.1,0-0.1,0-0.2c0-0.1-0.1-0.3-0.1-0.4c-0.1-0.1-0.3-0.3-0.4-0.1c-0.1,0.2-1,0.5-1.6,0.7c-0.6,0.3-6,2.2-7.2,2.5
					s-4.4,1.3-5.7,1.6s-4.4,0.7-5.7,0.8c-1.3,0.1-2.1,0.2-3,0.3c-1.1,0.1-2.5,0.3-3.3,0.6c-0.7,0.2-1.8,0.6-2.3,0.7
					C20.5,31,20.4,31.2,20.5,31.3z"/>
			</g>
		</g>
		<g>
			<g>
				<polygon fill="#676767" points="43.3,21.4 43.2,21.4 41.4,15.4 41.5,15.4 				"/>
			</g>
		</g>
	</g>
</g>
</svg>
