<?xml version="1.0" encoding="utf-8"?>
<!-- Generator: Adobe Illustrator 21.0.2, SVG Export Plug-In . SVG Version: 6.00 Build 0)  -->
<svg version="1.1" id="Layer_1" xmlns="http://www.w3.org/2000/svg" xmlns:xlink="http://www.w3.org/1999/xlink" x="0px" y="0px"
	 viewBox="0 0 16 16" style="enable-background:new 0 0 16 16;" xml:space="preserve">
<style type="text/css">
	.st0{fill:#FFFFFF;}
</style>
<g id="VSsn5L.tif_2_">
	<g>
		<path class="st0" d="M7.7,16c-0.3-0.1-0.7-0.2-0.9-0.5c-0.1-0.2-0.3-0.4-0.4-0.5c0-0.1-0.1-0.1-0.2-0.1c-0.3,0-0.5-0.3-0.5-0.6
			c0-0.3,0.2-0.5,0.6-0.5c1.1,0,2.2,0,3.3,0c0.3,0,0.6,0.2,0.6,0.5c0,0.3-0.2,0.6-0.5,0.6c-0.1,0-0.1,0-0.1,0.1
			c-0.2,0.6-0.7,0.9-1.3,1c0,0,0,0,0,0C8.1,16,7.9,16,7.7,16z"/>
		<path class="st0" d="M10.2,11.4c-1.5,0-3,0-4.5,0c-0.1-0.3-0.1-0.6-0.2-0.9C5.5,9.7,5.1,9,4.8,8.3c-0.3-0.7-0.7-1.4-1-2.2
			c-0.6-1.8-0.3-3.4,1-4.8C5.7,0.5,6.7,0,8,0c2.2,0,4,1.5,4.4,3.6c0.2,0.9,0.1,1.8-0.3,2.6c-0.3,0.8-0.7,1.6-1.1,2.4
			c-0.3,0.7-0.6,1.4-0.7,2.1C10.3,11,10.3,11.2,10.2,11.4z M9.2,10.3c0.2-0.9,0.6-1.7,1-2.5c0.3-0.6,0.6-1.2,0.9-1.9
			c0.3-0.6,0.4-1.2,0.3-1.9c-0.2-1.3-1-2.3-2.2-2.7C7.9,0.9,6.7,1.1,5.8,2C4.9,2.8,4.5,3.8,4.7,5c0.1,0.5,0.3,1,0.5,1.5
			c0.6,1.2,1.3,2.4,1.6,3.8C7.6,10.3,8.4,10.3,9.2,10.3z"/>
		<path class="st0" d="M8,13.1c-0.5,0-1.1,0-1.6,0c-0.4,0-0.6-0.2-0.6-0.6C5.8,12.2,6,12,6.3,12c1.1,0,2.2,0,3.3,0
			c0.3,0,0.6,0.2,0.6,0.6c0,0.3-0.2,0.6-0.6,0.6C9.1,13.1,8.6,13.1,8,13.1z"/>
	</g>
</g>
</svg>
