<?xml version="1.0" encoding="utf-8"?>
<!-- Generator: Adobe Illustrator 21.0.2, SVG Export Plug-In . SVG Version: 6.00 Build 0)  -->
<svg version="1.1" id="icon-global-setup-options" xmlns="http://www.w3.org/2000/svg" xmlns:xlink="http://www.w3.org/1999/xlink"
	 x="0px" y="0px" viewBox="15 15 40 40" style="enable-background:new 15 15 40 40;" xml:space="preserve">
<g>
	<g>
		<g id="OxawvA.tif_3_">
			<g>
				<g>
					<path style="fill:#ffffff;" d="M25.654,34.982c0.102-0.362,0.351-0.552,0.702-0.662c0.344-0.107,0.673-0.26,1.008-0.396
						c0.462-0.187,0.694-0.573,0.869-1.012c0.205-0.513,0.2-1.013-0.054-1.51c-0.144-0.283-0.273-0.573-0.407-0.861
						c-0.151-0.324-0.099-0.614,0.155-0.87c0.2-0.201,0.399-0.402,0.6-0.603c0.238-0.237,0.532-0.286,0.84-0.148
						c0.386,0.173,0.773,0.345,1.162,0.512c0.463,0.199,0.901,0.089,1.342-0.098c0.538-0.228,0.872-0.624,1.047-1.175
						c0.089-0.281,0.195-0.556,0.294-0.834c0.11-0.31,0.33-0.492,0.653-0.511c0.321-0.019,0.645-0.02,0.966,0.001
						c0.315,0.02,0.529,0.2,0.642,0.502c0.149,0.398,0.303,0.793,0.46,1.188c0.19,0.476,0.583,0.713,1.034,0.89
						c0.509,0.201,0.999,0.19,1.488-0.062c0.281-0.145,0.571-0.274,0.857-0.408c0.315-0.148,0.607-0.097,0.853,0.148
						c0.201,0.2,0.401,0.401,0.6,0.603c0.251,0.253,0.294,0.541,0.149,0.872c-0.184,0.419-0.364,0.841-0.535,1.266
						c-0.114,0.284-0.083,0.568-0.004,0.865c0.191,0.719,0.626,1.188,1.325,1.421c0.273,0.091,0.543,0.194,0.814,0.291
						c0.302,0.108,0.482,0.325,0.503,0.642c0.021,0.328,0.021,0.659,0,0.987c-0.02,0.317-0.202,0.533-0.504,0.641
						c-0.266,0.095-0.529,0.199-0.798,0.286c-0.739,0.238-1.164,0.745-1.355,1.495c-0.102,0.401-0.046,0.762,0.115,1.123
						c0.134,0.3,0.276,0.596,0.416,0.894c0.183,0.39,0.139,0.652-0.161,0.954c-0.192,0.193-0.383,0.387-0.576,0.578
						c-0.231,0.229-0.528,0.279-0.826,0.145c-0.392-0.175-0.784-0.35-1.177-0.52c-0.458-0.198-0.892-0.086-1.326,0.098
						c-0.536,0.227-0.879,0.617-1.052,1.17c-0.073,0.232-0.174,0.456-0.239,0.691c-0.1,0.361-0.312,0.596-0.68,0.679
						c-0.339,0-0.679,0-1.018,0c-0.368-0.083-0.581-0.316-0.681-0.678c-0.063-0.229-0.152-0.451-0.236-0.673
						c-0.203-0.536-0.497-0.983-1.069-1.199c-0.516-0.195-1.018-0.286-1.536-0.02c-0.307,0.157-0.622,0.296-0.935,0.442
						c-0.316,0.148-0.61,0.098-0.854-0.144c-0.205-0.204-0.409-0.409-0.612-0.614c-0.237-0.24-0.289-0.536-0.147-0.842
						c0.124-0.267,0.258-0.53,0.376-0.8c0.222-0.505,0.34-1.011,0.103-1.558c-0.227-0.525-0.518-0.965-1.093-1.151
						c-0.274-0.089-0.537-0.213-0.813-0.291c-0.351-0.099-0.585-0.301-0.687-0.654C25.654,35.709,25.654,35.346,25.654,34.982z
						 M40.424,35.522c-0.004-3.375-2.715-6.097-6.077-6.101c-3.364-0.004-6.089,2.733-6.084,6.111
						c0.005,3.376,2.715,6.098,6.076,6.102C37.704,41.637,40.428,38.9,40.424,35.522z"/>
				</g>
			</g>
		</g>
		<g>
			<path style="fill:#ffffff;" d="M34.343,42.622c-3.895,0-7.064-3.182-7.064-7.094c0-3.912,3.169-7.094,7.064-7.094
				s7.064,3.182,7.064,7.094C41.407,39.44,38.238,42.622,34.343,42.622z M34.343,31.614c-2.149,0-3.897,1.756-3.897,3.914
				c0,2.158,1.748,3.914,3.897,3.914c2.149,0,3.897-1.756,3.897-3.914C38.24,33.37,36.492,31.614,34.343,31.614z"/>
		</g>
	</g>
	<g id="LdV8wI.tif_2_">
		<g>
			<g>
				<path style="fill:#ffffff;" d="M31.994,16.116c1.561,0.934,3.123,1.865,4.682,2.802c0.6,0.361,1.204,0.717,1.785,1.107
					c0.623,0.418,0.638,1.143,0.021,1.573c-0.565,0.394-1.167,0.738-1.758,1.094c-1.397,0.842-2.797,1.678-4.196,2.516
					c-0.052,0.031-0.103,0.062-0.156,0.09c-0.707,0.368-1.317,0.059-1.374-0.736c-0.045-0.63-0.02-1.266-0.026-1.899
					c-0.001-0.16,0-0.32,0-0.545c-0.491,0.158-0.956,0.289-1.408,0.456c-1.561,0.579-2.984,1.404-4.254,2.486
					c-1.474,1.255-2.654,2.744-3.536,4.476c-0.737,1.446-1.201,2.978-1.419,4.579c-0.156,1.144-1.822,1.883-2.732,1.34
					c-0.672-0.402-0.862-1.04-0.773-1.732c0.116-0.902,0.303-1.801,0.539-2.68c0.442-1.649,1.151-3.188,2.063-4.629
					c0.874-1.379,1.917-2.615,3.127-3.713c1.706-1.547,3.637-2.72,5.792-3.509c0.768-0.281,1.569-0.472,2.36-0.689
					c0.167-0.046,0.23-0.108,0.223-0.282c-0.013-0.321,0-0.643-0.007-0.965c-0.012-0.482,0.127-0.885,0.566-1.139
					C31.673,16.116,31.833,16.116,31.994,16.116z"/>
			</g>
			<g>
				<path style="fill:#ffffff;" d="M48.249,39.829c0.134-0.736,0.288-1.411,0.376-2.094c0.411-3.17-0.224-6.138-1.79-8.906
					c-0.873-1.543-2.035-2.845-3.385-3.991c-0.515-0.437-0.731-1.053-0.624-1.738c0.141-0.903,1.136-1.481,2.125-1.272
					c0.639,0.135,1.107,0.54,1.564,0.962c1.274,1.176,2.373,2.502,3.255,3.997c1.889,3.202,2.725,6.664,2.483,10.386
					c-0.097,1.493-0.401,2.943-0.836,4.368c-0.012,0.038-0.02,0.076-0.038,0.149c0.311,0.187,0.627,0.375,0.941,0.568
					c0.153,0.094,0.311,0.185,0.45,0.298c0.546,0.446,0.537,1.055-0.049,1.452c-0.472,0.319-0.974,0.593-1.469,0.876
					c-1.45,0.831-2.903,1.657-4.355,2.484c-0.078,0.045-0.158,0.087-0.24,0.124c-0.654,0.302-1.237,0.002-1.317-0.72
					c-0.06-0.538-0.055-1.083-0.064-1.626c-0.028-1.749-0.049-3.498-0.072-5.248c-0.002-0.131-0.001-0.262,0.011-0.392
					c0.066-0.682,0.615-1.013,1.228-0.717c0.377,0.182,0.731,0.414,1.095,0.624C47.745,39.533,47.951,39.655,48.249,39.829z"/>
			</g>
			<g>
				<path style="fill:#ffffff;" d="M24.685,46.349c0.371,0.32,0.699,0.624,1.048,0.899c1.802,1.421,3.832,2.363,6.079,2.793
					c1.927,0.369,3.864,0.367,5.779-0.105c0.707-0.174,1.4-0.407,2.091-0.638c0.751-0.251,1.385-0.067,1.853,0.574
					c0.459,0.629,0.454,1.548-0.008,2.142c-0.331,0.425-0.763,0.714-1.262,0.884c-2.126,0.722-4.312,1.075-6.555,0.967
					c-2.717-0.132-5.284-0.834-7.679-2.151c-1.609-0.884-3.056-1.976-4.318-3.312c-0.138-0.146-0.251-0.153-0.413-0.052
					c-0.408,0.254-0.822,0.496-1.234,0.743c-0.034,0.021-0.066,0.045-0.101,0.065c-0.859,0.509-1.504,0.164-1.493-0.835
					c0.025-2.242,0.078-4.483,0.126-6.724c0.004-0.168,0.038-0.341,0.089-0.502c0.151-0.477,0.523-0.712,0.999-0.569
					c0.358,0.107,0.7,0.29,1.029,0.476c1.708,0.964,3.412,1.934,5.109,2.917c0.208,0.121,0.411,0.302,0.536,0.506
					c0.241,0.392,0.052,0.866-0.428,1.169C25.543,45.84,25.145,46.071,24.685,46.349z"/>
			</g>
		</g>
	</g>
</g>
</svg>
