<?xml version="1.0" encoding="utf-8"?>
<!-- Generator: Adobe Illustrator 21.0.2, SVG Export Plug-In . SVG Version: 6.00 Build 0)  -->
<svg version="1.1" id="Layer_1" xmlns="http://www.w3.org/2000/svg" xmlns:xlink="http://www.w3.org/1999/xlink" x="0px" y="0px"
	 viewBox="0 0 21 24" enable-background="new 0 0 21 24" xml:space="preserve">
<g>
	<g>
		<path fill="#FFFFFF" d="M16.6,11.7h-1.9c0-1.4-0.6-3.2-1.5-4.2c-1-1-2.2-1.5-3.6-1.6V4c3.9,0.1,7,3.2,7,7.2V11.7z"/>
		<path fill="#FFFFFF" d="M21,11h-1.9c-0.1-5-4-9-8.9-9V0C16.1,0.1,20.9,5,21,11L21,11z"/>
	</g>
	<path fill="#FFFFFF" d="M7,24H3.6c-2,0-3.6-1.6-3.6-3.6v-7.8C0,10.6,1.6,9,3.6,9H7c2,0,3.6,1.6,3.6,3.6v7.8C10.6,22.4,9,24,7,24z"
		/>
</g>
</svg>
