<?xml version="1.0" encoding="iso-8859-1"?>
<!-- Generator: Adobe Illustrator 21.0.2, SVG Export Plug-In . SVG Version: 6.00 Build 0)  -->
<svg version="1.1" xmlns="http://www.w3.org/2000/svg" xmlns:xlink="http://www.w3.org/1999/xlink" x="0px" y="0px"
	 viewBox="0 0 17.321 20" style="enable-background:new 0 0 17.321 20;" xml:space="preserve">
<g id="icon-comms-asset-orange">
	<g>
		<polygon style="fill:#FF7900;" points="17.321,15 8.66,20 0,15 0,5 8.66,0 17.321,5 		"/>
		<g>
			<polygon style="fill:#FFFFFF;" points="9.395,14.401 9.2,14.459 9.815,16.539 10.718,14.566 10.533,14.482 			"/>
			<polygon style="fill:#FFFFFF;" points="10.542,11.895 11.12,12.159 11.131,12.164 11.698,12.424 12.025,11.71 10.868,11.181 			
				"/>
			<polygon style="fill:#FFFFFF;" points="10.072,12.921 9.878,12.263 9.267,12.443 9.877,12.261 9.877,12.26 9.215,12.459 
				8.658,12.624 8.929,13.541 9.923,13.247 9.888,13.323 11.045,13.852 11.371,13.138 10.215,12.609 			"/>
			<polygon style="fill:#FFFFFF;" points="12.44,9.667 11.561,9.667 11.195,10.466 11.969,10.82 12.227,10.938 12.351,10.995 
				12.378,10.938 12.44,10.938 12.44,10.801 12.511,10.668 12.44,10.518 			"/>
			<polygon style="fill:#FFFFFF;" points="13.366,9.667 13.367,10.938 14.293,10.938 14.293,9.667 13.367,9.667 			"/>
			<polygon style="fill:#FFFFFF;" points="15.219,9.667 15.219,9.667 15.219,10.938 15.69,10.938 15.69,9.667 			"/>
			<polygon style="fill:#FFFFFF;" points="7.283,3.461 5.069,10.008 1.63,10.008 1.63,11.28 6.011,11.28 7.188,7.7 8.225,11.28 
				9.591,11.28 			"/>
		</g>
	</g>
</g>
<g id="Layer_1">
</g>
</svg>
