<?xml version="1.0" encoding="utf-8"?>
<!-- Generator: Adobe Illustrator 21.0.2, SVG Export Plug-In . SVG Version: 6.00 Build 0)  -->
<svg version="1.1" id="Layer_1" xmlns="http://www.w3.org/2000/svg" xmlns:xlink="http://www.w3.org/1999/xlink" x="0px" y="0px"
	 viewBox="0 0 24 24" style="enable-background:new 0 0 24 24;" xml:space="preserve">
<style type="text/css">
	.st0{fill:#FFFFFF;}
	.st1{fill:#1C1C1C;}
</style>
<g>
	<g>
		<circle class="st0" cx="12" cy="12" r="11.8"/>
		<path class="st1" d="M12,24C5.4,24,0,18.6,0,12C0,5.4,5.4,0,12,0c6.6,0,12,5.4,12,12C24,18.6,18.6,24,12,24z M12,0.5
			C5.6,0.5,0.5,5.6,0.5,12S5.6,23.5,12,23.5c6.4,0,11.5-5.2,11.5-11.5S18.4,0.5,12,0.5z"/>
	</g>
	<g>
		<polygon class="st1" points="13.5,20.9 10.1,9.2 8.7,13.6 3.6,13.6 3.6,12 7.5,12 10.1,3.4 13.8,16 15.5,11.7 20.6,11.7 
			20.6,13.4 16.6,13.4 		"/>
	</g>
</g>
</svg>
