<?xml version="1.0" encoding="iso-8859-1"?>
<!-- Generator: Adobe Illustrator 21.0.2, SVG Export Plug-In . SVG Version: 6.00 Build 0)  -->
<svg version="1.1" id="Layer_1" xmlns="http://www.w3.org/2000/svg" xmlns:xlink="http://www.w3.org/1999/xlink" x="0px" y="0px"
	 viewBox="0 0 20 17" style="enable-background:new 0 0 20 17;" xml:space="preserve">
<polygon style="fill:#FFFFFF;" points="15.468,0 15.468,1.214 18.824,1.214 18.824,7.69 11.809,7.69 11.809,8.905 18.824,8.905 
	18.824,15.786 8.301,15.786 8.301,13.042 7.124,13.042 7.124,15.786 1.176,15.786 1.176,8.905 7.124,8.905 7.124,11.111 
	8.301,11.111 8.301,5.489 7.124,5.489 7.124,7.69 1.176,7.69 1.176,1.214 7.124,1.214 7.124,3.554 8.301,3.554 8.301,1.214 
	11.961,1.214 11.961,0 0,0 0,17 20,17 20,0 "/>
</svg>
