<?xml version="1.0" encoding="UTF-8" standalone="no"?>
<!DOCTYPE svg PUBLIC "-//W3C//DTD SVG 1.1//EN" "http://www.w3.org/Graphics/SVG/1.1/DTD/svg11.dtd">
<svg width="100%" height="100%" viewBox="0 0 120 90" version="1.1" xmlns="http://www.w3.org/2000/svg" xmlns:xlink="http://www.w3.org/1999/xlink" xml:space="preserve" xmlns:serif="http://www.serif.com/" style="fill-rule:evenodd;clip-rule:evenodd;stroke-linejoin:round;stroke-miterlimit:2;">
    <g transform="matrix(0.107142,0,0,0.107142,-40.8855,-19.2856)">
        <path d="M818.4,398.4C818.4,278.4 721.201,180 600,180C478.799,180 381.6,278.398 381.6,398.4C381.6,492.002 441.6,572.4 524.4,603.6L524.4,657.6L578.4,703.202L524.4,748.804L524.4,751.202L578.4,796.804L524.4,842.406L524.4,844.805L578.4,890.407L524.4,936.009L599.998,1020L675.6,939.607L675.6,603.607C758.397,573.607 818.4,493.207 818.4,398.407L818.4,398.4ZM568.8,273.6C585.601,256.799 613.198,256.799 631.198,273.6C647.999,290.401 647.999,317.998 631.198,335.998C614.397,352.799 586.8,352.799 568.8,335.998C551.999,319.197 551.999,290.396 568.8,273.6Z" style="fill:white;fill-rule:nonzero;"/>
    </g>
    <g transform="matrix(3.54206,-3.54206,3.54206,3.54206,-2.90939,73.7545)">
        <g>
            <rect x="11.6" y="4.7" width="11.7" height="6.7" style="fill:white;"/>
        </g>
    </g>
    <g transform="matrix(5.00927,0,0,5.00927,0,0)">
        <g>
            <path d="M9.2,16.5L9.2,14.2L9.3,11.8L13.9,16.4L11.5,16.5L9.2,16.5Z" style="fill:white;fill-rule:nonzero;"/>
        </g>
    </g>
</svg>
