<?xml version="1.0" encoding="iso-8859-1"?>
<!-- Generator: Adobe Illustrator 21.0.2, SVG Export Plug-In . SVG Version: 6.00 Build 0)  -->
<svg version="1.1" xmlns="http://www.w3.org/2000/svg" xmlns:xlink="http://www.w3.org/1999/xlink" x="0px" y="0px"
	 viewBox="0 0 17.321 20" style="enable-background:new 0 0 17.321 20;" xml:space="preserve">
<g id="icon-comms-asset-red">
	<g>
		<polygon style="fill:#F90303;" points="17.321,15 8.66,20 0,15 0,5 8.66,0 17.321,5 		"/>
		<g>
			<g>
				<g>
					<polygon style="fill:#FFFFFF;" points="6.571,9.577 5.365,9.176 5.365,9.175 					"/>
				</g>
				<g>
					<path style="fill:#FFFFFF;" d="M6.571,9.577L5.365,9.175l0.28-0.839l1.206,0.402L6.571,9.577z M7.131,7.9L5.924,7.498l0,0
						l0.28-0.839L7.41,7.061L7.131,7.9L6.527,7.699L7.131,7.9z M6.494,5.792L6.494,5.792"/>
				</g>
				<g>
					<polyline style="fill:#FFFFFF;" points="6.663,5.88 6.483,5.821 7.272,3.455 7.979,5.846 7.797,5.9 					"/>
					<path style="fill:#FFFFFF;" d="M7.227,6.069"/>
				</g>
				<g>
					<path style="fill:#FFFFFF;" d="M8.929,13.547L8.658,12.63l0.557-0.165l0.662-0.199l0,0l-0.609,0.183l0.61-0.18l0.271,0.918
						L8.929,13.547z M8.387,11.712l-0.271-0.918l0.557-0.165l0.661-0.199l0,0l-0.609,0.183l0.61-0.18l0.271,0.918L8.387,11.712z
						 M8.188,8.778l0.604-0.179l0.271,0.918l-1.22,0.361L7.573,8.959l0.61-0.18 M7.302,8.042L7.03,7.124l1.22-0.361l0.271,0.918
						L7.302,8.042z"/>
				</g>
				<g>
					<polyline style="fill:#FFFFFF;" points="10.533,14.488 10.718,14.572 9.815,16.545 9.2,14.465 9.395,14.407 					"/>
					<path style="fill:#FFFFFF;" d="M9.979,14.234"/>
				</g>
				<g>
					<path style="fill:#FFFFFF;" d="M11.045,13.858l-1.156-0.529l0.327-0.714l1.156,0.529L11.045,13.858z M11.12,12.165
						l-0.578-0.265l0.327-0.714l1.156,0.529l-0.327,0.714l-0.567-0.26"/>
				</g>
				<g>
					<polyline style="fill:#FFFFFF;" points="11.969,10.827 11.195,10.472 11.561,9.673 12.44,9.673 12.44,10.524 12.511,10.674 
						12.44,10.807 12.44,10.944 12.378,10.944 12.351,11.001 12.227,10.944 					"/>
				</g>
				<g>
					<polygon style="fill:#FFFFFF;" points="13.366,10.944 13.366,9.673 13.366,9.673 					"/>
				</g>
				<g>
					<path style="fill:#FFFFFF;" d="M15.219,10.944l0-1.272h0V10.944z M14.293,10.944h-0.926V9.673h0.926V10.944z"/>
				</g>
				<g>
					<rect x="15.219" y="9.673" style="fill:#FFFFFF;" width="0.471" height="1.272"/>
				</g>
			</g>
			<polygon style="fill:#FFFFFF;" points="1.63,11.286 6.011,11.286 6.34,10.344 5.54,10.014 1.63,10.014 			"/>
		</g>
	</g>
</g>
<g id="Layer_1">
</g>
</svg>
