<?xml version="1.0" encoding="utf-8"?>
<!-- Generator: Adobe Illustrator 18.1.1, SVG Export Plug-In . SVG Version: 6.00 Build 0)  -->
<svg version="1.1" id="Layer_1" xmlns="http://www.w3.org/2000/svg" xmlns:xlink="http://www.w3.org/1999/xlink" x="0px" y="0px"
	 viewBox="0 0 32 32" enable-background="new 0 0 32 32" xml:space="preserve">
<g>
	<g>
		<circle fill="#FFFFFF" cx="16" cy="16" r="14.4"/>
		<path fill="#57585A" d="M16,32C7.2,32,0,24.8,0,16S7.2,0,16,0c8.8,0,16,7.2,16,16S24.8,32,16,32z M16,3.2C8.9,3.2,3.2,8.9,3.2,16
			c0,7.1,5.7,12.8,12.8,12.8S28.8,23.1,28.8,16C28.8,8.9,23.1,3.2,16,3.2z"/>
	</g>
	<g>
		<path fill="#CC071D" d="M19.6,13.5c0,1.6,0,3.3,0,4.9c0,0.1,0,0.3,0.2,0.3c0.2,0.1,0.5,0,0.5-0.3c0-0.9,0-1.7,0-2.6
			c0-0.7,0.6-1.2,1.3-0.9c0.4,0.1,0.7,0.5,0.7,1c0,1.5,0,3,0,4.5c0,0.4-0.2,0.8-0.4,1.1c-0.8,1.2-1.9,2.1-3.5,2.3
			c-1.4,0.2-2.9,0.2-4.3,0.3c-1.7,0-3.8-1.2-4.2-3.6c-0.1-0.5-0.1-0.9-0.1-1.4c0-2.8,0-5.6,0-8.4c0-0.5,0.3-0.9,0.7-1
			c0.6-0.2,1.2,0.3,1.2,0.9c0,1,0,1.9,0,2.9c0,0.7,0,1.4,0,2.1c0,0.2,0.1,0.3,0.3,0.3c0.2,0,0.4-0.1,0.4-0.3c0-0.6,0-1.3,0-1.9
			c0-2,0-4,0-5.9c0-0.7,0.6-1.2,1.3-1c0.4,0.1,0.7,0.5,0.7,0.9c0,1,0,2.1,0,3.1c0,1.2,0,2.5,0,3.7c0,0.2,0.1,0.4,0.3,0.4
			c0.2,0,0.3-0.1,0.3-0.4c0-2.2,0-4.5,0-6.7c0-0.4,0.2-0.8,0.6-1C16.2,6.4,17,6.9,17,7.7c0,1.2,0,2.3,0,3.5c0,1.1,0,2.2,0,3.3
			c0,0.2,0.1,0.4,0.4,0.4c0.2,0,0.3-0.1,0.3-0.4c0-1.5,0-3.1,0-4.6c0-0.4,0-0.8,0-1.2c0-0.6,0.4-1,1-1c0.6,0,1,0.4,1,1
			C19.6,10.2,19.6,11.9,19.6,13.5z"/>
	</g>
</g>
</svg>
