<?xml version="1.0" encoding="iso-8859-1"?>
<!-- Generator: Adobe Illustrator 21.0.2, SVG Export Plug-In . SVG Version: 6.00 Build 0)  -->
<svg version="1.1" id="Layer_1" xmlns="http://www.w3.org/2000/svg" xmlns:xlink="http://www.w3.org/1999/xlink" x="0px" y="0px"
	 viewBox="0 0 8 16" style="enable-background:new 0 0 8 16;" xml:space="preserve">
<g id="yVLPTP.tif_4_">
	<g>
		<path style="fill:#FFFFFF;" d="M6.911,5.867c0,1.239-0.002,2.478,0.004,3.717c0,0.095,0.038,0.207,0.096,0.281
			c1.736,2.217,0.456,5.581-2.315,6.072c-2.101,0.372-4.056-0.951-4.462-3.043c-0.215-1.107,0.059-2.113,0.715-3.023
			C1.005,9.794,1.044,9.685,1.044,9.59C1.049,7.222,1.05,5.38,1.048,3.012c-0.001-1.465,0.935-2.637,2.363-2.95
			c1.56-0.342,3.222,0.776,3.436,2.355c0.081,0.596,0.054,0.682,0.062,1.286C6.918,4.424,6.911,5.146,6.911,5.867
			C6.911,5.867,6.911,5.867,6.911,5.867z M1.581,8.901c0,0.292-0.004,0.555,0.001,0.818c0.003,0.144-0.036,0.26-0.129,0.377
			c-0.627,0.786-0.875,1.681-0.704,2.673c0.313,1.815,2.098,3.013,3.911,2.641c2.412-0.495,3.433-3.42,1.851-5.312
			C6.412,9.98,6.369,9.862,6.369,9.709C6.373,7.325,6.372,5.466,6.37,3.081c0-0.175-0.004-0.353-0.031-0.526
			C6.166,1.447,5.322,0.654,4.15,0.545C3.18,0.454,2.168,1.004,1.751,2.051c-0.097,0.244-0.17,0.497-0.149,0.79"/>
		<path style="fill:#FFFFFF;" d="M3,7.711c0-0.782-0.001-1.564,0-2.346c0-0.338,0.183-0.522,0.516-0.524
			c0.314-0.002,0.628-0.002,0.942-0.001C4.78,4.84,4.969,5.029,4.969,5.354C4.97,6.901,4.972,8.449,4.966,9.996
			c-0.001,0.155,0.042,0.244,0.175,0.33c0.737,0.478,1.088,1.34,0.915,2.209c-0.16,0.81-0.857,1.486-1.689,1.639
			c-0.991,0.182-1.97-0.361-2.347-1.3c-0.375-0.936-0.039-2.008,0.813-2.551c0.13-0.083,0.171-0.169,0.17-0.316
			C2.997,9.242,3,8.476,3,7.711z"/>
	</g>
</g>
</svg>
