<?xml version="1.0" encoding="iso-8859-1"?>
<!-- Generator: Adobe Illustrator 21.0.2, SVG Export Plug-In . SVG Version: 6.00 Build 0)  -->
<svg version="1.1" id="Layer_1" xmlns="http://www.w3.org/2000/svg" xmlns:xlink="http://www.w3.org/1999/xlink" x="0px" y="0px"
	 viewBox="0 0 26 26" style="enable-background:new 0 0 26 26;" xml:space="preserve">
<g>
	<g>
		<polygon style="fill:#FFFFFF;" points="23.903,6.705 13,0.41 2.097,6.705 2.097,19.295 2.167,19.335 23.903,6.786 		"/>
		<polygon style="fill:#1C1C1C;" points="1.919,19.397 1.919,6.602 13,0.205 24.081,6.602 24.081,6.684 24.258,6.581 24.258,6.5 
			13,0 1.83,6.449 1.742,6.5 1.742,19.5 1.812,19.541 1.99,19.438 		"/>
		<polygon style="fill:#1C1C1C;" points="13,0.205 1.919,6.602 1.919,19.397 1.99,19.438 2.167,19.335 2.097,19.295 2.097,6.705 
			13,0.41 23.903,6.705 23.903,6.786 24.081,6.684 24.081,6.602 		"/>
		<polygon style="fill:#B4B4B4;" points="23.903,19.295 23.903,6.705 2.097,19.295 13,25.59 		"/>
		<polygon style="fill:#1C1C1C;" points="24.17,19.551 24.258,19.5 24.258,6.581 24.081,6.684 24.081,19.397 13,25.795 1.99,19.438 
			1.812,19.541 13,26 		"/>
		<polygon style="fill:#1C1C1C;" points="23.903,19.295 13,25.59 2.167,19.335 1.99,19.438 13,25.795 24.081,19.397 24.081,6.684 
			23.903,6.786 		"/>
	</g>
	<g>
		<polygon style="fill:#010101;" points="14.909,21.896 11.366,9.758 9.944,14.594 4.406,14.594 4.406,12.518 8.661,12.518 
			11.412,3.546 15.215,16.672 17.074,12.172 22.396,12.172 22.396,13.902 18.224,13.902 		"/>
	</g>
</g>
</svg>
