<?xml version="1.0" encoding="utf-8"?>
<!-- Generator: Adobe Illustrator 20.0.0, SVG Export Plug-In . SVG Version: 6.00 Build 0)  -->
<svg version="1.1" id="Layer_1" xmlns="http://www.w3.org/2000/svg" xmlns:xlink="http://www.w3.org/1999/xlink" x="0px" y="0px"
	 viewBox="0 0 24 24" enable-background="new 0 0 24 24" xml:space="preserve">
<g>
	<path fill="#FF7900" d="M23.6,20.9l-3.5-6.6c-0.9-1.6-2.3-4.2-3.1-5.8l-3.5-6.5c-0.9-1.6-2.3-1.6-3.1,0L7,8.4
		c-0.9,1.6-2.3,4.2-3.1,5.8l-3.5,6.6C-0.5,22.5,0.3,24,2.1,24h6.6c1.8,0,4.8,0,6.6,0h6.6C23.7,24,24.5,22.5,23.6,20.9z"/>
	<g>
		<path fill="#FFFFFF" d="M16.7,17.7C16,17.7,16,17.2,16,17c0-2.7-0.8-5.1-2.5-5.9c-0.2-0.9-0.8-1.9-1.5-1.9c-0.7,0-1.3,1.1-1.5,1.9
			C8.8,11.9,8,14.2,8,17c0,0.2,0,0.7-0.7,0.7H6.5v1.6h10.9v-1.6H16.7z"/>
		<g>
			<path fill="#FFFFFF" d="M12,21.6c0.9,0,1.6-0.7,1.6-1.6h-3.1C10.4,20.9,11.1,21.6,12,21.6z"/>
			<path fill="#FFFFFF" d="M13.3,19.2c-0.3-0.5-0.8-0.8-1.3-0.8c-0.6,0-1.1,0.3-1.3,0.8H13.3z"/>
		</g>
	</g>
</g>
</svg>
