<?xml version="1.0" encoding="utf-8"?>
<!-- Generator: Adobe Illustrator 21.0.2, SVG Export Plug-In . SVG Version: 6.00 Build 0)  -->
<svg version="1.1" id="Layer_1" xmlns="http://www.w3.org/2000/svg" xmlns:xlink="http://www.w3.org/1999/xlink" x="0px" y="0px"
	 viewBox="0 0 20 20" enable-background="new 0 0 20 20" xml:space="preserve">
<g>
	<path fill="#FFFFFF" d="M9.7,20H7.1c0-1.9-0.8-4.4-2.1-5.7C3.6,13,1.9,12.2,0,12.2V9.6c5.3,0.1,9.6,4.4,9.7,9.7V20z"/>
	<path fill="#FFFFFF" d="M14.8,20h-2.6C12.1,13.3,6.7,7.9,0,7.8V5.2C8.1,5.3,14.7,11.9,14.8,20L14.8,20z"/>
	<path fill="#FFFFFF" d="M20,19.5h-3.5c-0.1-8.8-7.2-16-16.1-16.1V0C11.2,0.1,19.9,8.8,20,19.5L20,19.5z"/>
</g>
</svg>
