<?xml version="1.0" encoding="iso-8859-1"?>
<!-- Generator: Adobe Illustrator 21.0.2, SVG Export Plug-In . SVG Version: 6.00 Build 0)  -->
<svg version="1.1" id="Layer_1" xmlns="http://www.w3.org/2000/svg" xmlns:xlink="http://www.w3.org/1999/xlink" x="0px" y="0px"
	 viewBox="0 0 40 40" style="enable-background:new 0 0 40 40;" xml:space="preserve">
<g>
	<g id="oETfgs.tif_72_">
		<g>
			<g>
				<path style="fill:#676767;" d="M21.936,40l-0.03-0.24c-0.1-0.801-0.354-1.274-0.826-1.534c-0.355-0.196-0.736-0.31-1.044-0.312
					c-0.007,0-0.014,0-0.021,0c-0.987,0-1.551,0.536-1.886,1.788l-0.044,0.164l-0.169,0.004c-0.841,0.021-1.668-0.128-2.46-0.438
					c-0.221-0.086-0.281-0.428-0.262-0.584c0.062-0.521-0.103-1.028-0.463-1.427c-0.406-0.451-1.008-0.705-1.649-0.69
					c-0.704,0.013-1.176,0.383-1.486,1.165l-0.093,0.235l-0.574-0.302c-0.271-0.142-0.538-0.281-0.801-0.427
					c-0.258-0.142-0.512-0.291-0.776-0.445L8.807,36.64l0.108-0.195c0.394-0.715,0.476-1.309,0.261-1.867
					c-0.137-0.354-0.356-0.675-0.587-0.857c-0.98-0.773-2.001-0.352-2.686,0.139l-0.164,0.117l-2.038-2.269l0.195-0.15
					c0.606-0.466,0.917-1.025,0.922-1.66c0.004-0.408-0.091-0.817-0.253-1.094C4.092,28,3.197,27.766,2.041,28.143l-0.199,0.065
					L0.675,25.36l0.251-0.066c0.769-0.201,1.206-0.548,1.377-1.092c0.14-0.446,0.19-0.897,0.14-1.27
					c-0.103-0.776-0.864-1.302-2.089-1.442l-0.156-0.018L0.16,21.32c-0.199-0.803-0.213-1.623-0.041-2.439
					c0.066-0.313,0.573-0.422,0.578-0.424c0.91-0.19,1.447-0.597,1.69-1.283c0.257-0.725,0.135-1.387-0.353-1.913
					c-0.176-0.19-0.407-0.348-0.674-0.531c-0.139-0.095-0.287-0.197-0.443-0.312l-0.14-0.104l1.055-2.663l0.205,0.074
					c0.807,0.289,1.35,0.28,1.816-0.031c0.273-0.182,0.639-0.474,0.828-0.832c0.416-0.791,0.129-1.706-0.77-2.448L3.736,8.269
					l2.014-2.43l0.175,0.168c0.55,0.528,1.051,0.721,1.58,0.608C7.947,6.52,8.38,6.324,8.694,6.077
					C9.388,5.529,9.476,4.673,8.956,3.53L8.871,3.342l2.542-1.471l0.109,0.21c0.319,0.613,0.714,0.95,1.28,1.093
					c0.59,0.149,1.237-0.015,1.731-0.439c0.5-0.429,0.766-1.056,0.71-1.676c-0.018-0.202,0.14-0.552,0.371-0.603
					c0.56-0.123,1.13-0.226,1.682-0.325l0.699-0.127l0.065,0.181c0.51,1.416,1.052,1.849,2.237,1.785
					c0.814-0.045,1.417-0.684,1.656-1.753L22,0l0.707,0.133c0.581,0.108,1.181,0.22,1.77,0.349c0.252,0.056,0.33,0.438,0.328,0.563
					c-0.014,0.922,0.558,1.854,1.302,2.121c0.815,0.293,1.785-0.016,2.359-0.751c0.249-0.319,0.511-0.369,0.85-0.162
					c0.468,0.287,0.956,0.572,1.492,0.871c0.326,0.183,0.403,0.426,0.242,0.765c-0.408,0.858-0.272,1.658,0.373,2.194
					c0.896,0.744,1.595,0.792,2.494,0.17c0.152-0.105,0.486-0.145,0.638,0.016c0.412,0.437,0.804,0.879,1.22,1.346l0.522,0.586
					l-0.186,0.15c-0.955,0.771-1.147,1.603-0.603,2.618c0.465,0.868,1.085,1.071,2.657,0.871l0.185-0.024l0.218,0.658
					c0.174,0.52,0.353,1.059,0.509,1.6c0.073,0.255-0.231,0.53-0.35,0.601c-0.734,0.439-1.114,0.98-1.195,1.702
					c-0.116,1.039,0.864,1.957,1.819,2.085c0.335,0.045,0.674,0.167,0.649,0.734c-0.026,0.579-0.015,1.171-0.001,1.728
					c0.009,0.38-0.167,0.565-0.554,0.582c-0.842,0.038-1.747,0.756-1.899,1.506c-0.167,0.825,0.37,1.801,1.198,2.175
					c0.155,0.07,0.517,0.234,0.337,0.723c-0.098,0.267-0.188,0.536-0.279,0.805c-0.105,0.314-0.214,0.639-0.335,0.956
					c-0.076,0.2-0.37,0.372-0.573,0.333c-1.248-0.236-1.907,0.036-2.431,1.005c-0.375,0.693-0.299,1.802,0.582,2.493
					c0.049,0.039,0.072,0.082,0.095,0.123c0.009,0.017,0.021,0.038,0.039,0.068l0.088,0.147l-1.948,2.105l-0.161-0.112
					c-1.058-0.734-1.875-0.74-2.73-0.018c-0.686,0.579-0.737,1.407-0.163,2.607l0.092,0.193l-2.599,1.454l-0.116-0.174
					c-0.708-1.066-1.375-1.382-2.309-1.092c-1.113,0.347-1.486,0.965-1.48,2.45l0.001,0.189L21.936,40z M20.016,37.459
					c0.008,0,0.016,0,0.025,0c0.521,0.004,1.012,0.233,1.258,0.368c0.691,0.381,0.924,1.071,1.022,1.637l2.082-0.397
					c0.031-1.544,0.545-2.307,1.797-2.696c1.077-0.335,1.916,0.005,2.7,1.101l1.868-1.045c-0.57-1.299-0.448-2.268,0.368-2.957
					c0.967-0.816,1.961-0.856,3.115-0.117l1.438-1.553c-1.003-0.849-1.075-2.17-0.623-3.005c0.612-1.129,1.477-1.5,2.893-1.238
					c0.029-0.009,0.08-0.041,0.095-0.062c0.109-0.292,0.216-0.613,0.321-0.923c0.092-0.273,0.183-0.547,0.283-0.817
					c0.023-0.064,0.023-0.089,0.023-0.093c0.001,0.007-0.024-0.016-0.121-0.059c-1.027-0.464-1.667-1.641-1.456-2.68
					c0.192-0.948,1.277-1.821,2.321-1.869c0.078-0.004,0.109-0.014,0.119-0.018c-0.002-0.003,0.005-0.032,0.003-0.099
					c-0.014-0.565-0.025-1.165,0.001-1.759c0.008-0.195,0.002-0.228-0.257-0.263c-1.164-0.156-2.357-1.256-2.209-2.586
					c0.097-0.863,0.559-1.531,1.413-2.041c0.046-0.028,0.106-0.094,0.133-0.136c-0.15-0.515-0.322-1.032-0.488-1.531l-0.101-0.305
					c-1.634,0.182-2.384-0.114-2.928-1.129c-0.61-1.139-0.43-2.158,0.537-3.032l-0.209-0.234c-0.402-0.452-0.783-0.88-1.178-1.302
					c-0.028,0-0.073,0.006-0.091,0.015c-1.068,0.738-1.977,0.68-3.033-0.198c-0.807-0.67-0.991-1.694-0.493-2.74
					c0.036-0.076,0.038-0.107,0.038-0.112c0,0.001-0.017-0.018-0.092-0.06c-0.541-0.303-1.034-0.591-1.507-0.88
					c-0.135-0.083-0.147-0.089-0.258,0.054c-0.693,0.887-1.872,1.257-2.868,0.899c-0.93-0.334-1.618-1.432-1.602-2.555
					c0-0.031-0.017-0.089-0.034-0.126c-0.562-0.122-1.137-0.229-1.694-0.333l-0.284-0.053c-0.319,1.139-1.062,1.842-2.019,1.895
					c-1.333,0.073-2.056-0.446-2.62-1.904l-0.326,0.059c-0.535,0.096-1.087,0.196-1.626,0.313c-0.025,0.034-0.054,0.101-0.055,0.131
					c0.069,0.762-0.255,1.533-0.867,2.058c-0.605,0.52-1.403,0.72-2.135,0.535c-0.624-0.158-1.091-0.515-1.454-1.117L9.45,3.531
					c0.645,1.572,0.105,2.444-0.477,2.903C8.602,6.727,8.114,6.949,7.599,7.059C6.983,7.191,6.39,7.008,5.792,6.499L4.371,8.213
					c0.939,0.864,1.206,1.92,0.71,2.861c-0.233,0.443-0.66,0.787-0.978,0.999c-0.677,0.451-1.409,0.342-2.011,0.15l-0.766,1.932
					c0.1,0.071,0.196,0.137,0.288,0.2c0.29,0.198,0.54,0.369,0.751,0.597c0.602,0.649,0.761,1.492,0.448,2.375
					c-0.297,0.838-0.959,1.353-2.024,1.575c-0.092,0.019-0.195,0.071-0.233,0.103c-0.14,0.687-0.137,1.378,0.009,2.055
					c1.336,0.195,2.201,0.865,2.327,1.812c0.058,0.438,0.002,0.958-0.157,1.466c-0.198,0.633-0.673,1.067-1.447,1.322l0.815,1.99
					c1.266-0.35,2.298-0.019,2.85,0.923c0.205,0.35,0.32,0.834,0.316,1.328c-0.006,0.711-0.312,1.336-0.91,1.861l1.448,1.612
					c1.09-0.708,2.171-0.714,3.061-0.012c0.296,0.234,0.562,0.617,0.73,1.05c0.243,0.629,0.183,1.303-0.184,2.054l0.167,0.097
					c0.261,0.152,0.512,0.299,0.767,0.44c0.26,0.144,0.524,0.282,0.792,0.421l0.139,0.073c0.384-0.795,0.987-1.206,1.797-1.221
					c0.761-0.015,1.499,0.291,1.993,0.839c0.449,0.498,0.654,1.132,0.577,1.786c-0.003,0.028,0.009,0.088,0.023,0.125
					c0.671,0.256,1.367,0.387,2.074,0.391C18.139,38.083,18.866,37.459,20.016,37.459z M15.761,0.876L15.761,0.876L15.761,0.876z
					 M19.957,35.122c-0.011,0-0.021,0-0.032,0c-4-0.009-7.738-1.571-10.526-4.399c-2.787-2.827-4.319-6.609-4.312-10.649
					c0.006-4.001,1.589-7.757,4.457-10.579c2.892-2.845,6.703-4.365,10.728-4.292c8.165,0.157,14.694,6.991,14.552,15.235
					C34.686,28.541,28.02,35.121,19.957,35.122z M19.981,5.655c-3.799,0-7.383,1.473-10.12,4.165
					c-2.78,2.735-4.315,6.377-4.321,10.255c-0.006,3.919,1.479,7.587,4.181,10.329s6.327,4.256,10.205,4.264c0.01,0,0.021,0,0.031,0
					c7.818,0.001,14.281-6.38,14.416-14.237c0.137-7.994-6.192-14.621-14.109-14.773C20.17,5.656,20.075,5.655,19.981,5.655z"/>
			</g>
		</g>
	</g>
	<g>
		<path style="fill:#676767;" d="M27.086,12.599c0,0-2.932,2.94-6.073,3.361c-0.339,0.927-0.517,1.9-0.517,2.901
			s0.178,1.974,0.517,2.901c3.141,0.421,6.073,3.361,6.073,3.361C29.354,21.708,29.354,16.015,27.086,12.599z"/>
		<path style="fill:#676767;" d="M19.15,25.124c-0.588-0.591-0.868-2.099-0.846-3.416h0.846c0-1.081,0-2.652,0-3.416
			c0-0.649,0-1.558,0-2.277c-2.377,0-5.669,0-5.669,0c-1.252,0-2.268,1.275-2.268,2.847c0,1.571,1.015,2.847,2.268,2.847h1.641
			c0.302,0.738,0.627,1.667,0.627,2.277c0,1.139,1.134,3.416,2.268,3.416S20.283,26.262,19.15,25.124z M13.481,20.569
			c-0.627,0-1.134-0.638-1.134-1.423c0-0.785,0.507-1.423,1.134-1.423V20.569z"/>
	</g>
</g>
</svg>
