<?xml version="1.0" encoding="utf-8"?>
<!-- Generator: Adobe Illustrator 21.0.2, SVG Export Plug-In . SVG Version: 6.00 Build 0)  -->
<svg version="1.1" id="Layer_1" xmlns="http://www.w3.org/2000/svg" xmlns:xlink="http://www.w3.org/1999/xlink" x="0px" y="0px"
	 viewBox="0 0 38 28" style="enable-background:new 0 0 38 28;" xml:space="preserve">
<style type="text/css">
	.st0{fill:#636363;}
</style>
<g id="_x37_Eu1sB.tif_4_">
	<g>
		<path class="st0" d="M6.7,14.1c1.8,1.8,3.5,3.5,5.2,5.2c1.3,1.3,2.5,2.6,3.8,3.9c1.2,1.2,1.3,3,0.2,4.1c-1.1,1.1-3,1-4.1-0.1
			C8.2,23.5,4.6,19.8,1,16.2c-1.3-1.3-1.3-2.9,0-4.2C4.6,8.3,8.2,4.6,11.8,1c1.2-1.2,2.9-1.3,4-0.2C17,2,16.9,3.7,15.7,4.9
			c-2.8,2.9-5.7,5.7-8.5,8.6C7.1,13.7,6.9,13.9,6.7,14.1z"/>
		<path class="st0" d="M23.1,15.2c0,1.6-1.2,2.8-2.8,2.8c-1.5,0-2.8-1.2-2.8-2.8c0-1.6,1.2-2.8,2.8-2.8
			C21.9,12.4,23.1,13.7,23.1,15.2z"/>
		<path class="st0" d="M35.2,12.4c1.5,0,2.8,1.3,2.8,2.8c0,1.6-1.3,2.8-2.8,2.8c-1.5,0-2.8-1.3-2.7-2.8
			C32.5,13.7,33.7,12.4,35.2,12.4z"/>
		<path class="st0" d="M27.7,12.4c1.5,0,2.8,1.2,2.8,2.8c0,1.6-1.2,2.8-2.8,2.8c-1.5,0-2.8-1.2-2.8-2.8C25,13.7,26.2,12.4,27.7,12.4
			z"/>
	</g>
</g>
</svg>
