<?xml version="1.0" encoding="utf-8"?>
<!-- Generator: Adobe Illustrator 21.0.2, SVG Export Plug-In . SVG Version: 6.00 Build 0)  -->
<svg version="1.1" id="Layer_2" xmlns="http://www.w3.org/2000/svg" xmlns:xlink="http://www.w3.org/1999/xlink" x="0px" y="0px"
	 viewBox="0 0 82.2 82.2" style="enable-background:new 0 0 82.2 82.2;" xml:space="preserve">
<style type="text/css">
	.st0{fill:#FFFFFF;}
</style>
<g>
	<path class="st0" d="M44.3,56.3l-11,11c-4.1,4.1-10.9,4.1-15,0L13,61.9c-4.1-4.1-4.1-10.9,0-15l11.1-11.1c0.1-0.1,0.2-0.1,0.2,0
		l19.9,19.9C44.4,55.8,44.4,56.1,44.3,56.3z"/>
	<rect x="2.4" y="66.3" transform="matrix(0.7071 -0.7071 0.7071 0.7071 -45.8317 27.9959)" class="st0" width="16.9" height="6"/>
	<path class="st0" d="M39,36.9l-8.5,8.5l-3.7-3.7l8.5-8.5c1-1,2.7-1,3.7,0l0,0C40,34.2,40,35.9,39,36.9z"/>
	<path class="st0" d="M47,44.9l-8.5,8.5l-3.7-3.7l8.5-8.5c1-1,2.7-1,3.7,0l0,0C48,42.3,48,43.9,47,44.9z"/>
	<g>
		<path class="st0" d="M35.9,23.9l11-11c4.1-4.1,10.9-4.1,15,0l5.3,5.3c4.1,4.1,4.1,10.9,0,15L56.1,44.4c-0.1,0.1-0.2,0.1-0.2,0
			L35.9,24.5C35.8,24.4,35.8,24.1,35.9,23.9z"/>
		
			<rect x="60.8" y="7.9" transform="matrix(-0.7071 0.7071 -0.7071 -0.7071 126.0316 -30.4478)" class="st0" width="16.9" height="6"/>
	</g>
</g>
</svg>
