<?xml version="1.0" encoding="utf-8"?>
<!-- Generator: Adobe Illustrator 18.1.1, SVG Export Plug-In . SVG Version: 6.00 Build 0)  -->
<svg version="1.1" id="Layer_1" xmlns="http://www.w3.org/2000/svg" xmlns:xlink="http://www.w3.org/1999/xlink" x="0px" y="0px"
	 viewBox="0 0 32 32" enable-background="new 0 0 32 32" xml:space="preserve">
<g>
	<g>
		<circle fill="#FFFFFF" cx="16" cy="16" r="14.4"/>
		<path fill="#57585A" d="M16,32C7.2,32,0,24.8,0,16S7.2,0,16,0c8.8,0,16,7.2,16,16S24.8,32,16,32z M16,3.2C8.9,3.2,3.2,8.9,3.2,16
			c0,7.1,5.7,12.8,12.8,12.8S28.8,23.1,28.8,16C28.8,8.9,23.1,3.2,16,3.2z"/>
	</g>
	<g>
		<path fill="#00509D" d="M21.2,9.2c-0.4,3.2-1.4,5.1-3.5,6.8c2.3,1.7,3.2,4.2,3.6,6.9c0.1,0,0.2,0,0.3,0c0.2,0,0.3,0.1,0.3,0.4
			c0,0,0,0,0,0c0.1,0.8,0,0.9-0.8,0.9c-3.4,0-6.7,0-10.1,0c-0.6,0-0.9-0.6-0.6-1.1c0.1-0.1,0.4-0.2,0.6-0.3c0.3-2.7,1.3-5.1,3.5-6.9
			c-2.3-1.7-3.2-4.2-3.5-6.9c-0.1,0-0.1,0-0.2,0c-0.1,0-0.1,0-0.2,0c-0.4-0.2-0.2-0.6-0.2-0.9c0-0.2,0.2-0.3,0.4-0.3
			c0.1,0,0.1,0,0.2,0c3.4,0,6.9,0,10.3,0c0.2,0,0.5,0.1,0.6,0.2c0.1,0.3,0.1,0.6,0,0.9C21.7,9,21.4,9.1,21.2,9.2z M20.3,9.1
			c-2.9,0-5.7,0-8.5,0c0,0.1,0,0.1,0,0.1c0,0.1,0,0.1,0,0.2c0.2,1.8,0.8,3.4,1.9,4.8c0.3,0.4,0.7,0.7,1.1,1c0.8,0.5,1.6,0.5,2.4,0
			c0.4-0.3,0.8-0.7,1.1-1.1c0.8-1,1.4-2.2,1.7-3.4C20.2,10.2,20.2,9.7,20.3,9.1z M11.7,23c2.9,0,5.7,0,8.5,0c0-0.1,0-0.1,0-0.1
			c0-0.1,0-0.1,0-0.2c-0.2-1.8-0.8-3.4-1.9-4.7c-0.4-0.5-0.9-0.9-1.4-1.2c-0.6-0.4-1.3-0.4-1.9,0c-0.4,0.3-0.8,0.6-1.2,1
			c-0.9,1-1.4,2.1-1.8,3.4C11.9,21.7,11.8,22.3,11.7,23z"/>
	</g>
	<g>
		<path fill="#00509D" d="M18.5,12.9c-0.2,0.3-0.3,0.6-0.4,0.9c-0.5,0.7-1.2,1.1-1.9,1.5c-0.1,0-0.2,0-0.2,0
			c-0.7-0.4-1.4-0.8-1.9-1.5c-0.2-0.3-0.3-0.6-0.5-0.9C15.2,12.9,16.8,12.9,18.5,12.9z"/>
	</g>
	<g>
		<path fill="#00509D" d="M16,18.2c1.5,1.3,3.1,2.5,3.9,4.4c-2.6,0-5.2,0-7.8,0c0.1-0.3,0.2-0.5,0.4-0.8c0.4-0.6,0.9-1.2,1.4-1.7
			C14.6,19.4,15.3,18.8,16,18.2z"/>
	</g>
</g>
</svg>
