<?xml version="1.0" encoding="utf-8"?>
<!-- Generator: Adobe Illustrator 20.0.0, SVG Export Plug-In . SVG Version: 6.00 Build 0)  -->
<svg version="1.1" xmlns="http://www.w3.org/2000/svg" xmlns:xlink="http://www.w3.org/1999/xlink" x="0px" y="0px"
	 viewBox="0 0 150 150" enable-background="new 0 0 150 150" xml:space="preserve">
<g id="Layer_1" display="none">
	<g display="inline">
		<polygon fill="#212121" points="74.8,72 11.1,32.6 75,0.8 138.8,32.6 		"/>
		<polygon fill="#212121" points="77.5,149.3 77.5,77.3 142.4,37.6 142.4,110.3 		"/>
		<polygon fill="#212121" points="71.9,149.3 7.6,110.1 7.6,38.2 71.9,77 		"/>
	</g>
</g>
<g id="Layer_2">
	<g>
		<g>
			<path fill="#212121" d="M75,150c-41.3,0-75-33.6-75-75c0-41.3,33.6-75,75-75c41.3,0,75,33.6,75,75C149.9,116.4,116.3,150,75,150z
				 M75,4.2C35.9,4.2,4.1,36,4.1,75s31.8,70.9,70.9,70.9s70.9-31.8,70.9-70.9S114,4.2,75,4.2z"/>
		</g>
		<g>
			<g>
				<polygon fill="#212121" points="73.1,42.4 51.7,29.2 73.2,18.5 94.6,29.2 				"/>
			</g>
			<g>
				<polygon fill="#212121" points="74,68.4 74,44.2 95.8,30.8 95.8,55.3 				"/>
			</g>
			<g>
				<polygon fill="#212121" points="72.1,68.4 50.6,55.2 50.6,31 72.1,44.1 				"/>
			</g>
		</g>
		<g>
			<g>
				<polygon fill="#212121" points="44.4,97.8 23,84.5 44.5,73.9 65.9,84.5 				"/>
			</g>
			<g>
				<polygon fill="#212121" points="45.3,123.7 45.3,99.6 67.1,86.2 67.1,110.6 				"/>
			</g>
			<g>
				<polygon fill="#212121" points="43.4,123.7 21.8,110.6 21.8,86.4 43.4,99.4 				"/>
			</g>
		</g>
		<g>
			<g>
				<polygon fill="#212121" points="103.9,97.8 82.5,84.5 103.9,73.9 125.4,84.5 				"/>
			</g>
			<g>
				<polygon fill="#212121" points="104.8,123.7 104.8,99.6 126.6,86.2 126.6,110.6 				"/>
			</g>
			<g>
				<polygon fill="#212121" points="102.9,123.7 81.3,110.6 81.3,86.4 102.9,99.4 				"/>
			</g>
		</g>
	</g>
</g>
</svg>
