<?xml version="1.0" encoding="utf-8"?>
<!-- Generator: Adobe Illustrator 21.0.2, SVG Export Plug-In . SVG Version: 6.00 Build 0)  -->
<svg version="1.1" id="Layer_1" xmlns="http://www.w3.org/2000/svg" xmlns:xlink="http://www.w3.org/1999/xlink" x="0px" y="0px"
	 viewBox="0 0 38 28" style="enable-background:new 0 0 38 28;" xml:space="preserve">
<style type="text/css">
	.st0{fill:#636363;}
</style>
<g id="_x37_Eu1sB.tif_4_">
	<g>
		<path class="st0" d="M31.3,14.1c-1.8,1.8-3.5,3.5-5.2,5.2c-1.3,1.3-2.5,2.6-3.8,3.9c-1.2,1.2-1.3,3-0.2,4.1c1.1,1.1,3,1,4.1-0.1
			c3.6-3.6,7.2-7.3,10.8-10.9c1.3-1.3,1.3-2.9,0-4.2c-3.6-3.7-7.2-7.3-10.9-11c-1.2-1.2-2.9-1.3-4-0.2C21,2,21.1,3.7,22.3,4.9
			c2.8,2.9,5.7,5.7,8.5,8.6C30.9,13.7,31.1,13.9,31.3,14.1z"/>
		<path class="st0" d="M14.9,15.2c0,1.6,1.2,2.8,2.8,2.8c1.5,0,2.8-1.2,2.8-2.8c0-1.6-1.2-2.8-2.8-2.8
			C16.1,12.4,14.9,13.7,14.9,15.2z"/>
		<path class="st0" d="M2.8,12.4c-1.5,0-2.8,1.3-2.8,2.8C0,16.8,1.3,18,2.8,18c1.5,0,2.8-1.3,2.7-2.8C5.5,13.7,4.3,12.4,2.8,12.4z"
			/>
		<path class="st0" d="M10.3,12.4c-1.5,0-2.8,1.2-2.8,2.8c0,1.6,1.2,2.8,2.8,2.8c1.5,0,2.8-1.2,2.8-2.8C13,13.7,11.8,12.4,10.3,12.4
			z"/>
	</g>
</g>
</svg>
