<?xml version="1.0" encoding="utf-8"?>
<svg version="1.1" id="Layer_1" xmlns="http://www.w3.org/2000/svg" xmlns:xlink="http://www.w3.org/1999/xlink" x="0px" y="0px"
	 viewBox="20 20 33 33" enable-background="new 0 0 70 70" xml:space="preserve">
<g id="rXVgY2.tif_1_">
	<g>
		<g>
			<path fill="#ffffff" d="M21.8,26.1c0.3-1.3,1.3-2,2.4-2.7c0.1-0.1,0.3-0.2,0.3-0.3c0.6-0.9,1.8-1.2,2.7-0.6
				c0.9,0.6,1.1,1.9,0.5,2.7c-0.6,0.9-1.9,1.1-2.8,0.5c-0.2-0.1-0.2-0.1-0.4,0c-0.5,0.3-0.7,0.7-0.5,1.4c0.5,2.3,1.1,4.6,2,6.8
				c0.6,1.3,1.2,2.5,2.3,3.5c0.7,0.6,1.4,1,2.3,0.9c0.7-0.1,1.3-0.4,1.9-0.9c0.8-0.7,1.3-1.6,1.8-2.5c1.2-2.3,1.9-4.8,2.4-7.3
				c0.1-0.3,0.1-0.7,0.2-1c0-0.2,0-0.4-0.2-0.5c-0.1-0.1-0.1-0.1-0.2-0.2c-0.4-0.3-0.4-0.3-0.8-0.1c-0.9,0.5-2,0.3-2.6-0.6
				c-0.6-0.8-0.4-1.9,0.3-2.6c0.8-0.7,1.9-0.7,2.7,0c0,0,0,0,0.1,0.1c0.3,0.5,0.8,0.7,1.3,1.1c0.4,0.3,0.8,0.7,1.2,1.1
				c0.5,0.6,0.5,1.3,0.4,2c-0.5,3.1-1.4,6.1-2.8,8.9c-0.7,1.3-1.5,2.5-2.7,3.5c0,0-0.1,0.1-0.1,0.1c-0.6,0.3-0.9,0.8-1.1,1.5
				c-0.1,0.5-0.4,0.9-0.7,1.3c0,0.1-0.1,0.2-0.1,0.3c0.2,1.6,0.7,3,1.9,4.2c0.9,0.8,1.9,1.2,3.1,1.4c1.5,0.2,2.9,0.1,4.3-0.4
				c1.9-0.7,2.9-2.1,3.4-4c0,0,0-0.1,0-0.1c-0.6-0.2-1.2-0.5-1.7-1c-1.3-1.2-1.7-3-1.2-4.6c0.6-1.7,2.1-2.8,3.8-2.9
				c2.3-0.2,4.3,1.4,4.6,3.7c0,0.1,0,0.1,0.1,0.2c0,0.3,0,0.5,0,0.8c0,0.1,0,0.2-0.1,0.2c-0.3,1.8-1.4,3-3.1,3.6
				c-0.2,0.1-0.2,0.1-0.3,0.3c-0.2,1-0.5,1.9-1.1,2.8c-1.3,2-3.2,3.1-5.5,3.5c-0.4,0.1-0.8,0.1-1.2,0.2c-0.5,0-0.9,0-1.4,0
				c-0.4-0.1-0.9-0.1-1.3-0.2c-1.8-0.3-3.3-1-4.5-2.4c-1.2-1.3-1.8-2.9-2.1-4.6c0-0.3,0-0.6-0.2-0.8c-0.5-0.7-0.9-1.4-1.1-2.3
				c0-0.1-0.1-0.2-0.1-0.2C27,39.2,26,38.1,25.3,37c-1.5-2.5-2.4-5.2-3-8c-0.2-0.8-0.3-1.6-0.4-2.4C21.8,26.4,21.8,26.3,21.8,26.1z
				 M45.7,41.6c1.2,0,2.2-0.9,2.2-2.2c0-1.2-1-2.2-2.2-2.2c-1.2,0-2.2,0.9-2.2,2.1C43.5,40.6,44.5,41.5,45.7,41.6z"/>
		</g>
		<g>
			<path fill="#ffffff" d="M44.6,39.4c0-0.6,0.5-1.1,1.1-1.1c0.6,0,1.1,0.5,1.1,1.1c0,0.6-0.5,1.1-1.1,1.1
				C45.1,40.5,44.6,40,44.6,39.4z"/>
		</g>
	</g>
</g>
</svg>
