<?xml version="1.0" encoding="utf-8"?>
<!-- Generator: Adobe Illustrator 20.0.0, SVG Export Plug-In . SVG Version: 6.00 Build 0)  -->
<svg version="1.1" id="Layer_1" xmlns="http://www.w3.org/2000/svg" xmlns:xlink="http://www.w3.org/1999/xlink" x="0px" y="0px"
	 viewBox="0 0 150 150" enable-background="new 0 0 150 150" xml:space="preserve">
<g>
	<g>
		<polygon fill="#212121" points="55.6,76.3 2.9,43.7 55.7,17.4 108.5,43.7 		"/>
		<polygon fill="#212121" points="57.8,140.2 57.8,80.7 111.4,47.8 111.4,107.9 		"/>
		<polygon fill="#212121" points="53.1,140.2 0,107.8 0,48.3 53.1,80.4 		"/>
	</g>
	<g>
		<path fill="#39C6E4" d="M149.2,48.4l-34.1,34.1c-1,1-2.7,1-3.7,0L77.3,48.4c-1-1-1-2.7,0-3.7l34.1-34.1c1-1,2.7-1,3.7,0l34.1,34.1
			C150.3,45.7,150.3,47.4,149.2,48.4z"/>
		<g>
			<g>
				<path fill="#FFFFFF" d="M104.2,40.7v-4.5c2.1-0.1,3.6-0.2,4.4-0.4c1.3-0.3,2.4-0.9,3.3-1.8c0.6-0.6,1-1.4,1.3-2.4
					c0.2-0.6,0.3-1.1,0.3-1.4h5.6v33.8h-6.8V40.7H104.2z"/>
			</g>
		</g>
	</g>
</g>
</svg>
