<?xml version="1.0" encoding="utf-8"?>
<!-- Generator: Adobe Illustrator 21.0.2, SVG Export Plug-In . SVG Version: 6.00 Build 0)  -->
<svg version="1.1" id="Layer_2" xmlns="http://www.w3.org/2000/svg" xmlns:xlink="http://www.w3.org/1999/xlink" x="0px" y="0px"
	 viewBox="5 0 85 82.2" style="enable-background:new 0 0 82.2 82.2;" xml:space="preserve">
<style type="text/css">
	.st0{fill:#FFFFFF;}
</style>
<g>
	
		<rect x="12" y="6" class="st0" width="10" height="10"/>
		<rect x="12" y="26" class="st0" width="10" height="10"/>
		<!--<rect x="12" y="46" class="st0" width="10" height="10"/>-->
		<rect x="12" y="66" class="st0" width="10" height="10"/>
	
		<rect x="32" y="6" class="st0" width="10" height="10"/>
		<rect x="32" y="26" class="st0" width="10" height="10"/>
		<rect x="32" y="46" class="st0" width="10" height="10"/>
		<!--<rect x="32" y="66" class="st0" width="10" height="10"/>-->
	
		<rect x="52" y="6" class="st0" width="10" height="10"/>
		<rect x="52" y="26" class="st0" width="10" height="10"/>
		<rect x="52" y="46" class="st0" width="10" height="10"/>
		<rect x="52" y="66" class="st0" width="10" height="10"/>
	
		<rect x="72" y="6" class="st0" width="10" height="10"/>
		<!--<rect x="72" y="26" class="st0" width="10" height="10"/>-->
		<rect x="72" y="46" class="st0" width="10" height="10"/>
		<rect x="72" y="66" class="st0" width="10" height="10"/>

<!--
xxxx
xxx 
 xxx
x xx
-->

</g>
</svg>