<?xml version="1.0" encoding="utf-8"?>
<!-- Generator: Adobe Illustrator 21.0.2, SVG Export Plug-In . SVG Version: 6.00 Build 0)  -->
<svg version="1.1" id="Layer_1" xmlns="http://www.w3.org/2000/svg" xmlns:xlink="http://www.w3.org/1999/xlink" x="0px" y="0px"
	 viewBox="0 0 20 23" enable-background="new 0 0 20 23" xml:space="preserve">
<g>
	<g>
		<path fill="#FFFFFF" d="M18.6,15.8c-1.2,0-1.2-0.9-1.2-1.3c0-5.1-1.5-9.4-4.6-11C12.5,2,11.3,0,10,0C8.7,0,7.5,2,7.2,3.5
			c-3,1.6-4.6,5.9-4.6,11c0,0.4,0,1.3-1.2,1.3H0v2.9h20v-2.9H18.6z"/>
		<g>
			<path fill="#FFFFFF" d="M10,23c1.6,0,2.9-1.3,2.9-2.9H7.1C7.1,21.7,8.4,23,10,23z"/>
			<path fill="#FFFFFF" d="M12.5,18.7c-0.5-0.9-1.4-1.4-2.5-1.4c-1.1,0-2,0.6-2.5,1.4H12.5z"/>
		</g>
	</g>
	<g>
		<polygon fill="#1565C0" points="8.9,15.6 4.4,11.1 5.8,9.7 10.3,14.1 		"/>
		<polygon fill="#1565C0" points="15.5,8.9 9,15.4 7.6,14 14,7.5 		"/>
	</g>
</g>
</svg>
