<?xml version="1.0" encoding="utf-8"?>
<!-- Generator: Adobe Illustrator 21.0.2, SVG Export Plug-In . SVG Version: 6.00 Build 0)  -->
<svg version="1.1" id="Layer_1" xmlns="http://www.w3.org/2000/svg" xmlns:xlink="http://www.w3.org/1999/xlink" x="0px" y="0px"
	 viewBox="0 0 31 20" style="enable-background:new 0 0 31 20;" xml:space="preserve">
<style type="text/css">
	.st0{fill:#CCCCCC;}
	.st1{fill:#666666;}
</style>
<g>
	<g>
		<rect y="13.4" class="st0" width="4.8" height="6.6"/>
	</g>
	<g>
		<rect x="6.6" y="10.5" class="st0" width="4.8" height="9.5"/>
	</g>
	<g>
		<rect x="13.1" y="7.2" class="st0" width="4.8" height="12.8"/>
	</g>
	<g>
		<rect x="19.7" y="3.9" class="st0" width="4.8" height="16.1"/>
	</g>
	<g>
		<rect x="26.2" y="0.6" class="st0" width="4.8" height="19.4"/>
	</g>
	<g>
		<rect y="18.2" class="st1" width="4.8" height="1.8"/>
	</g>
	<g>
		<rect x="6.6" y="18.2" class="st1" width="4.8" height="1.8"/>
	</g>
	<g>
		<rect x="13.1" y="18.2" class="st1" width="4.8" height="1.8"/>
	</g>
	<g>
		<rect x="19.7" y="18.2" class="st1" width="4.8" height="1.8"/>
	</g>
	<g>
		<rect x="26.2" y="18.2" class="st1" width="4.8" height="1.8"/>
	</g>
	<g>
		<path d="M25.2,10.5c0.5-0.4,1-0.7,1-1.3c0-0.6-0.4-1-1.4-1c-0.9,0-1.5,0.4-2,1l-1-1.1c0.7-0.9,1.8-1.4,3.1-1.4
			c1.8,0,2.9,1,2.9,2.2c0,1.2-0.8,1.8-1.5,2.3c-0.5,0.4-1,0.7-1,1.3c0,0.2,0.1,0.5,0.3,0.6l-1.3,0.4c-0.3-0.3-0.5-0.7-0.5-1.2
			C23.9,11.4,24.6,11,25.2,10.5z M24.9,14.6c0.5,0,1,0.5,1,1s-0.5,1-1,1c-0.5,0-1-0.5-1-1S24.4,14.6,24.9,14.6z"/>
	</g>
</g>
</svg>
