<?xml version="1.0" encoding="utf-8"?>
<svg version="1.1" id="Layer_1" xmlns="http://www.w3.org/2000/svg" xmlns:xlink="http://www.w3.org/1999/xlink"
	 x="0px" y="0px" viewBox="21 22 30 29" style="enable-background:new 0 0 70 70;" xml:space="preserve">
<g>
	<g id="MhgNxk.tif_1_">
		<g>
			<path style="fill:#ffffff;" d="M21.32,44.204c0-5.177,0-10.353,0-15.53c0.022-0.053,0.054-0.104,0.065-0.16
				c0.196-0.934,0.781-1.527,1.717-1.642c0.535-0.066,1.082-0.034,1.623-0.043c0.165-0.002,0.246,0.084,0.241,0.256
				c-0.006,0.185-0.003,0.37-0.001,0.554c0.011,1.013,0.774,1.907,1.737,2.036c1.072,0.144,2.043-0.474,2.306-1.508
				c0.085-0.333,0.078-0.692,0.091-1.04c0.008-0.224,0.093-0.305,0.317-0.304c2.354,0.005,4.707,0.005,7.061,0
				c0.232-0.001,0.305,0.089,0.302,0.311c-0.003,0.271,0.006,0.545,0.044,0.813c0.133,0.953,0.942,1.679,1.866,1.742
				c1.08,0.074,1.948-0.649,2.163-1.566c0.074-0.316,0.064-0.655,0.067-0.984c0.002-0.22,0.071-0.322,0.302-0.317
				c0.436,0.009,0.872-0.009,1.307,0.005c1.127,0.038,1.95,0.851,1.99,1.981c0.023,0.641,0.009,1.284,0.009,1.926
				c0,1.634-0.002,3.268,0,4.902c0,0.382,0.053,0.421,0.433,0.467c0.287,0.035,0.575,0.081,0.855,0.152
				c3.659,0.927,5.893,4.535,5.07,8.23c-0.813,3.652-4.351,5.995-8.03,5.282c-2.095-0.406-3.671-1.583-4.731-3.444
				c-0.132-0.231-0.293-0.335-0.558-0.326c-0.397,0.014-0.794,0.004-1.191,0.004c-4.33,0-8.659,0.002-12.989,0
				c-1.019,0-1.788-0.638-1.999-1.643C21.376,44.305,21.343,44.255,21.32,44.204z M44.129,48.309
				c2.927,0.039,5.387-2.413,5.352-5.426c-0.033-2.866-2.423-5.255-5.321-5.26c-2.927-0.005-5.345,2.406-5.346,5.331
				C38.814,45.895,41.217,48.317,44.129,48.309z M34.318,34.473c-0.084,0.133-0.119,0.2-0.165,0.259
				c-1.658,2.153-2.706,4.558-3.001,7.278c-0.031,0.286,0.032,0.376,0.322,0.38c0.494,0.006,0.988-0.001,1.482,0.002
				c0.243,0.001,0.326-0.119,0.356-0.356c0.103-0.817,0.179-1.642,0.36-2.442c0.368-1.624,0.929-3.201,2.054-4.446
				c0.61-0.675,0.815-1.344,0.738-2.193c-0.025-0.276-0.112-0.381-0.382-0.378c-0.62,0.009-1.24,0.004-1.86,0.004
				c-1.337,0-2.673-0.002-4.01,0c-0.376,0-0.423,0.049-0.424,0.414c-0.001,0.37,0.012,0.74-0.004,1.109
				c-0.012,0.277,0.086,0.377,0.368,0.375c1.259-0.011,2.518-0.004,3.778-0.004C34.035,34.473,34.138,34.473,34.318,34.473z"/>
			<path style="fill:#ffffff;" d="M27.192,23.536c0.114,0.047,0.232,0.087,0.342,0.143c0.435,0.22,0.68,0.577,0.685,1.067
				c0.011,0.962,0.007,1.925,0,2.888c-0.005,0.64-0.491,1.15-1.12,1.196c-0.603,0.044-1.178-0.399-1.233-1.026
				c-0.056-0.627-0.037-1.262-0.041-1.893c-0.003-0.418-0.015-0.838,0.024-1.252c0.052-0.562,0.37-0.921,0.923-1.059
				c0.045-0.011,0.086-0.041,0.129-0.062C26.998,23.536,27.095,23.536,27.192,23.536z"/>
			<path style="fill:#ffffff;" d="M38.993,23.536c0.15,0.062,0.31,0.109,0.449,0.19c0.368,0.215,0.587,0.537,0.59,0.972
				c0.007,0.991,0.011,1.983-0.002,2.975c-0.008,0.657-0.529,1.155-1.176,1.157c-0.65,0.002-1.18-0.519-1.185-1.18
				c-0.007-0.943-0.003-1.886-0.003-2.829c0-0.632,0.303-1.035,0.91-1.22c0.045-0.014,0.085-0.043,0.127-0.065
				C38.799,23.536,38.896,23.536,38.993,23.536z"/>
			<path style="fill:#ffffff;" d="M43.369,41.325c0-0.584-0.002-1.168,0-1.751c0.002-0.526,0.301-0.855,0.776-0.859
				c0.478-0.004,0.784,0.314,0.789,0.846c0.008,0.798,0.002,1.596,0.003,2.393c0.001,0.387,0.053,0.437,0.436,0.439
				c0.291,0.001,0.582-0.006,0.872,0.008c0.424,0.02,0.738,0.364,0.734,0.786c-0.003,0.411-0.341,0.763-0.759,0.768
				c-0.697,0.008-1.395,0.007-2.093,0c-0.423-0.004-0.752-0.336-0.757-0.761C43.363,42.571,43.369,41.948,43.369,41.325z"/>
		</g>
	</g>
</g>
</svg>
