<?xml version="1.0" encoding="iso-8859-1"?>
<!-- Generator: Adobe Illustrator 21.0.2, SVG Export Plug-In . SVG Version: 6.00 Build 0)  -->
<svg version="1.1" id="Layer_1" xmlns="http://www.w3.org/2000/svg" xmlns:xlink="http://www.w3.org/1999/xlink" x="0px" y="0px"
	 viewBox="0 0 18 18" style="enable-background:new 0 0 18 18;" xml:space="preserve">
<g>
	<circle style="fill:#777777;" cx="9" cy="9" r="9"/>
	<g>
		<path style="fill:#FFFFFF;" d="M11.057,14.144c-0.133,0-0.896-0.05-2.339-0.05c-0.962,0-1.609,0.05-1.791,0.05
			c-0.083,0-0.133-0.033-0.133-0.166v-0.332c0-0.1,0.05-0.133,0.166-0.133h0.614c0.182,0,0.299-0.066,0.315-0.332
			c0.033-0.498,0.033-1.012,0.033-1.476L7.889,9.384c0-0.464-0.099-0.796-0.796-1.045C6.91,8.273,6.894,8.207,6.894,8.107V7.924
			c0-0.05,0.033-0.083,0.182-0.133l2.471-0.796c0.182-0.067,0.332-0.1,0.448-0.1c0.133,0,0.182,0.083,0.166,0.199
			c-0.033,0.282-0.033,1.327-0.033,2.787v1.775c0,0.647,0,1.244,0.017,1.426c0.033,0.315,0.116,0.431,0.299,0.431h0.597
			c0.133,0,0.166,0.05,0.166,0.149v0.315C11.206,14.095,11.173,14.144,11.057,14.144z M8.784,5.636
			C8.088,5.652,7.574,5.105,7.574,4.441c0-0.547,0.564-1.095,1.294-1.095c0.813,0,1.227,0.564,1.227,1.045
			C10.095,4.939,9.713,5.602,8.784,5.636z"/>
	</g>
</g>
</svg>
