<?xml version="1.0" encoding="UTF-8"?>
<!-- Generator: Adobe Illustrator 20.0.0, SVG Export Plug-In . SVG Version: 6.00 Build 0)  -->
<svg version="1.1" id="Layer_1" xmlns="http://www.w3.org/2000/svg" xmlns:xlink="http://www.w3.org/1999/xlink" x="0px" y="0px" viewBox="0 0 20 20" enable-background="new 0 0 20 20" xml:space="preserve">
<g id="New_Symbol_8">
	<path fill="#FFFFFF" d="M6,2.5C6,3.7,6,2.5,6,2.5V5h2.5V2.5h3.7V5h2.5V2.5c0,0,0,1.2,0,0C14.7,0,13.4,0,12.2,0S11,0,8.5,0   S6,1.2,6,2.5z"/>
	<g>
		<path fill="#FFFFFF" d="M18.4,4.3c0-0.3-0.3-0.6-0.6-0.6H3C2.6,3.7,2.4,4,2.4,4.3v1.2c0,0.3,0.3,0.6,0.6,0.6l0,0    c0.3,0,0.6,0.3,0.6,0.6v12.5c0,0.3,0.3,0.6,0.6,0.6h12.3c0.3,0,0.6-0.3,0.6-0.6V6.8c0-0.3,0.3-0.6,0.6-0.6l0,0    c0.3,0,0.6-0.3,0.6-0.6V4.3z M7.3,16.8c0,0.3-0.3,0.6-0.6,0.6l0,0c-0.3,0-0.6-0.3-0.6-0.6V7.6C6,7.2,6.3,7,6.7,7l0,0    C7,7,7.3,7.2,7.3,7.6V16.8z M11,16.8c0,0.3-0.3,0.6-0.6,0.6l0,0c-0.3,0-0.6-0.3-0.6-0.6V7.6C9.7,7.2,10,7,10.4,7l0,0    C10.7,7,11,7.2,11,7.6V16.8z M14.7,16.8c0,0.3-0.3,0.6-0.6,0.6l0,0c-0.3,0-0.6-0.3-0.6-0.6V7.6C13.4,7.2,13.7,7,14,7l0,0    c0.3,0,0.6,0.3,0.6,0.6V16.8z"/>
	</g>
</g>
</svg>