<?xml version="1.0" encoding="utf-8"?>
<!-- Generator: Adobe Illustrator 21.0.2, SVG Export Plug-In . SVG Version: 6.00 Build 0)  -->
<svg version="1.1" id="Layer_2" xmlns="http://www.w3.org/2000/svg" xmlns:xlink="http://www.w3.org/1999/xlink" x="0px" y="0px"
	 viewBox="0 0 82.2 82.2" style="enable-background:new 0 0 82.2 82.2;" xml:space="preserve">
<style type="text/css">
	.st0{fill:#FFFFFF;}
</style>
<g>
	
		<rect x="55.8" y="6.4" transform="matrix(-1.836970e-16 1 -1 -1.836970e-16 72.3385 -49.4522)" class="st0" width="10.1" height="10.1"/>
	
		<rect x="55.8" y="25.1" transform="matrix(-1.836970e-16 1 -1 -1.836970e-16 91.0222 -30.7686)" class="st0" width="10.1" height="10.1"/>
	
		<rect x="35.5" y="6.4" transform="matrix(-1.836970e-16 1 -1 -1.836970e-16 51.9797 -29.0934)" class="st0" width="10.1" height="10.1"/>
	
		<rect x="15.1" y="6.4" transform="matrix(-1.836970e-16 1 -1 -1.836970e-16 31.6208 -8.7346)" class="st0" width="10.1" height="10.1"/>
	
		<rect x="15.1" y="26.3" transform="matrix(-1.836970e-16 1 -1 -1.836970e-16 51.5689 11.2135)" class="st0" width="10.1" height="10.1"/>
	<g id="qtChkV.tif_5_">
		<g>
			<path class="st0" d="M40.4,23.3c-0.4,0-0.8,0-1.1,0c-2.8,1.2-3.4,2.2-3.4,5.6c0,9,0,20.5,0,29.5c0,0.4,0,0.8,0,1.3
				c-1.6-2.7-3.1-5.5-4.5-8.2c-0.6-1.2-1.4-2.1-2.6-2.4c-2.1-0.6-3.7,0.5-4.9,3.3c0,0.7,0,1.4,0,2c0.3,0.7,0.6,1.3,1,2
				c2.8,5.5,5.7,11,8.5,16.6c0.8,1.6,1.8,2.9,3.4,3.4c9.6,0,19.2,0,28.9,0c1.7-0.5,2.8-1.7,3.4-3.6c0-9.5,0-19,0-28.6
				c0-0.1-0.1-0.1-0.1-0.2c-0.9-2.5-2.5-3.6-4.6-3.1c-1.9,0.4-3.1,2.2-3.1,4.8c0,0.8,0,1.6,0,2.4c0,0.3-0.3,0.5-0.4,0.7
				c-0.1-0.3-0.3-0.5-0.3-0.8c0-1,0-2,0-2.9c0-2.6-1.6-4.5-3.8-4.6c-2.2-0.1-3.9,1.7-4,4.3c-0.1,1.1,0,2.1,0,3.2
				c0,0.3-0.1,0.5-0.2,0.8c-0.1,0-0.2,0-0.4,0c0-0.4,0-0.9,0-1.3c0-1,0-2.1-0.1-3.1c-0.3-2.4-2-4-4.1-3.9c-2.1,0.1-3.6,1.9-3.7,4.3
				c0,1.1,0,2.2,0,3.3c0,0.2-0.1,0.5-0.2,0.7c-0.1,0-0.2,0-0.3,0c0-0.5-0.1-0.9-0.1-1.4c0-5.2-0.1-13,0-18.2
				C43.8,26.3,42.9,24.2,40.4,23.3z"/>
		</g>
	</g>
</g>
</svg>
