<?xml version="1.0" encoding="iso-8859-1"?>
<!-- Generator: Adobe Illustrator 21.0.2, SVG Export Plug-In . SVG Version: 6.00 Build 0)  -->
<svg version="1.1" id="Layer_1" xmlns="http://www.w3.org/2000/svg" xmlns:xlink="http://www.w3.org/1999/xlink" x="0px" y="0px"
	 viewBox="0 0 16 16" style="enable-background:new 0 0 16 16;" xml:space="preserve">
<g id="_x33_zhDwM.tif_1_">
	<g>
		<path style="fill:#FFFFFF;" d="M7.44,0c0.373,0,0.747,0,1.12,0c0,0.528,0,1.055,0,1.561c3.377,0.589,5.306,2.536,5.878,5.879
			c0.526,0,1.044,0,1.562,0c0,0.373,0,0.747,0,1.12c-0.528,0-1.055,0-1.564,0c-0.588,3.376-2.535,5.305-5.876,5.878
			c0,0.526,0,1.044,0,1.562c-0.373,0-0.747,0-1.12,0c0-0.528,0-1.055,0-1.563c-3.377-0.588-5.308-2.533-5.879-5.877
			c-0.524,0-1.043,0-1.561,0c0-0.373,0-0.747,0-1.12c0.527,0,1.055,0,1.561,0C2.149,4.061,4.096,2.132,7.44,1.559
			C7.44,1.036,7.44,0.518,7.44,0z M2.813,7.435c0.698,0,1.37,0,2.043,0c0,0.4,0,0.754,0,1.152c-0.694,0-1.366,0-2.038,0
			c0.138,2.36,2.333,4.482,4.603,4.589c0-0.673,0-1.346,0-2.027c0.409,0,0.772,0,1.164,0c0,0.694,0,1.357,0,2.022
			c2.365-0.091,4.543-2.416,4.574-4.608c-0.672,0-1.344,0-2.016,0c0-0.4,0-0.753,0-1.152c0.694,0,1.365,0,2.038,0
			c-0.161-2.459-2.433-4.5-4.605-4.587c0,0.673,0,1.346,0,2.026c-0.408,0-0.772,0-1.164,0c0-0.694,0-1.358,0-2.022
			C5.318,2.89,2.989,4.896,2.813,7.435z"/>
		<path style="fill:#FFFFFF;" d="M9.216,8.022c-0.01,0.681-0.545,1.2-1.23,1.194C7.287,9.21,6.764,8.661,6.783,7.956
			c0.018-0.679,0.56-1.187,1.25-1.173C8.712,6.796,9.226,7.334,9.216,8.022z"/>
	</g>
</g>
</svg>
