<?xml version="1.0" encoding="utf-8"?>
<!-- Generator: Adobe Illustrator 21.0.2, SVG Export Plug-In . SVG Version: 6.00 Build 0)  -->
<svg version="1.1" id="Layer_1" xmlns="http://www.w3.org/2000/svg" xmlns:xlink="http://www.w3.org/1999/xlink" x="0px" y="0px"
	 viewBox="0 0 22 22" style="enable-background:new 0 0 22 22;" xml:space="preserve">
<style type="text/css">
	.st0{fill:#027DC9;}
	.st1{fill:#FFFFFF;}
</style>
<g>
	<circle class="st0" cx="11" cy="11" r="11"/>
	<g>
		<path class="st1" d="M6.3,6.2c0,0,1.9,1.9,4,2.2c0.2,0.6,0.3,1.2,0.3,1.9c0,0.7-0.1,1.3-0.3,1.9c-2.1,0.3-4,2.2-4,2.2
			C4.8,12.1,4.8,8.4,6.3,6.2z"/>
		<path class="st1" d="M12.3,15.8c0.7,0,1.5-1.5,1.5-2.2c0-0.4,0.2-1,0.4-1.5h1.1c0.8,0,1.5-0.8,1.5-1.9s-0.7-1.9-1.5-1.9
			c0,0-2.2,0-3.7,0c0,0.5,0,1.1,0,1.5c0,0.5,0,1.5,0,2.2h0.6c0,0.9-0.2,1.8-0.6,2.2C10.8,15.1,11.6,15.8,12.3,15.8z M15.3,9.5
			c0.4,0,0.7,0.4,0.7,0.9s-0.3,0.9-0.7,0.9V9.5z"/>
	</g>
</g>
</svg>
