<?xml version="1.0" encoding="iso-8859-1"?>
<!-- Generator: Adobe Illustrator 21.0.2, SVG Export Plug-In . SVG Version: 6.00 Build 0)  -->
<svg version="1.1" id="Layer_1" xmlns="http://www.w3.org/2000/svg" xmlns:xlink="http://www.w3.org/1999/xlink" x="0px" y="0px"
	 viewBox="0 0 24 24" style="enable-background:new 0 0 24 24;" xml:space="preserve">
<g>
	<path style="fill:#FF7900;" d="M23.649,20.45l-3.475-6.551c-0.861-1.59-2.271-4.2-3.133-5.789l-3.475-6.416
		c-0.861-1.59-2.271-1.592-3.133-0.003L6.959,8.127c-0.862,1.591-2.271,4.22-3.133,5.808l-3.476,6.515
		c-0.861,1.591-0.08,3.049,1.738,3.049h6.608c1.817,0,4.791,0,6.608,0h6.608C23.729,23.5,24.511,22.041,23.649,20.45z"/>
	<g>
		<path style="fill:#F2F2F2;" d="M16.674,17.321c-0.668,0-0.668-0.461-0.668-0.696c0-2.73-0.835-5.046-2.496-5.905
			C13.345,9.875,12.734,8.81,12,8.81c-0.734,0-1.345,1.065-1.51,1.909c-1.661,0.859-2.496,3.175-2.496,5.905
			c0,0.235,0,0.696-0.668,0.696H6.547v1.547h10.905v-1.547H16.674z"/>
		<g>
			<path style="fill:#F2F2F2;" d="M12,21.19c0.86,0,1.558-0.693,1.558-1.547h-3.116C10.442,20.497,11.14,21.19,12,21.19z"/>
			<path style="fill:#F2F2F2;" d="M13.342,18.868c-0.27-0.461-0.767-0.774-1.342-0.774c-0.575,0-1.072,0.313-1.342,0.774H13.342z"/>
		</g>
	</g>
	<g>
		<polygon points="12.686,17.865 9.037,14.599 10.09,13.438 13.739,16.704 		"/>
		<polygon points="18.056,11.945 12.78,17.763 11.612,16.718 16.888,10.9 		"/>
	</g>
</g>
</svg>
