<?xml version="1.0" encoding="utf-8"?>
<!-- Generator: Adobe Illustrator 21.0.2, SVG Export Plug-In . SVG Version: 6.00 Build 0)  -->
<svg version="1.1" id="Layer_1" xmlns="http://www.w3.org/2000/svg" xmlns:xlink="http://www.w3.org/1999/xlink" x="0px" y="0px"
	 viewBox="0 0 20 22" style="enable-background:new 0 0 20 22;" xml:space="preserve">
<style type="text/css">
	.st0{fill:#565656;}
</style>
<g>
	<rect x="6.7" y="8.1" class="st0" width="2.7" height="2.7"/>
	<rect x="10.7" y="8.1" class="st0" width="2.7" height="2.7"/>
	<rect x="14.7" y="8.1" class="st0" width="2.7" height="2.7"/>
	<rect x="2.7" y="12.1" class="st0" width="2.7" height="2.7"/>
	<rect x="6.7" y="12.1" class="st0" width="2.7" height="2.7"/>
	<rect x="10.7" y="12.1" class="st0" width="2.7" height="2.7"/>
	<rect x="14.7" y="12.1" class="st0" width="2.7" height="2.7"/>
	<rect x="2.7" y="16.1" class="st0" width="2.7" height="2.7"/>
	<rect x="6.7" y="16.1" class="st0" width="2.7" height="2.7"/>
	<rect x="10.7" y="16.1" class="st0" width="2.7" height="2.7"/>
	<path class="st0" d="M17.3,2.8V0.1h-4v2.7H6.7V0.1h-4v2.7H0v18.7h20V2.8H17.3z M14.7,1.4H16v2.7h-1.3V1.4z M4,1.4h1.3v2.7H4V1.4z
		 M18.7,20.1H1.3V6.8h17.3v13.3H18.7z"/>
</g>
</svg>
