<?xml version="1.0" encoding="iso-8859-1"?>
<!-- Generator: Adobe Illustrator 21.0.2, SVG Export Plug-In . SVG Version: 6.00 Build 0)  -->
<svg version="1.1" xmlns="http://www.w3.org/2000/svg" xmlns:xlink="http://www.w3.org/1999/xlink" x="0px" y="0px"
	 viewBox="0 0 18 15.701" style="enable-background:new 0 0 18 15.701;" xml:space="preserve">
<g id="icon-footer-optimisation-off">
	<g>
		<path style="fill:#C16511;" d="M17.997,14.941c-0.838-1.055-1.817-1.921-2.909-2.574c-1.08-0.645-2.301-1.1-3.629-1.352
			l-0.009-0.002l-0.575,0.985l0.005,0.007c0.563,0.807,1.588,1.68,2.814,2.395c1.224,0.714,2.495,1.182,3.489,1.285
			c0.046,0.005,0.091,0.007,0.134,0.007c0.304,0,0.523-0.121,0.681-0.376L18,15.314v-0.369L17.997,14.941z"/>
		<path style="fill:#C16511;" d="M9.108,7.823c0.055,0.002,0.109,0.002,0.166,0.002c0.046,0,0.094,0,0.144-0.001
			c0.055,0,0.113-0.001,0.176-0.001h0.009l0.003-0.009c0.439-1.251,0.657-2.507,0.648-3.734C10.245,2.831,10,1.579,9.527,0.357
			C9.459,0.182,9.144-0.021,8.975,0.002C8.781,0.028,8.518,0.25,8.443,0.451C7.647,2.593,7.556,4.824,8.171,7.083
			C8.365,7.795,8.374,7.802,9.108,7.823z"/>
		<path style="fill:#C16511;" d="M6.988,11.819c-0.1-0.143-0.194-0.278-0.24-0.427c-0.118-0.386-0.357-0.364-0.634-0.301
			c-1.53,0.353-2.751,0.883-3.734,1.621c-0.699,0.525-1.34,1.15-1.96,1.754c-0.09,0.088-0.18,0.175-0.27,0.262
			c-0.131,0.127-0.196,0.464-0.116,0.61c0.083,0.153,0.306,0.24,0.502,0.316c0.024,0.009,0.047,0.018,0.07,0.027
			c0.036,0.014,0.076,0.02,0.117,0.02c0.091,0,0.186-0.027,0.245-0.047c0.277-0.095,0.561-0.186,0.836-0.275
			c0.693-0.223,1.409-0.454,2.078-0.76c1.196-0.546,2.257-1.389,3.245-2.575l0.006-0.007L7.129,12.03
			C7.083,11.956,7.035,11.886,6.988,11.819z"/>
		<path style="fill:#C16511;" d="M10.467,8.799c-0.395-0.395-0.923-0.614-1.486-0.617c-0.004,0-0.008,0-0.012,0
			c-0.57,0-1.107,0.223-1.512,0.629C7.055,9.212,6.836,9.74,6.839,10.297c0.003,0.558,0.223,1.083,0.621,1.477
			c0.398,0.394,0.928,0.614,1.493,0.619c0.006,0,0.013,0,0.019,0c0.568,0,1.098-0.216,1.495-0.61
			c0.399-0.397,0.618-0.93,0.616-1.502C11.081,9.72,10.862,9.194,10.467,8.799z"/>
	</g>
</g>
<g id="Layer_1">
</g>
</svg>
