<?xml version="1.0" encoding="iso-8859-1"?>
<!-- Generator: Adobe Illustrator 21.0.2, SVG Export Plug-In . SVG Version: 6.00 Build 0)  -->
<svg version="1.1" xmlns="http://www.w3.org/2000/svg" xmlns:xlink="http://www.w3.org/1999/xlink" x="0px" y="0px"
	 viewBox="0 0 18 18" style="enable-background:new 0 0 18 18;" xml:space="preserve">
<g id="icon-footer-scheduled-tasks-warning">
	<g>
		<g>
			<path style="fill:#6F6F6F;" d="M9.152,2.618c3.46,0,6.274,2.863,6.274,6.382c0,3.518-2.813,6.381-6.274,6.381
				c-3.459,0-6.275-2.863-6.275-6.381C2.878,5.481,5.694,2.618,9.152,2.618 M9.152,0C4.267,0,0.304,4.031,0.304,9.001
				c0,4.97,3.963,8.999,8.849,8.999C14.039,18,18,13.971,18,9.001C18,4.031,14.039,0,9.152,0L9.152,0z"/>
		</g>
		<g>
			<path style="fill:#6F6F6F;" d="M8.334,8.869c0-0.362,0.287-0.655,0.644-0.655h3.208c0.355,0,0.644,0.293,0.644,0.655
				c0,0.361-0.288,0.655-0.644,0.655H8.977C8.621,9.523,8.334,9.23,8.334,8.869z"/>
		</g>
		<g>
			<path style="fill:#6F6F6F;" d="M8.977,9.523c-0.356,0-0.644-0.292-0.644-0.655V4.531c0-0.361,0.288-0.655,0.644-0.655
				c0.355,0,0.644,0.293,0.644,0.655v4.338C9.621,9.231,9.332,9.523,8.977,9.523z"/>
		</g>
		<g>
			<polygon style="fill:#FFFFFF;" points="6.601,7.707 9.825,14.813 8.605,15.336 5.51,16.052 3.146,16.052 3.146,11.88 
				4.174,9.192 5.51,7.08 			"/>
			<path style="fill:#FFFFFF;" d="M11.748,15.143l-1.726-3.321c-0.428-0.809-1.128-2.131-1.556-2.939L6.739,5.622
				c-0.428-0.809-1.128-0.809-1.556,0L3.457,8.896c-0.428,0.809-1.128,2.147-1.556,2.955l-1.727,3.292
				c-0.428,0.809-0.04,1.529,0.863,1.529H4.32c0.903,0,2.38,0,3.282,0h3.282C11.787,16.672,12.176,15.953,11.748,15.143z
				 M6.782,15.003H5.14v-1.669h1.641V15.003z M6.782,12.499H5.14V9.16h1.641V12.499z"/>
		</g>
		<g>
			<polygon style="fill:#FFFFFF;" points="6.537,8.231 9.437,14.624 8.339,15.094 5.555,15.738 3.429,15.738 3.429,11.985 
				4.353,9.567 5.555,7.667 			"/>
			<path style="fill:#FF5600;" d="M11.167,14.921l-1.553-2.988c-0.385-0.727-1.015-1.917-1.4-2.644L6.661,6.355
				c-0.385-0.727-1.015-0.727-1.4,0L3.708,9.301c-0.385,0.728-1.015,1.931-1.4,2.658l-1.553,2.961
				c-0.385,0.728-0.036,1.376,0.776,1.376h2.953c0.812,0,2.141,0,2.953,0h2.953C11.202,16.296,11.552,15.649,11.167,14.921z
				 M6.699,14.794H5.223v-1.502h1.476V14.794z M6.699,12.542H5.223V9.538h1.476V12.542z"/>
		</g>
	</g>
</g>
<g id="Layer_1">
</g>
</svg>
