<?xml version="1.0" encoding="iso-8859-1"?>
<!-- Generator: Adobe Illustrator 21.0.2, SVG Export Plug-In . SVG Version: 6.00 Build 0)  -->
<svg version="1.1" xmlns="http://www.w3.org/2000/svg" xmlns:xlink="http://www.w3.org/1999/xlink" x="0px" y="0px"
	 viewBox="0 0 18 18" style="enable-background:new 0 0 18 18;" xml:space="preserve">
<g id="icon-footer-scheduled-tasks-green">
	<g>
		<path style="fill:#01D102;" d="M9.001,0C4.031,0,0,4.031,0,9.001C0,13.971,4.031,18,9.001,18C13.971,18,18,13.971,18,9.001
			C18,4.031,13.971,0,9.001,0z M9.001,15.382c-3.518,0-6.382-2.863-6.382-6.381c0-3.519,2.864-6.382,6.382-6.382
			c3.519,0,6.381,2.863,6.381,6.382C15.382,12.519,12.52,15.382,9.001,15.382z"/>
		<path style="fill:#01D102;" d="M12.085,8.214H9.477V4.531c0-0.361-0.293-0.655-0.655-0.655c-0.362,0-0.655,0.293-0.655,0.655
			v4.338c0,0.315,0.221,0.576,0.516,0.64c0.002,0,0.004,0.001,0.006,0.002c0.016,0.003,0.032,0.005,0.048,0.007
			C8.744,9.518,8.749,9.519,8.755,9.52C8.777,9.522,8.8,9.523,8.822,9.523h3.263c0.361,0,0.655-0.293,0.655-0.655
			C12.74,8.507,12.446,8.214,12.085,8.214z"/>
	</g>
</g>
<g id="Layer_1">
</g>
</svg>
