<?xml version="1.0" encoding="UTF-8" standalone="no"?><!DOCTYPE svg PUBLIC "-//W3C//DTD SVG 1.1//EN" "http://www.w3.org/Graphics/SVG/1.1/DTD/svg11.dtd"><svg width="100%" height="100%" viewBox="0 0 75 75" version="1.1" xmlns="http://www.w3.org/2000/svg" xmlns:xlink="http://www.w3.org/1999/xlink" xml:space="preserve" xmlns:serif="http://www.serif.com/" style="fill-rule:evenodd;clip-rule:evenodd;stroke-linejoin:round;stroke-miterlimit:2;"><g id="icon-footer-optimisation-on"><g><g><path d="M49.154,73.883c0.579,-5.129 0.279,-10.125 -0.896,-14.854c-1.162,-4.675 -3.212,-9.212 -6.091,-13.496l-0.021,-0.029l-4.171,1.113l-0.004,0.033c-0.654,3.713 -0.246,8.854 1.121,14.113c1.362,5.25 3.512,9.962 5.895,12.933c0.113,0.137 0.225,0.267 0.338,0.383c0.812,0.825 1.721,1.088 2.829,0.829l0.013,-0.004l0.987,-1l0,-0.021Z" style="fill:#fff;fill-rule:nonzero;"/><path d="M44.421,30.513c0.142,0.154 0.287,0.3 0.437,0.454c0.125,0.125 0.25,0.254 0.388,0.387l0.5,0.5l0.033,-0.016c4.521,-2.2 8.463,-5.013 11.721,-8.363c3.317,-3.408 6.013,-7.467 8.013,-12.058c0.287,-0.659 -0.013,-2.059 -0.525,-2.459c-0.588,-0.454 -1.888,-0.566 -2.625,-0.225c-7.859,3.646 -14.067,9.442 -18.467,17.229c-1.388,2.463 -1.383,2.509 0.525,4.55Z" style="fill:#fff;fill-rule:nonzero;"/><path d="M28.063,35.596c0.116,-0.659 0.225,-1.279 0.5,-1.809c0.716,-1.362 0.02,-1.95 -0.892,-2.529c-5.038,-3.187 -9.721,-5.058 -14.321,-5.725c-3.271,-0.471 -6.658,-0.512 -9.933,-0.558c-0.475,-0.004 -0.95,-0.013 -1.421,-0.017c-0.692,-0.012 -1.767,0.725 -1.946,1.338c-0.187,0.641 0.175,1.479 0.5,2.216c0.038,0.088 0.075,0.175 0.113,0.263c0.058,0.133 0.15,0.258 0.262,0.371c0.242,0.246 0.567,0.429 0.779,0.537c0.996,0.492 2,1.017 2.971,1.521c2.45,1.267 4.983,2.583 7.588,3.567c4.658,1.758 9.75,2.354 15.566,1.816l0.038,-0.004l0.008,-0.033c0.075,-0.325 0.133,-0.642 0.188,-0.954Z" style="fill:#fff;fill-rule:nonzero;"/><path d="M45.442,36.842c-0,-2.142 -0.829,-4.163 -2.325,-5.696c-0.013,-0.013 -0.021,-0.021 -0.034,-0.033c-1.52,-1.546 -3.554,-2.396 -5.72,-2.396c-2.146,-0 -4.146,0.837 -5.63,2.354c-1.487,1.521 -2.3,3.537 -2.291,5.683c0.008,2.146 0.837,4.175 2.337,5.721c0.017,0.017 0.034,0.033 0.05,0.05c1.521,1.538 3.517,2.388 5.629,2.396c2.129,0.004 4.142,-0.846 5.667,-2.4c1.496,-1.521 2.321,-3.538 2.317,-5.679Z" style="fill:#fff;fill-rule:nonzero;"/></g><g id="fWMCxl.tif"><g><path d="M16.342,7.829c2.229,-1.396 4.354,-3.012 6.7,-4.154c11.358,-5.508 22.437,-4.783 33.154,1.867c0.246,0.154 0.437,0.391 0.617,0.737c-8.709,-4.05 -17.667,-5.15 -26.95,-2.608c-9.35,2.567 -16.5,8.204 -22.275,16.008c1.637,-2.654 3.279,-5.308 4.916,-7.962c1.279,-1.292 2.559,-2.592 3.838,-3.888Z" style="fill:#fff;fill-rule:nonzero;"/><path d="M62.738,63.904c-2.155,1.325 -4.309,2.65 -6.459,3.975c16.2,-13.404 20.446,-29.746 12.454,-49.841c0.671,0.995 1.113,1.6 1.504,2.237c0.4,0.646 0.805,1.296 1.117,1.983c5.633,12.313 4.779,24.08 -2.904,35.271c-0.25,0.363 -0.4,0.792 -0.596,1.188c-1.7,1.729 -3.408,3.458 -5.117,5.187Z" style="fill:#fff;fill-rule:nonzero;"/><path d="M3.696,36.067c1.492,19.583 16.229,34.633 35.517,36.075c-17.38,2.904 -37.921,-13.629 -35.517,-36.075Z" style="fill:#fff;fill-rule:nonzero;"/><path d="M51.417,10.588c-14.459,-4.759 -26.725,-1.467 -36.817,10.47c6.15,-12.662 23.513,-18.683 36.817,-10.471Z" style="fill:#fff;fill-rule:nonzero;"/><path d="M54.079,61.325c11.846,-10.204 15.225,-22.604 10.467,-37.246c6.896,9.788 4.833,29.188 -10.467,37.246Z" style="fill:#fff;fill-rule:nonzero;"/><path d="M10.271,40.05c3.525,14.129 12.242,22.692 26.354,25.529c-11.483,1.325 -26.321,-9.929 -26.354,-25.529Z" style="fill:#fff;fill-rule:nonzero;"/><path d="M23.192,21.533c4.604,-6.275 14.208,-8.983 21.066,-5.916c-7.908,-1.25 -14.904,0.812 -21.066,5.916Z" style="fill:#fff;fill-rule:nonzero;"/><path d="M60.046,31.929c2.658,6.363 0.004,15.504 -6.025,20.609c1.392,-2.755 3.654,-6.017 4.708,-9.638c1.075,-3.696 0.975,-7.746 1.317,-10.971Z" style="fill:#fff;fill-rule:nonzero;"/><path d="M17.938,42.075c3.066,7.992 8.158,13.117 15.837,15.763c-6.687,0.283 -15.4,-8.171 -15.837,-15.763Z" style="fill:#fff;fill-rule:nonzero;"/></g></g></g></g></svg>