<?xml version="1.0" encoding="UTF-8" standalone="no"?><!DOCTYPE svg PUBLIC "-//W3C//DTD SVG 1.1//EN" "http://www.w3.org/Graphics/SVG/1.1/DTD/svg11.dtd"><svg width="100%" height="100%" viewBox="0 0 1305 1305" version="1.1" xmlns="http://www.w3.org/2000/svg" xmlns:xlink="http://www.w3.org/1999/xlink" xml:space="preserve" xmlns:serif="http://www.serif.com/" style="fill-rule:evenodd;clip-rule:evenodd;stroke-linejoin:round;stroke-miterlimit:2;"><g id="icon-footer-optimisation-on"><g><g><path d="M853.367,1282.69c10.054,-89.046 4.846,-175.784 -15.554,-257.884c-20.176,-81.162 -55.763,-159.929 -105.746,-234.304l-0.367,-0.504l-72.412,19.321l-0.067,0.575c-11.358,64.462 -4.271,153.717 19.458,245.017c23.646,91.145 60.975,172.954 102.346,224.533c1.963,2.375 3.904,4.633 5.867,6.65c14.1,14.321 29.879,18.887 49.116,14.392l0.225,-0.071l17.134,-17.363l-0,-0.362Z" style="fill:#777;fill-rule:nonzero;"/><path d="M771.2,529.742c2.462,2.671 4.979,5.208 7.583,7.879c2.171,2.171 4.342,4.412 6.738,6.721l8.679,8.679l0.575,-0.279c78.487,-38.192 146.925,-87.029 203.487,-145.188c57.588,-59.166 104.396,-129.637 139.117,-209.342c4.983,-11.441 -0.225,-35.745 -9.117,-42.691c-10.208,-7.883 -32.775,-9.825 -45.57,-3.904c-136.442,63.296 -244.221,163.921 -320.609,299.112c-24.096,42.763 -24.008,43.559 9.117,78.992l-0,0.021Z" style="fill:#777;fill-rule:nonzero;"/><path d="M487.204,617.988c2.017,-11.442 3.909,-22.209 8.684,-31.409c12.429,-23.646 0.345,-33.854 -15.488,-43.904c-87.467,-55.329 -168.767,-87.813 -248.629,-99.392c-56.788,-8.179 -115.592,-8.891 -172.45,-9.687c-8.246,-0.071 -16.492,-0.229 -24.667,-0.296c-12.016,-0.208 -30.679,12.587 -33.787,23.229c-3.246,11.129 3.037,25.675 8.683,38.471c0.658,1.529 1.3,3.037 1.958,4.567c1.009,2.308 2.605,4.479 4.55,6.441c4.2,4.271 9.846,7.446 13.525,9.321c17.292,8.542 34.721,17.659 51.58,26.409c42.533,21.995 86.512,44.841 131.737,61.924c80.867,30.521 169.271,40.871 270.242,31.53l0.662,-0.071l0.138,-0.571c1.3,-5.642 2.308,-11.146 3.262,-16.562Z" style="fill:#777;fill-rule:nonzero;"/><path d="M788.925,639.617c0,-37.188 -14.392,-72.271 -40.367,-98.888c-0.225,-0.225 -0.362,-0.366 -0.591,-0.571c-26.388,-26.841 -61.7,-41.6 -99.304,-41.6c-37.259,0 -71.98,14.534 -97.742,40.867c-25.817,26.408 -39.933,61.408 -39.775,98.667c0.137,37.254 14.529,72.479 40.571,99.321c0.295,0.295 0.591,0.575 0.87,0.866c26.405,26.704 61.059,41.459 97.726,41.6c36.962,0.067 71.908,-14.687 98.383,-41.666c25.975,-26.409 40.296,-61.425 40.229,-98.596Z" style="fill:#777;fill-rule:nonzero;"/></g></g></g></svg>