<?xml version="1.0" encoding="iso-8859-1"?>
<!-- Generator: Adobe Illustrator 21.0.2, SVG Export Plug-In . SVG Version: 6.00 Build 0)  -->
<svg version="1.1" xmlns="http://www.w3.org/2000/svg" xmlns:xlink="http://www.w3.org/1999/xlink" x="0px" y="0px"
	 viewBox="0 0 18 18" style="enable-background:new 0 0 18 18;" xml:space="preserve">
<g id="icon-footer-optimisation-on">
	<g>
		<g>
			<path style="fill:#0A663E;" d="M11.797,17.732c0.139-1.231,0.067-2.43-0.215-3.565c-0.279-1.122-0.771-2.211-1.462-3.239
				l-0.005-0.007l-1.001,0.267l-0.001,0.008c-0.157,0.891-0.059,2.125,0.269,3.387c0.327,1.26,0.843,2.391,1.415,3.104
				c0.027,0.033,0.054,0.064,0.081,0.092c0.195,0.198,0.413,0.261,0.679,0.199l0.003-0.001l0.237-0.24L11.797,17.732z"/>
			<path style="fill:#0A663E;" d="M10.661,7.323c0.034,0.037,0.069,0.072,0.105,0.109c0.03,0.03,0.06,0.061,0.093,0.093
				c0.036,0.036,0.073,0.073,0.114,0.114l0.006,0.006l0.008-0.004c1.085-0.528,2.031-1.203,2.813-2.007
				c0.796-0.818,1.443-1.792,1.923-2.894c0.069-0.158-0.003-0.494-0.126-0.59c-0.141-0.109-0.453-0.136-0.63-0.054
				c-1.886,0.875-3.376,2.266-4.432,4.135C10.202,6.822,10.203,6.833,10.661,7.323z"/>
			<path style="fill:#0A663E;" d="M6.735,8.543c0.028-0.158,0.054-0.307,0.12-0.434C7.027,7.782,6.86,7.641,6.641,7.502
				C5.432,6.737,4.308,6.288,3.204,6.128C2.419,6.015,1.606,6.005,0.82,5.994C0.706,5.993,0.592,5.991,0.479,5.99
				C0.313,5.987,0.055,6.164,0.012,6.311c-0.045,0.154,0.042,0.355,0.12,0.532C0.141,6.864,0.15,6.885,0.159,6.906
				c0.014,0.032,0.036,0.062,0.063,0.089C0.28,7.054,0.358,7.098,0.409,7.124c0.239,0.118,0.48,0.244,0.713,0.365
				C1.71,7.793,2.318,8.109,2.943,8.345c1.118,0.422,2.34,0.565,3.736,0.436L6.688,8.78L6.69,8.772
				C6.708,8.694,6.722,8.618,6.735,8.543z"/>
			<path style="fill:#0A663E;" d="M10.906,8.842c0-0.514-0.199-0.999-0.558-1.367c-0.003-0.003-0.005-0.005-0.008-0.008
				C9.975,7.096,9.487,6.892,8.967,6.892c-0.515,0-0.995,0.201-1.351,0.565C7.259,7.822,7.064,8.306,7.066,8.821
				c0.002,0.515,0.201,1.002,0.561,1.373c0.004,0.004,0.008,0.008,0.012,0.012c0.365,0.369,0.844,0.573,1.351,0.575
				c0.511,0.001,0.994-0.203,1.36-0.576C10.709,9.84,10.907,9.356,10.906,8.842z"/>
		</g>
		<g id="fWMCxl.tif">
			<g>
				<path style="fill:#0A663E;" d="M3.922,1.879C4.457,1.544,4.967,1.156,5.53,0.882c2.726-1.322,5.385-1.148,7.957,0.448
					c0.059,0.037,0.105,0.094,0.148,0.177c-2.09-0.972-4.24-1.236-6.468-0.626C4.923,1.497,3.207,2.85,1.821,4.723
					c0.393-0.637,0.787-1.274,1.18-1.911C3.308,2.502,3.615,2.19,3.922,1.879z"/>
				<path style="fill:#0A663E;" d="M15.057,15.337c-0.517,0.318-1.034,0.636-1.55,0.954c3.888-3.217,4.907-7.139,2.989-11.962
					c0.161,0.239,0.267,0.384,0.361,0.537c0.096,0.155,0.193,0.311,0.268,0.476c1.352,2.955,1.147,5.779-0.697,8.465
					c-0.06,0.087-0.096,0.19-0.143,0.285C15.877,14.507,15.467,14.922,15.057,15.337z"/>
				<path style="fill:#0A663E;" d="M0.887,8.656c0.358,4.7,3.895,8.312,8.524,8.658C5.24,18.011,0.31,14.043,0.887,8.656z"/>
				<path style="fill:#0A663E;" d="M12.34,2.541C8.87,1.399,5.926,2.189,3.504,5.054C4.98,2.015,9.147,0.57,12.34,2.541z"/>
				<path style="fill:#0A663E;" d="M12.979,14.718c2.843-2.449,3.654-5.425,2.512-8.939C17.146,8.128,16.651,12.784,12.979,14.718z"
					/>
				<path style="fill:#0A663E;" d="M2.465,9.612c0.846,3.391,2.938,5.446,6.325,6.127C6.034,16.057,2.473,13.356,2.465,9.612z"/>
				<path style="fill:#0A663E;" d="M5.566,5.168c1.105-1.506,3.41-2.156,5.056-1.42C8.724,3.448,7.045,3.943,5.566,5.168z"/>
				<path style="fill:#0A663E;" d="M14.411,7.663c0.638,1.527,0.001,3.721-1.446,4.946c0.334-0.661,0.877-1.444,1.13-2.313
					C14.353,9.409,14.329,8.437,14.411,7.663z"/>
				<path style="fill:#0A663E;" d="M4.305,10.098c0.736,1.918,1.958,3.148,3.801,3.783C6.501,13.949,4.41,11.92,4.305,10.098z"/>
			</g>
		</g>
	</g>
</g>
<g id="Layer_1">
</g>
</svg>
