<?xml version="1.0" encoding="iso-8859-1"?>
<!-- Generator: Adobe Illustrator 21.0.2, SVG Export Plug-In . SVG Version: 6.00 Build 0)  -->
<svg version="1.1" id="Layer_1" xmlns="http://www.w3.org/2000/svg" xmlns:xlink="http://www.w3.org/1999/xlink" x="0px" y="0px"
	 viewBox="0 0 20 20" style="enable-background:new 0 0 20 20;" xml:space="preserve">
<g id="o9n4P2.tif">
	<g>
		<path style="fill:#333333;" d="M1.404,8.986c4.146,0,8.278,0,12.429,0c0,3.337,0,6.669,0,10.014c-4.142,0-8.279,0-12.429,0
			C1.404,15.667,1.404,12.34,1.404,8.986z"/>
		<path style="fill:#333333;" d="M3.588,8.446C1.611,8.45,0.006,6.797,0,4.753c-0.006-2.066,1.589-3.74,3.564-3.744
			c1.986-0.004,3.593,1.65,3.603,3.708C7.177,6.769,5.571,8.442,3.588,8.446z"/>
		<path style="fill:#333333;" d="M7.884,4.701c0.008-2.064,1.609-3.71,3.6-3.701c1.987,0.009,3.569,1.672,3.559,3.741
			c-0.01,2.059-1.616,3.701-3.61,3.691C9.465,8.423,7.876,6.752,7.884,4.701z"/>
		<path style="fill:#333333;" d="M20,18.81c-0.944-0.977-1.858-1.922-2.768-2.872c-0.05-0.052-0.079-0.149-0.079-0.225
			c-0.005-1.36-0.005-2.72,0.001-4.08c0-0.078,0.046-0.182,0.105-0.23c0.885-0.724,1.775-1.441,2.664-2.159
			C19.94,9.231,19.961,9.223,20,9.202C20,12.398,20,15.58,20,18.81z"/>
		<path style="fill:#333333;" d="M16.371,16.434c-0.575,0-1.139,0-1.72,0c0-1.621,0-3.238,0-4.872c0.568,0,1.137,0,1.72,0
			C16.371,13.186,16.371,14.803,16.371,16.434z"/>
	</g>
</g>
</svg>
