<?xml version="1.0" encoding="iso-8859-1"?>
<!-- Generator: Adobe Illustrator 21.0.2, SVG Export Plug-In . SVG Version: 6.00 Build 0)  -->
<svg version="1.1" id="Layer_1" xmlns="http://www.w3.org/2000/svg" xmlns:xlink="http://www.w3.org/1999/xlink" x="0px" y="0px"
	 viewBox="0 0 18 18" style="enable-background:new 0 0 18 18;" xml:space="preserve">
<g id="o9n4P2.tif">
	<g>
		<path style="fill:#D1D1D1;" d="M1.264,8.117c3.731,0,7.45,0,11.187,0c0,2.906,0,5.807,0,8.72c-3.728,0-7.451,0-11.187,0
			C1.264,13.935,1.264,11.038,1.264,8.117z"/>
		<path style="fill:#D1D1D1;" d="M3.229,7.647C1.45,7.65,0.005,6.211,0,4.431c-0.005-1.799,1.43-3.257,3.208-3.26
			C4.995,1.167,6.441,2.607,6.45,4.399C6.459,6.186,5.014,7.643,3.229,7.647z"/>
		<path style="fill:#D1D1D1;" d="M7.096,4.385c0.007-1.797,1.448-3.23,3.24-3.223c1.788,0.008,3.212,1.456,3.203,3.258
			c-0.009,1.793-1.455,3.223-3.249,3.214C8.518,7.627,7.088,6.172,7.096,4.385z"/>
		<path style="fill:#D1D1D1;" d="M18,16.671c-0.849-0.851-1.673-1.673-2.491-2.501c-0.045-0.045-0.071-0.129-0.071-0.196
			c-0.004-1.184-0.005-2.368,0.001-3.553c0-0.068,0.042-0.159,0.094-0.2c0.796-0.631,1.597-1.255,2.398-1.88
			C17.946,8.331,17.965,8.324,18,8.305C18,11.088,18,13.859,18,16.671z"/>
		<path style="fill:#D1D1D1;" d="M14.734,14.602c-0.518,0-1.025,0-1.548,0c0-1.411,0-2.82,0-4.243c0.511,0,1.024,0,1.548,0
			C14.734,11.775,14.734,13.183,14.734,14.602z"/>
	</g>
</g>
</svg>
