<?xml version="1.0" encoding="iso-8859-1"?>
<!-- Generator: Adobe Illustrator 21.0.2, SVG Export Plug-In . SVG Version: 6.00 Build 0)  -->
<svg version="1.1" xmlns="http://www.w3.org/2000/svg" xmlns:xlink="http://www.w3.org/1999/xlink" x="0px" y="0px"
	 viewBox="0 0 18 18" style="enable-background:new 0 0 18 18;" xml:space="preserve">
<g id="icon-development-projects-off">
	<g>
		<g>
			<path style="fill:#D1D1D1;" d="M0.553,17.598c0,0,0.19-1.311,0.338-1.797c0.161-0.527,0.605-1.201,0.726-1.374
				c0.162-0.233,0.437-0.444,0.437-0.444l0.528,0.444l3.565-4.207l0.338,0.423L2.977,14.66l0.768,0.634c0,0-0.486,1.163-1.332,1.67
				S0.553,17.598,0.553,17.598z"/>
		</g>
		<g>
			<path style="fill:#D1D1D1;" d="M6.317,0.75c0,0,0.423,0.93,0.423,1.184S7.036,2.357,7.459,2.23s1.733,0,2.241,0.55
				c0.507,0.55,0.846,1.057,1.015,1.142c0.169,0.085,1.142,1.691,1.268,2.748c0.127,1.057,0.338,2.072,1.353,3.509
				s2.748,3.847,3.044,4.228c0.296,0.381,0.888,1.522,0.888,1.649c0,0.127,0.296,0.761,0.127,0.888
				c-0.169,0.127-0.676,0.381-0.676,0.381l-0.55-0.085c0,0-0.423,0.381-0.761,0.465s-1.015,0-1.142-0.169
				c-0.127-0.169-0.381-0.423,0.085-0.507c0.465-0.085,0.93-0.042,0.888-0.592c-0.042-0.55-1.015-1.987-1.437-2.537
				c-0.423-0.55-2.41-2.96-2.41-2.96s-0.465-1.057-0.803-0.846S9.065,11.7,8.854,11.87c-0.211,0.169-0.296,0.592-0.169,0.761
				c0.127,0.169,1.607,2.156,1.818,2.579c0.211,0.423,0.592,0.972,0.592,1.268s0.169,0.888,0.042,0.93
				c-0.127,0.042-0.867,0.338-0.867,0.338l-0.444-0.148c0,0-0.888,0.402-1.099,0.402s-0.972-0.169-0.972-0.169
				s0.085-0.296,0.211-0.338c0.127-0.042,0.93-0.381,0.972-0.803c0.042-0.423-1.142-2.029-1.48-2.452
				c-0.338-0.423-1.226-1.564-1.057-2.114S7.67,9.248,8.051,8.656c0.381-0.592,0.423-1.691,0.423-1.903
				c0-0.211-0.211,0.211-0.338,0.719C8.009,7.98,7.121,10.39,6.952,10.559c-0.169,0.169-0.761,0.254-0.803,0.127
				c-0.042-0.127-0.296-0.634-0.169-0.803c0.127-0.169,0.592-0.127,0.676-0.507C6.74,8.995,7.247,6.754,7.247,6.162
				S7.374,4.64,7.163,4.471c-0.211-0.169-0.55-0.55-0.55-0.803S6.106,3.245,6.106,3.245L5.514,3.71c0,0-0.381-0.169-0.381-0.381
				c0-0.211-0.169-0.254-0.169-0.254L4.668,3.16L4.584,2.568L4.33,2.441l1.437-1.818L6.317,0.75z"/>
		</g>
		<g>
			<g>
				<defs>
					<path id="SVGID_1_" d="M4.554,0.245c0,0-0.579,0.533-0.672,0.811C3.789,1.334,3.928,1.889,4.021,2.075
						C4.114,2.26,3.975,2.862,3.975,2.862L6.43,0.685c0,0-0.347-0.579-0.695-0.649C4.991-0.113,4.554,0.245,4.554,0.245z"/>
				</defs>
				<use xlink:href="#SVGID_1_"  style="overflow:visible;fill:#D1D1D1;"/>
				<clipPath id="SVGID_2_">
					<use xlink:href="#SVGID_1_"  style="overflow:visible;"/>
				</clipPath>
				<polygon style="clip-path:url(#SVGID_2_);fill:#D1D1D1;" points="4.575,-0.113 3.789,-0.041 3.789,-0.113 				"/>
				<polygon style="clip-path:url(#SVGID_2_);fill:#D1D1D1;" points="4.816,-0.113 3.789,-0.019 3.789,-0.041 4.575,-0.113 				"/>
				<polygon style="clip-path:url(#SVGID_2_);fill:#D1D1D1;" points="5.057,-0.113 3.789,0.003 3.789,-0.019 4.816,-0.113 				"/>
				<polygon style="clip-path:url(#SVGID_2_);fill:#D1D1D1;" points="5.299,-0.113 3.789,0.025 3.789,0.003 5.057,-0.113 				"/>
				<polygon style="clip-path:url(#SVGID_2_);fill:#D1D1D1;" points="5.54,-0.113 3.789,0.047 3.789,0.025 5.299,-0.113 				"/>
				<polygon style="clip-path:url(#SVGID_2_);fill:#D1D1D1;" points="5.781,-0.113 3.789,0.069 3.789,0.047 5.54,-0.113 				"/>
				<polygon style="clip-path:url(#SVGID_2_);fill:#D1D1D1;" points="6.022,-0.113 3.789,0.091 3.789,0.069 5.781,-0.113 				"/>
				<polygon style="clip-path:url(#SVGID_2_);fill:#D1D1D1;" points="6.263,-0.113 3.789,0.112 3.789,0.091 6.022,-0.113 				"/>
				<polygon style="clip-path:url(#SVGID_2_);fill:#D1D1D1;" points="6.43,-0.106 3.789,0.134 3.789,0.112 6.263,-0.113 
					6.43,-0.113 				"/>
				<polygon style="clip-path:url(#SVGID_2_);fill:#D1D1D1;" points="6.43,-0.084 3.789,0.156 3.789,0.134 6.43,-0.106 				"/>
				<polygon style="clip-path:url(#SVGID_2_);fill:#D1D1D1;" points="6.43,-0.062 3.789,0.178 3.789,0.156 6.43,-0.084 				"/>
				<polygon style="clip-path:url(#SVGID_2_);fill:#D1D1D1;" points="6.43,-0.04 3.789,0.2 3.789,0.178 6.43,-0.062 				"/>
				<polygon style="clip-path:url(#SVGID_2_);fill:#D1D1D1;" points="6.43,-0.018 3.789,0.222 3.789,0.2 6.43,-0.04 				"/>
				<polygon style="clip-path:url(#SVGID_2_);fill:#D1D1D1;" points="6.43,0.004 3.789,0.244 3.789,0.222 6.43,-0.018 				"/>
				<polygon style="clip-path:url(#SVGID_2_);fill:#D1D1D1;" points="6.43,0.026 3.789,0.266 3.789,0.244 6.43,0.004 				"/>
				<polygon style="clip-path:url(#SVGID_2_);fill:#D1D1D1;" points="6.43,0.048 3.789,0.288 3.789,0.266 6.43,0.026 				"/>
				<polygon style="clip-path:url(#SVGID_2_);fill:#D1D1D1;" points="6.43,0.07 3.789,0.31 3.789,0.288 6.43,0.048 				"/>
				<polygon style="clip-path:url(#SVGID_2_);fill:#D1D1D1;" points="6.43,0.092 3.789,0.332 3.789,0.31 6.43,0.07 				"/>
				<polygon style="clip-path:url(#SVGID_2_);fill:#D1D1D1;" points="6.43,0.114 3.789,0.354 3.789,0.332 6.43,0.092 				"/>
				<polygon style="clip-path:url(#SVGID_2_);fill:#D1D1D1;" points="6.43,0.136 3.789,0.376 3.789,0.354 6.43,0.114 				"/>
				<polygon style="clip-path:url(#SVGID_2_);fill:#D1D1D1;" points="6.43,0.157 3.789,0.398 3.789,0.376 6.43,0.136 				"/>
				<polygon style="clip-path:url(#SVGID_2_);fill:#D1D1D1;" points="6.43,0.179 3.789,0.42 3.789,0.398 6.43,0.157 				"/>
				<polygon style="clip-path:url(#SVGID_2_);fill:#D1D1D1;" points="6.43,0.201 3.789,0.442 3.789,0.42 6.43,0.179 				"/>
				<polygon style="clip-path:url(#SVGID_2_);fill:#D1D1D1;" points="6.43,0.223 3.789,0.463 3.789,0.442 6.43,0.201 				"/>
				<polygon style="clip-path:url(#SVGID_2_);fill:#D1D1D1;" points="6.43,0.245 3.789,0.485 3.789,0.463 6.43,0.223 				"/>
				<polygon style="clip-path:url(#SVGID_2_);fill:#D1D1D1;" points="6.43,0.267 3.789,0.507 3.789,0.485 6.43,0.245 				"/>
				<polygon style="clip-path:url(#SVGID_2_);fill:#D1D1D1;" points="6.43,0.289 3.789,0.529 3.789,0.507 6.43,0.267 				"/>
				<polygon style="clip-path:url(#SVGID_2_);fill:#D1D1D1;" points="6.43,0.311 3.789,0.551 3.789,0.529 6.43,0.289 				"/>
				<polygon style="clip-path:url(#SVGID_2_);fill:#D1D1D1;" points="6.43,0.333 3.789,0.573 3.789,0.551 6.43,0.311 				"/>
				<polygon style="clip-path:url(#SVGID_2_);fill:#D1D1D1;" points="6.43,0.355 3.789,0.595 3.789,0.573 6.43,0.333 				"/>
				<polygon style="clip-path:url(#SVGID_2_);fill:#D1D1D1;" points="6.43,0.377 3.789,0.617 3.789,0.595 6.43,0.355 				"/>
				<polygon style="clip-path:url(#SVGID_2_);fill:#D1D1D1;" points="6.43,0.399 3.789,0.639 3.789,0.617 6.43,0.377 				"/>
				<polygon style="clip-path:url(#SVGID_2_);fill:#D1D1D1;" points="6.43,0.421 3.789,0.661 3.789,0.639 6.43,0.399 				"/>
				<polygon style="clip-path:url(#SVGID_2_);fill:#D1D1D1;" points="6.43,0.443 3.789,0.683 3.789,0.661 6.43,0.421 				"/>
				<polygon style="clip-path:url(#SVGID_2_);fill:#D1D1D1;" points="6.43,0.465 3.789,0.705 3.789,0.683 6.43,0.443 				"/>
				<polygon style="clip-path:url(#SVGID_2_);fill:#D1D1D1;" points="6.43,0.487 3.789,0.727 3.789,0.705 6.43,0.465 				"/>
				<polygon style="clip-path:url(#SVGID_2_);fill:#D1D1D1;" points="6.43,0.508 3.789,0.749 3.789,0.727 6.43,0.487 				"/>
				<polygon style="clip-path:url(#SVGID_2_);fill:#D1D1D1;" points="6.43,0.53 3.789,0.771 3.789,0.749 6.43,0.508 				"/>
				<polygon style="clip-path:url(#SVGID_2_);fill:#D1D1D1;" points="6.43,0.552 3.789,0.793 3.789,0.771 6.43,0.53 				"/>
				<polygon style="clip-path:url(#SVGID_2_);fill:#D1D1D1;" points="6.43,0.574 3.789,0.814 3.789,0.793 6.43,0.552 				"/>
				<polygon style="clip-path:url(#SVGID_2_);fill:#D1D1D1;" points="6.43,0.596 3.789,0.836 3.789,0.814 6.43,0.574 				"/>
				<polygon style="clip-path:url(#SVGID_2_);fill:#D1D1D1;" points="6.43,0.618 3.789,0.858 3.789,0.836 6.43,0.596 				"/>
				<polygon style="clip-path:url(#SVGID_2_);fill:#D1D1D1;" points="6.43,0.64 3.789,0.88 3.789,0.858 6.43,0.618 				"/>
				<polygon style="clip-path:url(#SVGID_2_);fill:#D1D1D1;" points="6.43,0.662 3.789,0.902 3.789,0.88 6.43,0.64 				"/>
				<polygon style="clip-path:url(#SVGID_2_);fill:#D1D1D1;" points="6.43,0.684 3.789,0.924 3.789,0.902 6.43,0.662 				"/>
				<polygon style="clip-path:url(#SVGID_2_);fill:#D1D1D1;" points="6.43,0.706 3.789,0.946 3.789,0.924 6.43,0.684 				"/>
				<polygon style="clip-path:url(#SVGID_2_);fill:#D1D1D1;" points="6.43,0.728 3.789,0.968 3.789,0.946 6.43,0.706 				"/>
				<polygon style="clip-path:url(#SVGID_2_);fill:#D1D1D1;" points="6.43,0.75 3.789,0.99 3.789,0.968 6.43,0.728 				"/>
				<polygon style="clip-path:url(#SVGID_2_);fill:#D1D1D1;" points="6.43,0.772 3.789,1.012 3.789,0.99 6.43,0.75 				"/>
				<polygon style="clip-path:url(#SVGID_2_);fill:#D1D1D1;" points="6.43,0.794 3.789,1.034 3.789,1.012 6.43,0.772 				"/>
				<polygon style="clip-path:url(#SVGID_2_);fill:#D1D1D1;" points="6.43,0.816 3.789,1.056 3.789,1.034 6.43,0.794 				"/>
				<polygon style="clip-path:url(#SVGID_2_);fill:#D1D1D1;" points="6.43,0.838 3.789,1.078 3.789,1.056 6.43,0.816 				"/>
				<polygon style="clip-path:url(#SVGID_2_);fill:#D1D1D1;" points="6.43,0.859 3.789,1.1 3.789,1.078 6.43,0.838 				"/>
				<polygon style="clip-path:url(#SVGID_2_);fill:#D1D1D1;" points="6.43,0.881 3.789,1.122 3.789,1.1 6.43,0.859 				"/>
				<polygon style="clip-path:url(#SVGID_2_);fill:#D1D1D1;" points="6.43,0.903 3.789,1.144 3.789,1.122 6.43,0.881 				"/>
				<polygon style="clip-path:url(#SVGID_2_);fill:#D1D1D1;" points="6.43,0.925 3.789,1.165 3.789,1.144 6.43,0.903 				"/>
				<polygon style="clip-path:url(#SVGID_2_);fill:#D1D1D1;" points="6.43,0.947 3.789,1.187 3.789,1.165 6.43,0.925 				"/>
				<polygon style="clip-path:url(#SVGID_2_);fill:#D1D1D1;" points="6.43,0.969 3.789,1.209 3.789,1.187 6.43,0.947 				"/>
				<polygon style="clip-path:url(#SVGID_2_);fill:#D1D1D1;" points="3.789,1.209 6.43,0.969 6.43,2.862 3.789,2.862 				"/>
			</g>
		</g>
	</g>
</g>
<g id="Layer_1">
</g>
</svg>
