<?xml version="1.0" encoding="iso-8859-1"?>
<!-- Generator: Adobe Illustrator 21.0.2, SVG Export Plug-In . SVG Version: 6.00 Build 0)  -->
<svg version="1.1" id="Layer_1" xmlns="http://www.w3.org/2000/svg" xmlns:xlink="http://www.w3.org/1999/xlink" x="0px" y="0px"
	 viewBox="0 0 20 20" style="enable-background:new 0 0 20 20;" xml:space="preserve">
<g>
	<path style="fill:#333333;" d="M16.248,19.799c-0.842,0.172-6.453-0.059-11.024-5.217C0.376,9.113,0.877,2.945,1.066,2.565
		c0.375-0.747,1.176-1.543,2.197-2.184c0.145-0.091,0.3-0.153,0.46-0.186c0.671-0.137,1.299,0.269,1.715,0.537l0.214,0.134
		C6.22,1.194,6.923,4.89,6.894,5.345C6.861,5.876,6.283,6.398,4.89,7.634c0.403,1.375,1.636,3.261,2.619,4.368
		c0.905,1.022,2.855,2.771,4.243,3.372c1.2-1.062,1.811-1.598,2.3-1.698c0.073-0.015,0.144-0.02,0.212-0.016
		c0.455,0.027,4.041,1.169,4.297,1.77l0.108,0.231c0.262,0.539,0.701,1.44,0.088,2.199c-0.76,0.937-1.646,1.637-2.432,1.919
		L16.248,19.799z"/>
	<path style="fill:#333333;" d="M3.757,0.359C4.483,0.21,5.184,0.788,5.569,1.011c0.458,0.264,1.188,3.854,1.159,4.325
		C6.699,5.807,6.074,6.36,4.701,7.578c0.386,1.44,1.685,3.411,2.683,4.534c0.996,1.124,3.016,2.9,4.4,3.456
		c1.217-1.079,1.846-1.636,2.301-1.729c0.058-0.012,0.114-0.016,0.168-0.013c0.471,0.028,3.948,1.183,4.154,1.668
		c0.207,0.485,0.857,1.47,0.219,2.259c-0.639,0.789-1.513,1.563-2.358,1.867c-0.014,0.004-0.031,0.009-0.053,0.014
		c-0.762,0.156-6.345-0.064-10.865-5.164C0.701,9.228,0.981,3.112,1.216,2.64c0.403-0.803,1.278-1.578,2.137-2.117
		C3.487,0.438,3.622,0.386,3.757,0.359 M3.69,0.031L3.69,0.031c-0.18,0.037-0.352,0.107-0.515,0.208
		C2.68,0.551,1.469,1.391,0.917,2.49C0.576,3.174,0.422,9.417,5.1,14.693c4.623,5.217,10.325,5.444,11.181,5.269l0.023-0.005
		l0.076-0.022c1.155-0.415,2.136-1.517,2.505-1.972c0.679-0.841,0.194-1.84-0.068-2.376c-0.04-0.083-0.077-0.158-0.104-0.224
		c-0.311-0.732-4.126-1.853-4.441-1.872c-0.082-0.004-0.168,0.002-0.255,0.02c-0.521,0.106-1.093,0.599-2.297,1.665
		c-1.356-0.626-3.213-2.299-4.088-3.287c-0.947-1.066-2.128-2.862-2.553-4.204c1.372-1.216,1.944-1.744,1.98-2.332
		C7.08,5.04,6.425,1.119,5.736,0.721c-0.061-0.035-0.13-0.08-0.207-0.13C5.091,0.309,4.427-0.119,3.69,0.031L3.69,0.031z"/>
</g>
</svg>
