<?xml version="1.0" encoding="UTF-8" standalone="no"?>
<!DOCTYPE svg PUBLIC "-//W3C//DTD SVG 1.1//EN" "http://www.w3.org/Graphics/SVG/1.1/DTD/svg11.dtd">
<svg width="100%" height="100%" viewBox="0 0 120 72" version="1.1" xmlns="http://www.w3.org/2000/svg" xmlns:xlink="http://www.w3.org/1999/xlink" xml:space="preserve" xmlns:serif="http://www.serif.com/" style="fill-rule:evenodd;clip-rule:evenodd;stroke-linejoin:round;stroke-miterlimit:2;">
    <g transform="matrix(0.93269,0,0,0.894367,1.55934,3.70673)">
        <rect x="-1.672" y="-4.145" width="128.66" height="80.504" style="fill:white;"/>
    </g>
    <g transform="matrix(0.988036,0,0,0.703028,-0.922425,5.16836)">
        <rect x="51.539" y="-7.352" width="20.242" height="102.414" style="fill:rgb(119,159,179);fill-opacity:0.4;"/>
    </g>
    <g transform="matrix(1.0187,0,0,0.883224,2.08913,0.586515)">
        <rect x="-2.051" y="-0.664" width="49.082" height="81.52" style="fill:rgb(198,210,217);fill-opacity:0.4;"/>
    </g>
    <g transform="matrix(1.0187,0,0,0.883224,72.0891,0.586515)">
        <rect x="-2.051" y="-0.664" width="49.082" height="81.52" style="fill:rgb(198,210,217);fill-opacity:0.4;"/>
    </g>
    <g transform="matrix(0.940744,0,0,0.883605,3.50207,4.28169)">
        <path d="M119.761,71.169L119.761,0.624L0.352,0.624L0.352,71.169L119.761,71.169ZM115.332,5.34L4.781,5.34L4.781,66.453L115.332,66.453L115.332,5.34Z" style="fill:rgb(255,0,0);"/>
    </g>
</svg>
