<?xml version="1.0" encoding="iso-8859-1"?>
<!-- Generator: Adobe Illustrator 21.0.2, SVG Export Plug-In . SVG Version: 6.00 Build 0)  -->
<svg version="1.1" id="Layer_1" xmlns="http://www.w3.org/2000/svg" xmlns:xlink="http://www.w3.org/1999/xlink" x="0px" y="0px"
	 viewBox="0 0 16 16" style="enable-background:new 0 0 16 16;" xml:space="preserve">
<g>
	<circle style="fill:#FFFFFF;" cx="8" cy="7.999" r="6.878"/>
	<g>
		<path style="fill:#FFFFFF;" d="M13.655,2.343c-3.122-3.122-8.188-3.122-11.312,0c-3.123,3.123-3.123,8.189,0,11.311
			c3.125,3.126,8.191,3.125,11.312,0C16.782,10.534,16.782,5.466,13.655,2.343z M7.869,1.385c0.846,0,1.533,0.685,1.533,1.531
			c0,0.853-0.687,1.547-1.533,1.547c-0.852,0-1.546-0.693-1.546-1.547C6.324,2.056,7.003,1.385,7.869,1.385z M10.334,12.649
			c0,0.323-0.158,0.48-0.478,0.48H5.903c-0.322,0-0.478-0.157-0.478-0.48v-1.007c0-0.32,0.156-0.477,0.478-0.477h0.731V6.911H5.887
			c-0.321,0-0.478-0.154-0.478-0.476V5.428c0-0.323,0.157-0.479,0.478-0.479h2.759c0.322,0,0.478,0.156,0.478,0.479v5.736h0.731
			c0.32,0,0.478,0.157,0.478,0.477V12.649z"/>
	</g>
	<g>
		<path style="fill:#25B7E0;" d="M13.655,2.343c-3.122-3.122-8.188-3.122-11.312,0c-3.123,3.123-3.123,8.189,0,11.311
			c3.125,3.126,8.191,3.125,11.312,0C16.782,10.534,16.782,5.466,13.655,2.343z M7.869,1.385c0.846,0,1.533,0.685,1.533,1.531
			c0,0.853-0.687,1.547-1.533,1.547c-0.852,0-1.546-0.693-1.546-1.547C6.324,2.056,7.003,1.385,7.869,1.385z M10.334,12.649
			c0,0.323-0.158,0.48-0.478,0.48H5.903c-0.322,0-0.478-0.157-0.478-0.48v-1.007c0-0.32,0.156-0.477,0.478-0.477h0.731V6.911H5.887
			c-0.321,0-0.478-0.154-0.478-0.476V5.428c0-0.323,0.157-0.479,0.478-0.479h2.759c0.322,0,0.478,0.156,0.478,0.479v5.736h0.731
			c0.32,0,0.478,0.157,0.478,0.477V12.649z"/>
	</g>
	<circle style="fill:#FFFFFF;" cx="8" cy="7.999" r="6.878"/>
	<g>
		<path style="fill:#FFFFFF;" d="M13.655,2.343c-3.122-3.122-8.188-3.122-11.312,0c-3.123,3.123-3.123,8.189,0,11.311
			c3.125,3.126,8.191,3.125,11.312,0C16.782,10.534,16.782,5.466,13.655,2.343z M7.869,1.385c0.846,0,1.533,0.685,1.533,1.531
			c0,0.853-0.687,1.547-1.533,1.547c-0.852,0-1.546-0.693-1.546-1.547C6.324,2.056,7.003,1.385,7.869,1.385z M10.334,12.649
			c0,0.323-0.158,0.48-0.478,0.48H5.903c-0.322,0-0.478-0.157-0.478-0.48v-1.007c0-0.32,0.156-0.477,0.478-0.477h0.731V6.911H5.887
			c-0.321,0-0.478-0.154-0.478-0.476V5.428c0-0.323,0.157-0.479,0.478-0.479h2.759c0.322,0,0.478,0.156,0.478,0.479v5.736h0.731
			c0.32,0,0.478,0.157,0.478,0.477V12.649z"/>
	</g>
	<g>
		<path style="fill:#25B7E0;" d="M13.655,2.343c-3.122-3.122-8.188-3.122-11.312,0c-3.123,3.123-3.123,8.189,0,11.311
			c3.125,3.126,8.191,3.125,11.312,0C16.782,10.534,16.782,5.466,13.655,2.343z M7.869,1.385c0.846,0,1.533,0.685,1.533,1.531
			c0,0.853-0.687,1.547-1.533,1.547c-0.852,0-1.546-0.693-1.546-1.547C6.324,2.056,7.003,1.385,7.869,1.385z M10.334,12.649
			c0,0.323-0.158,0.48-0.478,0.48H5.903c-0.322,0-0.478-0.157-0.478-0.48v-1.007c0-0.32,0.156-0.477,0.478-0.477h0.731V6.911H5.887
			c-0.321,0-0.478-0.154-0.478-0.476V5.428c0-0.323,0.157-0.479,0.478-0.479h2.759c0.322,0,0.478,0.156,0.478,0.479v5.736h0.731
			c0.32,0,0.478,0.157,0.478,0.477V12.649z"/>
	</g>
</g>
</svg>
