<?xml version="1.0" encoding="UTF-8" standalone="no"?>
<!DOCTYPE svg PUBLIC "-//W3C//DTD SVG 1.1//EN" "http://www.w3.org/Graphics/SVG/1.1/DTD/svg11.dtd">
<svg width="100%" height="100%" viewBox="0 0 11 16" version="1.1" xmlns="http://www.w3.org/2000/svg" xmlns:xlink="http://www.w3.org/1999/xlink" xml:space="preserve" xmlns:serif="http://www.serif.com/" style="fill-rule:evenodd;clip-rule:evenodd;stroke-linejoin:round;stroke-miterlimit:2;">
    <path d="M9,0L2,0C0.9,0 0,0.901 0,2L0,14C0,15.1 0.9,16 2,16L9,16C10.1,16 11,15.1 11,14L11,2C11,0.901 10.1,0 9,0ZM4,1L7,1C7.276,1 7.5,1.224 7.5,1.5C7.5,1.776 7.276,2 7,2L4,2C3.724,2 3.5,1.776 3.5,1.5C3.5,1.224 3.724,1 4,1ZM5.5,15.279C5.07,15.279 4.721,14.93 4.721,14.5C4.721,14.07 5.07,13.722 5.5,13.722C5.93,13.722 6.279,14.07 6.279,14.5C6.279,14.931 5.93,15.279 5.5,15.279ZM9,13L2,13L2,3L9,3L9,13Z" style="fill:rgb(232,105,32);fill-rule:nonzero;"/>
    <g transform="matrix(0.0101503,0,0,0.0101503,-0.59161,1.90372)">
        <path d="M528,838.8C538.801,849.601 555.602,849.601 565.199,838.8L621.597,782.402C632.398,771.601 632.398,754.8 621.597,745.203L543.597,667.203L873.597,667.203C887.995,667.203 899.995,655.203 899.995,640.805L899.995,560.407C899.995,546.009 887.995,534.009 873.597,534.009L543.597,534.001L621.597,456.001C632.398,445.2 632.398,428.399 621.597,418.802L565.199,362.404C554.398,351.603 537.597,351.603 528,362.404L308.39,580.804C297.589,591.605 297.589,608.406 308.39,618.003L528,838.8Z" style="fill:rgb(232,105,32);fill-rule:nonzero;"/>
    </g>
</svg>
