<?xml version="1.0" encoding="iso-8859-1"?>
<!-- Generator: Adobe Illustrator 21.0.2, SVG Export Plug-In . SVG Version: 6.00 Build 0)  -->
<svg version="1.1" xmlns="http://www.w3.org/2000/svg" xmlns:xlink="http://www.w3.org/1999/xlink" x="0px" y="0px"
	 viewBox="0 0 19.873 17.054" style="enable-background:new 0 0 19.873 17.054;" xml:space="preserve">
<g id="icon-modules-version-controlled">
	<g>
		<g>
			<g>
				<g>
					<path style="fill:#FFFFFF;" d="M17.497,3.842c0.534,0,0.97,0.437,0.97,0.97v9.864c0,0.534-0.437,0.97-0.97,0.97H2.377
						c-0.534,0-0.97-0.437-0.97-0.97V4.813c0-0.534,0.437-0.97,0.97-0.97H17.497 M17.497,2.436H2.377C1.066,2.436,0,3.502,0,4.813
						v9.864c0,1.311,1.066,2.377,2.377,2.377h15.12c1.311,0,2.377-1.066,2.377-2.377V4.813C19.873,3.502,18.807,2.436,17.497,2.436
						L17.497,2.436z"/>
				</g>
			</g>
			<g>
				<g>
					<path style="fill:#FFFFFF;" d="M8.483,2.534H7.428V1.108c0-0.029-0.024-0.053-0.053-0.053h-2.8
						c-0.029,0-0.053,0.024-0.053,0.053v1.426H3.466V1.108C3.466,0.497,3.964,0,4.575,0h2.8c0.611,0,1.108,0.497,1.108,1.108V2.534z
						"/>
				</g>
			</g>
			<g>
				<g>
					<path style="fill:#FFFFFF;" d="M16.326,2.534h-1.055V1.108c0-0.029-0.024-0.053-0.054-0.053h-2.8
						c-0.03,0-0.054,0.024-0.054,0.053v1.426h-1.055V1.108C11.309,0.497,11.807,0,12.418,0h2.8c0.611,0,1.108,0.497,1.108,1.108
						V2.534z"/>
				</g>
			</g>
		</g>
		<g>
			<polygon style="fill:#FFFFFF;" points="16.175,9.67 10.549,5.651 10.549,13.688 16.175,9.67 10.549,5.651 10.549,13.688 			"/>
		</g>
		<g>
			<path style="fill:#FFFFFF;" d="M4.897,13.869V5.47l5.879,4.2L4.897,13.869z M5.6,6.837v5.666L9.566,9.67L5.6,6.837z"/>
		</g>
	</g>
</g>
<g id="Layer_1">
</g>
</svg>
