<?xml version="1.0" encoding="UTF-8" standalone="no"?>
<!DOCTYPE svg PUBLIC "-//W3C//DTD SVG 1.1//EN" "http://www.w3.org/Graphics/SVG/1.1/DTD/svg11.dtd">
<svg width="100%" height="100%" viewBox="0 0 16 14" version="1.1" xmlns="http://www.w3.org/2000/svg" xmlns:xlink="http://www.w3.org/1999/xlink" xml:space="preserve" xmlns:serif="http://www.serif.com/" style="fill-rule:evenodd;clip-rule:evenodd;stroke-linejoin:round;stroke-miterlimit:2;">
    <g>
        <path d="M15.1,3.1L0.9,3.1C0.4,3.1 0,3.5 0,4L0,13.1C0,13.6 0.4,14 0.9,14L15.1,14C15.6,14 16,13.6 16,13.1L16,4C16,3.5 15.6,3.1 15.1,3.1Z" style="fill:white;fill-rule:nonzero;"/>
        <path d="M6.1,2.5L6.1,0.5C6.1,0.2 5.9,0 5.6,0L3,0C2.7,0 2.4,0.2 2.4,0.5L2.4,2.4L6.1,2.4L6.1,2.5Z" style="fill:white;fill-rule:nonzero;"/>
        <path d="M13.5,2.5L13.5,0.5C13.5,0.2 13.3,0 13,0L10.4,0C10,0 9.8,0.2 9.8,0.5L9.8,2.4L13.5,2.4L13.5,2.5Z" style="fill:white;fill-rule:nonzero;"/>
        <g transform="matrix(0.5,0,0,0.4,4,4.8)">
            <rect x="0" y="5.5" width="16" height="5" style="fill:rgb(255,0,0);"/>
        </g>
        <g transform="matrix(2.75546e-17,-0.5,0.4,2.78947e-17,4.8,12)">
            <rect x="0" y="5.5" width="16" height="5" style="fill:rgb(255,0,0);"/>
        </g>
    </g>
</svg>
