<?xml version="1.0" encoding="UTF-8" standalone="no"?><!DOCTYPE svg PUBLIC "-//W3C//DTD SVG 1.1//EN" "http://www.w3.org/Graphics/SVG/1.1/DTD/svg11.dtd"><svg width="100%" height="100%" viewBox="0 0 67 59" version="1.1" xmlns="http://www.w3.org/2000/svg" xmlns:xlink="http://www.w3.org/1999/xlink" xml:space="preserve" xmlns:serif="http://www.serif.com/" style="fill-rule:evenodd;clip-rule:evenodd;stroke-linejoin:round;stroke-miterlimit:2;"><g><path d="M62.917,12.917l-59.167,-0c-2.083,-0 -3.75,1.666 -3.75,3.75l0,37.916c0,2.084 1.667,3.75 3.75,3.75l59.167,0c2.083,0 3.75,-1.666 3.75,-3.75l-0,-37.916c-0,-2.084 -1.667,-3.75 -3.75,-3.75Z" style="fill:#fff;fill-rule:nonzero;"/><path d="M25.417,10.417l-0,-8.334c-0,-1.25 -0.834,-2.083 -2.084,-2.083l-10.833,0c-1.25,0 -2.5,0.833 -2.5,2.083l-0,7.917l15.417,0l-0,0.417Z" style="fill:#fff;fill-rule:nonzero;"/><path d="M56.25,10.417l0,-8.334c0,-1.25 -0.833,-2.083 -2.083,-2.083l-10.834,0c-1.666,0 -2.5,0.833 -2.5,2.083l0,7.917l15.417,0l0,0.417Z" style="fill:#fff;fill-rule:nonzero;"/><g><g><path d="M52.571,36.911l-18.001,-13.862l-0,27.721l18.001,-13.859l-18.001,-13.862l-0,27.721l18.001,-13.859Z" style="fill-rule:nonzero;"/></g><g><path d="M36.727,36.911l-18.001,-13.862l-0,27.721l18.001,-13.859l-18.001,-13.862l-0,27.721l18.001,-13.859Z" style="fill-rule:nonzero;"/></g></g></g></svg>