<?xml version="1.0" encoding="utf-8"?>
<!-- Generator: Adobe Illustrator 21.0.2, SVG Export Plug-In . SVG Version: 6.00 Build 0)  -->
<svg version="1.1" id="Layer_2" xmlns="http://www.w3.org/2000/svg" xmlns:xlink="http://www.w3.org/1999/xlink" x="0px" y="0px"
	 viewBox="0 0 16 14" style="enable-background:new 0 0 16 14;" xml:space="preserve">
<style type="text/css">
	.st0{fill:#FFFFFF;}
</style>
<g>
	<path class="st0" d="M15.1,3.1H0.9C0.4,3.1,0,3.5,0,4v9.1C0,13.6,0.4,14,0.9,14h14.2c0.5,0,0.9-0.4,0.9-0.9V4
		C16,3.5,15.6,3.1,15.1,3.1z"/>
	<path class="st0" d="M6.1,2.5c0,0,0-0.6,0-0.6V0.5C6.1,0.2,5.9,0,5.6,0H3C2.7,0,2.4,0.2,2.4,0.5v1.3c0,0,0,0.6,0,0.6H6.1z"/>
	<path class="st0" d="M13.5,2.5c0,0,0-0.6,0-0.6V0.5C13.5,0.2,13.3,0,13,0h-2.6C10,0,9.8,0.2,9.8,0.5v1.3c0,0,0,0.6,0,0.6H13.5z"/>
</g>
</svg>
