<?xml version="1.0" encoding="iso-8859-1"?>
<!-- Generator: Adobe Illustrator 21.0.2, SVG Export Plug-In . SVG Version: 6.00 Build 0)  -->
<svg version="1.1" xmlns="http://www.w3.org/2000/svg" xmlns:xlink="http://www.w3.org/1999/xlink" x="0px" y="0px"
	 viewBox="0 0 20 20" style="enable-background:new 0 0 20 20;" xml:space="preserve">
<g id="icon-scheduled-tasks">
	<g>
		<g>
			<path style="fill:#333333;" d="M10.001,2.909c3.911,0,7.09,3.181,7.09,7.092c0,3.909-3.18,7.09-7.09,7.09
				c-3.909,0-7.092-3.181-7.092-7.09C2.909,6.09,6.092,2.909,10.001,2.909 M10.001,0C4.479,0,0,4.479,0,10.001
				C0,15.523,4.479,20,10.001,20C15.523,20,20,15.523,20,10.001C20,4.479,15.523,0,10.001,0L10.001,0z"/>
		</g>
		<g>
			<path style="fill:#333333;" d="M9.075,9.854c0-0.402,0.325-0.727,0.727-0.727h3.626c0.401,0,0.727,0.325,0.727,0.727
				c0,0.401-0.326,0.727-0.727,0.727H9.803C9.4,10.581,9.075,10.255,9.075,9.854z"/>
		</g>
		<g>
			<path style="fill:#333333;" d="M9.803,10.581c-0.402,0-0.727-0.325-0.727-0.727v-4.82c0-0.401,0.325-0.727,0.727-0.727
				c0.401,0,0.727,0.326,0.727,0.727v4.82C10.53,10.257,10.204,10.581,9.803,10.581z"/>
		</g>
	</g>
</g>
<g id="Layer_1">
</g>
</svg>
