<?xml version="1.0" encoding="UTF-8" standalone="no"?>
<!DOCTYPE svg PUBLIC "-//W3C//DTD SVG 1.1//EN" "http://www.w3.org/Graphics/SVG/1.1/DTD/svg11.dtd">
<svg width="100%" height="100%" viewBox="0 0 65 47" version="1.1" xmlns="http://www.w3.org/2000/svg" xmlns:xlink="http://www.w3.org/1999/xlink" xml:space="preserve" xmlns:serif="http://www.serif.com/" style="fill-rule:evenodd;clip-rule:evenodd;stroke-linejoin:round;stroke-miterlimit:2;">
    <g transform="matrix(1.25875,0,0,1.24664,-4.19474,-5.04756)">
        <path d="M46.242,9.678C46.242,6.562 43.737,4.032 40.651,4.032L8.958,4.032C5.872,4.032 3.366,6.562 3.366,9.678L3.366,36.113C3.366,39.229 5.872,41.759 8.958,41.759L40.651,41.759C43.737,41.759 46.242,39.229 46.242,36.113L46.242,9.678Z" style="fill:rgb(250,250,250);"/>
    </g>
    <g transform="matrix(1,0,0,0.781017,0,0.0854309)">
        <rect x="39.492" y="-0.109" width="14.51" height="60.178" style="fill:rgb(250,250,250);"/>
    </g>
    <g transform="matrix(1,0,0,1,-46.4611,14.2598)">
        <g transform="matrix(10,0,0,10,57.3388,24.7855)">
            <path d="M0.073,-0L0.073,-0.716L0.168,-0.716L0.168,-0.084L0.521,-0.084L0.521,-0L0.073,-0Z" style="fill-rule:nonzero;"/>
        </g>
        <g transform="matrix(10,0,0,10,62.9003,24.7855)">
            <path d="M0.048,-0.349C0.048,-0.467 0.08,-0.56 0.144,-0.628C0.208,-0.695 0.29,-0.729 0.391,-0.729C0.457,-0.729 0.517,-0.713 0.57,-0.681C0.623,-0.65 0.663,-0.606 0.691,-0.549C0.719,-0.493 0.733,-0.429 0.733,-0.357C0.733,-0.284 0.718,-0.219 0.689,-0.162C0.66,-0.105 0.618,-0.061 0.564,-0.032C0.511,-0.003 0.453,0.012 0.391,0.012C0.323,0.012 0.263,-0.004 0.21,-0.037C0.157,-0.069 0.117,-0.114 0.089,-0.17C0.062,-0.226 0.048,-0.286 0.048,-0.349ZM0.146,-0.347C0.146,-0.261 0.169,-0.193 0.216,-0.143C0.262,-0.094 0.32,-0.069 0.39,-0.069C0.461,-0.069 0.52,-0.094 0.566,-0.144C0.612,-0.194 0.635,-0.265 0.635,-0.357C0.635,-0.416 0.625,-0.467 0.606,-0.51C0.586,-0.553 0.557,-0.587 0.519,-0.611C0.481,-0.635 0.439,-0.647 0.392,-0.647C0.325,-0.647 0.267,-0.624 0.219,-0.578C0.17,-0.532 0.146,-0.455 0.146,-0.347Z" style="fill-rule:nonzero;"/>
        </g>
        <g transform="matrix(10,0,0,10,70.6786,24.7855)">
            <path d="M0.412,-0.281L0.412,-0.365L0.715,-0.365L0.715,-0.1C0.669,-0.063 0.621,-0.035 0.571,-0.016C0.522,0.003 0.471,0.012 0.419,0.012C0.349,0.012 0.285,-0.003 0.227,-0.033C0.17,-0.063 0.126,-0.107 0.097,-0.164C0.068,-0.221 0.053,-0.284 0.053,-0.354C0.053,-0.424 0.068,-0.489 0.097,-0.55C0.126,-0.61 0.168,-0.655 0.223,-0.684C0.277,-0.713 0.34,-0.728 0.412,-0.728C0.463,-0.728 0.51,-0.72 0.552,-0.703C0.594,-0.686 0.627,-0.663 0.65,-0.633C0.674,-0.603 0.692,-0.564 0.705,-0.516L0.619,-0.492C0.608,-0.529 0.595,-0.557 0.579,-0.578C0.563,-0.599 0.54,-0.616 0.511,-0.628C0.481,-0.641 0.448,-0.647 0.412,-0.647C0.369,-0.647 0.331,-0.64 0.3,-0.627C0.268,-0.614 0.243,-0.597 0.223,-0.575C0.204,-0.554 0.189,-0.53 0.178,-0.504C0.16,-0.46 0.151,-0.412 0.151,-0.36C0.151,-0.297 0.162,-0.243 0.184,-0.2C0.206,-0.157 0.238,-0.125 0.28,-0.104C0.322,-0.084 0.366,-0.073 0.414,-0.073C0.455,-0.073 0.495,-0.081 0.534,-0.097C0.573,-0.113 0.602,-0.13 0.623,-0.147L0.623,-0.281L0.412,-0.281Z" style="fill-rule:nonzero;"/>
        </g>
        <g transform="matrix(10,0,0,10,78.4569,24.7855)">
            <rect x="0.093" y="-0.716" width="0.095" height="0.716" style="fill-rule:nonzero;"/>
        </g>
        <g transform="matrix(10,0,0,10,81.2353,24.7855)">
            <path d="M0.076,-0L0.076,-0.716L0.173,-0.716L0.549,-0.154L0.549,-0.716L0.64,-0.716L0.64,-0L0.543,-0L0.167,-0.563L0.167,-0L0.076,-0Z" style="fill-rule:nonzero;"/>
        </g>
    </g>
    <g transform="matrix(0.593577,0,0,0.593577,26.8404,14.9795)">
        <g transform="matrix(1,0,0,1,-21,-15.5)">
            <clipPath id="_clip1">
                <rect x="0" y="0" width="42" height="31"/>
            </clipPath>
            <g clip-path="url(#_clip1)">
                <g transform="matrix(1,0,0,1,-54.3622,-0.35)">
                    <g>
                        <path d="M76.5,30C75.9,30.6 74.8,30.6 74.1,30L63.8,20.2C63.3,19.8 63.5,19.1 64.1,18.7L74.4,11.9C74.9,11.6 75.6,11.6 76.1,11.9L86.4,18.7C87,19.1 87.2,19.8 86.7,20.2L76.5,30Z" style="fill:rgb(27,117,186);fill-rule:nonzero;"/>
                        <path d="M89.2,17.9C88.8,18.3 87.9,18.3 87.3,17.9L77,11.3C76.5,11 76.5,10.5 77,10.2L84.3,5.3C84.6,5.1 85.3,5.1 85.7,5.3L95.5,10.2C96.1,10.5 96.3,11 96,11.3L89.2,17.9Z" style="fill:rgb(80,184,85);fill-rule:nonzero;"/>
                        <path d="M63.3,17.9C62.7,18.3 61.8,18.3 61.4,17.9L54.5,11.3C54.2,11 54.4,10.5 55,10.2L64.8,5.3C65.3,5.1 65.9,5.1 66.2,5.3L73.5,10.2C73.9,10.5 73.9,11 73.5,11.3L63.3,17.9Z" style="fill:rgb(80,184,85);fill-rule:nonzero;"/>
                        <path d="M76.1,9.6C75.7,9.9 74.9,9.9 74.5,9.6L67.2,4.9C66.9,4.7 66.9,4.3 67.4,4.1L74.8,0.5C75.1,0.3 75.7,0.3 76.1,0.5L83.5,4.1C83.9,4.3 84,4.7 83.7,4.9L76.1,9.6Z" style="fill:rgb(80,184,85);fill-rule:nonzero;"/>
                    </g>
                </g>
            </g>
        </g>
    </g>
</svg>
