<?xml version="1.0" encoding="UTF-8" standalone="no"?>
<!DOCTYPE svg PUBLIC "-//W3C//DTD SVG 1.1//EN" "http://www.w3.org/Graphics/SVG/1.1/DTD/svg11.dtd">
<svg width="65px" height="47px" version="1.1" xmlns="http://www.w3.org/2000/svg" xmlns:xlink="http://www.w3.org/1999/xlink" xml:space="preserve" xmlns:serif="http://www.serif.com/" style="fill-rule:evenodd;clip-rule:evenodd;stroke-linejoin:round;stroke-miterlimit:2;">
    <g transform="matrix(1.25875,0,0,1.24664,-4.19474,-5.04756)">
        <path d="M46.242,9.678C46.242,6.562 43.737,4.032 40.651,4.032L8.958,4.032C5.872,4.032 3.366,6.562 3.366,9.678L3.366,36.113C3.366,39.229 5.872,41.759 8.958,41.759L40.651,41.759C43.737,41.759 46.242,39.229 46.242,36.113L46.242,9.678Z" style="fill:rgb(250,250,250);"/>
    </g>
    <g transform="matrix(1,0,0,0.781017,0,0.0854309)">
        <rect x="39.492" y="-0.109" width="14.51" height="60.178" style="fill:rgb(250,250,250);"/>
    </g>
    <g transform="matrix(1,0,0,1,-1.37421,13.1578)">
        <g transform="matrix(13,0,0,13,11.1101,25.2277)">
            <path d="M0.073,-0L0.073,-0.716L0.168,-0.716L0.168,-0.084L0.521,-0.084L0.521,-0L0.073,-0Z" style="fill-rule:nonzero;"/>
        </g>
        <g transform="matrix(13,0,0,13,18.3401,25.2277)">
            <path d="M0.033,-0.259C0.033,-0.355 0.06,-0.426 0.113,-0.473C0.158,-0.511 0.212,-0.53 0.276,-0.53C0.348,-0.53 0.406,-0.507 0.451,-0.46C0.496,-0.413 0.519,-0.349 0.519,-0.267C0.519,-0.2 0.509,-0.147 0.489,-0.109C0.469,-0.071 0.44,-0.041 0.402,-0.02C0.363,0.001 0.322,0.012 0.276,0.012C0.204,0.012 0.145,-0.012 0.1,-0.058C0.056,-0.105 0.033,-0.172 0.033,-0.259ZM0.124,-0.259C0.124,-0.193 0.138,-0.143 0.167,-0.11C0.196,-0.077 0.232,-0.061 0.276,-0.061C0.32,-0.061 0.356,-0.077 0.385,-0.11C0.414,-0.144 0.429,-0.194 0.429,-0.262C0.429,-0.326 0.414,-0.375 0.385,-0.408C0.356,-0.441 0.32,-0.458 0.276,-0.458C0.232,-0.458 0.196,-0.441 0.167,-0.408C0.138,-0.375 0.124,-0.326 0.124,-0.259Z" style="fill-rule:nonzero;"/>
        </g>
        <g transform="matrix(13,0,0,13,25.5701,25.2277)">
            <path d="M0.05,0.043L0.135,0.056C0.139,0.082 0.149,0.101 0.165,0.113C0.187,0.13 0.217,0.138 0.254,0.138C0.295,0.138 0.326,0.13 0.349,0.113C0.371,0.097 0.386,0.074 0.394,0.045C0.398,0.027 0.4,-0.011 0.4,-0.068C0.361,-0.023 0.314,-0 0.256,-0C0.185,-0 0.13,-0.026 0.091,-0.077C0.052,-0.129 0.032,-0.19 0.032,-0.262C0.032,-0.312 0.041,-0.357 0.059,-0.399C0.077,-0.441 0.103,-0.473 0.137,-0.496C0.171,-0.519 0.211,-0.53 0.257,-0.53C0.318,-0.53 0.368,-0.506 0.408,-0.456L0.408,-0.519L0.489,-0.519L0.489,-0.07C0.489,0.01 0.481,0.068 0.465,0.101C0.448,0.135 0.422,0.162 0.386,0.181C0.351,0.201 0.307,0.21 0.255,0.21C0.193,0.21 0.143,0.197 0.105,0.169C0.067,0.141 0.049,0.099 0.05,0.043ZM0.123,-0.269C0.123,-0.201 0.136,-0.151 0.163,-0.12C0.19,-0.088 0.224,-0.073 0.265,-0.073C0.305,-0.073 0.339,-0.088 0.366,-0.119C0.394,-0.15 0.407,-0.199 0.407,-0.266C0.407,-0.329 0.393,-0.377 0.365,-0.409C0.337,-0.441 0.303,-0.458 0.263,-0.458C0.224,-0.458 0.191,-0.442 0.164,-0.41C0.136,-0.378 0.123,-0.331 0.123,-0.269Z" style="fill-rule:nonzero;"/>
        </g>
        <g transform="matrix(13,0,0,13,32.8001,25.2277)">
            <path d="M0.066,-0.615L0.066,-0.716L0.154,-0.716L0.154,-0.615L0.066,-0.615ZM0.066,-0L0.066,-0.519L0.154,-0.519L0.154,-0L0.066,-0Z" style="fill-rule:nonzero;"/>
        </g>
        <g transform="matrix(13,0,0,13,35.6883,25.2277)">
            <path d="M0.066,-0L0.066,-0.519L0.145,-0.519L0.145,-0.445C0.183,-0.502 0.238,-0.53 0.31,-0.53C0.341,-0.53 0.37,-0.525 0.396,-0.513C0.422,-0.502 0.442,-0.487 0.455,-0.469C0.468,-0.451 0.477,-0.429 0.482,-0.404C0.486,-0.388 0.487,-0.36 0.487,-0.319L0.487,-0L0.399,-0L0.399,-0.315C0.399,-0.351 0.396,-0.378 0.389,-0.396C0.382,-0.413 0.37,-0.428 0.353,-0.438C0.335,-0.449 0.315,-0.454 0.292,-0.454C0.254,-0.454 0.222,-0.442 0.195,-0.418C0.167,-0.395 0.154,-0.35 0.154,-0.283L0.154,-0L0.066,-0Z" style="fill-rule:nonzero;"/>
        </g>
    </g>
    <g transform="matrix(0.593577,0,0,0.593577,-17.8929,5.5713)">
        <g>
            <g>
                <g>
                    <g>
                        <path d="M76.5,30C75.9,30.6 74.8,30.6 74.1,30L63.8,20.2C63.3,19.8 63.5,19.1 64.1,18.7L74.4,11.9C74.9,11.6 75.6,11.6 76.1,11.9L86.4,18.7C87,19.1 87.2,19.8 86.7,20.2L76.5,30Z" style="fill:rgb(27,117,186);fill-rule:nonzero;"/>
                        <path d="M89.2,17.9C88.8,18.3 87.9,18.3 87.3,17.9L77,11.3C76.5,11 76.5,10.5 77,10.2L84.3,5.3C84.6,5.1 85.3,5.1 85.7,5.3L95.5,10.2C96.1,10.5 96.3,11 96,11.3L89.2,17.9Z" style="fill:rgb(80,184,85);fill-rule:nonzero;"/>
                        <path d="M63.3,17.9C62.7,18.3 61.8,18.3 61.4,17.9L54.5,11.3C54.2,11 54.4,10.5 55,10.2L64.8,5.3C65.3,5.1 65.9,5.1 66.2,5.3L73.5,10.2C73.9,10.5 73.9,11 73.5,11.3L63.3,17.9Z" style="fill:rgb(80,184,85);fill-rule:nonzero;"/>
                        <path d="M76.1,9.6C75.7,9.9 74.9,9.9 74.5,9.6L67.2,4.9C66.9,4.7 66.9,4.3 67.4,4.1L74.8,0.5C75.1,0.3 75.7,0.3 76.1,0.5L83.5,4.1C83.9,4.3 84,4.7 83.7,4.9L76.1,9.6Z" style="fill:rgb(80,184,85);fill-rule:nonzero;"/>
                    </g>
                </g>
            </g>
        </g>
    </g>
</svg>
