<?xml version="1.0" encoding="UTF-8" standalone="no"?>
<!DOCTYPE svg PUBLIC "-//W3C//DTD SVG 1.1//EN" "http://www.w3.org/Graphics/SVG/1.1/DTD/svg11.dtd">
<svg width="90px" height="40px" version="1.1" xmlns="http://www.w3.org/2000/svg" xmlns:xlink="http://www.w3.org/1999/xlink" xml:space="preserve" xmlns:serif="http://www.serif.com/" style="fill-rule:evenodd;clip-rule:evenodd;stroke-linejoin:round;stroke-miterlimit:2;">
    <g transform="matrix(1,0,0,1,-5,-30)">
        <g id="a">
            <path d="M94.65,49.05C95.117,48.55 95.117,48.067 94.65,47.6L86.4,39.45L42.6,39.45C41.767,38.183 40.783,36.983 39.65,35.85C35.683,31.95 30.9,30 25.3,30C19.7,30 14.917,31.95 10.95,35.85C6.983,39.75 5,44.467 5,50C5,55.533 6.983,60.25 10.95,64.15C14.917,68.05 19.7,70 25.3,70C30.9,70 35.683,68.05 39.65,64.15C40.817,63.017 41.8,61.817 42.6,60.55L52.5,60.55L58.9,54.25C59.067,54.083 59.233,54.083 59.4,54.25L63.95,58.7C64.15,58.933 64.367,58.933 64.6,58.7L69.1,54.25C69.2,54.15 69.333,54.15 69.5,54.25L74.05,58.7C74.283,58.9 74.5,58.9 74.7,58.7L79.2,54.25C79.367,54.083 79.533,54.083 79.7,54.25L84.25,58.7C84.45,58.9 84.65,58.9 84.85,58.7L94.65,49.05M12.95,46.3C14.017,45.267 15.283,44.75 16.75,44.75C18.217,44.75 19.483,45.267 20.55,46.3C21.583,47.333 22.1,48.567 22.1,50C22.1,51.467 21.583,52.717 20.55,53.75C19.483,54.783 18.217,55.3 16.75,55.3C15.283,55.3 14.017,54.783 12.95,53.75C11.917,52.717 11.4,51.467 11.4,50C11.4,48.567 11.917,47.333 12.95,46.3Z" style="fill:rgb(51,51,51);fill-rule:nonzero;"/>
        </g>
    </g>
</svg>
