<?xml version="1.0" encoding="UTF-8" standalone="no"?>
<!DOCTYPE svg PUBLIC "-//W3C//DTD SVG 1.1//EN" "http://www.w3.org/Graphics/SVG/1.1/DTD/svg11.dtd">
<svg width="307px" height="1056px" version="1.1" xmlns="http://www.w3.org/2000/svg" xmlns:xlink="http://www.w3.org/1999/xlink" xml:space="preserve" xmlns:serif="http://www.serif.com/" style="fill-rule:evenodd;clip-rule:evenodd;stroke-linejoin:round;stroke-miterlimit:2;">
    <g transform="matrix(6.12323e-17,-1,-1,-6.12323e-17,793.79,1128.01)">
        <path d="M959.38,415.62L1000.83,487.401L959.38,559.186L876.497,559.186L835.048,487.401L876.497,415.62L959.38,415.62" style="fill:rgb(237,241,242);fill-rule:nonzero;"/>
        <path d="M973.59,564.11L1012.19,497.243L1089.4,497.243L1128,564.11L1089.4,630.973L1012.19,630.973L973.59,564.11" style="fill:rgb(237,241,242);fill-rule:nonzero;"/>
        <path d="M959.38,712.6L876.497,712.6L835.048,640.815L876.497,569.03L959.38,569.03L1000.83,640.815L959.38,712.6" style="fill:rgb(237,241,242);fill-rule:nonzero;"/>
        <path d="M1012.2,784.38L973.598,717.517L1012.2,650.654L1089.41,650.654L1128.01,717.517L1089.41,784.38L1012.2,784.38" style="fill:rgb(237,241,242);fill-rule:nonzero;"/>
        <path d="M959.38,866L876.497,866L835.048,794.215L876.497,722.434L959.38,722.434L1000.83,794.215L959.38,866" style="fill:rgb(237,241,242);fill-rule:nonzero;"/>
        <path d="M862.29,564.11L823.685,630.973L746.478,630.973L707.873,564.11L746.478,497.243L823.685,497.243L862.29,564.11" style="fill:rgb(237,241,242);fill-rule:nonzero;"/>
        <path d="M616.46,425.46L687.98,425.46L723.738,487.401L687.98,549.346L616.46,549.346L580.698,487.401L616.46,425.46" style="fill:rgb(237,241,242);fill-rule:nonzero;"/>
        <path d="M486.45,507.09L552.294,507.09L585.22,564.113L552.294,621.136L486.45,621.136L453.532,564.113L486.45,507.09" style="fill:rgb(237,241,242);fill-rule:nonzero;"/>
        <path d="M356.43,435.3L416.598,435.3L446.68,487.402L416.598,539.507L356.43,539.507L326.356,487.402L356.43,435.3" style="fill:rgb(237,241,242);fill-rule:nonzero;"/>
        <path d="M308.14,564.11L280.898,611.294L226.418,611.294L199.18,564.11L226.418,516.926L280.898,516.926L308.14,564.11" style="fill:rgb(237,241,242);fill-rule:nonzero;"/>
        <path d="M72,487.4L96.395,445.138L145.2,445.138L169.598,487.4L145.2,529.666L96.395,529.666L72,487.4" style="fill:rgb(237,241,242);fill-rule:nonzero;"/>
        <path d="M72,640.81L96.395,598.544L145.2,598.544L169.598,640.81L145.2,683.072L96.395,683.072L72,640.81" style="fill:rgb(237,241,242);fill-rule:nonzero;"/>
        <path d="M356.43,692.91L326.356,640.808L356.43,588.703L416.598,588.703L446.68,640.808L416.598,692.91L356.43,692.91" style="fill:rgb(237,241,242);fill-rule:nonzero;"/>
        <path d="M308.14,717.52L280.898,764.704L226.418,764.704L199.18,717.52L226.418,670.336L280.898,670.336L308.14,717.52" style="fill:rgb(237,241,242);fill-rule:nonzero;"/>
        <path d="M616.46,578.87L687.98,578.87L723.738,640.815L687.98,702.76L616.46,702.76L580.698,640.815L616.46,578.87" style="fill:rgb(237,241,242);fill-rule:nonzero;"/>
        <path d="M486.45,660.49L552.294,660.49L585.22,717.513L552.294,774.536L486.45,774.536L453.532,717.513L486.45,660.49" style="fill:rgb(237,241,242);fill-rule:nonzero;"/>
        <path d="M746.47,650.65L823.677,650.65L862.282,717.513L823.677,784.376L746.47,784.376L707.865,717.513L746.47,650.65" style="fill:rgb(237,241,242);fill-rule:nonzero;"/>
        <path d="M723.74,794.22L687.982,856.165L616.462,856.165L580.7,794.22L616.462,732.279L687.982,732.279L723.74,794.22" style="fill:rgb(237,241,242);fill-rule:nonzero;"/>
        <path d="M446.68,794.22L416.598,846.325L356.43,846.325L326.356,794.22L356.43,742.118L416.598,742.118L446.68,794.22" style="fill:rgb(237,241,242);fill-rule:nonzero;"/>
        <path d="M72,794.22L96.395,751.958L145.2,751.958L169.598,794.22L145.2,836.486L96.395,836.486L72,794.22" style="fill:rgb(237,241,242);fill-rule:nonzero;"/>
    </g>
</svg>
