<?xml version="1.0" encoding="iso-8859-1"?>
<!-- Generator: Adobe Illustrator 21.0.2, SVG Export Plug-In . SVG Version: 6.00 Build 0)  -->
<svg version="1.1" xmlns="http://www.w3.org/2000/svg" xmlns:xlink="http://www.w3.org/1999/xlink" x="0px" y="0px"
	 viewBox="0 0 20 20" style="enable-background:new 0 0 20 20;" xml:space="preserve">
<g id="icon-sectors">
	<g>
		<path style="fill:#333333;" d="M5.606,4.002C2.35,5.08,0,8.16,0,11.792C0,16.324,3.653,20,8.157,20
			c2.699,0,5.084-1.325,6.569-3.354l-7.249-4.169L5.606,4.002z"/>
		<path style="fill:#333333;" d="M12.915,0.588C11.934,0.213,10.873,0,9.761,0C8.782,0,7.845,0.163,6.965,0.454l2.051,9.286
			L12.915,0.588z"/>
		<path style="fill:#333333;" d="M14.271,2.797l-4.075,9.225l8.043,4.624C19.342,15.135,20,13.277,20,11.261
			C20,7.414,17.625,4.128,14.271,2.797z"/>
	</g>
</g>
<g id="Layer_1">
</g>
</svg>
