<?xml version="1.0" encoding="UTF-8" standalone="no"?>
<!DOCTYPE svg PUBLIC "-//W3C//DTD SVG 1.1//EN" "http://www.w3.org/Graphics/SVG/1.1/DTD/svg11.dtd">
<svg width="100%" height="100%" viewBox="0 0 20 20" version="1.1" xmlns="http://www.w3.org/2000/svg" xmlns:xlink="http://www.w3.org/1999/xlink" xml:space="preserve" xmlns:serif="http://www.serif.com/" style="fill-rule:evenodd;clip-rule:evenodd;stroke-linejoin:round;stroke-miterlimit:2;">
    <g>
        <circle cx="10" cy="7.5" r="3.125" style="fill:white;"/>
        <path d="M16.25,7.5C16.25,7.08 16.205,6.672 16.127,6.276L17.133,5.182L15.66,4.885C15.314,4.141 14.829,3.479 14.234,2.928L14.408,1.432L13.028,2.064C12.335,1.677 11.568,1.424 10.745,1.326L10,0L9.254,1.326C8.431,1.424 7.664,1.677 6.971,2.064L5.591,1.432L5.765,2.928C5.17,3.479 4.685,4.141 4.34,4.885L2.867,5.182L3.873,6.276C3.795,6.672 3.75,7.08 3.75,7.5C3.75,7.92 3.795,8.328 3.873,8.724L2.867,9.818L4.34,10.115C4.685,10.859 5.171,11.521 5.766,12.072L5.969,12.251L5,20L10,15L15,20L14.031,12.251L14.234,12.072C14.829,11.521 15.314,10.859 15.66,10.115L17.133,9.818L16.127,8.724C16.205,8.328 16.25,7.92 16.25,7.5ZM10,11.875C7.588,11.875 5.625,9.912 5.625,7.5C5.625,5.089 7.588,3.125 10,3.125C12.412,3.125 14.375,5.089 14.375,7.5C14.375,9.912 12.412,11.875 10,11.875Z" style="fill:white;fill-rule:nonzero;"/>
    </g>
</svg>
