<?xml version="1.0" encoding="UTF-8" standalone="no"?>
<!DOCTYPE svg PUBLIC "-//W3C//DTD SVG 1.1//EN" "http://www.w3.org/Graphics/SVG/1.1/DTD/svg11.dtd">
<svg width="100%" height="100%" viewBox="0 0 20 20" version="1.1" xmlns="http://www.w3.org/2000/svg" xmlns:xlink="http://www.w3.org/1999/xlink" xml:space="preserve" xmlns:serif="http://www.serif.com/" style="fill-rule:evenodd;clip-rule:evenodd;stroke-linejoin:round;stroke-miterlimit:2;">
    <g>
        <g>
            <path d="M10.444,16.296L9.094,14.774C8.955,14.618 8.985,14.389 9.161,14.266C9.337,14.142 9.593,14.169 9.733,14.326L10.417,15.098L12.475,12.586C12.607,12.425 12.862,12.388 13.044,12.506C13.226,12.624 13.265,12.85 13.133,13.012L10.444,16.296Z" style="fill:white;fill-rule:nonzero;"/>
        </g>
        <g>
            <path d="M8.349,7.099L5.628,7.099L5.628,4.378L8.349,4.378L8.349,7.099ZM6.232,6.495L7.744,6.495L7.744,4.983L6.232,4.983L6.232,6.495Z" style="fill:white;fill-rule:nonzero;"/>
        </g>
        <g>
            <path d="M8.349,11.332L5.628,11.332L5.628,8.611L8.349,8.611L8.349,11.332ZM6.232,10.728L7.744,10.728L7.744,9.216L6.232,9.216L6.232,10.728Z" style="fill:white;fill-rule:nonzero;"/>
        </g>
        <g>
            <path d="M12.393,0L1.875,0L1.875,20L18.125,20L18.125,5.732L12.393,0ZM15.107,6.25L15.625,6.768L15.625,17.5L4.375,17.5L4.375,2.5L11.357,2.5L11.875,3.018" style="fill:white;fill-rule:nonzero;"/>
        </g>
        <g>
            <rect x="9.152" y="5.569" width="4.395" height="1.099" style="fill:white;"/>
        </g>
        <g>
            <rect x="9.152" y="9.222" width="4.395" height="1.099" style="fill:white;"/>
        </g>
    </g>
</svg>
