<?xml version="1.0" encoding="UTF-8" standalone="no"?>
<!DOCTYPE svg PUBLIC "-//W3C//DTD SVG 1.1//EN" "http://www.w3.org/Graphics/SVG/1.1/DTD/svg11.dtd">
<svg width="100px" height="100px" version="1.1" xmlns="http://www.w3.org/2000/svg" xmlns:xlink="http://www.w3.org/1999/xlink" xml:space="preserve" xmlns:serif="http://www.serif.com/" style="fill-rule:evenodd;clip-rule:evenodd;stroke-linejoin:round;stroke-miterlimit:2;">
    <g id="icon-sectors" transform="matrix(5,0,0,5,0,0)">
        <g transform="matrix(0.6,0,0,0.6,4,8)">
            <path d="M5.606,4.002C2.35,5.08 0,8.16 0,11.792C0,16.324 3.653,20 8.157,20C10.856,20 13.241,18.675 14.726,16.646L7.477,12.477L5.606,4.002Z" style="fill:white;fill-rule:nonzero;"/>
            <path d="M12.915,0.588C11.934,0.213 10.873,0 9.761,0C8.782,0 7.845,0.163 6.965,0.454L9.016,9.74L12.915,0.588Z" style="fill:white;fill-rule:nonzero;"/>
            <path d="M14.271,2.797L10.196,12.022L18.239,16.646C19.342,15.135 20,13.277 20,11.261C20,7.414 17.625,4.128 14.271,2.797Z" style="fill:white;fill-rule:nonzero;"/>
        </g>
        <g transform="matrix(0.0166667,0,0,0.0166667,-2e-05,-6.00002)">
            <path d="M801.18,515.47C799.766,511.126 796.008,507.958 791.496,507.298L666.616,489.142L610.768,375.982C606.714,367.775 593.295,367.775 589.241,375.982L533.393,489.142L408.513,507.298C404.002,507.958 400.244,511.115 398.83,515.47C397.416,519.802 398.592,524.579 401.865,527.759L492.224,615.853L470.9,740.223C470.13,744.723 471.978,749.27 475.677,751.957C479.373,754.656 484.271,755.004 488.314,752.867L600.004,694.164L711.704,752.879C713.458,753.805 715.376,754.258 717.282,754.258C719.767,754.258 722.251,753.489 724.337,751.965C728.032,749.278 729.88,744.731 729.114,740.231L707.79,615.861L798.149,527.767C801.415,524.576 802.595,519.802 801.189,515.47L801.18,515.47Z" style="fill:white;fill-rule:nonzero;"/>
        </g>
    </g>
</svg>
