<?xml version="1.0" encoding="iso-8859-1"?>
<!-- Generator: Adobe Illustrator 21.0.2, SVG Export Plug-In . SVG Version: 6.00 Build 0)  -->
<svg version="1.1" id="Layer_1" xmlns="http://www.w3.org/2000/svg" xmlns:xlink="http://www.w3.org/1999/xlink" x="0px" y="0px"
	 viewBox="0 0 20 20" style="enable-background:new 0 0 20 20;" xml:space="preserve">
<g>
	<circle style="fill:#333333;" cx="10" cy="7.5" r="3.125"/>
	<path style="fill:#333333;" d="M16.25,7.5c0-0.42-0.045-0.828-0.123-1.224l1.006-1.094L15.66,4.885
		c-0.346-0.744-0.831-1.406-1.426-1.957l0.174-1.496l-1.38,0.632c-0.693-0.387-1.46-0.64-2.283-0.738L10,0L9.254,1.326
		c-0.823,0.098-1.59,0.351-2.283,0.738l-1.38-0.632l0.174,1.496C5.17,3.479,4.685,4.141,4.34,4.885L2.867,5.182l1.006,1.094
		C3.795,6.672,3.75,7.08,3.75,7.5c0,0.42,0.045,0.828,0.123,1.224L2.867,9.818l1.473,0.297c0.345,0.744,0.831,1.406,1.426,1.957
		l0.203,0.179L5,20l5-5l5,5l-0.969-7.749l0.203-0.179c0.595-0.551,1.08-1.213,1.426-1.957l1.473-0.297l-1.006-1.094
		C16.205,8.328,16.25,7.92,16.25,7.5z M10,11.875c-2.412,0-4.375-1.963-4.375-4.375c0-2.411,1.963-4.375,4.375-4.375
		s4.375,1.964,4.375,4.375C14.375,9.912,12.412,11.875,10,11.875z"/>
</g>
</svg>
