<?xml version="1.0" encoding="iso-8859-1"?>
<!-- Generator: Adobe Illustrator 21.0.2, SVG Export Plug-In . SVG Version: 6.00 Build 0)  -->
<svg version="1.1" id="Layer_1" xmlns="http://www.w3.org/2000/svg" xmlns:xlink="http://www.w3.org/1999/xlink" x="0px" y="0px"
	 viewBox="0 0 20 20" style="enable-background:new 0 0 20 20;" xml:space="preserve">
<g>
	<g>
		<path style="fill:#333333;" d="M10.444,16.296l-1.35-1.522c-0.139-0.156-0.109-0.385,0.067-0.508
			c0.176-0.124,0.432-0.097,0.572,0.06l0.684,0.772l2.058-2.512c0.132-0.161,0.387-0.198,0.569-0.08
			c0.182,0.118,0.221,0.344,0.089,0.506L10.444,16.296L10.444,16.296z"/>
	</g>
	<g>
		<path style="fill:#333333;" d="M8.349,7.099H5.628V4.378h2.721V7.099z M6.232,6.495h1.512V4.983H6.232V6.495z"/>
	</g>
	<g>
		<path style="fill:#333333;" d="M8.349,11.332H5.628V8.611h2.721V11.332z M6.232,10.728h1.512V9.216H6.232V10.728z"/>
	</g>
	<g>
		<path style="fill:#333333;" d="M12.393,0H1.875v20h16.25V5.732L12.393,0z M15.107,6.25l0.518,0.518V17.5H4.375v-15h6.982
			l0.518,0.518"/>
	</g>
	<g>
		<rect x="9.152" y="5.569" style="fill:#333333;" width="4.395" height="1.099"/>
	</g>
	<g>
		<rect x="9.152" y="9.222" style="fill:#333333;" width="4.395" height="1.099"/>
	</g>
</g>
</svg>
