<?xml version="1.0" encoding="UTF-8" standalone="no"?>
<!DOCTYPE svg PUBLIC "-//W3C//DTD SVG 1.1//EN" "http://www.w3.org/Graphics/SVG/1.1/DTD/svg11.dtd">
<svg width="17px" height="20px" version="1.1" xmlns="http://www.w3.org/2000/svg" xmlns:xlink="http://www.w3.org/1999/xlink" xml:space="preserve" xmlns:serif="http://www.serif.com/" style="fill-rule:evenodd;clip-rule:evenodd;stroke-linejoin:round;stroke-miterlimit:2;">
    <g id="icon-archive">
        <g id="BzYg0J.tif">
            <g>
                <path d="M0,6.277L0,1.948C0.013,1.933 0.036,1.92 0.039,1.904C0.142,1.152 0.557,0.613 1.218,0.268C1.46,0.141 1.741,0.087 2.005,0L14.995,0C15.01,0.013 15.023,0.036 15.039,0.038C15.837,0.137 16.407,0.559 16.761,1.265C16.868,1.479 16.922,1.72 17,1.948L17,6.277L0,6.277ZM6.713,2.739L5.841,2.739C5.841,2.871 5.837,2.992 5.842,3.112C5.858,3.499 5.965,3.844 6.261,4.124C6.556,4.403 6.927,4.444 7.293,4.453C8.098,4.474 8.904,4.478 9.708,4.45C9.996,4.44 10.312,4.374 10.56,4.235C11.138,3.91 11.19,3.34 11.151,2.741L10.287,2.741L10.287,2.987C10.287,3.073 10.29,3.16 10.286,3.246C10.278,3.461 10.152,3.592 9.935,3.592C8.977,3.595 8.02,3.595 7.062,3.592C6.846,3.591 6.719,3.459 6.714,3.244C6.71,3.08 6.713,2.915 6.713,2.739Z" style="fill:white;fill-rule:nonzero;"/>
                <path d="M17,13.766L17,18.095C16.987,18.11 16.964,18.123 16.961,18.139C16.845,18.853 16.454,19.379 15.819,19.714C15.576,19.842 15.3,19.907 15.039,20L1.962,20C1.947,19.987 1.933,19.963 1.917,19.962C1.25,19.894 0.751,19.54 0.393,19.01C0.21,18.74 0.128,18.402 0,18.095L0,13.766L17,13.766ZM5.841,16.026C5.841,16.165 5.838,16.28 5.842,16.395C5.873,17.295 6.397,17.722 7.188,17.743C8.065,17.766 8.944,17.758 9.821,17.743C10.149,17.738 10.467,17.658 10.725,17.424C11.146,17.043 11.191,16.555 11.149,16.03L10.287,16.03C10.287,16.207 10.29,16.372 10.286,16.536C10.281,16.741 10.156,16.88 9.956,16.881C8.984,16.885 8.012,16.885 7.04,16.881C6.838,16.88 6.714,16.739 6.713,16.54C6.712,16.37 6.713,16.2 6.713,16.027C6.411,16.026 6.138,16.026 5.841,16.026Z" style="fill:white;fill-rule:nonzero;"/>
                <path d="M0,12.9L0,7.1L17,7.1L17,12.901C11.333,12.9 5.667,12.9 0,12.9ZM5.823,9.356C5.845,9.607 5.86,9.84 5.885,10.071C5.951,10.688 6.512,11.076 7.072,11.08C8.023,11.087 8.975,11.082 9.926,11.082C9.991,11.082 10.059,11.09 10.121,11.075C10.979,10.859 11.265,10.176 11.124,9.364L10.286,9.364C10.286,9.526 10.279,9.677 10.287,9.826C10.306,10.151 10.178,10.243 9.882,10.251C8.96,10.276 8.037,10.276 7.115,10.251C6.819,10.243 6.691,10.151 6.709,9.827C6.718,9.672 6.711,9.516 6.711,9.357C6.413,9.356 6.145,9.356 5.823,9.356Z" style="fill:white;fill-rule:nonzero;"/>
            </g>
        </g>
    </g>
</svg>
