<?xml version="1.0" encoding="utf-8"?>
<!-- Generator: Adobe Illustrator 20.0.0, SVG Export Plug-In . SVG Version: 6.00 Build 0)  -->
<svg version="1.1" id="Layer_1" xmlns="http://www.w3.org/2000/svg" xmlns:xlink="http://www.w3.org/1999/xlink" x="0px" y="0px"
	 viewBox="0 0 16 16" enable-background="new 0 0 16 16" xml:space="preserve">
<g>
	<rect fill="#027DC9" width="16" height="16"/>
	<g>
		<path fill="#FFFFFF" d="M8,9l5.4-4.8c0,0-0.1,0-0.1,0H2.7c0,0,0,0-0.1,0L8,9z"/>
		<path fill="#FFFFFF" d="M14,5c0-0.1,0-0.2-0.1-0.3l-3.8,3.4l3.8,3.3C14,11.3,14,11.2,14,11V5z"/>
		<path fill="#FFFFFF" d="M2,4.7C2,4.8,2,4.9,2,5v6c0,0.1,0,0.2,0.1,0.3l3.8-3.3L2,4.7z"/>
		<path fill="#FFFFFF" d="M9.6,8.6L8,10L6.4,8.6l-3.7,3.2c0,0,0,0,0,0h10.5L9.6,8.6z"/>
	</g>
</g>
</svg>
