<?xml version="1.0" encoding="utf-8"?>
<!-- Generator: Adobe Illustrator 20.0.0, SVG Export Plug-In . SVG Version: 6.00 Build 0)  -->
<svg version="1.1" id="Layer_1" xmlns="http://www.w3.org/2000/svg" xmlns:xlink="http://www.w3.org/1999/xlink" x="0px" y="0px"
	 viewBox="0 0 16 16" enable-background="new 0 0 16 16" xml:space="preserve">
<g>
	<rect fill="#189C68" width="16" height="16"/>
	<path fill="#FFFFFF" d="M13.1,2.9c-1.3-1.3-3.4-1.3-4.7,0C7.4,3.9,7.2,5.2,7.6,6.4l-4.9,4.9l-0.7,2L4,14l0.3-0.7L6,12.7v-1.3l1-0.7
		l0.8,0.7L9.3,10L8.6,9.3l0.9-0.9c1.2,0.4,2.5,0.2,3.5-0.8C14.4,6.3,14.4,4.2,13.1,2.9z M10.8,6.7C10,6.7,9.3,6,9.3,5.2
		s0.7-1.5,1.5-1.5c0.8,0,1.5,0.7,1.5,1.5S11.6,6.7,10.8,6.7z"/>
</g>
</svg>
