<?xml version="1.0" encoding="iso-8859-1"?>
<!-- Generator: Adobe Illustrator 21.0.2, SVG Export Plug-In . SVG Version: 6.00 Build 0)  -->
<svg version="1.1" id="Layer_1" xmlns="http://www.w3.org/2000/svg" xmlns:xlink="http://www.w3.org/1999/xlink" x="0px" y="0px"
	 viewBox="0 0 14 26" style="enable-background:new 0 0 14 26;" xml:space="preserve">
<g>
	<path style="fill:#FFFFFF;" d="M1.394,25.765l12.367-12.201c0.318-0.314,0.318-0.827,0-1.14h0c-0.318-0.314-0.838-0.314-1.156,0
		L0.238,24.625c-0.318,0.314-0.318,0.827,0,1.14h0C0.556,26.078,1.076,26.078,1.394,25.765z"/>
	<path style="fill:#FFFFFF;" d="M0.238,1.375l12.367,12.201c0.318,0.314,0.838,0.314,1.156,0h0c0.318-0.314,0.318-0.827,0-1.14
		L1.394,0.235c-0.318-0.314-0.838-0.314-1.156,0h0C-0.079,0.549-0.079,1.062,0.238,1.375z"/>
</g>
</svg>
