<?xml version="1.0" encoding="utf-8"?>
<!-- Generator: Adobe Illustrator 21.0.2, SVG Export Plug-In . SVG Version: 6.00 Build 0)  -->
<svg version="1.1" id="Layer_1" xmlns="http://www.w3.org/2000/svg" xmlns:xlink="http://www.w3.org/1999/xlink" x="0px" y="0px"
	 viewBox="0 0 14 26" style="enable-background:new 0 0 14 26;" xml:space="preserve">
<style type="text/css">
	.st0{fill:#333333;}
</style>
<path class="st0" d="M2,13L13.8,1.4c0.3-0.3,0.3-0.8,0-1.1c-0.3-0.3-0.8-0.3-1.2,0L0.3,12.4c0,0,0,0,0,0C0.1,12.6,0,12.8,0,13
	c0,0.2,0.1,0.4,0.2,0.6c0,0,0,0,0,0l12.3,12.2c0.3,0.3,0.8,0.3,1.2,0c0.3-0.3,0.3-0.8,0-1.1L2,13z"/>
</svg>
