<?xml version="1.0" encoding="iso-8859-1"?>
<!-- Generator: Adobe Illustrator 21.0.2, SVG Export Plug-In . SVG Version: 6.00 Build 0)  -->
<svg version="1.1" id="Layer_1" xmlns="http://www.w3.org/2000/svg" xmlns:xlink="http://www.w3.org/1999/xlink" x="0px" y="0px"
	 viewBox="0 0 14 26" style="enable-background:new 0 0 14 26;" xml:space="preserve">
<g>
	<path style="fill:#7E7E7E;" d="M12.606,25.765L0.238,13.564c-0.318-0.314-0.318-0.827,0-1.14h0c0.318-0.314,0.838-0.314,1.156,0
		l12.367,12.201c0.318,0.314,0.318,0.827,0,1.14h0C13.444,26.078,12.924,26.078,12.606,25.765z"/>
	<path style="fill:#7E7E7E;" d="M13.762,1.375L1.394,13.576c-0.318,0.314-0.838,0.314-1.156,0h0c-0.318-0.314-0.318-0.827,0-1.14
		L12.606,0.235c0.318-0.314,0.838-0.314,1.156,0h0C14.079,0.549,14.079,1.062,13.762,1.375z"/>
</g>
</svg>
