<?xml version="1.0" encoding="UTF-8" standalone="no"?>
<!DOCTYPE svg PUBLIC "-//W3C//DTD SVG 1.1//EN" "http://www.w3.org/Graphics/SVG/1.1/DTD/svg11.dtd">
<svg width="1000px" height="50px" version="1.1" xmlns="http://www.w3.org/2000/svg" xmlns:xlink="http://www.w3.org/1999/xlink" xml:space="preserve" xmlns:serif="http://www.serif.com/" style="fill-rule:evenodd;clip-rule:evenodd;stroke-linejoin:round;stroke-miterlimit:2;">
    <g transform="matrix(1,0,0,1,-102.417,-584.8)">
        <path d="M100.8,598.8C110.402,598.8 115.198,602.402 122.402,608.402C130.8,615.601 140.402,625.203 159.601,625.203C178.8,625.203 188.402,615.601 196.8,608.402C203.999,602.402 207.601,598.8 218.402,598.8C228.004,598.8 232.8,602.402 240.004,608.402C248.402,615.601 258.004,625.203 277.203,625.203C296.402,625.203 306.004,615.601 314.402,608.402C321.601,602.402 325.203,598.8 336.004,598.8C345.606,598.8 350.402,602.402 357.606,608.402C366.004,615.601 375.606,625.203 394.805,625.203C414.004,625.203 423.606,615.601 432.004,608.402C439.203,602.402 442.805,598.8 453.606,598.8C463.208,598.8 468.004,602.402 475.208,608.402C483.606,615.601 493.208,625.203 512.407,625.203C531.606,625.203 541.208,615.601 549.606,608.402C556.805,602.402 560.407,598.8 571.208,598.8C580.81,598.8 585.606,602.402 592.81,608.402C601.208,615.601 610.81,625.203 630.009,625.203C649.208,625.203 658.81,615.601 667.208,608.402C674.407,602.402 678.009,598.8 688.81,598.8C699.611,598.8 703.208,602.402 710.412,608.402C718.81,615.601 728.412,625.203 747.611,625.203C766.81,625.203 776.412,615.601 784.81,608.402C792.009,602.402 795.611,598.8 806.412,598.8C816.014,598.8 820.81,602.402 828.014,608.402C836.412,615.601 846.014,625.203 865.213,625.203C884.412,625.203 894.014,615.601 902.412,608.402C909.611,602.402 913.213,598.8 924.014,598.8C933.616,598.8 938.412,602.402 945.616,608.402C954.014,615.601 963.616,625.203 982.815,625.203C1002.01,625.203 1011.62,615.601 1020.01,608.402C1027.21,602.402 1030.82,598.8 1041.62,598.8C1052.42,598.8 1056.01,602.402 1063.22,608.402C1071.62,615.601 1081.22,625.203 1100.42,625.203C1107.62,625.203 1112.42,620.402 1112.42,613.203C1112.42,606.003 1107.62,601.203 1100.42,601.203C1090.82,601.203 1086.02,597.601 1078.82,591.601C1070.42,584.402 1060.82,574.8 1041.62,574.8C1022.42,574.8 1012.82,584.402 1004.42,591.601C997.218,597.601 993.616,601.203 982.815,601.203C973.213,601.203 968.417,597.601 961.213,591.601C952.815,584.402 943.213,574.8 924.014,574.8C904.815,574.8 895.213,584.402 886.815,591.601C879.616,597.601 876.014,601.203 865.213,601.203C854.412,601.203 850.815,597.601 843.611,591.601C835.213,584.402 825.611,574.8 806.412,574.8C787.213,574.8 777.611,584.402 769.213,591.601C762.014,597.601 758.412,601.203 747.611,601.203C736.81,601.203 733.213,597.601 726.009,591.601C717.611,584.402 708.009,574.8 688.81,574.8C669.611,574.8 660.009,584.402 651.611,591.601C644.412,597.601 640.81,601.203 630.009,601.203C620.407,601.203 615.611,597.601 608.407,591.601C600.009,584.402 590.407,574.8 571.208,574.8C552.009,574.8 542.407,584.402 534.009,591.601C526.81,597.601 523.208,601.203 512.407,601.203C502.805,601.203 498.009,597.601 490.805,591.601C482.407,584.402 472.805,574.8 453.606,574.8C434.407,574.8 424.805,584.402 416.407,591.601C409.208,597.601 405.606,601.203 394.805,601.203C385.203,601.203 380.407,597.601 373.203,591.601C364.805,584.402 355.203,574.8 336.004,574.8C316.805,574.8 307.203,584.402 298.805,591.601C291.606,597.601 288.004,601.203 277.203,601.203C267.601,601.203 262.805,597.601 255.601,591.601C247.203,584.402 237.601,574.8 218.402,574.8C199.203,574.8 189.601,584.402 181.203,591.601C174.004,597.601 170.402,601.203 159.601,601.203C148.8,601.203 145.203,597.601 137.999,591.601C129.601,584.402 119.999,574.8 100.8,574.8C93.601,574.8 88.8,579.601 88.8,586.8C88.8,593.999 93.601,598.8 100.8,598.8Z" style="fill:rgb(220,220,220);fill-rule:nonzero;"/>
    </g>
    <g transform="matrix(1,0,0,1,-102.417,-605.203)">
        <path d="M100.8,598.8C110.402,598.8 115.198,602.402 122.402,608.402C130.8,615.601 140.402,625.203 159.601,625.203C178.8,625.203 188.402,615.601 196.8,608.402C203.999,602.402 207.601,598.8 218.402,598.8C228.004,598.8 232.8,602.402 240.004,608.402C248.402,615.601 258.004,625.203 277.203,625.203C296.402,625.203 306.004,615.601 314.402,608.402C321.601,602.402 325.203,598.8 336.004,598.8C345.606,598.8 350.402,602.402 357.606,608.402C366.004,615.601 375.606,625.203 394.805,625.203C414.004,625.203 423.606,615.601 432.004,608.402C439.203,602.402 442.805,598.8 453.606,598.8C463.208,598.8 468.004,602.402 475.208,608.402C483.606,615.601 493.208,625.203 512.407,625.203C531.606,625.203 541.208,615.601 549.606,608.402C556.805,602.402 560.407,598.8 571.208,598.8C580.81,598.8 585.606,602.402 592.81,608.402C601.208,615.601 610.81,625.203 630.009,625.203C649.208,625.203 658.81,615.601 667.208,608.402C674.407,602.402 678.009,598.8 688.81,598.8C699.611,598.8 703.208,602.402 710.412,608.402C718.81,615.601 728.412,625.203 747.611,625.203C766.81,625.203 776.412,615.601 784.81,608.402C792.009,602.402 795.611,598.8 806.412,598.8C816.014,598.8 820.81,602.402 828.014,608.402C836.412,615.601 846.014,625.203 865.213,625.203C884.412,625.203 894.014,615.601 902.412,608.402C909.611,602.402 913.213,598.8 924.014,598.8C933.616,598.8 938.412,602.402 945.616,608.402C954.014,615.601 963.616,625.203 982.815,625.203C1002.01,625.203 1011.62,615.601 1020.01,608.402C1027.21,602.402 1030.82,598.8 1041.62,598.8C1052.42,598.8 1056.01,602.402 1063.22,608.402C1071.62,615.601 1081.22,625.203 1100.42,625.203C1107.62,625.203 1112.42,620.402 1112.42,613.203C1112.42,606.003 1107.62,601.203 1100.42,601.203C1090.82,601.203 1086.02,597.601 1078.82,591.601C1070.42,584.402 1060.82,574.8 1041.62,574.8C1022.42,574.8 1012.82,584.402 1004.42,591.601C997.218,597.601 993.616,601.203 982.815,601.203C973.213,601.203 968.417,597.601 961.213,591.601C952.815,584.402 943.213,574.8 924.014,574.8C904.815,574.8 895.213,584.402 886.815,591.601C879.616,597.601 876.014,601.203 865.213,601.203C854.412,601.203 850.815,597.601 843.611,591.601C835.213,584.402 825.611,574.8 806.412,574.8C787.213,574.8 777.611,584.402 769.213,591.601C762.014,597.601 758.412,601.203 747.611,601.203C736.81,601.203 733.213,597.601 726.009,591.601C717.611,584.402 708.009,574.8 688.81,574.8C669.611,574.8 660.009,584.402 651.611,591.601C644.412,597.601 640.81,601.203 630.009,601.203C620.407,601.203 615.611,597.601 608.407,591.601C600.009,584.402 590.407,574.8 571.208,574.8C552.009,574.8 542.407,584.402 534.009,591.601C526.81,597.601 523.208,601.203 512.407,601.203C502.805,601.203 498.009,597.601 490.805,591.601C482.407,584.402 472.805,574.8 453.606,574.8C434.407,574.8 424.805,584.402 416.407,591.601C409.208,597.601 405.606,601.203 394.805,601.203C385.203,601.203 380.407,597.601 373.203,591.601C364.805,584.402 355.203,574.8 336.004,574.8C316.805,574.8 307.203,584.402 298.805,591.601C291.606,597.601 288.004,601.203 277.203,601.203C267.601,601.203 262.805,597.601 255.601,591.601C247.203,584.402 237.601,574.8 218.402,574.8C199.203,574.8 189.601,584.402 181.203,591.601C174.004,597.601 170.402,601.203 159.601,601.203C148.8,601.203 145.203,597.601 137.999,591.601C129.601,584.402 119.999,574.8 100.8,574.8C93.601,574.8 88.8,579.601 88.8,586.8C88.8,593.999 93.601,598.8 100.8,598.8Z" style="fill:rgb(220,220,220);fill-rule:nonzero;"/>
    </g>
    <g transform="matrix(1,0,0,1,-100.608,-625.203)">
        <path d="M100.8,598.8C110.402,598.8 115.198,602.402 122.402,608.402C130.8,615.601 140.402,625.203 159.601,625.203C178.8,625.203 188.402,615.601 196.8,608.402C203.999,602.402 207.601,598.8 218.402,598.8C228.004,598.8 232.8,602.402 240.004,608.402C248.402,615.601 258.004,625.203 277.203,625.203C296.402,625.203 306.004,615.601 314.402,608.402C321.601,602.402 325.203,598.8 336.004,598.8C345.606,598.8 350.402,602.402 357.606,608.402C366.004,615.601 375.606,625.203 394.805,625.203C414.004,625.203 423.606,615.601 432.004,608.402C439.203,602.402 442.805,598.8 453.606,598.8C463.208,598.8 468.004,602.402 475.208,608.402C483.606,615.601 493.208,625.203 512.407,625.203C531.606,625.203 541.208,615.601 549.606,608.402C556.805,602.402 560.407,598.8 571.208,598.8C580.81,598.8 585.606,602.402 592.81,608.402C601.208,615.601 610.81,625.203 630.009,625.203C649.208,625.203 658.81,615.601 667.208,608.402C674.407,602.402 678.009,598.8 688.81,598.8C699.611,598.8 703.208,602.402 710.412,608.402C718.81,615.601 728.412,625.203 747.611,625.203C766.81,625.203 776.412,615.601 784.81,608.402C792.009,602.402 795.611,598.8 806.412,598.8C816.014,598.8 820.81,602.402 828.014,608.402C836.412,615.601 846.014,625.203 865.213,625.203C884.412,625.203 894.014,615.601 902.412,608.402C909.611,602.402 913.213,598.8 924.014,598.8C933.616,598.8 938.412,602.402 945.616,608.402C954.014,615.601 963.616,625.203 982.815,625.203C1002.01,625.203 1011.62,615.601 1020.01,608.402C1027.21,602.402 1030.82,598.8 1041.62,598.8C1052.42,598.8 1056.01,602.402 1063.22,608.402C1071.62,615.601 1081.22,625.203 1100.42,625.203C1107.62,625.203 1112.42,620.402 1112.42,613.203C1112.42,606.003 1107.62,601.203 1100.42,601.203C1090.82,601.203 1086.02,597.601 1078.82,591.601C1070.42,584.402 1060.82,574.8 1041.62,574.8C1022.42,574.8 1012.82,584.402 1004.42,591.601C997.218,597.601 993.616,601.203 982.815,601.203C973.213,601.203 968.417,597.601 961.213,591.601C952.815,584.402 943.213,574.8 924.014,574.8C904.815,574.8 895.213,584.402 886.815,591.601C879.616,597.601 876.014,601.203 865.213,601.203C854.412,601.203 850.815,597.601 843.611,591.601C835.213,584.402 825.611,574.8 806.412,574.8C787.213,574.8 777.611,584.402 769.213,591.601C762.014,597.601 758.412,601.203 747.611,601.203C736.81,601.203 733.213,597.601 726.009,591.601C717.611,584.402 708.009,574.8 688.81,574.8C669.611,574.8 660.009,584.402 651.611,591.601C644.412,597.601 640.81,601.203 630.009,601.203C620.407,601.203 615.611,597.601 608.407,591.601C600.009,584.402 590.407,574.8 571.208,574.8C552.009,574.8 542.407,584.402 534.009,591.601C526.81,597.601 523.208,601.203 512.407,601.203C502.805,601.203 498.009,597.601 490.805,591.601C482.407,584.402 472.805,574.8 453.606,574.8C434.407,574.8 424.805,584.402 416.407,591.601C409.208,597.601 405.606,601.203 394.805,601.203C385.203,601.203 380.407,597.601 373.203,591.601C364.805,584.402 355.203,574.8 336.004,574.8C316.805,574.8 307.203,584.402 298.805,591.601C291.606,597.601 288.004,601.203 277.203,601.203C267.601,601.203 262.805,597.601 255.601,591.601C247.203,584.402 237.601,574.8 218.402,574.8C199.203,574.8 189.601,584.402 181.203,591.601C174.004,597.601 170.402,601.203 159.601,601.203C148.8,601.203 145.203,597.601 137.999,591.601C129.601,584.402 119.999,574.8 100.8,574.8C93.601,574.8 88.8,579.601 88.8,586.8C88.8,593.999 93.601,598.8 100.8,598.8Z" style="fill:rgb(220,220,220);fill-rule:nonzero;"/>
    </g>
</svg>
