<?xml version="1.0" encoding="iso-8859-1"?>
<!-- Generator: Adobe Illustrator 21.0.2, SVG Export Plug-In . SVG Version: 6.00 Build 0)  -->
<svg version="1.1" id="Layer_1" xmlns="http://www.w3.org/2000/svg" xmlns:xlink="http://www.w3.org/1999/xlink" x="0px" y="0px"
	 viewBox="0 0 66 23" style="enable-background:new 0 0 66 23;" xml:space="preserve">
<g>
	<g>
		<path style="fill:#0082C8;" d="M1.943,22.5c-0.796,0-1.443-0.647-1.443-1.443V1.943C0.5,1.147,1.147,0.5,1.943,0.5h62.113
			c0.796,0,1.443,0.647,1.443,1.443v19.113c0,0.796-0.647,1.443-1.443,1.443H1.943z"/>
		<path style="fill:#1E417D;" d="M64.057,1C64.577,1,65,1.423,65,1.943v19.114C65,21.577,64.577,22,64.057,22H1.943
			C1.423,22,1,21.577,1,21.057V1.943C1,1.423,1.423,1,1.943,1H64.057 M64.057,0H1.943C0.874,0,0,0.874,0,1.943v19.114
			C0,22.126,0.874,23,1.943,23h62.114C65.126,23,66,22.126,66,21.057V1.943C66,0.874,65.126,0,64.057,0L64.057,0z"/>
	</g>
	<path style="fill:#FFFFFF;" d="M59.797,9.328c-0.472,0.283-1.181,0.709-1.577,0.947c-0.396,0.238-0.72-0.018-0.72-0.568V7.5
		c0-0.55-0.45-1-1-1h-9c-0.55,0-1,0.45-1,1v9c0,0.55,0.45,1,1,1h9c0.55,0,1-0.45,1-1v-2.248c0-0.55,0.324-0.806,0.72-0.568
		c0.396,0.238,1.106,0.664,1.577,0.947l1.846,1.108c0.472,0.283,0.857,0.065,0.857-0.485v-2.275c0-0.55,0-1.45,0-2V8.705
		c0-0.55-0.386-0.768-0.857-0.485L59.797,9.328z"/>
	<ellipse style="fill:#0082C8;" cx="52.333" cy="11.833" rx="4.5" ry="3.5"/>
	<polygon style="fill:#FFFFFF;" points="54.833,11.833 50.5,9.667 50.5,14 54.833,11.833 50.5,9.667 50.5,14 	"/>
</g>
</svg>
