<?xml version="1.0" encoding="UTF-8" standalone="no"?>
<!DOCTYPE svg PUBLIC "-//W3C//DTD SVG 1.1//EN" "http://www.w3.org/Graphics/SVG/1.1/DTD/svg11.dtd">
<svg width="100%" height="100%" viewBox="0 0 17 20" version="1.1" xmlns="http://www.w3.org/2000/svg" xmlns:xlink="http://www.w3.org/1999/xlink" xml:space="preserve" xmlns:serif="http://www.serif.com/" style="fill-rule:evenodd;clip-rule:evenodd;stroke-linejoin:round;stroke-miterlimit:2;">
    <g id="content_x5F_draft_x5F_published" transform="matrix(1,0,0,-1,0,20)">
        <g>
            <g>
                <path d="M13.458,17.351L14.827,15.934L16.09,14.547L16.09,19.831L11.009,19.831L13.458,17.351Z" style="fill:rgb(4,193,52);fill-rule:nonzero;"/>
                <path d="M16.266,19.999L10.601,19.999L13.33,17.236L14.698,15.82L16.266,14.098L16.266,19.999ZM11.416,19.664L15.914,19.664L15.914,14.997L14.96,16.045L13.586,17.467L11.416,19.664Z" style="fill:rgb(1,103,28);fill-rule:nonzero;"/>
            </g>
            <g>
                <g>
                    <g>
                        <path d="M0.164,19.836L11.202,19.836L16.12,14.973L16.12,0.164L0.164,0.164L0.164,19.836Z" style="fill:rgb(235,120,51);fill-rule:nonzero;"/>
                    </g>
                    <g>
                        <path d="M11.27,20L0,20L0,0L16.284,0L16.284,15.041L11.27,20ZM0.328,19.672L11.135,19.672L15.957,14.904L15.957,0.328L0.328,0.328L0.328,19.672Z" style="fill:rgb(193,60,12);fill-rule:nonzero;"/>
                    </g>
                </g>
                <g>
                    <path d="M15.929,14.982L11.211,19.59L11.184,14.973L15.929,14.982Z" style="fill:rgb(238,197,139);fill-rule:nonzero;"/>
                    <path d="M11.104,19.848L11.075,14.863L16.198,14.873L11.104,19.848ZM11.294,15.082L11.319,19.332L15.661,15.09L11.294,15.082Z" style="fill:rgb(193,60,12);fill-rule:nonzero;"/>
                </g>
                <g>
                    <path d="M11.202,19.727L10.984,19.727L10.984,14.699L15.792,14.699L15.792,14.918L11.202,14.918L11.202,19.727Z" style="fill:rgb(193,60,12);fill-rule:nonzero;"/>
                </g>
                <g>
                    <path d="M10.984,19.727L0.273,19.727L0.273,0.489L15.811,0.508L15.792,14.7L15.574,14.699L15.592,0.726L0.492,0.708L0.492,19.508L10.984,19.508L10.984,19.727Z" style="fill:rgb(242,140,90);fill-rule:nonzero;"/>
                </g>
            </g>
        </g>
        <g transform="matrix(1,0,0,-1,-0.3575,18)">
            <g transform="matrix(0.232627,0,0,1.22088,-449.499,-68.9737)">
                <path d="M1993.5,61.45C1993.5,61.202 1992.56,61 1991.4,61L1974.6,61C1973.44,61 1972.5,61.202 1972.5,61.45L1972.5,65.05C1972.5,65.298 1973.44,65.5 1974.6,65.5L1991.4,65.5C1992.56,65.5 1993.5,65.298 1993.5,65.05L1993.5,61.45Z" style="fill:rgb(238,197,139);"/>
            </g>
            <g transform="matrix(1.43682,0,0,1.44578,-3.31656,-6.35542)">
                <g transform="matrix(0.966904,0,0,1.6,0.139739,-7.27568)">
                    <path d="M12.5,12.75C12.5,12.612 12.313,12.5 12.084,12.5L4.638,12.5C4.409,12.5 4.222,12.612 4.222,12.75C4.222,12.888 4.409,13 4.638,13L12.084,13C12.313,13 12.5,12.888 12.5,12.75Z" style="fill:rgb(238,197,139);"/>
                </g>
                <g transform="matrix(1,0,0,1,-0.417589,-0.345834)">
                    <g transform="matrix(0.450126,0,0,1.6,2.74459,-8.45415)">
                        <path d="M12.5,12.75C12.5,12.612 12.099,12.5 11.606,12.5L5.116,12.5C4.623,12.5 4.222,12.612 4.222,12.75C4.222,12.888 4.623,13 5.116,13L11.606,13C12.099,13 12.5,12.888 12.5,12.75Z" style="fill:rgb(238,197,139);"/>
                    </g>
                    <g transform="matrix(0.450126,0,0,1.6,2.74459,-9.95415)">
                        <path d="M12.5,12.75C12.5,12.612 12.099,12.5 11.606,12.5L5.116,12.5C4.623,12.5 4.222,12.612 4.222,12.75C4.222,12.888 4.623,13 5.116,13L11.606,13C12.099,13 12.5,12.888 12.5,12.75Z" style="fill:rgb(238,197,139);"/>
                    </g>
                    <g transform="matrix(0.450126,0,0,1.6,2.74459,-11.4541)">
                        <path d="M12.5,12.75C12.5,12.612 12.099,12.5 11.606,12.5L5.116,12.5C4.623,12.5 4.222,12.612 4.222,12.75C4.222,12.888 4.623,13 5.116,13L11.606,13C12.099,13 12.5,12.888 12.5,12.75Z" style="fill:rgb(238,197,139);"/>
                    </g>
                </g>
                <g transform="matrix(0.966904,0,0,1.6,0.139739,-5.8)">
                    <path d="M12.5,12.75C12.5,12.612 12.313,12.5 12.084,12.5L4.638,12.5C4.409,12.5 4.222,12.612 4.222,12.75C4.222,12.888 4.409,13 4.638,13L12.084,13C12.313,13 12.5,12.888 12.5,12.75Z" style="fill:rgb(238,197,139);"/>
                </g>
            </g>
        </g>
    </g>
</svg>
