<?xml version="1.0" encoding="iso-8859-1"?>
<!-- Generator: Adobe Illustrator 21.0.2, SVG Export Plug-In . SVG Version: 6.00 Build 0)  -->
<svg version="1.1" xmlns="http://www.w3.org/2000/svg" xmlns:xlink="http://www.w3.org/1999/xlink" x="0px" y="0px"
	 viewBox="0 0 11 16" style="enable-background:new 0 0 11 16;" xml:space="preserve">
<g id="icon-mobile-portrait">
	<path style="fill:#333333;" d="M9,0H2C0.9,0,0,0.901,0,2v12c0,1.1,0.9,2,2,2h7c1.1,0,2-0.9,2-2V2C11,0.901,10.1,0,9,0z M4,1h3
		c0.276,0,0.5,0.224,0.5,0.5C7.5,1.776,7.276,2,7,2H4C3.724,2,3.5,1.776,3.5,1.5C3.5,1.224,3.724,1,4,1z M5.5,15.279
		c-0.43,0-0.779-0.349-0.779-0.779c0-0.43,0.349-0.778,0.779-0.778S6.279,14.07,6.279,14.5C6.279,14.931,5.93,15.279,5.5,15.279z
		 M9,13H2V3h7V13z"/>
</g>
<g id="Layer_1">
</g>
</svg>
