<?xml version="1.0" encoding="utf-8"?>
<!-- Generator: Adobe Illustrator 21.0.2, SVG Export Plug-In . SVG Version: 6.00 Build 0)  -->
<svg version="1.1" id="Layer_1" xmlns="http://www.w3.org/2000/svg" xmlns:xlink="http://www.w3.org/1999/xlink" x="0px" y="0px"
	 viewBox="0 0 20 16" style="enable-background:new 0 0 20 16;" xml:space="preserve">
<style type="text/css">
	.st0{fill:#6F6F6F;}
	.st1{fill:#333333;}
	.st2{fill:#FFFFFF;}
</style>
<g>
	<path class="st0" d="M18.6,0H6.3C5.5,0,4.9,0.7,4.9,1.5v1.1c3.6,0,7.3,0,10.9,0c0.1,0,0.2,0,0.3,0c0.7,0.1,1.1,0.7,1.1,1.4
		c0,2.6,0,5.2,0,7.8h1.4c0.8,0,1.4-0.7,1.4-1.5V1.5C20,0.7,19.4,0,18.6,0z"/>
	<path class="st1" d="M15.3,5.8c0-0.7-0.4-1.3-1.1-1.4c-0.1,0-0.2,0-0.3,0c-4.2,0-8.4,0-12.6,0C0.6,4.3,0,4.9,0,5.7
		c0,1.6,0,3.2,0,4.9c0,1.3,0,2.7,0,4c0,0.8,0.4,1.3,1.1,1.5c0,0,0,0,0.1,0c4.3,0,8.6,0,13,0c0.2-0.1,0.4-0.2,0.6-0.3
		c0.4-0.2,0.5-0.6,0.6-1c0-0.1,0-0.1,0-0.2C15.3,11.6,15.3,8.7,15.3,5.8z"/>
	<path class="st2" d="M8.3,10.9c0,0.7,0,1.4,0,2c0,0.4-0.3,0.7-0.7,0.7C7.3,13.6,7,13.3,7,13c0-0.2,0-0.5,0-0.7c0-0.5,0-0.9,0-1.4
		c-0.1,0-0.2,0-0.2,0c-0.6,0-1.1,0-1.7,0c-0.5,0-0.8-0.4-0.7-0.8C4.4,9.7,4.7,9.5,5,9.5c0.6,0,1.2,0,1.8,0c0.1,0,0.1,0,0.2,0
		c0-0.1,0-0.1,0-0.2c0-0.6,0-1.2,0-1.8c0-0.3,0.1-0.5,0.4-0.6c0.2-0.1,0.5-0.1,0.7,0.1c0.2,0.1,0.2,0.3,0.2,0.6c0,0.6,0,1.2,0,1.8
		c0,0.1,0,0.1,0,0.2c0.1,0,0.2,0,0.3,0c0.6,0,1.1,0,1.7,0c0.4,0,0.7,0.3,0.7,0.6c0,0.4-0.3,0.7-0.6,0.7c-0.6,0-1.2,0-1.7,0
		C8.5,10.9,8.4,10.9,8.3,10.9z"/>
</g>
</svg>
