<?xml version="1.0" encoding="iso-8859-1"?>
<!-- Generator: Adobe Illustrator 21.0.2, SVG Export Plug-In . SVG Version: 6.00 Build 0)  -->
<svg version="1.1" xmlns="http://www.w3.org/2000/svg" xmlns:xlink="http://www.w3.org/1999/xlink" x="0px" y="0px"
	 viewBox="0 0 20 19.93" style="enable-background:new 0 0 20 19.93;" xml:space="preserve">
<g id="icon-testimonials-content-types-dark">
	<g id="TcyAaA.tif">
		<g>
			<path style="fill:#333333;" d="M0,18.666c0.278-0.763,0.888-1.238,1.489-1.723c0.533-0.43,1.045-0.875,1.286-1.554
				c0.098-0.276,0.068-0.47-0.152-0.694c-3.573-3.632-3.233-9.16,0.748-12.363c4.331-3.483,10.901-3.011,14.509,1.042
				c3.171,3.562,2.736,8.887-0.965,11.899c-2.409,1.962-5.166,2.687-8.231,2.364c-0.194-0.02-0.436,0.048-0.6,0.158
				c-1.749,1.169-3.62,2.009-5.751,2.128c-0.48,0.027-0.966-0.045-1.448-0.088C0.477,19.8,0.173,19.597,0,19.217
				C0,19.034,0,18.85,0,18.666z M2.302,18.299c0.011,0.027,0.022,0.054,0.033,0.08c0.207-0.021,0.417-0.03,0.621-0.066
				c1.684-0.301,3.194-1,4.547-2.035c0.304-0.232,0.604-0.314,0.983-0.256c2.729,0.422,5.206-0.149,7.381-1.897
				c3.418-2.746,3.443-7.735,0.05-10.5c-3.412-2.781-8.283-2.792-11.68,0.007C2.782,4.831,1.892,6.377,1.732,8.281
				c-0.19,2.252,0.66,4.1,2.291,5.612c0.306,0.284,0.435,0.587,0.411,1.003c-0.067,1.147-0.61,2.039-1.431,2.793
				C2.775,17.898,2.536,18.096,2.302,18.299z"/>
		</g>
	</g>
	<g>
		<polygon style="fill:#333333;" points="5.177,6.763 5.812,8.048 7.23,8.254 6.204,9.255 6.446,10.667 5.177,10 3.909,10.667 
			4.151,9.255 3.125,8.254 4.543,8.048 		"/>
		<polygon style="fill:#333333;" points="10,6.763 10.634,8.048 12.052,8.254 11.026,9.255 11.268,10.667 10,10 8.732,10.667 
			8.974,9.255 7.948,8.254 9.366,8.048 		"/>
		<polygon style="fill:#333333;" points="14.823,6.763 15.457,8.048 16.875,8.254 15.849,9.255 16.091,10.667 14.823,10 
			13.554,10.667 13.796,9.255 12.77,8.254 14.188,8.048 		"/>
	</g>
</g>
<g id="Layer_1">
</g>
</svg>
