<?xml version="1.0" encoding="UTF-8" standalone="no"?>
<!DOCTYPE svg PUBLIC "-//W3C//DTD SVG 1.1//EN" "http://www.w3.org/Graphics/SVG/1.1/DTD/svg11.dtd">
<svg width="100%" height="100%" viewBox="0 0 17 20" version="1.1" xmlns="http://www.w3.org/2000/svg" xmlns:xlink="http://www.w3.org/1999/xlink" xml:space="preserve" xmlns:serif="http://www.serif.com/" style="fill-rule:evenodd;clip-rule:evenodd;stroke-linejoin:round;stroke-miterlimit:2;">
    <g id="home_x5F_content_x5F_draft">
        <g>
            <g>
                <g>
                    <rect x="0.164" y="0.159" width="15.956" height="19.672" style="fill:rgb(235,120,51);fill-rule:nonzero;"/>
                </g>
                <g>
                    <path d="M16.284,19.995L0,19.995L0,-0.005L16.284,-0.005L16.284,19.995ZM0.328,19.667L15.957,19.667L15.957,0.323L0.328,0.323L0.328,19.667Z" style="fill:rgb(193,60,12);fill-rule:nonzero;"/>
                </g>
            </g>
            <g transform="matrix(1,0,0,1,0.355,0.463)">
                <path d="M13.524,9.918L11.443,8.33L11.443,5.702L9.957,5.702L9.957,7.193L7.787,5.537L2.05,9.918L2.953,11.1L3.571,10.629L3.571,16.055L12.005,16.055L12.005,10.629L12.623,11.1L13.524,9.918ZM11.178,15.229L9.274,15.229L9.274,12.09L6.3,12.09L6.3,15.228L4.397,15.228L4.397,10.1L7.787,7.512L11.178,10.1L11.178,15.229Z" style="fill:rgb(238,197,139);fill-rule:nonzero;"/>
            </g>
            <g>
                <path d="M15.792,19.722L0.273,19.722L0.273,0.484L15.811,0.503L15.792,19.5L15.574,19.499L15.592,0.721L0.492,0.703L0.492,19.503L15.792,19.503L15.792,19.722Z" style="fill:rgb(242,140,90);fill-rule:nonzero;"/>
            </g>
        </g>
    </g>
</svg>
