<?xml version="1.0" encoding="UTF-8" standalone="no"?>
<!DOCTYPE svg PUBLIC "-//W3C//DTD SVG 1.1//EN" "http://www.w3.org/Graphics/SVG/1.1/DTD/svg11.dtd">
<svg width="32px" height="32px" version="1.1" xmlns="http://www.w3.org/2000/svg" xmlns:xlink="http://www.w3.org/1999/xlink" xml:space="preserve" xmlns:serif="http://www.serif.com/" style="fill-rule:evenodd;clip-rule:evenodd;stroke-linejoin:round;stroke-miterlimit:2;">
    <g transform="matrix(1,0,0,1,-1974,-40.5)">
        <g transform="matrix(1.52381,0,0,2.66667,-1031.71,-122.167)">
            <path d="M1993.5,61.672C1993.5,61.301 1992.97,61 1992.32,61L1973.68,61C1973.03,61 1972.5,61.301 1972.5,61.672L1972.5,64.828C1972.5,65.199 1973.03,65.5 1973.68,65.5L1992.32,65.5C1992.97,65.5 1993.5,65.199 1993.5,64.828L1993.5,61.672Z" style="fill:white;"/>
            <path d="M1993.5,61.672C1993.5,61.301 1992.97,61 1992.32,61L1973.68,61C1973.03,61 1972.5,61.301 1972.5,61.672L1972.5,64.828C1972.5,65.199 1973.03,65.5 1973.68,65.5L1992.32,65.5C1992.97,65.5 1993.5,65.199 1993.5,64.828L1993.5,61.672ZM1974.47,62.125L1974.47,64.375L1991.53,64.375L1991.53,62.125L1974.47,62.125Z" style="fill:white;"/>
        </g>
        <g transform="matrix(0.533333,0,0,0.598967,952.667,50.0103)">
            <path d="M1960,13.888C1960,11.742 1958.04,10 1955.63,10L1934.37,10C1931.96,10 1930,11.742 1930,13.888L1930,32.824C1930,34.97 1931.96,36.713 1934.37,36.713L1955.63,36.713C1958.04,36.713 1960,34.97 1960,32.824L1960,13.888ZM1935.62,15.009L1935.62,31.704L1954.38,31.704L1954.38,15.009L1935.62,15.009Z" style="fill:white;"/>
        </g>
    </g>
</svg>
