<?xml version="1.0" encoding="UTF-8" standalone="no"?>
<!DOCTYPE svg PUBLIC "-//W3C//DTD SVG 1.1//EN" "http://www.w3.org/Graphics/SVG/1.1/DTD/svg11.dtd">
<svg width="18px" height="20px" version="1.1" xmlns="http://www.w3.org/2000/svg" xmlns:xlink="http://www.w3.org/1999/xlink" xml:space="preserve" xmlns:serif="http://www.serif.com/" style="fill-rule:evenodd;clip-rule:evenodd;stroke-linejoin:round;stroke-miterlimit:2;">
    <g id="icon-sign-in-log">
        <g>
            <path d="M2.938,0C2.938,0 8.19,0.222 10.139,0.311C12.087,0.4 14.553,0.622 14.948,0.666C15.343,0.71 16.114,0.839 16.403,1.355C16.773,2.016 17.303,3.77 17.143,6.064C16.977,8.446 16.231,12.55 16.058,13.372C15.885,14.194 15.762,15.149 15.244,15.282C14.726,15.415 13.764,15.482 12.309,15.393C10.854,15.304 8.437,15.126 8.043,15.126C7.648,15.126 7.18,15.281 6.934,15.526C6.687,15.771 6.416,16.126 6.293,16.415C6.17,16.704 6.145,17.059 6.145,17.059C6.145,17.059 6.54,16.615 6.934,16.504C7.328,16.393 8.167,16.46 7.945,17.281C7.723,18.103 6.539,19.591 5.208,19.502C3.876,19.413 3.032,18.042 2.939,17.414C2.864,16.908 2.939,14.793 3.21,13.038C3.481,11.283 3.95,7.551 4.147,6.396C4.344,5.241 4.575,3.015 4.492,2.375C4.4,1.664 4.104,1.275 3.752,0.754C3.444,0.298 2.938,0 2.938,0Z" style="fill:white;fill-rule:nonzero;"/>
            <path d="M9.338,16.566C9.338,16.566 11.108,16.631 12.914,16.68C14.493,16.723 15.966,16.798 16.835,16.926C17.372,17.005 17.598,18.031 17.47,18.53C17.266,19.325 15.947,20 15.824,20C15.701,20 7.637,19.769 7.637,19.769C7.637,19.769 9.043,19.391 9.486,18.497C9.816,17.833 9.708,17.588 9.659,17.304C9.609,17.02 9.338,16.566 9.338,16.566Z" style="fill:white;fill-rule:nonzero;"/>
            <ellipse cx="1.411" cy="3.355" rx="1.411" ry="1.983" style="fill:white;"/>
        </g>
    </g>
</svg>
