<?xml version="1.0" encoding="UTF-8" standalone="no"?>
<!DOCTYPE svg PUBLIC "-//W3C//DTD SVG 1.1//EN" "http://www.w3.org/Graphics/SVG/1.1/DTD/svg11.dtd">
<svg width="100%" height="100%" viewBox="0 0 18 18" version="1.1" xmlns="http://www.w3.org/2000/svg" xmlns:xlink="http://www.w3.org/1999/xlink" xml:space="preserve" xmlns:serif="http://www.serif.com/" style="fill-rule:evenodd;clip-rule:evenodd;stroke-linejoin:round;stroke-miterlimit:2;">
    <g id="Customer_company_locationson_state">
        <path d="M12.938,7.875L11.813,7.875L11.813,4.5L10.688,2.25L9.562,2.25L9.562,0L8.438,0L8.438,2.25L7.311,2.25L6.188,4.5L6.188,7.875L5.062,7.875L3.938,9L3.938,18L14.063,18L14.063,9L12.938,7.875ZM9.562,4.5L10.687,4.5L10.687,5.625L9.562,5.625L9.562,4.5ZM7.312,4.5L8.437,4.5L8.437,5.625L7.312,5.625L7.312,4.5ZM7.313,15.75L6.188,15.75L6.188,14.625L7.313,14.625L7.313,15.75ZM7.313,13.5L6.188,13.5L6.188,12.375L7.313,12.375L7.313,13.5ZM7.313,11.25L6.188,11.25L6.188,10.125L7.313,10.125L7.313,11.25ZM7.312,6.75L8.437,6.75L8.437,7.875L7.312,7.875L7.312,6.75ZM9.563,15.75L8.438,15.75L8.438,14.625L9.563,14.625L9.563,15.75ZM9.563,13.5L8.438,13.5L8.438,12.375L9.563,12.375L9.563,13.5ZM9.563,11.25L8.438,11.25L8.438,10.125L9.563,10.125L9.563,11.25ZM9.562,6.75L10.687,6.75L10.687,7.875L9.562,7.875L9.562,6.75ZM11.812,15.75L10.687,15.75L10.687,14.625L11.812,14.625L11.812,15.75ZM11.812,13.5L10.687,13.5L10.687,12.375L11.812,12.375L11.812,13.5ZM11.812,11.25L10.687,11.25L10.687,10.125L11.812,10.125L11.812,11.25Z" style="fill:rgb(4,188,8);fill-rule:nonzero;"/>
    </g>
</svg>
