<?xml version="1.0" encoding="UTF-8" standalone="no"?>
<!DOCTYPE svg PUBLIC "-//W3C//DTD SVG 1.1//EN" "http://www.w3.org/Graphics/SVG/1.1/DTD/svg11.dtd">
<svg width="20px" height="20px" version="1.1" xmlns="http://www.w3.org/2000/svg" xmlns:xlink="http://www.w3.org/1999/xlink" xml:space="preserve" xmlns:serif="http://www.serif.com/" style="fill-rule:evenodd;clip-rule:evenodd;stroke-linejoin:round;stroke-miterlimit:2;">
    <g id="icon-languages">
        <g>
            <path d="M17.5,6.25L16.25,6.25L16.25,7.5C16.25,9.427 14.428,11.25 12.5,11.25L6.768,11.25L5,13.018L5,13.75C5,15 6.25,16.25 7.5,16.25L13.75,16.25L17.5,20L17.5,16.25C18.75,16.25 20,15 20,13.75L20,8.75C20,7.5 18.75,6.25 17.5,6.25Z" style="fill:white;fill-rule:nonzero;"/>
            <path d="M12.5,0L2.5,0C1.25,0 0,1.25 0,2.5L0,7.5C0,8.75 1.25,10 2.5,10C2.729,10 1.925,10 2.5,10L2.5,13.75L6.25,10L12.5,10C13.75,10 15,8.75 15,7.5L15,2.5C15,1.25 13.75,0 12.5,0Z" style="fill:white;fill-rule:nonzero;"/>
        </g>
    </g>
</svg>
