<?xml version="1.0" encoding="iso-8859-1"?>
<!-- Generator: Adobe Illustrator 21.0.2, SVG Export Plug-In . SVG Version: 6.00 Build 0)  -->
<svg version="1.1" id="Layer_1" xmlns="http://www.w3.org/2000/svg" xmlns:xlink="http://www.w3.org/1999/xlink" x="0px" y="0px"
	 viewBox="0 0 20 20" style="enable-background:new 0 0 20 20;" xml:space="preserve">
<g>
	<path style="fill:#333333;" d="M19.357,10.643c0-3.814-2.279-7.082-5.548-8.544v3.427c1.566,1.165,2.59,3.014,2.595,5.116
		c-0.012,3.534-2.869,6.4-6.405,6.405c-3.536-0.005-6.398-2.871-6.405-6.405c0-2.102,1.03-3.952,2.594-5.116V2.095
		c-3.269,1.462-5.551,4.733-5.551,8.548C0.639,15.815,4.827,20,10,20c5.167,0,9.357-4.185,9.361-9.357H19.357z"/>
	<path style="fill:#333333;" d="M11.91,12.257c0,0.264-0.216,0.481-0.481,0.481H8.57c-0.264,0-0.481-0.216-0.481-0.481V0.481
		C8.089,0.216,8.306,0,8.57,0h2.859c0.264,0,0.481,0.216,0.481,0.481V12.257z"/>
</g>
</svg>
