<?xml version="1.0" encoding="iso-8859-1"?>
<!-- Generator: Adobe Illustrator 21.0.2, SVG Export Plug-In . SVG Version: 6.00 Build 0)  -->
<svg version="1.1" xmlns="http://www.w3.org/2000/svg" xmlns:xlink="http://www.w3.org/1999/xlink" x="0px" y="0px"
	 viewBox="0 0 16 16" style="enable-background:new 0 0 16 16;" xml:space="preserve">
<g id="icon-subheading">
	<g>
		<path style="fill:#333333;" d="M7.408,10.606H6.622V7.845H3.148v2.761H2.362V4.298h0.786v2.889h3.474V4.298h0.786V10.606z"/>
		<path style="fill:#333333;" d="M12.903,9.966v0.64H8.67v-0.448l2.285-2.331c0.74-0.759,1.097-1.216,1.097-1.828
			c0-0.649-0.375-1.207-1.133-1.207c-0.814,0-1.207,0.503-1.298,1.39L9.612,6.273H8.826l0.009-0.091
			C8.963,4.865,9.749,4.17,11.011,4.17c1.289,0,1.92,0.795,1.92,1.737c0,0.859-0.466,1.444-1.536,2.496L9.813,9.966H12.903z"/>
	</g>
	<g>
		<path style="fill:#333333;" d="M15.086,0.914v14.171H0.914V0.914H15.086 M16,0H0v16h16V0L16,0z"/>
	</g>
</g>
<g id="Layer_1">
</g>
</svg>
