<?xml version="1.0" encoding="UTF-8" standalone="no"?>
<!DOCTYPE svg PUBLIC "-//W3C//DTD SVG 1.1//EN" "http://www.w3.org/Graphics/SVG/1.1/DTD/svg11.dtd">
<svg width="20px" height="14px" version="1.1" xmlns="http://www.w3.org/2000/svg" xmlns:xlink="http://www.w3.org/1999/xlink" xml:space="preserve" xmlns:serif="http://www.serif.com/" style="fill-rule:evenodd;clip-rule:evenodd;stroke-linejoin:round;stroke-miterlimit:2;">
    <g id="icon-groups">
        <g>
            <path d="M19.736,10.324C19.34,9.706 18.009,9.322 16.691,8.773C15.373,8.224 15.061,8.033 15.061,8.033L15.049,6.768C15.049,6.768 15.543,6.389 15.696,5.2C16.005,5.289 16.329,4.738 16.346,4.449C16.363,4.169 16.304,3.394 15.927,3.473C16.004,2.891 16.06,2.365 16.033,2.087C15.934,1.073 14.934,0 13.396,0C11.858,0 10.859,1.073 10.761,2.087C10.734,2.366 10.789,2.891 10.866,3.473C10.489,3.394 10.429,4.169 10.447,4.449C10.464,4.738 10.788,5.289 11.097,5.2C11.25,6.39 11.744,6.768 11.744,6.768L11.732,8.033C11.732,8.033 11.42,8.224 10.102,8.773C8.784,9.322 7.453,9.707 7.057,10.324C6.702,10.879 6.808,13.537 6.808,13.537L19.984,13.537C19.985,13.537 20.092,10.878 19.736,10.324Z" style="fill:rgb(157,157,157);fill-rule:nonzero;"/>
            <path d="M12.943,10.324C12.547,9.706 11.216,9.322 9.898,8.773C8.58,8.224 8.268,8.033 8.268,8.033L8.255,6.768C8.255,6.768 8.749,6.389 8.902,5.2C9.211,5.289 9.535,4.738 9.552,4.449C9.57,4.169 9.51,3.394 9.134,3.473C9.211,2.891 9.266,2.366 9.24,2.087C9.141,1.073 8.141,0 6.604,0C5.067,0 4.066,1.073 3.968,2.087C3.941,2.366 3.996,2.891 4.074,3.473C3.697,3.394 3.637,4.169 3.654,4.449C3.671,4.738 3.995,5.289 4.304,5.2C4.457,6.39 4.951,6.768 4.951,6.768L4.939,8.033C4.939,8.033 4.627,8.224 3.309,8.773C1.991,9.321 0.66,9.706 0.264,10.324C-0.091,10.879 0.015,13.537 0.015,13.537L13.191,13.537C13.192,13.537 13.299,10.878 12.943,10.324Z" style="fill:white;fill-rule:nonzero;"/>
        </g>
    </g>
</svg>
