<?xml version="1.0" encoding="utf-8"?>
<!-- Generator: Adobe Illustrator 21.0.2, SVG Export Plug-In . SVG Version: 6.00 Build 0)  -->
<svg version="1.1" id="Layer_1" xmlns="http://www.w3.org/2000/svg" xmlns:xlink="http://www.w3.org/1999/xlink" x="0px" y="0px"
	 viewBox="0 0 16 16" style="enable-background:new 0 0 16 16;" xml:space="preserve">
<style type="text/css">
	.st0{fill:#F6F6F6;}
	.st1{fill:#F90303;}
	.st2{fill:#333333;}
</style>
<g>
	<g>
		<rect x="0.1" y="0.1" class="st0" width="15.8" height="15.8"/>
	</g>
	<g>
		<g>
			<polygon class="st1" points="16,16 14.3,16 14.3,15.1 15.1,15.1 15.1,14.3 16,14.3 			"/>
		</g>
		<g>
			<path class="st1" d="M12.8,16h-2.1v-0.9h2.1V16z M9.1,16H6.9v-0.9h2.1V16z M5.4,16H3.2v-0.9h2.1V16z"/>
		</g>
		<g>
			<polygon class="st1" points="1.7,16 0,16 0,14.3 0.9,14.3 0.9,15.1 1.7,15.1 			"/>
		</g>
		<g>
			<path class="st1" d="M0.9,12.8H0v-2.1h0.9V12.8z M0.9,9.1H0V6.9h0.9V9.1z M0.9,5.4H0V3.2h0.9V5.4z"/>
		</g>
		<g>
			<polygon class="st1" points="0.9,1.7 0,1.7 0,0 1.7,0 1.7,0.9 0.9,0.9 			"/>
		</g>
		<g>
			<path class="st1" d="M12.8,0.9h-2.1V0h2.1V0.9z M9.1,0.9H6.9V0h2.1V0.9z M5.4,0.9H3.2V0h2.1V0.9z"/>
		</g>
		<g>
			<polygon class="st1" points="16,1.7 15.1,1.7 15.1,0.9 14.3,0.9 14.3,0 16,0 			"/>
		</g>
		<g>
			<path class="st1" d="M16,12.8h-0.9v-2.1H16V12.8z M16,9.1h-0.9V6.9H16V9.1z M16,5.4h-0.9V3.2H16V5.4z"/>
		</g>
	</g>
	<g>
		<g>
			<path class="st2" d="M11.8,5.8H4C3.7,5.8,3.5,6,3.5,6.3v5.1c0,0.3,0.2,0.5,0.5,0.5h7.8c0.3,0,0.5-0.2,0.5-0.5V6.3
				C12.3,6,12,5.8,11.8,5.8z"/>
		</g>
		<g>
			<path class="st2" d="M6.9,5.5c0,0,0-0.3,0-0.3V4.4c0-0.2-0.1-0.3-0.3-0.3H5.1C5,4.1,4.8,4.2,4.8,4.4v0.7c0,0,0,0.3,0,0.3H6.9z"/>
		</g>
		<g>
			<path class="st2" d="M10.9,5.5c0,0,0-0.3,0-0.3V4.4c0-0.2-0.1-0.3-0.3-0.3H9.2C9,4.1,8.9,4.2,8.9,4.4v0.7c0,0,0,0.3,0,0.3H10.9z"
				/>
		</g>
	</g>
</g>
</svg>
