<?xml version="1.0" encoding="UTF-8" standalone="no"?>
<!DOCTYPE svg PUBLIC "-//W3C//DTD SVG 1.1//EN" "http://www.w3.org/Graphics/SVG/1.1/DTD/svg11.dtd">
<svg width="18px" height="20px" version="1.1" xmlns="http://www.w3.org/2000/svg" xmlns:xlink="http://www.w3.org/1999/xlink" xml:space="preserve" xmlns:serif="http://www.serif.com/" style="fill-rule:evenodd;clip-rule:evenodd;stroke-linejoin:round;stroke-miterlimit:2;">
    <g id="icon-smart-groups">
        <g>
            <path d="M17.782,6.351L16.363,4.905C16.628,4.428 16.781,3.878 16.781,3.291C16.781,1.477 15.332,0 13.55,0C11.769,0 10.319,1.477 10.319,3.292C10.319,5.107 11.768,6.584 13.55,6.584C14.216,6.584 14.836,6.377 15.351,6.023L16.727,7.426C16.873,7.574 17.064,7.648 17.254,7.648C17.445,7.648 17.636,7.574 17.781,7.426C18.073,7.129 18.073,6.648 17.782,6.351ZM11.313,3.292C11.313,2.036 12.316,1.013 13.55,1.013C14.783,1.013 15.787,2.035 15.787,3.292C15.787,4.549 14.784,5.571 13.55,5.571C12.317,5.571 11.313,4.548 11.313,3.292Z" style="fill:white;fill-rule:nonzero;"/>
            <g>
                <path d="M16.195,17.313C15.87,16.797 14.778,16.475 13.696,16.016C12.614,15.557 12.358,15.398 12.358,15.398L12.348,14.34C12.348,14.34 12.753,14.023 12.879,13.029C13.133,13.104 13.398,12.643 13.413,12.402C13.427,12.168 13.378,11.52 13.069,11.586C13.132,11.099 13.178,10.66 13.156,10.427C13.075,9.579 12.255,8.682 10.993,8.682C9.731,8.682 8.91,9.579 8.83,10.427C8.808,10.66 8.853,11.099 8.916,11.586C8.607,11.52 8.558,12.168 8.572,12.402C8.586,12.643 8.852,13.104 9.106,13.029C9.232,14.024 9.637,14.34 9.637,14.34L9.627,15.398C9.627,15.398 9.371,15.558 8.289,16.016C7.207,16.475 6.115,16.797 5.79,17.313C5.499,17.777 5.586,20 5.586,20L16.398,20C16.399,20 16.486,17.777 16.195,17.313Z" style="fill:rgb(157,157,157);fill-rule:nonzero;"/>
                <path d="M10.621,17.313C10.296,16.797 9.204,16.475 8.122,16.016C7.04,15.557 6.784,15.398 6.784,15.398L6.774,14.34C6.774,14.34 7.179,14.023 7.305,13.029C7.559,13.104 7.824,12.643 7.839,12.402C7.853,12.168 7.804,11.52 7.495,11.586C7.558,11.099 7.604,10.66 7.582,10.427C7.501,9.579 6.68,8.682 5.419,8.682C4.158,8.682 3.337,9.579 3.257,10.427C3.235,10.66 3.28,11.099 3.343,11.586C3.034,11.52 2.985,12.168 2.999,12.402C3.013,12.643 3.279,13.104 3.533,13.029C3.659,14.024 4.064,14.34 4.064,14.34L4.054,15.398C4.054,15.398 3.798,15.558 2.716,16.016C1.634,16.475 0.542,16.797 0.217,17.313C-0.075,17.777 0.012,20 0.012,20L10.824,20C10.825,20 10.912,17.777 10.621,17.313Z" style="fill:white;fill-rule:nonzero;"/>
            </g>
        </g>
    </g>
</svg>
