<?xml version="1.0" encoding="iso-8859-1"?>
<!-- Generator: Adobe Illustrator 21.0.2, SVG Export Plug-In . SVG Version: 6.00 Build 0)  -->
<svg version="1.1" xmlns="http://www.w3.org/2000/svg" xmlns:xlink="http://www.w3.org/1999/xlink" x="0px" y="0px"
	 viewBox="0 0 20 20" style="enable-background:new 0 0 20 20;" xml:space="preserve">
<g id="icon-languages">
	<g>
		<path style="fill:#333333;" d="M17.5,6.25c-0.231,0-0.675,0-1.25,0V7.5c0,1.927-1.822,3.75-3.75,3.75H6.768L5,13.018
			c0,0.269,0,0.522,0,0.732c0,1.25,1.25,2.5,2.5,2.5c0.625,0,4.062,0,6.25,0L17.5,20v-3.75c1.25,0,2.5-1.25,2.5-2.5s0-3.75,0-5
			S18.75,6.25,17.5,6.25z"/>
		<path style="fill:#333333;" d="M12.5,0c-1.25,0-8.75,0-10,0C1.25,0,0,1.25,0,2.5s0,3.75,0,5S1.25,10,2.5,10c0.229,0-0.575,0,0,0
			v3.75L6.25,10c2.188,0,5.625,0,6.25,0c1.25,0,2.5-1.25,2.5-2.5s0-3.75,0-5S13.75,0,12.5,0z"/>
	</g>
</g>
<g id="Layer_1">
</g>
</svg>
