<?xml version="1.0" encoding="iso-8859-1"?>
<!-- Generator: Adobe Illustrator 21.0.2, SVG Export Plug-In . SVG Version: 6.00 Build 0)  -->
<svg version="1.1" id="Layer_1" xmlns="http://www.w3.org/2000/svg" xmlns:xlink="http://www.w3.org/1999/xlink" x="0px" y="0px"
	 viewBox="0 0 20 20" style="enable-background:new 0 0 20 20;" xml:space="preserve">
<g>
	<g>
		<rect x="0.411" y="6.43" style="fill:#FFFFFF;" width="15.068" height="11.781"/>
		<path style="fill:#027DC9;" d="M14.19,7.793v9.824H2.183V7.793H14.19 M16.373,5.61H0V19.8h16.373V5.61L16.373,5.61z"/>
	</g>
	<path style="fill:#027DC9;" d="M8.191,11.804c0.531,0,0.67,0.13,0.67,0.55v2.971h0.419c0.251,0,0.307,0.102,0.307,0.521
		c0,0.419-0.056,0.522-0.307,0.522H7.166c-0.251,0-0.307-0.102-0.307-0.522c0-0.419,0.056-0.521,0.307-0.521H7.53v-2.301
		c0-0.149-0.056-0.177-0.177-0.177H7.176c-0.251,0-0.317-0.121-0.317-0.419c0-0.456,0.112-0.624,0.503-0.624H8.191z M8.191,8.946
		c0.419,0,0.708,0.149,0.708,0.764c0,0.596-0.131,0.764-0.55,0.764H7.856c-0.429,0-0.559-0.168-0.559-0.764
		c0-0.605,0.289-0.764,0.708-0.764H8.191z"/>
	<g>
		<rect x="9.726" y="0.676" style="fill:#FFFFFF;" width="9.863" height="7.671"/>
		<path style="fill:#027DC9;" d="M18.594,1.607v6.329h-7.735V1.607H18.594 M20,0.2H9.452v9.142H20V0.2L20,0.2z"/>
	</g>
</g>
</svg>
