<?xml version="1.0" encoding="iso-8859-1"?>
<!-- Generator: Adobe Illustrator 21.0.2, SVG Export Plug-In . SVG Version: 6.00 Build 0)  -->
<svg version="1.1" xmlns="http://www.w3.org/2000/svg" xmlns:xlink="http://www.w3.org/1999/xlink" x="0px" y="0px"
	 viewBox="0 0 13.108 16" style="enable-background:new 0 0 13.108 16;" xml:space="preserve">
<g id="icon-attachment">
	<g id="v8RYwB.tif">
		<g>
			<path style="fill:#333333;" d="M0.004,8.171C0.004,5.774,0.012,3.96,0,1.563c-0.005-0.9,0.562-1.389,1.09-1.506
				c0.156-0.035,0.32-0.051,0.481-0.051C3.935,0.003,6.3,0.009,8.664,0c0.563-0.002,1.007,0.191,1.384,0.613
				c0.88,0.986,1.779,1.954,2.671,2.93c0.255,0.28,0.388,0.611,0.388,0.988c0.002,3.835,0.003,6.193,0,10.028
				c-0.001,0.812-0.633,1.438-1.447,1.439c-3.395,0.002-6.789,0.002-10.184,0c-0.853,0-1.463-0.609-1.467-1.473
				c-0.007-1.198-0.003-1.503-0.003-2.701C0.004,10.607,0.004,9.389,0.004,8.171z M8.148,0.985c-0.066,0-0.136,0-0.205,0
				c-1.276,0-1.902,0-3.178,0c-1.088,0-2.176-0.001-3.264,0.001c-0.355,0.001-0.519,0.17-0.524,0.525c0,0.026,0,0.052,0,0.078
				c0,3.75,0,6.917,0,10.667c0,1.049-0.001,1.204,0.001,2.254c0.001,0.335,0.177,0.512,0.513,0.523
				c0.052,0.002,0.104,0.001,0.155,0.001c3.297,0,6.593-0.001,9.89-0.001c0.434,0,0.6-0.165,0.6-0.597
				c0.001-1.334,0.001-1.774,0.001-3.108c0-2.416-0.001-4.248,0.003-6.664c0-0.181-0.036-0.26-0.246-0.257
				C11.06,4.42,9.574,4.414,8.739,4.411C8.374,4.41,8.157,4.197,8.15,3.836c-0.005-0.285-0.002-0.57-0.002-0.855
				C8.148,2.327,8.148,1.673,8.148,0.985z"/>
			<path style="fill:#333333;" d="M7.432,10.636c0,0.093,0,0.17,0,0.246c0,0.719,0.004,1.437-0.001,2.156
				c-0.003,0.437-0.311,0.806-0.714,0.871c-0.45,0.073-0.858-0.163-0.991-0.589c-0.036-0.114-0.042-0.242-0.043-0.363
				c-0.004-0.712-0.006-1.424,0-2.136c0.001-0.15-0.04-0.205-0.196-0.202c-0.466,0.008-0.932,0.006-1.398,0.001
				c-0.293-0.003-0.355-0.108-0.21-0.359c0.819-1.424,1.64-2.846,2.462-4.269c0.148-0.256,0.283-0.255,0.43,0.001
				c0.818,1.417,1.635,2.834,2.452,4.252c0.154,0.267,0.089,0.376-0.224,0.377c-0.434,0.001-0.867-0.001-1.301,0
				C7.615,10.623,7.532,10.631,7.432,10.636z"/>
		</g>
	</g>
</g>
<g id="Layer_1">
</g>
</svg>
