<?xml version="1.0" encoding="iso-8859-1"?>
<!-- Generator: Adobe Illustrator 21.0.2, SVG Export Plug-In . SVG Version: 6.00 Build 0)  -->
<svg version="1.1" id="icon-categories-inline" xmlns="http://www.w3.org/2000/svg" xmlns:xlink="http://www.w3.org/1999/xlink"
	 x="0px" y="0px" viewBox="0 0 16 16" style="enable-background:new 0 0 16 16;" xml:space="preserve">
<g>
	<rect style="fill:#333333;" width="16" height="16"/>
	<g id="_x34_J1gUv.tif">
		<g>
			<path style="fill:#FFFFFF;" d="M7.992,2.88C8.2,2.885,8.367,2.987,8.54,3.065c0.304,0.137,0.605,0.282,0.906,0.424
				c0.283,0.133,0.566,0.268,0.849,0.4c0.286,0.134,0.573,0.265,0.859,0.399c0.405,0.189,0.81,0.379,1.215,0.568
				c0.154,0.072,0.309,0.142,0.463,0.214c0.035,0.016,0.071,0.034,0.1,0.058c0.091,0.074,0.082,0.174-0.021,0.231
				c-0.089,0.048-0.18,0.092-0.272,0.135c-0.524,0.244-1.049,0.486-1.573,0.73c-0.405,0.189-0.808,0.381-1.213,0.569
				C9.331,7.035,8.81,7.279,8.287,7.517C8.103,7.6,7.904,7.604,7.721,7.522c-0.473-0.212-0.94-0.437-1.41-0.655
				c-0.297-0.138-0.596-0.272-0.893-0.41C5.053,6.287,4.69,6.113,4.326,5.943c-0.299-0.14-0.6-0.279-0.9-0.418
				C3.318,5.474,3.211,5.42,3.103,5.371C3.044,5.344,2.991,5.302,3.006,5.238c0.012-0.051,0.051-0.112,0.096-0.135
				C3.289,5.006,3.483,4.92,3.675,4.831c0.438-0.203,0.877-0.405,1.314-0.61c0.717-0.336,1.434-0.675,2.151-1.012
				c0.17-0.08,0.339-0.162,0.513-0.232C7.761,2.934,7.879,2.912,7.992,2.88z"/>
			<path style="fill:#FFFFFF;" d="M7.994,13.095c-0.192,0.018-0.354-0.071-0.519-0.147c-0.416-0.192-0.832-0.387-1.247-0.582
				c-0.396-0.186-0.791-0.376-1.187-0.562c-0.391-0.183-0.784-0.363-1.175-0.545c-0.254-0.118-0.509-0.233-0.759-0.359
				c-0.047-0.024-0.089-0.087-0.102-0.14c-0.017-0.07,0.044-0.107,0.105-0.136c0.294-0.138,0.583-0.288,0.882-0.414
				c0.216-0.091,0.441-0.084,0.659,0.024c0.192,0.095,0.39,0.179,0.584,0.27c0.532,0.248,1.063,0.498,1.594,0.746
				c0.297,0.139,0.593,0.279,0.894,0.411c0.183,0.08,0.375,0.079,0.557-0.003c0.543-0.246,1.083-0.498,1.623-0.75
				c0.497-0.232,0.99-0.47,1.489-0.697c0.198-0.09,0.412-0.087,0.611-0.001c0.298,0.129,0.588,0.275,0.881,0.414
				c0.022,0.01,0.044,0.021,0.062,0.035c0.062,0.047,0.071,0.133,0.015,0.187c-0.034,0.032-0.074,0.061-0.117,0.081
				c-0.386,0.181-0.773,0.359-1.159,0.539c-0.38,0.178-0.76,0.358-1.14,0.535c-0.416,0.194-0.832,0.386-1.248,0.58
				c-0.305,0.142-0.607,0.291-0.914,0.426C8.261,13.06,8.128,13.083,8,13.12C7.998,13.112,7.996,13.103,7.994,13.095z"/>
			<path style="fill:#FFFFFF;" d="M7.965,10.351c-0.157-0.018-0.291-0.076-0.427-0.143C7.19,10.038,6.836,9.88,6.485,9.716
				c-0.364-0.17-0.728-0.34-1.093-0.51c-0.605-0.282-1.21-0.563-1.814-0.845C3.422,8.288,3.266,8.213,3.111,8.137
				C3.054,8.109,3,8.08,3,8.001c0-0.074,0.045-0.107,0.101-0.134c0.193-0.093,0.387-0.185,0.58-0.276
				C3.789,7.54,3.894,7.483,4.006,7.443c0.24-0.087,0.474-0.059,0.703,0.049c0.353,0.167,0.707,0.331,1.06,0.497
				c0.41,0.192,0.819,0.384,1.229,0.576c0.189,0.088,0.381,0.171,0.566,0.267c0.304,0.157,0.598,0.136,0.899-0.013
				C8.788,8.656,9.121,8.511,9.45,8.356c0.499-0.234,0.997-0.47,1.495-0.705c0.119-0.056,0.238-0.11,0.356-0.166
				c0.289-0.138,0.569-0.115,0.85,0.028c0.202,0.103,0.41,0.192,0.614,0.289c0.054,0.025,0.107,0.053,0.157,0.086
				c0.106,0.069,0.103,0.172-0.01,0.23c-0.196,0.101-0.395,0.195-0.595,0.289c-0.278,0.131-0.556,0.259-0.835,0.388
				c-0.313,0.145-0.627,0.29-0.939,0.437c-0.278,0.13-0.554,0.263-0.831,0.393C9.462,9.742,9.21,9.858,8.959,9.975
				c-0.219,0.102-0.434,0.211-0.657,0.301C8.197,10.319,8.078,10.327,7.965,10.351z"/>
		</g>
	</g>
</g>
</svg>
