<?xml version="1.0" encoding="iso-8859-1"?>
<!-- Generator: Adobe Illustrator 21.0.2, SVG Export Plug-In . SVG Version: 6.00 Build 0)  -->
<svg version="1.1" xmlns="http://www.w3.org/2000/svg" xmlns:xlink="http://www.w3.org/1999/xlink" x="0px" y="0px"
	 viewBox="0 0 16 11" style="enable-background:new 0 0 16 11;" xml:space="preserve">
<g id="icon-user">
	<g>
		<path style="fill:#9D9D9D;" d="M15.789,8.389c-0.317-0.502-1.382-0.815-2.436-1.26c-1.054-0.446-1.304-0.601-1.304-0.601
			l-0.01-1.028c0,0,0.395-0.308,0.518-1.274c0.247,0.073,0.506-0.375,0.52-0.61c0.014-0.227-0.034-0.857-0.335-0.793
			c0.062-0.473,0.106-0.9,0.085-1.127C12.747,0.872,11.947,0,10.717,0s-2.03,0.872-2.108,1.696C8.587,1.922,8.632,2.349,8.693,2.822
			C8.392,2.758,8.344,3.388,8.358,3.615c0.014,0.235,0.273,0.683,0.52,0.61c0.123,0.967,0.518,1.274,0.518,1.274l-0.01,1.028
			c0,0-0.25,0.155-1.304,0.601c-1.054,0.446-2.119,0.759-2.436,1.26C5.361,8.84,5.446,11,5.446,11h5.271h5.271
			C15.988,11,16.073,8.84,15.789,8.389z"/>
		<path style="fill:#333333;" d="M10.355,8.389c-0.317-0.502-1.382-0.815-2.436-1.26C6.864,6.682,6.614,6.527,6.614,6.527
			l-0.01-1.028c0,0,0.395-0.308,0.518-1.274c0.247,0.073,0.506-0.375,0.52-0.61c0.014-0.227-0.034-0.857-0.335-0.793
			c0.062-0.473,0.106-0.9,0.085-1.127C7.313,0.872,6.513,0,5.283,0s-2.03,0.872-2.108,1.696C3.153,1.922,3.197,2.349,3.259,2.822
			C2.957,2.758,2.91,3.388,2.923,3.615c0.014,0.235,0.273,0.683,0.52,0.61c0.123,0.967,0.518,1.274,0.518,1.274l-0.01,1.028
			c0,0-0.25,0.155-1.304,0.601c-1.054,0.446-2.119,0.759-2.436,1.26C-0.073,8.84,0.012,11,0.012,11h5.271h5.271
			C10.554,11,10.639,8.84,10.355,8.389z"/>
	</g>
</g>
<g id="Layer_1">
</g>
</svg>
