<?xml version="1.0" encoding="iso-8859-1"?>
<!-- Generator: Adobe Illustrator 21.0.2, SVG Export Plug-In . SVG Version: 6.00 Build 0)  -->
<svg version="1.1" xmlns="http://www.w3.org/2000/svg" xmlns:xlink="http://www.w3.org/1999/xlink" x="0px" y="0px"
	 viewBox="0 0 16.284 19.995" style="enable-background:new 0 0 16.284 19.995;" xml:space="preserve">
<g id="special_x5F_content_x5F_hidden">
	<g>
		<g>
			<polygon style="fill:#B5B5B5;" points="13.458,17.346 14.827,15.929 16.09,14.542 16.09,19.826 11.009,19.826 			"/>
			<path style="fill:#6C6C6C;" d="M16.266,19.994h-5.665l2.729-2.763l1.368-1.416l1.568-1.722V19.994z M11.416,19.658h4.498v-4.667
				l-0.954,1.048l-1.374,1.422L11.416,19.658z"/>
		</g>
		<g>
			<g>
				<g>
					<polygon style="fill:#EB7833;" points="0.164,19.831 11.202,19.831 16.12,14.968 16.12,0.159 0.164,0.159 					"/>
				</g>
				<g>
					<path style="fill:#C13C0C;" d="M11.27,19.995H0v-20h16.284v15.041L11.27,19.995z M0.328,19.667h10.807l4.822-4.768V0.323H0.328
						V19.667z"/>
				</g>
			</g>
			<g id="XMLID_6_">
				<g>
					<path style="fill:#EEC58B;" d="M12.031,15.615c-0.164,0-0.366-0.055-0.605-0.222l-2.842-1.977
						c-0.193-0.135-0.557-0.135-0.751,0l-2.841,1.977c-0.504,0.35-0.845,0.209-1.003,0.094c-0.158-0.115-0.397-0.396-0.22-0.982
						l1.001-3.313c0.068-0.226-0.045-0.573-0.232-0.715L1.78,8.386c-0.489-0.371-0.46-0.739-0.4-0.926
						c0.061-0.186,0.254-0.5,0.867-0.513l3.461-0.071c0.235-0.005,0.531-0.22,0.608-0.442l1.136-3.269
						C7.653,2.587,8.012,2.5,8.207,2.5c0,0,0.001,0,0.001,0c0.196,0,0.555,0.087,0.756,0.664l1.136,3.27
						c0.077,0.222,0.374,0.438,0.61,0.443l3.459,0.071c0.612,0.012,0.806,0.327,0.866,0.513c0.061,0.186,0.09,0.554-0.398,0.925
						l-2.759,2.091c-0.187,0.142-0.3,0.49-0.232,0.716l1.003,3.312c0.177,0.586-0.062,0.867-0.221,0.982
						C12.345,15.547,12.212,15.615,12.031,15.615z M2.936,7.967l2.226,1.687c0.534,0.405,0.791,1.195,0.597,1.837l-0.808,2.673
						l2.292-1.595c0.55-0.384,1.381-0.384,1.931,0l2.293,1.595l-0.809-2.673c-0.193-0.643,0.064-1.433,0.597-1.837l2.226-1.687
						L10.689,7.91c-0.671-0.015-1.343-0.503-1.563-1.136L8.209,4.135L7.291,6.773C7.073,7.405,6.402,7.894,5.73,7.91L2.936,7.967z"
						/>
				</g>
			</g>
			<g>
				<polygon style="fill:#EEC58B;" points="15.929,14.977 11.211,19.585 11.184,14.968 				"/>
				<path style="fill:#C13C0C;" d="M11.104,19.843l-0.029-4.985l5.123,0.01L11.104,19.843z M11.294,15.077l0.025,4.25l4.342-4.242
					L11.294,15.077z"/>
			</g>
			<g>
				<polygon style="fill:#C13C0C;" points="11.202,19.722 10.984,19.722 10.984,14.694 15.792,14.694 15.792,14.913 11.202,14.913 
									"/>
			</g>
			<g>
				<polygon style="fill:#F28C5A;" points="10.984,19.722 0.273,19.722 0.273,0.484 15.811,0.503 15.792,14.695 15.574,14.694 
					15.592,0.721 0.492,0.703 0.492,19.503 10.984,19.503 				"/>
			</g>
		</g>
	</g>
</g>
<g id="Layer_1">
</g>
</svg>
