<?xml version="1.0" encoding="iso-8859-1"?>
<!-- Generator: Adobe Illustrator 21.0.2, SVG Export Plug-In . SVG Version: 6.00 Build 0)  -->
<svg version="1.1" xmlns="http://www.w3.org/2000/svg" xmlns:xlink="http://www.w3.org/1999/xlink" x="0px" y="0px"
	 viewBox="0 0 19.512 20" style="enable-background:new 0 0 19.512 20;" xml:space="preserve">
<g id="icon-administrator">
	<g>
		<path style="fill:#333333;" d="M19.123,15.252c-0.585-0.912-2.553-1.481-4.499-2.292c-1.947-0.811-2.409-1.093-2.409-1.093
			l-0.018-1.869c0,0,0.729-0.559,0.956-2.317C13.609,7.814,14.087,7,14.113,6.573c0.026-0.413-0.062-1.559-0.619-1.442
			c0.114-0.86,0.196-1.636,0.157-2.048C13.505,1.585,12.028,0,9.756,0S6.007,1.585,5.863,3.083c-0.04,0.412,0.042,1.188,0.155,2.048
			C5.461,5.014,5.373,6.16,5.399,6.573C5.425,7,5.903,7.814,6.36,7.682c0.226,1.758,0.956,2.317,0.956,2.317l-0.018,1.869
			c0,0-0.461,0.282-2.409,1.093c-1.947,0.811-3.914,1.379-4.499,2.292C-0.136,16.072,0.022,20,0.022,20h7.345l2.119-3.76l2.12,3.76
			h7.884C19.49,20,19.648,16.072,19.123,15.252z M9.487,16.24l-1.255-1.253l1.253-1.253l1.253,1.253L9.487,16.24z"/>
	</g>
</g>
<g id="Layer_1">
</g>
</svg>
