<?xml version="1.0" encoding="utf-8"?>
<!-- Generator: Adobe Illustrator 21.0.2, SVG Export Plug-In . SVG Version: 6.00 Build 0)  -->
<svg version="1.1" id="Layer_2" xmlns="http://www.w3.org/2000/svg" xmlns:xlink="http://www.w3.org/1999/xlink" x="0px" y="0px"
	 viewBox="0 0 20 20" style="enable-background:new 0 0 20 20;" xml:space="preserve">
<style type="text/css">
	.st0{fill:#0082C8;}
	.st1{fill:#FFFFFF;}
</style>
<g>
	<g>
		<rect class="st0" width="20" height="20"/>
	</g>
</g>
<polygon class="st1" points="18,2 13.2,2 14.9,3.7 12,6.6 13.4,8 16.3,5.1 18,6.8 "/>
<g>
	<path class="st1" d="M2.2,12h1.2v3.1c0,0.5,0,0.8,0,1c0,0.2,0.2,0.4,0.4,0.6s0.4,0.2,0.8,0.2c0.3,0,0.6-0.1,0.7-0.2
		s0.3-0.3,0.3-0.5s0.1-0.5,0.1-1V12h1.2v3c0,0.7,0,1.2-0.1,1.5S6.5,17,6.3,17.2s-0.4,0.4-0.7,0.5S5,17.8,4.5,17.8
		c-0.5,0-1-0.1-1.2-0.2s-0.5-0.3-0.7-0.5s-0.3-0.4-0.3-0.6c-0.1-0.3-0.1-0.8-0.1-1.5V12z"/>
	<path class="st1" d="M8,17.7V12h2.4c0.6,0,1.1,0.1,1.3,0.2s0.5,0.3,0.7,0.5s0.2,0.6,0.2,0.9c0,0.4-0.1,0.8-0.4,1.1
		s-0.6,0.5-1.1,0.5c0.2,0.1,0.5,0.3,0.6,0.5s0.4,0.5,0.7,0.9l0.7,1.1h-1.4l-0.8-1.2c-0.3-0.4-0.5-0.7-0.6-0.8s-0.2-0.2-0.3-0.2
		s-0.3-0.1-0.6-0.1H9.1v2.4H8z M9.1,14.4H10c0.6,0,0.9,0,1-0.1s0.2-0.1,0.3-0.2s0.1-0.3,0.1-0.4c0-0.2-0.1-0.3-0.2-0.5
		S11.1,13,10.9,13c-0.1,0-0.4,0-0.8,0H9.1V14.4z"/>
	<path class="st1" d="M13.8,17.7V12h1.2v4.7h2.9v1H13.8z"/>
</g>
</svg>
