<?xml version="1.0" encoding="UTF-8" standalone="no"?>
<!DOCTYPE svg PUBLIC "-//W3C//DTD SVG 1.1//EN" "http://www.w3.org/Graphics/SVG/1.1/DTD/svg11.dtd">
<svg width="20px" height="19px" version="1.1" xmlns="http://www.w3.org/2000/svg" xmlns:xlink="http://www.w3.org/1999/xlink" xml:space="preserve" xmlns:serif="http://www.serif.com/" style="fill-rule:evenodd;clip-rule:evenodd;stroke-linejoin:round;stroke-miterlimit:2;">
    <g id="icon-project-descriptions-content-types-dark">
        <g>
            <g id="_x35_LRiwG.tif">
                <g>
                    <path d="M4.001,0.392C3.501,0.596 3.055,0.909 2.468,1.23C2.72,1.28 2.84,1.31 2.963,1.327C4.005,1.473 4.977,1.821 5.87,2.373C6.092,2.51 6.302,2.691 6.465,2.894C6.836,3.355 6.837,3.743 6.506,4.232C4.478,7.228 2.448,10.223 0.419,13.218C0.28,13.424 0.14,13.628 0,13.833C0.032,13.947 0.064,14.062 0.096,14.176C0.984,14.698 1.871,15.22 2.759,15.743C2.845,15.719 2.931,15.695 3.016,15.671C3.23,15.284 3.45,14.899 3.657,14.508C5.22,11.557 6.78,8.605 8.34,5.653C8.606,5.151 8.98,4.959 9.505,5.173C10.084,5.41 10.665,5.665 10.807,6.418C10.897,6.898 11.276,7.234 11.74,7.344C11.965,7.397 12.364,7.3 12.478,7.131C13.007,6.348 13.483,5.526 13.937,4.696C14.114,4.372 13.985,4.028 13.653,3.86C13.358,3.711 13.006,3.531 12.703,3.567C11.768,3.678 11.258,2.92 10.534,2.615C10.5,2.601 10.465,2.547 10.463,2.51C10.421,1.88 9.906,1.684 9.467,1.418C9.416,1.387 9.365,1.358 9.314,1.326C8.032,0.515 6.619,-0.251 5.116,0.078C4.739,0.161 4.358,0.246 4.001,0.392Z" style="fill:white;fill-rule:nonzero;"/>
                </g>
            </g>
            <rect x="9.059" y="10.141" width="8.088" height="1.212" style="fill:white;"/>
            <rect x="9.091" y="12.868" width="10.909" height="1.212" style="fill:white;"/>
            <rect x="9.091" y="15.292" width="10.909" height="1.212" style="fill:white;"/>
            <rect x="9.091" y="17.716" width="10.909" height="1.212" style="fill:white;"/>
        </g>
    </g>
</svg>
