<svg height='100px' width='100px'  fill="#147fc7" xmlns="http://www.w3.org/2000/svg" xmlns:xlink="http://www.w3.org/1999/xlink" version="1.1" x="0px" y="0px" viewBox="0 0 100 100" enable-background="new 0 0 100 100" xml:space="preserve"><g><path d="M49.368,52.915c0-2.829,2.304-5.13,5.135-5.13h3.75c1.214,0,2.362,0.426,3.273,1.182c1.266-0.164,2.481-0.431,3.642-0.764   c2.33-3.645,3.727-7.941,3.727-12.146c0-10.419-8.476-18.897-18.894-18.897c-10.421,0-18.897,8.478-18.897,18.897   C31.106,46.476,39.58,57.536,50,57.536c0.686,0,1.362-0.054,2.03-0.146C50.451,56.513,49.368,54.846,49.368,52.915z"></path><path d="M64.187,57.73c-3.666,2.792-8.239,4.455-13.191,4.455h-1.991c-4.953,0-9.527-1.663-13.192-4.455   c-11.969,1.935-21.107,12.309-21.107,24.822C14.705,89.425,30.506,95,50,95c19.49,0,35.293-5.575,35.293-12.447   C85.294,70.039,76.155,59.665,64.187,57.73z"></path><path d="M23.522,50.6h0.236c2.604,0,4.712-2.108,4.712-4.717v-9.417c0-1.848-1.068-3.443-2.621-4.213   C26.521,19.511,37.096,9.354,50,9.354c12.902,0,23.479,10.157,24.149,22.898c-1.55,0.771-2.617,2.366-2.617,4.213v9.417   c0,0.627,0.119,1.208,0.334,1.751C69.12,49.601,65.123,51,60.622,51.387c-0.508-0.775-1.379-1.292-2.369-1.292h-3.75   c-1.563,0-2.824,1.265-2.824,2.82c0,1.562,1.261,2.828,2.824,2.828h3.75c1.092,0,2.021-0.624,2.493-1.525   c5.225-0.414,9.771-2.008,12.961-4.367c0.731,0.472,1.598,0.749,2.536,0.749h0.234c2.604,0,4.711-2.108,4.711-4.717v-9.417   c0-1.875-1.099-3.496-2.685-4.246C77.811,17.097,65.292,5,50,5C34.708,5,22.19,17.097,21.501,32.22   c-1.59,0.75-2.689,2.371-2.689,4.246v9.417C18.813,48.492,20.922,50.6,23.522,50.6z"></path></g></svg>