<?xml version="1.0" encoding="UTF-8" standalone="no"?>
<!DOCTYPE svg PUBLIC "-//W3C//DTD SVG 1.1//EN" "http://www.w3.org/Graphics/SVG/1.1/DTD/svg11.dtd">
<svg width="18px" height="20px" version="1.1" xmlns="http://www.w3.org/2000/svg" xmlns:xlink="http://www.w3.org/1999/xlink" xml:space="preserve" xmlns:serif="http://www.serif.com/" style="fill-rule:evenodd;clip-rule:evenodd;stroke-linejoin:round;stroke-miterlimit:2;">
    <g id="icon-events-content-types-dark">
        <g>
            <g>
                <path d="M10.505,13.493C10.282,12.038 9.84,10.008 8.829,9.081C7.813,8.154 7.328,8.42 6.798,8.728C6.27,9.037 5.561,9.566 5.119,9.788C4.68,10.008 4.239,10.185 4.239,10.185C4.239,10.185 3.045,10.538 2.164,10.582C1.282,10.626 0.046,11.377 0.004,12.083C-0.04,12.788 0.399,14.422 1.282,15.877C2.164,17.334 4.239,19.672 5.476,19.893C6.712,20.114 8.694,20.114 9.623,18.701C10.547,17.289 10.725,14.951 10.505,13.493ZM7.149,11.509C7.592,11.464 8.244,11.765 8.43,11.993C8.63,12.237 9.002,12.522 8.652,12.522L5.783,12.522C5.783,12.522 6.711,11.553 7.149,11.509ZM2.915,14.73C2.607,15.128 2.385,14.864 2.343,14.554C2.299,14.245 2.915,13.252 2.915,13.252C2.915,13.252 3.044,13.098 3.223,13.009C3.401,12.92 3.709,12.877 4.281,12.922C4.858,12.965 4.591,13.318 4.281,13.494C3.973,13.672 3.223,14.332 2.915,14.73ZM9.359,16.539C9.136,16.495 7.365,15.945 6.754,16.186C6.025,16.472 5.409,17.047 5.033,17.643C4.718,18.144 4.459,18.526 4.459,18.526C4.459,18.526 4.326,16.275 5.209,15.525C6.091,14.774 7.416,14.687 8.253,15.304C9.094,15.921 9.579,16.583 9.359,16.539Z" style="fill:white;fill-rule:nonzero;"/>
            </g>
            <g>
                <path d="M16.973,3.636C16.411,3.39 15.566,3.132 15.128,2.905C14.688,2.678 14.286,2.426 14.286,2.426C14.286,2.426 13.3,1.673 12.74,0.986C12.186,0.299 10.851,-0.257 10.257,0.124C9.657,0.505 8.599,1.824 7.943,3.395C7.288,4.967 6.623,8.02 7.171,9.149C7.722,10.277 8.894,11.881 10.58,11.798C12.266,11.713 14.26,10.477 15.308,9.44C16.352,8.404 17.731,6.85 17.883,5.483C18.031,4.116 17.532,3.881 16.973,3.636ZM9.84,3.256C10.239,3.08 10.856,3.212 11.255,3.566C11.654,3.92 11.563,5.375 11.563,5.375C11.563,5.375 11.077,5.109 10.812,4.845C10.548,4.581 10.326,4.361 9.974,4.272C9.712,4.207 9.18,4.139 9.136,4.006C9.094,3.874 9.445,3.433 9.84,3.256ZM12.578,9.876C11.827,10.318 10.372,10.405 9.796,10.362C9.224,10.318 8.43,9.037 8.252,8.64C8.077,8.243 8.386,5.905 8.565,5.684C8.738,5.463 9.71,7.008 9.71,7.008C9.71,7.008 9.932,7.318 10.197,7.581C10.461,7.846 10.856,8.154 11.211,8.288C11.563,8.42 12.934,8.508 13.415,8.64C13.901,8.772 13.076,9.585 12.578,9.876ZM15.182,7.581C15.047,7.757 14.739,7.405 14.517,7.096C14.3,6.786 13.636,6.434 13.241,6.389C12.842,6.346 12.798,6.037 12.886,5.86C12.977,5.683 14.032,5.552 14.032,5.552C14.032,5.552 14.851,5.75 15.359,6.302C15.747,6.725 15.315,7.404 15.182,7.581Z" style="fill:white;fill-rule:nonzero;"/>
            </g>
        </g>
    </g>
</svg>
