<?xml version="1.0" encoding="UTF-8" standalone="no"?>
<!DOCTYPE svg PUBLIC "-//W3C//DTD SVG 1.1//EN" "http://www.w3.org/Graphics/SVG/1.1/DTD/svg11.dtd">
<svg width="100%" height="100%" viewBox="0 0 17 20" version="1.1" xmlns="http://www.w3.org/2000/svg" xmlns:xlink="http://www.w3.org/1999/xlink" xml:space="preserve" xmlns:serif="http://www.serif.com/" style="fill-rule:evenodd;clip-rule:evenodd;stroke-linejoin:round;stroke-miterlimit:2;">
    <g id="content_x5F_draft_x5F_published" transform="matrix(1,0,0,-1,0,20)">
        <g>
            <g>
                <g>
                    <g transform="matrix(1,0,0,-1,0,20)">
                        <path d="M0.164,0.164L11.202,0.164L16.12,5.027L16.12,19.836L0.164,19.836L0.164,0.164ZM13.893,16.753C13.893,16.434 13.633,16.175 13.315,16.175L2.97,16.175C2.652,16.175 2.392,16.434 2.392,16.753C2.392,17.072 2.652,17.331 2.97,17.331L13.315,17.331C13.633,17.331 13.893,17.072 13.893,16.753ZM13.893,14.619C13.893,14.3 13.633,14.041 13.315,14.041L2.97,14.041C2.652,14.041 2.392,14.3 2.392,14.619C2.392,14.939 2.652,15.198 2.97,15.198L13.315,15.198C13.633,15.198 13.893,14.939 13.893,14.619ZM7.754,12.416C7.754,12.096 7.494,11.837 7.176,11.837L2.978,11.837C2.659,11.837 2.4,12.096 2.4,12.416C2.4,12.735 2.659,12.994 2.978,12.994L7.176,12.994C7.494,12.994 7.754,12.735 7.754,12.416ZM13.885,8.049C13.885,7.747 13.667,7.5 13.397,7.5L9.489,7.5C9.219,7.5 9,7.747 9,8.049L9,12.445C9,12.747 9.219,12.994 9.489,12.994L13.397,12.994C13.667,12.994 13.885,12.747 13.885,12.445L13.885,8.049ZM7.754,10.247C7.754,9.928 7.494,9.669 7.176,9.669L2.978,9.669C2.659,9.669 2.4,9.928 2.4,10.247C2.4,10.566 2.659,10.825 2.978,10.825L7.176,10.825C7.494,10.825 7.754,10.566 7.754,10.247ZM7.754,8.078C7.754,7.759 7.494,7.5 7.176,7.5L2.978,7.5C2.659,7.5 2.4,7.759 2.4,8.078C2.4,8.398 2.659,8.657 2.978,8.657L7.176,8.657C7.494,8.657 7.754,8.398 7.754,8.078Z" style="fill:white;fill-rule:nonzero;"/>
                    </g>
                    <g>
                        <path d="M11.27,20L0,20L0,0L16.284,0L16.284,15.041L11.27,20ZM0.328,19.672L11.135,19.672L15.957,14.904L15.957,0.328L0.328,0.328L0.328,19.672Z" style="fill:rgb(188,188,188);fill-rule:nonzero;"/>
                    </g>
                </g>
                <g>
                    <path d="M15.929,14.982L11.211,19.59L11.184,14.973L15.929,14.982Z" style="fill:white;fill-rule:nonzero;"/>
                    <path d="M11.104,19.848L11.075,14.863L16.198,14.873L11.104,19.848ZM11.294,15.082L11.319,19.332L15.661,15.09L11.294,15.082Z" style="fill:rgb(188,188,188);fill-rule:nonzero;"/>
                </g>
                <g>
                    <path d="M11.202,19.727L10.984,19.727L10.984,14.699L15.792,14.699L15.792,14.918L11.202,14.918L11.202,19.727Z" style="fill:rgb(188,188,188);fill-rule:nonzero;"/>
                </g>
                <g>
                    <path d="M10.984,19.727L0.273,19.727L0.273,0.489L15.811,0.508L15.792,14.7L15.574,14.699L15.592,0.726L0.492,0.708L0.492,19.508L10.984,19.508L10.984,19.727Z" style="fill:rgb(51,51,51);fill-rule:nonzero;"/>
                </g>
            </g>
        </g>
    </g>
</svg>
