<?xml version="1.0" encoding="UTF-8" standalone="no"?>
<!DOCTYPE svg PUBLIC "-//W3C//DTD SVG 1.1//EN" "http://www.w3.org/Graphics/SVG/1.1/DTD/svg11.dtd">
<svg width="100px" height="80px" version="1.1" xmlns="http://www.w3.org/2000/svg" xmlns:xlink="http://www.w3.org/1999/xlink" xml:space="preserve" xmlns:serif="http://www.serif.com/" style="fill-rule:evenodd;clip-rule:evenodd;stroke-linejoin:round;stroke-miterlimit:2;">
    <g id="icon-image-library" transform="matrix(1,0,0,1,0,7)">
        <g transform="matrix(2.76923,0,0,2.76923,22.3077,10.5)">
            <path d="M17.5,2.5L17.5,13.75L2.5,13.75L2.5,2.5L17.5,2.5M20,0L0,0L0,16.25L20,16.25L20,0Z" style="fill:rgb(51,51,51);fill-rule:nonzero;"/>
        </g>
        <g transform="matrix(1,0,0,1,-1.5,-16)">
            <path d="M17,30.6C15.3,30.6 14,31.9 14,33.6L14,64.4C14,66.1 15.3,67.4 17,67.4C18.7,67.4 20,66.1 20,64.4L20,33.6C20,31.9 18.7,30.6 17,30.6Z" style="fill:rgb(51,51,51);fill-rule:nonzero;"/>
        </g>
        <g transform="matrix(1,0,0,1,-1.5,-16)">
            <path d="M7,35.6C5.3,35.6 4,36.9 4,38.6L4,59.4C4,61.1 5.3,62.4 7,62.4C8.7,62.4 10,61.1 10,59.4L10,38.6C10,36.9 8.7,35.6 7,35.6Z" style="fill:rgb(51,51,51);fill-rule:nonzero;"/>
        </g>
        <g transform="matrix(1,0,0,1,3.5,-16)">
            <path d="M81,30.6C79.3,30.6 78,31.9 78,33.6L78,64.4C78,66.1 79.3,67.4 81,67.4C82.7,67.4 84,66.1 84,64.4L84,33.6C84,31.9 82.7,30.6 81,30.6Z" style="fill:rgb(51,51,51);fill-rule:nonzero;"/>
        </g>
        <g transform="matrix(1,0,0,1,3.5,-16)">
            <path d="M91,35.6C89.3,35.6 88,36.9 88,38.6L88,59.4C88,61.1 89.3,62.4 91,62.4C92.7,62.4 94,61.1 94,59.4L94,38.6C94,36.9 92.7,35.6 91,35.6Z" style="fill:rgb(51,51,51);fill-rule:nonzero;"/>
        </g>
    </g>
</svg>
