<?xml version="1.0" encoding="utf-8"?>
<!-- Generator: Adobe Illustrator 20.0.0, SVG Export Plug-In . SVG Version: 6.00 Build 0)  -->
<svg version="1.1" id="Layer_1" xmlns="http://www.w3.org/2000/svg" xmlns:xlink="http://www.w3.org/1999/xlink" x="0px" y="0px"
	 viewBox="0 0 16 16" enable-background="new 0 0 16 16" xml:space="preserve">
<g id="O0XkcB.tif_5_">
	<g>
		<path fill="#DCDCDC" d="M16,13.2C16,13.2,16,13.2,16,13.2c-0.4,0.4-0.7,0.8-1.1,1.1c-0.6,0.6-1.1,1.1-1.7,1.7c-2-2.1-4-4.1-6-6.2
			c-0.9,2.1-1.8,4.1-2.7,6.2C3,10.6,1.5,5.3,0,0c0,0,0.1,0,0.1,0c0.1,0,0.2,0.1,0.3,0.1C5.5,1.6,10.6,3,15.6,4.4
			c0.1,0,0.2,0.1,0.3,0.1c-2,0.9-4,1.8-6,2.7c0.1,0.1,0.1,0.2,0.2,0.2c1.9,1.9,3.8,3.7,5.6,5.6C15.9,13.1,16,13.1,16,13.2z"/>
	</g>
</g>
</svg>
