<?xml version="1.0" encoding="UTF-8" standalone="no"?>
<!DOCTYPE svg PUBLIC "-//W3C//DTD SVG 1.1//EN" "http://www.w3.org/Graphics/SVG/1.1/DTD/svg11.dtd">
<svg width="100%" height="100%" viewBox="0 0 17 20" version="1.1" xmlns="http://www.w3.org/2000/svg" xmlns:xlink="http://www.w3.org/1999/xlink" xml:space="preserve" xmlns:serif="http://www.serif.com/" style="fill-rule:evenodd;clip-rule:evenodd;stroke-linejoin:round;stroke-miterlimit:2;">
    <path d="M0.164,0.164L16.12,0.164L16.12,19.836L0.164,19.836L0.164,0.164ZM4.888,7.831L11.394,7.831C11.273,10.206 11.153,12.582 11.032,14.957L5.197,14.957C5.095,12.582 4.991,10.206 4.888,7.831ZM6.747,5.043L9.536,5.043L9.536,5.663L11.653,5.663L11.653,6.799L4.631,6.799L4.631,5.663L6.748,5.663C6.747,5.456 6.747,5.25 6.747,5.043Z" style="fill:white;"/>
    <g id="icon-trashed-content">
        <g>
            <g>
                <g>
                    <path d="M16.285,20L0,20L0,0L16.284,0L16.285,4.959L16.285,20ZM0.328,19.672L15.956,19.672L15.956,0.328L0.328,0.328L0.328,19.672Z" style="fill:rgb(188,188,188);fill-rule:nonzero;"/>
                </g>
            </g>
            <g>
                <path d="M0.273,19.8L0.273,0.492L15.702,0.492L15.702,0.71L0.492,0.71L0.492,19.581L15.592,19.563L15.568,0.501L15.786,0.5L15.811,19.781L15.702,19.781L0.273,19.8Z" style="fill:rgb(51,51,51);fill-rule:nonzero;"/>
            </g>
        </g>
    </g>
</svg>
