<?xml version="1.0" encoding="iso-8859-1"?>
<!-- Generator: Adobe Illustrator 21.0.2, SVG Export Plug-In . SVG Version: 6.00 Build 0)  -->
<svg version="1.1" id="Layer_1" xmlns="http://www.w3.org/2000/svg" xmlns:xlink="http://www.w3.org/1999/xlink" x="0px" y="0px"
	 viewBox="0 0 20 20" style="enable-background:new 0 0 20 20;" xml:space="preserve">
<g id="wAJWHZ.tif">
	<g>
		<path style="fill:#333333;" d="M1.248,19.992c-0.417-0.411-0.833-0.823-1.256-1.24c0.296-0.577,0.583-1.137,0.871-1.696
			c0.497-0.965,0.995-1.931,1.495-2.895c0.044-0.085,0.099-0.17,0.166-0.237c2.766-2.769,5.533-5.536,8.301-8.304
			c0.027-0.027,0.057-0.053,0.073-0.069c1.18,1.181,2.356,2.358,3.558,3.561c-0.042,0.032-0.11,0.074-0.165,0.129
			c-2.727,2.725-5.452,5.451-8.181,8.175c-0.09,0.09-0.198,0.169-0.312,0.228c-1.438,0.745-2.878,1.486-4.317,2.228
			c-0.068,0.035-0.131,0.08-0.196,0.12C1.274,19.992,1.261,19.992,1.248,19.992z"/>
		<path style="fill:#333333;" d="M13.601,2.908c0.055-0.08,0.088-0.147,0.138-0.197c0.652-0.656,1.301-1.315,1.962-1.962
			c0.718-0.703,1.579-0.927,2.535-0.629c0.958,0.298,1.542,0.978,1.715,1.966c0.146,0.834-0.094,1.575-0.693,2.183
			c-0.654,0.663-1.316,1.319-1.976,1.976c-0.051,0.05-0.113,0.089-0.189,0.148c0.319,0.315,0.613,0.599,0.898,0.891
			c0.359,0.367,0.474,0.804,0.312,1.293c-0.16,0.481-0.509,0.763-1.008,0.841c-0.438,0.068-0.802-0.09-1.112-0.399
			c-1.224-1.226-2.45-2.45-3.675-3.675c-0.53-0.53-1.067-1.052-1.587-1.591c-0.655-0.678-0.398-1.771,0.481-2.066
			c0.481-0.161,0.916-0.058,1.281,0.291C12.985,2.266,13.27,2.57,13.601,2.908z"/>
	</g>
</g>
</svg>
