<?xml version="1.0" encoding="UTF-8" standalone="no"?>
<!DOCTYPE svg PUBLIC "-//W3C//DTD SVG 1.1//EN" "http://www.w3.org/Graphics/SVG/1.1/DTD/svg11.dtd">
<svg width="114px" height="101px" version="1.1" xmlns="http://www.w3.org/2000/svg" xmlns:xlink="http://www.w3.org/1999/xlink" xml:space="preserve" xmlns:serif="http://www.serif.com/" style="fill-rule:evenodd;clip-rule:evenodd;stroke-linejoin:round;stroke-miterlimit:2;">
    <g transform="matrix(-0.0959122,0,0,0.0959122,113.6,-7.5479)">
        <path d="M1184.4,562.37C1184.4,509.362 1148.01,455.72 1078.5,455.72L763.37,455.72C808.39,375.189 821.628,261.92 790.331,179.04C767.343,118.083 723.413,82.517 666.561,78.9L665.643,78.826C628.651,76.556 596.623,104.271 593.549,141.209C585.447,223.408 549.432,368.799 497.811,420.419C454.35,463.88 417.147,482.087 355.481,512.239C346.555,516.606 336.805,521.372 326.493,526.509C326.681,528.739 326.794,530.97 326.794,533.259L326.794,1048.4C334.239,1050.95 341.587,1053.48 348.806,1055.95C450.576,1091.04 538.536,1121.32 672.976,1121.32L927.746,1121.32C997.269,1121.32 1033.65,1067.65 1033.65,1014.67C1033.65,998.936 1030.46,983.166 1024.14,968.728C1047.29,964.564 1067.56,953.427 1082.58,936.384C1099.63,917.017 1109.02,891.271 1109.02,863.896C1109.02,848.22 1105.83,832.451 1099.53,818.052C1155.35,808.416 1184.42,760.509 1184.42,713.142C1184.42,685.673 1174.63,658.017 1155.54,637.767C1174.6,617.494 1184.4,589.837 1184.4,562.369L1184.4,562.37Z" style="fill:rgb(51,51,51);fill-rule:nonzero;"/>
        <g transform="matrix(-1.04502,0,0,1.04502,355.216,0.924626)">
            <path d="M195.43,848.01C223.043,848.01 245.438,870.405 245.438,898.018C245.438,925.631 223.043,948.026 195.43,948.026C167.817,948.026 145.422,925.631 145.422,898.018C145.422,870.405 167.817,848.01 195.43,848.01ZM364.8,505.25L86.48,505.25L86.48,1004.57L364.8,1004.57L364.8,505.25Z" style="fill:rgb(51,51,51);"/>
        </g>
    </g>
</svg>
