<?xml version="1.0" encoding="iso-8859-1"?>
<!-- Generator: Adobe Illustrator 21.0.2, SVG Export Plug-In . SVG Version: 6.00 Build 0)  -->
<svg version="1.1" xmlns="http://www.w3.org/2000/svg" xmlns:xlink="http://www.w3.org/1999/xlink" x="0px" y="0px"
	 viewBox="0 0 14.673 16" style="enable-background:new 0 0 14.673 16;" xml:space="preserve">
<g id="icon-text">
	<path style="fill:#333333;" d="M3.602,16v-0.939c0.915-0.029,1.458-0.091,1.63-0.183c0.171-0.091,0.288-0.242,0.35-0.457
		c0.083-0.328,0.125-1.315,0.125-2.961V4.61c0-1.869-0.011-2.914-0.034-3.133H4.037c-0.823,0-1.548,0.024-2.174,0.078
		C1.612,1.579,1.467,1.609,1.43,1.646c-0.054,0.047-0.1,0.18-0.138,0.401C1.194,2.581,1.137,3.179,1.121,3.843H0.171
		c-0.03-1.563-0.049-2.444-0.057-2.641C0.092,0.865,0.054,0.505,0,0.114L0.104,0c0.358,0.037,0.738,0.065,1.142,0.079
		c0.655,0.023,1.915,0.035,3.782,0.035h4.617c1.92,0,3.204-0.012,3.852-0.035c0.35-0.014,0.704-0.042,1.062-0.079l0.114,0.114
		c-0.068,0.465-0.11,0.872-0.125,1.225c-0.008,0.059-0.023,0.894-0.047,2.503h-0.949c-0.015-0.595-0.065-1.162-0.148-1.705
		c-0.046-0.274-0.095-0.438-0.149-0.492c-0.045-0.037-0.167-0.065-0.365-0.079c-0.625-0.061-1.376-0.09-2.252-0.09H9.001
		C8.977,1.742,8.966,2.786,8.966,4.61v6.85c0,1.646,0.042,2.637,0.126,2.973c0.054,0.198,0.168,0.345,0.343,0.441
		c0.176,0.096,0.722,0.159,1.636,0.188V16c-1.477-0.069-2.721-0.103-3.734-0.103C6.256,15.897,5.011,15.931,3.602,16z"/>
</g>
<g id="Layer_1">
</g>
</svg>
