<?xml version="1.0" encoding="UTF-8" standalone="no"?>
<!DOCTYPE svg PUBLIC "-//W3C//DTD SVG 1.1//EN" "http://www.w3.org/Graphics/SVG/1.1/DTD/svg11.dtd">
<svg width="38px" height="28px" version="1.1" xmlns="http://www.w3.org/2000/svg" xmlns:xlink="http://www.w3.org/1999/xlink" xml:space="preserve" xmlns:serif="http://www.serif.com/" style="fill-rule:evenodd;clip-rule:evenodd;stroke-linejoin:round;stroke-miterlimit:2;">
    <g transform="matrix(1,0,0,1,-2115,-40)">
        <g transform="matrix(0.533333,0,0,0.598967,1085.67,34.0103)">
            <path d="M1960,13.888C1960,11.742 1958.04,10 1955.63,10L1934.37,10C1931.96,10 1930,11.742 1930,13.888L1930,32.824C1930,34.97 1931.96,36.713 1934.37,36.713L1955.63,36.713C1958.04,36.713 1960,34.97 1960,32.824L1960,13.888ZM1935.62,15.009L1935.62,31.704L1954.38,31.704L1954.38,15.009L1935.62,15.009Z" style="fill:white;"/>
        </g>
        <g transform="matrix(1.56643,0,0,1.75,2143.62,54)">
            <g transform="matrix(1,0,0,1,-5.5,-8)">
                <path d="M9,0L2,0C0.9,0 0,0.901 0,2L0,14C0,15.1 0.9,16 2,16L9,16C10.1,16 11,15.1 11,14L11,2C11,0.901 10.1,0 9,0ZM4,1L7,1C7.276,1 7.5,1.224 7.5,1.5C7.5,1.776 7.276,2 7,2L4,2C3.724,2 3.5,1.776 3.5,1.5C3.5,1.224 3.724,1 4,1ZM5.5,15.279C5.07,15.279 4.721,14.93 4.721,14.5C4.721,14.07 5.07,13.722 5.5,13.722C5.93,13.722 6.279,14.07 6.279,14.5C6.279,14.931 5.93,15.279 5.5,15.279ZM9,13L2,13L2,3L9,3L9,13Z" style="fill:white;fill-rule:nonzero;"/>
            </g>
        </g>
    </g>
</svg>
