<?xml version="1.0" encoding="UTF-8" standalone="no"?>
<!DOCTYPE svg PUBLIC "-//W3C//DTD SVG 1.1//EN" "http://www.w3.org/Graphics/SVG/1.1/DTD/svg11.dtd">
<svg width="50px" height="40px" version="1.1" xmlns="http://www.w3.org/2000/svg" xmlns:xlink="http://www.w3.org/1999/xlink" xml:space="preserve" xmlns:serif="http://www.serif.com/" style="fill-rule:evenodd;clip-rule:evenodd;stroke-linejoin:round;stroke-miterlimit:2;">
    <g transform="matrix(3.33333,0,0,3.33333,0,0)">
        <path d="M0,11C0,11.55 0.45,12 1,12L14,12C14.55,12 15,11.55 15,11L15,3C15,2.451 14.55,2 14,2L8,2C7.45,2 6.704,1.662 6.341,1.248L5.909,0.752C5.546,0.338 4.8,0 4.25,0L1,0C0.45,0 0,0.451 0,1L0,11Z" style="fill:rgb(137,137,137);fill-rule:nonzero;"/>
        <g transform="matrix(0.147368,0,0,0.147368,3.01334,2.54007)">
            <g>
                <g>
                    <path d="M45.592,0.914C47.739,0.914 49.468,2.642 49.468,4.79L49.468,9.679C49.468,11.825 47.739,13.553 45.592,13.553L31.879,13.553C31.522,13.553 31.223,13.851 31.223,14.21L31.223,18.502C31.223,18.86 31.521,19.159 31.879,19.159L49.468,19.159L49.468,22.378L28.004,22.378L28.004,14.21C28.004,12.064 29.733,10.334 31.879,10.334L45.592,10.334C45.95,10.334 46.249,10.036 46.249,9.679L46.249,4.79C46.249,4.432 45.951,4.133 45.592,4.133L31.879,4.133C31.522,4.133 31.223,4.431 31.223,4.79L31.223,6.041L28.004,6.041L28.004,4.79C28.004,2.642 29.733,0.914 31.879,0.914L45.592,0.914Z" style="fill:rgb(220,220,220);fill-rule:nonzero;"/>
                    <g>
                        <rect x="2.967" y="0" width="6.993" height="8.533" style="fill:rgb(220,220,220);"/>
                        <rect x="2.967" y="16.645" width="6.993" height="7.752" style="fill:rgb(220,220,220);"/>
                        <path d="M25.692,28.659L25.692,39.3L9.96,39.3L9.96,32.509L2.967,32.509L2.967,46.167L9.96,46.167L9.96,46.052L25.692,46.052L25.692,56.693L53.726,56.693L53.726,28.659L25.692,28.659Z" style="fill:rgb(220,220,220);fill-rule:nonzero;"/>
                    </g>
                </g>
            </g>
        </g>
    </g>
</svg>
