<?xml version="1.0" encoding="UTF-8" standalone="no"?>
<!DOCTYPE svg PUBLIC "-//W3C//DTD SVG 1.1//EN" "http://www.w3.org/Graphics/SVG/1.1/DTD/svg11.dtd">
<svg width="100%" height="100%" viewBox="0 0 91 108" version="1.1" xmlns="http://www.w3.org/2000/svg" xmlns:xlink="http://www.w3.org/1999/xlink" xml:space="preserve" xmlns:serif="http://www.serif.com/" style="fill-rule:evenodd;clip-rule:evenodd;stroke-linejoin:round;stroke-miterlimit:2;">
    <g transform="matrix(1,0,0,1,-164.4,-79.6029)">
        <g transform="matrix(-0.0964509,0,0,-0.0964509,269.596,189.474)">
            <path d="M801.6,1118.4L271.2,1118.4C216.001,1118.4 170.4,1072.8 170.4,1017.6L170.4,309.6C170.4,254.401 216.002,208.8 271.2,208.8L801.6,208.8C856.799,208.8 902.4,254.402 902.4,309.6L902.4,1017.6C902.4,1072.8 856.802,1118.4 801.6,1118.4ZM271.2,279.6C255.598,279.6 242.399,292.799 242.399,308.401L242.399,1016.4C242.399,1032 255.598,1045.2 271.2,1045.2L801.6,1045.2C817.202,1045.2 830.401,1032 830.401,1016.4L830.401,308.401C830.401,292.799 817.202,279.6 801.6,279.6L271.2,279.6Z" style="fill:rgb(51,51,51);fill-rule:nonzero;stroke:rgb(51,51,51);stroke-width:41.47px;"/>
        </g>
        <g transform="matrix(-0.0964509,0,0,-0.0964509,265.596,193.474)">
            <path d="M993.6,992.4C973.202,992.4 957.6,976.798 957.6,956.4L957.6,182.4C957.6,166.798 944.401,153.599 928.799,153.599L440.399,153.603C420.001,153.603 404.399,138.001 404.399,117.603C404.399,97.205 420.001,81.603 440.399,81.603L927.599,81.603C982.798,81.603 1028.4,127.205 1028.4,182.403L1028.4,956.403C1029.6,976.801 1012.8,992.399 993.602,992.399L993.6,992.4Z" style="fill:rgb(51,51,51);fill-rule:nonzero;stroke:rgb(51,51,51);stroke-width:41.47px;"/>
        </g>
    </g>
</svg>
