<?xml version="1.0" encoding="UTF-8" standalone="no"?>
<!DOCTYPE svg PUBLIC "-//W3C//DTD SVG 1.1//EN" "http://www.w3.org/Graphics/SVG/1.1/DTD/svg11.dtd">
<svg width="20px" height="20px" version="1.1" xmlns="http://www.w3.org/2000/svg" xmlns:xlink="http://www.w3.org/1999/xlink" xml:space="preserve" xmlns:serif="http://www.serif.com/" style="fill-rule:evenodd;clip-rule:evenodd;stroke-linejoin:round;stroke-miterlimit:2;">
    <g id="icon-site-settings">
        <g>
            <g>
                <g>
                    <path d="M12.722,11.407L10.845,11.407C10.733,11.048 10.576,10.708 10.385,10.391L11.63,9.144C11.924,8.854 11.924,8.379 11.63,8.086L11.102,7.559C10.809,7.267 10.335,7.269 10.043,7.559L8.777,8.823C8.435,8.628 8.064,8.478 7.67,8.376L7.67,6.731C7.67,6.319 7.337,5.982 6.922,5.982L6.174,5.982C5.762,5.982 5.427,6.318 5.427,6.731L5.427,8.376C4.997,8.484 4.593,8.656 4.223,8.881L3.164,7.823C2.872,7.532 2.396,7.531 2.105,7.823L1.574,8.351C1.282,8.643 1.286,9.118 1.576,9.411L2.654,10.49C2.427,10.887 2.255,11.321 2.158,11.782L0.75,11.782C0.335,11.782 0,12.117 0,12.531L0,13.279C0,13.691 0.335,14.025 0.75,14.025L2.254,14.025C2.39,14.477 2.596,14.893 2.859,15.27L1.842,16.287C1.549,16.582 1.549,17.056 1.839,17.348L2.368,17.876C2.661,18.167 3.136,18.167 3.428,17.875L4.565,16.74C4.948,16.928 5.363,17.067 5.8,17.138L5.8,18.702C5.8,19.115 6.134,19.451 6.547,19.451L7.296,19.451C7.708,19.45 8.043,19.115 8.043,18.702L8.043,16.944C8.42,16.811 8.777,16.632 9.101,16.404L10.306,17.61C10.599,17.902 11.072,17.902 11.365,17.61L11.894,17.081C12.188,16.789 12.188,16.316 11.892,16.022L10.573,14.701C10.735,14.372 10.861,14.021 10.938,13.651L12.721,13.651C13.136,13.651 13.47,13.318 13.471,12.902L13.471,12.154C13.471,11.743 13.136,11.407 12.722,11.407ZM6.549,14.587C5.516,14.587 4.679,13.752 4.679,12.717C4.679,11.683 5.516,10.848 6.549,10.848C7.583,10.848 8.42,11.684 8.42,12.717C8.42,13.753 7.583,14.587 6.549,14.587Z" style="fill:white;fill-rule:nonzero;"/>
                </g>
            </g>
            <g>
                <g>
                    <path d="M19.2,2.755L17.897,3.086C17.757,2.858 17.588,2.65 17.401,2.464L18.044,1.379C18.196,1.126 18.113,0.796 17.858,0.646L17.399,0.373C17.143,0.223 16.815,0.307 16.664,0.56L16.008,1.66C15.737,1.585 15.454,1.546 15.162,1.546L14.872,0.404C14.799,0.119 14.508,-0.056 14.222,0.017L13.703,0.149C13.418,0.222 13.244,0.514 13.316,0.801L13.607,1.942C13.329,2.094 13.078,2.283 12.861,2.505L11.94,1.958C11.688,1.807 11.357,1.89 11.206,2.144L10.931,2.604C10.781,2.857 10.868,3.187 11.12,3.339L12.058,3.897C11.97,4.214 11.929,4.544 11.941,4.882L10.965,5.13C10.678,5.202 10.503,5.494 10.577,5.783L10.709,6.3C10.781,6.585 11.073,6.759 11.361,6.686L12.404,6.421C12.579,6.71 12.794,6.963 13.043,7.177L12.516,8.063C12.367,8.319 12.45,8.647 12.702,8.799L13.162,9.072C13.418,9.222 13.748,9.138 13.898,8.883L14.487,7.896C14.785,7.958 15.097,7.981 15.414,7.954L15.69,9.039C15.763,9.325 16.054,9.499 16.341,9.426L16.861,9.294C17.146,9.222 17.32,8.93 17.248,8.643L16.938,7.425C17.175,7.265 17.392,7.081 17.576,6.862L18.623,7.488C18.879,7.64 19.206,7.557 19.359,7.301L19.632,6.841C19.784,6.588 19.701,6.259 19.444,6.107L18.29,5.422C18.345,5.163 18.371,4.899 18.359,4.629L19.596,4.314C19.882,4.242 20.053,3.948 19.984,3.662L19.851,3.143C19.776,2.858 19.487,2.683 19.2,2.755ZM15.48,6.051C14.764,6.233 14.035,5.801 13.852,5.081C13.669,4.364 14.105,3.639 14.821,3.456C15.537,3.275 16.266,3.704 16.448,4.421C16.631,5.141 16.197,5.868 15.48,6.051Z" style="fill:white;fill-rule:nonzero;"/>
                </g>
            </g>
        </g>
    </g>
</svg>
