<?xml version="1.0" encoding="utf-8"?>
<!-- Generator: Adobe Illustrator 21.0.2, SVG Export Plug-In . SVG Version: 6.00 Build 0)  -->
<svg version="1.1" id="Layer_1" xmlns="http://www.w3.org/2000/svg" xmlns:xlink="http://www.w3.org/1999/xlink" x="0px" y="0px"
	 viewBox="0 0 16.3 20" style="enable-background:new 0 0 16.3 20;" xml:space="preserve">
<style type="text/css">
	.st0{fill:#B5B5B5;}
	.st1{fill:#6C6C6C;}
	.st2{fill:#EB7833;}
	.st3{fill:#C13C0C;}
	.st4{fill:#EEC58B;}
	.st5{fill:#F28C5A;}
	.st6{fill:#4F2508;}
</style>
<g id="content_x5F_draft_x5F_hidden">
	<g>
		<g>
			<polygon class="st0" points="13.5,17.3 14.8,15.9 16.1,14.5 16.1,19.8 11,19.8 			"/>
			<path class="st1" d="M16.3,20h-5.7l2.7-2.8l1.4-1.4l1.6-1.7V20z M11.4,19.7h4.5V15l-1,1l-1.4,1.4L11.4,19.7z"/>
		</g>
		<g>
			<g>
				<g>
					<polygon class="st2" points="0.2,19.8 11.2,19.8 16.1,15 16.1,0.2 0.2,0.2 					"/>
				</g>
				<g>
					<path class="st3" d="M11.3,20H0V0h16.3v15L11.3,20z M0.3,19.7h10.8l4.8-4.8V0.3H0.3V19.7z"/>
				</g>
			</g>
			<g>
				<polygon class="st4" points="15.9,15 11.2,19.6 11.2,15 				"/>
				<path class="st3" d="M11.1,19.8l0-5l5.1,0L11.1,19.8z M11.3,15.1l0,4.2l4.3-4.2L11.3,15.1z"/>
			</g>
			<g>
				<polygon class="st3" points="11.2,19.7 11,19.7 11,14.7 15.8,14.7 15.8,14.9 11.2,14.9 				"/>
			</g>
			<g>
				<polygon class="st5" points="11,19.7 0.3,19.7 0.3,0.5 15.8,0.5 15.8,14.7 15.6,14.7 15.6,0.7 0.5,0.7 0.5,19.5 11,19.5 				"/>
			</g>
			<g>
				<g>
					<polyline class="st3" points="14.5,10.9 14.5,10.7 14.6,10.4 14.6,10.2 14.6,9.9 14.5,9.8 14.4,9.7 14.3,9.6 14.2,9.5 
						14.1,9.4 14,9.3 13.9,9.2 13.8,9.1 13.8,9.2 13.8,9.4 13.8,9.5 13.8,9.7 13.8,9.8 13.8,10 13.8,10.1 13.8,10.3 13.8,10.3 
						13.7,10.3 13.6,10.3 13.4,10.3 13.1,10.4 12.9,10.4 12.6,10.4 12.2,10.4 11.8,10.4 11.4,10.5 11,10.5 10.6,10.5 10.1,10.5 
						9.6,10.6 9.1,10.6 8.6,10.6 8.6,10.7 8.5,10.7 8.5,10.8 8.5,10.9 8.4,11 8.3,11.1 8.3,11.1 8.2,11.2 8.6,11.2 8.9,11.2 
						9.2,11.2 9.5,11.1 9.8,11.1 10,11.2 10.2,11.2 10.4,11.2 10.9,11.2 11.5,11.2 12.1,11.2 12.8,11.1 13.4,11.1 13.9,11 14.3,11 
											"/>
				</g>
				<g>
					<polyline class="st3" points="8.5,10.9 8.5,10.8 8.5,10.7 8.6,10.7 8.6,10.6 8.1,10.6 7.5,10.6 6.9,10.6 6.4,10.6 5.9,10.6 
						5.4,10.5 4.9,10.5 4.5,10.5 4,10.5 3.7,10.5 3.3,10.5 3.1,10.4 2.8,10.4 2.7,10.4 2.6,10.4 2.5,10.4 2.5,10 2.5,9.7 2.4,9.3 
						2.4,9 2.4,8.6 2.4,8.3 2.4,8 2.3,7.6 2.3,7.3 2.3,7 2.3,6.6 2.3,6.3 2.2,6 2.2,5.6 2.2,5.3 2.2,5 2.5,5 2.8,5 3.3,5 3.8,5 
						4.4,5 5,5.1 5.7,5.1 6.4,5.1 7,5.1 7.5,5.1 8.1,5.1 8.7,5.1 9.2,5.2 9.8,5.2 10.3,5.2 10.9,5.2 11.4,5.2 11.8,5.2 12.3,5.2 
						12.7,5.2 13,5.2 13.3,5.2 13.6,5.2 13.8,5.2 13.8,5.7 13.8,6.2 13.8,6.7 13.8,7.1 13.8,7.6 13.8,8.1 13.8,8.6 13.8,9.1 
						13.9,9.2 14,9.3 14.1,9.4 14.2,9.5 14.3,9.6 14.4,9.7 14.5,9.8 14.6,9.9 14.6,9.7 14.5,9.5 14.5,9.2 14.5,9 14.5,8.5 14.5,7.7 
						14.5,7 14.5,6.2 14.5,5.5 14.4,4.9 14.4,4.5 14.4,4.3 14.1,4.3 13.8,4.3 13.6,4.3 13.3,4.3 13,4.3 12.7,4.3 12.4,4.3 12.2,4.3 
						11.9,4.2 11.6,4.2 11.3,4.2 11,4.2 10.8,4.2 10.5,4.2 10.2,4.2 9.9,4.2 9.5,4.2 9.1,4.2 8.7,4.2 8.3,4.2 7.9,4.2 7.5,4.2 
						7.1,4.2 6.7,4.2 6.3,4.2 6,4.2 5.7,4.2 5.4,4.2 5.1,4.2 4.8,4.2 4.5,4.3 4.1,4.3 3.8,4.3 3.5,4.3 3.2,4.3 2.9,4.4 2.6,4.4 
						2.2,4.4 1.9,4.4 1.6,4.5 1.6,4.9 1.6,5.3 1.6,5.7 1.6,6.1 1.6,6.5 1.6,6.9 1.6,7.3 1.7,7.7 1.7,8.1 1.7,8.5 1.8,8.9 1.8,9.3 
						1.9,9.8 1.9,10.2 1.9,10.6 1.9,11 2,11 2,11 2.1,11.1 2.2,11.2 2.2,11.2 2.3,11.2 2.5,11.2 2.8,11.2 3.1,11.2 3.4,11.2 
						3.8,11.2 4.3,11.2 4.7,11.2 5.2,11.2 5.7,11.2 6.2,11.2 6.7,11.2 7.2,11.2 7.7,11.2 8.2,11.2 8.3,11.1 8.3,11.1 8.4,11 					
						"/>
				</g>
			</g>
			<g>
				<g>
					<path class="st6" d="M3.9,9.2H3.1C3.1,9.2,3,9.2,3,9.1C3,9.1,3,9.1,3,9C3.1,9,3.1,9,3.1,8.9V7.3c0,0,0-0.1-0.1-0.1
						C3,7.1,3,7.1,3,7c0-0.1,0.1-0.1,0.1-0.1h0.8V9.2z M4,6.9c0.5,0,1,0.4,1,1.1c0,0.7-0.5,1.1-1,1.1V9c0.2,0,0.2-0.2,0.2-0.3V7.4
						c0-0.1,0-0.3-0.2-0.3V6.9z"/>
				</g>
				<g>
					<path class="st6" d="M5.4,7.3c0-0.1,0-0.1-0.1-0.2c0,0-0.1,0-0.1-0.1c0-0.1,0.1-0.1,0.1-0.1h0.8v1.9C6.2,9,6.2,9,6.3,9
						c0,0,0.1,0,0.1,0.1c0,0.1-0.1,0.1-0.1,0.1H5.4c0,0-0.1,0-0.1-0.1c0,0,0-0.1,0.1-0.1C5.4,9,5.4,9,5.4,8.9L5.4,7.3L5.4,7.3z
						 M6.3,6.9L6.3,6.9c0.2,0,0.4,0,0.6,0.1c0.2,0.1,0.3,0.3,0.3,0.5C7.3,7.9,7,8,6.7,8.1v0c0.3,0,0.5,0.1,0.5,0.4v0.3
						c0,0,0,0.1,0,0.1c0,0,0.1-0.1,0.1-0.1c0,0,0.1,0,0.1,0.1c0,0.1-0.1,0.2-0.2,0.3C7.2,9.2,7.1,9.3,7,9.3c-0.1,0-0.3,0-0.3-0.1
						C6.5,9,6.5,8.9,6.5,8.8V8.5c0-0.1,0-0.3-0.2-0.3V8c0.2,0,0.2-0.1,0.2-0.3V7.4c0-0.2,0-0.2-0.2-0.3V6.9z"/>
				</g>
				<g>
					<path class="st6" d="M8.3,7.7L8,8.8C7.9,8.9,8,9,8.1,9c0,0,0.1,0,0.1,0.1c0,0.1-0.1,0.1-0.2,0.1H7.7c-0.1,0-0.2,0-0.2-0.1
						c0-0.1,0.1-0.1,0.1-0.1c0.1,0,0.1-0.1,0.2-0.3l0.4-1.3h0L8.3,7.7z M8.6,8.6H8.2l0-0.2h0.4L8.3,7.1l0-0.2H9l0.5,1.9
						C9.5,9,9.5,9,9.5,9c0,0,0.1,0,0.1,0.1c0,0.1-0.1,0.1-0.2,0.1H8.7c-0.1,0-0.1,0-0.1-0.1c0,0,0-0.1,0.1-0.1C8.7,9,8.7,9,8.7,8.9
						L8.6,8.6z"/>
				</g>
				<g>
					<path class="st6" d="M10,7.3c0-0.1,0-0.1-0.1-0.2c0,0-0.1,0-0.1-0.1c0-0.1,0.1-0.1,0.1-0.1h0.8v1.9c0,0.1,0,0.1,0.1,0.2
						c0,0,0.1,0,0.1,0.1c0,0.1-0.1,0.1-0.1,0.1H9.9c0,0-0.1,0-0.1-0.1c0,0,0-0.1,0.1-0.1C10,9,10,9,10,8.9V7.3z M10.8,6.9h0.7v0.6
						c0,0,0,0.1-0.1,0.1c-0.1,0-0.1,0-0.1-0.1c-0.1-0.2-0.2-0.4-0.5-0.4C10.8,7.1,10.8,6.9,10.8,6.9z M10.8,8c0.1,0,0.2-0.2,0.2-0.3
						c0-0.1,0-0.1,0.1-0.1c0.1,0,0.1,0.1,0.1,0.1v0.7c0,0,0,0.1-0.1,0.1c-0.1,0-0.1,0-0.1-0.1c0-0.1-0.1-0.2-0.2-0.3V8z"/>
				</g>
				<g>
					<path class="st6" d="M11.7,6.9h0.4v0.2c-0.2,0.1-0.2,0.3-0.2,0.5c0,0.1,0,0.1-0.1,0.1c-0.1,0-0.1-0.1-0.1-0.1
						C11.7,7.6,11.7,6.9,11.7,6.9z M12.2,6.9H13v1.9C13,9,13,9,13.1,9c0,0,0.1,0,0.1,0.1c0,0.1-0.1,0.1-0.1,0.1h-0.9
						c0,0-0.1,0-0.1-0.1c0,0,0-0.1,0.1-0.1c0.1,0,0.1-0.1,0.1-0.2C12.2,8.9,12.2,6.9,12.2,6.9z M13.6,7.6c0,0,0,0.1-0.1,0.1
						c-0.1,0-0.1-0.1-0.1-0.1c0-0.2-0.1-0.4-0.2-0.5V6.9h0.4C13.6,6.9,13.6,7.6,13.6,7.6z"/>
				</g>
			</g>
		</g>
	</g>
</g>
<g id="Layer_1_1_">
</g>
</svg>
