<?xml version="1.0" encoding="UTF-8" standalone="no"?>
<!DOCTYPE svg PUBLIC "-//W3C//DTD SVG 1.1//EN" "http://www.w3.org/Graphics/SVG/1.1/DTD/svg11.dtd">
<svg width="100%" height="100%" viewBox="0 0 26 21" version="1.1" xmlns="http://www.w3.org/2000/svg" xmlns:xlink="http://www.w3.org/1999/xlink" xml:space="preserve" xmlns:serif="http://www.serif.com/" style="fill-rule:evenodd;clip-rule:evenodd;stroke-linejoin:round;stroke-miterlimit:2;">
    <g id="icon-users-and-contacts" transform="matrix(1,0,0,1,-0.000112914,0)">
        <g>
            <path d="M19.601,15.252C19.001,14.34 16.985,13.771 14.989,12.96C12.993,12.149 12.52,11.867 12.52,11.867L12.501,9.998C12.501,9.998 13.249,9.439 13.481,7.681C13.949,7.814 14.44,7 14.466,6.573C14.492,6.16 14.402,5.014 13.831,5.131C13.948,4.271 14.032,3.495 13.992,3.083C13.843,1.585 12.328,0 10,0C7.672,0 6.157,1.585 6.009,3.083C5.968,3.495 6.052,4.271 6.169,5.131C5.598,5.014 5.508,6.16 5.534,6.573C5.56,7 6.051,7.814 6.519,7.682C6.751,9.44 7.499,9.999 7.499,9.999L7.48,11.868C7.48,11.868 7.007,12.15 5.011,12.961C3.015,13.772 0.999,14.34 0.399,15.253C-0.139,16.072 0.023,20 0.023,20L19.977,20C19.977,20 20.139,16.072 19.601,15.252Z" style="fill:rgb(51,51,51);fill-rule:nonzero;"/>
        </g>
        <g transform="matrix(0.161765,0,0,0.161765,19.607,15.2973)">
            <g transform="matrix(1,0,0,1,-34,-34)">
                <clipPath id="_clip1">
                    <rect x="0" y="0" width="68" height="68"/>
                </clipPath>
                <g clip-path="url(#_clip1)">
                    <g transform="matrix(1,0,0,1,-16,-16)">
                        <g transform="matrix(1.26437,0,0,1.5815,10.0993,-14.2321)">
                            <ellipse cx="31.558" cy="40.615" rx="26.891" ry="21.499" style="fill:white;"/>
                        </g>
                        <g transform="matrix(0.828378,0,0,0.828378,8.58111,8.58111)">
                            <path d="M50,16.199C31.332,16.199 16.199,31.332 16.199,50C16.199,68.668 31.332,83.801 50,83.801C68.668,83.801 83.801,68.668 83.801,50C83.801,31.332 68.668,16.199 50,16.199ZM68.377,34.633L40.116,62.894L37.106,59.884L65.367,31.623L68.377,34.633ZM59.925,29.387C60.81,28.502 62.246,28.502 63.131,29.387L63.951,30.207L35.69,58.468L33.267,56.045L59.925,29.387ZM29.743,71.277C29.179,71.277 28.723,70.82 28.723,70.257L31.263,58.049L41.951,68.737L29.743,71.277ZM70.613,40.075L43.955,66.733L41.532,64.31L69.793,36.049L70.613,36.869C71.498,37.754 71.498,39.19 70.613,40.075Z" style="fill:rgb(51,51,51);fill-rule:nonzero;"/>
                        </g>
                    </g>
                </g>
            </g>
        </g>
    </g>
</svg>
