<?xml version="1.0" encoding="utf-8"?>
<!-- Generator: Adobe Illustrator 21.0.2, SVG Export Plug-In . SVG Version: 6.00 Build 0)  -->
<svg version="1.1" id="Layer_1" xmlns="http://www.w3.org/2000/svg" xmlns:xlink="http://www.w3.org/1999/xlink" x="0px" y="0px"
	 viewBox="0 0 16 16" style="enable-background:new 0 0 16 16;" xml:space="preserve">
<style type="text/css">
	.st0{fill:#333333;}
</style>
<path class="st0" d="M16,8c0-1.9-1.6-3.5-3.5-3.5c-1.4,0-2.6,0.8-3.2,2L2,6.5l-2,1l1,2l0.9-0.1l1.9,0.9l1-1l1.1,0.1l0,1l2,0l0-1
	l1.4,0c0.6,1.2,1.8,2,3.2,2C14.4,11.5,16,9.9,16,8z M13.5,8.6c-0.3,0-0.6-0.3-0.6-0.6c0-0.3,0.3-0.6,0.6-0.6c0.3,0,0.6,0.3,0.6,0.6
	C14.1,8.3,13.8,8.6,13.5,8.6z"/>
</svg>
