<?xml version="1.0" encoding="iso-8859-1"?>
<!-- Generator: Adobe Illustrator 21.0.2, SVG Export Plug-In . SVG Version: 6.00 Build 0)  -->
<svg version="1.1" xmlns="http://www.w3.org/2000/svg" xmlns:xlink="http://www.w3.org/1999/xlink" x="0px" y="0px"
	 viewBox="0 0 16 15.437" style="enable-background:new 0 0 16 15.437;" xml:space="preserve">
<g id="icon-warning">
	<g>
		<g>
			<path style="fill:#FF5600;" d="M15.766,13.39L13.45,8.993c-0.574-1.067-1.514-2.819-2.089-3.886L9.044,0.801
				C8.47-0.266,7.53-0.268,6.956,0.799L4.64,5.119C4.065,6.187,3.125,7.952,2.551,9.017L0.234,13.39
				c-0.574,1.068-0.053,2.047,1.158,2.047h4.405c1.212,0,3.194,0,4.405,0h4.405C15.82,15.437,16.341,14.458,15.766,13.39z"/>
		</g>
		<g>
			<path style="fill:#FFFFFF;" d="M6.863,5.092h2.194l-0.339,5.463H7.202L6.863,5.092z M6.863,11.244h2.194v1.923H6.863V11.244z"/>
		</g>
	</g>
</g>
<g id="Layer_1">
</g>
</svg>
