<?xml version="1.0" encoding="utf-8"?>
<!-- Generator: Adobe Illustrator 21.0.2, SVG Export Plug-In . SVG Version: 6.00 Build 0)  -->
<svg version="1.1" id="Layer_1" xmlns="http://www.w3.org/2000/svg" xmlns:xlink="http://www.w3.org/1999/xlink" x="0px" y="0px"
	 viewBox="0 0 18 18" style="enable-background:new 0 0 18 18;" xml:space="preserve">
<style type="text/css">
	.st0{fill:#333333;}
</style>
<g id="icon-modules-off">
	<path class="st0" d="M15.8,3.5h-1.1V2.3c0-0.6-0.4-1-1-1h-2.5c-0.6,0-1,0.5-1,1v1.2H7.7V2.3c0-0.6-0.4-1-1-1H4.1c-0.6,0-1,0.5-1,1
		v1.2h-1C1,3.5,0,4.4,0,5.6v8.9c0,1.2,1,2.2,2.2,2.2h13.7c1.2,0,2.2-1,2.2-2.2V5.6C18,4.4,17,3.5,15.8,3.5z M11.2,2.3
		C11.2,2.3,11.2,2.2,11.2,2.3l2.6,0c0,0,0,0,0,0v1.2h-2.6L11.2,2.3L11.2,2.3z M4.1,2.3C4.1,2.3,4.1,2.2,4.1,2.3l2.6,0c0,0,0,0,0,0
		v1.2H4.1V2.3z M16.7,14.6c0,0.5-0.4,0.9-0.9,0.9H2.2c-0.5,0-0.9-0.4-0.9-0.9V5.6c0-0.5,0.4-0.9,0.9-0.9h13.7c0.5,0,0.9,0.4,0.9,0.9
		L16.7,14.6L16.7,14.6z"/>
</g>
<g id="Layer_1_1_">
</g>
</svg>
