<?xml version="1.0" encoding="iso-8859-1"?>
<!-- Generator: Adobe Illustrator 21.0.2, SVG Export Plug-In . SVG Version: 6.00 Build 0)  -->
<svg version="1.1" xmlns="http://www.w3.org/2000/svg" xmlns:xlink="http://www.w3.org/1999/xlink" x="0px" y="0px"
	 viewBox="0 0 16 16" style="enable-background:new 0 0 16 16;" xml:space="preserve">
<g id="icon-url">
	<g id="dZFEdR.tif">
		<g>
			<path style="fill:#333333;" d="M5.852,4.531c0.175-0.21,0.321-0.412,0.494-0.587c0.923-0.93,1.838-1.87,2.786-2.776
				c1.171-1.119,2.571-1.459,4.094-0.914c1.55,0.555,2.501,1.69,2.733,3.341c0.178,1.265-0.221,2.37-1.113,3.282
				c-0.912,0.932-1.836,1.852-2.769,2.763c-1.551,1.517-4.06,1.507-5.555-0.009c-0.454-0.46-0.368-1.18,0.177-1.492
				c0.373-0.213,0.797-0.151,1.147,0.167c0.657,0.597,1.408,0.758,2.234,0.434c0.257-0.101,0.504-0.272,0.703-0.465
				c0.915-0.889,1.816-1.794,2.715-2.7c0.86-0.867,0.834-2.144-0.052-3.024c-0.879-0.873-2.149-0.89-3.015-0.034
				C9.729,3.21,9.034,3.907,8.338,4.604C8.26,4.682,8.198,4.727,8.071,4.688c-0.693-0.213-1.4-0.274-2.118-0.146
				C5.934,4.545,5.915,4.538,5.852,4.531z"/>
			<path style="fill:#333333;" d="M10.171,11.437c-0.191,0.232-0.33,0.43-0.498,0.599c-0.943,0.95-1.871,1.916-2.847,2.832
				c-1.173,1.103-2.574,1.419-4.085,0.863c-1.529-0.563-2.467-1.689-2.699-3.323c-0.175-1.233,0.191-2.325,1.054-3.221
				C2.034,8.214,2.994,7.26,3.967,6.321c1.519-1.467,3.95-1.458,5.464-0.002c0.423,0.407,0.46,0.976,0.09,1.369
				C9.149,8.083,8.58,8.081,8.147,7.683C7.269,6.878,6.038,6.901,5.19,7.743c-0.891,0.885-1.779,1.771-2.666,2.66
				c-0.878,0.88-0.865,2.15,0.027,3.038c0.889,0.886,2.161,0.895,3.046,0.017c0.69-0.684,1.377-1.369,2.061-2.059
				c0.096-0.097,0.174-0.119,0.307-0.079C8.666,11.535,9.38,11.582,10.171,11.437z"/>
		</g>
	</g>
</g>
<g id="Layer_1">
</g>
</svg>
