<?xml version="1.0" encoding="utf-8"?>
<!-- Generator: Adobe Illustrator 21.0.2, SVG Export Plug-In . SVG Version: 6.00 Build 0)  -->
<svg version="1.1" id="Layer_1" xmlns="http://www.w3.org/2000/svg" xmlns:xlink="http://www.w3.org/1999/xlink" x="0px" y="0px"
	 viewBox="0 0 16 16" style="enable-background:new 0 0 16 16;" xml:space="preserve">
<style type="text/css">
	.st0{fill:#333333;}
</style>
<g>
	<path class="st0" d="M15.1,4.1H0.9C0.4,4.1,0,4.5,0,5v9.1C0,14.6,0.4,15,0.9,15h14.2c0.5,0,0.9-0.4,0.9-0.9V5
		C16,4.5,15.6,4.1,15.1,4.1z"/>
	<path class="st0" d="M6.1,3.5c0,0,0-0.6,0-0.6V1.5C6.1,1.2,5.9,1,5.6,1H3C2.7,1,2.4,1.2,2.4,1.5v1.3c0,0,0,0.6,0,0.6H6.1z"/>
	<path class="st0" d="M13.5,3.5c0,0,0-0.6,0-0.6V1.5C13.5,1.2,13.3,1,13,1h-2.6C10,1,9.8,1.2,9.8,1.5v1.3c0,0,0,0.6,0,0.6H13.5z"/>
</g>
</svg>
