<?xml version="1.0" encoding="iso-8859-1"?>
<!-- Generator: Adobe Illustrator 21.0.2, SVG Export Plug-In . SVG Version: 6.00 Build 0)  -->
<svg version="1.1" xmlns="http://www.w3.org/2000/svg" xmlns:xlink="http://www.w3.org/1999/xlink" x="0px" y="0px"
	 viewBox="0 0 7 16" style="enable-background:new 0 0 7 16;" xml:space="preserve">
<g id="icon-radios">
	<g>
		<g>
			<ellipse style="fill:#333333;" cx="3.5" cy="3.485" rx="1.825" ry="1.817"/>
			<path style="fill:#333333;" d="M3.5,0.775c1.5,0,2.721,1.216,2.721,2.709C6.221,4.978,5,6.195,3.5,6.195
				c-1.5,0-2.721-1.217-2.721-2.711C0.779,1.991,2,0.775,3.5,0.775 M3.5,0C1.567,0,0,1.559,0,3.484C0,5.41,1.567,6.97,3.5,6.97
				C5.434,6.97,7,5.41,7,3.484C7,1.559,5.434,0,3.5,0L3.5,0z"/>
		</g>
		<path style="fill:#333333;" d="M3.5,9.805c1.5,0,2.721,1.216,2.721,2.709c0,1.494-1.221,2.711-2.721,2.711
			c-1.5,0-2.721-1.217-2.721-2.711C0.779,11.021,2,9.805,3.5,9.805 M3.5,9.03c-1.933,0-3.5,1.559-3.5,3.484C0,14.44,1.567,16,3.5,16
			C5.434,16,7,14.44,7,12.514C7,10.589,5.434,9.03,3.5,9.03L3.5,9.03z"/>
	</g>
</g>
<g id="Layer_1">
</g>
</svg>
