<?xml version="1.0" encoding="iso-8859-1"?>
<!-- Generator: Adobe Illustrator 21.0.2, SVG Export Plug-In . SVG Version: 6.00 Build 0)  -->
<svg version="1.1" xmlns="http://www.w3.org/2000/svg" xmlns:xlink="http://www.w3.org/1999/xlink" x="0px" y="0px"
	 viewBox="0 0 7 16" style="enable-background:new 0 0 7 16;" xml:space="preserve">
<g id="icon-checkboxes">
	<g>
		<g id="O0Tj9h.tif_4_">
			<g>
				<path style="fill:#252525;" d="M0,15.565c0-2.031,0-4.062,0-6.093c0.074-0.2,0.212-0.336,0.413-0.41c2.049,0,4.098,0,6.148,0
					C6.886,9.183,6.98,9.425,6.978,9.756c-0.009,1.864-0.004,3.728-0.004,5.592c0,0.426-0.201,0.626-0.631,0.626
					c-1.885,0-3.77-0.004-5.655,0.004C0.357,15.98,0.12,15.88,0,15.565z M2.949,13.089c-0.042-0.04-0.076-0.071-0.11-0.104
					c-0.359-0.356-0.715-0.715-1.079-1.067c-0.284-0.275-0.718-0.197-0.87,0.149c-0.093,0.211-0.043,0.426,0.148,0.617
					c0.486,0.484,0.974,0.966,1.461,1.449c0.305,0.302,0.589,0.303,0.893,0.002c0.837-0.83,1.674-1.66,2.511-2.489
					c0.027-0.027,0.055-0.054,0.081-0.083c0.194-0.222,0.187-0.531-0.014-0.728c-0.203-0.199-0.514-0.202-0.735-0.007
					c-0.038,0.034-0.074,0.071-0.111,0.108C4.403,11.649,3.681,12.363,2.949,13.089z"/>
				<path style="fill:#FFFFFF;" d="M0,15.565c0.12,0.316,0.357,0.415,0.687,0.413c1.885-0.008,3.77-0.004,5.655-0.004
					c0.43,0,0.631-0.2,0.631-0.626c0-1.864-0.005-3.728,0.004-5.592C6.98,9.425,6.886,9.183,6.561,9.062c0.146,0,0.293,0,0.439,0
					C7,11.375,7,13.687,7,16c-2.333,0-4.667,0-7,0C0,15.855,0,15.71,0,15.565z"/>
				<path style="fill:#FFFFFF;" d="M0.413,9.062C0.212,9.136,0.074,9.272,0,9.471c0-0.137,0-0.273,0-0.41
					C0.138,9.062,0.276,9.062,0.413,9.062z"/>
			</g>
		</g>
		<g id="O0Tj9h.tif_3_">
			<g>
				<path style="fill:#333333;" d="M0,6.503C0,4.472,0,2.441,0,0.41C0.074,0.21,0.212,0.074,0.413,0c2.049,0,4.098,0,6.148,0
					C6.886,0.122,6.98,0.363,6.978,0.694C6.969,2.558,6.974,4.422,6.974,6.286c0,0.426-0.201,0.626-0.631,0.626
					c-1.885,0-3.77-0.004-5.655,0.004C0.357,6.918,0.12,6.819,0,6.503z M2.949,4.027c-0.042-0.04-0.076-0.071-0.11-0.104
					C2.48,3.567,2.124,3.208,1.761,2.856C1.477,2.582,1.043,2.66,0.891,3.005C0.798,3.215,0.848,3.431,1.039,3.621
					C1.525,4.105,2.013,4.587,2.5,5.07c0.305,0.302,0.589,0.303,0.893,0.002c0.837-0.83,1.674-1.66,2.511-2.489
					c0.027-0.027,0.055-0.054,0.081-0.083C6.178,2.278,6.172,1.969,5.97,1.771C5.767,1.572,5.456,1.569,5.235,1.765
					C5.196,1.799,5.161,1.836,5.124,1.872C4.403,2.587,3.681,3.302,2.949,4.027z"/>
				<path style="fill:#FFFFFF;" d="M0,6.503c0.12,0.316,0.357,0.415,0.687,0.413c1.885-0.008,3.77-0.004,5.655-0.004
					c0.43,0,0.631-0.2,0.631-0.626c0-1.864-0.005-3.728,0.004-5.592C6.98,0.363,6.886,0.122,6.561,0C6.707,0,6.854,0,7,0
					c0,2.313,0,4.625,0,6.938c-2.333,0-4.667,0-7,0C0,6.793,0,6.648,0,6.503z"/>
				<path style="fill:#FFFFFF;" d="M0.413,0C0.212,0.074,0.074,0.21,0,0.41C0,0.273,0,0.137,0,0C0.138,0,0.276,0,0.413,0z"/>
			</g>
		</g>
	</g>
</g>
<g id="Layer_1">
</g>
</svg>
