<?xml version="1.0" encoding="iso-8859-1"?>
<!-- Generator: Adobe Illustrator 21.0.2, SVG Export Plug-In . SVG Version: 6.00 Build 0)  -->
<svg version="1.1" id="Layer_1" xmlns="http://www.w3.org/2000/svg" xmlns:xlink="http://www.w3.org/1999/xlink" x="0px" y="0px"
	 viewBox="0 0 20 20" style="enable-background:new 0 0 20 20;" xml:space="preserve">
<g>
	<path style="fill:#333333;" d="M17.718,13.721v-8.27c0-0.913-0.74-1.654-1.654-1.654H4.211c-0.913,0-1.654,0.74-1.654,1.654v8.27
		H0.352v2.481h19.296v-2.481H17.718z"/>
	<path style="fill:#333333;" d="M20,16.554H0v-3.185h2.205V5.452c0-1.106,0.9-2.006,2.006-2.006h11.853
		c1.106,0,2.006,0.9,2.006,2.006v7.918H20V16.554z M0.704,15.85h18.592v-1.777h-1.93V5.452c0-0.718-0.584-1.302-1.302-1.302H4.211
		c-0.718,0-1.302,0.584-1.302,1.302v8.622H0.704V15.85z"/>
</g>
</svg>
