<?xml version="1.0" encoding="iso-8859-1"?>
<!-- Generator: Adobe Illustrator 21.0.2, SVG Export Plug-In . SVG Version: 6.00 Build 0)  -->
<svg version="1.1" id="Layer_1" xmlns="http://www.w3.org/2000/svg" xmlns:xlink="http://www.w3.org/1999/xlink" x="0px" y="0px"
	 viewBox="0 0 45.35 45.35" style="enable-background:new 0 0 45.35 45.35;" xml:space="preserve">
<g id="XlLFPh.tif">
	<g>
		<path style="fill:#FFFFFF;" d="M45.35,15.325c-0.318,0.831-0.815,1.473-1.753,1.64c-0.145,0.026-0.294,0.043-0.442,0.043
			c-3.267,0.002-6.534,0.006-9.801-0.001c-0.962-0.002-1.762-0.568-2.06-1.422c-0.294-0.838-0.037-1.764,0.65-2.338
			c0.417-0.347,0.901-0.5,1.44-0.5c1.455,0.002,2.91,0.001,4.366,0c0.101,0,0.203-0.009,0.362-0.017
			c-0.094-0.157-0.158-0.284-0.24-0.398c-4.058-5.649-9.558-8.43-16.511-8.017C13.031,4.811,6.066,11.095,4.561,19.275
			C2.717,29.291,9.21,38.816,19.217,40.776c7.193,1.409,14.689-1.733,18.768-7.848c0.325-0.488,0.704-0.965,1.146-1.344
			c0.584-0.5,1.303-0.692,2.084-0.503c0.927,0.225,1.521,1.032,1.314,1.964c-0.135,0.608-0.372,1.231-0.71,1.751
			c-3.752,5.767-9.031,9.21-15.831,10.302c-0.612,0.098-1.228,0.168-1.843,0.252c-0.95,0-1.901,0-2.851,0
			c-0.114-0.026-0.227-0.067-0.342-0.075c-3.571-0.256-6.909-1.289-9.949-3.168c-5.815-3.596-9.391-8.764-10.649-15.502
			C0.197,25.762,0.116,24.906,0,24.056c0-0.921,0-1.841,0-2.762c0.026-0.129,0.067-0.257,0.077-0.388
			c0.262-3.539,1.285-6.85,3.143-9.866c3.595-5.836,8.771-9.424,15.526-10.686C19.589,0.197,20.445,0.116,21.294,0
			c0.921,0,1.841,0,2.762,0c0.278,0.034,0.555,0.071,0.833,0.103c6.534,0.748,11.829,3.703,15.866,8.901
			c0.085,0.109,0.176,0.213,0.313,0.378c0.01-0.203,0.021-0.317,0.021-0.431c0.001-1.32-0.01-2.64,0.005-3.96
			c0.013-1.093,0.772-1.983,1.781-2.133c1.074-0.16,2.019,0.432,2.384,1.491c0.023,0.067,0.061,0.13,0.091,0.195
			C45.35,8.137,45.35,11.731,45.35,15.325z"/>
	</g>
</g>
</svg>
