<?xml version="1.0" encoding="iso-8859-1"?>
<!-- Generator: Adobe Illustrator 21.0.2, SVG Export Plug-In . SVG Version: 6.00 Build 0)  -->
<svg version="1.1" xmlns="http://www.w3.org/2000/svg" xmlns:xlink="http://www.w3.org/1999/xlink" x="0px" y="0px"
	 viewBox="0 0 20 18.75" style="enable-background:new 0 0 20 18.75;" xml:space="preserve">
<g id="icon-newsletters">
	<g>
		<polygon style="fill:#333333;" points="17.5,9.167 17.5,4.741 12.759,0 2.5,0 2.5,9.167 0,7.5 0,18.076 4.944,13.75 6.372,12.5 
			6.86,12.073 3.75,10 3.75,1.25 12.241,1.25 12.5,1.509 12.5,5 15.991,5 16.25,5.259 16.25,10 13.14,12.073 13.628,12.5 
			15.056,13.75 20,18.076 20,7.5 		"/>
		<polygon style="fill:#333333;" points="11.729,12.5 8.271,12.5 6.842,13.75 1.128,18.75 18.872,18.75 13.158,13.75 		"/>
	</g>
</g>
<g id="Layer_1">
</g>
</svg>
