<?xml version="1.0" encoding="iso-8859-1"?>
<!-- Generator: Adobe Illustrator 21.0.2, SVG Export Plug-In . SVG Version: 6.00 Build 0)  -->
<svg version="1.1" xmlns="http://www.w3.org/2000/svg" xmlns:xlink="http://www.w3.org/1999/xlink" x="0px" y="0px"
	 viewBox="0 0 20 19.768" style="enable-background:new 0 0 20 19.768;" xml:space="preserve">
<g id="icon-rolls">
	<g id="xt2USM.tif">
		<g>
			<path style="fill:#333333;" d="M20,7.031c-0.112,0.22-0.251,0.424-0.516,0.451c-0.237,0.024-0.477,0.005-0.736,0.005
				c0,0.099,0,0.169,0,0.238c0,1.341,0.001,2.682,0,4.023c0,0.52-0.23,0.748-0.752,0.749c-0.605,0.001-1.211-0.003-1.816,0.003
				c-0.093,0.001-0.196,0.021-0.275,0.067c-1.503,0.869-3.004,1.744-4.504,2.618c-0.043,0.025-0.083,0.056-0.143,0.096
				c0.076,0.047,0.134,0.085,0.194,0.12c1.815,1.057,3.631,2.114,5.446,3.172c0.301,0.175,0.427,0.443,0.349,0.73
				c-0.11,0.409-0.549,0.587-0.936,0.368c-0.515-0.291-1.024-0.593-1.536-0.891c-1.535-0.893-3.07-1.785-4.601-2.683
				c-0.131-0.077-0.222-0.074-0.351,0.002c-2.015,1.179-4.034,2.353-6.05,3.53c-0.181,0.106-0.364,0.177-0.574,0.119
				c-0.257-0.071-0.417-0.245-0.456-0.505c-0.042-0.278,0.071-0.498,0.315-0.641c0.567-0.332,1.135-0.662,1.703-0.992
				c1.27-0.74,2.541-1.479,3.811-2.219c0.05-0.029,0.099-0.06,0.17-0.103c-0.048-0.036-0.083-0.069-0.124-0.092
				c-1.506-0.877-3.012-1.755-4.521-2.628c-0.074-0.043-0.17-0.065-0.256-0.066c-0.631-0.006-1.263-0.002-1.894-0.004
				c-0.441-0.001-0.693-0.25-0.693-0.688c-0.001-1.361,0-2.721,0-4.082c0-0.07,0-0.14,0-0.23c-0.212,0-0.405,0.003-0.599-0.001
				c-0.39-0.007-0.645-0.263-0.651-0.653c-0.003-0.188,0-0.376,0-0.587c1.25,0,2.489,0,3.75,0c0-0.098,0-0.174,0-0.25
				c0-1.777-0.001-3.555,0.001-5.332c0-0.482,0.416-0.795,0.839-0.631C4.846,0.143,4.983,0.34,4.994,0.613
				c0.008,0.201,0.002,0.403,0.002,0.622c3.331,0,6.654,0,10.006,0c0-0.178-0.001-0.364,0-0.549c0.002-0.398,0.259-0.682,0.62-0.683
				C15.983,0,16.246,0.281,16.247,0.68c0.001,1.771,0.001,3.542,0.001,5.312c0,0.077,0,0.155,0,0.257c1.259,0,2.506,0,3.753,0
				C20,6.51,20,6.77,20,7.031z M5.003,8.739c3.341,0,6.662,0,9.985,0c0-0.835,0-1.657,0-2.48c-3.335,0-6.656,0-9.985,0
				C5.003,7.09,5.003,7.907,5.003,8.739z M6.499,12.507c0.054,0.038,0.076,0.057,0.102,0.072c1.094,0.638,2.188,1.278,3.286,1.908
				c0.063,0.036,0.189,0.021,0.258-0.019c1.07-0.615,2.136-1.238,3.203-1.859c0.042-0.025,0.082-0.053,0.157-0.102
				C11.154,12.507,8.845,12.507,6.499,12.507z M2.513,7.504c0,1.249,0,2.477,0,3.738c0.392-0.394,0.763-0.758,1.122-1.134
				c0.063-0.066,0.109-0.177,0.11-0.268C3.755,9.12,3.751,8.398,3.751,7.677c0-0.056-0.007-0.112-0.012-0.173
				C3.323,7.504,2.923,7.504,2.513,7.504z M16.247,7.505c0,0.815-0.002,1.607,0.004,2.4c0.001,0.066,0.05,0.145,0.099,0.196
				c0.29,0.298,0.586,0.59,0.88,0.884c0.08,0.08,0.16,0.159,0.256,0.255c0-1.27,0-2.501,0-3.735
				C17.072,7.505,16.671,7.505,16.247,7.505z"/>
		</g>
	</g>
</g>
<g id="Layer_1">
</g>
</svg>
