<?xml version="1.0" encoding="iso-8859-1"?>
<!-- Generator: Adobe Illustrator 21.0.2, SVG Export Plug-In . SVG Version: 6.00 Build 0)  -->
<svg version="1.1" xmlns="http://www.w3.org/2000/svg" xmlns:xlink="http://www.w3.org/1999/xlink" x="0px" y="0px"
	 viewBox="0 0 18 20" style="enable-background:new 0 0 18 20;" xml:space="preserve">
<g id="icon-smart-groups">
	<g>
		<path style="fill:#333333;" d="M17.782,6.351l-1.419-1.446c0.265-0.477,0.418-1.027,0.418-1.614C16.781,1.477,15.332,0,13.55,0
			c-1.781,0-3.231,1.477-3.231,3.292c0,1.815,1.449,3.292,3.231,3.292c0.666,0,1.286-0.207,1.801-0.561l1.376,1.403
			c0.146,0.148,0.337,0.222,0.527,0.222c0.191,0,0.382-0.074,0.527-0.222C18.073,7.129,18.073,6.648,17.782,6.351z M11.313,3.292
			c0-1.256,1.003-2.279,2.237-2.279c1.233,0,2.237,1.022,2.237,2.279c0,1.257-1.003,2.279-2.237,2.279
			C12.317,5.571,11.313,4.548,11.313,3.292z"/>
		<g>
			<path style="fill:#9D9D9D;" d="M16.195,17.313c-0.325-0.516-1.417-0.838-2.499-1.297c-1.082-0.459-1.338-0.618-1.338-0.618
				l-0.01-1.058c0,0,0.405-0.317,0.531-1.311c0.254,0.075,0.519-0.386,0.534-0.627c0.014-0.234-0.035-0.882-0.344-0.816
				c0.063-0.487,0.109-0.926,0.087-1.159c-0.081-0.848-0.901-1.745-2.163-1.745S8.91,9.579,8.83,10.427
				c-0.022,0.233,0.023,0.672,0.086,1.159c-0.309-0.066-0.358,0.582-0.344,0.816c0.014,0.241,0.28,0.702,0.534,0.627
				c0.126,0.995,0.531,1.311,0.531,1.311l-0.01,1.058c0,0-0.256,0.16-1.338,0.618c-1.082,0.459-2.174,0.781-2.499,1.297
				C5.499,17.777,5.586,20,5.586,20h5.406h5.406C16.399,20,16.486,17.777,16.195,17.313z"/>
			<path style="fill:#333333;" d="M10.621,17.313c-0.325-0.516-1.417-0.838-2.499-1.297c-1.082-0.459-1.338-0.618-1.338-0.618
				l-0.01-1.058c0,0,0.405-0.317,0.531-1.311c0.254,0.075,0.519-0.386,0.534-0.627c0.014-0.234-0.035-0.882-0.344-0.816
				c0.063-0.487,0.109-0.926,0.087-1.159C7.501,9.579,6.68,8.682,5.419,8.682s-2.082,0.897-2.162,1.745
				c-0.022,0.233,0.023,0.672,0.086,1.159c-0.309-0.066-0.358,0.582-0.344,0.816c0.014,0.241,0.28,0.702,0.534,0.627
				c0.126,0.995,0.531,1.311,0.531,1.311l-0.01,1.058c0,0-0.256,0.16-1.338,0.618c-1.082,0.459-2.174,0.781-2.499,1.297
				C-0.075,17.777,0.012,20,0.012,20h5.406h5.406C10.825,20,10.912,17.777,10.621,17.313z"/>
		</g>
	</g>
</g>
<g id="Layer_1">
</g>
</svg>
