<?xml version="1.0" encoding="UTF-8" standalone="no"?>
<!DOCTYPE svg PUBLIC "-//W3C//DTD SVG 1.1//EN" "http://www.w3.org/Graphics/SVG/1.1/DTD/svg11.dtd">
<svg width="100%" height="100%" viewBox="0 0 100 100" version="1.1" xmlns="http://www.w3.org/2000/svg" xmlns:xlink="http://www.w3.org/1999/xlink" xml:space="preserve" xmlns:serif="http://www.serif.com/" style="fill-rule:evenodd;clip-rule:evenodd;stroke-linejoin:round;stroke-miterlimit:2;">
    <g>
        <g transform="matrix(2.64785,0,0,2.64785,-42.3924,-124.145)">
            <ellipse cx="34.893" cy="65.768" rx="15.107" ry="15.768" style="fill:white;"/>
        </g>
        <g transform="matrix(0.105164,0,0,0.105164,-13.0981,-13.0981)">
            <path d="M600,124.55C337.36,124.55 124.55,337.35 124.55,600C124.55,862.64 337.35,1075.45 600,1075.45C862.64,1075.45 1075.45,862.65 1075.45,600C1075.45,337.35 862.64,124.55 600,124.55ZM837.87,643.35L643.45,643.35L643.45,837.87C643.45,861.862 623.997,881.323 599.997,881.323C575.997,881.323 556.642,861.862 556.642,837.87L556.642,643.45L362.122,643.45C338.024,643.45 318.669,623.997 318.669,599.997C318.669,576.005 338.024,556.544 362.122,556.544L556.642,556.544L556.642,362.124C556.642,338.038 575.997,318.683 599.997,318.683C623.997,318.683 643.45,338.038 643.45,362.124L643.45,556.544L837.87,556.544C861.968,556.544 881.323,576.005 881.323,599.997C881.323,623.997 861.87,643.352 837.87,643.352L837.87,643.35Z" style="fill:rgb(2,125,201);fill-rule:nonzero;"/>
        </g>
    </g>
</svg>
