<?xml version="1.0" encoding="iso-8859-1"?>
<!-- Generator: Adobe Illustrator 21.0.2, SVG Export Plug-In . SVG Version: 6.00 Build 0)  -->
<svg version="1.1" id="Layer_1" xmlns="http://www.w3.org/2000/svg" xmlns:xlink="http://www.w3.org/1999/xlink" x="0px" y="0px"
	 viewBox="0 0 20 20" style="enable-background:new 0 0 20 20;" xml:space="preserve">
<g>
	<g>
		<path style="fill:#FFFFFF;" d="M17.11,6.041c-0.223,0-0.652,0-1.208,0v1.208c0,1.863-1.761,3.624-3.624,3.624h-5.54l-1.708,1.708
			c0,0.26,0,0.505,0,0.708c0,1.208,1.208,2.416,2.416,2.416c0.604,0,3.926,0,6.041,0l3.624,3.624v-3.624
			c1.208,0,2.416-1.208,2.416-2.416s0-3.624,0-4.833S18.318,6.041,17.11,6.041z"/>
		<path style="fill:#FF5600;" d="M17.388,20l-4.017-4.017H7.445c-1.359,0-2.694-1.334-2.694-2.694v-0.823l1.871-1.871h5.655
			c1.72,0,3.347-1.627,3.347-3.347V5.763h1.486c1.359,0,2.694,1.334,2.694,2.694v4.833c0,1.267-1.158,2.512-2.416,2.676V20z
			 M5.306,12.697v0.593c0,1.06,1.079,2.139,2.139,2.139h6.156l3.232,3.232v-3.232h0.277c1.06,0,2.139-1.08,2.139-2.139V8.457
			c0-1.059-1.079-2.139-2.139-2.139h-0.931v0.931c0,2.006-1.896,3.902-3.902,3.902H6.852L5.306,12.697z"/>
	</g>
	<g>
		<path style="fill:#333333;" d="M12.278,0c-1.208,0-8.457,0-9.665,0S0.196,1.208,0.196,2.416s0,3.624,0,4.833
			s1.208,2.416,2.416,2.416c0.222,0-0.556,0,0,0v3.624l3.624-3.624c2.114,0,5.437,0,6.041,0c1.208,0,2.416-1.208,2.416-2.416
			s0-3.624,0-4.833S13.486,0,12.278,0z"/>
	</g>
</g>
</svg>
