<?xml version="1.0" encoding="iso-8859-1"?>
<!-- Generator: Adobe Illustrator 21.0.2, SVG Export Plug-In . SVG Version: 6.00 Build 0)  -->
<svg version="1.1" id="Layer_1" xmlns="http://www.w3.org/2000/svg" xmlns:xlink="http://www.w3.org/1999/xlink" x="0px" y="0px"
	 viewBox="0 0 16 16" style="enable-background:new 0 0 16 16;" xml:space="preserve">
<g>
	<g>
		<rect y="1.109" style="fill:#6F6F6F;" width="16" height="14.891"/>
	</g>
	<g>
		<rect x="0.667" y="1.822" style="fill:#0082C8;" width="14.667" height="6.653"/>
	</g>
	<g>
		<rect x="0.667" y="8.554" style="fill:#DCDCDC;" width="14.667" height="6.337"/>
	</g>
	<g>
		<rect x="2.667" y="0" style="fill:#676767;" width="1" height="1.267"/>
	</g>
	<g>
		<rect x="12.667" style="fill:#676767;" width="1" height="1.267"/>
	</g>
	<g>
		<rect x="7.667" style="fill:#676767;" width="1" height="1.267"/>
	</g>
	<g>
		<path d="M7.918,11.256h-1.12v-0.629c0.822-0.015,1.126-0.076,1.34-0.644H8.89v3.519H7.918V11.256z"/>
	</g>
	<g>
		<path style="fill:#FFFFFF;" d="M3.554,3.542h0.97v2.072c0,0.585-0.03,1.416-1.44,1.416c-0.83,0-1.6-0.204-1.6-1.169V5.648h0.97
			v0.238c0,0.318,0.2,0.528,0.525,0.528c0.505,0,0.575-0.285,0.575-0.684V3.542z"/>
		<path style="fill:#FFFFFF;" d="M7.884,6.237h-1.64l-0.29,0.699H4.909l1.57-3.393h1.17l1.57,3.393H8.174L7.884,6.237z M7.064,4.274
			l-0.56,1.345h1.12L7.064,4.274z"/>
		<path style="fill:#FFFFFF;" d="M12.614,3.542h0.94v3.393h-1.055l-1.945-2.367h-0.01v2.367h-0.94V3.542h1.125l1.875,2.367h0.01
			V3.542z"/>
	</g>
</g>
</svg>
