<?xml version="1.0" encoding="iso-8859-1"?>
<!-- Generator: Adobe Illustrator 21.0.2, SVG Export Plug-In . SVG Version: 6.00 Build 0)  -->
<svg version="1.1" xmlns="http://www.w3.org/2000/svg" xmlns:xlink="http://www.w3.org/1999/xlink" x="0px" y="0px"
	 viewBox="0 0 20 20" style="enable-background:new 0 0 20 20;" xml:space="preserve">
<g id="edit-sections">
	<g>
		<polygon style="fill:#333333;" points="0,20 0.462,16.73 0.926,13.455 3.716,16.263 6.505,19.069 3.253,19.537 		"/>
		<polygon style="fill:#333333;" points="15.791,7.821 7.424,16.244 6.496,15.31 14.861,6.886 13,5.015 4.632,13.434 3.702,12.499 
			12.072,4.079 11.142,3.144 1.846,12.499 7.424,18.114 16.719,8.756 		"/>
		<path style="fill:#333333;" d="M19.642,5.971c0.492-0.491,0.475-1.317-0.037-1.832l-3.717-3.743
			c-0.511-0.514-1.332-0.528-1.82-0.036c-0.04,0.04-0.058,0.092-0.092,0.135l-0.021-0.023l-1.786,1.796l5.578,5.614l1.785-1.796
			L19.508,6.06C19.553,6.027,19.602,6.012,19.642,5.971z"/>
	</g>
</g>
<g id="Layer_1">
</g>
</svg>
