<?xml version="1.0" encoding="UTF-8" standalone="no"?>
<!DOCTYPE svg PUBLIC "-//W3C//DTD SVG 1.1//EN" "http://www.w3.org/Graphics/SVG/1.1/DTD/svg11.dtd">
<svg width="100%" height="100%" viewBox="0 0 30 30" version="1.1" xmlns="http://www.w3.org/2000/svg" xmlns:xlink="http://www.w3.org/1999/xlink" xml:space="preserve" xmlns:serif="http://www.serif.com/" style="fill-rule:evenodd;clip-rule:evenodd;stroke-linejoin:round;stroke-miterlimit:2;">
    <rect x="6.987" y="4.98" width="2.015" height="2.033" style="fill:rgb(66,66,66);"/>
    <g transform="matrix(1,0,0,1,3.95928,0.000133471)">
        <rect x="6.987" y="4.98" width="2.015" height="2.033" style="fill:rgb(66,66,66);"/>
    </g>
    <g transform="matrix(1,0,0,1,-0.000667355,3.99505)">
        <rect x="6.987" y="4.98" width="2.015" height="2.033" style="fill:rgb(66,66,66);"/>
    </g>
    <g transform="matrix(1,0,0,1,3.95862,3.99519)">
        <rect x="6.987" y="4.98" width="2.015" height="2.033" style="fill:rgb(66,66,66);"/>
    </g>
    <g transform="matrix(1,0,0,1,0,8.01386)">
        <rect x="6.987" y="4.98" width="2.015" height="2.033" style="fill:rgb(66,66,66);"/>
    </g>
    <g transform="matrix(1,0,0,1,3.95928,8.014)">
        <rect x="6.987" y="4.98" width="2.015" height="2.033" style="fill:rgb(66,66,66);"/>
    </g>
    <g transform="matrix(1,0,0,1,-0.000667355,12.0089)">
        <rect x="6.987" y="4.98" width="2.015" height="2.033" style="fill:rgb(66,66,66);"/>
    </g>
    <g transform="matrix(1,0,0,1,3.95862,12.009)">
        <rect x="6.987" y="4.98" width="2.015" height="2.033" style="fill:rgb(66,66,66);"/>
    </g>
    <g transform="matrix(1,0,0,1,-0.000667355,15.9886)">
        <rect x="6.987" y="4.98" width="2.015" height="2.033" style="fill:rgb(66,66,66);"/>
    </g>
    <g transform="matrix(1,0,0,1,3.95862,15.9888)">
        <rect x="6.987" y="4.98" width="2.015" height="2.033" style="fill:rgb(66,66,66);"/>
    </g>
</svg>
