<?xml version="1.0" encoding="UTF-8" standalone="no"?>
<!DOCTYPE svg PUBLIC "-//W3C//DTD SVG 1.1//EN" "http://www.w3.org/Graphics/SVG/1.1/DTD/svg11.dtd">
<svg width="100%" height="100%" viewBox="0 0 17 20" version="1.1" xmlns="http://www.w3.org/2000/svg" xmlns:xlink="http://www.w3.org/1999/xlink" xml:space="preserve" xmlns:serif="http://www.serif.com/" style="fill-rule:evenodd;clip-rule:evenodd;stroke-linejoin:round;stroke-miterlimit:2;">
    <g id="icon-trashed-content">
        <g>
            <g>
                <g>
                    <rect x="0.164" y="0.164" width="15.956" height="19.672" style="fill:rgb(167,122,75);fill-rule:nonzero;"/>
                </g>
                <g>
                    <path d="M16.285,20L0,20L0,0L16.284,0L16.285,4.959L16.285,20ZM0.328,19.672L15.956,19.672L15.956,0.328L0.328,0.328L0.328,19.672Z" style="fill:rgb(126,84,40);fill-rule:nonzero;"/>
                </g>
            </g>
            <g>
                <path d="M0.273,19.8L0.273,0.492L15.702,0.492L15.702,0.71L0.492,0.71L0.492,19.581L15.592,19.563L15.568,0.501L15.786,0.5L15.811,19.781L15.702,19.781L0.273,19.8Z" style="fill:rgb(186,139,96);fill-rule:nonzero;"/>
            </g>
            <g transform="matrix(1,0,0,1,0.096,-1.748)">
                <g>
                    <path d="M6.651,6.791L9.44,6.791L9.44,7.411L11.557,7.411L11.557,8.547L4.535,8.547L4.535,7.411L6.652,7.411C6.651,7.204 6.651,6.998 6.651,6.791Z" style="fill:rgb(80,48,6);"/>
                </g>
                <g>
                    <path d="M4.792,9.579L11.298,9.579C11.177,11.954 11.057,14.33 10.936,16.705L5.101,16.705C4.999,14.33 4.895,11.954 4.792,9.579Z" style="fill:rgb(80,48,6);"/>
                </g>
            </g>
        </g>
    </g>
</svg>
