<?xml version="1.0" encoding="iso-8859-1"?>
<!-- Generator: Adobe Illustrator 21.0.2, SVG Export Plug-In . SVG Version: 6.00 Build 0)  -->
<svg version="1.1" xmlns="http://www.w3.org/2000/svg" xmlns:xlink="http://www.w3.org/1999/xlink" x="0px" y="0px"
	 viewBox="0 0 16.284 19.995" style="enable-background:new 0 0 16.284 19.995;" xml:space="preserve">
<g id="content_x5F_hidden">
	<g>
		<g>
			<g>
				<polygon style="fill:#B5B5B5;" points="0.164,0.159 11.202,0.159 16.12,5.022 16.12,19.831 0.164,19.831 				"/>
			</g>
			<g>
				<path style="fill:#6C6C6C;" d="M16.284,19.995H0v-20h11.27l5.015,4.959V19.995z M0.328,19.667h15.628V5.091l-4.822-4.768H0.328
					V19.667z"/>
			</g>
		</g>
		<g>
			<polygon style="fill:#C5C8C5;" points="15.929,5.013 11.211,0.405 11.184,5.022 			"/>
			<path style="fill:#6C6C6C;" d="M11.074,5.132l0.029-4.985l5.093,4.975L11.074,5.132z M11.319,0.663l-0.025,4.25l4.367-0.008
				L11.319,0.663z"/>
		</g>
		<g>
			<polygon style="fill:#6C6C6C;" points="15.792,5.296 10.984,5.296 10.984,0.268 11.202,0.268 11.202,5.077 15.792,5.077 			"/>
		</g>
		<g>
			<polygon style="fill:#C9C9C9;" points="0.273,19.795 0.273,0.487 10.984,0.487 10.984,0.705 0.492,0.705 0.492,19.576 
				15.592,19.558 15.574,5.378 15.792,5.377 15.811,19.776 			"/>
		</g>
	</g>
</g>
<g id="Layer_1">
</g>
</svg>
