<svg height='100px' width='100px'  fill="#333333" xmlns="http://www.w3.org/2000/svg" xmlns:xlink="http://www.w3.org/1999/xlink" version="1.1" x="0px" y="0px" viewBox="0 0 100 100" style="enable-background:new 0 0 100 100;" xml:space="preserve"><g><polygon points="52,36.4 49.2,33.6 31.8,51 49.2,68.4 52,65.6 39.4,53 67.6,53 67.6,49 39.4,49  "></polygon><path d="M50,8C26.8,8,8,26.8,8,50s18.8,42,42,42s42-18.8,42-42S73.2,8,50,8z M50,88c-21,0-38-17-38-38s17-38,38-38s38,17,38,38   S71,88,50,88z"></path></g></svg>