<?xml version="1.0" encoding="iso-8859-1"?>
<!-- Generator: Adobe Illustrator 21.0.2, SVG Export Plug-In . SVG Version: 6.00 Build 0)  -->
<svg version="1.1" id="Layer_1" xmlns="http://www.w3.org/2000/svg" xmlns:xlink="http://www.w3.org/1999/xlink" x="0px" y="0px"
	 viewBox="0 0 20 20" style="enable-background:new 0 0 20 20;" xml:space="preserve">
<g>
	<path style="fill:#333333;" d="M18,20H2c-1.1,0-2-0.9-2-2L0,2c0-1.1,0.9-2,2-2l16,0c1.1,0,2,0.9,2,2v16C20,19.1,19.1,20,18,20z"/>
	<g>
		<polygon style="fill:#FFFFFF;" points="3.153,16.804 3.469,14.579 3.787,12.351 5.697,14.261 7.607,16.17 5.38,16.489 		"/>
		<polygon style="fill:#FFFFFF;" points="13.965,8.517 8.236,14.248 7.601,13.613 13.329,7.882 12.054,6.608 6.325,12.337 
			5.688,11.7 11.419,5.971 10.782,5.335 4.417,11.7 8.236,15.521 14.601,9.154 		"/>
		<path style="fill:#FFFFFF;" d="M16.602,7.259c0.337-0.334,0.325-0.896-0.025-1.247l-2.545-2.547
			c-0.35-0.35-0.912-0.36-1.246-0.025c-0.028,0.027-0.04,0.062-0.063,0.092l-0.015-0.016l-1.223,1.222l3.819,3.819l1.222-1.222
			L16.51,7.319C16.541,7.297,16.575,7.287,16.602,7.259z"/>
	</g>
</g>
</svg>
