<?xml version="1.0" encoding="iso-8859-1"?>
<!-- Generator: Adobe Illustrator 21.0.2, SVG Export Plug-In . SVG Version: 6.00 Build 0)  -->
<svg version="1.1" id="Layer_1" xmlns="http://www.w3.org/2000/svg" xmlns:xlink="http://www.w3.org/1999/xlink" x="0px" y="0px"
	 viewBox="0 0 16 10" style="enable-background:new 0 0 16 10;" xml:space="preserve">
<g>
	<path style="fill:#6F6F6F;" d="M16,4.831c0,0.114,0,0.228,0,0.343c-1.304,1.774-2.92,3.191-4.942,4.121
		c-1.999,0.919-4.028,0.948-6.04,0.04C2.961,8.405,1.319,6.974,0,5.173c0-0.114,0-0.228,0-0.343c1.315-1.806,2.962-3.235,5.02-4.16
		c1.96-0.881,3.953-0.9,5.923-0.019C13.017,1.58,14.672,3.017,16,4.831z M8,1.429C5.99,1.427,4.384,3.003,4.373,4.988
		C4.362,6.966,5.954,8.551,7.975,8.573c2.016,0.022,3.659-1.59,3.65-3.581C11.615,3.006,10.013,1.43,8,1.429z"/>
	<path style="fill:#6F6F6F;" d="M6.184,4.981c0.013-0.985,0.863-1.794,1.857-1.767c0.983,0.026,1.787,0.846,1.774,1.808
		C9.801,5.987,8.979,6.789,8,6.79C7.003,6.79,6.171,5.961,6.184,4.981z"/>
</g>
</svg>
