<?xml version="1.0" encoding="UTF-8" standalone="no"?>
<!DOCTYPE svg PUBLIC "-//W3C//DTD SVG 1.1//EN" "http://www.w3.org/Graphics/SVG/1.1/DTD/svg11.dtd">
<svg width="18px" height="20px" version="1.1" xmlns="http://www.w3.org/2000/svg" xmlns:xlink="http://www.w3.org/1999/xlink" xml:space="preserve" xmlns:serif="http://www.serif.com/" style="fill-rule:evenodd;clip-rule:evenodd;stroke-linejoin:round;stroke-miterlimit:2;">
    <g id="icon-audio-content-types-dark">
        <path d="M4.105,2.703L4.105,14.65C3.883,14.614 3.656,14.595 3.421,14.595C1.532,14.595 0.001,15.806 0.001,17.298C0,18.791 1.531,20 3.42,20C5.192,20 6.632,18.932 6.806,17.568L6.841,17.568L6.841,4.865L15.05,3.243L15.05,11.946C14.828,11.91 14.601,11.891 14.366,11.891C12.477,11.891 10.946,13.102 10.946,14.594C10.946,16.087 12.477,17.297 14.366,17.297C16.138,17.297 17.578,16.229 17.752,14.865L17.787,14.865L17.787,0L4.105,2.703Z" style="fill:white;fill-rule:nonzero;"/>
    </g>
</svg>
