<?xml version="1.0" encoding="iso-8859-1"?>
<!-- Generator: Adobe Illustrator 21.0.2, SVG Export Plug-In . SVG Version: 6.00 Build 0)  -->
<svg version="1.1" xmlns="http://www.w3.org/2000/svg" xmlns:xlink="http://www.w3.org/1999/xlink" x="0px" y="0px"
	 viewBox="0 0 15.962 16" style="enable-background:new 0 0 15.962 16;" xml:space="preserve">
<g id="icon-copy-url">
	<g id="dZFEdR.tif">
		<g>
			<path style="fill:#333333;" d="M5.838,4.531c0.175-0.21,0.32-0.412,0.493-0.587c0.921-0.93,1.834-1.87,2.779-2.776
				c1.169-1.119,2.565-1.459,4.084-0.914c1.546,0.555,2.495,1.69,2.726,3.341c0.177,1.265-0.22,2.37-1.111,3.282
				C13.9,7.81,12.978,8.73,12.048,9.642c-1.548,1.517-4.051,1.507-5.542-0.009c-0.453-0.46-0.367-1.18,0.176-1.492
				c0.372-0.213,0.795-0.151,1.144,0.167c0.655,0.597,1.405,0.758,2.229,0.434c0.256-0.101,0.503-0.272,0.702-0.465
				c0.913-0.889,1.811-1.794,2.708-2.7c0.858-0.867,0.832-2.144-0.052-3.024c-0.877-0.873-2.144-0.89-3.008-0.034
				C9.706,3.21,9.012,3.907,8.318,4.604C8.241,4.682,8.179,4.727,8.052,4.688C7.36,4.475,6.655,4.414,5.938,4.542
				C5.92,4.545,5.901,4.538,5.838,4.531z"/>
			<path style="fill:#333333;" d="M10.147,11.437c-0.19,0.232-0.329,0.43-0.497,0.599c-0.941,0.95-1.867,1.916-2.84,2.832
				c-1.171,1.103-2.568,1.419-4.076,0.863c-1.526-0.563-2.461-1.689-2.692-3.323c-0.175-1.233,0.19-2.325,1.051-3.221
				C2.03,8.214,2.987,7.26,3.958,6.321c1.516-1.467,3.941-1.458,5.451-0.002C9.83,6.725,9.868,7.294,9.498,7.688
				C9.127,8.083,8.56,8.081,8.127,7.683c-0.875-0.805-2.104-0.782-2.95,0.061c-0.889,0.885-1.775,1.771-2.66,2.66
				c-0.876,0.88-0.863,2.15,0.027,3.038c0.887,0.886,2.156,0.895,3.039,0.017c0.688-0.684,1.374-1.369,2.056-2.059
				c0.095-0.097,0.174-0.119,0.306-0.079C8.645,11.535,9.358,11.582,10.147,11.437z"/>
		</g>
	</g>
</g>
<g id="Layer_1">
</g>
</svg>
