<?xml version="1.0" encoding="UTF-8" standalone="no"?>
<!DOCTYPE svg PUBLIC "-//W3C//DTD SVG 1.1//EN" "http://www.w3.org/Graphics/SVG/1.1/DTD/svg11.dtd">
<svg width="20px" height="20px" version="1.1" xmlns="http://www.w3.org/2000/svg" xmlns:xlink="http://www.w3.org/1999/xlink" xml:space="preserve" xmlns:serif="http://www.serif.com/" style="fill-rule:evenodd;clip-rule:evenodd;stroke-linejoin:round;stroke-miterlimit:2;">
    <g id="icon-administrator">
        <g>
            <path d="M19.123,15.252C18.538,14.34 16.57,13.771 14.624,12.96C12.677,12.149 12.215,11.867 12.215,11.867L12.197,9.998C12.197,9.998 12.926,9.439 13.153,7.681C13.609,7.814 14.087,7 14.113,6.573C14.139,6.16 14.051,5.014 13.494,5.131C13.608,4.271 13.69,3.495 13.651,3.083C13.505,1.585 12.028,0 9.756,0C7.484,0 6.007,1.585 5.863,3.083C5.823,3.495 5.905,4.271 6.018,5.131C5.461,5.014 5.373,6.16 5.399,6.573C5.425,7 5.903,7.814 6.36,7.682C6.586,9.44 7.316,9.999 7.316,9.999L7.298,11.868C7.298,11.868 6.837,12.15 4.889,12.961C2.942,13.772 0.975,14.34 0.39,15.253C-0.136,16.072 0.022,20 0.022,20L7.367,20L9.486,16.24L11.606,20L19.49,20C19.49,20 19.648,16.072 19.123,15.252ZM9.487,16.24L8.232,14.987L9.485,13.734L10.738,14.987L9.487,16.24Z" style="fill:white;fill-rule:nonzero;"/>
        </g>
    </g>
</svg>
