<?xml version="1.0" encoding="UTF-8" standalone="no"?>
<!DOCTYPE svg PUBLIC "-//W3C//DTD SVG 1.1//EN" "http://www.w3.org/Graphics/SVG/1.1/DTD/svg11.dtd">
<svg width="100%" height="100%" viewBox="0 0 16 16" version="1.1" xmlns="http://www.w3.org/2000/svg" xmlns:xlink="http://www.w3.org/1999/xlink" xml:space="preserve" xmlns:serif="http://www.serif.com/" style="fill-rule:evenodd;clip-rule:evenodd;stroke-linejoin:round;stroke-miterlimit:2;">
    <path d="M15.545,13.167L12.589,10.211C13.141,9.235 13.46,8.11 13.46,6.911C13.46,3.2 10.441,0.181 6.73,0.181C3.019,0.181 0,3.2 0,6.911C0,10.622 3.019,13.642 6.73,13.642C8.118,13.642 9.409,13.219 10.481,12.496L13.348,15.364C13.651,15.667 14.049,15.819 14.447,15.819C14.844,15.819 15.242,15.667 15.545,15.364C16.152,14.757 16.152,13.774 15.545,13.167ZM2.071,6.911C2.071,4.342 4.161,2.252 6.73,2.252C9.299,2.252 11.389,4.342 11.389,6.911C11.389,9.48 9.299,11.571 6.73,11.571C4.161,11.571 2.071,9.481 2.071,6.911Z" style="fill:rgb(198,232,243);fill-rule:nonzero;"/>
</svg>
