<?xml version="1.0" encoding="iso-8859-1"?>
<!-- Generator: Adobe Illustrator 21.0.2, SVG Export Plug-In . SVG Version: 6.00 Build 0)  -->
<svg version="1.1" id="Layer_1" xmlns="http://www.w3.org/2000/svg" xmlns:xlink="http://www.w3.org/1999/xlink" x="0px" y="0px"
	 viewBox="0 0 16 13" style="enable-background:new 0 0 16 13;" xml:space="preserve">
<g id="TBHKTc.tif">
	<g>
		<path style="fill:#FFFFFF;" d="M16,1.761c0,3.159,0,6.319,0,9.478c-0.004,0.017-0.009,0.034-0.01,0.051
			c-0.023,0.274-0.101,0.531-0.23,0.771c-0.226,0.419-0.552,0.717-0.998,0.863c-0.113,0.037-0.233,0.051-0.35,0.076
			c-4.274,0-8.549,0-12.823,0c-0.015-0.004-0.029-0.009-0.044-0.01c-0.189-0.019-0.37-0.071-0.539-0.161
			c-0.5-0.266-0.806-0.692-0.947-1.249C0.031,11.472,0.019,11.361,0,11.251c0-3.167,0-6.335,0-9.502
			C0.004,1.736,0.009,1.723,0.01,1.71c0.023-0.274,0.101-0.531,0.23-0.771C0.467,0.52,0.793,0.222,1.239,0.076
			C1.352,0.039,1.472,0.025,1.589,0c4.274,0,8.549,0,12.823,0c0.015,0.004,0.029,0.009,0.044,0.01
			c0.246,0.025,0.475,0.106,0.683,0.243c0.419,0.276,0.68,0.671,0.803,1.166C15.969,1.531,15.981,1.647,16,1.761z M8,11.818
			c2.087,0,4.175,0,6.262,0c0.151,0,0.278-0.056,0.384-0.165c0.149-0.153,0.21-0.343,0.21-0.556
			c0.001-3.065,0.001-6.129-0.001-9.194c0-0.081-0.012-0.165-0.033-0.244c-0.082-0.31-0.299-0.479-0.609-0.479
			c-4.158,0-8.316,0-12.473,0c-0.156,0-0.285,0.057-0.393,0.171C1.203,1.504,1.143,1.691,1.143,1.899
			c-0.001,3.063-0.001,6.125,0.001,9.188c0,0.074,0.008,0.15,0.024,0.222c0.059,0.265,0.275,0.514,0.615,0.513
			C3.856,11.815,5.928,11.818,8,11.818z"/>
		<path style="fill:#FFFFFF;" d="M8.001,3.536c0.805,0.011,1.571,0.181,2.288,0.566c0.58,0.311,1.076,0.731,1.497,1.248
			c0.216,0.266,0.409,0.548,0.565,0.856c0.044,0.087,0.081,0.177,0.118,0.268c0.007,0.018,0.003,0.045-0.005,0.065
			c-0.157,0.395-0.385,0.745-0.647,1.072c-0.368,0.461-0.798,0.848-1.297,1.153c-0.516,0.316-1.072,0.52-1.664,0.619
			C8.444,9.453,8.028,9.472,7.611,9.441C6.654,9.368,5.785,9.048,5.019,8.444c-0.562-0.442-1.018-0.98-1.358-1.621
			c-0.05-0.094-0.089-0.196-0.129-0.295C3.524,6.507,3.53,6.475,3.539,6.452c0.135-0.355,0.337-0.669,0.565-0.966
			c0.472-0.618,1.046-1.107,1.734-1.449C6.333,3.79,6.856,3.638,7.404,3.581C7.602,3.56,7.802,3.551,8.001,3.536z M7.733,4.744
			C7.605,4.758,7.477,4.769,7.349,4.785C6.84,4.852,6.358,5.004,5.918,5.282C5.46,5.572,5.1,5.959,4.854,6.455
			c-0.011,0.022-0.015,0.059-0.005,0.08C4.956,6.758,5.09,6.963,5.25,7.149C5.732,7.711,6.345,8.03,7.048,8.178
			c0.418,0.088,0.841,0.11,1.267,0.084C8.817,8.232,9.302,8.129,9.76,7.907c0.607-0.294,1.075-0.741,1.384-1.361
			c0.016-0.033,0.017-0.058,0.001-0.092c-0.188-0.382-0.447-0.702-0.772-0.966C9.798,5.024,9.133,4.818,8.418,4.751
			C8.351,4.745,8.283,4.743,8.216,4.739C8.82,4.881,9.18,5.426,9.14,5.994C9.098,6.583,8.643,7.048,8.075,7.089
			c-0.557,0.04-1.06-0.348-1.191-0.924C6.759,5.611,7.058,4.937,7.733,4.744z"/>
	</g>
</g>
</svg>
