<?xml version="1.0" encoding="iso-8859-1"?>
<!-- Generator: Adobe Illustrator 21.0.2, SVG Export Plug-In . SVG Version: 6.00 Build 0)  -->
<svg version="1.1" id="Layer_1" xmlns="http://www.w3.org/2000/svg" xmlns:xlink="http://www.w3.org/1999/xlink" x="0px" y="0px"
	 viewBox="0 0 16 16" style="enable-background:new 0 0 16 16;" xml:space="preserve">
<g>
	<g>
		<g>
			<path style="fill:#333333;" d="M15.109,6.444H12.88c-0.132-0.426-0.319-0.831-0.546-1.207l1.478-1.482
				c0.349-0.344,0.349-0.909,0-1.256l-0.627-0.626c-0.348-0.346-0.911-0.344-1.258,0l-1.504,1.501
				c-0.406-0.232-0.846-0.41-1.315-0.531V0.89c0-0.49-0.395-0.889-0.888-0.889H7.333c-0.489,0-0.887,0.399-0.887,0.889v1.954
				c-0.511,0.128-0.99,0.332-1.43,0.6L3.758,2.186C3.411,1.84,2.846,1.84,2.5,2.186L1.87,2.813C1.523,3.16,1.527,3.724,1.872,4.073
				l1.281,1.282c-0.27,0.472-0.473,0.987-0.589,1.534H0.891C0.398,6.889,0,7.286,0,7.779v0.888c0,0.49,0.398,0.887,0.891,0.887
				h1.786c0.162,0.537,0.406,1.031,0.719,1.479L2.188,12.24C1.84,12.59,1.84,13.154,2.184,13.5l0.628,0.627
				c0.349,0.346,0.912,0.346,1.26-0.001l1.35-1.348c0.454,0.223,0.948,0.388,1.467,0.473v1.858c0,0.49,0.397,0.889,0.888,0.89h0.89
				c0.489-0.001,0.887-0.399,0.887-0.89v-2.088c0.448-0.158,0.872-0.371,1.257-0.641l1.431,1.433c0.349,0.346,0.91,0.346,1.258,0
				l0.628-0.628c0.349-0.347,0.349-0.908-0.003-1.258l-1.567-1.569C12.75,9.966,12.9,9.55,12.992,9.111h2.118
				c0.493,0,0.89-0.395,0.891-0.89V7.332C15.999,6.843,15.602,6.444,15.109,6.444z M7.778,10.221c-1.227,0-2.221-0.991-2.221-2.221
				c0-1.228,0.994-2.22,2.221-2.22c1.228,0,2.222,0.993,2.222,2.22C10.001,9.23,9.006,10.221,7.778,10.221z"/>
		</g>
	</g>
</g>
</svg>
