<?xml version="1.0" encoding="UTF-8" standalone="no"?>
<!DOCTYPE svg PUBLIC "-//W3C//DTD SVG 1.1//EN" "http://www.w3.org/Graphics/SVG/1.1/DTD/svg11.dtd">
<svg width="100%" height="100%" viewBox="0 0 42 30" version="1.1" xmlns="http://www.w3.org/2000/svg" xmlns:xlink="http://www.w3.org/1999/xlink" xml:space="preserve" xmlns:serif="http://www.serif.com/" style="fill-rule:evenodd;clip-rule:evenodd;stroke-linejoin:round;stroke-miterlimit:2;">
    <g transform="matrix(1,0,0,1,-54.191,-0.15575)">
        <path d="M76.111,29.718C75.469,30.333 74.41,30.333 73.768,29.718L63.565,19.94C63.116,19.509 63.27,18.826 63.893,18.413L74.105,11.652C74.568,11.345 75.31,11.345 75.774,11.652L85.986,18.413C86.609,18.826 86.763,19.509 86.314,19.94L76.111,29.718Z" style="fill:white;fill-rule:nonzero;"/>
        <path d="M88.747,17.609C88.33,18.009 87.476,18.009 86.856,17.609L76.67,11.044C76.207,10.746 76.193,10.27 76.628,9.982L83.924,5.152C84.263,4.928 84.897,4.928 85.35,5.152L95.1,9.982C95.682,10.27 95.909,10.746 95.598,11.044L88.747,17.609Z" style="fill:white;fill-rule:nonzero;"/>
        <path d="M63.013,17.6C62.393,18 61.539,18 61.122,17.6L54.274,11.037C53.963,10.739 54.191,10.263 54.772,9.975L64.521,5.146C64.974,4.922 65.608,4.922 65.947,5.146L73.24,9.975C73.675,10.263 73.661,10.738 73.198,11.037L63.013,17.6Z" style="fill:white;fill-rule:nonzero;"/>
        <path d="M75.731,9.388C75.296,9.668 74.582,9.668 74.147,9.388L66.842,4.683C66.502,4.464 66.581,4.115 67.01,3.903L74.318,0.284C74.663,0.113 75.217,0.113 75.562,0.284L82.87,3.902C83.299,4.114 83.377,4.464 83.038,4.682L75.731,9.388Z" style="fill:white;fill-rule:nonzero;"/>
    </g>
</svg>
