<?xml version="1.0" encoding="utf-8"?>
<!-- Generator: Adobe Illustrator 21.0.2, SVG Export Plug-In . SVG Version: 6.00 Build 0)  -->
<svg version="1.1" id="Layer_1" xmlns="http://www.w3.org/2000/svg" xmlns:xlink="http://www.w3.org/1999/xlink" x="0px" y="0px"
	 viewBox="0 0 20 20" style="enable-background:new 0 0 20 20;" xml:space="preserve">
<style type="text/css">
	.st0{fill:#9D9D9D;}
	.st1{fill:#333333;}
</style>
<g>
	<g>
		<path class="st0" d="M18.6,17c-0.4-0.6-1.6-0.9-2.8-1.4c-1.2-0.5-1.5-0.7-1.5-0.7l0-1.1c0,0,0.4-0.3,0.6-1.4
			c0.3,0.1,0.6-0.4,0.6-0.7c0-0.3,0-1-0.4-0.9c0.1-0.5,0.1-1,0.1-1.3c-0.1-0.9-1-1.9-2.4-1.9s-2.3,1-2.4,1.9c0,0.3,0,0.7,0.1,1.3
			c-0.3-0.1-0.4,0.6-0.4,0.9c0,0.3,0.3,0.8,0.6,0.7c0.1,1.1,0.6,1.4,0.6,1.4l0,1.1c0,0-0.3,0.2-1.5,0.7c-1.2,0.5-2.4,0.8-2.8,1.4
			c-0.3,0.5-0.2,2.9-0.2,2.9h6h6C18.8,19.9,18.9,17.5,18.6,17z"/>
		<path class="st1" d="M12.4,17c-0.4-0.6-1.6-0.9-2.8-1.4c-1.2-0.5-1.5-0.7-1.5-0.7l0-1.1c0,0,0.4-0.3,0.6-1.4
			c0.3,0.1,0.6-0.4,0.6-0.7c0-0.3,0-1-0.4-0.9C9,10.3,9.1,9.8,9,9.5C9,8.6,8.1,7.6,6.7,7.6s-2.3,1-2.4,1.9c0,0.3,0,0.7,0.1,1.3
			C4,10.7,4,11.4,4,11.7c0,0.3,0.3,0.8,0.6,0.7c0.1,1.1,0.6,1.4,0.6,1.4l0,1.1c0,0-0.3,0.2-1.5,0.7c-1.2,0.5-2.4,0.8-2.8,1.4
			c-0.3,0.5-0.2,2.9-0.2,2.9h6h6C12.6,19.9,12.7,17.5,12.4,17z"/>
	</g>
	<g id="dWvMQH.tif_3_">
		<g>
			<path class="st1" d="M18.9,6.7c-2.7,0-5.4,0-8.1,0c0,0,0-0.1,0.1-0.1c0.9-1,1.8-2,2.7-3c0.1-0.1,0.1-0.2,0.2-0.3
				c0.4,0.3,0.7,0.6,1.1,0.9C15.3,4,15.6,3.7,16,3.4c0,0,0,0.1,0.1,0.1c0.8,0.9,1.6,1.8,2.4,2.7C18.6,6.3,18.8,6.5,18.9,6.7z"/>
			<path class="st1" d="M19.3,6.3C19.3,6.3,19.3,6.2,19.3,6.3c-1-1.1-1.9-2.2-2.9-3.2c0,0,0,0,0,0c0,0,0.1-0.1,0.1-0.1
				c0.9-0.8,1.8-1.6,2.7-2.4c0,0,0.1,0,0.1-0.1C19.3,2.4,19.3,4.3,19.3,6.3z"/>
			<path class="st1" d="M18.9,0.1c-1.3,1.2-2.7,2.3-4,3.5c-1.3-1.2-2.6-2.3-4-3.5C13.6,0.1,16.2,0.1,18.9,0.1z"/>
			<path class="st1" d="M13.4,3c-1,1.1-1.9,2.2-2.9,3.3c0-1.9,0-3.9,0-5.8C11.5,1.3,12.5,2.2,13.4,3z"/>
		</g>
	</g>
</g>
</svg>
