<?xml version="1.0" encoding="UTF-8" standalone="no"?>
<!DOCTYPE svg PUBLIC "-//W3C//DTD SVG 1.1//EN" "http://www.w3.org/Graphics/SVG/1.1/DTD/svg11.dtd">
<svg width="100%" height="100%" viewBox="0 0 18 18" version="1.1" xmlns="http://www.w3.org/2000/svg" xmlns:xlink="http://www.w3.org/1999/xlink" xml:space="preserve" xmlns:serif="http://www.serif.com/" style="fill-rule:evenodd;clip-rule:evenodd;stroke-linejoin:round;stroke-miterlimit:2;">
    <g id="icon-modules-off">
        <path d="M15.847,3.483L14.787,3.483L14.787,2.281C14.787,1.728 14.337,1.277 13.783,1.277L11.247,1.277C10.693,1.277 10.243,1.727 10.243,2.281L10.243,3.484L7.683,3.484L7.683,2.281C7.683,1.728 7.233,1.277 6.679,1.277L4.143,1.277C3.59,1.277 3.139,1.727 3.139,2.281L3.139,3.484L2.153,3.484C0.966,3.483 0,4.449 0,5.636L0,14.57C0,15.757 0.966,16.723 2.153,16.723L15.848,16.723C17.035,16.723 18.001,15.757 18.001,14.57L18.001,5.636C18,4.449 17.034,3.483 15.847,3.483ZM11.199,2.281C11.199,2.254 11.221,2.233 11.248,2.233L13.784,2.233C13.811,2.233 13.833,2.255 13.833,2.281L13.833,3.484L11.2,3.484L11.2,2.281L11.199,2.281ZM4.095,2.281C4.095,2.254 4.117,2.233 4.143,2.233L6.68,2.233C6.707,2.233 6.728,2.255 6.728,2.281L6.728,3.484L4.095,3.484L4.095,2.281ZM16.726,14.57C16.726,15.053 16.331,15.449 15.847,15.449L2.153,15.449C1.67,15.449 1.274,15.054 1.274,14.57L1.274,5.636C1.274,5.153 1.669,4.757 2.153,4.757L15.848,4.757C16.331,4.757 16.727,5.152 16.727,5.636L16.727,14.57L16.726,14.57Z" style="fill:rgb(4,188,8);fill-rule:nonzero;"/>
    </g>
</svg>
