<?xml version="1.0" encoding="UTF-8" standalone="no"?>
<!DOCTYPE svg PUBLIC "-//W3C//DTD SVG 1.1//EN" "http://www.w3.org/Graphics/SVG/1.1/DTD/svg11.dtd">
<svg width="100%" height="100%" viewBox="0 0 18 18" version="1.1" xmlns="http://www.w3.org/2000/svg" xmlns:xlink="http://www.w3.org/1999/xlink" xml:space="preserve" xmlns:serif="http://www.serif.com/" style="fill-rule:evenodd;clip-rule:evenodd;stroke-linejoin:round;stroke-miterlimit:2;">
    <g id="o9n4P2.tif">
        <g>
            <rect x="1.264" y="8.117" width="11.187" height="8.72" style="fill:rgb(4,188,8);fill-rule:nonzero;"/>
            <path d="M3.229,7.647C1.45,7.65 0.005,6.211 0,4.431C-0.005,2.632 1.43,1.174 3.208,1.171C4.995,1.167 6.441,2.607 6.45,4.399C6.459,6.186 5.014,7.643 3.229,7.647Z" style="fill:rgb(4,188,8);fill-rule:nonzero;"/>
            <path d="M7.096,4.385C7.103,2.588 8.544,1.155 10.336,1.162C12.124,1.17 13.548,2.618 13.539,4.42C13.53,6.213 12.084,7.643 10.29,7.634C8.518,7.627 7.088,6.172 7.096,4.385Z" style="fill:rgb(4,188,8);fill-rule:nonzero;"/>
            <path d="M18,16.671C17.151,15.82 16.327,14.998 15.509,14.17C15.464,14.125 15.438,14.041 15.438,13.974C15.434,12.79 15.433,11.606 15.439,10.421C15.439,10.353 15.481,10.262 15.533,10.221C16.329,9.59 17.13,8.966 17.931,8.341C17.946,8.331 17.965,8.324 18,8.305L18,16.671Z" style="fill:rgb(4,188,8);fill-rule:nonzero;"/>
            <rect x="13.186" y="10.359" width="1.548" height="4.243" style="fill:rgb(4,188,8);fill-rule:nonzero;"/>
        </g>
    </g>
</svg>
