<?xml version="1.0" encoding="iso-8859-1"?>
<!-- Generator: Adobe Illustrator 21.0.2, SVG Export Plug-In . SVG Version: 6.00 Build 0)  -->
<svg version="1.1" xmlns="http://www.w3.org/2000/svg" xmlns:xlink="http://www.w3.org/1999/xlink" x="0px" y="0px"
	 viewBox="0 0 18.722 20" style="enable-background:new 0 0 18.722 20;" xml:space="preserve">
<g id="icon-site-disabled">
	<g>
		<path style="fill:#E50707;" d="M18.718,10.643c0-3.814-2.279-7.082-5.548-8.544v3.427c1.566,1.165,2.59,3.014,2.595,5.116
			c-0.012,3.534-2.869,6.4-6.405,6.405c-3.536-0.005-6.398-2.871-6.405-6.405c0-2.102,1.03-3.952,2.594-5.116V2.095
			C2.282,3.558,0,6.828,0,10.643C0,15.815,4.189,20,9.361,20c5.167,0,9.357-4.185,9.361-9.357H18.718z"/>
		<path style="fill:#E50707;" d="M11.271,12.257c0,0.264-0.216,0.481-0.481,0.481H7.931c-0.264,0-0.481-0.216-0.481-0.481V0.481
			C7.451,0.216,7.667,0,7.931,0h2.859c0.264,0,0.481,0.216,0.481,0.481V12.257z"/>
	</g>
</g>
<g id="Layer_1">
</g>
</svg>
