<?xml version="1.0" encoding="iso-8859-1"?>
<!-- Generator: Adobe Illustrator 21.0.2, SVG Export Plug-In . SVG Version: 6.00 Build 0)  -->
<svg version="1.1" id="Layer_1" xmlns="http://www.w3.org/2000/svg" xmlns:xlink="http://www.w3.org/1999/xlink" x="0px" y="0px"
	 viewBox="0 0 14 18" style="enable-background:new 0 0 14 18;" xml:space="preserve">
<g>
	<g>
		<path style="fill-rule:evenodd;clip-rule:evenodd;fill:#333333;" d="M4.468,0c1.687,0,3.376,0,5.063,0c0,0.375,0,0.75,0,1.125
			c1.281,0,2.563,0,3.844,0c0,0.687,0,1.375,0,2.063c-4.25,0-8.501,0-12.75,0c0-0.688,0-1.375,0-2.063c1.281,0,2.563,0,3.843,0
			C4.468,0.75,4.468,0.375,4.468,0z"/>
	</g>
	<g>
		<path style="fill-rule:evenodd;clip-rule:evenodd;fill:#333333;" d="M1.093,5.063c3.938,0,7.875,0,11.813,0
			C12.688,9.374,12.468,13.688,12.25,18c-3.53,0-7.063,0-10.593,0C1.469,13.688,1.281,9.374,1.093,5.063z"/>
	</g>
</g>
</svg>
