<?xml version="1.0" encoding="iso-8859-1"?>
<!-- Generator: Adobe Illustrator 21.0.2, SVG Export Plug-In . SVG Version: 6.00 Build 0)  -->
<svg version="1.1" xmlns="http://www.w3.org/2000/svg" xmlns:xlink="http://www.w3.org/1999/xlink" x="0px" y="0px"
	 viewBox="0 0 20 4.808" style="enable-background:new 0 0 20 4.808;" xml:space="preserve">
<g id="icon-spare-domain-names">
	<g>
		<path style="fill:#333333;" d="M0.679,4.808H0v-0.68h0.679V4.808z"/>
		<path style="fill:#333333;" d="M6.441,4.129v0.68H2.544c-0.555,0-1.003-0.448-1.003-1.003V1.004C1.541,0.448,1.989,0,2.544,0h3.88
			v0.68h-3.88c-0.174,0-0.323,0.149-0.323,0.324v2.802c0,0.174,0.149,0.323,0.323,0.323H6.441z"/>
		<path style="fill:#333333;" d="M10.981,0c0.564,0,1.012,0.448,1.012,1.004v2.802c0,0.555-0.448,1.003-1.012,1.003H8.096
			c-0.555,0-1.003-0.448-1.003-1.003V1.004C7.093,0.448,7.541,0,8.096,0H10.981z M8.096,0.68c-0.174,0-0.323,0.149-0.323,0.324
			v2.802c0,0.174,0.149,0.323,0.323,0.323h2.885c0.183,0,0.324-0.149,0.324-0.323V1.004c0-0.174-0.141-0.324-0.324-0.324H8.096z"/>
		<path style="fill:#333333;" d="M20,1.004v3.805h-0.672V1.004c0-0.174-0.149-0.324-0.331-0.324h-1.998
			c-0.182,0-0.323,0.149-0.323,0.324v3.805h-0.688V1.004c0-0.174-0.149-0.324-0.323-0.324h-2.006c-0.174,0-0.323,0.149-0.323,0.324
			v3.805h-0.688V0h6.35C19.56,0,20,0.448,20,1.004z"/>
	</g>
</g>
<g id="Layer_1">
</g>
</svg>
