<?xml version="1.0" encoding="UTF-8" standalone="no"?>
<!DOCTYPE svg PUBLIC "-//W3C//DTD SVG 1.1//EN" "http://www.w3.org/Graphics/SVG/1.1/DTD/svg11.dtd">
<svg width="15px" height="16px" version="1.1" xmlns="http://www.w3.org/2000/svg" xmlns:xlink="http://www.w3.org/1999/xlink" xml:space="preserve" xmlns:serif="http://www.serif.com/" style="fill-rule:evenodd;clip-rule:evenodd;stroke-linejoin:round;stroke-miterlimit:2;">
    <path d="M14.987,0.5C14.991,0.502 14.999,0.504 14.999,0.506C15,0.523 15,0.54 15,0.556L15,7.425C14.988,7.421 14.976,7.416 14.964,7.414C14.229,7.281 13.495,7.147 12.76,7.014C11.923,6.862 11.085,6.711 10.248,6.56C9.445,6.415 8.644,6.269 7.842,6.124C7.831,6.122 7.821,6.116 7.803,6.108C8.632,5.463 9.455,4.822 10.283,4.179C10.264,4.165 10.25,4.153 10.234,4.143C9.533,3.691 8.764,3.433 7.925,3.378C7.55,3.353 7.176,3.373 6.804,3.435C6.186,3.539 5.611,3.754 5.08,4.08C3.797,4.87 2.939,6.223 2.816,7.775C2.788,8.12 2.8,8.465 2.849,8.809C2.915,9.281 3.051,9.732 3.257,10.163C3.973,11.658 5.462,12.703 7.243,12.835C7.679,12.867 8.112,12.843 8.541,12.762C9.395,12.601 10.151,12.242 10.804,11.68C11.327,11.23 11.727,10.691 12.01,10.069C12.019,10.049 12.03,10.029 12.04,10.008C12.949,10.225 13.852,10.44 14.76,10.656C14.752,10.678 14.747,10.694 14.741,10.709C14.577,11.135 14.377,11.544 14.132,11.931C13.24,13.344 12.004,14.36 10.428,14.979C9.665,15.279 8.87,15.445 8.049,15.489C8.03,15.49 8.012,15.495 7.993,15.499L7.239,15.499C7.218,15.496 7.197,15.491 7.176,15.489C7.068,15.48 6.959,15.474 6.851,15.464C6.39,15.422 5.937,15.335 5.492,15.21C3.49,14.649 1.793,13.292 0.84,11.488C0.358,10.576 0.086,9.608 0.024,8.583C0.02,8.535 0.008,8.486 0,8.438L0,7.863C0.005,7.84 0.012,7.818 0.014,7.796C0.03,7.624 0.043,7.452 0.062,7.28C0.11,6.855 0.198,6.437 0.327,6.028C0.842,4.396 1.812,3.08 3.232,2.087C4.398,1.271 5.703,0.822 7.134,0.728C7.644,0.694 8.152,0.716 8.658,0.785C9.153,0.853 9.636,0.967 10.107,1.13C10.957,1.424 11.729,1.852 12.426,2.411C12.445,2.426 12.465,2.441 12.485,2.456C12.505,2.441 12.521,2.43 12.536,2.418C12.898,2.137 13.26,1.856 13.622,1.575C14.061,1.234 14.5,0.894 14.938,0.552C14.957,0.538 14.971,0.518 14.987,0.5Z" style="fill:white;fill-rule:nonzero;"/>
</svg>
