<?xml version="1.0" encoding="iso-8859-1"?>
<!-- Generator: Adobe Illustrator 21.0.2, SVG Export Plug-In . SVG Version: 6.00 Build 0)  -->
<svg version="1.1" xmlns="http://www.w3.org/2000/svg" xmlns:xlink="http://www.w3.org/1999/xlink" x="0px" y="0px"
	 viewBox="0 0 18 18" style="enable-background:new 0 0 18 18;" xml:space="preserve">
<g id="users_off_state">
	<g id="New_Symbol_36">
		<path style="fill:#D1D1D1;" d="M17.641,13.727c-0.54-0.821-2.354-1.333-4.15-2.063c-1.796-0.73-2.222-0.984-2.222-0.984
			l-0.017-1.682c0,0,0.673-0.503,0.882-2.085c0.421,0.119,0.863-0.614,0.886-0.998c0.024-0.372-0.058-1.403-0.571-1.298
			c0.105-0.774,0.181-1.473,0.145-1.843C12.458,1.426,11.096,0,9,0S5.542,1.426,5.408,2.775C5.371,3.145,5.447,3.844,5.552,4.618
			C5.038,4.513,4.957,5.544,4.981,5.916C5.004,6.3,5.446,7.033,5.867,6.914c0.209,1.582,0.882,2.085,0.882,2.085l-0.017,1.682
			c0,0-0.426,0.254-2.222,0.984c-1.796,0.73-3.611,1.241-4.15,2.063C-0.125,14.465,0.021,18,0.021,18H9h8.979
			C17.979,18,18.125,14.465,17.641,13.727z"/>
	</g>
</g>
<g id="Layer_1">
</g>
</svg>
