<?xml version="1.0" encoding="iso-8859-1"?>
<!-- Generator: Adobe Illustrator 21.0.2, SVG Export Plug-In . SVG Version: 6.00 Build 0)  -->
<svg version="1.1" xmlns="http://www.w3.org/2000/svg" xmlns:xlink="http://www.w3.org/1999/xlink" x="0px" y="0px"
	 viewBox="0 0 20 18.928" style="enable-background:new 0 0 20 18.928;" xml:space="preserve">
<g id="icon-project-descriptions-content-types-dark">
	<g>
		<g id="_x35_LRiwG.tif">
			<g>
				<path style="fill:#333333;" d="M4.001,0.392C3.501,0.596,3.055,0.909,2.468,1.23C2.72,1.28,2.84,1.31,2.963,1.327
					C4.005,1.473,4.977,1.821,5.87,2.373C6.092,2.51,6.302,2.691,6.465,2.894c0.371,0.461,0.372,0.849,0.041,1.338
					c-2.028,2.996-4.058,5.991-6.087,8.986C0.28,13.424,0.14,13.628,0,13.833c0.032,0.114,0.064,0.229,0.096,0.343
					c0.888,0.522,1.775,1.044,2.663,1.567c0.086-0.024,0.172-0.048,0.257-0.072c0.214-0.387,0.434-0.772,0.641-1.163
					C5.22,11.557,6.78,8.605,8.34,5.653c0.266-0.502,0.64-0.694,1.165-0.48c0.579,0.237,1.16,0.492,1.302,1.245
					c0.09,0.48,0.469,0.816,0.933,0.926c0.225,0.053,0.624-0.044,0.738-0.213c0.529-0.783,1.005-1.605,1.459-2.435
					c0.177-0.324,0.048-0.668-0.284-0.836c-0.295-0.149-0.647-0.329-0.95-0.293c-0.935,0.111-1.445-0.647-2.169-0.952
					c-0.034-0.014-0.069-0.068-0.071-0.105c-0.042-0.63-0.557-0.826-0.996-1.092c-0.051-0.031-0.102-0.06-0.153-0.092
					C8.032,0.515,6.619-0.251,5.116,0.078C4.739,0.161,4.358,0.246,4.001,0.392z"/>
			</g>
		</g>
		<rect x="9.059" y="10.141" style="fill:#333333;" width="8.088" height="1.212"/>
		<rect x="9.091" y="12.868" style="fill:#333333;" width="10.909" height="1.212"/>
		<rect x="9.091" y="15.292" style="fill:#333333;" width="10.909" height="1.212"/>
		<rect x="9.091" y="17.716" style="fill:#333333;" width="10.909" height="1.212"/>
	</g>
</g>
<g id="Layer_1">
</g>
</svg>
