<?xml version="1.0" encoding="UTF-8" standalone="no"?>
<!DOCTYPE svg PUBLIC "-//W3C//DTD SVG 1.1//EN" "http://www.w3.org/Graphics/SVG/1.1/DTD/svg11.dtd">
<svg width="20px" height="20px" version="1.1" xmlns="http://www.w3.org/2000/svg" xmlns:xlink="http://www.w3.org/1999/xlink" xml:space="preserve" xmlns:serif="http://www.serif.com/" style="fill-rule:evenodd;clip-rule:evenodd;stroke-linejoin:round;stroke-miterlimit:2;">
    <g id="icon-testimonials-content-types-dark">
        <g id="TcyAaA.tif">
            <g>
                <path d="M0,18.666C0.278,17.903 0.888,17.428 1.489,16.943C2.022,16.513 2.534,16.068 2.775,15.389C2.873,15.113 2.843,14.919 2.623,14.695C-0.95,11.063 -0.61,5.535 3.371,2.332C7.702,-1.151 14.272,-0.679 17.88,3.374C21.051,6.936 20.616,12.261 16.915,15.273C14.506,17.235 11.749,17.96 8.684,17.637C8.49,17.617 8.248,17.685 8.084,17.795C6.335,18.964 4.464,19.804 2.333,19.923C1.853,19.95 1.367,19.878 0.885,19.835C0.477,19.8 0.173,19.597 0,19.217L0,18.666ZM2.302,18.299C2.313,18.326 2.324,18.353 2.335,18.379C2.542,18.358 2.752,18.349 2.956,18.313C4.64,18.012 6.15,17.313 7.503,16.278C7.807,16.046 8.107,15.964 8.486,16.022C11.215,16.444 13.692,15.873 15.867,14.125C19.285,11.379 19.31,6.39 15.917,3.625C12.505,0.844 7.634,0.833 4.237,3.632C2.782,4.831 1.892,6.377 1.732,8.281C1.542,10.533 2.392,12.381 4.023,13.893C4.329,14.177 4.458,14.48 4.434,14.896C4.367,16.043 3.824,16.935 3.003,17.689C2.775,17.898 2.536,18.096 2.302,18.299Z" style="fill:white;fill-rule:nonzero;"/>
            </g>
        </g>
        <g>
            <path d="M5.177,6.763L5.812,8.048L7.23,8.254L6.204,9.255L6.446,10.667L5.177,10L3.909,10.667L4.151,9.255L3.125,8.254L4.543,8.048L5.177,6.763Z" style="fill:white;fill-rule:nonzero;"/>
            <path d="M10,6.763L10.634,8.048L12.052,8.254L11.026,9.255L11.268,10.667L10,10L8.732,10.667L8.974,9.255L7.948,8.254L9.366,8.048L10,6.763Z" style="fill:white;fill-rule:nonzero;"/>
            <path d="M14.823,6.763L15.457,8.048L16.875,8.254L15.849,9.255L16.091,10.667L14.823,10L13.554,10.667L13.796,9.255L12.77,8.254L14.188,8.048L14.823,6.763Z" style="fill:white;fill-rule:nonzero;"/>
        </g>
    </g>
</svg>
