<?xml version="1.0" encoding="iso-8859-1"?>
<!-- Generator: Adobe Illustrator 21.0.2, SVG Export Plug-In . SVG Version: 6.00 Build 0)  -->
<svg version="1.1" xmlns="http://www.w3.org/2000/svg" xmlns:xlink="http://www.w3.org/1999/xlink" x="0px" y="0px"
	 viewBox="0 0 16.11 20" style="enable-background:new 0 0 16.11 20;" xml:space="preserve">
<g id="icon-blog-content-types-dark">
	<g>
		<g>
			<g>
				<path style="fill:#333333;" d="M12.777,9.642h-1.713c-0.022-1.221-0.506-2.365-1.369-3.228c-0.861-0.865-2-1.35-3.216-1.372
					V3.336C9.931,3.382,12.73,6.186,12.777,9.642L12.777,9.642z"/>
			</g>
			<g>
				<path style="fill:#333333;" d="M16.11,9.642H14.4c-0.047-4.354-3.573-7.889-7.917-7.936V0C11.77,0.047,16.062,4.347,16.11,9.642
					L16.11,9.642z"/>
			</g>
		</g>
		<g>
			<path style="fill:#333333;" d="M3.258,7.935v7.116c0,1.157,0.416,1.734,1.245,1.734c0.355,0,0.655-0.12,0.901-0.361
				c0.246-0.242,0.37-0.535,0.37-0.877c0-0.353-0.114-0.652-0.349-0.892c-0.231-0.24-0.517-0.361-0.853-0.361
				c-0.237,0-0.511,0.104-0.817,0.312v-3.587c0.382-0.036,0.673-0.053,0.871-0.053c1.224,0,2.274,0.44,3.149,1.324
				c0.873,0.883,1.31,1.945,1.31,3.188c0,1.271-0.445,2.344-1.333,3.215C6.865,19.564,5.772,20,4.477,20
				c-0.649,0-1.283-0.144-1.902-0.427c-0.619-0.285-1.128-0.669-1.529-1.151C0.349,17.587,0,16.503,0,15.175v-7.24H3.258z"/>
		</g>
	</g>
</g>
<g id="Layer_1">
</g>
</svg>
