<?xml version="1.0" encoding="iso-8859-1"?>
<!-- Generator: Adobe Illustrator 21.0.2, SVG Export Plug-In . SVG Version: 6.00 Build 0)  -->
<svg version="1.1" id="Layer_1" xmlns="http://www.w3.org/2000/svg" xmlns:xlink="http://www.w3.org/1999/xlink" x="0px" y="0px"
	 viewBox="0 0 21 15" style="enable-background:new 0 0 21 15;" xml:space="preserve">
<g id="PrfINy.tif">
	<g>
		<path style="fill:#333333;" d="M17.105,1.043c-0.429,0.426-0.818,0.825-1.222,1.206c-0.09,0.085-0.241,0.158-0.358,0.149
			c-0.104-0.008-0.255-0.119-0.283-0.214c-0.035-0.117-0.01-0.309,0.07-0.393c0.547-0.571,1.111-1.127,1.679-1.677
			c0.234-0.226,0.544-0.116,0.661,0.212c0.507,1.414,1.014,2.828,1.525,4.241c0.473,1.307,0.946,2.614,1.426,3.919
			c0.383,1.041,0.552,2.088,0.22,3.183c-0.626,2.065-2.62,3.447-4.786,3.295c-2.076-0.145-3.938-1.913-4.169-3.977
			c-0.029-0.258-0.129-0.38-0.365-0.484c-0.747-0.328-1.468-0.27-2.174,0.093c-0.086,0.044-0.15,0.195-0.164,0.303
			c-0.152,1.205-0.693,2.208-1.628,2.978c-1.356,1.117-2.897,1.431-4.546,0.787c-1.673-0.654-2.665-1.907-2.946-3.685
			c-0.117-0.74,0.005-1.455,0.258-2.155c1.02-2.818,2.035-5.637,3.053-8.455c0.156-0.432,0.438-0.49,0.76-0.168
			C4.63,0.715,5.148,1.224,5.66,1.739c0.237,0.238,0.182,0.587-0.115,0.646C5.421,2.409,5.237,2.345,5.14,2.257
			C4.78,1.933,4.444,1.583,4.103,1.239C4.047,1.182,4.01,1.107,3.964,1.04C3.941,1.052,3.917,1.063,3.894,1.075
			c-0.685,1.889-1.37,3.777-2.072,5.711c2.923-2.172,6.823-0.281,7.333,3.001c0.449-0.076,0.897-0.211,1.346-0.212
			c0.451,0,0.902,0.133,1.352,0.208c0.489-3.214,4.293-5.171,7.339-2.986C18.487,4.855,17.802,2.967,17.105,1.043z M0.748,10.423
			c0.004,2.157,1.685,3.825,3.858,3.814c2.225-0.011,3.902-1.738,3.832-3.955c-0.065-2.079-1.72-3.683-3.841-3.677
			C2.42,6.611,0.745,8.264,0.748,10.423z M20.26,10.444c0.026-2.141-1.625-3.8-3.803-3.839c-2.136-0.038-3.953,1.62-3.887,3.944
			c0.055,1.939,1.543,3.647,3.786,3.686C18.543,14.274,20.234,12.621,20.26,10.444z"/>
	</g>
</g>
</svg>
