<?xml version="1.0" encoding="UTF-8" standalone="no"?>
<!DOCTYPE svg PUBLIC "-//W3C//DTD SVG 1.1//EN" "http://www.w3.org/Graphics/SVG/1.1/DTD/svg11.dtd">
<svg width="100%" height="100%" viewBox="0 0 24 24" version="1.1" xmlns="http://www.w3.org/2000/svg" xmlns:xlink="http://www.w3.org/1999/xlink" xml:space="preserve" xmlns:serif="http://www.serif.com/" style="fill-rule:evenodd;clip-rule:evenodd;stroke-linejoin:round;stroke-miterlimit:2;">
    <g>
        <g transform="matrix(-1,0,0,1,24,0)">
            <path d="M16,22L21,22C21.549,22 22,21.549 22,21L22,9C22,8.451 21.549,8 21,8L16,8L16,6.5L14,6.5L14,8L9,8C8.451,8 8,8.451 8,9L8,14L6.5,14L6.5,16L8,16L8,21C8,21.549 8.451,22 9,22L16,22M20,20L10,20L10,10L20,10L20,20ZM4,14L5.5,14L5.5,16L3,16C2.451,16 2,15.549 2,15L2,12.5L4,12.5L4,14M4,11.5L2,11.5L2,6.5L4,6.5L4,11.5M3,2L5.5,2L5.5,4L4,4L4,5.5L2,5.5L2,3C2,2.451 2.451,2 3,2M11.5,4L6.5,4L6.5,2L11.5,2L11.5,4M14,4L12.5,4L12.5,2L15,2C15.549,2 16,2.451 16,3L16,5.5L14,5.5L14,4" style="fill:rgb(51,51,51);fill-rule:nonzero;"/>
        </g>
        <g transform="matrix(-0.866025,-0.5,-0.5,0.866025,19.8087,9.59872)">
            <path d="M7.432,10.636L7.432,10.882C7.432,11.601 7.436,12.319 7.431,13.038C7.428,13.475 7.12,13.844 6.717,13.909C6.267,13.982 5.859,13.746 5.726,13.32C5.69,13.206 5.684,13.078 5.683,12.957C5.679,12.245 5.677,11.533 5.683,10.821C5.684,10.671 5.643,10.616 5.487,10.619C5.021,10.627 4.555,10.625 4.089,10.62C3.796,10.617 3.734,10.512 3.879,10.261C4.698,8.837 5.519,7.415 6.341,5.992C6.489,5.736 6.624,5.737 6.771,5.993C7.589,7.41 8.406,8.827 9.223,10.245C9.377,10.512 9.312,10.621 8.999,10.622C8.565,10.623 8.132,10.621 7.698,10.622C7.615,10.623 7.532,10.631 7.432,10.636Z" style="fill:rgb(51,51,51);fill-rule:nonzero;"/>
        </g>
    </g>
</svg>
