<?xml version="1.0" encoding="UTF-8" standalone="no"?>
<!DOCTYPE svg PUBLIC "-//W3C//DTD SVG 1.1//EN" "http://www.w3.org/Graphics/SVG/1.1/DTD/svg11.dtd">
<svg width="100%" height="100%" viewBox="0 0 16 16" version="1.1" xmlns="http://www.w3.org/2000/svg" xmlns:xlink="http://www.w3.org/1999/xlink" xml:space="preserve" xmlns:serif="http://www.serif.com/" style="fill-rule:evenodd;clip-rule:evenodd;stroke-linejoin:round;stroke-miterlimit:2;">
    <g>
        <g>
            <g>
                <path d="M15.109,6.444L12.88,6.444C12.748,6.018 12.561,5.613 12.334,5.237L13.812,3.755C14.161,3.411 14.161,2.846 13.812,2.499L13.185,1.873C12.837,1.527 12.274,1.529 11.927,1.873L10.423,3.374C10.017,3.142 9.577,2.964 9.108,2.843L9.108,0.89C9.108,0.4 8.713,0.001 8.22,0.001L7.333,0.001C6.844,0.001 6.446,0.4 6.446,0.89L6.446,2.844C5.935,2.972 5.456,3.176 5.016,3.444L3.758,2.186C3.411,1.84 2.846,1.84 2.5,2.186L1.87,2.813C1.523,3.16 1.527,3.724 1.872,4.073L3.153,5.355C2.883,5.827 2.68,6.342 2.564,6.889L0.891,6.889C0.398,6.889 0,7.286 0,7.779L0,8.667C0,9.157 0.398,9.554 0.891,9.554L2.677,9.554C2.839,10.091 3.083,10.585 3.396,11.033L2.188,12.24C1.84,12.59 1.84,13.154 2.184,13.5L2.812,14.127C3.161,14.473 3.724,14.473 4.072,14.126L5.422,12.778C5.876,13.001 6.37,13.166 6.889,13.251L6.889,15.109C6.889,15.599 7.286,15.998 7.777,15.999L8.667,15.999C9.156,15.998 9.554,15.6 9.554,15.109L9.554,13.021C10.002,12.863 10.426,12.65 10.811,12.38L12.242,13.813C12.591,14.159 13.152,14.159 13.5,13.813L14.128,13.185C14.477,12.838 14.477,12.277 14.125,11.927L12.558,10.358C12.75,9.966 12.9,9.55 12.992,9.111L15.11,9.111C15.603,9.111 16,8.716 16.001,8.221L16.001,7.332C15.999,6.843 15.602,6.444 15.109,6.444ZM7.778,10.221C6.551,10.221 5.557,9.23 5.557,8C5.557,6.772 6.551,5.78 7.778,5.78C9.006,5.78 10,6.773 10,8C10.001,9.23 9.006,10.221 7.778,10.221Z" style="fill:rgb(190,190,190);fill-rule:nonzero;"/>
            </g>
        </g>
    </g>
</svg>
