<?xml version="1.0" encoding="iso-8859-1"?>
<!-- Generator: Adobe Illustrator 21.0.2, SVG Export Plug-In . SVG Version: 6.00 Build 0)  -->
<svg version="1.1" id="Layer_1" xmlns="http://www.w3.org/2000/svg" xmlns:xlink="http://www.w3.org/1999/xlink" x="0px" y="0px"
	 viewBox="0 0 20 22" style="enable-background:new 0 0 20 22;" xml:space="preserve">
<g>
	<g>
		<path style="fill:#333333;" d="M17.41,13.369l-0.438,3.66c-0.031,0.272-0.047,0.507-0.047,0.705c0,0.361,0.175,0.541,0.524,0.541
			c0.391,0,0.754-0.277,1.088-0.83c0.334-0.554,0.501-1.204,0.501-1.951c0-1.18-0.4-2.125-1.201-2.836
			c-0.801-0.71-1.79-1.065-2.969-1.065c-1.226,0-2.279,0.44-3.161,1.319c-0.882,0.88-1.322,1.975-1.322,3.285
			c0,1.227,0.417,2.293,1.252,3.199c0.835,0.906,2,1.359,3.497,1.359c1.184,0,2.352-0.295,3.505-0.884l0.344,0.947
			c-1.221,0.616-2.504,0.923-3.849,0.923c-1.779,0-3.188-0.547-4.229-1.64c-1.041-1.094-1.561-2.397-1.561-3.911
			c0-1.587,0.542-2.911,1.627-3.973c1.085-1.062,2.397-1.593,3.936-1.593c1.45,0,2.661,0.461,3.634,1.382
			C19.514,12.927,20,14.056,20,15.392c0,1.029-0.262,1.936-0.786,2.721c-0.524,0.786-1.161,1.179-1.911,1.179
			c-0.615,0-1.032-0.318-1.251-0.955c-0.491,0.657-1.078,0.986-1.762,0.986c-0.7,0-1.286-0.277-1.758-0.83
			c-0.473-0.554-0.709-1.251-0.709-2.092c0-0.919,0.269-1.676,0.807-2.272c0.538-0.595,1.19-0.893,1.958-0.893
			c0.731,0,1.292,0.303,1.684,0.908l0.09-0.774H17.41z M14.359,18.283c0.454,0,0.849-0.234,1.185-0.702
			c0.337-0.468,0.505-1.01,0.505-1.627c0-0.502-0.133-0.907-0.399-1.215c-0.266-0.308-0.587-0.463-0.962-0.463
			c-0.449,0-0.836,0.201-1.162,0.604c-0.326,0.402-0.489,0.922-0.489,1.56c0,0.559,0.129,1.006,0.387,1.34
			C13.682,18.116,13.994,18.283,14.359,18.283z"/>
	</g>
	<g>
		<path style="fill:#333333;" d="M8.536,16.372c-0.546-0.477-1.091-0.954-1.645-1.438c-0.16,0.179-0.314,0.349-0.467,0.52
			c-1.845,2.064-3.69,4.129-5.535,6.194c-0.043,0.048-0.078,0.102-0.117,0.153c3.715,0,7.429,0,11.144,0
			C9.968,20.747,8.626,18.72,8.536,16.372z"/>
		<path style="fill:#333333;" d="M18.207,8.921c-0.052,0.036-0.108,0.068-0.156,0.11c-0.361,0.316-0.722,0.632-1.083,0.948
			c0.435,0.14,0.85,0.326,1.239,0.551C18.207,9.994,18.207,9.457,18.207,8.921z"/>
		<path style="fill:#333333;" d="M1.119,8.172L9.098,1.19l7.979,6.983c0.071,0.062,0.158,0.092,0.245,0.092
			c0.104,0,0.207-0.043,0.281-0.127c0.136-0.155,0.12-0.391-0.035-0.526L9.098,0.198l-8.47,7.412
			C0.473,7.746,0.457,7.982,0.593,8.137C0.728,8.292,0.964,8.308,1.119,8.172z"/>
		<path style="fill:#333333;" d="M0,8.904c0,4.022,0,8.006,0,12.031c2.021-2.262,4.017-4.497,6.033-6.753
			C4.018,12.42,2.019,10.671,0,8.904z"/>
	</g>
</g>
</svg>
