<?xml version="1.0" encoding="iso-8859-1"?>
<!-- Generator: Adobe Illustrator 21.0.2, SVG Export Plug-In . SVG Version: 6.00 Build 0)  -->
<svg version="1.1" xmlns="http://www.w3.org/2000/svg" xmlns:xlink="http://www.w3.org/1999/xlink" x="0px" y="0px"
	 viewBox="0 0 20 19.453" style="enable-background:new 0 0 20 19.453;" xml:space="preserve">
<g id="icon-site-settings">
	<g>
		<g>
			<g>
				<path style="fill:#333333;" d="M12.722,11.407h-1.877c-0.112-0.359-0.269-0.699-0.46-1.016l1.245-1.247
					c0.294-0.29,0.294-0.765,0-1.058l-0.528-0.527c-0.293-0.292-0.767-0.29-1.059,0L8.777,8.823C8.435,8.628,8.064,8.478,7.67,8.376
					V6.731c0-0.412-0.333-0.749-0.748-0.749H6.174c-0.412,0-0.747,0.336-0.747,0.749v1.645c-0.43,0.108-0.834,0.28-1.204,0.505
					L3.164,7.823c-0.292-0.291-0.768-0.292-1.059,0L1.574,8.351c-0.292,0.292-0.288,0.767,0.002,1.06l1.078,1.079
					c-0.227,0.397-0.399,0.831-0.496,1.292H0.75c-0.415,0-0.75,0.335-0.75,0.749v0.748c0,0.412,0.335,0.746,0.75,0.746h1.504
					c0.136,0.452,0.342,0.868,0.605,1.245l-1.017,1.017c-0.293,0.295-0.293,0.769-0.003,1.061l0.529,0.528
					c0.293,0.291,0.768,0.291,1.06-0.001l1.137-1.135c0.383,0.188,0.798,0.327,1.235,0.398v1.564c0,0.413,0.334,0.749,0.747,0.749
					h0.749c0.412-0.001,0.747-0.336,0.747-0.749v-1.758c0.377-0.133,0.734-0.312,1.058-0.54l1.205,1.206
					c0.293,0.292,0.766,0.292,1.059,0l0.529-0.529c0.294-0.292,0.294-0.765-0.002-1.059l-1.319-1.321
					c0.162-0.329,0.288-0.68,0.365-1.05h1.783c0.415,0,0.749-0.333,0.75-0.749v-0.748C13.471,11.743,13.136,11.407,12.722,11.407z
					 M6.549,14.587c-1.033,0-1.87-0.835-1.87-1.87c0-1.034,0.837-1.869,1.87-1.869c1.034,0,1.871,0.836,1.871,1.869
					C8.42,13.753,7.583,14.587,6.549,14.587z"/>
			</g>
		</g>
		<g>
			<g>
				<path style="fill:#333333;" d="M19.2,2.755l-1.303,0.331c-0.14-0.228-0.309-0.436-0.496-0.622l0.643-1.085
					c0.152-0.253,0.069-0.583-0.186-0.733l-0.459-0.273c-0.256-0.15-0.584-0.066-0.735,0.187l-0.656,1.1
					c-0.271-0.075-0.554-0.114-0.846-0.114l-0.29-1.142c-0.073-0.285-0.364-0.46-0.65-0.387l-0.519,0.132
					c-0.285,0.073-0.459,0.365-0.387,0.652l0.291,1.141c-0.278,0.152-0.529,0.341-0.746,0.563l-0.921-0.547
					c-0.252-0.151-0.583-0.068-0.734,0.186l-0.275,0.46c-0.15,0.253-0.063,0.583,0.189,0.735l0.938,0.558
					c-0.088,0.317-0.129,0.647-0.117,0.985l-0.976,0.248c-0.287,0.072-0.462,0.364-0.388,0.653l0.132,0.517
					c0.072,0.285,0.364,0.459,0.652,0.386l1.043-0.265c0.175,0.289,0.39,0.542,0.639,0.756l-0.527,0.886
					c-0.149,0.256-0.066,0.584,0.186,0.736l0.46,0.273c0.256,0.15,0.586,0.066,0.736-0.189l0.589-0.987
					c0.298,0.062,0.61,0.085,0.927,0.058l0.276,1.085c0.073,0.286,0.364,0.46,0.651,0.387l0.52-0.132
					c0.285-0.072,0.459-0.364,0.387-0.651l-0.31-1.218c0.237-0.16,0.454-0.344,0.638-0.563l1.047,0.626
					c0.256,0.152,0.583,0.069,0.736-0.187l0.273-0.46c0.152-0.253,0.069-0.582-0.188-0.734L18.29,5.422
					c0.055-0.259,0.081-0.523,0.069-0.793l1.237-0.315c0.286-0.072,0.457-0.366,0.388-0.652l-0.133-0.519
					C19.776,2.858,19.487,2.683,19.2,2.755z M15.48,6.051c-0.716,0.182-1.445-0.25-1.628-0.97c-0.183-0.717,0.253-1.442,0.969-1.625
					c0.716-0.181,1.445,0.248,1.627,0.965C16.631,5.141,16.197,5.868,15.48,6.051z"/>
			</g>
		</g>
	</g>
</g>
<g id="Layer_1">
</g>
</svg>
