<?xml version="1.0" encoding="UTF-8" standalone="no"?>
<!DOCTYPE svg PUBLIC "-//W3C//DTD SVG 1.1//EN" "http://www.w3.org/Graphics/SVG/1.1/DTD/svg11.dtd">
<svg width="50px" height="40px" version="1.1" xmlns="http://www.w3.org/2000/svg" xmlns:xlink="http://www.w3.org/1999/xlink" xml:space="preserve" xmlns:serif="http://www.serif.com/" style="fill-rule:evenodd;clip-rule:evenodd;stroke-linejoin:round;stroke-miterlimit:2;">
    <g transform="matrix(3.33333,0,0,3.33333,0,0)">
        <path d="M0,11C0,11.55 0.45,12 1,12L14,12C14.55,12 15,11.55 15,11L15,3C15,2.451 14.55,2 14,2L8,2C7.45,2 6.704,1.662 6.341,1.248L5.909,0.752C5.546,0.338 4.8,0 4.25,0L1,0C0.45,0 0,0.451 0,1L0,11Z" style="fill:rgb(31,255,35);fill-rule:nonzero;"/>
        <g transform="matrix(0.33,0,0,0.33,7.50001,6.96452)">
            <g transform="matrix(1,0,0,1,-10,-10)">
                <g>
                    <g>
                        <rect x="0" y="0" width="20" height="20" style="fill:rgb(0,130,200);"/>
                    </g>
                </g>
                <path d="M18,2L13.2,2L14.9,3.7L12,6.6L13.4,8L16.3,5.1L18,6.8L18,2Z" style="fill:white;fill-rule:nonzero;"/>
                <g>
                    <path d="M2.2,12L3.4,12L3.4,16.1C3.4,16.3 3.6,16.5 3.8,16.7C4,16.9 4.2,16.9 4.6,16.9C4.9,16.9 5.2,16.8 5.3,16.7C5.4,16.6 5.6,16.4 5.6,16.2C5.6,16 5.7,15.7 5.7,15.2L5.7,12L6.9,12L6.9,15C6.9,15.7 6.9,16.2 6.8,16.5C6.7,16.8 6.5,17 6.3,17.2C6.1,17.4 5.9,17.6 5.6,17.7C5.3,17.8 5,17.8 4.5,17.8C4,17.8 3.5,17.7 3.3,17.6C3.1,17.5 2.8,17.3 2.6,17.1C2.4,16.9 2.3,16.7 2.3,16.5C2.2,16.2 2.2,15.7 2.2,15L2.2,12Z" style="fill:white;fill-rule:nonzero;"/>
                    <path d="M8,17.8L8,12L10.4,12C11,12 11.5,12.1 11.7,12.2C11.9,12.3 12.2,12.5 12.4,12.7C12.6,12.9 12.6,13.3 12.6,13.6C12.6,14 12.5,14.4 12.2,14.7C11.9,15 11.6,15.2 11.1,15.2C11.3,15.3 11.6,15.5 11.7,15.7C11.8,15.9 12.1,16.2 12.4,16.6L13.1,17.7L11.7,17.7L10.9,16.5C10.6,16.1 10.4,15.8 10.3,15.7C10.2,15.6 10.1,15.5 10,15.5C9.9,15.5 9.7,15.4 9.4,15.4L9.1,15.4L9.1,17.8L8,17.8ZM9.1,14.4L10,14.4C10.6,14.4 10.9,14.4 11,14.3C11.1,14.2 11.2,14.2 11.3,14.1C11.4,14 11.4,13.8 11.4,13.7C11.4,13.5 11.3,13.4 11.2,13.2C11.1,13 11.1,13 10.9,13L9.1,13L9.1,14.4Z" style="fill:white;fill-rule:nonzero;"/>
                    <path d="M13.8,17.7L13.8,12L15,12L15,16.7L17.9,16.7L17.9,17.7L13.8,17.7Z" style="fill:white;fill-rule:nonzero;"/>
                </g>
            </g>
        </g>
    </g>
</svg>
