<?xml version="1.0" encoding="utf-8"?>
<!-- Generator: Adobe Illustrator 21.0.2, SVG Export Plug-In . SVG Version: 6.00 Build 0)  -->
<svg version="1.1" id="Layer_1" xmlns="http://www.w3.org/2000/svg" xmlns:xlink="http://www.w3.org/1999/xlink" x="0px" y="0px"
	 viewBox="0 0 24 14" style="enable-background:new 0 0 24 14;" xml:space="preserve">
<style type="text/css">
	.st0{fill:#333333;}
</style>
<g>
	<path class="st0" d="M6.3,0.7L4.1,1L2.8,0.2l-1,0.4L0.7,0.1L0,2.3L1.4,2l1.4,1.8l1.2,2.9L6,8L5.9,9.2l0.7,1l-0.7,3.2l0.7,0.5
		l1.7-2.8v-0.5c0,0,0.7-0.1,0.8-0.2c0.1-0.1,0.4-1.1,0.4-1.1l-1.1-1L7.5,7.8l-1-0.2L4.7,6.7L5.1,6H6l2.4-1.7l-1.2-2H6.7L6.3,3.5
		L5.1,2.3l1.1-0.4L6.3,0.7z"/>
	<path class="st0" d="M24,0.8l-5.1-0.7l-6.9,0.1l-1.4,1.4L11.2,2h0.6L12,2.5l-1.9,0.7L9.5,4l0.1,0.5l1.4-0.6l1.9,1l-0.2,0.4h-1.2
		l-0.7-0.5L9.5,5.1L9.1,6.7l1.1,0.7l1.2,0.7l0.5,2.3h0.5L13.6,9V7.4l0.6-0.6l-0.6-0.5l1.2-0.5l0.6-0.4l1,1.3l1-1L18,6.6l0.5,0.2
		L18.7,6c0,0,0.7,0.1,0.8-0.1s0.2-1.8,0.2-1.8l1-0.4l0.7-1.2l0.2-0.6l0.8,0.7L24,0.8z"/>
	<path class="st0" d="M19.1,9.2l0.2,1.2h1.4l0.8,0.6l0.4-0.1c0,0,0.6-1.1,0.5-1.2c-0.1-0.1-1.1-1.2-1.1-1.2L21,8.7l-0.5-0.2
		L19.1,9.2z"/>
</g>
</svg>
