<?xml version="1.0" encoding="UTF-8" standalone="no"?>
<!DOCTYPE svg PUBLIC "-//W3C//DTD SVG 1.1//EN" "http://www.w3.org/Graphics/SVG/1.1/DTD/svg11.dtd">
<svg width="20px" height="20px" version="1.1" xmlns="http://www.w3.org/2000/svg" xmlns:xlink="http://www.w3.org/1999/xlink" xml:space="preserve" xmlns:serif="http://www.serif.com/" style="fill-rule:evenodd;clip-rule:evenodd;stroke-linejoin:round;stroke-miterlimit:2;">
    <g>
        <g>
            <path d="M18.6,17C18.2,16.4 17,16.1 15.8,15.6C14.6,15.1 14.3,14.9 14.3,14.9L14.3,13.8C14.3,13.8 14.7,13.5 14.9,12.4C15.2,12.5 15.5,12 15.5,11.7C15.5,11.4 15.5,10.7 15.1,10.8C15.2,10.3 15.2,9.8 15.2,9.5C15.1,8.6 14.2,7.6 12.8,7.6C11.4,7.6 10.5,8.6 10.4,9.5C10.4,9.8 10.4,10.2 10.5,10.8C10.2,10.7 10.1,11.4 10.1,11.7C10.1,12 10.4,12.5 10.7,12.4C10.8,13.5 11.3,13.8 11.3,13.8L11.3,14.9C11.3,14.9 11,15.1 9.8,15.6C8.6,16.1 7.4,16.4 7,17C6.7,17.5 6.8,19.9 6.8,19.9L18.8,19.9C18.8,19.9 18.9,17.5 18.6,17Z" style="fill:rgb(157,157,157);fill-rule:nonzero;"/>
            <path d="M12.4,17C12,16.4 10.8,16.1 9.6,15.6C8.4,15.1 8.1,14.9 8.1,14.9L8.1,13.8C8.1,13.8 8.5,13.5 8.7,12.4C9,12.5 9.3,12 9.3,11.7C9.3,11.4 9.3,10.7 8.9,10.8C9,10.3 9.1,9.8 9,9.5C9,8.6 8.1,7.6 6.7,7.6C5.3,7.6 4.4,8.6 4.3,9.5C4.3,9.8 4.3,10.2 4.4,10.8C4,10.7 4,11.4 4,11.7C4,12 4.3,12.5 4.6,12.4C4.7,13.5 5.2,13.8 5.2,13.8L5.2,14.9C5.2,14.9 4.9,15.1 3.7,15.6C2.5,16.1 1.3,16.4 0.9,17C0.6,17.5 0.7,19.9 0.7,19.9L12.7,19.9C12.6,19.9 12.7,17.5 12.4,17Z" style="fill:white;fill-rule:nonzero;"/>
        </g>
        <g id="dWvMQH.tif_3_">
            <g>
                <path d="M18.9,6.7L10.8,6.7C10.8,6.7 10.8,6.6 10.9,6.6C11.8,5.6 12.7,4.6 13.6,3.6C13.7,3.5 13.7,3.4 13.8,3.3C14.2,3.6 14.5,3.9 14.9,4.2C15.3,4 15.6,3.7 16,3.4C16,3.4 16,3.5 16.1,3.5C16.9,4.4 17.7,5.3 18.5,6.2C18.6,6.3 18.8,6.5 18.9,6.7Z" style="fill:white;fill-rule:nonzero;"/>
                <path d="M19.3,6.3C19.3,6.3 19.3,6.2 19.3,6.3C18.3,5.2 17.4,4.1 16.4,3.1L16.5,3C17.4,2.2 18.3,1.4 19.2,0.6C19.2,0.6 19.3,0.6 19.3,0.5L19.3,6.3Z" style="fill:white;fill-rule:nonzero;"/>
                <path d="M18.9,0.1C17.6,1.3 16.2,2.4 14.9,3.6C13.6,2.4 12.3,1.3 10.9,0.1L18.9,0.1Z" style="fill:white;fill-rule:nonzero;"/>
                <path d="M13.4,3C12.4,4.1 11.5,5.2 10.5,6.3L10.5,0.5C11.5,1.3 12.5,2.2 13.4,3Z" style="fill:white;fill-rule:nonzero;"/>
            </g>
        </g>
    </g>
</svg>
