<?xml version="1.0" encoding="iso-8859-1"?>
<!-- Generator: Adobe Illustrator 21.0.2, SVG Export Plug-In . SVG Version: 6.00 Build 0)  -->
<svg version="1.1" xmlns="http://www.w3.org/2000/svg" xmlns:xlink="http://www.w3.org/1999/xlink" x="0px" y="0px"
	 viewBox="0 0 18 18" style="enable-background:new 0 0 18 18;" xml:space="preserve">
<g id="email_on_state">
	<path d="M0,15"/>
	<g>
		<path style="fill:#FFFFFF;" d="M9.002,10.498l8.032-7.091c-0.054-0.008-0.103-0.032-0.159-0.032H1.125
			c-0.035,0-0.064,0.016-0.098,0.02L9.002,10.498z"/>
		<path style="fill:#FFFFFF;" d="M18,4.5c0-0.134-0.034-0.258-0.076-0.377L12.252,9.13l5.599,4.899C17.937,13.869,18,13.695,18,13.5
			V4.5z"/>
		<path style="fill:#FFFFFF;" d="M0.088,4.065C0.032,4.199,0,4.346,0,4.5v9c0,0.164,0.039,0.317,0.102,0.458l5.652-4.845
			L0.088,4.065z"/>
		<path style="fill:#FFFFFF;" d="M11.402,9.88l-2.403,2.122L6.602,9.867l-5.537,4.746c0.021,0.001,0.039,0.012,0.06,0.012h15.699
			L11.402,9.88z"/>
	</g>
</g>
<g id="Layer_1">
</g>
</svg>
