<?xml version="1.0" encoding="UTF-8" standalone="no"?>
<!DOCTYPE svg PUBLIC "-//W3C//DTD SVG 1.1//EN" "http://www.w3.org/Graphics/SVG/1.1/DTD/svg11.dtd">
<svg width="100%" height="100%" viewBox="0 0 18 18" version="1.1" xmlns="http://www.w3.org/2000/svg" xmlns:xlink="http://www.w3.org/1999/xlink" xml:space="preserve" xmlns:serif="http://www.serif.com/" style="fill-rule:evenodd;clip-rule:evenodd;stroke-linejoin:round;stroke-miterlimit:2;">
    <g id="menu_navigation_on_state">
        <path d="M16.25,13.5L16.25,8.25L9.5,8.25L9.5,4.5L11.25,4.5L11.25,0L6.75,0L6.75,4.5L8.5,4.5L8.5,8.25L1.75,8.25L1.75,13.5L0,13.5L0,18L4.5,18L4.5,13.5L2.75,13.5L2.75,9.25L8.5,9.25L8.5,13.5L6.75,13.5L6.75,18L11.25,18L11.25,13.5L9.5,13.5L9.5,9.25L15.25,9.25L15.25,13.5L13.5,13.5L13.5,18L18,18L18,13.5L16.25,13.5Z" style="fill:rgb(4,188,8);fill-rule:nonzero;"/>
    </g>
</svg>
