<?xml version="1.0" encoding="iso-8859-1"?>
<!-- Generator: Adobe Illustrator 21.0.2, SVG Export Plug-In . SVG Version: 6.00 Build 0)  -->
<svg version="1.1" xmlns="http://www.w3.org/2000/svg" xmlns:xlink="http://www.w3.org/1999/xlink" x="0px" y="0px"
	 viewBox="0 0 16 16" style="enable-background:new 0 0 16 16;" xml:space="preserve">
<g id="icon-go-to-content-item-off">
	<g>
		<rect style="fill:#6F6F6F;" width="16" height="16"/>
		<g>
			<polygon style="fill:#FFFFFF;" points="10.968,2.422 5.405,2.422 5.405,5.066 6.727,5.066 6.727,3.744 10.421,3.744 
				10.694,4.018 10.694,5.727 12.404,5.727 12.678,6.002 12.678,11.678 6.727,11.678 6.727,10.355 5.405,10.355 5.405,13 14,13 
				14,5.454 			"/>
			<path style="fill:#FFFFFF;" d="M6.796,6.342L3.51,6.174l0.6,0.834c-3.754,2.701-2.671,5.087-2.371,5.504
				c-0.366-2.269,3.154-3.535,3.571-3.835l0.6,0.834L6.796,6.342z"/>
		</g>
	</g>
</g>
<g id="Layer_1">
</g>
</svg>
