<?xml version="1.0" encoding="UTF-8" standalone="no"?>
<!DOCTYPE svg PUBLIC "-//W3C//DTD SVG 1.1//EN" "http://www.w3.org/Graphics/SVG/1.1/DTD/svg11.dtd">
<svg width="20px" height="14px" version="1.1" xmlns="http://www.w3.org/2000/svg" xmlns:xlink="http://www.w3.org/1999/xlink" xml:space="preserve" xmlns:serif="http://www.serif.com/" style="fill-rule:evenodd;clip-rule:evenodd;stroke-linejoin:round;stroke-miterlimit:2;">
    <g>
        <g>
            <path d="M17.438,5.583L17.005,9.262C16.974,9.535 16.959,9.772 16.959,9.971C16.959,10.333 17.132,10.514 17.478,10.514C17.865,10.514 18.224,10.236 18.554,9.679C18.884,9.122 19.049,8.469 19.049,7.718C19.049,6.531 18.653,5.581 17.861,4.867C17.069,4.153 16.09,3.796 14.924,3.796C13.711,3.796 12.669,4.238 11.797,5.122C10.925,6.006 10.489,7.107 10.489,8.425C10.489,9.658 10.902,10.73 11.727,11.641C12.553,12.552 13.706,13.007 15.187,13.007C16.358,13.007 17.514,12.711 18.654,12.118L18.995,13.07C17.786,13.691 16.517,14 15.186,14C13.426,14 12.032,13.45 11.003,12.351C9.973,11.252 9.459,9.941 9.459,8.419C9.459,6.824 9.996,5.492 11.069,4.424C12.142,3.356 13.44,2.822 14.962,2.822C16.396,2.822 17.595,3.285 18.557,4.212C19.519,5.138 20,6.273 20,7.617C20,8.651 19.741,9.563 19.223,10.353C18.705,11.143 18.075,11.538 17.332,11.538C16.724,11.538 16.311,11.218 16.095,10.578C15.609,11.239 15.028,11.569 14.352,11.569C13.66,11.569 13.08,11.291 12.613,10.734C12.145,10.177 11.912,9.476 11.912,8.631C11.912,7.707 12.178,6.946 12.71,6.347C13.242,5.748 13.887,5.449 14.647,5.449C15.37,5.449 15.925,5.753 16.313,6.361L16.402,5.582L17.438,5.582L17.438,5.583ZM14.42,10.523C14.869,10.523 15.26,10.288 15.593,9.818C15.926,9.348 16.092,8.803 16.092,8.182C16.092,7.678 15.96,7.27 15.697,6.96C15.434,6.65 15.117,6.495 14.745,6.495C14.301,6.495 13.918,6.697 13.596,7.102C13.274,7.507 13.112,8.029 13.112,8.67C13.112,9.232 13.24,9.681 13.495,10.018C13.75,10.355 14.058,10.523 14.42,10.523Z" style="fill:white;fill-rule:nonzero;"/>
        </g>
        <g>
            <path d="M8.824,8.615L8.824,8.613C8.198,8.057 7.573,7.502 6.937,6.937C6.776,7.12 6.621,7.295 6.468,7.47C4.61,9.582 2.753,11.695 0.896,13.807C0.853,13.856 0.817,13.911 0.778,13.964L11.678,13.964C9.96,12.824 8.824,10.855 8.824,8.615Z" style="fill:white;fill-rule:nonzero;"/>
            <path d="M18.331,0.784C18.278,0.821 18.222,0.854 18.174,0.897C17.615,1.394 17.056,1.891 16.497,2.388C17.153,2.539 17.771,2.792 18.331,3.134L18.331,0.784Z" style="fill:white;fill-rule:nonzero;"/>
            <path d="M14.929,2.234C15.765,1.49 16.601,0.747 17.441,0L0.879,0C3.592,2.413 6.281,4.804 8.98,7.204C9.599,4.414 12.015,2.317 14.929,2.234Z" style="fill:white;fill-rule:nonzero;"/>
            <path d="M0,0.767L0,13.078C2.035,10.763 4.045,8.477 6.074,6.169C4.045,4.364 2.033,2.574 0,0.767Z" style="fill:white;fill-rule:nonzero;"/>
        </g>
    </g>
</svg>
