<?xml version="1.0" encoding="UTF-8" standalone="no"?>
<!DOCTYPE svg PUBLIC "-//W3C//DTD SVG 1.1//EN" "http://www.w3.org/Graphics/SVG/1.1/DTD/svg11.dtd">
<svg width="100%" height="100%" viewBox="0 0 100 100" version="1.1" xmlns="http://www.w3.org/2000/svg" xmlns:xlink="http://www.w3.org/1999/xlink" xml:space="preserve" xmlns:serif="http://www.serif.com/" style="fill-rule:evenodd;clip-rule:evenodd;stroke-linejoin:round;stroke-miterlimit:2;">
    <g transform="matrix(1.04056,0,0,1.11214,0.0596524,-0.034102)">
        <rect x="-0.057" y="0.031" width="96.102" height="89.917" style="fill:rgb(111,111,111);"/>
    </g>
    <g transform="matrix(0.0528417,-0.0528417,0.0528417,0.0528417,-21.5993,41.7417)">
        <path d="M908.4,434.4L828.002,382.802C825.604,381.603 823.201,380.404 819.604,379.2C817.205,362.399 808.803,345.598 796.803,333.598L588.003,133.198C562.804,109.198 524.401,109.198 500.401,133.198L290.401,333.598C274.799,347.996 266.401,368.399 266.401,389.996L264.526,999.512C264.526,1042.71 299.327,1077.51 342.526,1077.51L365.327,1077.51L365.327,1121.91C365.327,1165.11 400.128,1199.91 443.327,1199.91L853.727,1199.91C896.926,1199.91 931.727,1165.11 931.727,1121.91L933.606,483.595C933.606,466.794 926.406,449.993 914.407,437.993C912.004,436.794 910.805,435.594 908.403,434.391L908.4,434.4ZM540,343.201C589.199,343.201 628.801,382.803 628.801,432.002C628.801,481.201 589.199,520.803 540,520.803C490.801,520.803 451.199,481.201 451.199,432.002C451.199,382.803 490.801,343.201 540,343.201ZM871.725,1121.92C871.725,1131.52 863.327,1139.92 853.725,1139.92L443.325,1139.92C433.724,1139.92 425.325,1131.52 425.325,1121.92L425.325,1077.52L742.125,1077.52C785.324,1077.52 820.125,1042.71 820.125,999.515L822,448.799L873.602,482.401L873.602,483.6L871.725,1121.92Z" style="fill:white;fill-rule:nonzero;"/>
    </g>
</svg>
