<?xml version="1.0" encoding="iso-8859-1"?>
<!-- Generator: Adobe Illustrator 21.0.2, SVG Export Plug-In . SVG Version: 6.00 Build 0)  -->
<svg version="1.1" xmlns="http://www.w3.org/2000/svg" xmlns:xlink="http://www.w3.org/1999/xlink" x="0px" y="0px"
	 viewBox="0 0 20 16.677" style="enable-background:new 0 0 20 16.677;" xml:space="preserve">
<g id="icon-back-ups">
	<g>
		<path style="fill:#333333;" d="M0,9.177v7.5h20v-7.5H0z M3.75,15.427H2.5v-5h1.25V15.427z M6.25,15.427H5v-5h1.25V15.427z
			 M8.75,15.427H7.5v-5h1.25V15.427z M17.084,13.969c-0.518,0-0.938-0.42-0.938-0.938s0.42-0.938,0.938-0.938
			c0.518,0,0.938,0.42,0.938,0.938S17.601,13.969,17.084,13.969z"/>
		<path style="fill:#333333;" d="M2.601,5.964c1.075-2.507,3.851-3.953,6.598-3.419c1.429,0.278,2.684,1.05,3.566,2.176
			l-1.509,0.645l4.534,2.934l0.531-5.232l-1.277,0.607c-1.228-1.827-3.137-3.083-5.382-3.519c-4-0.776-7.952,1.409-9.385,5.129
			L0.038,5.926L2.427,6.39L2.601,5.964z"/>
	</g>
</g>
<g id="Layer_1">
</g>
</svg>
