<?xml version="1.0" encoding="utf-8"?>
<!-- Generator: Adobe Illustrator 21.0.2, SVG Export Plug-In . SVG Version: 6.00 Build 0)  -->
<svg version="1.1" id="Layer_2" xmlns="http://www.w3.org/2000/svg" xmlns:xlink="http://www.w3.org/1999/xlink" x="0px" y="0px"
	 viewBox="0 0 20 20" style="enable-background:new 0 0 20 20;" xml:space="preserve">
<style type="text/css">
	.st0{fill:#C2C2C2;}
	.st1{fill:#FF5600;}
	.st2{fill:#FFFFFF;}
</style>
<g>
	<g>
		<g>
			<rect x="0" class="st0" width="20" height="20"/>
		</g>
	</g>
	<g id="icon-warning">
		<g>
			<g>
				<path class="st1" d="M17.8,15.4L15.4,11c-0.6-1.1-1.5-2.8-2.1-3.9L11,2.8c-0.6-1.1-1.5-1.1-2.1,0L6.6,7.1C6.1,8.2,5.1,10,4.6,11
					l-2.3,4.4c-0.6,1.1-0.1,2,1.2,2h4.4c1.2,0,3.2,0,4.4,0h4.4C17.8,17.4,18.3,16.5,17.8,15.4z"/>
			</g>
			<g>
				<path class="st2" d="M8.9,7.1h2.2l-0.3,5.5H9.2L8.9,7.1z M8.9,13.2h2.2v1.9H8.9V13.2z"/>
			</g>
		</g>
	</g>
</g>
</svg>
