<?xml version="1.0" encoding="UTF-8" standalone="no"?>
<!DOCTYPE svg PUBLIC "-//W3C//DTD SVG 1.1//EN" "http://www.w3.org/Graphics/SVG/1.1/DTD/svg11.dtd">
<svg width="50px" height="40px" version="1.1" xmlns="http://www.w3.org/2000/svg" xmlns:xlink="http://www.w3.org/1999/xlink" xml:space="preserve" xmlns:serif="http://www.serif.com/" style="fill-rule:evenodd;clip-rule:evenodd;stroke-linejoin:round;stroke-miterlimit:2;">
    <g transform="matrix(3.33333,0,0,3.33333,0,0)">
        <path d="M0,11C0,11.55 0.45,12 1,12L14,12C14.55,12 15,11.55 15,11L15,3C15,2.451 14.55,2 14,2L8,2C7.45,2 6.704,1.662 6.341,1.248L5.909,0.752C5.546,0.338 4.8,0 4.25,0L1,0C0.45,0 0,0.451 0,1L0,11Z" style="fill:white;fill-rule:nonzero;"/>
        <g transform="matrix(0.147368,0,0,0.147368,3.30001,2.70001)">
            <g>
                <g>
                    <g>
                        <g>
                            <rect x="2.967" y="0" width="6.993" height="46.165" style="fill:rgb(51,51,51);"/>
                            <rect x="8.031" y="39.298" width="44.163" height="6.752" style="fill:rgb(51,51,51);"/>
                        </g>
                        <rect x="25.692" y="28.658" width="28.034" height="28.032" style="fill:rgb(51,51,51);"/>
                    </g>
                </g>
            </g>
        </g>
    </g>
</svg>
