<?xml version="1.0" encoding="iso-8859-1"?>
<!-- Generator: Adobe Illustrator 21.0.2, SVG Export Plug-In . SVG Version: 6.00 Build 0)  -->
<svg version="1.1" xmlns="http://www.w3.org/2000/svg" xmlns:xlink="http://www.w3.org/1999/xlink" x="0px" y="0px"
	 viewBox="0 0 19.692 16" style="enable-background:new 0 0 19.692 16;" xml:space="preserve">
<g id="icon-video-content-types-dark">
	<g>
		<path style="fill:#333333;" d="M19.142,6.429L17.781,7.11c-0.303,0.151-0.55,0.552-0.55,0.89V4.923
			c0-0.676-0.554-1.231-1.231-1.231h-4.308c0.338,0,0.615-0.276,0.615-0.615c0-0.338-0.263-0.703-0.584-0.81L9.199,1.426
			C8.878,1.319,8.338,1.231,8,1.231H1.231V0.615C1.231,0.277,0.954,0,0.615,0S0,0.277,0,0.615v1.231v1.231v1.231
			c0,0.339,0.277,0.615,0.615,0.615s0.615-0.276,0.615-0.615V3.692h2.462c-0.677,0-1.231,0.555-1.231,1.231v8.615
			c0,0.677,0.554,1.231,1.231,1.231v0.615C3.692,15.725,3.968,16,4.308,16h7.385c0.34,0,0.615-0.275,0.615-0.615v-0.615H16
			c0.677,0,1.231-0.554,1.231-1.231v-3.077c0,0.339,0.248,0.74,0.55,0.891l1.361,0.681c0.303,0.151,0.55-0.002,0.55-0.341V6.769
			C19.692,6.431,19.445,6.278,19.142,6.429z M13.538,12.308H4.923V6.154h8.615V12.308z"/>
		<rect x="17.231" y="7.385" style="fill:#333333;" width="2.462" height="3.692"/>
		<path style="fill:#333333;" d="M6.154,7.385v3.692h6.154V7.385H6.154z M8.615,9.846H7.385V8.615h1.231V9.846z M11.077,9.846H9.846
			V8.615h1.231V9.846z"/>
	</g>
</g>
<g id="Layer_1">
</g>
</svg>
