<?xml version="1.0" encoding="utf-8"?>
<!-- Generator: Adobe Illustrator 21.0.2, SVG Export Plug-In . SVG Version: 6.00 Build 0)  -->
<svg version="1.1" id="Layer_1" xmlns="http://www.w3.org/2000/svg" xmlns:xlink="http://www.w3.org/1999/xlink" x="0px" y="0px"
	 viewBox="0 0 16 16" style="enable-background:new 0 0 16 16;" xml:space="preserve">
<style type="text/css">
	.st0{fill:#333333;}
</style>
<path class="st0" d="M14,3h-2.5V2.4V2c0-2-1-2-2-2s-1,0-3,0s-2,1-2,2c0,0.3,0,0.4,0,0.4V3H2C1.7,3,1.5,3.2,1.5,3.5v1
	C1.5,4.8,1.7,5,2,5c0.3,0,0.5,0.2,0.5,0.5v10C2.5,15.8,2.7,16,3,16h10c0.3,0,0.5-0.2,0.5-0.5v-10C13.5,5.2,13.7,5,14,5
	s0.5-0.2,0.5-0.5v-1C14.5,3.2,14.3,3,14,3z M6.5,2h3v1h-3V2z M5.5,13.5C5.5,13.8,5.3,14,5,14c-0.3,0-0.5-0.2-0.5-0.5V6.1
	c0-0.3,0.2-0.5,0.5-0.5c0.3,0,0.5,0.2,0.5,0.5V13.5z M8.5,13.5C8.5,13.8,8.3,14,8,14s-0.5-0.2-0.5-0.5V6.1c0-0.3,0.2-0.5,0.5-0.5
	s0.5,0.2,0.5,0.5V13.5z M11.5,13.5c0,0.3-0.2,0.5-0.5,0.5s-0.5-0.2-0.5-0.5V6.1c0-0.3,0.2-0.5,0.5-0.5s0.5,0.2,0.5,0.5V13.5z"/>
</svg>
