<?xml version="1.0" encoding="UTF-8" standalone="no"?>
<!DOCTYPE svg PUBLIC "-//W3C//DTD SVG 1.1//EN" "http://www.w3.org/Graphics/SVG/1.1/DTD/svg11.dtd">
<svg width="100%" height="100%" viewBox="0 0 17 20" version="1.1" xmlns="http://www.w3.org/2000/svg" xmlns:xlink="http://www.w3.org/1999/xlink" xml:space="preserve" xmlns:serif="http://www.serif.com/" style="fill-rule:evenodd;clip-rule:evenodd;stroke-linejoin:round;stroke-miterlimit:2;">
    <g id="icon-sall-content-items">
        <g>
            <g>
                <g>
                    <rect x="0.164" y="0.164" width="15.956" height="19.672" style="fill:rgb(4,193,52);fill-rule:nonzero;"/>
                </g>
                <g>
                    <path d="M16.285,20L0,20L0,0L16.284,0L16.285,4.959L16.285,20ZM0.328,19.672L15.956,19.672L15.956,0.328L0.328,0.328L0.328,19.672Z" style="fill:rgb(1,103,28);fill-rule:nonzero;"/>
                </g>
            </g>
            <g transform="matrix(1,0,0,1,0.069,-0.541)">
                <path d="M13.579,10.835L11.539,9.278L11.539,6.703L10.082,6.703L10.082,8.165L7.955,6.541L2.331,10.835L3.216,11.993L3.821,11.531L3.821,16.85L12.088,16.85L12.088,11.531L12.693,11.993L13.579,10.835ZM11.279,16.041L9.412,16.041L9.412,12.964L6.497,12.964L6.497,16.041L4.631,16.041L4.631,11.015L7.954,8.478L11.278,11.015L11.278,16.041L11.279,16.041Z" style="fill:rgb(155,230,174);fill-rule:nonzero;"/>
            </g>
            <g>
                <path d="M0.273,19.8L0.273,0.492L15.792,0.492L15.792,0.71L0.492,0.71L0.492,19.581L15.592,19.563L15.568,0.711L15.786,0.71L15.811,19.781L0.273,19.8Z" style="fill:rgb(79,211,88);fill-rule:nonzero;"/>
            </g>
        </g>
    </g>
</svg>
