<?xml version="1.0" encoding="iso-8859-1"?>
<!-- Generator: Adobe Illustrator 21.0.2, SVG Export Plug-In . SVG Version: 6.00 Build 0)  -->
<svg version="1.1" xmlns="http://www.w3.org/2000/svg" xmlns:xlink="http://www.w3.org/1999/xlink" x="0px" y="0px"
	 viewBox="0 0 17 20" style="enable-background:new 0 0 17 20;" xml:space="preserve">
<g id="icon-archive">
	<g id="BzYg0J.tif">
		<g>
			<path style="fill:#333333;" d="M0,6.277c0-1.443,0-2.886,0-4.329C0.013,1.933,0.036,1.92,0.039,1.904
				c0.103-0.752,0.518-1.291,1.179-1.636C1.46,0.141,1.741,0.087,2.005,0c4.33,0,8.66,0,12.99,0
				c0.015,0.013,0.028,0.036,0.044,0.038c0.798,0.099,1.368,0.521,1.722,1.227C16.868,1.479,16.922,1.72,17,1.948
				c0,1.443,0,2.886,0,4.329C11.333,6.277,5.667,6.277,0,6.277z M6.713,2.739c-0.307,0-0.58,0-0.872,0
				c0,0.132-0.004,0.253,0.001,0.373c0.016,0.387,0.123,0.732,0.419,1.012c0.295,0.279,0.666,0.32,1.032,0.329
				c0.805,0.021,1.611,0.025,2.415-0.003c0.288-0.01,0.604-0.076,0.852-0.215c0.578-0.325,0.63-0.895,0.591-1.494
				c-0.291,0-0.569,0-0.864,0c0,0.09,0,0.168,0,0.246c0,0.086,0.003,0.173-0.001,0.259c-0.008,0.215-0.134,0.346-0.351,0.346
				c-0.958,0.003-1.915,0.003-2.873,0C6.846,3.591,6.719,3.459,6.714,3.244C6.71,3.08,6.713,2.915,6.713,2.739z"/>
			<path style="fill:#333333;" d="M17,13.766c0,1.443,0,2.886,0,4.329c-0.013,0.015-0.036,0.028-0.039,0.044
				c-0.116,0.714-0.507,1.24-1.142,1.575c-0.243,0.128-0.519,0.193-0.78,0.286c-4.359,0-8.718,0-13.077,0
				c-0.015-0.013-0.029-0.037-0.045-0.038C1.25,19.894,0.751,19.54,0.393,19.01C0.21,18.74,0.128,18.402,0,18.095
				c0-1.443,0-2.886,0-4.329C5.667,13.766,11.333,13.766,17,13.766z M5.841,16.026c0,0.139-0.003,0.254,0.001,0.369
				c0.031,0.9,0.555,1.327,1.346,1.348c0.877,0.023,1.756,0.015,2.633,0c0.328-0.005,0.646-0.085,0.904-0.319
				c0.421-0.381,0.466-0.869,0.424-1.394c-0.29,0-0.568,0-0.862,0c0,0.177,0.003,0.342-0.001,0.506
				c-0.005,0.205-0.13,0.344-0.33,0.345c-0.972,0.004-1.944,0.004-2.916,0c-0.202-0.001-0.326-0.142-0.327-0.341
				c-0.001-0.17,0-0.34,0-0.513C6.411,16.026,6.138,16.026,5.841,16.026z"/>
			<path style="fill:#333333;" d="M0,12.9C0,10.967,0,9.033,0,7.1c5.667,0,11.333,0,17,0c0,1.934,0,3.867,0,5.801
				C11.333,12.9,5.667,12.9,0,12.9z M5.823,9.356C5.845,9.607,5.86,9.84,5.885,10.071c0.066,0.617,0.627,1.005,1.187,1.009
				c0.951,0.007,1.903,0.002,2.854,0.002c0.065,0,0.133,0.008,0.195-0.007c0.858-0.216,1.144-0.899,1.003-1.711
				c-0.274,0-0.547,0-0.838,0c0,0.162-0.007,0.313,0.001,0.462c0.019,0.325-0.109,0.417-0.405,0.425
				c-0.922,0.025-1.845,0.025-2.767,0c-0.296-0.008-0.424-0.1-0.406-0.424c0.009-0.155,0.002-0.311,0.002-0.47
				C6.413,9.356,6.145,9.356,5.823,9.356z"/>
		</g>
	</g>
</g>
<g id="Layer_1">
</g>
</svg>
