<?xml version="1.0" encoding="UTF-8" standalone="no"?>
<!DOCTYPE svg PUBLIC "-//W3C//DTD SVG 1.1//EN" "http://www.w3.org/Graphics/SVG/1.1/DTD/svg11.dtd">
<svg width="100%" height="100%" viewBox="0 0 17 20" version="1.1" xmlns="http://www.w3.org/2000/svg" xmlns:xlink="http://www.w3.org/1999/xlink" xml:space="preserve" xmlns:serif="http://www.serif.com/" style="fill-rule:evenodd;clip-rule:evenodd;stroke-linejoin:round;stroke-miterlimit:2;">
    <g id="content_x5F_hidden">
        <g>
            <g>
                <g>
                    <rect x="0.164" y="0.159" width="15.956" height="19.672" style="fill:rgb(181,181,181);"/>
                </g>
                <g>
                    <path d="M16.285,19.995L0,19.995L0,-0.005L11.27,-0.005L16.284,0L16.285,4.954L16.285,19.995ZM0.328,19.667L15.956,19.667L15.956,0.323L0.328,0.323L0.328,19.667Z" style="fill:rgb(108,108,108);fill-rule:nonzero;"/>
                </g>
            </g>
            <g transform="matrix(1,0,0,1,0.00434495,-0.231647)">
                <path d="M0.273,19.795L0.273,0.487L15.792,0.487L15.792,0.705L0.492,0.705L0.492,19.576L15.592,19.558L15.568,0.501L15.786,0.5L15.811,19.776L0.273,19.795Z" style="fill:rgb(201,201,201);fill-rule:nonzero;"/>
            </g>
        </g>
        <g transform="matrix(1.99422,-0.209601,0.209601,1.99422,-10.7916,-3.71028)">
            <g>
                <g>
                    <g>
                        <g>
                            <path d="M11.064,10.958L10.105,11.201C10.002,11.033 9.878,10.88 9.74,10.743L10.213,9.945C10.325,9.759 10.264,9.516 10.076,9.405L9.738,9.204C9.55,9.094 9.308,9.155 9.197,9.342L8.715,10.151C8.515,10.095 8.307,10.067 8.092,10.067L7.879,9.227C7.825,9.018 7.611,8.889 7.4,8.943L7.018,9.039C6.808,9.093 6.68,9.308 6.733,9.519L6.947,10.358C6.742,10.47 6.558,10.609 6.398,10.772L5.72,10.37C5.534,10.259 5.291,10.32 5.18,10.507L4.977,10.845C4.866,11.031 4.93,11.274 5.116,11.386L5.806,11.796C5.772,11.918 5.748,12.043 5.733,12.17C5.731,12.187 10.435,12.671 10.436,12.664C10.447,12.557 10.45,12.449 10.446,12.34L11.356,12.109C11.566,12.056 11.692,11.84 11.641,11.629L11.543,11.247C11.489,11.034 11.276,10.905 11.064,10.958ZM9.065,12.52C9.062,12.554 8.341,12.444 8.197,12.429C7.677,12.374 7.111,12.308 7.104,12.314C7.15,11.92 7.434,11.578 7.841,11.474C8.368,11.341 8.904,11.657 9.038,12.184C9.067,12.297 9.075,12.41 9.065,12.52" style="fill:rgb(211,211,211);fill-rule:nonzero;"/>
                        </g>
                    </g>
                </g>
            </g>
        </g>
        <g transform="matrix(0.692308,0,0,0.692308,2.62625,3)">
            <g>
                <g>
                    <path d="M0,6.833C0.079,6.696 0.133,6.537 0.24,6.425C1.78,4.814 3.519,3.474 5.699,2.762C7.39,2.209 9.07,2.255 10.709,2.953C11.018,3.084 11.192,3.031 11.417,2.806C12.367,1.856 13.338,0.927 14.291,0C14.608,0.313 14.896,0.598 15.155,0.853C11.009,4.87 6.829,8.92 2.636,12.982C2.392,12.736 2.107,12.448 1.793,12.13C2.469,11.497 3.16,10.85 3.857,10.197C3.16,9.708 2.517,9.294 1.919,8.826C1.394,8.415 0.908,7.954 0.426,7.496C0.253,7.332 0.14,7.109 0,6.913L0,6.833ZM5.46,8.601C5.897,8.167 6.338,7.746 6.753,7.303C6.869,7.179 6.949,6.992 6.971,6.824C7.046,6.238 7.412,5.885 8.026,5.843C8.13,5.836 8.265,5.833 8.33,5.773C8.833,5.301 9.323,4.816 9.819,4.333C8.702,3.467 6.909,3.617 5.821,4.643C4.715,5.687 4.539,7.421 5.46,8.601Z" style="fill:rgb(51,51,51);fill-rule:nonzero;"/>
                    <path d="M6.297,11.026C6.648,10.688 6.993,10.344 7.357,10.019C7.431,9.953 7.579,9.932 7.689,9.94C9.696,10.087 11.279,8.596 11.201,6.646C11.194,6.463 11.282,6.229 11.411,6.096C11.996,5.492 12.611,4.915 13.291,4.254C14.144,4.999 14.992,5.719 15.813,6.468C16.082,6.714 16.045,7.05 15.797,7.301C13.791,9.331 11.557,10.998 8.541,11.278C7.814,11.346 7.068,11.23 6.331,11.199C6.319,11.142 6.308,11.084 6.297,11.026Z" style="fill:rgb(51,51,51);fill-rule:nonzero;"/>
                    <path d="M6.297,6.905C6.309,5.981 7.12,5.222 8.068,5.247C9.006,5.271 9.773,6.04 9.76,6.943C9.747,7.849 8.962,8.601 8.029,8.601C7.079,8.602 6.285,7.824 6.297,6.905Z" style="fill:rgb(51,51,51);fill-rule:nonzero;"/>
                    <path d="M14.295,0.018L1.796,12.148L2.64,13L15.158,0.871L14.295,0.018Z" style="fill:rgb(255,0,0);fill-rule:nonzero;"/>
                </g>
            </g>
        </g>
    </g>
</svg>
