<?xml version="1.0" encoding="iso-8859-1"?>
<!-- Generator: Adobe Illustrator 21.0.2, SVG Export Plug-In . SVG Version: 6.00 Build 0)  -->
<svg version="1.1" id="Layer_1" xmlns="http://www.w3.org/2000/svg" xmlns:xlink="http://www.w3.org/1999/xlink" x="0px" y="0px"
	 viewBox="0 0 16 13" style="enable-background:new 0 0 16 13;" xml:space="preserve">
<g>
	<path style="fill:#333333;" d="M0,6.833c0.079-0.137,0.133-0.296,0.24-0.408c1.54-1.611,3.279-2.951,5.459-3.663
		C7.39,2.209,9.07,2.255,10.709,2.953c0.309,0.131,0.483,0.078,0.708-0.147c0.95-0.95,1.921-1.879,2.874-2.806
		c0.317,0.313,0.605,0.598,0.864,0.853C11.009,4.87,6.829,8.92,2.636,12.982c-0.244-0.246-0.529-0.534-0.843-0.852
		c0.676-0.633,1.367-1.28,2.064-1.933C3.16,9.708,2.517,9.294,1.919,8.826C1.394,8.415,0.908,7.954,0.426,7.496
		C0.253,7.332,0.14,7.109,0,6.913C0,6.887,0,6.86,0,6.833z M5.46,8.601c0.437-0.434,0.878-0.855,1.293-1.298
		c0.116-0.124,0.196-0.311,0.218-0.479c0.075-0.586,0.441-0.939,1.055-0.981c0.104-0.007,0.239-0.01,0.304-0.07
		c0.503-0.472,0.993-0.957,1.489-1.44c-1.117-0.866-2.91-0.716-3.998,0.31C4.715,5.687,4.539,7.421,5.46,8.601z"/>
	<path style="fill:#333333;" d="M6.297,11.026c0.351-0.338,0.696-0.682,1.06-1.007C7.431,9.953,7.579,9.932,7.689,9.94
		c2.007,0.147,3.59-1.344,3.512-3.294c-0.007-0.183,0.081-0.417,0.21-0.55c0.585-0.604,1.2-1.181,1.88-1.842
		c0.853,0.745,1.701,1.465,2.522,2.214c0.269,0.246,0.232,0.582-0.016,0.833c-2.006,2.03-4.24,3.697-7.256,3.977
		c-0.727,0.068-1.473-0.048-2.21-0.079C6.319,11.142,6.308,11.084,6.297,11.026z"/>
	<path style="fill:#333333;" d="M6.297,6.905C6.309,5.981,7.12,5.222,8.068,5.247C9.006,5.271,9.773,6.04,9.76,6.943
		C9.747,7.849,8.962,8.601,8.029,8.601C7.079,8.602,6.285,7.824,6.297,6.905z"/>
	<polygon style="fill:#FF0000;" points="14.295,0.018 1.796,12.148 2.64,13 15.158,0.871 	"/>
</g>
</svg>
