<?xml version="1.0" encoding="UTF-8" standalone="no"?>
<!DOCTYPE svg PUBLIC "-//W3C//DTD SVG 1.1//EN" "http://www.w3.org/Graphics/SVG/1.1/DTD/svg11.dtd">
<svg width="17px" height="20px" version="1.1" xmlns="http://www.w3.org/2000/svg" xmlns:xlink="http://www.w3.org/1999/xlink" xml:space="preserve" xmlns:serif="http://www.serif.com/" style="fill-rule:evenodd;clip-rule:evenodd;stroke-linejoin:round;stroke-miterlimit:2;">
    <g id="icon-content-types">
        <g>
            <g>
                <g>
                    <g>
                        <path d="M11.064,10.958L10.105,11.201C10.002,11.033 9.878,10.88 9.74,10.743L10.213,9.945C10.325,9.759 10.264,9.516 10.076,9.405L9.738,9.204C9.55,9.094 9.308,9.155 9.197,9.342L8.715,10.151C8.515,10.095 8.307,10.067 8.092,10.067L7.879,9.227C7.825,9.018 7.611,8.889 7.4,8.943L7.018,9.039C6.808,9.093 6.68,9.308 6.733,9.519L6.947,10.358C6.742,10.47 6.558,10.609 6.398,10.772L5.72,10.37C5.534,10.259 5.291,10.32 5.18,10.507L4.977,10.845C4.866,11.031 4.93,11.274 5.116,11.386L5.806,11.796C5.741,12.029 5.711,12.272 5.72,12.521L5.002,12.703C4.791,12.756 4.662,12.971 4.716,13.184L4.813,13.565C4.866,13.775 5.081,13.903 5.293,13.849L6.061,13.654C6.189,13.867 6.348,14.053 6.531,14.211L6.143,14.863C6.033,15.051 6.094,15.293 6.28,15.405L6.619,15.606C6.807,15.716 7.05,15.655 7.16,15.467L7.593,14.741C7.812,14.786 8.042,14.803 8.275,14.784L8.478,15.583C8.531,15.793 8.746,15.921 8.957,15.868L9.34,15.771C9.55,15.718 9.678,15.503 9.625,15.292L9.397,14.395C9.572,14.277 9.731,14.142 9.867,13.981L10.638,14.442C10.826,14.554 11.067,14.493 11.179,14.304L11.38,13.966C11.492,13.78 11.431,13.538 11.241,13.426L10.395,12.924C10.436,12.734 10.454,12.539 10.446,12.34L11.356,12.109C11.566,12.056 11.692,11.84 11.641,11.629L11.543,11.247C11.489,11.034 11.276,10.905 11.064,10.958ZM8.327,13.384C7.799,13.518 7.263,13.2 7.128,12.67C6.994,12.143 7.314,11.608 7.841,11.474C8.368,11.341 8.904,11.657 9.038,12.184C9.173,12.714 8.854,13.249 8.327,13.384Z" style="fill:white;fill-rule:nonzero;"/>
                    </g>
                </g>
            </g>
            <g id="XMLID_36_">
                <path d="M15,17.5L2.5,17.5L2.5,2.5L9.482,2.5L10,3.018L11.719,4.844L13.232,6.25L13.75,6.768L13.75,20L16.25,20L16.25,5.732L10.518,0L0,0L0,20L15,20L13.75,18.75L15,17.5Z" style="fill:white;fill-rule:nonzero;"/>
            </g>
        </g>
    </g>
</svg>
