<svg height='100px' width='100px'  fill="#333333" xmlns="http://www.w3.org/2000/svg" xmlns:xlink="http://www.w3.org/1999/xlink" version="1.1" x="0px" y="0px" viewBox="0 0 100 100" style="enable-background:new 0 0 100 100;" xml:space="preserve"><g><path d="M59,5h12c2.2,0,4,1.8,4,4v22c0,2.2-1.8,4-4,4H59c-2.2,0-4-1.8-4-4V9C55,6.8,56.8,5,59,5z"></path><g><rect x="5" y="15" width="48" height="10"></rect><rect x="77" y="15" width="18" height="10"></rect></g><path d="M41,65H29c-2.2,0-4-1.8-4-4V39c0-2.2,1.8-4,4-4h12c2.2,0,4,1.8,4,4v22C45,63.2,43.2,65,41,65z"></path><g><rect x="47" y="45" width="48" height="10"></rect><rect x="5" y="45" width="18" height="10"></rect></g><path d="M59,65h12c2.2,0,4,1.8,4,4v22c0,2.2-1.8,4-4,4H59c-2.2,0-4-1.8-4-4V69C55,66.8,56.8,65,59,65z"></path><g><rect x="5" y="75" width="48" height="10"></rect><rect x="77" y="75" width="18" height="10"></rect></g></g></svg>