<?xml version="1.0" encoding="UTF-8" standalone="no"?>
<!DOCTYPE svg PUBLIC "-//W3C//DTD SVG 1.1//EN" "http://www.w3.org/Graphics/SVG/1.1/DTD/svg11.dtd">
<svg width="20px" height="15px" version="1.1" xmlns="http://www.w3.org/2000/svg" xmlns:xlink="http://www.w3.org/1999/xlink" xml:space="preserve" xmlns:serif="http://www.serif.com/" style="fill-rule:evenodd;clip-rule:evenodd;stroke-linejoin:round;stroke-miterlimit:2;">
    <g id="dWvMQH.tif_1_">
        <g>
            <path d="M19.14,15L0.848,15C0.891,14.944 0.93,14.884 0.977,14.832C3.003,12.564 5.03,10.296 7.057,8.029C7.225,7.841 7.393,7.654 7.57,7.457C8.387,8.171 9.189,8.872 9.995,9.576C10.811,8.863 11.612,8.162 12.417,7.459C12.479,7.526 12.524,7.573 12.567,7.621C14.39,9.66 16.213,11.699 18.035,13.74C18.406,14.157 18.772,14.58 19.14,15Z" style="fill:white;fill-rule:nonzero;"/>
            <path d="M20,14.023C19.961,13.992 19.917,13.966 19.884,13.93C17.74,11.534 15.598,9.136 13.455,6.739C13.429,6.71 13.407,6.679 13.368,6.63C13.447,6.56 13.521,6.491 13.598,6.424C15.674,4.607 17.751,2.789 19.828,0.973C19.881,0.926 19.943,0.891 20,0.851L20,14.023Z" style="fill:white;fill-rule:nonzero;"/>
            <path d="M19.029,0.009C16.007,2.654 13.006,5.28 9.994,7.915C6.983,5.281 3.985,2.657 0.959,0.009L19.029,0.009Z" style="fill:white;fill-rule:nonzero;"/>
            <path d="M6.627,6.631C4.413,9.109 2.22,11.563 0,14.048L0,0.832C2.218,2.773 4.413,4.694 6.627,6.631Z" style="fill:white;fill-rule:nonzero;"/>
        </g>
    </g>
</svg>
