<?xml version="1.0" encoding="UTF-8" standalone="no"?>
<!DOCTYPE svg PUBLIC "-//W3C//DTD SVG 1.1//EN" "http://www.w3.org/Graphics/SVG/1.1/DTD/svg11.dtd">
<svg width="98px" height="98px" version="1.1" xmlns="http://www.w3.org/2000/svg" xmlns:xlink="http://www.w3.org/1999/xlink" xml:space="preserve" xmlns:serif="http://www.serif.com/" style="fill-rule:evenodd;clip-rule:evenodd;stroke-linejoin:round;stroke-miterlimit:2;">
    <g transform="matrix(1,0,0,12.3333,0,-43.5)">
        <path d="M91,4.5L7,4.5L7,10.5L91,10.5L91,4.5ZM85,4.986L85,10.014L13,10.014L13,4.986L85,4.986Z" style="fill:white;"/>
    </g>
    <g transform="matrix(1.5,0,0,1.5,21,51)">
        <path d="M15.1,4.1L0.9,4.1C0.4,4.1 0,4.5 0,5L0,14.1C0,14.6 0.4,15 0.9,15L15.1,15C15.6,15 16,14.6 16,14.1L16,5C16,4.5 15.6,4.1 15.1,4.1Z" style="fill:white;fill-rule:nonzero;"/>
        <path d="M6.1,3.5L6.1,1.5C6.1,1.2 5.9,1 5.6,1L3,1C2.7,1 2.4,1.2 2.4,1.5L2.4,3.4L6.1,3.4L6.1,3.5Z" style="fill:white;fill-rule:nonzero;"/>
        <path d="M13.5,3.5L13.5,1.5C13.5,1.2 13.3,1 13,1L10.4,1C10,1 9.8,1.2 9.8,1.5L9.8,3.4L13.5,3.4L13.5,3.5Z" style="fill:white;fill-rule:nonzero;"/>
    </g>
    <g transform="matrix(1.5,0,0,1.5,53,51)">
        <path d="M15.1,4.1L0.9,4.1C0.4,4.1 0,4.5 0,5L0,14.1C0,14.6 0.4,15 0.9,15L15.1,15C15.6,15 16,14.6 16,14.1L16,5C16,4.5 15.6,4.1 15.1,4.1Z" style="fill:white;fill-rule:nonzero;"/>
        <path d="M6.1,3.5L6.1,1.5C6.1,1.2 5.9,1 5.6,1L3,1C2.7,1 2.4,1.2 2.4,1.5L2.4,3.4L6.1,3.4L6.1,3.5Z" style="fill:white;fill-rule:nonzero;"/>
        <path d="M13.5,3.5L13.5,1.5C13.5,1.2 13.3,1 13,1L10.4,1C10,1 9.8,1.2 9.8,1.5L9.8,3.4L13.5,3.4L13.5,3.5Z" style="fill:white;fill-rule:nonzero;"/>
    </g>
    <g transform="matrix(1.5,0,0,1.5,21,22.5)">
        <path d="M15.1,4.1L0.9,4.1C0.4,4.1 0,4.5 0,5L0,14.1C0,14.6 0.4,15 0.9,15L15.1,15C15.6,15 16,14.6 16,14.1L16,5C16,4.5 15.6,4.1 15.1,4.1Z" style="fill:white;fill-rule:nonzero;"/>
        <path d="M6.1,3.5L6.1,1.5C6.1,1.2 5.9,1 5.6,1L3,1C2.7,1 2.4,1.2 2.4,1.5L2.4,3.4L6.1,3.4L6.1,3.5Z" style="fill:white;fill-rule:nonzero;"/>
        <path d="M13.5,3.5L13.5,1.5C13.5,1.2 13.3,1 13,1L10.4,1C10,1 9.8,1.2 9.8,1.5L9.8,3.4L13.5,3.4L13.5,3.5Z" style="fill:white;fill-rule:nonzero;"/>
    </g>
    <g transform="matrix(1.5,0,0,1.5,53,22.5)">
        <path d="M15.1,4.1L0.9,4.1C0.4,4.1 0,4.5 0,5L0,14.1C0,14.6 0.4,15 0.9,15L15.1,15C15.6,15 16,14.6 16,14.1L16,5C16,4.5 15.6,4.1 15.1,4.1Z" style="fill:white;fill-rule:nonzero;"/>
        <path d="M6.1,3.5L6.1,1.5C6.1,1.2 5.9,1 5.6,1L3,1C2.7,1 2.4,1.2 2.4,1.5L2.4,3.4L6.1,3.4L6.1,3.5Z" style="fill:white;fill-rule:nonzero;"/>
        <path d="M13.5,3.5L13.5,1.5C13.5,1.2 13.3,1 13,1L10.4,1C10,1 9.8,1.2 9.8,1.5L9.8,3.4L13.5,3.4L13.5,3.5Z" style="fill:white;fill-rule:nonzero;"/>
    </g>
</svg>
