<?xml version="1.0" encoding="iso-8859-1"?>
<!-- Generator: Adobe Illustrator 21.0.2, SVG Export Plug-In . SVG Version: 6.00 Build 0)  -->
<svg version="1.1" xmlns="http://www.w3.org/2000/svg" xmlns:xlink="http://www.w3.org/1999/xlink" x="0px" y="0px"
	 viewBox="0 0 18 18" style="enable-background:new 0 0 18 18;" xml:space="preserve">
<g id="icon-modules-off">
	<path style="fill:#D1D1D1;" d="M15.847,3.483h-1.06V2.281c0-0.553-0.45-1.004-1.004-1.004h-2.536c-0.554,0-1.004,0.45-1.004,1.004
		v1.203h-2.56V2.281c0-0.553-0.45-1.004-1.004-1.004H4.143c-0.553,0-1.004,0.45-1.004,1.004v1.203H2.153
		C0.966,3.483,0,4.449,0,5.636v8.934c0,1.187,0.966,2.153,2.153,2.153h13.695c1.187,0,2.153-0.966,2.153-2.153V5.636
		C18,4.449,17.034,3.483,15.847,3.483z M11.199,2.281c0-0.027,0.022-0.048,0.049-0.048h2.536c0.027,0,0.049,0.022,0.049,0.048v1.203
		h-2.633V2.281z M4.095,2.281c0-0.027,0.022-0.048,0.048-0.048H6.68c0.027,0,0.048,0.022,0.048,0.048v1.203H4.095V2.281z
		 M16.726,14.57c0,0.483-0.395,0.879-0.879,0.879H2.153c-0.483,0-0.879-0.395-0.879-0.879V5.636c0-0.483,0.395-0.879,0.879-0.879
		h13.695c0.483,0,0.879,0.395,0.879,0.879V14.57z"/>
</g>
<g id="Layer_1">
</g>
</svg>
