<?xml version="1.0" encoding="iso-8859-1"?>
<!-- Generator: Adobe Illustrator 21.0.2, SVG Export Plug-In . SVG Version: 6.00 Build 0)  -->
<svg version="1.1" xmlns="http://www.w3.org/2000/svg" xmlns:xlink="http://www.w3.org/1999/xlink" x="0px" y="0px"
	 viewBox="0 0 16.284 20" style="enable-background:new 0 0 16.284 20;" xml:space="preserve">
<g id="content_x5F_draft_x5F_published">
	<g>
		<g>
			<polygon style="fill:#04C134;" points="13.458,17.351 14.827,15.934 16.09,14.547 16.09,19.831 11.009,19.831 			"/>
			<path style="fill:#01671C;" d="M16.266,19.999h-5.665l2.729-2.763l1.368-1.416l1.568-1.722V19.999z M11.416,19.664h4.498v-4.667
				l-0.954,1.048l-1.374,1.422L11.416,19.664z"/>
		</g>
		<g>
			<g>
				<g>
					<polygon style="fill:#EB7833;" points="0.164,19.836 11.202,19.836 16.12,14.973 16.12,0.164 0.164,0.164 					"/>
				</g>
				<g>
					<path style="fill:#C13C0C;" d="M11.27,20H0V0h16.284v15.041L11.27,20z M0.328,19.672h10.807l4.822-4.768V0.328H0.328V19.672z"
						/>
				</g>
			</g>
			<g>
				<polygon style="fill:#EEC58B;" points="15.929,14.982 11.211,19.59 11.184,14.973 				"/>
				<path style="fill:#C13C0C;" d="M11.104,19.848l-0.029-4.985l5.123,0.01L11.104,19.848z M11.294,15.082l0.025,4.25l4.342-4.242
					L11.294,15.082z"/>
			</g>
			<g>
				<polygon style="fill:#C13C0C;" points="11.202,19.727 10.984,19.727 10.984,14.699 15.792,14.699 15.792,14.918 11.202,14.918 
									"/>
			</g>
			<g>
				<polygon style="fill:#F28C5A;" points="10.984,19.727 0.273,19.727 0.273,0.489 15.811,0.508 15.792,14.7 15.574,14.699 
					15.592,0.726 0.492,0.708 0.492,19.508 10.984,19.508 				"/>
			</g>
			<g>
				<g>
					<polyline style="fill-rule:evenodd;clip-rule:evenodd;fill:#C13C0C;" points="14.461,10.89 14.54,10.703 14.586,10.451 
						14.594,10.209 14.579,9.925 14.475,9.808 14.37,9.693 14.266,9.577 14.187,9.467 14.093,9.373 13.999,9.28 13.905,9.186 
						13.822,9.115 13.824,9.244 13.812,9.388 13.825,9.539 13.814,9.682 13.826,9.832 13.815,9.977 13.827,10.127 13.815,10.272 
						13.777,10.28 13.699,10.299 13.571,10.306 13.391,10.337 13.147,10.37 12.88,10.397 12.562,10.41 12.23,10.438 11.848,10.451 
						11.439,10.491 11.009,10.489 10.561,10.532 10.092,10.534 9.596,10.559 9.114,10.568 8.618,10.586 8.586,10.674 8.542,10.743 
						8.51,10.83 8.466,10.898 8.408,10.978 8.337,11.07 8.256,11.143 8.188,11.203 8.556,11.193 8.899,11.174 9.23,11.167 
						9.536,11.15 9.788,11.152 10.028,11.166 10.218,11.167 10.369,11.174 10.863,11.186 11.469,11.208 12.131,11.171 12.805,11.15 
						13.418,11.09 13.943,11.021 14.303,10.963 					"/>
				</g>
				<g>
					<polyline style="fill-rule:evenodd;clip-rule:evenodd;fill:#C13C0C;" points="8.466,10.898 8.51,10.83 8.542,10.743 
						8.586,10.674 8.618,10.586 8.059,10.602 7.504,10.584 6.945,10.592 6.415,10.573 5.895,10.57 5.39,10.552 4.909,10.538 
						4.454,10.528 4.051,10.503 3.673,10.482 3.333,10.457 3.057,10.435 2.829,10.426 2.653,10.404 2.554,10.377 2.516,10.379 
						2.494,10.032 2.459,9.67 2.437,9.325 2.425,8.996 2.403,8.652 2.38,8.308 2.368,7.98 2.345,7.637 2.321,7.32 2.297,6.979 
						2.285,6.652 2.262,6.312 2.251,5.986 2.227,5.646 2.205,5.307 2.181,4.969 2.459,4.991 2.839,4.997 3.294,5.009 3.811,5.041 
						4.407,5.051 5.038,5.079 5.709,5.097 6.418,5.102 6.975,5.124 7.545,5.131 8.115,5.138 8.686,5.145 9.241,5.167 9.787,5.171 
						10.332,5.174 10.862,5.193 11.357,5.192 11.813,5.203 12.258,5.196 12.663,5.201 13.018,5.202 13.334,5.217 13.588,5.207 
						13.803,5.21 13.815,5.687 13.826,6.164 13.823,6.657 13.834,7.135 13.831,7.63 13.829,8.124 13.825,8.62 13.822,9.115 
						13.905,9.186 13.999,9.28 14.093,9.373 14.187,9.467 14.266,9.577 14.37,9.693 14.475,9.808 14.579,9.925 14.559,9.714 
						14.553,9.488 14.534,9.241 14.539,9.038 14.549,8.459 14.545,7.73 14.521,6.961 14.496,6.194 14.467,5.465 14.427,4.887 
						14.41,4.476 14.412,4.31 14.13,4.325 13.839,4.319 13.574,4.315 13.282,4.31 13.005,4.288 12.727,4.267 12.448,4.28 
						12.17,4.258 11.893,4.238 11.616,4.217 11.324,4.212 11.047,4.193 10.755,4.188 10.475,4.201 10.184,4.197 9.892,4.193 
						9.487,4.197 9.069,4.185 8.676,4.174 8.27,4.178 7.864,4.183 7.471,4.172 7.066,4.176 6.659,4.18 6.343,4.176 6.024,4.2 
						5.707,4.194 5.387,4.218 5.082,4.228 4.763,4.25 4.458,4.259 4.139,4.281 3.82,4.302 3.502,4.323 3.196,4.332 2.864,4.364 
						2.557,4.397 2.238,4.416 1.931,4.448 1.611,4.491 1.589,4.908 1.583,5.312 1.589,5.705 1.581,6.11 1.613,6.507 1.618,6.9 
						1.65,7.299 1.693,7.712 1.71,8.123 1.741,8.524 1.784,8.941 1.814,9.344 1.856,9.763 1.885,10.194 1.902,10.608 1.93,11.039 
						1.955,11.047 2.031,11.044 2.117,11.083 2.187,11.156 2.237,11.171 2.337,11.176 2.526,11.194 2.766,11.202 3.069,11.214 
						3.435,11.23 3.814,11.235 4.257,11.242 4.725,11.253 5.206,11.251 5.688,11.245 6.195,11.243 6.716,11.226 7.21,11.228 
						7.718,11.215 8.188,11.203 8.256,11.143 8.337,11.07 8.408,10.978 					"/>
				</g>
			</g>
			<g>
				<g>
					<path style="fill:#4F2508;" d="M3.897,9.229H3.12c-0.067,0-0.144-0.006-0.144-0.095c0-0.043,0.028-0.07,0.067-0.083
						C3.15,9.018,3.147,8.999,3.147,8.886V7.282c0-0.046,0.006-0.129-0.052-0.147C3.034,7.113,2.976,7.104,2.976,7.028
						c0-0.08,0.077-0.089,0.138-0.089h0.784V9.229z M4.035,6.939c0.52-0.006,0.955,0.355,0.992,1.145
						c0.034,0.72-0.484,1.145-0.992,1.145V9.051c0.187-0.025,0.196-0.199,0.196-0.315V7.432c0-0.116-0.009-0.291-0.196-0.315V6.939z
						"/>
				</g>
				<g>
					<path style="fill:#4F2508;" d="M5.445,7.282c0-0.113,0.003-0.132-0.104-0.165c-0.04-0.012-0.067-0.04-0.067-0.083
						c0-0.089,0.101-0.095,0.113-0.095h0.808v1.947c0,0.113-0.003,0.132,0.104,0.165c0.04,0.012,0.067,0.04,0.067,0.083
						c0,0.089-0.101,0.095-0.113,0.095H5.387c-0.012,0-0.113-0.006-0.113-0.095c0-0.043,0.028-0.07,0.067-0.083
						c0.107-0.034,0.104-0.052,0.104-0.165V7.282z M6.333,6.939h0.015c0.199,0,0.407-0.006,0.591,0.083
						c0.205,0.101,0.309,0.269,0.312,0.502c0.006,0.352-0.226,0.505-0.539,0.579v0.006c0.272,0.04,0.533,0.119,0.539,0.444v0.269
						c0,0.028-0.009,0.089,0.031,0.089c0.049,0,0.058-0.089,0.131-0.089c0.04,0,0.089,0.046,0.089,0.089
						c0,0.089-0.101,0.202-0.168,0.254C7.23,9.25,7.12,9.275,6.989,9.275c-0.132,0-0.251-0.034-0.346-0.129
						C6.535,9.036,6.52,8.901,6.52,8.757V8.549c0-0.141-0.003-0.312-0.187-0.331V8.038C6.499,8.023,6.52,7.921,6.52,7.772v-0.37
						c0-0.153-0.034-0.227-0.187-0.282V6.939z"/>
				</g>
				<g>
					<path style="fill:#4F2508;" d="M8.276,7.713L7.988,8.76C7.939,8.947,7.982,8.999,8.086,9.045
						c0.049,0.022,0.092,0.04,0.092,0.101c0,0.086-0.098,0.083-0.159,0.083H7.667c-0.061,0-0.172-0.003-0.172-0.092
						c0-0.073,0.052-0.07,0.12-0.104C7.679,8.999,7.762,8.929,7.82,8.712l0.367-1.344h0.009L8.276,7.713z M8.604,8.635H8.157
						l0.043-0.178h0.374L8.264,7.104l0.04-0.165H8.98L9.44,8.874c0.018,0.086,0.021,0.144,0.107,0.181
						c0.043,0.018,0.076,0.04,0.076,0.095c0,0.083-0.11,0.08-0.168,0.08H8.693c-0.061,0-0.15-0.006-0.15-0.086
						c0-0.049,0.018-0.064,0.058-0.086C8.68,9.011,8.693,8.99,8.665,8.871L8.604,8.635z"/>
				</g>
				<g>
					<path style="fill:#4F2508;" d="M9.956,7.282c0-0.113,0.003-0.132-0.104-0.165c-0.04-0.012-0.067-0.04-0.067-0.083
						c0-0.089,0.101-0.095,0.113-0.095h0.808v1.947c0,0.113-0.003,0.132,0.104,0.165c0.04,0.012,0.067,0.04,0.067,0.083
						c0,0.089-0.101,0.095-0.113,0.095H9.898c-0.012,0-0.113-0.006-0.113-0.095c0-0.043,0.028-0.07,0.067-0.083
						c0.107-0.034,0.104-0.052,0.104-0.165V7.282z M10.844,6.939h0.683V7.56c0,0.015-0.003,0.073-0.095,0.073
						c-0.052,0-0.067-0.031-0.083-0.076c-0.08-0.248-0.236-0.398-0.505-0.441V6.939z M10.844,7.961
						c0.129-0.034,0.187-0.153,0.214-0.269c0.015-0.052,0.034-0.101,0.098-0.101c0.095,0,0.08,0.11,0.08,0.134v0.662
						c0,0.025,0.015,0.135-0.08,0.135c-0.064,0-0.083-0.049-0.098-0.101c-0.028-0.116-0.086-0.236-0.214-0.27V7.961z"/>
				</g>
				<g>
					<path style="fill:#4F2508;" d="M11.657,6.939h0.441v0.178c-0.159,0.113-0.202,0.315-0.23,0.478
						c-0.009,0.067-0.024,0.147-0.11,0.147c-0.092,0-0.101-0.076-0.101-0.089V6.939z M12.236,6.939h0.75v1.947
						c0,0.113-0.003,0.132,0.104,0.165c0.04,0.012,0.067,0.04,0.067,0.083c0,0.089-0.101,0.095-0.113,0.095h-0.866
						c-0.012,0-0.113-0.006-0.113-0.095c0-0.043,0.028-0.07,0.067-0.083c0.107-0.034,0.104-0.052,0.104-0.165V6.939z M13.565,7.652
						c0,0.012-0.009,0.089-0.101,0.089c-0.086,0-0.101-0.079-0.11-0.147c-0.028-0.162-0.07-0.364-0.23-0.478V6.939h0.441V7.652z"/>
				</g>
			</g>
		</g>
	</g>
</g>
<g id="Layer_1">
</g>
</svg>
