<?xml version="1.0" encoding="UTF-8" standalone="no"?>
<!DOCTYPE svg PUBLIC "-//W3C//DTD SVG 1.1//EN" "http://www.w3.org/Graphics/SVG/1.1/DTD/svg11.dtd">
<svg width="100%" height="100%" viewBox="0 0 16 16" version="1.1" xmlns="http://www.w3.org/2000/svg" xmlns:xlink="http://www.w3.org/1999/xlink" xml:space="preserve" xmlns:serif="http://www.serif.com/" style="fill-rule:evenodd;clip-rule:evenodd;stroke-linejoin:round;stroke-miterlimit:2;">
    <path d="M14,3L11.5,3L11.5,2C11.5,0 10.5,0 9.5,0L6.5,0C4.5,0 4.5,1 4.5,2L4.5,3L2,3C1.7,3 1.5,3.2 1.5,3.5L1.5,4.5C1.5,4.8 1.7,5 2,5C2.3,5 2.5,5.2 2.5,5.5L2.5,15.5C2.5,15.8 2.7,16 3,16L13,16C13.3,16 13.5,15.8 13.5,15.5L13.5,5.5C13.5,5.2 13.7,5 14,5C14.3,5 14.5,4.8 14.5,4.5L14.5,3.5C14.5,3.2 14.3,3 14,3ZM6.5,2L9.5,2L9.5,3L6.5,3L6.5,2ZM5.5,13.5C5.5,13.8 5.3,14 5,14C4.7,14 4.5,13.8 4.5,13.5L4.5,6.1C4.5,5.8 4.7,5.6 5,5.6C5.3,5.6 5.5,5.8 5.5,6.1L5.5,13.5ZM8.5,13.5C8.5,13.8 8.3,14 8,14C7.7,14 7.5,13.8 7.5,13.5L7.5,6.1C7.5,5.8 7.7,5.6 8,5.6C8.3,5.6 8.5,5.8 8.5,6.1L8.5,13.5ZM11.5,13.5C11.5,13.8 11.3,14 11,14C10.7,14 10.5,13.8 10.5,13.5L10.5,6.1C10.5,5.8 10.7,5.6 11,5.6C11.3,5.6 11.5,5.8 11.5,6.1L11.5,13.5Z" style="fill:white;fill-rule:nonzero;"/>
</svg>
