<?xml version="1.0" encoding="iso-8859-1"?>
<!-- Generator: Adobe Illustrator 21.0.2, SVG Export Plug-In . SVG Version: 6.00 Build 0)  -->
<svg version="1.1" xmlns="http://www.w3.org/2000/svg" xmlns:xlink="http://www.w3.org/1999/xlink" x="0px" y="0px"
	 viewBox="0 0 15 20" style="enable-background:new 0 0 15 20;" xml:space="preserve">
<g id="icon-rest-site">
	<g>
		<path style="fill:#333333;" d="M11.25,6.012V3.75H8.607c-0.053-0.374-0.102-0.842,0.01-0.973C8.705,2.674,9.096,2.5,10,2.5V0
			C8.455,0,7.381,0.377,6.718,1.152C6.026,1.96,6.001,2.941,6.088,3.75H3.75v2.262C1.511,7.308,0,9.725,0,12.5
			C0,16.643,3.358,20,7.5,20s7.5-3.357,7.5-7.5C15,9.725,13.489,7.308,11.25,6.012z M11.915,11.263
			c-0.097,0.054-0.202,0.08-0.305,0.08c-0.219,0-0.432-0.115-0.546-0.32c-0.287-0.511-0.669-0.953-1.135-1.315
			C9.462,9.347,8.937,9.088,8.372,8.937c-0.548-0.145-1.11-0.181-1.673-0.112c-0.564,0.073-1.1,0.25-1.594,0.527
			c-0.51,0.285-0.951,0.668-1.313,1.135c-0.211,0.275-0.603,0.323-0.877,0.112c-0.273-0.211-0.323-0.604-0.112-0.875
			c0.465-0.603,1.034-1.094,1.69-1.462c0.634-0.356,1.323-0.584,2.048-0.676c0.722-0.093,1.446-0.044,2.151,0.142
			c0.729,0.194,1.401,0.527,2.001,0.992c0.6,0.463,1.091,1.033,1.461,1.693C12.323,10.714,12.216,11.093,11.915,11.263z"/>
	</g>
</g>
<g id="Layer_1">
</g>
</svg>
