<?xml version="1.0" encoding="iso-8859-1"?>
<!-- Generator: Adobe Illustrator 21.0.2, SVG Export Plug-In . SVG Version: 6.00 Build 0)  -->
<svg version="1.1" id="Layer_1" xmlns="http://www.w3.org/2000/svg" xmlns:xlink="http://www.w3.org/1999/xlink" x="0px" y="0px"
	 viewBox="0 0 18 18" style="enable-background:new 0 0 18 18;" xml:space="preserve">
<g>
	<path style="fill:#03C611;" d="M17.421,9.579c0-3.433-2.051-6.374-4.993-7.689v3.085c1.409,1.048,2.331,2.713,2.335,4.605
		c-0.01,3.18-2.582,5.76-5.764,5.765c-3.183-0.005-5.758-2.584-5.764-5.765c0-1.892,0.927-3.556,2.335-4.605V1.886
		c-2.942,1.316-4.996,4.26-4.996,7.693C0.575,14.234,4.345,18,9,18c4.65,0,8.421-3.766,8.425-8.421H17.421z"/>
	<path style="fill:#03C611;" d="M10.719,11.031c0,0.238-0.195,0.433-0.433,0.433H7.713c-0.238,0-0.433-0.195-0.433-0.433V0.433
		C7.28,0.195,7.475,0,7.713,0h2.573c0.238,0,0.433,0.195,0.433,0.433V11.031z"/>
</g>
</svg>
