<?xml version="1.0" encoding="UTF-8" standalone="no"?>
<!DOCTYPE svg PUBLIC "-//W3C//DTD SVG 1.1//EN" "http://www.w3.org/Graphics/SVG/1.1/DTD/svg11.dtd">
<svg width="100%" height="100%" viewBox="0 0 17 20" version="1.1" xmlns="http://www.w3.org/2000/svg" xmlns:xlink="http://www.w3.org/1999/xlink" xml:space="preserve" xmlns:serif="http://www.serif.com/" style="fill-rule:evenodd;clip-rule:evenodd;stroke-linejoin:round;stroke-miterlimit:2;">
    <g id="icon-sall-content-items">
        <g>
            <g>
                <g>
                    <rect x="0.164" y="0.164" width="15.956" height="19.672" style="fill:rgb(4,193,52);"/>
                </g>
                <g>
                    <path d="M16.285,20L0,20L0,0L16.284,0L16.285,4.959L16.285,20ZM0.328,19.672L15.956,19.672L15.956,0.328L0.328,0.328L0.328,19.672Z" style="fill:rgb(1,103,28);fill-rule:nonzero;"/>
                </g>
            </g>
            <g>
                <path d="M0.273,19.8L0.273,0.492L15.792,0.492L15.792,0.71L0.492,0.71L0.492,19.581L15.592,19.563L15.568,0.711L15.786,0.71L15.811,19.781L0.273,19.8Z" style="fill:rgb(79,211,88);fill-rule:nonzero;"/>
            </g>
        </g>
        <g transform="matrix(1,0,0,1,-0.3575,2)">
            <g transform="matrix(0.232627,0,0,1.22088,-449.499,-68.9737)">
                <path d="M1993.5,61.45C1993.5,61.202 1992.56,61 1991.4,61L1974.6,61C1973.44,61 1972.5,61.202 1972.5,61.45L1972.5,65.05C1972.5,65.298 1973.44,65.5 1974.6,65.5L1991.4,65.5C1992.56,65.5 1993.5,65.298 1993.5,65.05L1993.5,61.45Z" style="fill:rgb(155,230,174);"/>
            </g>
            <g transform="matrix(1.43682,0,0,1.44578,-3.31656,-6.35542)">
                <g transform="matrix(0.966904,0,0,1.6,0.139739,-7.27568)">
                    <path d="M12.5,12.75C12.5,12.612 12.313,12.5 12.084,12.5L4.638,12.5C4.409,12.5 4.222,12.612 4.222,12.75C4.222,12.888 4.409,13 4.638,13L12.084,13C12.313,13 12.5,12.888 12.5,12.75Z" style="fill:rgb(155,230,174);"/>
                </g>
                <g transform="matrix(1,0,0,1,-0.417589,-0.345834)">
                    <g transform="matrix(0.450126,0,0,1.6,2.74459,-8.45415)">
                        <path d="M12.5,12.75C12.5,12.612 12.099,12.5 11.606,12.5L5.116,12.5C4.623,12.5 4.222,12.612 4.222,12.75C4.222,12.888 4.623,13 5.116,13L11.606,13C12.099,13 12.5,12.888 12.5,12.75Z" style="fill:rgb(155,230,174);"/>
                    </g>
                    <g transform="matrix(0.450126,0,0,1.6,2.74459,-9.95415)">
                        <path d="M12.5,12.75C12.5,12.612 12.099,12.5 11.606,12.5L5.116,12.5C4.623,12.5 4.222,12.612 4.222,12.75C4.222,12.888 4.623,13 5.116,13L11.606,13C12.099,13 12.5,12.888 12.5,12.75Z" style="fill:rgb(155,230,174);"/>
                    </g>
                    <g transform="matrix(0.450126,0,0,1.6,2.74459,-11.4541)">
                        <path d="M12.5,12.75C12.5,12.612 12.099,12.5 11.606,12.5L5.116,12.5C4.623,12.5 4.222,12.612 4.222,12.75C4.222,12.888 4.623,13 5.116,13L11.606,13C12.099,13 12.5,12.888 12.5,12.75Z" style="fill:rgb(155,230,174);"/>
                    </g>
                </g>
                <g transform="matrix(0.966904,0,0,1.6,0.139739,-5.8)">
                    <path d="M12.5,12.75C12.5,12.612 12.313,12.5 12.084,12.5L4.638,12.5C4.409,12.5 4.222,12.612 4.222,12.75C4.222,12.888 4.409,13 4.638,13L12.084,13C12.313,13 12.5,12.888 12.5,12.75Z" style="fill:rgb(155,230,174);"/>
                </g>
            </g>
        </g>
    </g>
</svg>
