<?xml version="1.0" encoding="iso-8859-1"?>
<!-- Generator: Adobe Illustrator 21.0.2, SVG Export Plug-In . SVG Version: 6.00 Build 0)  -->
<svg version="1.1" id="Layer_1" xmlns="http://www.w3.org/2000/svg" xmlns:xlink="http://www.w3.org/1999/xlink" x="0px" y="0px"
	 viewBox="0 0 20 15" style="enable-background:new 0 0 20 15;" xml:space="preserve">
<g id="dWvMQH.tif_1_">
	<g>
		<path style="fill:#333333;" d="M19.14,15c-6.097,0-12.195,0-18.292,0c0.043-0.056,0.082-0.116,0.129-0.168
			c2.026-2.268,4.053-4.536,6.08-6.803c0.168-0.188,0.336-0.375,0.513-0.572c0.817,0.714,1.619,1.415,2.425,2.119
			c0.816-0.713,1.617-1.414,2.422-2.117c0.062,0.067,0.107,0.114,0.15,0.162c1.823,2.039,3.646,4.078,5.468,6.119
			C18.406,14.157,18.772,14.58,19.14,15z"/>
		<path style="fill:#333333;" d="M20,14.023c-0.039-0.031-0.083-0.057-0.116-0.093c-2.144-2.396-4.286-4.794-6.429-7.191
			c-0.026-0.029-0.048-0.06-0.087-0.109c0.079-0.07,0.153-0.139,0.23-0.206c2.076-1.817,4.153-3.635,6.23-5.451
			C19.881,0.926,19.943,0.891,20,0.851C20,5.242,20,9.632,20,14.023z"/>
		<path style="fill:#333333;" d="M19.029,0.009c-3.022,2.645-6.023,5.271-9.035,7.906C6.983,5.281,3.985,2.657,0.959,0.009
			C6.992,0.009,12.993,0.009,19.029,0.009z"/>
		<path style="fill:#333333;" d="M6.627,6.631C4.413,9.109,2.22,11.563,0,14.048C0,9.627,0,5.25,0,0.832
			C2.218,2.773,4.413,4.694,6.627,6.631z"/>
	</g>
</g>
</svg>
