<?xml version="1.0" encoding="UTF-8" standalone="no"?>
<!DOCTYPE svg PUBLIC "-//W3C//DTD SVG 1.1//EN" "http://www.w3.org/Graphics/SVG/1.1/DTD/svg11.dtd">
<svg width="32px" height="32px" version="1.1" xmlns="http://www.w3.org/2000/svg" xmlns:xlink="http://www.w3.org/1999/xlink" xml:space="preserve" xmlns:serif="http://www.serif.com/" style="fill-rule:evenodd;clip-rule:evenodd;stroke-linejoin:round;stroke-miterlimit:2;">
    <g transform="matrix(1,0,0,1,-2019,-40.5)">
        <g transform="matrix(1.04762,0,0,2.66667,-42.4286,-122.167)">
            <path d="M1993.5,61.679C1993.5,61.304 1992.73,61 1991.77,61L1974.23,61C1973.27,61 1972.5,61.304 1972.5,61.679L1972.5,64.821C1972.5,65.196 1973.27,65.5 1974.23,65.5L1991.77,65.5C1992.73,65.5 1993.5,65.196 1993.5,64.821L1993.5,61.679Z" style="fill:white;"/>
            <path d="M1993.5,61.679C1993.5,61.304 1992.73,61 1991.77,61L1974.23,61C1973.27,61 1972.5,61.304 1972.5,61.679L1972.5,64.821C1972.5,65.196 1973.27,65.5 1974.23,65.5L1991.77,65.5C1992.73,65.5 1993.5,65.196 1993.5,64.821L1993.5,61.679ZM1975.36,62.125L1975.36,64.375L1990.64,64.375L1990.64,62.125L1975.36,62.125Z" style="fill:white;"/>
        </g>
        <g transform="matrix(0.533333,0,0,0.598967,998.164,50.0103)">
            <path d="M1960,13.888C1960,11.742 1958.04,10 1955.63,10L1934.37,10C1931.96,10 1930,11.742 1930,13.888L1930,32.824C1930,34.97 1931.96,36.713 1934.37,36.713L1955.63,36.713C1958.04,36.713 1960,34.97 1960,32.824L1960,13.888ZM1935.62,15.009L1935.62,31.704L1954.38,31.704L1954.38,15.009L1935.62,15.009Z" style="fill:white;"/>
        </g>
        <g transform="matrix(1,0,0,1,48,-0.5)">
            <g transform="matrix(0.4,0,0,0.0666667,1217,51.3333)">
                <path d="M1890,13.75C1890,11.68 1889.72,10 1889.38,10L1885.62,10C1885.28,10 1885,11.68 1885,13.75L1885,21.25C1885,23.32 1885.28,25 1885.62,25L1889.38,25C1889.72,25 1890,23.32 1890,21.25L1890,13.75Z" style="fill:white;"/>
                <path d="M1889.9,11.787C1889.97,12.353 1890,13.028 1890,13.75L1890,21.25C1890,23.32 1889.72,25 1889.38,25L1888.31,25C1888.84,20.135 1889.39,15.521 1889.9,11.787Z" style="fill:white;"/>
            </g>
            <g transform="matrix(0.4,0,0,0.266667,1217,43.3333)">
                <path d="M1890,11.875C1890,10.84 1889.44,10 1888.75,10L1886.25,10C1885.56,10 1885,10.84 1885,11.875L1885,23.125C1885,24.16 1885.56,25 1886.25,25L1888.75,25C1889.44,25 1890,24.16 1890,23.125L1890,11.875Z" style="fill:white;"/>
                <path d="M1885,19.371L1885,23.125C1885,24.16 1885.56,25 1886.25,25L1888.75,25C1889.44,25 1890,24.16 1890,23.125L1890,19.371C1889.27,20.192 1888.42,20.78 1887.5,21.062C1886.58,20.78 1885.73,20.193 1885,19.371ZM1885,15.629C1885.73,14.808 1886.58,14.22 1887.5,13.938C1888.42,14.22 1889.27,14.807 1890,15.629L1890,11.875C1890,10.84 1889.44,10 1888.75,10L1886.25,10C1885.56,10 1885,10.84 1885,11.875L1885,15.629Z" style="fill:white;"/>
            </g>
            <g transform="matrix(0.4,0,0,0.2,1217,39)">
                <path d="M1890,12.5C1890,11.12 1889.44,10 1888.75,10L1886.25,10C1885.56,10 1885,11.12 1885,12.5L1885,22.5C1885,23.88 1885.56,25 1886.25,25L1888.75,25C1889.44,25 1890,23.88 1890,22.5L1890,12.5Z" style="fill:white;"/>
                <path d="M1885,22.491L1885,22.5C1885,23.88 1885.56,25 1886.25,25L1888.75,25C1889.44,25 1890,23.88 1890,22.5L1890,22.491C1889.27,23.589 1888.42,24.373 1887.5,24.749C1886.58,24.373 1885.73,23.589 1885,22.491ZM1885,12.509C1885.73,11.411 1886.58,10.627 1887.5,10.251C1888.42,10.627 1889.27,11.411 1890,12.509L1890,12.5C1890,11.12 1889.44,10 1888.75,10L1886.25,10C1885.56,10 1885,11.12 1885,12.5L1885,12.509Z" style="fill:white;"/>
            </g>
        </g>
        <g transform="matrix(1,0,0,1,78,-0.5)">
            <g transform="matrix(0.4,0,0,0.0666667,1217,51.3333)">
                <path d="M1890,13.75C1890,11.68 1889.72,10 1889.38,10L1885.62,10C1885.28,10 1885,11.68 1885,13.75L1885,21.25C1885,23.32 1885.28,25 1885.62,25L1889.38,25C1889.72,25 1890,23.32 1890,21.25L1890,13.75Z" style="fill:white;"/>
                <path d="M1889.9,11.787C1889.97,12.353 1890,13.028 1890,13.75L1890,21.25C1890,23.32 1889.72,25 1889.38,25L1888.31,25C1888.84,20.135 1889.39,15.521 1889.9,11.787Z" style="fill:white;"/>
            </g>
            <g transform="matrix(0.4,0,0,0.266667,1217,43.3333)">
                <path d="M1890,11.875C1890,10.84 1889.44,10 1888.75,10L1886.25,10C1885.56,10 1885,10.84 1885,11.875L1885,23.125C1885,24.16 1885.56,25 1886.25,25L1888.75,25C1889.44,25 1890,24.16 1890,23.125L1890,11.875Z" style="fill:white;"/>
                <path d="M1885,19.371L1885,23.125C1885,24.16 1885.56,25 1886.25,25L1888.75,25C1889.44,25 1890,24.16 1890,23.125L1890,19.371C1889.27,20.192 1888.42,20.78 1887.5,21.062C1886.58,20.78 1885.73,20.193 1885,19.371ZM1885,15.629C1885.73,14.808 1886.58,14.22 1887.5,13.938C1888.42,14.22 1889.27,14.807 1890,15.629L1890,11.875C1890,10.84 1889.44,10 1888.75,10L1886.25,10C1885.56,10 1885,10.84 1885,11.875L1885,15.629Z" style="fill:white;"/>
            </g>
            <g transform="matrix(0.4,0,0,0.2,1217,39)">
                <path d="M1890,12.5C1890,11.12 1889.44,10 1888.75,10L1886.25,10C1885.56,10 1885,11.12 1885,12.5L1885,22.5C1885,23.88 1885.56,25 1886.25,25L1888.75,25C1889.44,25 1890,23.88 1890,22.5L1890,12.5Z" style="fill:white;"/>
                <path d="M1885,22.491L1885,22.5C1885,23.88 1885.56,25 1886.25,25L1888.75,25C1889.44,25 1890,23.88 1890,22.5L1890,22.491C1889.27,23.589 1888.42,24.373 1887.5,24.749C1886.58,24.373 1885.73,23.589 1885,22.491ZM1885,12.509C1885.73,11.411 1886.58,10.627 1887.5,10.251C1888.42,10.627 1889.27,11.411 1890,12.509L1890,12.5C1890,11.12 1889.44,10 1888.75,10L1886.25,10C1885.56,10 1885,11.12 1885,12.5L1885,12.509Z" style="fill:white;"/>
            </g>
        </g>
    </g>
</svg>
