<?xml version="1.0" encoding="iso-8859-1"?>
<!-- Generator: Adobe Illustrator 21.0.2, SVG Export Plug-In . SVG Version: 6.00 Build 0)  -->
<svg version="1.1" xmlns="http://www.w3.org/2000/svg" xmlns:xlink="http://www.w3.org/1999/xlink" x="0px" y="0px"
	 viewBox="0 0 16 15.832" style="enable-background:new 0 0 16 15.832;" xml:space="preserve">
<g id="icon-repeat-block">
	<g>
		<path style="fill:#333333;" d="M13.68,9.194l-0.087,0.194c-0.551,2.543-2.887,4.283-5.553,4.283c-1.389,0-2.703-0.559-3.734-1.452
			L5.6,11.312L0.823,9.09l0.452,5.125l1.087-0.734c1.481,1.488,3.498,2.35,5.677,2.35c3.886,0,7.189-2.505,7.854-6.248L16,9.194
			H13.68z"/>
		<path style="fill:#333333;" d="M2.408,6.719c0.551-2.542,2.887-4.401,5.553-4.401c1.39,0,2.704,0.496,3.735,1.39L10.4,4.587
			l4.777,1.924l-0.453-4.996l-1.086,0.801C12.158,0.829,10.141,0,7.961,0C4.076,0,0.773,2.763,0.107,6.505L0,7.15h2.32L2.408,6.719z
			"/>
	</g>
</g>
<g id="Layer_1">
</g>
</svg>
