<?xml version="1.0" encoding="iso-8859-1"?>
<!-- Generator: Adobe Illustrator 21.0.2, SVG Export Plug-In . SVG Version: 6.00 Build 0)  -->
<svg version="1.1" id="Layer_1" xmlns="http://www.w3.org/2000/svg" xmlns:xlink="http://www.w3.org/1999/xlink" x="0px" y="0px"
	 viewBox="0 0 20 20" style="enable-background:new 0 0 20 20;" xml:space="preserve">
<g>
	<g>
		<path style="fill:#333333;" d="M12.207,0.041c-1.171,0-8.195,0-9.366,0S0.5,1.211,0.5,2.382s0,3.512,0,4.683
			s1.171,2.341,2.341,2.341c0.215,0-0.539,0,0,0v3.512l3.512-3.512c2.049,0,5.268,0,5.854,0c1.171,0,2.341-1.171,2.341-2.341
			s0-3.512,0-4.683S13.378,0.041,12.207,0.041z"/>
	</g>
	<g>
		<g>
			<path style="fill:#FF5600;" d="M16.89,6.433c-0.216,0-0.632,0-1.171,0v1.171c0,1.805-1.707,3.512-3.512,3.512H6.838l-1.655,1.655
				c0,0.251,0,0.489,0,0.686c0,1.171,1.171,2.341,2.341,2.341c0.585,0,3.805,0,5.854,0l3.512,3.512v-3.512
				c1.171,0,2.341-1.171,2.341-2.341s0-3.512,0-4.683S18.061,6.433,16.89,6.433z"/>
			<path style="fill:#FF5600;" d="M17.159,19.959l-3.892-3.892H7.524c-1.317,0-2.61-1.293-2.61-2.61V12.66l1.813-1.813h5.48
				c1.667,0,3.243-1.576,3.243-3.243v-1.44h1.44c1.317,0,2.61,1.293,2.61,2.61v4.683c0,1.227-1.122,2.434-2.341,2.593V19.959z
				 M5.452,12.882v0.575c0,1.027,1.046,2.073,2.073,2.073h5.965l3.132,3.132V15.53h0.269c1.027,0,2.073-1.046,2.073-2.073V8.774
				c0-1.027-1.046-2.073-2.073-2.073h-0.902v0.902c0,1.943-1.837,3.781-3.781,3.781H6.95L5.452,12.882z"/>
		</g>
		<g>
			<path style="fill:#FFFFFF;" d="M19.156,12.411c0-1.344,0-2.766,0-3.637c0-1.171-1.094-2.275-2.265-2.275
				c-0.216,0-0.691,0-1.229,0v1.105c0,1.805-1.649,3.464-3.454,3.464H6.839l-1.252,1.344H19.156z"/>
			<path style="fill:#FF5600;" d="M19.425,12.68H4.97l1.752-1.881h5.486c1.667,0,3.185-1.523,3.185-3.195V6.23h1.497
				c1.326,0,2.534,1.213,2.534,2.544V12.68z M6.205,12.143h12.682V8.774c0-1.031-0.97-2.006-1.996-2.006h-0.96v0.836
				c0,1.954-1.774,3.733-3.723,3.733H6.956L6.205,12.143z"/>
		</g>
	</g>
</g>
</svg>
