<?xml version="1.0" encoding="UTF-8" standalone="no"?>
<!DOCTYPE svg PUBLIC "-//W3C//DTD SVG 1.1//EN" "http://www.w3.org/Graphics/SVG/1.1/DTD/svg11.dtd">
<svg width="20px" height="20px" version="1.1" xmlns="http://www.w3.org/2000/svg" xmlns:xlink="http://www.w3.org/1999/xlink" xml:space="preserve" xmlns:serif="http://www.serif.com/" style="fill-rule:evenodd;clip-rule:evenodd;stroke-linejoin:round;stroke-miterlimit:2;">
    <g id="rXIHYJ.tif">
        <g>
            <path d="M11.693,10.044C11.891,10.199 12.087,10.356 12.289,10.507C13.078,11.097 13.896,11.652 14.65,12.281C15.361,12.874 15.895,13.614 16.097,14.534C16.152,14.783 16.173,15.042 16.175,15.297C16.183,16.569 16.178,17.84 16.179,19.112C16.179,19.381 16.181,19.381 16.463,19.382C16.562,19.382 16.662,19.38 16.761,19.384C16.947,19.39 17.051,19.49 17.065,19.667C17.079,19.849 16.97,19.951 16.798,19.99C16.737,20.004 16.671,19.997 16.607,19.997C12.225,19.997 7.844,19.998 3.462,19.998C3.377,19.998 3.289,20.007 3.207,19.991C3.036,19.957 2.924,19.857 2.934,19.674C2.944,19.496 3.048,19.394 3.232,19.385C3.352,19.379 3.474,19.374 3.594,19.385C3.771,19.402 3.826,19.336 3.824,19.162C3.816,18.314 3.821,17.467 3.82,16.619C3.82,16.216 3.833,15.812 3.817,15.41C3.778,14.386 4.186,13.534 4.85,12.777C5.509,12.026 6.321,11.454 7.142,10.892C7.479,10.662 7.813,10.426 8.137,10.178C8.332,10.029 8.332,9.974 8.133,9.83C7.563,9.417 6.981,9.02 6.41,8.608C5.682,8.082 4.999,7.509 4.484,6.768C4.043,6.131 3.809,5.436 3.816,4.659C3.828,3.422 3.821,2.185 3.82,0.948C3.82,0.588 3.861,0.62 3.472,0.616C3.394,0.615 3.315,0.618 3.238,0.614C3.054,0.605 2.946,0.51 2.934,0.33C2.923,0.149 3.029,0.047 3.201,0.008C3.255,-0.004 3.314,0.002 3.371,0.002C7.795,0.002 12.22,0.002 16.644,0.003C16.714,0.003 16.788,0.005 16.853,0.026C17.006,0.076 17.083,0.188 17.064,0.347C17.045,0.503 16.95,0.6 16.786,0.611C16.652,0.621 16.516,0.624 16.382,0.614C16.222,0.602 16.174,0.662 16.175,0.816C16.181,1.643 16.178,2.47 16.178,3.297C16.178,3.728 16.163,4.159 16.181,4.589C16.221,5.588 15.837,6.428 15.197,7.177C14.524,7.964 13.681,8.554 12.831,9.136C12.517,9.351 12.211,9.577 11.899,9.794C11.818,9.851 11.726,9.893 11.639,9.942C11.657,9.976 11.675,10.01 11.693,10.044ZM4.455,19.336L15.532,19.336C15.536,19.276 15.542,19.235 15.542,19.194C15.543,17.881 15.545,16.567 15.541,15.254C15.54,15.082 15.517,14.907 15.482,14.738C15.357,14.121 15.028,13.608 14.611,13.142C13.983,12.44 13.208,11.912 12.437,11.377C12.038,11.101 11.641,10.817 11.279,10.498C10.931,10.191 10.948,9.853 11.267,9.513C11.339,9.437 11.416,9.362 11.501,9.3C11.849,9.048 12.209,8.812 12.548,8.55C13.188,8.056 13.85,7.583 14.44,7.037C15.111,6.415 15.542,5.645 15.543,4.702C15.545,3.43 15.543,2.159 15.543,0.887C15.543,0.813 15.536,0.738 15.532,0.66L4.456,0.66L4.456,0.928C4.456,2.116 4.472,3.305 4.451,4.493C4.435,5.374 4.74,6.12 5.31,6.782C5.917,7.486 6.671,8.016 7.429,8.545C7.845,8.835 8.268,9.118 8.653,9.445C9.087,9.814 9.087,10.189 8.66,10.56C8.311,10.863 7.926,11.127 7.543,11.391C6.77,11.924 6.001,12.458 5.372,13.16C4.764,13.838 4.423,14.606 4.45,15.528C4.474,16.354 4.455,17.182 4.455,18.009L4.455,19.336Z" style="fill:white;fill-rule:nonzero;"/>
            <path d="M9.967,18.71L5.411,18.71C5.073,18.71 4.981,18.62 4.98,18.293C4.979,17.911 4.991,17.529 4.977,17.147C4.963,16.775 5.075,16.442 5.351,16.208C5.746,15.875 6.166,15.563 6.608,15.293C7.015,15.045 7.459,14.851 7.898,14.658C8.678,14.315 9.264,13.774 9.678,13.048C9.753,12.917 9.823,12.794 10.004,12.792C10.195,12.79 10.267,12.918 10.346,13.057C10.755,13.766 11.32,14.31 12.089,14.646C12.834,14.972 13.566,15.325 14.212,15.823C14.562,16.093 14.908,16.39 14.946,16.852C14.989,17.376 14.975,17.906 14.966,18.433C14.963,18.621 14.819,18.709 14.587,18.71C13.572,18.711 12.557,18.711 11.542,18.711C11.017,18.711 10.492,18.711 9.967,18.71Z" style="fill:white;fill-rule:nonzero;"/>
            <path d="M5.631,5.527C5.63,5.376 5.829,5.245 6.098,5.327C6.997,5.602 7.894,5.881 8.795,6.148C9.059,6.226 9.333,6.271 9.601,6.335C10.1,6.453 10.577,6.318 11.044,6.186C11.989,5.918 12.926,5.625 13.865,5.335C14.214,5.228 14.394,5.376 14.353,5.734C14.314,6.072 14.185,6.378 13.945,6.608C13.546,6.99 13.134,7.366 12.686,7.689C12.128,8.092 11.523,8.434 10.946,8.812C10.699,8.974 10.466,9.157 10.232,9.338C10.082,9.453 9.942,9.457 9.786,9.351C9.108,8.896 8.419,8.455 7.753,7.984C7.231,7.615 6.719,7.229 6.237,6.813C5.885,6.51 5.652,6.115 5.631,5.527Z" style="fill:white;fill-rule:nonzero;"/>
        </g>
    </g>
</svg>
