<?xml version="1.0" encoding="iso-8859-1"?>
<!-- Generator: Adobe Illustrator 21.0.2, SVG Export Plug-In . SVG Version: 6.00 Build 0)  -->
<svg version="1.1" id="Layer_1" xmlns="http://www.w3.org/2000/svg" xmlns:xlink="http://www.w3.org/1999/xlink" x="0px" y="0px"
	 viewBox="0 0 20 20" style="enable-background:new 0 0 20 20;" xml:space="preserve">
<g id="PrfINy.tif_1_">
	<g>
		<path style="fill:#BEBEBE;" d="M16.29,3.808c-0.408,0.409-0.779,0.791-1.164,1.157c-0.086,0.082-0.23,0.151-0.341,0.143
			c-0.099-0.007-0.243-0.114-0.27-0.206c-0.033-0.112-0.009-0.297,0.067-0.377c0.521-0.548,1.058-1.082,1.599-1.61
			c0.223-0.217,0.518-0.111,0.63,0.203c0.483,1.357,0.966,2.714,1.452,4.07c0.45,1.255,0.901,2.509,1.358,3.761
			c0.365,0.999,0.526,2.004,0.209,3.055c-0.596,1.982-2.495,3.308-4.558,3.162c-1.977-0.14-3.75-1.836-3.97-3.817
			c-0.028-0.247-0.123-0.365-0.348-0.464c-0.712-0.315-1.398-0.259-2.071,0.089c-0.082,0.042-0.143,0.187-0.156,0.291
			c-0.145,1.157-0.66,2.119-1.55,2.859c-1.291,1.072-2.759,1.374-4.329,0.755c-1.593-0.628-2.538-1.83-2.806-3.537
			c-0.112-0.711,0.005-1.396,0.246-2.068C1.26,8.571,2.227,5.865,3.196,3.16C3.345,2.746,3.613,2.69,3.92,2.999
			c0.489,0.493,0.983,0.982,1.471,1.477c0.225,0.228,0.173,0.563-0.11,0.62C5.163,5.119,4.988,5.058,4.895,4.973
			C4.553,4.662,4.233,4.326,3.908,3.996C3.855,3.941,3.819,3.869,3.776,3.805C3.753,3.816,3.731,3.827,3.708,3.839
			C3.056,5.651,2.403,7.464,1.735,9.319c2.783-2.084,6.498-0.27,6.983,2.881c0.427-0.073,0.855-0.203,1.282-0.203
			c0.429,0,0.859,0.128,1.288,0.2c0.465-3.085,4.088-4.963,6.989-2.865C17.607,7.467,16.955,5.655,16.29,3.808z M0.713,12.81
			c0.003,2.07,1.605,3.671,3.674,3.661c2.119-0.011,3.716-1.668,3.65-3.796C7.975,10.679,6.399,9.14,4.379,9.146
			C2.305,9.152,0.709,10.739,0.713,12.81z M19.296,12.831c0.024-2.055-1.548-3.647-3.622-3.684
			c-2.035-0.036-3.764,1.555-3.701,3.785c0.053,1.861,1.47,3.5,3.606,3.538C17.66,16.506,19.271,14.92,19.296,12.831z"/>
	</g>
</g>
</svg>
