<?xml version="1.0" encoding="UTF-8" standalone="no"?>
<!DOCTYPE svg PUBLIC "-//W3C//DTD SVG 1.1//EN" "http://www.w3.org/Graphics/SVG/1.1/DTD/svg11.dtd">
<svg width="100%" height="100%" viewBox="0 0 17 20" version="1.1" xmlns="http://www.w3.org/2000/svg" xmlns:xlink="http://www.w3.org/1999/xlink" xml:space="preserve" xmlns:serif="http://www.serif.com/" style="fill-rule:evenodd;clip-rule:evenodd;stroke-linejoin:round;stroke-miterlimit:2;">
    <g id="content_x5F_draft_x5F_trashed" transform="matrix(1,0,0,-1,0,19.99)">
        <g>
            <g>
                <path d="M13.452,17.342L14.82,15.926L16.082,14.54L16.082,19.821L11.003,19.821L13.452,17.342Z" style="fill:rgb(167,122,75);fill-rule:nonzero;"/>
                <path d="M16.258,19.989L10.596,19.989L13.323,17.228L14.69,15.812L16.258,14.091L16.258,19.989ZM11.41,19.654L15.906,19.654L15.906,14.989L14.952,16.036L13.579,17.458L11.41,19.654Z" style="fill:rgb(126,84,40);fill-rule:nonzero;"/>
            </g>
            <g>
                <g>
                    <g>
                        <path d="M0.164,19.826L11.197,19.826L16.112,14.965L16.112,0.164L0.164,0.164L0.164,19.826Z" style="fill:rgb(235,120,51);fill-rule:nonzero;"/>
                    </g>
                    <g>
                        <path d="M11.264,19.99L0,19.99L0,0L16.276,0L16.276,15.034L11.264,19.99ZM0.328,19.662L11.129,19.662L15.948,14.896L15.948,0.328L0.328,0.328L0.328,19.662Z" style="fill:rgb(193,60,12);fill-rule:nonzero;"/>
                    </g>
                </g>
                <g>
                    <path d="M15.921,14.974L11.206,19.58L11.178,14.965L15.921,14.974Z" style="fill:rgb(238,197,139);fill-rule:nonzero;"/>
                    <path d="M11.098,19.838L11.069,14.855L16.189,14.865L11.098,19.838ZM11.288,15.075L11.313,19.323L15.653,15.084L11.288,15.075Z" style="fill:rgb(193,60,12);fill-rule:nonzero;"/>
                </g>
                <g>
                    <path d="M11.197,19.717L10.978,19.717L10.978,14.692L15.784,14.692L15.784,14.911L11.197,14.911L11.197,19.717Z" style="fill:rgb(193,60,12);fill-rule:nonzero;"/>
                </g>
                <g>
                    <path d="M10.978,19.717L0.273,19.717L0.273,0.489L15.803,0.508L15.784,14.692L15.566,14.692L15.584,0.726L0.492,0.708L0.492,19.498L10.978,19.498L10.978,19.717Z" style="fill:rgb(242,140,90);fill-rule:nonzero;"/>
                </g>
            </g>
        </g>
        <g transform="matrix(1,0,0,-1,-0.3575,17.99)">
            <g transform="matrix(0.232627,0,0,1.22088,-449.499,-68.9737)">
                <path d="M1993.5,61.45C1993.5,61.202 1992.56,61 1991.4,61L1974.6,61C1973.44,61 1972.5,61.202 1972.5,61.45L1972.5,65.05C1972.5,65.298 1973.44,65.5 1974.6,65.5L1991.4,65.5C1992.56,65.5 1993.5,65.298 1993.5,65.05L1993.5,61.45Z" style="fill:rgb(238,197,139);"/>
            </g>
            <g transform="matrix(1.43682,0,0,1.44578,-3.31656,-6.35542)">
                <g transform="matrix(0.966904,0,0,1.6,0.139739,-7.27568)">
                    <path d="M12.5,12.75C12.5,12.612 12.313,12.5 12.084,12.5L4.638,12.5C4.409,12.5 4.222,12.612 4.222,12.75C4.222,12.888 4.409,13 4.638,13L12.084,13C12.313,13 12.5,12.888 12.5,12.75Z" style="fill:rgb(238,197,139);"/>
                </g>
                <g transform="matrix(1,0,0,1,-0.417589,-0.345834)">
                    <g transform="matrix(0.450126,0,0,1.6,2.74459,-8.45415)">
                        <path d="M12.5,12.75C12.5,12.612 12.099,12.5 11.606,12.5L5.116,12.5C4.623,12.5 4.222,12.612 4.222,12.75C4.222,12.888 4.623,13 5.116,13L11.606,13C12.099,13 12.5,12.888 12.5,12.75Z" style="fill:rgb(238,197,139);"/>
                    </g>
                    <g transform="matrix(0.450126,0,0,1.6,2.74459,-9.95415)">
                        <path d="M12.5,12.75C12.5,12.612 12.099,12.5 11.606,12.5L5.116,12.5C4.623,12.5 4.222,12.612 4.222,12.75C4.222,12.888 4.623,13 5.116,13L11.606,13C12.099,13 12.5,12.888 12.5,12.75Z" style="fill:rgb(238,197,139);"/>
                    </g>
                    <g transform="matrix(0.450126,0,0,1.6,2.74459,-11.4541)">
                        <path d="M12.5,12.75C12.5,12.612 12.099,12.5 11.606,12.5L5.116,12.5C4.623,12.5 4.222,12.612 4.222,12.75C4.222,12.888 4.623,13 5.116,13L11.606,13C12.099,13 12.5,12.888 12.5,12.75Z" style="fill:rgb(238,197,139);"/>
                    </g>
                </g>
                <g transform="matrix(0.966904,0,0,1.6,0.139739,-5.8)">
                    <path d="M12.5,12.75C12.5,12.612 12.313,12.5 12.084,12.5L4.638,12.5C4.409,12.5 4.222,12.612 4.222,12.75C4.222,12.888 4.409,13 4.638,13L12.084,13C12.313,13 12.5,12.888 12.5,12.75Z" style="fill:rgb(238,197,139);"/>
                </g>
            </g>
        </g>
    </g>
</svg>
