<?xml version="1.0" encoding="iso-8859-1"?>
<!-- Generator: Adobe Illustrator 21.0.2, SVG Export Plug-In . SVG Version: 6.00 Build 0)  -->
<svg version="1.1" xmlns="http://www.w3.org/2000/svg" xmlns:xlink="http://www.w3.org/1999/xlink" x="0px" y="0px"
	 viewBox="0 0 18 18" style="enable-background:new 0 0 18 18;" xml:space="preserve">
<g id="Configuration_On_state">
	<g>
		<g>
			<g>
				<path style="fill:#FFFFFF;" d="M11.449,10.513H9.76c-0.1-0.323-0.242-0.63-0.414-0.914l1.12-1.123
					c0.265-0.261,0.265-0.689,0-0.952L9.992,7.049c-0.264-0.263-0.69-0.261-0.953,0l-1.14,1.138
					c-0.307-0.176-0.641-0.31-0.996-0.402V6.304c0-0.371-0.3-0.674-0.673-0.674H5.557c-0.371,0-0.672,0.303-0.672,0.674v1.481
					C4.497,7.882,4.134,8.037,3.801,8.239L2.848,7.287c-0.263-0.262-0.691-0.263-0.953,0L1.417,7.762
					c-0.263,0.263-0.259,0.69,0.002,0.954l0.97,0.971c-0.204,0.357-0.359,0.748-0.446,1.162H0.675C0.302,10.85,0,11.151,0,11.524
					v0.673c0,0.371,0.302,0.672,0.675,0.672h1.353c0.123,0.407,0.308,0.781,0.545,1.121l-0.915,0.915
					c-0.264,0.266-0.264,0.692-0.003,0.955l0.476,0.475c0.264,0.262,0.691,0.262,0.954-0.001l1.023-1.021
					c0.344,0.169,0.719,0.294,1.112,0.358v1.408c0,0.372,0.301,0.674,0.673,0.674h0.674c0.371-0.001,0.672-0.303,0.672-0.674v-1.582
					c0.339-0.12,0.661-0.281,0.952-0.486l1.084,1.086c0.264,0.263,0.689,0.263,0.953,0l0.476-0.476
					c0.265-0.263,0.265-0.688-0.002-0.953l-1.188-1.189c0.146-0.296,0.259-0.612,0.329-0.945h1.605c0.373,0,0.674-0.3,0.675-0.674
					v-0.673C12.124,10.815,11.823,10.513,11.449,10.513z M5.894,13.375c-0.93,0-1.683-0.751-1.683-1.683
					c0-0.93,0.753-1.682,1.683-1.682c0.93,0,1.684,0.752,1.684,1.682C7.578,12.624,6.824,13.375,5.894,13.375z"/>
			</g>
		</g>
		<g>
			<g>
				<path style="fill:#FFFFFF;" d="M17.28,2.726l-1.173,0.298c-0.126-0.205-0.278-0.392-0.447-0.56l0.579-0.976
					c0.137-0.228,0.062-0.525-0.168-0.66l-0.413-0.246c-0.23-0.135-0.526-0.06-0.662,0.168l-0.59,0.99
					c-0.244-0.068-0.499-0.103-0.762-0.102l-0.261-1.028c-0.065-0.256-0.327-0.414-0.585-0.348L12.332,0.38
					c-0.257,0.066-0.413,0.329-0.349,0.586l0.262,1.026c-0.25,0.137-0.476,0.307-0.672,0.507l-0.829-0.493
					c-0.227-0.136-0.525-0.061-0.661,0.167L9.836,2.588C9.7,2.815,9.778,3.113,10.005,3.249l0.844,0.502
					c-0.079,0.285-0.116,0.583-0.106,0.886L9.866,4.86C9.607,4.925,9.451,5.188,9.516,5.448l0.119,0.465
					C9.7,6.171,9.963,6.326,10.222,6.261l0.939-0.238c0.157,0.261,0.351,0.488,0.575,0.681l-0.475,0.797
					c-0.134,0.23-0.06,0.526,0.167,0.663l0.414,0.246c0.23,0.135,0.527,0.06,0.662-0.17l0.53-0.888
					c0.268,0.056,0.549,0.076,0.834,0.053l0.248,0.977c0.065,0.257,0.328,0.414,0.586,0.348l0.468-0.119
					c0.256-0.065,0.413-0.328,0.348-0.586L15.24,6.927c0.214-0.144,0.408-0.31,0.574-0.507l0.943,0.563
					c0.23,0.136,0.525,0.062,0.662-0.168l0.246-0.414c0.136-0.228,0.062-0.523-0.169-0.661l-1.034-0.614
					c0.05-0.233,0.073-0.471,0.062-0.714l1.113-0.283c0.257-0.065,0.411-0.329,0.349-0.587l-0.119-0.467
					C17.799,2.818,17.538,2.661,17.28,2.726z M13.932,5.692c-0.645,0.164-1.3-0.225-1.465-0.873
					c-0.164-0.645,0.228-1.298,0.872-1.463c0.644-0.163,1.3,0.223,1.464,0.869C14.967,4.873,14.577,5.528,13.932,5.692z"/>
			</g>
		</g>
	</g>
</g>
<g id="Layer_1">
</g>
</svg>
