<?xml version="1.0" encoding="iso-8859-1"?>
<!-- Generator: Adobe Illustrator 21.0.2, SVG Export Plug-In . SVG Version: 6.00 Build 0)  -->
<svg version="1.1" id="Layer_1" xmlns="http://www.w3.org/2000/svg" xmlns:xlink="http://www.w3.org/1999/xlink" x="0px" y="0px"
	 viewBox="0 0 20 14" style="enable-background:new 0 0 20 14;" xml:space="preserve">
<g>
	<g>
		<path style="fill:#333333;" d="M17.438,5.583l-0.433,3.679c-0.031,0.273-0.046,0.51-0.046,0.709c0,0.362,0.173,0.543,0.519,0.543
			c0.387,0,0.746-0.278,1.076-0.835c0.33-0.557,0.495-1.21,0.495-1.961c0-1.187-0.396-2.137-1.188-2.851
			c-0.792-0.714-1.771-1.071-2.937-1.071c-1.213,0-2.255,0.442-3.127,1.326c-0.872,0.884-1.308,1.985-1.308,3.303
			c0,1.233,0.413,2.305,1.238,3.216c0.826,0.911,1.979,1.366,3.46,1.366c1.171,0,2.327-0.296,3.467-0.889l0.341,0.952
			C17.786,13.691,16.517,14,15.186,14c-1.76,0-3.154-0.55-4.183-1.649c-1.03-1.099-1.544-2.41-1.544-3.932
			c0-1.595,0.537-2.927,1.61-3.995c1.073-1.068,2.371-1.602,3.893-1.602c1.434,0,2.633,0.463,3.595,1.39
			C19.519,5.138,20,6.273,20,7.617c0,1.034-0.259,1.946-0.777,2.736c-0.518,0.79-1.148,1.185-1.891,1.185
			c-0.608,0-1.021-0.32-1.237-0.96c-0.486,0.661-1.067,0.991-1.743,0.991c-0.692,0-1.272-0.278-1.739-0.835
			c-0.468-0.557-0.701-1.258-0.701-2.103c0-0.924,0.266-1.685,0.798-2.284c0.532-0.599,1.177-0.898,1.937-0.898
			c0.723,0,1.278,0.304,1.666,0.912l0.089-0.779H17.438z M14.42,10.523c0.449,0,0.84-0.235,1.173-0.705
			c0.333-0.47,0.499-1.015,0.499-1.636c0-0.504-0.132-0.912-0.395-1.222c-0.263-0.31-0.58-0.465-0.952-0.465
			c-0.444,0-0.827,0.202-1.149,0.607c-0.322,0.405-0.484,0.927-0.484,1.568c0,0.562,0.128,1.011,0.383,1.348
			C13.75,10.355,14.058,10.523,14.42,10.523z"/>
	</g>
	<g>
		<path style="fill:#333333;" d="M8.824,8.615c0-0.001,0-0.001,0-0.002C8.198,8.057,7.573,7.502,6.937,6.937
			C6.776,7.12,6.621,7.295,6.468,7.47c-1.858,2.112-3.715,4.225-5.572,6.337c-0.043,0.049-0.079,0.104-0.118,0.157
			c3.633,0,7.267,0,10.9,0C9.96,12.824,8.824,10.855,8.824,8.615z"/>
		<path style="fill:#333333;" d="M18.331,0.784c-0.053,0.037-0.109,0.07-0.157,0.113c-0.559,0.497-1.118,0.994-1.677,1.491
			c0.656,0.151,1.274,0.404,1.834,0.746C18.331,2.351,18.331,1.567,18.331,0.784z"/>
		<path style="fill:#333333;" d="M14.929,2.234C15.765,1.49,16.601,0.747,17.441,0C11.908,0,6.409,0,0.879,0
			C3.592,2.413,6.281,4.804,8.98,7.204C9.599,4.414,12.015,2.317,14.929,2.234z"/>
		<path style="fill:#333333;" d="M0,0.767c0,4.115,0,8.192,0,12.311c2.035-2.315,4.045-4.601,6.074-6.909
			C4.045,4.364,2.033,2.574,0,0.767z"/>
	</g>
</g>
</svg>
