<?xml version="1.0" encoding="iso-8859-1"?>
<!-- Generator: Adobe Illustrator 21.0.2, SVG Export Plug-In . SVG Version: 6.00 Build 0)  -->
<svg version="1.1" xmlns="http://www.w3.org/2000/svg" xmlns:xlink="http://www.w3.org/1999/xlink" x="0px" y="0px"
	 viewBox="0 0 16.25 20" style="enable-background:new 0 0 16.25 20;" xml:space="preserve">
<g id="icon-content-types">
	<g>
		<g>
			<g>
				<g>
					<path style="fill:#333333;" d="M11.064,10.958l-0.959,0.243c-0.103-0.168-0.227-0.321-0.365-0.458l0.473-0.798
						c0.112-0.186,0.051-0.429-0.137-0.54L9.738,9.204c-0.188-0.11-0.43-0.049-0.541,0.138l-0.482,0.809
						c-0.2-0.056-0.408-0.084-0.623-0.084L7.879,9.227C7.825,9.018,7.611,8.889,7.4,8.943L7.018,9.039
						c-0.21,0.054-0.338,0.269-0.285,0.48l0.214,0.839c-0.205,0.112-0.389,0.251-0.549,0.414L5.72,10.37
						c-0.186-0.111-0.429-0.05-0.54,0.137l-0.203,0.338c-0.111,0.186-0.047,0.429,0.139,0.541l0.69,0.41
						c-0.065,0.233-0.095,0.476-0.086,0.725l-0.718,0.182c-0.211,0.053-0.34,0.268-0.286,0.481l0.097,0.381
						c0.053,0.21,0.268,0.338,0.48,0.284l0.768-0.195c0.128,0.213,0.287,0.399,0.47,0.557l-0.388,0.652
						c-0.11,0.188-0.049,0.43,0.137,0.542l0.339,0.201c0.188,0.11,0.431,0.049,0.541-0.139l0.433-0.726
						c0.219,0.045,0.449,0.062,0.682,0.043l0.203,0.799c0.053,0.21,0.268,0.338,0.479,0.285l0.383-0.097
						c0.21-0.053,0.338-0.268,0.285-0.479l-0.228-0.897c0.175-0.118,0.334-0.253,0.47-0.414l0.771,0.461
						c0.188,0.112,0.429,0.051,0.541-0.138l0.201-0.338c0.112-0.186,0.051-0.428-0.139-0.54l-0.846-0.502
						c0.041-0.19,0.059-0.385,0.051-0.584l0.91-0.231c0.21-0.053,0.336-0.269,0.285-0.48l-0.098-0.382
						C11.489,11.034,11.276,10.905,11.064,10.958z M8.327,13.384C7.799,13.518,7.263,13.2,7.128,12.67
						c-0.134-0.527,0.186-1.062,0.713-1.196c0.527-0.133,1.063,0.183,1.197,0.71C9.173,12.714,8.854,13.249,8.327,13.384z"/>
				</g>
			</g>
		</g>
		<g id="XMLID_36_">
			<polygon style="fill:#333333;" points="15,17.5 11.25,17.5 10,17.5 2.5,17.5 2.5,2.5 9.482,2.5 10,3.018 11.719,4.844 
				13.232,6.25 13.75,6.768 13.75,20 16.25,20 16.25,5.732 10.518,0 0,0 0,20 15,20 13.75,18.75 			"/>
		</g>
	</g>
</g>
<g id="Layer_1">
</g>
</svg>
