<?xml version="1.0" encoding="iso-8859-1"?>
<!-- Generator: Adobe Illustrator 21.0.2, SVG Export Plug-In . SVG Version: 6.00 Build 0)  -->
<svg version="1.1" id="Layer_1" xmlns="http://www.w3.org/2000/svg" xmlns:xlink="http://www.w3.org/1999/xlink" x="0px" y="0px"
	 viewBox="0 0 20 14" style="enable-background:new 0 0 20 14;" xml:space="preserve">
<g>
	<g>
		<path style="fill:none;" d="M1.634,0.645l7.381,6.953c0.518-2.736,2.83-4.84,5.676-5.062L16.7,0.645H1.634z"/>
		<polygon style="fill:none;" points="0.691,0.645 0.655,0.645 0.655,12.52 6.983,6.573 		"/>
		<path style="fill:none;" d="M17.643,0.645l-2.005,1.888c0.721,0.051,1.409,0.222,2.042,0.495V0.645H17.643z"/>
		<path style="fill:none;" d="M1.046,13.04h9.568c-1.059-1.118-1.709-2.623-1.709-4.28c0-0.123,0.005-0.245,0.012-0.367L7.455,7.017
			L1.046,13.04z"/>
		<path style="fill:#333333;" d="M10.614,13.04H1.046l6.409-6.023l1.461,1.376c0.016-0.27,0.049-0.536,0.099-0.796L1.634,0.645H16.7
			L14.69,2.536c0.164-0.013,0.329-0.021,0.496-0.021c0.152,0,0.302,0.007,0.451,0.018l2.005-1.888h0.036v2.382
			c0.223,0.096,0.44,0.205,0.649,0.326V0H0.006v13.13L0,13.135l0.006,0.006v0.544h11.32C11.072,13.489,10.834,13.273,10.614,13.04z
			 M0.655,0.645h0.036l6.293,5.928L0.655,12.52V0.645z"/>
	</g>
	<g>
		<path style="fill:#333333;" d="M17.438,5.768l-0.433,3.599c-0.031,0.267-0.046,0.498-0.046,0.694c0,0.355,0.173,0.532,0.519,0.532
			c0.387,0,0.745-0.272,1.076-0.816c0.33-0.544,0.495-1.184,0.495-1.918c0-1.161-0.396-2.09-1.188-2.788
			c-0.792-0.698-1.771-1.048-2.937-1.048c-1.212,0-2.255,0.432-3.127,1.297c-0.872,0.865-1.308,1.942-1.308,3.23
			c0,1.206,0.413,2.255,1.238,3.146c0.825,0.891,1.979,1.336,3.459,1.336c1.171,0,2.327-0.29,3.467-0.869l0.341,0.931
			C17.787,13.697,16.518,14,15.186,14c-1.759,0-3.154-0.538-4.183-1.613C9.974,11.312,9.46,10.03,9.46,8.541
			c0-1.56,0.536-2.863,1.61-3.907c1.073-1.045,2.371-1.567,3.893-1.567c1.434,0,2.632,0.453,3.595,1.359
			C19.519,5.333,20,6.443,20,7.757c0,1.012-0.259,1.903-0.777,2.676c-0.518,0.773-1.148,1.159-1.89,1.159
			c-0.608,0-1.021-0.313-1.237-0.939c-0.486,0.646-1.066,0.97-1.743,0.97c-0.692,0-1.272-0.272-1.739-0.817
			c-0.467-0.544-0.701-1.23-0.701-2.057c0-0.904,0.266-1.648,0.798-2.234c0.532-0.586,1.177-0.878,1.936-0.878
			c0.723,0,1.278,0.298,1.665,0.892l0.089-0.762H17.438z M14.42,10.599c0.449,0,0.84-0.23,1.172-0.69
			c0.333-0.46,0.499-0.993,0.499-1.6c0-0.493-0.132-0.892-0.395-1.195c-0.263-0.303-0.58-0.455-0.952-0.455
			c-0.444,0-0.827,0.198-1.149,0.594c-0.322,0.396-0.484,0.907-0.484,1.534c0,0.55,0.128,0.989,0.383,1.318
			C13.751,10.435,14.059,10.599,14.42,10.599z"/>
	</g>
</g>
</svg>
