<?xml version="1.0" encoding="UTF-8" standalone="no"?>
<!DOCTYPE svg PUBLIC "-//W3C//DTD SVG 1.1//EN" "http://www.w3.org/Graphics/SVG/1.1/DTD/svg11.dtd">
<svg width="20px" height="18px" version="1.1" xmlns="http://www.w3.org/2000/svg" xmlns:xlink="http://www.w3.org/1999/xlink" xml:space="preserve" xmlns:serif="http://www.serif.com/" style="fill-rule:evenodd;clip-rule:evenodd;stroke-linejoin:round;stroke-miterlimit:2;">
    <g id="icon-skins">
        <g>
            <path d="M9.629,2.122L7.705,0.198C7.441,-0.066 7.008,-0.066 6.743,0.198L4.819,2.122C4.555,2.387 4.241,2.894 4.123,3.249L3.592,4.844C3.474,5.198 3.161,5.706 2.896,5.97L0.972,7.895C0.708,8.159 0.394,8.666 0.276,9.021C0.276,9.021 -0.471,11.261 0.491,12.223C1.453,13.185 2.414,14.147 3.376,15.109C4.338,16.07 5.3,17.032 7.224,15.109C8.543,13.789 10.11,12.223 12.033,10.299C13.956,8.376 16.197,9.122 16.197,9.122C16.552,9.24 16.626,9.121 16.362,8.856L9.629,2.122ZM8.667,5.97L3.858,10.78C3.594,11.044 3.161,11.044 2.896,10.78L1.934,9.819C1.67,9.555 1.67,9.122 1.934,8.857L6.743,4.047C7.007,3.783 7.44,3.783 7.705,4.047L8.667,5.008C8.931,5.273 8.931,5.706 8.667,5.97Z" style="fill:white;fill-rule:nonzero;"/>
            <path d="M19.466,5.256C18.106,1.175 12.665,2.536 12.665,2.536L16.746,7.977L16.746,17.499C19.466,14.778 20.827,9.337 19.466,5.256Z" style="fill:white;fill-rule:nonzero;"/>
        </g>
    </g>
</svg>
