<?xml version="1.0" encoding="UTF-8" standalone="no"?>
<!DOCTYPE svg PUBLIC "-//W3C//DTD SVG 1.1//EN" "http://www.w3.org/Graphics/SVG/1.1/DTD/svg11.dtd">
<svg width="100%" height="100%" viewBox="0 0 18 18" version="1.1" xmlns="http://www.w3.org/2000/svg" xmlns:xlink="http://www.w3.org/1999/xlink" xml:space="preserve" xmlns:serif="http://www.serif.com/" style="fill-rule:evenodd;clip-rule:evenodd;stroke-linejoin:round;stroke-miterlimit:2;">
    <g id="social-off-state">
        <g>
            <path d="M15.75,5.625L14.625,5.625L14.625,6.75C14.625,8.485 12.985,10.125 11.25,10.125L6.091,10.125L4.5,11.716L4.5,12.375C4.5,13.5 5.625,14.625 6.75,14.625L12.375,14.625L15.75,18L15.75,14.625C16.875,14.625 18,13.5 18,12.375L18,7.875C18,6.75 16.875,5.625 15.75,5.625Z" style="fill:rgb(4,188,8);fill-rule:nonzero;"/>
            <path d="M11.25,9C12.375,9 13.5,7.875 13.5,6.75L13.5,2.25C13.5,1.125 12.375,0 11.25,0L2.25,0C1.125,0 0,1.125 0,2.25L0,6.75C0,7.875 1.125,9 2.25,9L2.25,12.375L5.625,9L11.25,9Z" style="fill:rgb(4,188,8);fill-rule:nonzero;"/>
        </g>
    </g>
</svg>
