<?xml version="1.0" encoding="iso-8859-1"?>
<!-- Generator: Adobe Illustrator 21.0.2, SVG Export Plug-In . SVG Version: 6.00 Build 0)  -->
<svg version="1.1" xmlns="http://www.w3.org/2000/svg" xmlns:xlink="http://www.w3.org/1999/xlink" x="0px" y="0px"
	 viewBox="0 0 12.663 20" style="enable-background:new 0 0 12.663 20;" xml:space="preserve">
<g id="icon-job-vacancies-content-types-dark">
	<g>
		<path style="fill:#333333;" d="M12.41,9.872c-0.378-0.588-1.651-0.958-2.912-1.479C8.239,7.863,7.939,7.68,7.939,7.68L7.928,6.475
			c0,0,0.473-0.368,0.619-1.502c0.294,0.085,0.605-0.442,0.621-0.72c0.017-0.267-0.041-1.002-0.4-0.93
			c0.072-0.561,0.127-1.056,0.099-1.327C8.776,1.022,7.819,0,6.349,0C4.877,0,3.921,1.022,3.829,1.995
			C3.801,2.267,3.853,2.761,3.928,3.323c-0.36-0.072-0.417,0.663-0.401,0.93c0.017,0.278,0.326,0.806,0.623,0.72
			c0.146,1.135,0.619,1.502,0.619,1.502L4.757,7.68c0,0-0.298,0.183-1.559,0.712c-1.26,0.521-2.534,0.892-2.912,1.479
			c-0.341,0.532-0.238,1.786-0.238,1.786h6.3h6.299C12.648,11.657,12.752,10.404,12.41,9.872z"/>
		<rect y="15.063" style="fill:#333333;" width="12.5" height="0.987"/>
		<rect y="13.021" style="fill:#333333;" width="6.589" height="0.987"/>
		<rect y="17.038" style="fill:#333333;" width="12.449" height="0.987"/>
		<rect y="19.013" style="fill:#333333;" width="12.32" height="0.987"/>
	</g>
</g>
<g id="Layer_1">
</g>
</svg>
