<?xml version="1.0" encoding="UTF-8" standalone="no"?>
<!DOCTYPE svg PUBLIC "-//W3C//DTD SVG 1.1//EN" "http://www.w3.org/Graphics/SVG/1.1/DTD/svg11.dtd">
<svg width="20px" height="20px" version="1.1" xmlns="http://www.w3.org/2000/svg" xmlns:xlink="http://www.w3.org/1999/xlink" xml:space="preserve" xmlns:serif="http://www.serif.com/" style="fill-rule:evenodd;clip-rule:evenodd;stroke-linejoin:round;stroke-miterlimit:2;">
    <g>
        <g>
            <path d="M16.6,16.9C16.2,16.9 12.8,16.7 11.6,15.6C9.4,13.6 9.3,9.9 9.2,9.7C9.2,9.3 9.4,9 9.7,9C10,9 10.2,9.3 10.3,9.6C10.3,9.6 10.5,12.9 12.2,14.5C12.9,15.1 15.2,15.5 16.6,15.5C16.9,15.5 17.1,15.8 17.1,16.2C17.1,16.6 16.9,16.9 16.6,16.9Z" style="fill:white;fill-rule:nonzero;"/>
        </g>
        <g>
            <path d="M7.4,19.5C7.2,19.5 7.1,19.4 7,19.3C6.6,18.6 4.2,14.7 3.8,12.2C3.8,12 3.2,8 5,5.3C6,3.8 7.5,3 9.6,3C15.8,3 16,10.3 16,10.3C16,10.7 15.8,11 15.5,11C15.2,11 15,10.7 15,10.4C15,10.1 14.8,4.3 9.7,4.3C8,4.3 6.8,4.9 6,6.1C4.5,8.4 5,11.8 5,11.8C5.3,13.9 7.3,17.4 8,18.4C8,18.7 8,19.1 7.7,19.4C7.7,19.5 7.5,19.5 7.4,19.5Z" style="fill:white;fill-rule:nonzero;"/>
        </g>
        <g>
            <path d="M13.2,20L13,20C12.9,20 10.5,18.9 8.8,16.9C7.1,14.8 6.6,11.4 6.6,9.9C6.6,7.9 7.7,6.5 9.5,6.2C11.9,5.8 12.9,9.4 13.3,10.9C13.8,12.8 15.2,13 15.9,12.9C17.1,12.8 17.6,11.1 17.7,10.2C17.8,9.1 17,5.9 14.5,3.3C12.2,0.7 8.7,1.1 7,2C4.5,3.3 2.6,5.8 2.3,8C2.1,10.5 3,15.2 3,15.3C3.1,15.7 2.9,16 2.6,16.1C2.3,16.2 2,15.9 2,15.6C2,15.4 1,10.6 1.3,7.9C1.6,5.2 3.7,2.3 6.6,0.9C8.6,-0.1 12.6,-0.6 15.3,2.3C18,5.2 19,8.8 18.8,10.4C18.6,12.2 17.7,14 16,14.2C14.2,14.4 12.8,13.3 12.2,11.3C11.7,9.3 10.9,7.3 9.6,7.5C8,7.7 7.7,8.9 7.7,9.9C7.7,11 8,14.1 9.5,16C11,17.8 13.3,18.8 13.3,18.8C13.6,18.9 13.7,19.3 13.6,19.6C13.6,19.8 13.4,20 13.2,20Z" style="fill:white;fill-rule:nonzero;"/>
        </g>
    </g>
</svg>
