<?xml version="1.0" encoding="iso-8859-1"?>
<!-- Generator: Adobe Illustrator 21.0.2, SVG Export Plug-In . SVG Version: 6.00 Build 0)  -->
<svg version="1.1" xmlns="http://www.w3.org/2000/svg" xmlns:xlink="http://www.w3.org/1999/xlink" x="0px" y="0px"
	 viewBox="0 0 15 16" style="enable-background:new 0 0 15 16;" xml:space="preserve">
<g id="icon-date">
	<g>
		<rect x="5" y="6" style="fill:#333333;" width="2" height="2"/>
		<rect x="8" y="6" style="fill:#333333;" width="2" height="2"/>
		<rect x="11" y="6" style="fill:#333333;" width="2" height="2"/>
		<rect x="2" y="9" style="fill:#333333;" width="2" height="2"/>
		<rect x="5" y="9" style="fill:#333333;" width="2" height="2"/>
		<rect x="8" y="9" style="fill:#333333;" width="2" height="2"/>
		<rect x="11" y="9" style="fill:#333333;" width="2" height="2"/>
		<rect x="2" y="12" style="fill:#333333;" width="2" height="2"/>
		<rect x="5" y="12" style="fill:#333333;" width="2" height="2"/>
		<rect x="8" y="12" style="fill:#333333;" width="2" height="2"/>
		<path style="fill:#333333;" d="M13,2V0h-3v2H5V0H2v2H0v14h15V2H13z M11,1h1v2h-1V1z M3,1h1v2H3V1z M14,15H1V5h13V15z"/>
	</g>
</g>
<g id="Layer_1">
</g>
</svg>
