<?xml version="1.0" encoding="iso-8859-1"?>
<!-- Generator: Adobe Illustrator 21.0.2, SVG Export Plug-In . SVG Version: 6.00 Build 0)  -->
<svg version="1.1" id="Layer_1" xmlns="http://www.w3.org/2000/svg" xmlns:xlink="http://www.w3.org/1999/xlink" x="0px" y="0px"
	 viewBox="0 0 56.69 56.69" style="enable-background:new 0 0 56.69 56.69;" xml:space="preserve">
<g>
	<path style="fill:#DCDCDC;" d="M45.592,0.914c2.147,0,3.876,1.728,3.876,3.876v4.889c0,2.146-1.729,3.874-3.876,3.874H31.879
		c-0.357,0-0.656,0.298-0.656,0.657v4.292c0,0.358,0.298,0.657,0.656,0.657h17.589v3.219H28.004V14.21
		c0-2.146,1.729-3.876,3.875-3.876h13.713c0.358,0,0.657-0.298,0.657-0.655V4.79c0-0.358-0.298-0.657-0.657-0.657H31.879
		c-0.357,0-0.656,0.298-0.656,0.657v1.251h-3.219V4.79c0-2.148,1.729-3.876,3.875-3.876C31.879,0.914,45.592,0.914,45.592,0.914z"/>
	<g>
		<rect x="2.967" y="0" style="fill:#DCDCDC;" width="6.993" height="8.533"/>
		<rect x="2.967" y="16.645" style="fill:#DCDCDC;" width="6.993" height="7.752"/>
		<polygon style="fill:#DCDCDC;" points="25.692,28.659 25.692,39.3 9.96,39.3 9.96,32.509 2.967,32.509 2.967,46.167 9.96,46.167 
			9.96,46.052 25.692,46.052 25.692,56.693 53.726,56.693 53.726,28.659 		"/>
	</g>
</g>
</svg>
