<?xml version="1.0" encoding="UTF-8" standalone="no"?>
<!DOCTYPE svg PUBLIC "-//W3C//DTD SVG 1.1//EN" "http://www.w3.org/Graphics/SVG/1.1/DTD/svg11.dtd">
<svg width="42px" height="32px" version="1.1" xmlns="http://www.w3.org/2000/svg" xmlns:xlink="http://www.w3.org/1999/xlink" xml:space="preserve" xmlns:serif="http://www.serif.com/" style="fill-rule:evenodd;clip-rule:evenodd;stroke-linejoin:round;stroke-miterlimit:2;">
    <g transform="matrix(1,0,0,1,-2015,-40.25)">
        <g transform="matrix(0.533333,0,0,0.598967,985.667,34.2603)">
            <path d="M1960,13.888C1960,11.742 1958.04,10 1955.63,10L1934.37,10C1931.96,10 1930,11.742 1930,13.888L1930,32.824C1930,34.97 1931.96,36.713 1934.37,36.713L1955.63,36.713C1958.04,36.713 1960,34.97 1960,32.824L1960,13.888ZM1935.62,15.009L1935.62,31.704L1954.38,31.704L1954.38,15.009L1935.62,15.009Z" style="fill:white;"/>
        </g>
        <g transform="matrix(0.571429,0,0,7.11111,911.857,-393.528)">
            <path d="M1993.5,61.247C1993.5,61.111 1992.12,61 1990.43,61L1975.57,61C1973.88,61 1972.5,61.111 1972.5,61.247L1972.5,65.253C1972.5,65.389 1973.88,65.5 1975.57,65.5L1990.43,65.5C1992.12,65.5 1993.5,65.389 1993.5,65.253L1993.5,61.247Z" style="fill:white;"/>
            <path d="M1993.5,61.247C1993.5,61.111 1992.12,61 1990.43,61L1975.57,61C1973.88,61 1972.5,61.111 1972.5,61.247L1972.5,65.253C1972.5,65.389 1973.88,65.5 1975.57,65.5L1990.43,65.5C1992.12,65.5 1993.5,65.389 1993.5,65.253L1993.5,61.247ZM1977.75,61.422L1977.75,65.078L1988.25,65.078L1988.25,61.422L1977.75,61.422Z" style="fill:white;"/>
        </g>
        <g transform="matrix(1,0,0,1,83.5029,20.75)">
            <g transform="matrix(0.4,0,0,0.266667,1217,35.7083)">
                <path d="M1890,13.75C1890,11.68 1889.44,10 1888.75,10L1886.25,10C1885.56,10 1885,11.68 1885,13.75L1885,21.25C1885,23.32 1885.56,25 1886.25,25L1888.75,25C1889.44,25 1890,23.32 1890,21.25L1890,13.75Z" style="fill:white;"/>
            </g>
            <g transform="matrix(0.4,0,0,0.0666667,1217,49.7083)">
                <path d="M1890,13.75C1890,11.68 1889.44,10 1888.75,10L1886.25,10C1885.56,10 1885,11.68 1885,13.75L1885,21.25C1885,23.32 1885.56,25 1886.25,25L1888.75,25C1889.44,25 1890,23.32 1890,21.25L1890,13.75Z" style="fill:white;"/>
            </g>
            <g transform="matrix(0.4,0,0,0.266667,1217,41.7083)">
                <path d="M1890,13.75C1890,11.68 1889.44,10 1888.75,10L1886.25,10C1885.56,10 1885,11.68 1885,13.75L1885,21.25C1885,23.32 1885.56,25 1886.25,25L1888.75,25C1889.44,25 1890,23.32 1890,21.25L1890,13.75Z" style="fill:white;"/>
            </g>
            <g transform="matrix(0.4,0,0,0.266667,1217,23.3334)">
                <path d="M1890,13.75C1890,11.68 1889.44,10 1888.75,10L1886.25,10C1885.56,10 1885,11.68 1885,13.75L1885,21.25C1885,23.32 1885.56,25 1886.25,25L1888.75,25C1889.44,25 1890,23.32 1890,21.25L1890,13.75Z" style="fill:white;"/>
            </g>
            <g transform="matrix(0.4,0,0,0.266667,1217,16.9584)">
                <path d="M1890,13.75C1890,11.68 1889.44,10 1888.75,10L1886.25,10C1885.56,10 1885,11.68 1885,13.75L1885,21.25C1885,23.32 1885.56,25 1886.25,25L1888.75,25C1889.44,25 1890,23.32 1890,21.25L1890,13.75Z" style="fill:white;"/>
            </g>
            <g transform="matrix(0.4,0,0,0.266667,1217,29.3334)">
                <path d="M1890,13.75C1890,11.68 1889.44,10 1888.75,10L1886.25,10C1885.56,10 1885,11.68 1885,13.75L1885,21.25C1885,23.32 1885.56,25 1886.25,25L1888.75,25C1889.44,25 1890,23.32 1890,21.25L1890,13.75Z" style="fill:white;"/>
            </g>
        </g>
        <g transform="matrix(1,0,0,1,63,20.6249)">
            <g transform="matrix(0.4,0,0,0.266667,1217,35.7083)">
                <path d="M1890,13.75C1890,11.68 1889.44,10 1888.75,10L1886.25,10C1885.56,10 1885,11.68 1885,13.75L1885,21.25C1885,23.32 1885.56,25 1886.25,25L1888.75,25C1889.44,25 1890,23.32 1890,21.25L1890,13.75Z" style="fill:white;"/>
            </g>
            <g transform="matrix(0.4,0,0,0.0666667,1217,49.7083)">
                <path d="M1890,13.75C1890,11.68 1889.44,10 1888.75,10L1886.25,10C1885.56,10 1885,11.68 1885,13.75L1885,21.25C1885,23.32 1885.56,25 1886.25,25L1888.75,25C1889.44,25 1890,23.32 1890,21.25L1890,13.75Z" style="fill:white;"/>
            </g>
            <g transform="matrix(0.4,0,0,0.266667,1217,41.7083)">
                <path d="M1890,13.75C1890,11.68 1889.44,10 1888.75,10L1886.25,10C1885.56,10 1885,11.68 1885,13.75L1885,21.25C1885,23.32 1885.56,25 1886.25,25L1888.75,25C1889.44,25 1890,23.32 1890,21.25L1890,13.75Z" style="fill:white;"/>
            </g>
            <g transform="matrix(0.4,0,0,0.266667,1217,23.3334)">
                <path d="M1890,13.75C1890,11.68 1889.44,10 1888.75,10L1886.25,10C1885.56,10 1885,11.68 1885,13.75L1885,21.25C1885,23.32 1885.56,25 1886.25,25L1888.75,25C1889.44,25 1890,23.32 1890,21.25L1890,13.75Z" style="fill:white;"/>
            </g>
            <g transform="matrix(0.4,0,0,0.266667,1217,16.9584)">
                <path d="M1890,13.75C1890,11.68 1889.44,10 1888.75,10L1886.25,10C1885.56,10 1885,11.68 1885,13.75L1885,21.25C1885,23.32 1885.56,25 1886.25,25L1888.75,25C1889.44,25 1890,23.32 1890,21.25L1890,13.75Z" style="fill:white;"/>
            </g>
            <g transform="matrix(0.4,0,0,0.266667,1217,29.3334)">
                <path d="M1890,13.75C1890,11.68 1889.44,10 1888.75,10L1886.25,10C1885.56,10 1885,11.68 1885,13.75L1885,21.25C1885,23.32 1885.56,25 1886.25,25L1888.75,25C1889.44,25 1890,23.32 1890,21.25L1890,13.75Z" style="fill:white;"/>
            </g>
        </g>
    </g>
</svg>
