<?xml version="1.0" encoding="UTF-8" standalone="no"?>
<!DOCTYPE svg PUBLIC "-//W3C//DTD SVG 1.1//EN" "http://www.w3.org/Graphics/SVG/1.1/DTD/svg11.dtd">
<svg width="100%" height="100%" viewBox="0 0 100 100" version="1.1" xmlns="http://www.w3.org/2000/svg" xmlns:xlink="http://www.w3.org/1999/xlink" xml:space="preserve" xmlns:serif="http://www.serif.com/" style="fill-rule:evenodd;clip-rule:evenodd;stroke-linejoin:round;stroke-miterlimit:2;">
    <g>
        <path d="M84.392,64.521C80.512,70.8 68.967,75.558 54.799,76.445C54.07,76.492 53.333,76.525 52.591,76.549C52.459,76.554 52.326,76.558 52.194,76.562C51.47,76.583 50.741,76.596 50.005,76.596L49.997,76.596C49.262,76.596 48.533,76.58 47.807,76.562C47.674,76.558 47.543,76.554 47.411,76.549C46.669,76.525 45.933,76.491 45.204,76.445C31.035,75.558 19.489,70.801 15.61,64.521C14.695,63.043 14.208,63.835 14.208,64.568L14.208,74.806C14.208,81.035 20.538,87.407 30.145,91.283L30.144,91.285C30.179,91.299 30.216,91.311 30.251,91.325C30.855,91.566 31.474,91.797 32.103,92.018C32.238,92.066 32.371,92.114 32.506,92.159C33.188,92.393 33.881,92.617 34.589,92.827C34.622,92.836 34.657,92.845 34.691,92.855C35.359,93.048 36.043,93.23 36.733,93.4C36.89,93.439 37.047,93.478 37.205,93.515C37.936,93.69 38.675,93.853 39.43,93.996C39.464,94.004 39.498,94.01 39.531,94.016C40.243,94.153 40.968,94.271 41.698,94.38C41.883,94.407 42.068,94.435 42.254,94.461C43.023,94.567 43.796,94.663 44.583,94.739C44.614,94.742 44.645,94.744 44.677,94.747C45.43,94.817 46.193,94.87 46.961,94.911C47.166,94.924 47.37,94.931 47.576,94.941C48.374,94.976 49.181,95 49.996,95L50.006,95C50.821,95 51.628,94.978 52.431,94.942C52.637,94.931 52.841,94.922 53.046,94.912C53.814,94.871 54.576,94.818 55.329,94.748C55.361,94.745 55.391,94.743 55.423,94.74C56.21,94.664 56.984,94.568 57.753,94.462C57.94,94.436 58.124,94.408 58.309,94.381C59.039,94.272 59.763,94.153 60.476,94.017C60.509,94.011 60.543,94.005 60.578,93.997C61.331,93.853 62.07,93.69 62.802,93.516C62.959,93.479 63.115,93.44 63.272,93.401C63.965,93.231 64.648,93.05 65.318,92.854C65.351,92.844 65.384,92.835 65.418,92.828C66.127,92.618 66.819,92.395 67.503,92.16C67.637,92.115 67.769,92.067 67.901,92.02C68.531,91.797 69.154,91.567 69.759,91.324C69.793,91.31 69.829,91.3 69.862,91.286L69.861,91.284C79.468,87.407 85.798,81.035 85.798,74.807L85.798,64.569C85.794,63.836 85.307,63.045 84.392,64.521Z" style="fill:rgb(4,188,8);fill-rule:nonzero;"/>
        <path d="M85.748,17.769C84.789,10.656 69.154,5 50.001,5L49.999,5C30.228,5 14.205,11.027 14.205,18.461L14.205,24.901C14.205,32.787 30.227,39.179 49.999,39.179L50.001,39.179C69.154,39.179 84.789,33.18 85.748,25.636C85.779,25.392 85.796,25.148 85.796,24.901L85.796,18.461C85.794,18.229 85.779,17.999 85.748,17.769Z" style="fill:rgb(4,188,8);fill-rule:nonzero;"/>
        <path d="M84.454,38.365C81.102,43.235 71.779,47.075 59.94,48.477C58.403,48.659 56.824,48.797 55.21,48.895C55.138,48.899 55.064,48.905 54.989,48.908C54.227,48.952 53.458,48.986 52.68,49.01C52.582,49.013 52.484,49.015 52.384,49.019C51.596,49.04 50.803,49.053 50.001,49.053C49.972,49.053 49.942,49.052 49.914,49.052C49.166,49.052 48.425,49.039 47.689,49.021C47.55,49.017 47.411,49.013 47.273,49.009C46.523,48.986 45.781,48.952 45.046,48.91C44.944,48.905 44.844,48.897 44.744,48.891C43.176,48.795 41.64,48.661 40.145,48.485C28.265,47.092 18.905,43.246 15.547,38.365C14.673,37.094 14.205,37.784 14.205,38.361L14.205,50.407C14.205,59.371 30.058,66.642 49.68,66.721L50.319,66.718L50.319,66.721C50.389,66.721 50.459,66.718 50.529,66.718L50.92,66.716L50.925,66.71C70.266,66.486 85.795,59.277 85.795,50.406L85.795,38.36C85.794,37.784 85.326,37.094 84.454,38.365Z" style="fill:rgb(4,188,8);fill-rule:nonzero;"/>
    </g>
</svg>
