<?xml version="1.0" encoding="iso-8859-1"?>
<!-- Generator: Adobe Illustrator 21.0.2, SVG Export Plug-In . SVG Version: 6.00 Build 0)  -->
<svg version="1.1" id="Layer_1" xmlns="http://www.w3.org/2000/svg" xmlns:xlink="http://www.w3.org/1999/xlink" x="0px" y="0px"
	 viewBox="0 0 15 16" style="enable-background:new 0 0 15 16;" xml:space="preserve">
<g id="Su7zSW.tif">
	<g>
		<path style="fill:#333333;" d="M14.987,0.5c0.004,0.002,0.012,0.004,0.012,0.006C15,0.523,15,0.54,15,0.556
			c0,2.29,0,4.579,0,6.869c-0.012-0.004-0.024-0.009-0.036-0.011c-0.735-0.133-1.469-0.267-2.204-0.4
			c-0.837-0.152-1.675-0.303-2.512-0.454C9.445,6.415,8.644,6.269,7.842,6.124C7.831,6.122,7.821,6.116,7.803,6.108
			c0.829-0.645,1.652-1.286,2.48-1.929c-0.019-0.014-0.033-0.026-0.049-0.036c-0.701-0.452-1.47-0.71-2.309-0.765
			C7.55,3.353,7.176,3.373,6.804,3.435C6.186,3.539,5.611,3.754,5.08,4.08C3.797,4.87,2.939,6.223,2.816,7.775
			C2.788,8.12,2.8,8.465,2.849,8.809c0.066,0.472,0.202,0.923,0.408,1.354c0.716,1.495,2.205,2.54,3.986,2.672
			c0.436,0.032,0.869,0.008,1.298-0.073c0.854-0.161,1.61-0.52,2.263-1.082c0.523-0.45,0.923-0.989,1.206-1.611
			c0.009-0.02,0.02-0.04,0.03-0.061c0.909,0.217,1.812,0.432,2.72,0.648c-0.008,0.022-0.013,0.038-0.019,0.053
			c-0.164,0.426-0.364,0.835-0.609,1.222c-0.892,1.413-2.128,2.429-3.704,3.048c-0.763,0.3-1.558,0.466-2.379,0.51
			c-0.019,0.001-0.037,0.006-0.056,0.01c-0.251,0-0.503,0-0.754,0c-0.021-0.003-0.042-0.008-0.063-0.01
			c-0.108-0.009-0.217-0.015-0.325-0.025c-0.461-0.042-0.914-0.129-1.359-0.254c-2.002-0.561-3.699-1.918-4.652-3.722
			c-0.482-0.912-0.754-1.88-0.816-2.905C0.02,8.535,0.008,8.486,0,8.438c0-0.192,0-0.383,0-0.575
			C0.005,7.84,0.012,7.818,0.014,7.796C0.03,7.624,0.043,7.452,0.062,7.28C0.11,6.855,0.198,6.437,0.327,6.028
			c0.515-1.632,1.485-2.948,2.905-3.941c1.166-0.816,2.471-1.265,3.902-1.359c0.51-0.034,1.018-0.012,1.524,0.057
			c0.495,0.068,0.978,0.182,1.449,0.345c0.85,0.294,1.622,0.722,2.319,1.281c0.019,0.015,0.039,0.03,0.059,0.045
			c0.02-0.015,0.036-0.026,0.051-0.038c0.362-0.281,0.724-0.562,1.086-0.843c0.439-0.341,0.878-0.681,1.316-1.023
			C14.957,0.538,14.971,0.518,14.987,0.5z"/>
	</g>
</g>
</svg>
