<?xml version="1.0" encoding="iso-8859-1"?>
<!-- Generator: Adobe Illustrator 21.0.2, SVG Export Plug-In . SVG Version: 6.00 Build 0)  -->
<svg version="1.1" xmlns="http://www.w3.org/2000/svg" xmlns:xlink="http://www.w3.org/1999/xlink" x="0px" y="0px"
	 viewBox="0 0 16.284 20" style="enable-background:new 0 0 16.284 20;" xml:space="preserve">
<g id="icon-special-pages">
	<g>
		<g>
			<g>
				<polygon style="fill:#04C134;" points="0.164,0.164 11.202,0.164 16.12,5.027 16.12,19.836 0.164,19.836 				"/>
			</g>
			<g>
				<path style="fill:#01671C;" d="M16.284,20H0V0h11.27l5.015,4.959V20z M0.328,19.672h15.628V5.096l-4.822-4.768H0.328V19.672z"/>
			</g>
		</g>
		<g>
			<polygon style="fill:#B1E2BC;" points="15.929,5.018 11.211,0.41 11.184,5.027 			"/>
			<path style="fill:#01671C;" d="M11.074,5.137l0.029-4.985l5.093,4.975L11.074,5.137z M11.319,0.668l-0.025,4.25l4.367-0.008
				L11.319,0.668z"/>
		</g>
		<g>
			<polygon style="fill:#01671C;" points="15.792,5.301 10.984,5.301 10.984,0.273 11.202,0.273 11.202,5.082 15.792,5.082 			"/>
		</g>
		<g>
			<polygon style="fill:#4FD358;" points="0.273,19.8 0.273,0.492 10.984,0.492 10.984,0.71 0.492,0.71 0.492,19.581 15.592,19.563 
				15.574,5.383 15.792,5.382 15.811,19.781 			"/>
		</g>
		<g id="XMLID_1_">
			<g>
				<path style="fill:#9BE6AE;" d="M11.356,17.543c-0.139,0-0.31-0.047-0.513-0.188l-2.406-1.673c-0.164-0.114-0.472-0.114-0.636,0
					l-2.405,1.674c-0.427,0.296-0.716,0.177-0.85,0.079c-0.134-0.098-0.336-0.335-0.186-0.831l0.847-2.805
					c0.058-0.191-0.038-0.485-0.197-0.606l-2.335-1.77c-0.414-0.315-0.39-0.626-0.338-0.784c0.051-0.158,0.215-0.424,0.734-0.434
					l2.93-0.06c0.199-0.005,0.45-0.186,0.515-0.374L7.48,7.003c0.17-0.49,0.473-0.563,0.639-0.563c0,0,0.001,0,0.001,0
					c0.166,0,0.47,0.073,0.64,0.562l0.962,2.769c0.066,0.188,0.317,0.37,0.517,0.375l2.928,0.06c0.518,0.01,0.682,0.277,0.733,0.434
					c0.051,0.158,0.076,0.469-0.337,0.783l-2.336,1.77c-0.159,0.12-0.254,0.415-0.197,0.606l0.849,2.804
					c0.15,0.496-0.053,0.734-0.187,0.832C11.622,17.486,11.509,17.543,11.356,17.543z M3.656,11.068l1.885,1.428
					c0.452,0.343,0.669,1.012,0.505,1.555l-0.684,2.263l1.941-1.351c0.466-0.325,1.169-0.325,1.635,0l1.941,1.35l-0.685-2.263
					c-0.164-0.545,0.054-1.213,0.506-1.555l1.885-1.428L10.22,11.02c-0.568-0.013-1.137-0.426-1.324-0.962L8.12,7.823l-0.777,2.234
					c-0.185,0.535-0.754,0.949-1.322,0.962L3.656,11.068z"/>
			</g>
		</g>
	</g>
</g>
<g id="Layer_1">
</g>
</svg>
