<?xml version="1.0" encoding="UTF-8" standalone="no"?>
<!DOCTYPE svg PUBLIC "-//W3C//DTD SVG 1.1//EN" "http://www.w3.org/Graphics/SVG/1.1/DTD/svg11.dtd">
<svg width="100%" height="100%" viewBox="0 0 100 100" version="1.1" xmlns="http://www.w3.org/2000/svg" xmlns:xlink="http://www.w3.org/1999/xlink" xml:space="preserve" xmlns:serif="http://www.serif.com/" style="fill-rule:evenodd;clip-rule:evenodd;stroke-linejoin:round;stroke-miterlimit:2;">
    <g transform="matrix(1,0,0,1,50,50)">
        <g transform="matrix(1,0,0,1,-50,-50)">
            <g>
                <g>
                    <g>
                        <rect x="75.5" y="9" width="22" height="82.1" style="fill:rgb(208,208,208);"/>
                        <rect x="39" y="9" width="22" height="82.1" style="fill:rgb(208,208,208);"/>
                        <rect x="2.5" y="9" width="22" height="82.1" style="fill:rgb(208,208,208);"/>
                    </g>
                </g>
            </g>
        </g>
    </g>
    <g transform="matrix(0.85,0,0,0.85,11.75,10.2046)">
        <g transform="matrix(0.888889,0,0,0.888889,0.555556,2.37367)">
            <circle cx="50" cy="50" r="12.272" style="fill:rgb(127,127,127);"/>
        </g>
        <g transform="matrix(0.888889,0,0,0.888889,0.555556,2.37367)">
            <path d="M50,21.363C25.454,21.363 5,47.954 5,50C5,52.044 25.454,78.637 50,78.637C74.545,78.637 95,52.046 95,50C95,47.953 74.546,21.363 50,21.363ZM50,70.454C38.7,70.454 29.546,61.298 29.546,50C29.546,38.699 38.7,29.546 50,29.546C61.299,29.546 70.454,38.699 70.454,50C70.454,61.298 61.299,70.454 50,70.454Z" style="fill:rgb(127,127,127);fill-rule:nonzero;"/>
        </g>
    </g>
</svg>
