<?xml version="1.0" encoding="UTF-8" standalone="no"?>
<!DOCTYPE svg PUBLIC "-//W3C//DTD SVG 1.1//EN" "http://www.w3.org/Graphics/SVG/1.1/DTD/svg11.dtd">
<svg width="100%" height="100%" viewBox="0 0 17 20" version="1.1" xmlns="http://www.w3.org/2000/svg" xmlns:xlink="http://www.w3.org/1999/xlink" xml:space="preserve" xmlns:serif="http://www.serif.com/" style="fill-rule:evenodd;clip-rule:evenodd;stroke-linejoin:round;stroke-miterlimit:2;">
    <g id="content_x5F_draft_x5F_trashed" transform="matrix(1,0,0,-1,0,19.99)">
        <g>
            <g>
                <path d="M13.452,17.342L14.82,15.926L16.082,14.54L16.082,19.821L11.003,19.821L13.452,17.342Z" style="fill:rgb(167,122,75);fill-rule:nonzero;"/>
                <path d="M16.258,19.989L10.596,19.989L13.323,17.228L14.69,15.812L16.258,14.091L16.258,19.989ZM11.41,19.654L15.906,19.654L15.906,14.989L14.952,16.036L13.579,17.458L11.41,19.654Z" style="fill:rgb(126,84,40);fill-rule:nonzero;"/>
            </g>
            <g>
                <g>
                    <g>
                        <path d="M0.164,19.826L11.197,19.826L16.112,14.965L16.112,0.164L0.164,0.164L0.164,19.826Z" style="fill:rgb(235,120,51);fill-rule:nonzero;"/>
                    </g>
                    <g>
                        <path d="M11.264,19.99L0,19.99L0,0L16.276,0L16.276,15.034L11.264,19.99ZM0.328,19.662L11.129,19.662L15.948,14.896L15.948,0.328L0.328,0.328L0.328,19.662Z" style="fill:rgb(193,60,12);fill-rule:nonzero;"/>
                    </g>
                </g>
                <g>
                    <path d="M15.921,14.974L11.206,19.58L11.178,14.965L15.921,14.974Z" style="fill:rgb(238,197,139);fill-rule:nonzero;"/>
                    <path d="M11.098,19.838L11.069,14.855L16.189,14.865L11.098,19.838ZM11.288,15.075L11.313,19.323L15.653,15.084L11.288,15.075Z" style="fill:rgb(193,60,12);fill-rule:nonzero;"/>
                </g>
                <g>
                    <path d="M11.197,19.717L10.978,19.717L10.978,14.692L15.784,14.692L15.784,14.911L11.197,14.911L11.197,19.717Z" style="fill:rgb(193,60,12);fill-rule:nonzero;"/>
                </g>
                <g>
                    <path d="M10.978,19.717L0.273,19.717L0.273,0.489L15.803,0.508L15.784,14.692L15.566,14.692L15.584,0.726L0.492,0.708L0.492,19.498L10.978,19.498L10.978,19.717Z" style="fill:rgb(242,140,90);fill-rule:nonzero;"/>
                </g>
            </g>
        </g>
        <g transform="matrix(1.99048,0.209207,0.209207,-1.99048,-10.7564,23.6714)">
            <g>
                <g>
                    <g>
                        <g>
                            <path d="M11.064,10.958L10.105,11.201C10.002,11.033 9.878,10.88 9.74,10.743L10.213,9.945C10.325,9.759 10.264,9.516 10.076,9.405L9.738,9.204C9.55,9.094 9.308,9.155 9.197,9.342L8.715,10.151C8.515,10.095 8.307,10.067 8.092,10.067L7.879,9.227C7.825,9.018 7.611,8.889 7.4,8.943L7.018,9.039C6.808,9.093 6.68,9.308 6.733,9.519L6.947,10.358C6.742,10.47 6.558,10.609 6.398,10.772L5.72,10.37C5.534,10.259 5.291,10.32 5.18,10.507L4.977,10.845C4.866,11.031 4.93,11.274 5.116,11.386L5.806,11.796C5.772,11.918 5.748,12.043 5.733,12.17C5.731,12.187 10.435,12.671 10.436,12.664C10.447,12.557 10.45,12.449 10.446,12.34L11.356,12.109C11.566,12.056 11.692,11.84 11.641,11.629L11.543,11.247C11.489,11.034 11.276,10.905 11.064,10.958ZM9.065,12.52C9.062,12.554 8.341,12.444 8.197,12.429C7.677,12.374 7.111,12.308 7.104,12.314C7.15,11.92 7.434,11.578 7.841,11.474C8.368,11.341 8.904,11.657 9.038,12.184C9.067,12.297 9.075,12.41 9.065,12.52" style="fill:rgb(238,197,139);fill-rule:nonzero;"/>
                        </g>
                    </g>
                </g>
            </g>
        </g>
    </g>
</svg>
