<?xml version="1.0" encoding="iso-8859-1"?>
<!-- Generator: Adobe Illustrator 21.0.2, SVG Export Plug-In . SVG Version: 6.00 Build 0)  -->
<svg version="1.1" xmlns="http://www.w3.org/2000/svg" xmlns:xlink="http://www.w3.org/1999/xlink" x="0px" y="0px"
	 viewBox="0 0 16 9.652" style="enable-background:new 0 0 16 9.652;" xml:space="preserve">
<g id="icon-title">
	<g>
		<g>
			<path style="fill:#333333;" d="M3.882,0.582h-1.57v5.511c0,0.059-0.025,0.084-0.084,0.084h-0.49
				c-0.059,0-0.084-0.025-0.084-0.084V0.582h-1.57C0.025,0.582,0,0.557,0,0.498V0.084C0,0.025,0.025,0,0.084,0h3.798
				c0.059,0,0.084,0.025,0.084,0.084v0.413C3.967,0.557,3.941,0.582,3.882,0.582z"/>
			<path style="fill:#333333;" d="M6.051,0.591H5.232c-0.059,0-0.084-0.025-0.084-0.084V0.084c0-0.051,0.025-0.076,0.084-0.076
				h0.819c0.059,0,0.084,0.025,0.084,0.076v0.422C6.135,0.565,6.11,0.591,6.051,0.591z M5.89,6.178H5.392
				c-0.059,0-0.084-0.025-0.084-0.084V1.848c0-0.051,0.025-0.076,0.084-0.076H5.89c0.059,0,0.084,0.025,0.084,0.076v4.245
				C5.975,6.152,5.949,6.178,5.89,6.178z"/>
			<path style="fill:#333333;" d="M9.207,6.152L8.852,6.178C8.489,6.203,8.177,6.093,7.916,5.832
				C7.654,5.57,7.527,5.249,7.527,4.861v-4.11c0-0.042,0.025-0.068,0.084-0.076l0.49-0.084C8.16,0.582,8.186,0.608,8.186,0.667
				v1.106h1.021c0.059,0,0.084,0.025,0.084,0.076v0.414c0,0.059-0.025,0.084-0.084,0.084H8.186v2.515
				c0,0.194,0.068,0.371,0.194,0.515c0.127,0.152,0.287,0.228,0.473,0.228h0.354c0.059,0,0.084,0.025,0.084,0.076v0.388
				C9.291,6.119,9.266,6.152,9.207,6.152z"/>
			<path style="fill:#333333;" d="M11.223,6.178h-0.498c-0.059,0-0.084-0.025-0.084-0.084V0.177c0-0.051,0.025-0.076,0.084-0.084
				l0.498-0.084C11.283,0,11.308,0.025,11.308,0.093v6.001C11.308,6.152,11.283,6.178,11.223,6.178z"/>
			<path style="fill:#333333;" d="M15.62,4.034c-0.253,0.253-0.566,0.38-0.937,0.38h-1.325v0.447c0,0.194,0.068,0.371,0.194,0.515
				c0.127,0.143,0.287,0.219,0.473,0.219c0.566,0,1.004-0.042,1.317-0.127c0.059-0.017,0.084,0.017,0.084,0.084v0.363
				c0,0.042-0.017,0.067-0.059,0.084c-0.295,0.118-0.743,0.177-1.342,0.177c-0.371,0-0.684-0.127-0.937-0.371
				C12.827,5.553,12.7,5.241,12.7,4.861V3.097c0-0.38,0.127-0.7,0.38-0.945c0.262-0.253,0.574-0.38,0.945-0.38h0.658
				c0.371,0,0.684,0.127,0.937,0.371C15.873,2.397,16,2.718,16,3.097S15.873,3.789,15.62,4.034z M15.148,2.574
				c-0.127-0.143-0.287-0.219-0.464-0.219h-0.658c-0.186,0-0.346,0.076-0.473,0.219c-0.127,0.144-0.194,0.321-0.194,0.523v0.734
				h1.325c0.177,0,0.338-0.076,0.464-0.219c0.127-0.144,0.194-0.321,0.194-0.515C15.342,2.895,15.274,2.718,15.148,2.574z"/>
		</g>
		<g>
			<rect x="1.181" y="8.205" style="fill:#333333;" width="13.02" height="0.723"/>
		</g>
		<g>
			<rect x="1.181" y="8.929" style="fill:#FFFFFF;" width="13.02" height="0.723"/>
		</g>
	</g>
</g>
<g id="Layer_1">
</g>
</svg>
