<?xml version="1.0" encoding="utf-8"?>
<!-- Generator: Adobe Illustrator 20.0.0, SVG Export Plug-In . SVG Version: 6.00 Build 0)  -->
<svg version="1.1" id="Layer_1" xmlns="http://www.w3.org/2000/svg" xmlns:xlink="http://www.w3.org/1999/xlink" x="0px" y="0px"
	 viewBox="0 0 16 16" enable-background="new 0 0 16 16" xml:space="preserve">
<g>
	<g>
		<rect fill="#0082C8" width="16" height="16"/>
	</g>
	<g>
		<polygon fill="#FFFFFF" points="9.6,1.7 3.1,1.7 3.1,14.1 13.2,14.1 13.2,5.3 		"/>
	</g>
	<g>
		<path fill="#FF5600" d="M10.1,10.7v1.1H6c0-0.4,0.2-0.8,0.4-1.2C6.6,10.2,7,9.7,7.7,9.1c0.5-0.5,0.9-0.8,1-1
			c0.2-0.2,0.2-0.5,0.2-0.7c0-0.3-0.1-0.5-0.2-0.6C8.6,6.7,8.4,6.6,8.1,6.6c-0.2,0-0.4,0.1-0.6,0.2C7.4,7,7.3,7.2,7.3,7.5L6.1,7.4
			C6.2,6.8,6.4,6.3,6.8,6c0.4-0.3,0.8-0.4,1.4-0.4c0.6,0,1.1,0.2,1.4,0.5c0.3,0.3,0.5,0.7,0.5,1.2c0,0.3,0,0.5-0.1,0.8
			C9.8,8.4,9.7,8.6,9.5,8.9C9.3,9.1,9.1,9.3,8.7,9.7C8.3,10,8.1,10.2,8,10.4c-0.1,0.1-0.2,0.2-0.2,0.3H10.1z"/>
	</g>
</g>
</svg>
