<?xml version="1.0" encoding="iso-8859-1"?>
<!-- Generator: Adobe Illustrator 21.0.2, SVG Export Plug-In . SVG Version: 6.00 Build 0)  -->
<svg version="1.1" xmlns="http://www.w3.org/2000/svg" xmlns:xlink="http://www.w3.org/1999/xlink" x="0px" y="0px"
	 viewBox="0 0 16 15.991" style="enable-background:new 0 0 16 15.991;" xml:space="preserve">
<g id="icon-calculated">
	<g id="n0sMqE.tif_2_">
		<g>
			<path style="fill:#333333;" d="M0.178,13.177c0-0.673,0-1.281,0-1.937c2.331,0,4.649,0,7.011,0c0,0.624,0,1.262,0,1.937
				C4.865,13.177,2.547,13.177,0.178,13.177z"/>
			<g>
				<path style="fill:#333333;" d="M16,10.993c0,0.669,0,1.292,0,1.946c-2.332,0-4.635,0-6.988,0c0-0.626,0-1.264,0-1.946
					C11.315,10.993,13.633,10.993,16,10.993z"/>
				<path style="fill:#333333;" d="M13.501,8.922c0.002,0.542-0.442,0.999-0.985,1.012c-0.562,0.014-1.043-0.47-1.027-1.033
					c0.015-0.54,0.478-0.987,1.017-0.981C13.046,7.926,13.499,8.381,13.501,8.922z"/>
				<path style="fill:#333333;" d="M13.501,15.006c-0.009,0.544-0.46,0.991-1.003,0.994c-0.562,0.003-1.035-0.491-1.009-1.052
					c0.026-0.54,0.499-0.979,1.036-0.963C13.065,14.002,13.509,14.467,13.501,15.006z"/>
			</g>
			<path style="fill:#333333;" d="M7.001,4.51c-0.827,0-1.619,0-2.478,0c0,0.852,0,1.659,0,2.499c-0.69,0-1.313,0-2.005,0
				c0-0.797,0-1.605,0-2.481c-0.873,0-1.68,0-2.518,0c0-0.691,0-1.314,0-2.007c0.796,0,1.603,0,2.478,0c0-0.874,0-1.682,0-2.521
				c0.69,0,1.313,0,2.005,0c0,0.797,0,1.605,0,2.481c0.873,0,1.68,0,2.518,0C7.001,3.172,7.001,3.795,7.001,4.51z"/>
			<path style="fill:#333333;" d="M14.001,0.025c0.607,0.612,1.048,1.055,1.509,1.52c-0.557,0.529-1.133,1.075-1.786,1.695
				c0.699,0.608,1.31,1.14,1.896,1.65c-0.602,0.583-1.062,1.028-1.623,1.571c-0.459-0.531-0.99-1.145-1.554-1.798
				c-0.648,0.695-1.188,1.274-1.765,1.893c-0.501-0.578-0.921-1.063-1.409-1.626c0.487-0.428,1.096-0.964,1.771-1.557
				c-0.715-0.675-1.304-1.231-1.865-1.761c0.526-0.519,0.971-0.958,1.464-1.444c0.482,0.544,1.018,1.15,1.663,1.878
				C12.96,1.262,13.482,0.642,14.001,0.025z"/>
		</g>
	</g>
</g>
<g id="Layer_1">
</g>
</svg>
