<?xml version="1.0" encoding="UTF-8" standalone="no"?>
<!DOCTYPE svg PUBLIC "-//W3C//DTD SVG 1.1//EN" "http://www.w3.org/Graphics/SVG/1.1/DTD/svg11.dtd">
<svg width="32px" height="32px" version="1.1" xmlns="http://www.w3.org/2000/svg" xmlns:xlink="http://www.w3.org/1999/xlink" xml:space="preserve" xmlns:serif="http://www.serif.com/" style="fill-rule:evenodd;clip-rule:evenodd;stroke-linejoin:round;stroke-miterlimit:2;">
    <g transform="matrix(1,0,0,1,-1844.22,-40)">
        <g transform="matrix(1,0,0,1.52382,1844.22,39.2381)">
            <path d="M32,3.387C32,1.794 30.029,0.5 27.601,0.5L4.399,0.5C1.971,0.5 0,1.794 0,3.387L0,18.613C0,20.206 1.971,21.5 4.399,21.5L27.601,21.5C30.029,21.5 32,20.206 32,18.613L32,3.387ZM29,3.387L29,18.613C29,19.12 28.373,19.531 27.601,19.531L4.399,19.531C3.627,19.531 3,19.12 3,18.613L3,3.387C3,2.88 3.627,2.469 4.399,2.469L27.601,2.469C28.373,2.469 29,2.88 29,3.387Z" style="fill:white;"/>
        </g>
        <g transform="matrix(1.65212,0,0,1.65212,1846.18,38.7921)">
            <g transform="matrix(0.232627,0,0,1.22088,-449.499,-68.9737)">
                <path d="M1993.5,61.45C1993.5,61.202 1992.56,61 1991.4,61L1974.6,61C1973.44,61 1972.5,61.202 1972.5,61.45L1972.5,65.05C1972.5,65.298 1973.44,65.5 1974.6,65.5L1991.4,65.5C1992.56,65.5 1993.5,65.298 1993.5,65.05L1993.5,61.45Z" style="fill:white;"/>
            </g>
            <g transform="matrix(1.43682,0,0,1.44578,-3.31656,-6.35542)">
                <g transform="matrix(0.966904,0,0,1.6,0.139739,-7.27568)">
                    <path d="M12.5,12.75C12.5,12.612 12.313,12.5 12.084,12.5L4.638,12.5C4.409,12.5 4.222,12.612 4.222,12.75C4.222,12.888 4.409,13 4.638,13L12.084,13C12.313,13 12.5,12.888 12.5,12.75Z" style="fill:white;"/>
                </g>
                <g transform="matrix(1,0,0,1,-0.417589,-0.345834)">
                    <g transform="matrix(0.450126,0,0,1.6,2.74459,-8.45415)">
                        <path d="M12.5,12.75C12.5,12.612 12.099,12.5 11.606,12.5L5.116,12.5C4.623,12.5 4.222,12.612 4.222,12.75C4.222,12.888 4.623,13 5.116,13L11.606,13C12.099,13 12.5,12.888 12.5,12.75Z" style="fill:white;"/>
                    </g>
                    <g transform="matrix(0.450126,0,0,1.6,2.74459,-9.95415)">
                        <path d="M12.5,12.75C12.5,12.612 12.099,12.5 11.606,12.5L5.116,12.5C4.623,12.5 4.222,12.612 4.222,12.75C4.222,12.888 4.623,13 5.116,13L11.606,13C12.099,13 12.5,12.888 12.5,12.75Z" style="fill:white;"/>
                    </g>
                    <g transform="matrix(0.450126,0,0,1.6,2.74459,-11.4541)">
                        <path d="M12.5,12.75C12.5,12.612 12.099,12.5 11.606,12.5L5.116,12.5C4.623,12.5 4.222,12.612 4.222,12.75C4.222,12.888 4.623,13 5.116,13L11.606,13C12.099,13 12.5,12.888 12.5,12.75Z" style="fill:white;"/>
                    </g>
                </g>
                <g transform="matrix(0.966904,0,0,1.6,0.139739,-5.8)">
                    <path d="M12.5,12.75C12.5,12.612 12.313,12.5 12.084,12.5L4.638,12.5C4.409,12.5 4.222,12.612 4.222,12.75C4.222,12.888 4.409,13 4.638,13L12.084,13C12.313,13 12.5,12.888 12.5,12.75Z" style="fill:white;"/>
                </g>
            </g>
        </g>
    </g>
</svg>
