<?xml version="1.0" encoding="UTF-8" standalone="no"?>
<!DOCTYPE svg PUBLIC "-//W3C//DTD SVG 1.1//EN" "http://www.w3.org/Graphics/SVG/1.1/DTD/svg11.dtd">
<svg width="100%" height="100%" viewBox="0 0 17 20" version="1.1" xmlns="http://www.w3.org/2000/svg" xmlns:xlink="http://www.w3.org/1999/xlink" xml:space="preserve" xmlns:serif="http://www.serif.com/" style="fill-rule:evenodd;clip-rule:evenodd;stroke-linejoin:round;stroke-miterlimit:2;">
    <g id="icon-work-in-progress">
        <g>
            <g>
                <g>
                    <rect x="0.164" y="0.137" width="16.001" height="19.726" style="fill:rgb(235,120,51);"/>
                </g>
                <g>
                    <path d="M11.301,20.028L0,20.028L0,-0.028L16.329,-0.028L16.329,20L11.301,20.028ZM0.329,19.699L16,19.699L16,0.301L0.329,0.301L0.329,19.699Z" style="fill:rgb(193,60,12);fill-rule:nonzero;"/>
                </g>
            </g>
            <g transform="matrix(1,0,0,1,-0.0176864,-0.254)">
                <path d="M15.836,19.754L0.274,19.754L0.274,0.463L15.855,0.482L15.836,19.535L15.617,19.534L15.635,0.701L0.493,0.682L0.493,19.535L15.836,19.535L15.836,19.754Z" style="fill:rgb(242,140,90);fill-rule:nonzero;"/>
            </g>
        </g>
        <g transform="matrix(1.99048,-0.209207,0.209207,1.99048,-10.7564,-3.68139)">
            <g>
                <g>
                    <g>
                        <g>
                            <path d="M11.064,10.958L10.105,11.201C10.002,11.033 9.878,10.88 9.74,10.743L10.213,9.945C10.325,9.759 10.264,9.516 10.076,9.405L9.738,9.204C9.55,9.094 9.308,9.155 9.197,9.342L8.715,10.151C8.515,10.095 8.307,10.067 8.092,10.067L7.879,9.227C7.825,9.018 7.611,8.889 7.4,8.943L7.018,9.039C6.808,9.093 6.68,9.308 6.733,9.519L6.947,10.358C6.742,10.47 6.558,10.609 6.398,10.772L5.72,10.37C5.534,10.259 5.291,10.32 5.18,10.507L4.977,10.845C4.866,11.031 4.93,11.274 5.116,11.386L5.806,11.796C5.772,11.918 5.748,12.043 5.733,12.17C5.731,12.187 10.435,12.671 10.436,12.664C10.447,12.557 10.45,12.449 10.446,12.34L11.356,12.109C11.566,12.056 11.692,11.84 11.641,11.629L11.543,11.247C11.489,11.034 11.276,10.905 11.064,10.958ZM9.065,12.52C9.062,12.554 8.341,12.444 8.197,12.429C7.677,12.374 7.111,12.308 7.104,12.314C7.15,11.92 7.434,11.578 7.841,11.474C8.368,11.341 8.904,11.657 9.038,12.184C9.067,12.297 9.075,12.41 9.065,12.52" style="fill:rgb(238,197,139);fill-rule:nonzero;"/>
                        </g>
                    </g>
                </g>
            </g>
        </g>
        <g transform="matrix(0.680009,0,0,0.623349,2.71548,4.58868)">
            <g>
                <g>
                    <g>
                        <path d="M16,4.831L16.05,4.992L16,5.174C14.696,6.948 13.08,8.365 11.058,9.295C9.059,10.214 7.03,10.243 5.018,9.335C2.961,8.405 1.319,6.974 0,5.173L-0.101,4.988L0,4.83C1.315,3.024 2.962,1.595 5.02,0.67C6.98,-0.211 8.973,-0.23 10.943,0.651C13.017,1.58 14.672,3.017 16,4.831ZM8,1.429C5.99,1.427 4.384,3.003 4.373,4.988C4.362,6.966 5.954,8.551 7.975,8.573C9.991,8.595 11.634,6.983 11.625,4.992C11.615,3.006 10.013,1.43 8,1.429Z" style="fill:rgb(51,51,51);fill-rule:nonzero;"/>
                        <path d="M6.184,4.981C6.197,3.996 7.047,3.187 8.041,3.214C9.024,3.24 9.828,4.06 9.815,5.022C9.801,5.987 8.979,6.789 8,6.79C7.003,6.79 6.171,5.961 6.184,4.981Z" style="fill:rgb(51,51,51);fill-rule:nonzero;"/>
                    </g>
                </g>
            </g>
        </g>
    </g>
</svg>
