<?xml version="1.0" encoding="utf-8"?>
<!-- Generator: Adobe Illustrator 21.0.2, SVG Export Plug-In . SVG Version: 6.00 Build 0)  -->
<svg version="1.1" id="Layer_2" xmlns="http://www.w3.org/2000/svg" xmlns:xlink="http://www.w3.org/1999/xlink" x="0px" y="0px"
	 viewBox="0 0 20 20" style="enable-background:new 0 0 20 20;" xml:space="preserve">
<style type="text/css">
	.st0{fill:#CCCACA;}
</style>
<g>
	<g>
		<polygon class="st0" points="18.9,20 17,20 17,18.9 17.9,18.9 17.9,17.9 18.9,17.9 		"/>
	</g>
	<g>
		<path class="st0" d="M15.3,20h-2.4v-1.1h2.4V20z M11.1,20H8.7v-1.1h2.4V20z M6.9,20H4.5v-1.1h2.4V20z"/>
	</g>
	<g>
		<polygon class="st0" points="2.8,20 0.9,20 0.9,17.9 1.9,17.9 1.9,18.9 2.8,18.9 		"/>
	</g>
	<g>
		<path class="st0" d="M1.9,16h-1v-2.7h1V16z M1.9,11.3h-1V8.7h1V11.3z M1.9,6.7h-1V4h1V6.7z"/>
	</g>
	<g>
		<polygon class="st0" points="1.9,2.1 0.9,2.1 0.9,0 2.8,0 2.8,1.1 1.9,1.1 		"/>
	</g>
	<g>
		<path class="st0" d="M15.3,1.1h-2.4V0h2.4V1.1z M11.1,1.1H8.7V0h2.4V1.1z M6.9,1.1H4.5V0h2.4V1.1z"/>
	</g>
	<g>
		<polygon class="st0" points="18.9,2.1 17.9,2.1 17.9,1.1 17,1.1 17,0 18.9,0 		"/>
	</g>
	<g>
		<path class="st0" d="M18.9,16h-1v-2.7h1V16z M18.9,11.3h-1V8.7h1V11.3z M18.9,6.7h-1V4h1V6.7z"/>
	</g>
</g>
</svg>
