<?xml version="1.0" encoding="iso-8859-1"?>
<!-- Generator: Adobe Illustrator 21.0.2, SVG Export Plug-In . SVG Version: 6.00 Build 0)  -->
<svg version="1.1" xmlns="http://www.w3.org/2000/svg" xmlns:xlink="http://www.w3.org/1999/xlink" x="0px" y="0px"
	 viewBox="0 0 20 17.498" style="enable-background:new 0 0 20 17.498;" xml:space="preserve">
<g id="icon-skins">
	<g>
		<path style="fill:#333333;" d="M9.629,2.122C9.364,1.857,8.931,1.424,8.667,1.16L7.705,0.198c-0.264-0.264-0.697-0.264-0.962,0
			L4.819,2.122C4.555,2.387,4.241,2.894,4.123,3.249L3.592,4.844C3.474,5.198,3.161,5.706,2.896,5.97L0.972,7.895
			C0.708,8.159,0.394,8.666,0.276,9.021c0,0-0.747,2.24,0.215,3.202c0.962,0.962,1.923,1.924,2.885,2.886
			c0.962,0.961,1.924,1.923,3.848,0c1.319-1.32,2.886-2.886,4.809-4.81c1.923-1.923,4.164-1.177,4.164-1.177
			c0.355,0.118,0.429-0.001,0.165-0.266L9.629,2.122z M8.667,5.97l-4.809,4.81c-0.264,0.264-0.697,0.264-0.962,0L1.934,9.819
			c-0.264-0.264-0.264-0.697,0-0.962l4.809-4.81c0.264-0.264,0.697-0.264,0.962,0l0.962,0.961C8.931,5.273,8.931,5.706,8.667,5.97z"
			/>
		<path style="fill:#333333;" d="M19.466,5.256c-1.36-4.081-6.801-2.72-6.801-2.72l4.081,5.441c0,0,0,2.72,0,9.522
			C19.466,14.778,20.827,9.337,19.466,5.256z"/>
	</g>
</g>
<g id="Layer_1">
</g>
</svg>
