<?xml version="1.0" encoding="UTF-8" standalone="no"?>
<!DOCTYPE svg PUBLIC "-//W3C//DTD SVG 1.1//EN" "http://www.w3.org/Graphics/SVG/1.1/DTD/svg11.dtd">
<svg width="16px" height="20px" version="1.1" xmlns="http://www.w3.org/2000/svg" xmlns:xlink="http://www.w3.org/1999/xlink" xml:space="preserve" xmlns:serif="http://www.serif.com/" style="fill-rule:evenodd;clip-rule:evenodd;stroke-linejoin:round;stroke-miterlimit:2;">
    <g id="icon-datasets">
        <g>
            <path d="M0,0L0,5.633L15.02,5.633L15.02,0L0,0ZM2.817,4.694L1.878,4.694L1.878,0.939L2.817,0.939L2.817,4.694ZM4.694,4.694L3.755,4.694L3.755,0.939L4.694,0.939L4.694,4.694ZM6.572,4.694L5.633,4.694L5.633,0.939L6.572,0.939L6.572,4.694ZM12.83,3.599C12.441,3.599 12.126,3.284 12.126,2.895C12.126,2.506 12.441,2.191 12.83,2.191C13.219,2.191 13.534,2.506 13.534,2.895C13.534,3.284 13.219,3.599 12.83,3.599Z" style="fill:white;fill-rule:nonzero;"/>
            <path d="M0,7.184L0,12.817L15.02,12.817L15.02,7.184L0,7.184ZM2.817,11.878L1.878,11.878L1.878,8.122L2.817,8.122L2.817,11.878ZM4.694,11.878L3.755,11.878L3.755,8.122L4.694,8.122L4.694,11.878ZM6.572,11.878L5.633,11.878L5.633,8.122L6.572,8.122L6.572,11.878ZM12.83,10.782C12.441,10.782 12.126,10.467 12.126,10.078C12.126,9.689 12.441,9.374 12.83,9.374C13.219,9.374 13.534,9.689 13.534,10.078C13.534,10.467 13.219,10.782 12.83,10.782Z" style="fill:white;fill-rule:nonzero;"/>
            <path d="M0,14.367L0,20L15.02,20L15.02,14.367L0,14.367ZM2.817,19.061L1.878,19.061L1.878,15.306L2.817,15.306L2.817,19.061ZM4.694,19.061L3.755,19.061L3.755,15.306L4.694,15.306L4.694,19.061ZM6.572,19.061L5.633,19.061L5.633,15.306L6.572,15.306L6.572,19.061ZM12.83,17.966C12.441,17.966 12.126,17.651 12.126,17.262C12.126,16.873 12.441,16.558 12.83,16.558C13.219,16.558 13.534,16.873 13.534,17.262C13.534,17.651 13.219,17.966 12.83,17.966Z" style="fill:white;fill-rule:nonzero;"/>
        </g>
    </g>
</svg>
