<?xml version="1.0" encoding="utf-8"?>
<!-- Generator: Adobe Illustrator 21.0.2, SVG Export Plug-In . SVG Version: 6.00 Build 0)  -->
<svg version="1.1" id="Layer_1" xmlns="http://www.w3.org/2000/svg" xmlns:xlink="http://www.w3.org/1999/xlink" x="0px" y="0px"
	 viewBox="0 0 25 16" style="enable-background:new 0 0 25 16;" xml:space="preserve">
<style type="text/css">
	.st0{fill:#333333;}
	.st1{fill:#FFFFFF;}
	.st2{fill:#6F6F6F;}
</style>
<g>
	<path class="st0" d="M23.5,16h-8.8c-0.8,0-1.5-0.7-1.5-1.5v-13c0-0.8,0.7-1.5,1.5-1.5h8.8C24.3,0,25,0.7,25,1.5v13
		C25,15.3,24.3,16,23.5,16z"/>
	<path class="st1" d="M18.5,8.8c-0.7,0-1.4,0-2,0c-0.4,0-0.7-0.3-0.7-0.7c0-0.3,0.3-0.6,0.6-0.6c0.2,0,0.5,0,0.7,0
		c0.5,0,0.9,0,1.4,0c0-0.1,0-0.2,0-0.2c0-0.6,0-1.2,0-1.8c0-0.5,0.4-0.8,0.8-0.7c0.3,0.1,0.5,0.3,0.5,0.7c0,0.6,0,1.2,0,1.8
		c0,0.1,0,0.1,0,0.2c0.1,0,0.1,0,0.2,0c0.6,0,1.2,0,1.8,0c0.3,0,0.5,0.1,0.6,0.4c0.1,0.3,0.1,0.5-0.1,0.7c-0.1,0.2-0.3,0.3-0.6,0.3
		c-0.6,0-1.2,0-1.8,0c-0.1,0-0.1,0-0.2,0c0,0.1,0,0.2,0,0.3c0,0.6,0,1.2,0,1.8c0,0.4-0.3,0.7-0.6,0.7c-0.4,0-0.7-0.3-0.7-0.7
		c0-0.6,0-1.2,0-1.8C18.5,9,18.5,8.9,18.5,8.8z"/>
	<path class="st2" d="M10.3,16H1.5C0.7,16,0,15.3,0,14.5v-13C0,0.7,0.7,0,1.5,0h8.8c0.8,0,1.5,0.7,1.5,1.5v13
		C11.8,15.3,11.1,16,10.3,16z"/>
</g>
</svg>
