<?xml version="1.0" encoding="iso-8859-1"?>
<!-- Generator: Adobe Illustrator 21.0.2, SVG Export Plug-In . SVG Version: 6.00 Build 0)  -->
<svg version="1.1" xmlns="http://www.w3.org/2000/svg" xmlns:xlink="http://www.w3.org/1999/xlink" x="0px" y="0px"
	 viewBox="0 0 18.786 20" style="enable-background:new 0 0 18.786 20;" xml:space="preserve">
<g id="icon-news-articles">
	<g>
		<g>
			<path style="fill:#333333;" d="M9.279,7.225l4.639-2.206c0,0-0.379-5.02-4.639-5.02S4.717,5.02,4.717,5.02L9.279,7.225z"/>
		</g>
		<g>
			<path style="fill:#333333;" d="M9.201,20l-7.04-3.947l-0.007-0.067L0.909,4.415l8.295,4.186l9.07-4.419l-2.107,12.104L9.201,20z
				 M2.405,15.891l6.799,3.812l6.727-3.587L17.929,4.64L9.201,8.892L1.219,4.864L2.405,15.891z"/>
		</g>
		<g>
			<ellipse style="fill:#333333;" cx="1.864" cy="10.952" rx="1.864" ry="1.902"/>
		</g>
		<g>
			<ellipse style="fill:#333333;" cx="16.923" cy="10.952" rx="1.863" ry="1.902"/>
		</g>
		<g>
			
				<rect x="8.713" y="8.563" transform="matrix(1 -0.0051 0.0051 1 -0.0721 0.0459)" style="fill:#333333;" width="0.411" height="11.066"/>
		</g>
	</g>
</g>
<g id="Layer_1">
</g>
</svg>
