<?xml version="1.0" encoding="iso-8859-1"?>
<!-- Generator: Adobe Illustrator 21.0.2, SVG Export Plug-In . SVG Version: 6.00 Build 0)  -->
<svg version="1.1" id="Layer_1" xmlns="http://www.w3.org/2000/svg" xmlns:xlink="http://www.w3.org/1999/xlink" x="0px" y="0px"
	 viewBox="0 0 20 20" style="enable-background:new 0 0 20 20;" xml:space="preserve">
<g id="rXIHYJ.tif">
	<g>
		<path style="fill:#333333;" d="M11.693,10.044c0.198,0.155,0.394,0.312,0.596,0.463c0.789,0.59,1.607,1.145,2.361,1.774
			c0.711,0.593,1.245,1.333,1.447,2.253c0.055,0.249,0.076,0.508,0.078,0.763c0.008,1.272,0.003,2.543,0.004,3.815
			c0,0.269,0.002,0.269,0.284,0.27c0.099,0,0.199-0.002,0.298,0.002c0.186,0.006,0.29,0.106,0.304,0.283
			c0.014,0.182-0.095,0.284-0.267,0.323c-0.061,0.014-0.127,0.007-0.191,0.007c-4.382,0-8.763,0.001-13.145,0.001
			c-0.085,0-0.173,0.009-0.255-0.007c-0.171-0.034-0.283-0.134-0.273-0.317c0.01-0.178,0.114-0.28,0.298-0.289
			c0.12-0.006,0.242-0.011,0.362,0c0.177,0.017,0.232-0.049,0.23-0.223c-0.008-0.848-0.003-1.695-0.004-2.543
			c0-0.403,0.013-0.807-0.003-1.209c-0.039-1.024,0.369-1.876,1.033-2.633c0.659-0.751,1.471-1.323,2.292-1.885
			c0.337-0.23,0.671-0.466,0.995-0.714c0.195-0.149,0.195-0.204-0.004-0.348c-0.57-0.413-1.152-0.81-1.723-1.222
			c-0.728-0.526-1.411-1.099-1.926-1.84C4.043,6.131,3.809,5.436,3.816,4.659C3.828,3.422,3.821,2.185,3.82,0.948
			c0-0.36,0.041-0.328-0.348-0.332C3.394,0.615,3.315,0.618,3.238,0.614C3.054,0.605,2.946,0.51,2.934,0.33
			C2.923,0.149,3.029,0.047,3.201,0.008c0.054-0.012,0.113-0.006,0.17-0.006c4.424,0,8.849,0,13.273,0.001
			c0.07,0,0.144,0.002,0.209,0.023c0.153,0.05,0.23,0.162,0.211,0.321C17.045,0.503,16.95,0.6,16.786,0.611
			c-0.134,0.01-0.27,0.013-0.404,0.003c-0.16-0.012-0.208,0.048-0.207,0.202c0.006,0.827,0.003,1.654,0.003,2.481
			c0,0.431-0.015,0.862,0.003,1.292c0.04,0.999-0.344,1.839-0.984,2.588c-0.673,0.787-1.516,1.377-2.366,1.959
			c-0.314,0.215-0.62,0.441-0.932,0.658c-0.081,0.057-0.173,0.099-0.26,0.148C11.657,9.976,11.675,10.01,11.693,10.044z
			 M4.455,19.336c3.711,0,7.391,0,11.077,0c0.004-0.06,0.01-0.101,0.01-0.142c0.001-1.313,0.003-2.627-0.001-3.94
			c-0.001-0.172-0.024-0.347-0.059-0.516c-0.125-0.617-0.454-1.13-0.871-1.596c-0.628-0.702-1.403-1.23-2.174-1.765
			c-0.399-0.276-0.796-0.56-1.158-0.879c-0.348-0.307-0.331-0.645-0.012-0.985c0.072-0.076,0.149-0.151,0.234-0.213
			c0.348-0.252,0.708-0.488,1.047-0.75c0.64-0.494,1.302-0.967,1.892-1.513c0.671-0.622,1.102-1.392,1.103-2.335
			c0.002-1.272,0-2.543,0-3.815c0-0.074-0.007-0.149-0.011-0.227c-3.699,0-7.378,0-11.076,0c0,0.103,0,0.185,0,0.268
			c0,1.188,0.016,2.377-0.005,3.565C4.435,5.374,4.74,6.12,5.31,6.782c0.607,0.704,1.361,1.234,2.119,1.763
			c0.416,0.29,0.839,0.573,1.224,0.9c0.434,0.369,0.434,0.744,0.007,1.115c-0.349,0.303-0.734,0.567-1.117,0.831
			c-0.773,0.533-1.542,1.067-2.171,1.769c-0.608,0.678-0.949,1.446-0.922,2.368c0.024,0.826,0.005,1.654,0.005,2.481
			C4.455,18.444,4.455,18.881,4.455,19.336z"/>
		<path style="fill:#333333;" d="M9.967,18.71c-1.519,0-3.038,0-4.556,0c-0.338,0-0.43-0.09-0.431-0.417
			c-0.001-0.382,0.011-0.764-0.003-1.146c-0.014-0.372,0.098-0.705,0.374-0.939c0.395-0.333,0.815-0.645,1.257-0.915
			c0.407-0.248,0.851-0.442,1.29-0.635c0.78-0.343,1.366-0.884,1.78-1.61c0.075-0.131,0.145-0.254,0.326-0.256
			c0.191-0.002,0.263,0.126,0.342,0.265c0.409,0.709,0.974,1.253,1.743,1.589c0.745,0.326,1.477,0.679,2.123,1.177
			c0.35,0.27,0.696,0.567,0.734,1.029c0.043,0.524,0.029,1.054,0.02,1.581c-0.003,0.188-0.147,0.276-0.379,0.277
			c-1.015,0.001-2.03,0.001-3.045,0.001C11.017,18.711,10.492,18.711,9.967,18.71C9.967,18.71,9.967,18.71,9.967,18.71z"/>
		<path style="fill:#333333;" d="M5.631,5.527c-0.001-0.151,0.198-0.282,0.467-0.2c0.899,0.275,1.796,0.554,2.697,0.821
			c0.264,0.078,0.538,0.123,0.806,0.187c0.499,0.118,0.976-0.017,1.443-0.149c0.945-0.268,1.882-0.561,2.821-0.851
			c0.349-0.107,0.529,0.041,0.488,0.399c-0.039,0.338-0.168,0.644-0.408,0.874c-0.399,0.382-0.811,0.758-1.259,1.081
			c-0.558,0.403-1.163,0.745-1.74,1.123c-0.247,0.162-0.48,0.345-0.714,0.526c-0.15,0.115-0.29,0.119-0.446,0.013
			C9.108,8.896,8.419,8.455,7.753,7.984C7.231,7.615,6.719,7.229,6.237,6.813C5.885,6.51,5.652,6.115,5.631,5.527z"/>
	</g>
</g>
</svg>
