<?xml version="1.0" encoding="iso-8859-1"?>
<!-- Generator: Adobe Illustrator 21.0.2, SVG Export Plug-In . SVG Version: 6.00 Build 0)  -->
<svg version="1.1" xmlns="http://www.w3.org/2000/svg" xmlns:xlink="http://www.w3.org/1999/xlink" x="0px" y="0px"
	 viewBox="0 0 15 16" style="enable-background:new 0 0 15 16;" xml:space="preserve">
<g id="icon-multi-upload">
	<g>
		<g>
			<path style="fill:#333333;" d="M4.675,6.432c0-1.887,0.006-3.315-0.003-5.201C4.668,0.522,5.114,0.137,5.53,0.045
				c0.123-0.027,0.252-0.04,0.379-0.04C7.772,0.002,9.635,0.007,11.498,0c0.444-0.002,0.793,0.15,1.09,0.483
				c0.693,0.776,1.402,1.538,2.104,2.306c0.201,0.22,0.306,0.481,0.306,0.778c0.001,3.019,0.002,4.421,0,7.44
				c0,0.639-0.499,1.132-1.14,1.133c-2.675,0.002-5.35,0.001-8.025,0c-0.672,0-1.153-0.479-1.156-1.159
				c-0.005-0.943-0.002-0.729-0.002-1.672C4.675,8.349,4.675,7.391,4.675,6.432z M11.092,0.776c-0.052,0-0.107,0-0.162,0
				c-1.005,0-1.498,0-2.504,0c-0.857,0-1.715-0.001-2.572,0.001C5.575,0.777,5.445,0.91,5.441,1.19c0,0.02,0,0.041,0,0.061
				c0,2.952,0,5.445,0,8.397c0,0.826-0.001,0.494,0.001,1.32c0,0.264,0.14,0.403,0.404,0.412c0.041,0.001,0.082,0.001,0.122,0.001
				c2.598,0,5.195-0.001,7.793-0.001c0.342,0,0.473-0.13,0.473-0.47c0.001-1.05,0.001-0.943,0.001-1.993
				c0-1.902-0.001-3.344,0.003-5.246c0-0.143-0.028-0.204-0.193-0.202c-0.658,0.01-1.829,0.005-2.487,0.003
				c-0.288-0.001-0.459-0.169-0.464-0.453c-0.004-0.224-0.002-0.449-0.002-0.673C11.092,1.832,11.092,1.317,11.092,0.776z"/>
			<path style="fill:#333333;" d="M10.527,7.918c0,0.073,0,0.134,0,0.194c0,0.566,0.003,1.131,0,1.697
				c-0.002,0.344-0.245,0.634-0.562,0.686c-0.355,0.057-0.676-0.129-0.781-0.463C9.155,9.941,9.15,9.841,9.15,9.745
				c-0.003-0.561-0.005-1.121,0-1.682C9.15,7.946,9.118,7.902,8.995,7.904C8.627,7.911,8.26,7.909,7.893,7.906
				C7.662,7.904,7.613,7.82,7.727,7.623c0.646-1.121,1.293-2.241,1.94-3.36c0.117-0.201,0.223-0.201,0.339,0.001
				c0.644,1.115,1.288,2.231,1.932,3.347c0.121,0.21,0.07,0.296-0.176,0.297c-0.342,0.001-0.684-0.001-1.025,0
				C10.672,7.908,10.607,7.914,10.527,7.918z"/>
		</g>
		<g>
			<rect x="2.273" y="2.605" style="fill:#333333;" width="0.909" height="11.579"/>
			<rect x="2.273" y="13.276" style="fill:#333333;" width="9.545" height="0.908"/>
		</g>
		<g>
			<rect y="4.421" style="fill:#333333;" width="0.909" height="11.579"/>
			<rect y="15.092" style="fill:#333333;" width="9.545" height="0.908"/>
		</g>
	</g>
</g>
<g id="Layer_1">
</g>
</svg>
