<?xml version="1.0" encoding="iso-8859-1"?>
<!-- Generator: Adobe Illustrator 21.0.2, SVG Export Plug-In . SVG Version: 6.00 Build 0)  -->
<svg version="1.1" id="Layer_1" xmlns="http://www.w3.org/2000/svg" xmlns:xlink="http://www.w3.org/1999/xlink" x="0px" y="0px"
	 viewBox="0 0 16 16" style="enable-background:new 0 0 16 16;" xml:space="preserve">
<g>
	<g>
		<g>
			<rect style="fill:#333333;" width="16" height="16"/>
		</g>
	</g>
	<g>
		<path style="fill:#40B12B;" d="M8,14.519L7.781,14.12c-0.164-0.298-0.426-0.745-0.741-1.281C5.312,9.894,3.625,6.92,3.625,5.75
			c0-2.949,2.26-4,4.375-4s4.375,1.051,4.375,4c0,1.17-1.687,4.144-3.415,7.089c-0.314,0.536-0.577,0.983-0.741,1.281L8,14.519z
			 M8,2.25c-0.647,0-3.875,0.169-3.875,3.5c0,1.132,2.177,4.843,3.346,6.835C7.672,12.929,7.853,13.236,8,13.492
			c0.147-0.256,0.328-0.563,0.529-0.907c1.169-1.992,3.346-5.703,3.346-6.835C11.875,2.419,8.647,2.25,8,2.25z M8,7.312
			c-0.861,0-1.562-0.701-1.562-1.562S7.139,4.188,8,4.188S9.562,4.889,9.562,5.75S8.861,7.312,8,7.312z M8,4.688
			c-0.586,0-1.062,0.477-1.062,1.062S7.414,6.812,8,6.812S9.062,6.336,9.062,5.75S8.586,4.688,8,4.688z"/>
	</g>
</g>
</svg>
