<?xml version="1.0" encoding="iso-8859-1"?>
<!-- Generator: Adobe Illustrator 21.0.2, SVG Export Plug-In . SVG Version: 6.00 Build 0)  -->
<svg version="1.1" id="Layer_1" xmlns="http://www.w3.org/2000/svg" xmlns:xlink="http://www.w3.org/1999/xlink" x="0px" y="0px"
	 viewBox="0 0 16 10" style="enable-background:new 0 0 16 10;" xml:space="preserve">
<g>
	<path style="fill:#FFFFFF;" d="M12.615,4.35c-1.905,0-3.808,0-5.71,0v1.683c1.905,0,3.811,0,5.718,0c0,0.723,0,1.435,0,2.149
		c0.946-1.006,1.884-2.005,2.81-2.99c-0.935-0.996-1.874-1.996-2.818-3.001C12.615,2.906,12.615,3.627,12.615,4.35z"/>
	<path style="fill:#FFFFFF;" d="M3.38,4.35c0-0.728,0-1.448,0-2.166C2.435,3.19,1.497,4.188,0.567,5.178
		C1.501,6.17,2.441,7.169,3.384,8.171c0-0.707,0-1.42,0-2.138c1.918,0,3.834,0,5.75,0V4.35C7.217,4.35,5.3,4.35,3.38,4.35z"/>
	<path style="fill:#FFFFFF;" d="M15.495,0c0,3.327,0,6.648,0,9.974c0.17,0,0.331,0,0.505,0c0-3.33,0-6.651,0-9.974
		C15.828,0,15.663,0,15.495,0z"/>
	<path style="fill:#FFFFFF;" d="M0,10c0.173,0,0.337,0,0.506,0c0-3.327,0-6.645,0-9.971c-0.171,0-0.335,0-0.506,0
		C0,3.362,0,6.68,0,10z"/>
</g>
</svg>
