<?xml version="1.0" encoding="UTF-8" standalone="no"?>
<!DOCTYPE svg PUBLIC "-//W3C//DTD SVG 1.1//EN" "http://www.w3.org/Graphics/SVG/1.1/DTD/svg11.dtd">
<svg width="14px" height="14px" version="1.1" xmlns="http://www.w3.org/2000/svg" xmlns:xlink="http://www.w3.org/1999/xlink" xml:space="preserve" xmlns:serif="http://www.serif.com/" style="fill-rule:evenodd;clip-rule:evenodd;stroke-linejoin:round;stroke-miterlimit:2;">
    <g transform="matrix(0.13701,0,0,0.139559,1.80963,0.477837)">
        <g transform="matrix(0.955133,0,0,0.769267,4.72405,32.7165)">
            <path d="M88.208,20.576C88.208,18.376 86.408,16.576 84.208,16.576L15.792,16.576C13.592,16.576 11.792,18.376 11.792,20.576L11.792,65.326C11.792,67.526 13.592,69.326 15.792,69.326L48.208,69.326C50.408,69.326 53.703,70.328 55.531,71.553L72.385,82.849C74.213,84.074 75.69,83.276 75.666,81.076L75.584,73.326C75.561,71.126 77.342,69.326 79.542,69.326L84.208,69.326C86.408,69.326 88.208,67.526 88.208,65.326L88.208,20.576Z" style="fill:rgb(255,85,0);fill-rule:nonzero;"/>
        </g>
        <g transform="matrix(-0.955133,0,0,0.769267,71.0424,-16.1753)">
            <path d="M88.208,20.576C88.208,18.376 86.408,16.576 84.208,16.576L15.792,16.576C13.592,16.576 11.792,18.376 11.792,20.576L11.792,65.326C11.792,67.526 13.592,69.326 15.792,69.326L48.208,69.326C50.408,69.326 53.703,70.328 55.531,71.553L72.385,82.849C74.213,84.074 75.69,83.276 75.666,81.076L75.584,73.326C75.561,71.126 77.342,69.326 79.542,69.326L84.208,69.326C86.408,69.326 88.208,67.526 88.208,65.326L88.208,20.576Z" style="fill:rgb(67,211,244);fill-rule:nonzero;"/>
        </g>
    </g>
</svg>
