<?xml version="1.0" encoding="UTF-8" standalone="no"?>
<!DOCTYPE svg PUBLIC "-//W3C//DTD SVG 1.1//EN" "http://www.w3.org/Graphics/SVG/1.1/DTD/svg11.dtd">
<svg width="20px" height="8px" version="1.1" xmlns="http://www.w3.org/2000/svg" xmlns:xlink="http://www.w3.org/1999/xlink" xml:space="preserve" xmlns:serif="http://www.serif.com/" style="fill-rule:evenodd;clip-rule:evenodd;stroke-linejoin:round;stroke-miterlimit:2;">
    <g id="icon-spare-alias">
        <g>
            <path d="M0,7.236L2.263,0L2.831,0L0.568,7.236L0,7.236Z" style="fill:white;fill-rule:nonzero;"/>
            <path d="M6.826,6.985C6.77,6.994 6.714,7.003 6.658,7.022C6.034,7.05 5.801,6.994 5.727,6.287L5.708,6.287C5.532,6.742 5.056,7.124 4.563,7.124C3.53,7.124 3.232,6.547 3.232,5.607C3.232,5.411 3.26,4.666 3.977,4.349C4.396,4.163 5.439,3.772 5.532,3.697C5.69,3.576 5.671,3.371 5.671,3.101C5.671,2.514 5.448,2.291 4.852,2.291C4.181,2.291 4.088,2.598 4.097,3.203L3.436,3.203C3.398,2.133 3.929,1.667 4.972,1.667C6.509,1.667 6.378,2.952 6.378,3.073L6.378,6.044C6.378,6.174 6.36,6.36 6.509,6.435C6.611,6.463 6.723,6.454 6.825,6.444L6.825,6.985L6.826,6.985ZM5.615,4.19C5.252,4.405 4.842,4.563 4.451,4.75C4.107,4.908 3.994,5.29 3.994,5.643C3.994,6.165 4.125,6.501 4.721,6.501C5,6.501 5.615,6.287 5.615,5.448L5.615,4.19Z" style="fill:white;fill-rule:nonzero;"/>
            <rect x="7.98" y="0" width="0.735" height="6.985" style="fill:white;fill-rule:nonzero;"/>
            <path d="M10.279,0.931L10.279,0L11.014,0L11.014,0.931L10.279,0.931ZM10.279,6.985L10.279,1.806L11.014,1.806L11.014,6.984L10.279,6.984L10.279,6.985Z" style="fill:white;fill-rule:nonzero;"/>
            <path d="M15.791,6.985C15.735,6.994 15.679,7.003 15.624,7.022C15,7.05 14.767,6.994 14.693,6.287L14.674,6.287C14.497,6.743 14.022,7.124 13.528,7.124C12.495,7.124 12.197,6.547 12.197,5.607C12.197,5.411 12.225,4.666 12.942,4.349C13.361,4.163 14.404,3.772 14.497,3.697C14.655,3.576 14.636,3.371 14.636,3.101C14.636,2.514 14.413,2.291 13.817,2.291C13.146,2.291 13.053,2.598 13.062,3.203L12.401,3.203C12.364,2.132 12.894,1.666 13.938,1.666C15.475,1.666 15.344,2.951 15.344,3.072L15.344,6.043C15.344,6.173 15.326,6.359 15.475,6.434C15.577,6.462 15.689,6.453 15.791,6.443L15.791,6.985ZM14.581,4.19C14.218,4.404 13.808,4.563 13.417,4.75C13.072,4.908 12.96,5.29 12.96,5.643C12.96,6.165 13.091,6.501 13.687,6.501C13.966,6.501 14.581,6.287 14.581,5.448L14.581,4.19Z" style="fill:white;fill-rule:nonzero;"/>
            <path d="M19.097,3.194C19.125,2.58 18.901,2.291 18.277,2.291C17.756,2.291 17.458,2.532 17.458,3.073C17.458,3.744 18.007,3.828 18.51,4.042C19.255,4.377 20,4.563 20,5.532C20,6.519 19.311,7.134 18.249,7.124C17.792,7.134 17.234,6.975 16.963,6.585C16.656,6.175 16.675,5.83 16.675,5.477L17.374,5.477C17.346,6.109 17.56,6.501 18.249,6.501C18.845,6.501 19.236,6.259 19.236,5.625C19.236,4.89 18.491,4.824 17.96,4.601C17.159,4.303 16.694,4.033 16.694,3.129C16.694,2.235 17.318,1.667 18.212,1.667C19.236,1.667 19.832,2.133 19.814,3.194L19.097,3.194Z" style="fill:white;fill-rule:nonzero;"/>
        </g>
    </g>
</svg>
