<?xml version="1.0" encoding="iso-8859-1"?>
<!-- Generator: Adobe Illustrator 21.0.2, SVG Export Plug-In . SVG Version: 6.00 Build 0)  -->
<svg version="1.1" xmlns="http://www.w3.org/2000/svg" xmlns:xlink="http://www.w3.org/1999/xlink" x="0px" y="0px"
	 viewBox="0 0 20 7.662" style="enable-background:new 0 0 20 7.662;" xml:space="preserve">
<g id="icon-error-log">
	<g>
		<path style="fill:#333333;" d="M1.876,7.514v-1.14h1.238V5.345H0V4.364L3.028,0h1.225v4.205h0.981v1.14H4.253v1.029h1.03v1.14
			H1.876z M3.114,1.484L1.299,4.205h1.814V1.484z"/>
		<path style="fill:#333333;" d="M10.264,7.662c-2.292,0-2.477-2.733-2.477-3.8c0-0.919,0.086-3.848,2.501-3.848
			c2.218,0,2.44,2.537,2.44,3.836C12.728,4.756,12.629,7.662,10.264,7.662z M10.264,1.14c-1.25,0-1.325,1.803-1.349,2.513V3.96
			c0,0.944,0.147,2.574,1.373,2.574c1.152,0,1.323-1.667,1.323-2.647C11.611,3.175,11.562,1.14,10.264,1.14z"/>
		<path style="fill:#333333;" d="M16.593,7.514v-1.14h1.238V5.345h-3.114V4.364L17.745,0h1.225v4.205h0.981v1.14H18.97v1.029H20
			v1.14H16.593z M17.831,1.484l-1.814,2.721h1.814V1.484z"/>
	</g>
</g>
<g id="Layer_1">
</g>
</svg>
