<?xml version="1.0" encoding="iso-8859-1"?>
<!-- Generator: Adobe Illustrator 21.0.2, SVG Export Plug-In . SVG Version: 6.00 Build 0)  -->
<svg version="1.1" xmlns="http://www.w3.org/2000/svg" xmlns:xlink="http://www.w3.org/1999/xlink" x="0px" y="0px"
	 viewBox="0 0 18 18" style="enable-background:new 0 0 18 18;" xml:space="preserve">
<g id="icon-footer-site-info">
	<g>
		<circle style="fill:#027DC9;" cx="9" cy="9" r="9"/>
		<g>
			<path style="fill:#FFFFFF;" d="M6.55,14.898v-0.685c0.629-0.022,0.992-0.061,1.09-0.117c0.097-0.056,0.16-0.212,0.188-0.468
				c0.044-0.351,0.067-1.126,0.067-2.325c0-0.518-0.008-0.998-0.025-1.439L7.845,8.886c0-0.323-0.035-0.523-0.104-0.598
				c-0.07-0.075-0.258-0.119-0.564-0.13L6.55,8.133V7.49c1.342-0.101,2.447-0.341,3.316-0.718l0.209,0.167
				c-0.084,1.066-0.125,2.617-0.125,4.654c0,1.178,0.019,1.889,0.058,2.135c0.028,0.173,0.079,0.285,0.153,0.335
				c0.075,0.05,0.438,0.101,1.091,0.151v0.685c-1.004-0.033-1.781-0.05-2.33-0.05C8.628,14.848,7.837,14.865,6.55,14.898z
				 M8.872,2.779c0.356,0,0.661,0.127,0.915,0.38c0.253,0.253,0.38,0.561,0.38,0.923c0,0.356-0.127,0.661-0.38,0.915
				c-0.253,0.253-0.561,0.38-0.923,0.38c-0.356,0-0.661-0.127-0.915-0.38c-0.253-0.253-0.38-0.558-0.38-0.915
				c0-0.362,0.127-0.669,0.38-0.923C8.202,2.906,8.51,2.779,8.872,2.779z"/>
		</g>
	</g>
</g>
<g id="Layer_1">
</g>
</svg>
