<?xml version="1.0" encoding="iso-8859-1"?>
<!-- Generator: Adobe Illustrator 21.0.2, SVG Export Plug-In . SVG Version: 6.00 Build 0)  -->
<svg version="1.1" xmlns="http://www.w3.org/2000/svg" xmlns:xlink="http://www.w3.org/1999/xlink" x="0px" y="0px"
	 viewBox="0 0 16.284 20" style="enable-background:new 0 0 16.284 20;" xml:space="preserve">
<g id="icon-trashed-content">
	<g>
		<g>
			<g>
				<polygon style="fill:#A77A4B;" points="0.164,0.164 11.202,0.164 16.12,5.027 16.12,19.836 0.164,19.836 				"/>
			</g>
			<g>
				<path style="fill:#7E5428;" d="M16.284,20H0V0h11.27l5.015,4.959V20z M0.328,19.672h15.628V5.096l-4.822-4.768H0.328V19.672z"/>
			</g>
		</g>
		<g>
			<polygon style="fill:#E1C3A3;" points="15.929,5.018 11.211,0.41 11.184,5.027 			"/>
			<path style="fill:#7E5428;" d="M11.074,5.137l0.029-4.985l5.093,4.975L11.074,5.137z M11.319,0.668l-0.025,4.25l4.367-0.008
				L11.319,0.668z"/>
		</g>
		<g>
			<polygon style="fill:#7E5428;" points="15.792,5.301 10.984,5.301 10.984,0.273 11.202,0.273 11.202,5.082 15.792,5.082 			"/>
		</g>
		<g>
			<polygon style="fill:#BA8B60;" points="0.273,19.8 0.273,0.492 10.984,0.492 10.984,0.71 0.492,0.71 0.492,19.581 15.592,19.563 
				15.574,5.383 15.792,5.382 15.811,19.781 15.702,19.781 			"/>
		</g>
		<g>
			<g>
				<path style="fill-rule:evenodd;clip-rule:evenodd;fill:#503006;" d="M6.651,6.791c0.929,0,1.859,0,2.789,0
					c0,0.207,0,0.413,0,0.62c0.705,0,1.411,0,2.117,0c0,0.379,0,0.757,0,1.136c-2.341,0-4.682,0-7.022,0c0-0.379,0-0.757,0-1.136
					c0.705,0,1.412,0,2.117,0C6.651,7.204,6.651,6.998,6.651,6.791z"/>
			</g>
			<g>
				<path style="fill-rule:evenodd;clip-rule:evenodd;fill:#503006;" d="M4.792,9.579c2.169,0,4.337,0,6.506,0
					c-0.121,2.375-0.241,4.751-0.362,7.126c-1.944,0-3.89,0-5.835,0C4.999,14.33,4.895,11.954,4.792,9.579z"/>
			</g>
		</g>
	</g>
</g>
<g id="Layer_1">
</g>
</svg>
