<?xml version="1.0" encoding="utf-8"?>
<!-- Generator: Adobe Illustrator 21.0.2, SVG Export Plug-In . SVG Version: 6.00 Build 0)  -->
<svg version="1.1" id="Layer_1" xmlns="http://www.w3.org/2000/svg" xmlns:xlink="http://www.w3.org/1999/xlink" x="0px" y="0px"
	 viewBox="0 0 20 20" style="enable-background:new 0 0 20 20;" xml:space="preserve">
<style type="text/css">
	.st0{fill:#333333;}
</style>
<g>
	<g>
		<path class="st0" d="M16.6,16.9C16.6,16.9,16.6,16.9,16.6,16.9c-0.4,0-3.8-0.2-5-1.3c-2.2-2-2.3-5.7-2.4-5.9
			c0-0.4,0.2-0.7,0.5-0.7c0.3,0,0.5,0.3,0.6,0.6l0,0c0,0,0.2,3.3,1.9,4.9c0.7,0.6,3,1,4.4,1c0.3,0,0.5,0.3,0.5,0.7
			C17.1,16.6,16.9,16.9,16.6,16.9z"/>
	</g>
	<g>
		<path class="st0" d="M7.4,19.5c-0.2,0-0.3-0.1-0.4-0.2c-0.4-0.7-2.8-4.6-3.2-7.1C3.8,12,3.2,8,5,5.3C6,3.8,7.5,3,9.6,3
			c6.2,0,6.4,7.3,6.4,7.3c0,0.4-0.2,0.7-0.5,0.7c-0.3,0-0.5-0.3-0.5-0.6c0-0.3-0.2-6.1-5.3-6.1c-1.7,0-2.9,0.6-3.7,1.8
			c-1.5,2.3-1,5.7-1,5.7c0.3,2.1,2.3,5.6,3,6.6C8,18.7,8,19.1,7.7,19.4C7.7,19.5,7.5,19.5,7.4,19.5z"/>
	</g>
	<g>
		<path class="st0" d="M13.2,20c-0.1,0-0.1,0-0.2,0c-0.1,0-2.5-1.1-4.2-3.1c-1.7-2.1-2.2-5.5-2.2-7c0-2,1.1-3.4,2.9-3.7
			c2.4-0.4,3.4,3.2,3.8,4.7c0.5,1.9,1.9,2.1,2.6,2c1.2-0.1,1.7-1.8,1.8-2.7c0.1-1.1-0.7-4.3-3.2-6.9C12.2,0.7,8.7,1.1,7,2
			C4.5,3.3,2.6,5.8,2.3,8C2.1,10.5,3,15.2,3,15.3c0.1,0.4-0.1,0.7-0.4,0.8C2.3,16.2,2,15.9,2,15.6c0-0.2-1-5-0.7-7.7
			c0.3-2.7,2.4-5.6,5.3-7c2-1,6-1.5,8.7,1.4c2.7,2.9,3.7,6.5,3.5,8.1c-0.2,1.8-1.1,3.6-2.8,3.8c-1.8,0.2-3.2-0.9-3.8-2.9
			c-0.5-2-1.3-4-2.6-3.8C8,7.7,7.7,8.9,7.7,9.9c0,1.1,0.3,4.2,1.8,6.1c1.5,1.8,3.8,2.8,3.8,2.8c0.3,0.1,0.4,0.5,0.3,0.8
			C13.6,19.8,13.4,20,13.2,20z"/>
	</g>
</g>
</svg>
