<?xml version="1.0" encoding="UTF-8" standalone="no"?>
<!DOCTYPE svg PUBLIC "-//W3C//DTD SVG 1.1//EN" "http://www.w3.org/Graphics/SVG/1.1/DTD/svg11.dtd">
<svg width="24px" height="14px" version="1.1" xmlns="http://www.w3.org/2000/svg" xmlns:xlink="http://www.w3.org/1999/xlink" xml:space="preserve" xmlns:serif="http://www.serif.com/" style="fill-rule:evenodd;clip-rule:evenodd;stroke-linejoin:round;stroke-miterlimit:2;">
    <g>
        <path d="M6.3,0.7L4.1,1L2.8,0.2L1.8,0.6L0.7,0.1L0,2.3L1.4,2L2.8,3.8L4,6.7L6,8L5.9,9.2L6.6,10.2L5.9,13.4L6.6,13.9L8.3,11.1L8.3,10.6C8.3,10.6 9,10.5 9.1,10.4C9.2,10.3 9.5,9.3 9.5,9.3L8.4,8.3L7.5,7.8L6.5,7.6L4.7,6.7L5.1,6L6,6L8.4,4.3L7.2,2.3L6.7,2.3L6.3,3.5L5.1,2.3L6.2,1.9L6.3,0.7Z" style="fill:rgb(153,153,153);fill-rule:nonzero;"/>
        <path d="M24,0.8L18.9,0.1L12,0.2L10.6,1.6L11.2,2L11.8,2L12,2.5L10.1,3.2L9.5,4L9.6,4.5L11,3.9L12.9,4.9L12.7,5.3L11.5,5.3L10.8,4.8L9.5,5.1L9.1,6.7L10.2,7.4L11.4,8.1L11.9,10.4L12.4,10.4L13.6,9L13.6,7.4L14.2,6.8L13.6,6.3L14.8,5.8L15.4,5.4L16.4,6.7L17.4,5.7L18,6.6L18.5,6.8L18.7,6C18.7,6 19.4,6.1 19.5,5.9C19.6,5.7 19.7,4.1 19.7,4.1L20.7,3.7L21.4,2.5L21.6,1.9L22.4,2.6L24,0.8Z" style="fill:rgb(153,153,153);fill-rule:nonzero;"/>
        <path d="M19.1,9.2L19.3,10.4L20.7,10.4L21.5,11L21.9,10.9C21.9,10.9 22.5,9.8 22.4,9.7C22.3,9.6 21.3,8.5 21.3,8.5L21,8.7L20.5,8.5L19.1,9.2Z" style="fill:rgb(153,153,153);fill-rule:nonzero;"/>
    </g>
</svg>
