<?xml version="1.0" encoding="UTF-8" standalone="no"?>
<!DOCTYPE svg PUBLIC "-//W3C//DTD SVG 1.1//EN" "http://www.w3.org/Graphics/SVG/1.1/DTD/svg11.dtd">
<svg width="14px" height="18px" version="1.1" xmlns="http://www.w3.org/2000/svg" xmlns:xlink="http://www.w3.org/1999/xlink" xml:space="preserve" xmlns:serif="http://www.serif.com/" style="fill-rule:evenodd;clip-rule:evenodd;stroke-linejoin:round;stroke-miterlimit:2;">
    <g id="menu_navigation_on_state" transform="matrix(1,0,0,1,-0.09,-4.47642e-15)">
        <g transform="matrix(0.18,0,0,0.18,-6.75,4.47642e-15)">
            <rect x="38" y="0" width="25" height="25" style="fill:rgb(209,209,209);"/>
        </g>
        <g transform="matrix(0.18,0,0,0.220755,-6.66,-0.798113)">
            <rect x="47" y="24" width="6" height="53" style="fill:rgb(209,209,209);"/>
        </g>
        <g transform="matrix(0.18,0,0,0.18,1.27898e-15,-1.53)">
            <rect x="10" y="93" width="48" height="6" style="fill:rgb(209,209,209);"/>
        </g>
        <g transform="matrix(0.18,0,0,0.18,1.97,13.5)">
            <rect x="38" y="0" width="25" height="25" style="fill:rgb(209,209,209);"/>
        </g>
        <g transform="matrix(0.18,0,0,0.18,6.39766e-15,-8.73)">
            <rect x="10" y="93" width="48" height="6" style="fill:rgb(209,209,209);"/>
        </g>
        <g transform="matrix(0.18,0,0,0.18,1.97,6.3)">
            <rect x="38" y="0" width="25" height="25" style="fill:rgb(209,209,209);"/>
        </g>
    </g>
</svg>
