<?xml version="1.0" encoding="iso-8859-1"?>
<!-- Generator: Adobe Illustrator 21.0.2, SVG Export Plug-In . SVG Version: 6.00 Build 0)  -->
<svg version="1.1" id="Layer_1" xmlns="http://www.w3.org/2000/svg" xmlns:xlink="http://www.w3.org/1999/xlink" x="0px" y="0px"
	 viewBox="0 0 20 20" style="enable-background:new 0 0 20 20;" xml:space="preserve">
<g>
	<g>
		<path style="fill:#9D9D9D;" d="M16.391,16.645c-0.329-0.513-1.435-0.833-2.529-1.288c-1.095-0.456-1.354-0.614-1.354-0.614
			l-0.01-1.051c0,0,0.41-0.314,0.537-1.302c0.257,0.074,0.526-0.384,0.54-0.623c0.014-0.232-0.035-0.876-0.348-0.81
			c0.064-0.484,0.11-0.92,0.088-1.151c-0.082-0.842-0.912-1.733-2.189-1.733S9.019,8.962,8.937,9.804
			c-0.023,0.232,0.023,0.668,0.087,1.151c-0.313-0.066-0.363,0.578-0.348,0.81c0.014,0.24,0.283,0.698,0.54,0.623
			c0.127,0.988,0.537,1.302,0.537,1.302l-0.01,1.051c0,0-0.259,0.159-1.354,0.614c-1.095,0.456-2.2,0.775-2.529,1.288
			c-0.295,0.461-0.206,2.669-0.206,2.669h5.472h5.472C16.598,19.314,16.687,17.106,16.391,16.645z"/>
		<path style="fill:#333333;" d="M10.75,16.645c-0.329-0.513-1.435-0.833-2.529-1.288c-1.095-0.456-1.354-0.614-1.354-0.614
			l-0.01-1.051c0,0,0.41-0.314,0.537-1.302c0.257,0.074,0.526-0.384,0.54-0.623c0.014-0.232-0.035-0.876-0.348-0.81
			c0.064-0.484,0.11-0.92,0.088-1.151C7.592,8.962,6.761,8.071,5.484,8.071S3.377,8.962,3.296,9.804
			c-0.023,0.232,0.023,0.668,0.087,1.151c-0.313-0.066-0.363,0.578-0.348,0.81c0.014,0.24,0.283,0.698,0.54,0.623
			c0.127,0.988,0.537,1.302,0.537,1.302l-0.01,1.051c0,0-0.259,0.159-1.354,0.614c-1.095,0.456-2.2,0.775-2.529,1.288
			c-0.295,0.461-0.206,2.669-0.206,2.669h5.472h5.472C10.956,19.314,11.045,17.106,10.75,16.645z"/>
	</g>
	<path style="fill:#333333;" d="M20,3.179c0-1.377-1.116-2.493-2.493-2.493c-1.377,0-2.493,1.116-2.493,2.493
		c0,1.144,0.771,2.106,1.822,2.399l-0.575,6.327h2.493l-0.575-6.327C19.229,5.284,20,4.323,20,3.179z"/>
</g>
</svg>
