<?xml version="1.0" encoding="iso-8859-1"?>
<!-- Generator: Adobe Illustrator 21.0.2, SVG Export Plug-In . SVG Version: 6.00 Build 0)  -->
<svg version="1.1" xmlns="http://www.w3.org/2000/svg" xmlns:xlink="http://www.w3.org/1999/xlink" x="0px" y="0px"
	 viewBox="0 0 20 13.537" style="enable-background:new 0 0 20 13.537;" xml:space="preserve">
<g id="icon-groups">
	<g>
		<path style="fill:#9D9D9D;" d="M19.736,10.324c-0.396-0.618-1.727-1.002-3.045-1.551c-1.318-0.549-1.63-0.74-1.63-0.74
			l-0.012-1.265c0,0,0.494-0.379,0.647-1.568c0.309,0.089,0.633-0.462,0.65-0.751c0.017-0.28-0.042-1.055-0.419-0.976
			c0.077-0.582,0.133-1.108,0.106-1.386C15.934,1.073,14.934,0,13.396,0s-2.537,1.073-2.635,2.087
			c-0.027,0.279,0.028,0.804,0.105,1.386c-0.377-0.079-0.437,0.696-0.419,0.976c0.017,0.289,0.341,0.84,0.65,0.751
			c0.153,1.19,0.647,1.568,0.647,1.568l-0.012,1.265c0,0-0.312,0.191-1.63,0.74c-1.318,0.549-2.649,0.934-3.045,1.551
			c-0.355,0.555-0.249,3.213-0.249,3.213h6.588h6.588C19.985,13.537,20.092,10.878,19.736,10.324z"/>
		<path style="fill:#333333;" d="M12.943,10.324c-0.396-0.618-1.727-1.002-3.045-1.551c-1.318-0.549-1.63-0.74-1.63-0.74
			L8.255,6.768c0,0,0.494-0.379,0.647-1.568c0.309,0.089,0.633-0.462,0.65-0.751C9.57,4.169,9.51,3.394,9.134,3.473
			C9.211,2.891,9.266,2.366,9.24,2.087C9.141,1.073,8.141,0,6.604,0S4.066,1.073,3.968,2.087C3.941,2.366,3.996,2.891,4.074,3.473
			C3.697,3.394,3.637,4.169,3.654,4.449c0.017,0.289,0.341,0.84,0.65,0.751c0.153,1.19,0.647,1.568,0.647,1.568L4.939,8.033
			c0,0-0.312,0.191-1.63,0.74C1.991,9.321,0.66,9.706,0.264,10.324c-0.355,0.555-0.249,3.213-0.249,3.213h6.588h6.588
			C13.192,13.537,13.299,10.878,12.943,10.324z"/>
	</g>
</g>
<g id="Layer_1">
</g>
</svg>
