<?xml version="1.0" encoding="UTF-8" standalone="no"?>
<!DOCTYPE svg PUBLIC "-//W3C//DTD SVG 1.1//EN" "http://www.w3.org/Graphics/SVG/1.1/DTD/svg11.dtd">
<svg width="100%" height="100%" viewBox="0 0 18 18" version="1.1" xmlns="http://www.w3.org/2000/svg" xmlns:xlink="http://www.w3.org/1999/xlink" xml:space="preserve" xmlns:serif="http://www.serif.com/" style="fill-rule:evenodd;clip-rule:evenodd;stroke-linejoin:round;stroke-miterlimit:2;">
    <g id="icon-Configuration-off-state">
        <g>
            <g>
                <g>
                    <path d="M11.449,10.513L9.76,10.513C9.66,10.19 9.518,9.883 9.346,9.599L10.466,8.476C10.731,8.215 10.731,7.787 10.466,7.524L9.992,7.049C9.728,6.786 9.302,6.788 9.039,7.049L7.899,8.187C7.592,8.011 7.258,7.877 6.903,7.785L6.903,6.304C6.903,5.933 6.603,5.63 6.23,5.63L5.557,5.63C5.186,5.63 4.885,5.933 4.885,6.304L4.885,7.785C4.497,7.882 4.134,8.037 3.801,8.239L2.848,7.287C2.585,7.025 2.157,7.024 1.895,7.287L1.417,7.762C1.154,8.025 1.158,8.452 1.419,8.716L2.389,9.687C2.185,10.044 2.03,10.435 1.943,10.849L0.675,10.849C0.302,10.85 0,11.151 0,11.524L0,12.197C0,12.568 0.302,12.869 0.675,12.869L2.028,12.869C2.151,13.276 2.336,13.65 2.573,13.99L1.658,14.905C1.394,15.171 1.394,15.597 1.655,15.86L2.131,16.335C2.395,16.597 2.822,16.597 3.085,16.334L4.108,15.313C4.452,15.482 4.827,15.607 5.22,15.671L5.22,17.079C5.22,17.451 5.521,17.753 5.893,17.753L6.567,17.753C6.938,17.752 7.239,17.45 7.239,17.079L7.239,15.497C7.578,15.377 7.9,15.216 8.191,15.011L9.275,16.097C9.539,16.36 9.964,16.36 10.228,16.097L10.704,15.621C10.969,15.358 10.969,14.933 10.702,14.668L9.514,13.479C9.66,13.183 9.773,12.867 9.843,12.534L11.448,12.534C11.821,12.534 12.122,12.234 12.123,11.86L12.123,11.187C12.124,10.815 11.823,10.513 11.449,10.513ZM5.894,13.375C4.964,13.375 4.211,12.624 4.211,11.692C4.211,10.762 4.964,10.01 5.894,10.01C6.824,10.01 7.578,10.762 7.578,11.692C7.578,12.624 6.824,13.375 5.894,13.375Z" style="fill:rgb(4,188,8);fill-rule:nonzero;"/>
                </g>
            </g>
            <g>
                <g>
                    <path d="M17.28,2.726L16.107,3.024C15.981,2.819 15.829,2.632 15.66,2.464L16.239,1.488C16.376,1.26 16.301,0.963 16.071,0.828L15.658,0.582C15.428,0.447 15.132,0.522 14.996,0.75L14.406,1.74C14.162,1.672 13.907,1.637 13.644,1.638L13.383,0.61C13.318,0.354 13.056,0.196 12.798,0.262L12.332,0.38C12.075,0.446 11.919,0.709 11.983,0.966L12.245,1.992C11.995,2.129 11.769,2.299 11.573,2.499L10.744,2.006C10.517,1.87 10.219,1.945 10.083,2.173L9.836,2.588C9.7,2.815 9.778,3.113 10.005,3.249L10.849,3.751C10.77,4.036 10.733,4.334 10.743,4.637L9.866,4.86C9.607,4.925 9.451,5.188 9.516,5.448L9.635,5.913C9.7,6.171 9.963,6.326 10.222,6.261L11.161,6.023C11.318,6.284 11.512,6.511 11.736,6.704L11.261,7.501C11.127,7.731 11.201,8.027 11.428,8.164L11.842,8.41C12.072,8.545 12.369,8.47 12.504,8.24L13.034,7.352C13.302,7.408 13.583,7.428 13.868,7.405L14.116,8.382C14.181,8.639 14.444,8.796 14.702,8.73L15.17,8.611C15.426,8.546 15.583,8.283 15.518,8.025L15.24,6.927C15.454,6.783 15.648,6.617 15.814,6.42L16.757,6.983C16.987,7.119 17.282,7.045 17.419,6.815L17.665,6.401C17.801,6.173 17.727,5.878 17.496,5.74L16.462,5.126C16.512,4.893 16.535,4.655 16.524,4.412L17.637,4.129C17.894,4.064 18.048,3.8 17.986,3.542L17.867,3.075C17.799,2.818 17.538,2.661 17.28,2.726ZM13.932,5.692C13.287,5.856 12.632,5.467 12.467,4.819C12.303,4.174 12.695,3.521 13.339,3.356C13.983,3.193 14.639,3.579 14.803,4.225C14.967,4.873 14.577,5.528 13.932,5.692Z" style="fill:rgb(4,188,8);fill-rule:nonzero;"/>
                </g>
            </g>
        </g>
    </g>
</svg>
