<?xml version="1.0" encoding="iso-8859-1"?>
<!-- Generator: Adobe Illustrator 21.0.2, SVG Export Plug-In . SVG Version: 6.00 Build 0)  -->
<svg version="1.1" xmlns="http://www.w3.org/2000/svg" xmlns:xlink="http://www.w3.org/1999/xlink" x="0px" y="0px"
	 viewBox="0 0 17.91 20" style="enable-background:new 0 0 17.91 20;" xml:space="preserve">
<g id="icon-events-content-types-dark">
	<g>
		<g>
			<path style="fill:#333333;" d="M10.505,13.493c-0.223-1.455-0.665-3.485-1.676-4.412C7.813,8.154,7.328,8.42,6.798,8.728
				c-0.528,0.309-1.237,0.838-1.679,1.06c-0.439,0.22-0.88,0.397-0.88,0.397s-1.194,0.353-2.075,0.397
				c-0.882,0.044-2.118,0.795-2.16,1.501c-0.044,0.705,0.395,2.339,1.278,3.794c0.882,1.457,2.957,3.795,4.194,4.016
				c1.236,0.221,3.218,0.221,4.147-1.192C10.547,17.289,10.725,14.951,10.505,13.493z M7.149,11.509
				c0.443-0.045,1.095,0.256,1.281,0.484c0.2,0.244,0.572,0.529,0.222,0.529c-0.357,0-0.751,0-1.412,0c-0.662,0-1.457,0-1.457,0
				S6.711,11.553,7.149,11.509z M2.915,14.73c-0.308,0.398-0.53,0.134-0.572-0.176c-0.044-0.309,0.572-1.302,0.572-1.302
				s0.129-0.154,0.308-0.243c0.178-0.089,0.486-0.132,1.058-0.087c0.577,0.043,0.31,0.396,0,0.572
				C3.973,13.672,3.223,14.332,2.915,14.73z M9.359,16.539c-0.223-0.044-1.994-0.594-2.605-0.353
				c-0.729,0.286-1.345,0.861-1.721,1.457c-0.315,0.501-0.574,0.883-0.574,0.883s-0.133-2.251,0.75-3.001
				c0.882-0.751,2.207-0.838,3.044-0.221C9.094,15.921,9.579,16.583,9.359,16.539z"/>
		</g>
		<g>
			<path style="fill:#333333;" d="M16.973,3.636c-0.562-0.246-1.407-0.504-1.845-0.731c-0.44-0.227-0.842-0.479-0.842-0.479
				S13.3,1.673,12.74,0.986c-0.554-0.687-1.889-1.243-2.483-0.862c-0.6,0.381-1.658,1.7-2.314,3.271
				C7.288,4.967,6.623,8.02,7.171,9.149c0.551,1.128,1.723,2.732,3.409,2.649c1.686-0.085,3.68-1.321,4.728-2.358
				c1.044-1.036,2.423-2.59,2.575-3.957C18.031,4.116,17.532,3.881,16.973,3.636z M9.84,3.256c0.399-0.176,1.016-0.044,1.415,0.31
				c0.399,0.354,0.308,1.809,0.308,1.809s-0.486-0.266-0.751-0.53c-0.264-0.264-0.486-0.484-0.838-0.573
				C9.712,4.207,9.18,4.139,9.136,4.006C9.094,3.874,9.445,3.433,9.84,3.256z M12.578,9.876c-0.751,0.442-2.206,0.529-2.782,0.486
				C9.224,10.318,8.43,9.037,8.252,8.64C8.077,8.243,8.386,5.905,8.565,5.684c0.173-0.221,1.145,1.324,1.145,1.324
				s0.222,0.31,0.487,0.573c0.264,0.265,0.659,0.573,1.014,0.707c0.352,0.132,1.723,0.22,2.204,0.352
				C13.901,8.772,13.076,9.585,12.578,9.876z M15.182,7.581c-0.135,0.176-0.443-0.176-0.665-0.485
				c-0.217-0.31-0.881-0.662-1.276-0.707c-0.399-0.043-0.443-0.352-0.355-0.529c0.091-0.177,1.146-0.308,1.146-0.308
				s0.819,0.198,1.327,0.75C15.747,6.725,15.315,7.404,15.182,7.581z"/>
		</g>
	</g>
</g>
<g id="Layer_1">
</g>
</svg>
