<?xml version="1.0" encoding="iso-8859-1"?>
<!-- Generator: Adobe Illustrator 21.0.2, SVG Export Plug-In . SVG Version: 6.00 Build 0)  -->
<svg version="1.1" xmlns="http://www.w3.org/2000/svg" xmlns:xlink="http://www.w3.org/1999/xlink" x="0px" y="0px"
	 viewBox="0 0 20 20" style="enable-background:new 0 0 20 20;" xml:space="preserve">
<g id="icon-suspended-users">
	<g>
		<g>
			<path style="fill:#333333;" d="M7.134,6.897c0.205,1.578,0.867,2.08,0.867,2.08L7.99,10.105l5.621-5.567
				c0.098-0.744,0.167-1.411,0.133-1.769C13.612,1.423,12.273,0,10.213,0c-2.059,0-3.399,1.423-3.53,2.768
				c-0.037,0.37,0.038,1.067,0.141,1.839C6.32,4.502,6.24,5.531,6.263,5.902C6.286,6.285,6.72,7.016,7.134,6.897z"/>
			<path style="fill:#333333;" d="M6.925,11.159c-0.294,0.13-0.662,0.287-1.124,0.478c-1.765,0.728-3.548,1.238-4.079,2.058
				c-0.285,0.441-0.348,1.882-0.353,2.967L6.925,11.159z"/>
			<path style="fill:#333333;" d="M15.568,11.894c-1.765-0.728-2.184-0.981-2.184-0.981l-0.017-1.678c0,0,0.368-0.28,0.64-1.076
				L3.854,18.214h7.301h8.824c0,0,0.143-3.527-0.333-4.263C19.117,13.132,17.334,12.622,15.568,11.894z"/>
		</g>
		<polygon style="fill:#333333;" points="19.793,1.145 0.755,20 0,19.252 19.038,0.397 		"/>
	</g>
</g>
<g id="Layer_1">
</g>
</svg>
