<?xml version="1.0" encoding="UTF-8" standalone="no"?>
<!DOCTYPE svg PUBLIC "-//W3C//DTD SVG 1.1//EN" "http://www.w3.org/Graphics/SVG/1.1/DTD/svg11.dtd">
<svg width="20px" height="17px" version="1.1" xmlns="http://www.w3.org/2000/svg" xmlns:xlink="http://www.w3.org/1999/xlink" xml:space="preserve" xmlns:serif="http://www.serif.com/" style="fill-rule:evenodd;clip-rule:evenodd;stroke-linejoin:round;stroke-miterlimit:2;">
    <g id="icon-back-ups">
        <g>
            <path d="M0,9.177L0,16.677L20,16.677L20,9.177L0,9.177ZM3.75,15.427L2.5,15.427L2.5,10.427L3.75,10.427L3.75,15.427ZM6.25,15.427L5,15.427L5,10.427L6.25,10.427L6.25,15.427ZM8.75,15.427L7.5,15.427L7.5,10.427L8.75,10.427L8.75,15.427ZM17.084,13.969C16.566,13.969 16.146,13.549 16.146,13.031C16.146,12.513 16.566,12.093 17.084,12.093C17.602,12.093 18.022,12.513 18.022,13.031C18.022,13.549 17.601,13.969 17.084,13.969Z" style="fill:white;fill-rule:nonzero;"/>
            <path d="M2.601,5.964C3.676,3.457 6.452,2.011 9.199,2.545C10.628,2.823 11.883,3.595 12.765,4.721L11.256,5.366L15.79,8.3L16.321,3.068L15.044,3.675C13.816,1.848 11.907,0.592 9.662,0.156C5.662,-0.62 1.71,1.565 0.277,5.285L0.038,5.926L2.427,6.39L2.601,5.964Z" style="fill:white;fill-rule:nonzero;"/>
        </g>
    </g>
</svg>
