<?xml version="1.0" encoding="UTF-8" standalone="no"?><!DOCTYPE svg PUBLIC "-//W3C//DTD SVG 1.1//EN" "http://www.w3.org/Graphics/SVG/1.1/DTD/svg11.dtd"><svg width="100%" height="100%" viewBox="0 0 167 46" version="1.1" xmlns="http://www.w3.org/2000/svg" xmlns:xlink="http://www.w3.org/1999/xlink" xml:space="preserve" xmlns:serif="http://www.serif.com/" style="fill-rule:evenodd;clip-rule:evenodd;stroke-linejoin:round;stroke-miterlimit:2;"><g><path d="M65.655,17.351l0,5.333l46.667,0l-0,-5.333l-46.667,-0Zm0,21.333l0,5.334l46.667,-0l-0,-5.334l-46.667,0Z" style="fill:#333;fill-rule:nonzero;"/></g><g><path d="M65.655,13.184l0,5.334l46.667,-0l-0,-5.334l-46.667,0Zm0,21.334l0,5.333l46.667,-0l-0,-5.333l-46.667,-0Z" style="fill:#333;fill-rule:nonzero;"/></g><g><path d="M2.557,17.71l-0,5.333l46.666,0l0,-5.333l-46.666,-0Zm-0,21.333l-0,5.333l46.666,0l0,-5.333l-46.666,0Z" style="fill:#333;fill-rule:nonzero;"/></g><g><path d="M2.557,13.543l-0,5.333l46.666,0l0,-5.333l-46.666,0Zm-0,21.333l-0,5.334l46.666,-0l0,-5.334l-46.666,0Z" style="fill:#333;fill-rule:nonzero;"/></g><g><path d="M143.798,1.329l0,15.166l-15.167,0l0,6.5l15.167,0l0,15.167l6.5,0l0,-15.167l15.167,0l-0,-6.5l-15.167,0l0,-15.166l-6.5,-0Z" style="fill:#333;fill-rule:nonzero;"/></g></svg>