<?xml version="1.0" encoding="iso-8859-1"?>
<!-- Generator: Adobe Illustrator 21.0.2, SVG Export Plug-In . SVG Version: 6.00 Build 0)  -->
<svg version="1.1" xmlns="http://www.w3.org/2000/svg" xmlns:xlink="http://www.w3.org/1999/xlink" x="0px" y="0px"
	 viewBox="0 0 16 16" style="enable-background:new 0 0 16 16;" xml:space="preserve">
<g id="icon-question">
	<g>
		<g>
			<circle style="fill:#027DC9;" cx="8" cy="8" r="8"/>
		</g>
		<g>
			<path style="fill:#FFFFFF;" d="M6.144,3.971C6.618,3.666,7.2,3.513,7.892,3.513c0.908,0,1.662,0.217,2.263,0.651
				c0.601,0.434,0.901,1.077,0.901,1.929c0,0.522-0.13,0.962-0.391,1.32c-0.152,0.217-0.445,0.494-0.878,0.832L9.361,8.576
				C9.128,8.756,8.974,8.967,8.898,9.208C8.85,9.361,8.824,9.598,8.82,9.92H7.186C7.21,9.241,7.275,8.771,7.379,8.512
				c0.104-0.259,0.373-0.558,0.805-0.895l0.439-0.344c0.144-0.108,0.26-0.227,0.349-0.356c0.16-0.221,0.24-0.464,0.24-0.729
				c0-0.305-0.089-0.583-0.268-0.835C8.766,5.103,8.44,4.978,7.967,4.978c-0.465,0-0.795,0.155-0.989,0.464
				C6.783,5.751,6.686,6.072,6.686,6.406H4.944C4.993,5.261,5.392,4.449,6.144,3.971z M7.144,10.745h1.802v1.742H7.144V10.745z"/>
		</g>
	</g>
</g>
<g id="Layer_1">
</g>
</svg>
