<?xml version="1.0" encoding="UTF-8" standalone="no"?>
<!DOCTYPE svg PUBLIC "-//W3C//DTD SVG 1.1//EN" "http://www.w3.org/Graphics/SVG/1.1/DTD/svg11.dtd">
<svg width="100%" height="100%" viewBox="0 0 17 20" version="1.1" xmlns="http://www.w3.org/2000/svg" xmlns:xlink="http://www.w3.org/1999/xlink" xml:space="preserve" xmlns:serif="http://www.serif.com/" style="fill-rule:evenodd;clip-rule:evenodd;stroke-linejoin:round;stroke-miterlimit:2;">
    <g transform="matrix(1,0,0,-1,0,19.99)">
        <g id="home_x5F_content_x5F_draft_x5F_published">
            <g>
                <g>
                    <path d="M13.458,17.346L14.827,15.929L16.09,14.542L16.09,19.826L11.009,19.826L13.458,17.346Z" style="fill:rgb(4,193,52);fill-rule:nonzero;"/>
                    <path d="M16.266,19.994L10.601,19.994L13.33,17.231L14.698,15.815L16.266,14.093L16.266,19.994ZM11.416,19.658L15.914,19.658L15.914,14.991L14.96,16.039L13.586,17.461L11.416,19.658Z" style="fill:rgb(1,103,28);fill-rule:nonzero;"/>
                </g>
                <g>
                    <g>
                        <g>
                            <path d="M0.164,19.831L11.202,19.831L16.12,14.968L16.12,0.159L0.164,0.159L0.164,19.831Z" style="fill:rgb(235,120,51);fill-rule:nonzero;"/>
                        </g>
                        <g>
                            <path d="M11.27,19.995L0,19.995L0,-0.005L16.284,-0.005L16.284,15.036L11.27,19.995ZM0.328,19.667L11.135,19.667L15.957,14.899L15.957,0.323L0.328,0.323L0.328,19.667Z" style="fill:rgb(193,60,12);fill-rule:nonzero;"/>
                        </g>
                    </g>
                    <g transform="matrix(1,0,0,-1,0.355,19.545)">
                        <path d="M13.524,9.918L11.443,8.33L11.443,5.702L9.957,5.702L9.957,7.193L7.787,5.537L2.05,9.918L2.953,11.1L3.571,10.629L3.571,16.055L12.005,16.055L12.005,10.629L12.623,11.1L13.524,9.918ZM11.178,15.229L9.274,15.229L9.274,12.09L6.3,12.09L6.3,15.228L4.397,15.228L4.397,10.1L7.787,7.512L11.178,10.1L11.178,15.229Z" style="fill:rgb(238,197,139);fill-rule:nonzero;"/>
                    </g>
                    <g transform="matrix(1,0,0,1,-0.00097464,-0.232)">
                        <path d="M10.984,19.722L0.273,19.722L0.273,0.484L15.811,0.503L15.792,14.959L15.574,14.958L15.592,0.721L0.492,0.703L0.492,19.503L10.984,19.503L10.984,19.722Z" style="fill:rgb(242,140,90);fill-rule:nonzero;"/>
                    </g>
                    <g>
                        <path d="M15.929,14.977L11.211,19.585L11.184,14.968L15.929,14.977Z" style="fill:rgb(238,197,139);fill-rule:nonzero;"/>
                        <path d="M11.104,19.843L11.075,14.858L16.198,14.868L11.104,19.843ZM11.294,15.077L11.319,19.327L15.661,15.085L11.294,15.077Z" style="fill:rgb(193,60,12);fill-rule:nonzero;"/>
                    </g>
                    <g>
                        <path d="M11.202,19.722L10.984,19.722L10.984,14.694L15.792,14.694L15.792,14.913L11.202,14.913L11.202,19.722Z" style="fill:rgb(193,60,12);fill-rule:nonzero;"/>
                    </g>
                </g>
            </g>
        </g>
    </g>
</svg>
