<?xml version="1.0" encoding="UTF-8" standalone="no"?>
<!DOCTYPE svg PUBLIC "-//W3C//DTD SVG 1.1//EN" "http://www.w3.org/Graphics/SVG/1.1/DTD/svg11.dtd">
<svg width="100%" height="100%" viewBox="0 0 18 18" version="1.1" xmlns="http://www.w3.org/2000/svg" xmlns:xlink="http://www.w3.org/1999/xlink" xml:space="preserve" xmlns:serif="http://www.serif.com/" style="fill-rule:evenodd;clip-rule:evenodd;stroke-linejoin:round;stroke-miterlimit:2;">
    <g id="Layer_10">
        <g id="New_Symbol_71">
            <path d="M16.46,11.709L18,4.138L3.364,2.17L2.192,1.384C2.212,1.3 2.244,1.22 2.244,1.128C2.244,0.505 1.741,0 1.122,0C0.503,0 0,0.505 0,1.128C0,1.751 0.503,2.255 1.122,2.255C1.2,2.255 1.27,2.225 1.345,2.21L2.722,3.134L5.006,12.193L5.7,12.164L5.078,14.136C5.054,14.135 5.032,14.128 5.006,14.128C3.943,14.128 3.082,14.996 3.082,16.064C3.082,17.134 3.944,17.999 5.006,17.999C5.796,17.999 6.472,17.52 6.769,16.838L12.851,16.838C13.134,17.52 13.803,18 14.583,18C15.619,18 16.46,17.155 16.46,16.112C16.46,15.07 15.619,14.225 14.583,14.225C13.696,14.225 12.958,14.846 12.761,15.677L6.891,15.677C6.796,15.209 6.529,14.808 6.165,14.529L6.926,12.112L16.46,11.709Z" style="fill:rgb(4,188,8);fill-rule:nonzero;"/>
        </g>
    </g>
</svg>
