<?xml version="1.0" encoding="iso-8859-1"?>
<!-- Generator: Adobe Illustrator 21.0.2, SVG Export Plug-In . SVG Version: 6.00 Build 0)  -->
<svg version="1.1" xmlns="http://www.w3.org/2000/svg" xmlns:xlink="http://www.w3.org/1999/xlink" x="0px" y="0px"
	 viewBox="0 0 20 7.236" style="enable-background:new 0 0 20 7.236;" xml:space="preserve">
<g id="icon-spare-alias">
	<g>
		<path style="fill:#333333;" d="M0,7.236L2.263,0h0.568L0.568,7.236H0z"/>
		<path style="fill:#333333;" d="M6.826,6.985C6.77,6.994,6.714,7.003,6.658,7.022C6.034,7.05,5.801,6.994,5.727,6.287H5.708
			C5.532,6.742,5.056,7.124,4.563,7.124c-1.033,0-1.331-0.577-1.331-1.517c0-0.196,0.028-0.941,0.745-1.258
			c0.419-0.186,1.462-0.577,1.555-0.652C5.69,3.576,5.671,3.371,5.671,3.101c0-0.587-0.223-0.81-0.819-0.81
			c-0.671,0-0.764,0.307-0.755,0.912H3.436C3.398,2.133,3.929,1.667,4.972,1.667c1.537,0,1.406,1.285,1.406,1.406v2.971
			c0,0.13-0.018,0.316,0.131,0.391c0.102,0.028,0.214,0.019,0.316,0.009V6.985z M5.615,4.19C5.252,4.405,4.842,4.563,4.451,4.75
			C4.107,4.908,3.994,5.29,3.994,5.643c0,0.522,0.131,0.858,0.727,0.858c0.279,0,0.894-0.214,0.894-1.053V4.19z"/>
		<path style="fill:#333333;" d="M7.98,6.985V0h0.735v6.985H7.98z"/>
		<path style="fill:#333333;" d="M10.279,0.931V0h0.735v0.931H10.279z M10.279,6.985V1.806h0.735v5.178H10.279z"/>
		<path style="fill:#333333;" d="M15.791,6.985c-0.056,0.009-0.112,0.018-0.167,0.037C15,7.05,14.767,6.994,14.693,6.287h-0.019
			c-0.177,0.456-0.652,0.837-1.146,0.837c-1.033,0-1.331-0.577-1.331-1.517c0-0.196,0.028-0.941,0.745-1.258
			c0.419-0.186,1.462-0.577,1.555-0.652c0.158-0.121,0.139-0.326,0.139-0.596c0-0.587-0.223-0.81-0.819-0.81
			c-0.671,0-0.764,0.307-0.755,0.912h-0.661c-0.037-1.071,0.493-1.537,1.537-1.537c1.537,0,1.406,1.285,1.406,1.406v2.971
			c0,0.13-0.018,0.316,0.131,0.391c0.102,0.028,0.214,0.019,0.316,0.009V6.985z M14.581,4.19c-0.363,0.214-0.773,0.373-1.164,0.56
			C13.072,4.908,12.96,5.29,12.96,5.643c0,0.522,0.131,0.858,0.727,0.858c0.279,0,0.894-0.214,0.894-1.053V4.19z"/>
		<path style="fill:#333333;" d="M19.097,3.194c0.028-0.614-0.196-0.903-0.82-0.903c-0.521,0-0.819,0.241-0.819,0.782
			c0,0.671,0.549,0.755,1.052,0.969C19.255,4.377,20,4.563,20,5.532c0,0.987-0.689,1.602-1.751,1.592
			c-0.457,0.01-1.015-0.149-1.286-0.539c-0.307-0.41-0.288-0.755-0.288-1.108h0.699c-0.028,0.632,0.186,1.024,0.875,1.024
			c0.596,0,0.987-0.242,0.987-0.876c0-0.735-0.745-0.801-1.276-1.024c-0.801-0.298-1.266-0.568-1.266-1.472
			c0-0.894,0.624-1.462,1.518-1.462c1.024,0,1.62,0.466,1.602,1.527H19.097z"/>
	</g>
</g>
<g id="Layer_1">
</g>
</svg>
