<?xml version="1.0" encoding="iso-8859-1"?>
<!-- Generator: Adobe Illustrator 21.0.2, SVG Export Plug-In . SVG Version: 6.00 Build 0)  -->
<svg version="1.1" xmlns="http://www.w3.org/2000/svg" xmlns:xlink="http://www.w3.org/1999/xlink" x="0px" y="0px"
	 viewBox="0 0 20 20" style="enable-background:new 0 0 20 20;" xml:space="preserve">
<g id="icon-users-and-contacts">
	<g>
		<path style="fill:#333333;" d="M19.601,15.252c-0.6-0.912-2.616-1.481-4.612-2.292c-1.996-0.811-2.469-1.093-2.469-1.093
			l-0.019-1.869c0,0,0.748-0.559,0.98-2.317C13.949,7.814,14.44,7,14.466,6.573c0.026-0.413-0.064-1.559-0.635-1.442
			c0.117-0.86,0.201-1.636,0.161-2.048C13.843,1.585,12.328,0,10,0C7.672,0,6.157,1.585,6.009,3.083
			C5.968,3.495,6.052,4.271,6.169,5.131C5.598,5.014,5.508,6.16,5.534,6.573C5.56,7,6.051,7.814,6.519,7.682
			c0.232,1.758,0.98,2.317,0.98,2.317L7.48,11.868c0,0-0.473,0.282-2.469,1.093c-1.996,0.811-4.012,1.379-4.612,2.292
			C-0.139,16.072,0.023,20,0.023,20H10h9.977C19.977,20,20.139,16.072,19.601,15.252z"/>
	</g>
</g>
<g id="Layer_1">
</g>
</svg>
