<?xml version="1.0" encoding="UTF-8" standalone="no"?><!DOCTYPE svg PUBLIC "-//W3C//DTD SVG 1.1//EN" "http://www.w3.org/Graphics/SVG/1.1/DTD/svg11.dtd"><svg width="100%" height="100%" viewBox="0 0 51 57" version="1.1" xmlns="http://www.w3.org/2000/svg" xmlns:xlink="http://www.w3.org/1999/xlink" xml:space="preserve" xmlns:serif="http://www.serif.com/" style="fill-rule:evenodd;clip-rule:evenodd;stroke-linejoin:round;stroke-miterlimit:2;"><g><path d="M42.625,0.914c2.147,0 3.876,1.728 3.876,3.876l0,4.889c0,2.146 -1.729,3.874 -3.876,3.874l-13.713,0c-0.357,0 -0.656,0.298 -0.656,0.657l0,4.292c0,0.358 0.298,0.657 0.656,0.657l17.589,0l0,3.219l-21.464,0l0,-8.168c0,-2.146 1.729,-3.876 3.875,-3.876l13.713,0c0.358,0 0.657,-0.298 0.657,-0.655l0,-4.889c0,-0.358 -0.298,-0.657 -0.657,-0.657l-13.713,0c-0.357,0 -0.656,0.298 -0.656,0.657l0,1.251l-3.219,0l0,-1.251c0,-2.148 1.729,-3.876 3.875,-3.876l13.713,0Z" style="fill:#fff;fill-rule:nonzero;"/><g><rect x="0" y="0" width="6.993" height="8.533" style="fill:#fff;"/><rect x="0" y="16.645" width="6.993" height="7.752" style="fill:#fff;"/><path d="M22.725,28.659l0,10.641l-15.732,0l0,-6.791l-6.993,0l0,13.658l6.993,0l0,-0.115l15.732,0l0,10.641l28.034,0l0,-28.034l-28.034,0Z" style="fill:#fff;fill-rule:nonzero;"/></g></g></svg>