<?xml version="1.0" encoding="iso-8859-1"?>
<!-- Generator: Adobe Illustrator 21.0.2, SVG Export Plug-In . SVG Version: 6.00 Build 0)  -->
<svg version="1.1" xmlns="http://www.w3.org/2000/svg" xmlns:xlink="http://www.w3.org/1999/xlink" x="0px" y="0px"
	 viewBox="0 0 15.02 20" style="enable-background:new 0 0 15.02 20;" xml:space="preserve">
<g id="icon-datasets">
	<g>
		<path style="fill:#333333;" d="M0,0v5.633h15.02V0H0z M2.816,4.694H1.878V0.939h0.939V4.694z M4.694,4.694H3.755V0.939h0.939
			V4.694z M6.571,4.694H5.633V0.939h0.939V4.694z M12.83,3.599c-0.389,0-0.704-0.315-0.704-0.704s0.315-0.704,0.704-0.704
			c0.389,0,0.704,0.315,0.704,0.704S13.219,3.599,12.83,3.599z"/>
		<path style="fill:#333333;" d="M0,7.184v5.633h15.02V7.184H0z M2.816,11.878H1.878V8.122h0.939V11.878z M4.694,11.878H3.755V8.122
			h0.939V11.878z M6.571,11.878H5.633V8.122h0.939V11.878z M12.83,10.782c-0.389,0-0.704-0.315-0.704-0.704
			c0-0.389,0.315-0.704,0.704-0.704c0.389,0,0.704,0.315,0.704,0.704C13.534,10.467,13.219,10.782,12.83,10.782z"/>
		<path style="fill:#333333;" d="M0,14.367V20h15.02v-5.633H0z M2.816,19.061H1.878v-3.755h0.939V19.061z M4.694,19.061H3.755
			v-3.755h0.939V19.061z M6.571,19.061H5.633v-3.755h0.939V19.061z M12.83,17.966c-0.389,0-0.704-0.315-0.704-0.704
			c0-0.389,0.315-0.704,0.704-0.704c0.389,0,0.704,0.315,0.704,0.704C13.534,17.651,13.219,17.966,12.83,17.966z"/>
	</g>
</g>
<g id="Layer_1">
</g>
</svg>
