<?xml version="1.0" encoding="utf-8"?>
<!-- Generator: Adobe Illustrator 21.0.2, SVG Export Plug-In . SVG Version: 6.00 Build 0)  -->
<svg version="1.1" id="Layer_1" xmlns="http://www.w3.org/2000/svg" xmlns:xlink="http://www.w3.org/1999/xlink" x="0px" y="0px"
	 viewBox="0 0 20 19.8" style="enable-background:new 0 0 20 19.8;" xml:space="preserve">
<style type="text/css">
	.st0{fill:#FFFFFF;}
</style>
<g id="icon-rolls">
	<g id="xt2USM.tif">
		<g>
			<path class="st0" d="M20,7c-0.1,0.2-0.3,0.4-0.5,0.5c-0.2,0-0.5,0-0.7,0c0,0.1,0,0.2,0,0.2c0,1.3,0,2.7,0,4
				c0,0.5-0.2,0.7-0.8,0.7c-0.6,0-1.2,0-1.8,0c-0.1,0-0.2,0-0.3,0.1c-1.5,0.9-3,1.7-4.5,2.6c0,0-0.1,0.1-0.1,0.1
				c0.1,0,0.1,0.1,0.2,0.1c1.8,1.1,3.6,2.1,5.4,3.2c0.3,0.2,0.4,0.4,0.3,0.7c-0.1,0.4-0.5,0.6-0.9,0.4c-0.5-0.3-1-0.6-1.5-0.9
				c-1.5-0.9-3.1-1.8-4.6-2.7C10,16,10,16,9.8,16.1c-2,1.2-4,2.4-6.1,3.5c-0.2,0.1-0.4,0.2-0.6,0.1c-0.3-0.1-0.4-0.2-0.5-0.5
				c0-0.3,0.1-0.5,0.3-0.6c0.6-0.3,1.1-0.7,1.7-1c1.3-0.7,2.5-1.5,3.8-2.2c0.1,0,0.1-0.1,0.2-0.1c0,0-0.1-0.1-0.1-0.1
				c-1.5-0.9-3-1.8-4.5-2.6c-0.1,0-0.2-0.1-0.3-0.1c-0.6,0-1.3,0-1.9,0c-0.4,0-0.7-0.2-0.7-0.7c0-1.4,0-2.7,0-4.1c0-0.1,0-0.1,0-0.2
				c-0.2,0-0.4,0-0.6,0C0.3,7.5,0,7.2,0,6.8c0-0.2,0-0.4,0-0.6c1.2,0,2.5,0,3.8,0c0-0.1,0-0.2,0-0.2c0-1.8,0-3.6,0-5.3
				c0-0.5,0.4-0.8,0.8-0.6C4.8,0.1,5,0.3,5,0.6C5,0.8,5,1,5,1.2c3.3,0,6.7,0,10,0c0-0.2,0-0.4,0-0.5C15,0.3,15.3,0,15.6,0
				c0.4,0,0.6,0.3,0.6,0.7c0,1.8,0,3.5,0,5.3c0,0.1,0,0.2,0,0.3c1.3,0,2.5,0,3.8,0C20,6.5,20,6.8,20,7z M5,8.7c3.3,0,6.7,0,10,0
				c0-0.8,0-1.7,0-2.5c-3.3,0-6.7,0-10,0C5,7.1,5,7.9,5,8.7z M6.5,12.5c0.1,0,0.1,0.1,0.1,0.1c1.1,0.6,2.2,1.3,3.3,1.9
				c0.1,0,0.2,0,0.3,0c1.1-0.6,2.1-1.2,3.2-1.9c0,0,0.1-0.1,0.2-0.1C11.2,12.5,8.8,12.5,6.5,12.5z M2.5,7.5c0,1.2,0,2.5,0,3.7
				c0.4-0.4,0.8-0.8,1.1-1.1C3.7,10,3.7,9.9,3.7,9.8c0-0.7,0-1.4,0-2.2c0-0.1,0-0.1,0-0.2C3.3,7.5,2.9,7.5,2.5,7.5z M16.2,7.5
				c0,0.8,0,1.6,0,2.4c0,0.1,0,0.1,0.1,0.2c0.3,0.3,0.6,0.6,0.9,0.9c0.1,0.1,0.2,0.2,0.3,0.3c0-1.3,0-2.5,0-3.7
				C17.1,7.5,16.7,7.5,16.2,7.5z"/>
		</g>
	</g>
</g>
<g id="Layer_1_1_">
</g>
</svg>
