<?xml version="1.0" encoding="UTF-8" standalone="no"?>
<!DOCTYPE svg PUBLIC "-//W3C//DTD SVG 1.1//EN" "http://www.w3.org/Graphics/SVG/1.1/DTD/svg11.dtd">
<svg width="100%" height="100%" viewBox="0 0 17 20" version="1.1" xmlns="http://www.w3.org/2000/svg" xmlns:xlink="http://www.w3.org/1999/xlink" xml:space="preserve" xmlns:serif="http://www.serif.com/" style="fill-rule:evenodd;clip-rule:evenodd;stroke-linejoin:round;stroke-miterlimit:2;">
    <g id="content_x5F_draft_x5F_hidden" transform="matrix(1,0,0,-1,0,20)">
        <g>
            <g>
                <path d="M13.5,17.3L16.1,14.5L16.1,19.8L11,19.8L13.5,17.3Z" style="fill:rgb(181,181,181);fill-rule:nonzero;"/>
                <path d="M16.3,20L10.6,20L13.3,17.2L14.7,15.8L16.3,14.1L16.3,20ZM11.4,19.7L15.9,19.7L15.9,15L13.5,17.4L11.4,19.7Z" style="fill:rgb(108,108,108);fill-rule:nonzero;"/>
            </g>
            <g>
                <g>
                    <g>
                        <path d="M0.2,19.8L11.2,19.8L16.1,15L16.1,0.2L0.2,0.2L0.2,19.8Z" style="fill:rgb(235,120,51);fill-rule:nonzero;"/>
                    </g>
                    <g>
                        <path d="M11.3,20L0,20L0,0L16.3,0L16.3,15L11.3,20ZM0.3,19.7L11.1,19.7L15.9,14.9L15.9,0.3L0.3,0.3L0.3,19.7Z" style="fill:rgb(193,60,12);fill-rule:nonzero;"/>
                    </g>
                </g>
                <g>
                    <path d="M15.9,15L11.2,19.6L11.2,15L15.9,15Z" style="fill:rgb(238,197,139);fill-rule:nonzero;"/>
                    <path d="M11.1,19.8L11.1,14.8L16.2,14.8L11.1,19.8ZM11.3,15.1L11.3,19.3L15.6,15.1L11.3,15.1Z" style="fill:rgb(193,60,12);fill-rule:nonzero;"/>
                </g>
                <g>
                    <path d="M11.2,19.7L11,19.7L11,14.7L15.8,14.7L15.8,14.9L11.2,14.9L11.2,19.7Z" style="fill:rgb(193,60,12);fill-rule:nonzero;"/>
                </g>
                <g>
                    <path d="M11,19.7L0.3,19.7L0.3,0.5L15.8,0.5L15.8,14.7L15.6,14.7L15.6,0.7L0.5,0.7L0.5,19.5L11,19.5L11,19.7Z" style="fill:rgb(242,140,90);fill-rule:nonzero;"/>
                </g>
            </g>
            <g transform="matrix(1,0,0,-1,-0.3575,18)">
                <g transform="matrix(0.232627,0,0,1.22088,-449.499,-68.9737)">
                    <path d="M1993.5,61.45C1993.5,61.202 1992.56,61 1991.4,61L1974.6,61C1973.44,61 1972.5,61.202 1972.5,61.45L1972.5,65.05C1972.5,65.298 1973.44,65.5 1974.6,65.5L1991.4,65.5C1992.56,65.5 1993.5,65.298 1993.5,65.05L1993.5,61.45Z" style="fill:rgb(238,197,139);"/>
                </g>
                <g transform="matrix(1.43682,0,0,1.44578,-3.31656,-6.35542)">
                    <g transform="matrix(0.966904,0,0,1.6,0.139739,-7.27568)">
                        <path d="M12.5,12.75C12.5,12.612 12.313,12.5 12.084,12.5L4.638,12.5C4.409,12.5 4.222,12.612 4.222,12.75C4.222,12.888 4.409,13 4.638,13L12.084,13C12.313,13 12.5,12.888 12.5,12.75Z" style="fill:rgb(238,197,139);"/>
                    </g>
                    <g transform="matrix(1,0,0,1,-0.417589,-0.345834)">
                        <g transform="matrix(0.450126,0,0,1.6,2.74459,-8.45415)">
                            <path d="M12.5,12.75C12.5,12.612 12.099,12.5 11.606,12.5L5.116,12.5C4.623,12.5 4.222,12.612 4.222,12.75C4.222,12.888 4.623,13 5.116,13L11.606,13C12.099,13 12.5,12.888 12.5,12.75Z" style="fill:rgb(238,197,139);"/>
                        </g>
                        <g transform="matrix(0.450126,0,0,1.6,2.74459,-9.95415)">
                            <path d="M12.5,12.75C12.5,12.612 12.099,12.5 11.606,12.5L5.116,12.5C4.623,12.5 4.222,12.612 4.222,12.75C4.222,12.888 4.623,13 5.116,13L11.606,13C12.099,13 12.5,12.888 12.5,12.75Z" style="fill:rgb(238,197,139);"/>
                        </g>
                        <g transform="matrix(0.450126,0,0,1.6,2.74459,-11.4541)">
                            <path d="M12.5,12.75C12.5,12.612 12.099,12.5 11.606,12.5L5.116,12.5C4.623,12.5 4.222,12.612 4.222,12.75C4.222,12.888 4.623,13 5.116,13L11.606,13C12.099,13 12.5,12.888 12.5,12.75Z" style="fill:rgb(238,197,139);"/>
                        </g>
                    </g>
                    <g transform="matrix(0.966904,0,0,1.6,0.139739,-5.8)">
                        <path d="M12.5,12.75C12.5,12.612 12.313,12.5 12.084,12.5L4.638,12.5C4.409,12.5 4.222,12.612 4.222,12.75C4.222,12.888 4.409,13 4.638,13L12.084,13C12.313,13 12.5,12.888 12.5,12.75Z" style="fill:rgb(238,197,139);"/>
                    </g>
                </g>
            </g>
        </g>
    </g>
</svg>
