<?xml version="1.0" encoding="UTF-8" standalone="no"?>
<!DOCTYPE svg PUBLIC "-//W3C//DTD SVG 1.1//EN" "http://www.w3.org/Graphics/SVG/1.1/DTD/svg11.dtd">
<svg width="122px" height="104px" version="1.1" xmlns="http://www.w3.org/2000/svg" xmlns:xlink="http://www.w3.org/1999/xlink" xml:space="preserve" xmlns:serif="http://www.serif.com/" style="fill-rule:evenodd;clip-rule:evenodd;stroke-linecap:round;stroke-linejoin:round;">
    <g id="Canvas_1">
        <g id="Canvas_1_Layer_1">
            <g id="Graphic_2">
                <circle cx="60.75" cy="50" r="43.5" style="fill:rgb(1,48,145);"/>
                <circle cx="60.75" cy="50" r="43.5" style="fill:none;stroke:rgb(1,48,145);stroke-width:9px;"/>
            </g>
            <g id="Graphic_6">
                <path d="M101.25,29.75L105.796,43.742L120.509,43.742L108.606,52.39L113.153,66.383L101.25,57.735L89.347,66.383L93.894,52.39L81.991,43.742L96.704,43.742L101.25,29.75Z" style="fill:rgb(253,201,0);fill-rule:nonzero;"/>
            </g>
            <g id="Graphic_10">
                <path d="M20.25,29.75L24.796,43.742L39.509,43.742L27.606,52.39L32.153,66.383L20.25,57.735L8.347,66.383L12.894,52.39L0.991,43.742L15.704,43.742L20.25,29.75Z" style="fill:rgb(253,201,0);fill-rule:nonzero;"/>
            </g>
            <g id="Graphic_11">
                <path d="M60.75,44.5L65.296,58.492L80.009,58.492L68.106,67.14L72.653,81.133L60.75,72.485L48.847,81.133L53.394,67.14L41.491,58.492L56.204,58.492L60.75,44.5Z" style="fill:rgb(253,201,0);fill-rule:nonzero;"/>
            </g>
        </g>
    </g>
</svg>
