<?xml version="1.0" encoding="iso-8859-1"?>
<!-- Generator: Adobe Illustrator 21.0.2, SVG Export Plug-In . SVG Version: 6.00 Build 0)  -->
<svg version="1.1" id="Layer_1" xmlns="http://www.w3.org/2000/svg" xmlns:xlink="http://www.w3.org/1999/xlink" x="0px" y="0px"
	 viewBox="0 0 20 20" style="enable-background:new 0 0 20 20;" xml:space="preserve">
<g id="TcyAaA.tif_1_">
	<g>
		<path style="fill:#333333;" d="M-0.035,18.732c0.279-0.765,0.891-1.242,1.494-1.729c0.535-0.432,1.049-0.879,1.29-1.559
			c0.098-0.277,0.068-0.471-0.153-0.696c-3.585-3.645-3.245-9.193,0.751-12.406c4.346-3.495,10.94-3.022,14.559,1.045
			c3.182,3.575,2.745,8.918-0.968,11.941c-2.418,1.969-5.184,2.696-8.26,2.373c-0.195-0.021-0.437,0.048-0.602,0.158
			c-1.755,1.173-3.633,2.016-5.771,2.136c-0.481,0.027-0.97-0.045-1.453-0.088c-0.408-0.036-0.713-0.241-0.887-0.621
			C-0.035,19.1-0.035,18.916-0.035,18.732z M2.275,18.363c0.011,0.027,0.022,0.054,0.033,0.081c0.208-0.021,0.418-0.03,0.624-0.067
			c1.69-0.302,3.205-1.003,4.563-2.042c0.305-0.233,0.606-0.316,0.987-0.257c2.738,0.424,5.224-0.15,7.406-1.903
			c3.43-2.756,3.455-7.762,0.05-10.537C12.515,0.847,7.626,0.836,4.218,3.645C2.757,4.848,1.864,6.399,1.703,8.31
			c-0.191,2.259,0.662,4.114,2.299,5.632c0.307,0.285,0.437,0.589,0.412,1.006c-0.067,1.151-0.612,2.046-1.436,2.803
			C2.75,17.961,2.51,18.159,2.275,18.363z"/>
		<path style="fill:#333333;" d="M10.077,13.121c-0.935-0.128-1.876-0.225-2.803-0.395c-0.506-0.093-1.006-0.301-1.125-0.905
			c-0.125-0.634,0.211-1.076,0.702-1.386c0.519-0.328,1.066-0.62,1.625-0.875C9.134,9.259,9.24,8.923,8.8,8.355
			C8.198,7.577,7.871,6.699,7.988,5.71c0.148-1.252,1.01-1.967,2.232-1.904c1.154,0.059,1.955,0.916,1.975,2.145
			c0.015,0.9-0.288,1.702-0.843,2.408c-0.458,0.582-0.337,0.912,0.336,1.223c0.639,0.295,1.296,0.607,1.836,1.046
			c0.863,0.701,0.666,1.719-0.401,2.009c-0.877,0.239-1.81,0.273-2.718,0.395c-0.103,0.014-0.21,0.002-0.316,0.002
			C10.085,13.063,10.081,13.092,10.077,13.121z"/>
	</g>
</g>
</svg>
