<?xml version="1.0" encoding="UTF-8" standalone="no"?>
<!DOCTYPE svg PUBLIC "-//W3C//DTD SVG 1.1//EN" "http://www.w3.org/Graphics/SVG/1.1/DTD/svg11.dtd">
<svg width="100%" height="100%" viewBox="0 0 17 20" version="1.1" xmlns="http://www.w3.org/2000/svg" xmlns:xlink="http://www.w3.org/1999/xlink" xml:space="preserve" xmlns:serif="http://www.serif.com/" style="fill-rule:evenodd;clip-rule:evenodd;stroke-linejoin:round;stroke-miterlimit:2;">
    <g id="icon-sall-content-items">
        <path d="M16.12,0.164L0.164,0.164L0.164,19.836L16.12,19.836L16.12,0.164ZM9.866,19.372C11.436,19.368 12.661,19.362 12.661,19.357C12.661,19.141 12.644,18.925 12.613,18.709L14.38,18.058C14.787,17.908 14.993,17.451 14.847,17.041L14.572,16.299C14.419,15.886 13.968,15.673 13.556,15.823L11.694,16.509C11.454,16.196 11.175,15.916 10.871,15.672L11.647,13.982C11.831,13.587 11.658,13.115 11.26,12.933L10.544,12.603C10.146,12.424 9.676,12.596 9.494,12.992L8.702,14.706C8.292,14.637 7.871,14.624 7.442,14.669L6.842,13.039C6.69,12.634 6.236,12.421 5.827,12.573L5.085,12.845C4.678,12.996 4.467,13.452 4.617,13.862L5.22,15.49C4.835,15.756 4.497,16.072 4.212,16.43L2.776,15.771C2.381,15.589 1.91,15.761 1.727,16.157L1.393,16.874C1.211,17.268 1.39,17.739 1.784,17.924L3.246,18.597C3.204,18.847 3.182,19.101 3.179,19.358C3.179,19.377 6.166,19.379 8.787,19.374C8.504,19.366 8.251,19.358 8.147,19.358C7.098,19.357 5.956,19.344 5.943,19.358C5.952,18.562 6.447,17.821 7.237,17.528C8.26,17.152 9.395,17.67 9.773,18.693C9.854,18.912 9.894,19.136 9.897,19.357C9.897,19.363 9.886,19.368 9.866,19.372C9.52,19.373 9.157,19.374 8.787,19.374C9.227,19.387 9.738,19.398 9.866,19.372Z" style="fill:white;"/>
        <g>
            <g>
                <g>
                    <path d="M16.285,20L0,20L0,0L16.284,0L16.285,4.959L16.285,20ZM0.328,19.672L15.956,19.672L15.956,0.328L0.328,0.328L0.328,19.672Z" style="fill:rgb(188,188,188);fill-rule:nonzero;"/>
                </g>
            </g>
            <g transform="matrix(1,0,0,1,0.00353606,-0.292)">
                <path d="M0.273,19.8L0.273,0.492L15.792,0.492L15.792,0.71L0.492,0.71L0.492,19.581L15.592,19.563L15.568,0.711L15.786,0.71L15.811,19.781L0.273,19.8Z" style="fill:rgb(51,51,51);fill-rule:nonzero;"/>
            </g>
        </g>
    </g>
</svg>
