<?xml version="1.0" encoding="iso-8859-1"?>
<!-- Generator: Adobe Illustrator 21.0.2, SVG Export Plug-In . SVG Version: 6.00 Build 0)  -->
<svg version="1.1" xmlns="http://www.w3.org/2000/svg" xmlns:xlink="http://www.w3.org/1999/xlink" x="0px" y="0px"
	 viewBox="0 0 15 20" style="enable-background:new 0 0 15 20;" xml:space="preserve">
<g id="icon-auto-rule-sets">
	<g>
		<path style="fill:#333333;" d="M2.359,0h0.826v4.617H2.494V0.923L1.962,1.558H1.059L2.359,0z"/>
		<path style="fill:#333333;" d="M3.791,7.691c0.461,0,0.833,0.372,0.833,0.834v1.052c0,0.462-0.371,0.833-0.833,0.833H0.845
			c-0.077,0-0.141,0.064-0.141,0.141v0.923c0,0.077,0.064,0.141,0.141,0.141h3.778v0.692H0.013v-1.757
			c0-0.462,0.371-0.834,0.832-0.834h2.946c0.077,0,0.141-0.064,0.141-0.141V8.525c0-0.077-0.064-0.141-0.141-0.141H0.845
			c-0.077,0-0.141,0.064-0.141,0.141v0.269H0.013V8.525c0-0.462,0.371-0.834,0.832-0.834H3.791z"/>
		<path style="fill:#333333;" d="M7.855,12.2H7.163v-0.692h0.692V12.2z"/>
		<path style="fill:#333333;" d="M15,12.199h-4.611v-0.692H15V12.199z"/>
		<path style="fill:#333333;" d="M7.855,4.588H7.163V3.895h0.692V4.588z"/>
		<path style="fill:#333333;" d="M15,4.588h-4.611V3.895H15V4.588z"/>
		<path style="fill:#333333;" d="M4.611,18.134v1.032C4.611,19.628,4.24,20,3.778,20H0.833C0.372,20,0,19.628,0,19.166v-0.192h0.692
			v0.192c0,0.077,0.064,0.141,0.141,0.141h2.946c0.077,0,0.141-0.064,0.141-0.141v-1.032c0-0.077-0.064-0.141-0.141-0.141H0.833
			v-0.692h2.754c0.077,0,0.141-0.064,0.141-0.141v-0.942c0-0.077-0.064-0.141-0.141-0.141H0.833c-0.077,0-0.141,0.064-0.141,0.141
			v0.256H0v-0.256c0-0.462,0.372-0.834,0.833-0.834h2.754c0.461,0,0.832,0.372,0.832,0.834v0.942c0,0.128-0.032,0.25-0.083,0.359
			C4.502,17.666,4.611,17.89,4.611,18.134z"/>
		<path style="fill:#333333;" d="M7.842,19.891H7.15v-0.692h0.692V19.891z"/>
		<path style="fill:#333333;" d="M14.987,19.891h-4.611v-0.692h4.611V19.891z"/>
	</g>
</g>
<g id="Layer_1">
</g>
</svg>
