<?xml version="1.0" encoding="UTF-8" standalone="no"?>
<!DOCTYPE svg PUBLIC "-//W3C//DTD SVG 1.1//EN" "http://www.w3.org/Graphics/SVG/1.1/DTD/svg11.dtd">
<svg width="20px" height="20px" version="1.1" xmlns="http://www.w3.org/2000/svg" xmlns:xlink="http://www.w3.org/1999/xlink" xml:space="preserve" xmlns:serif="http://www.serif.com/" style="fill-rule:evenodd;clip-rule:evenodd;stroke-linejoin:round;stroke-miterlimit:2;">
    <g>
        <g>
            <path d="M16.391,16.645C16.062,16.132 14.956,15.812 13.862,15.357C12.767,14.901 12.508,14.743 12.508,14.743L12.498,13.692C12.498,13.692 12.908,13.378 13.035,12.39C13.292,12.464 13.561,12.006 13.575,11.767C13.589,11.535 13.54,10.891 13.227,10.957C13.291,10.473 13.337,10.037 13.315,9.806C13.233,8.964 12.403,8.073 11.126,8.073C9.849,8.073 9.019,8.962 8.937,9.804C8.914,10.036 8.96,10.472 9.024,10.955C8.711,10.889 8.661,11.533 8.676,11.765C8.69,12.005 8.959,12.463 9.216,12.388C9.343,13.376 9.753,13.69 9.753,13.69L9.743,14.741C9.743,14.741 9.484,14.9 8.389,15.355C7.294,15.811 6.189,16.13 5.86,16.643C5.565,17.104 5.654,19.312 5.654,19.312L16.598,19.312C16.598,19.314 16.687,17.106 16.391,16.645Z" style="fill:rgb(157,157,157);fill-rule:nonzero;"/>
            <path d="M10.75,16.645C10.421,16.132 9.315,15.812 8.221,15.357C7.126,14.901 6.867,14.743 6.867,14.743L6.857,13.692C6.857,13.692 7.267,13.378 7.394,12.39C7.651,12.464 7.92,12.006 7.934,11.767C7.948,11.535 7.899,10.891 7.586,10.957C7.65,10.473 7.696,10.037 7.674,9.806C7.592,8.962 6.761,8.071 5.484,8.071C4.207,8.071 3.377,8.962 3.296,9.804C3.273,10.036 3.319,10.472 3.383,10.955C3.07,10.889 3.02,11.533 3.035,11.765C3.049,12.005 3.318,12.463 3.575,12.388C3.702,13.376 4.112,13.69 4.112,13.69L4.102,14.741C4.102,14.741 3.843,14.9 2.748,15.355C1.653,15.811 0.548,16.13 0.219,16.643C-0.076,17.104 0.013,19.312 0.013,19.312L10.957,19.312C10.956,19.314 11.045,17.106 10.75,16.645Z" style="fill:white;fill-rule:nonzero;"/>
        </g>
        <path d="M20,3.179C20,1.802 18.884,0.686 17.507,0.686C16.13,0.686 15.014,1.802 15.014,3.179C15.014,4.323 15.785,5.285 16.836,5.578L16.261,11.905L18.754,11.905L18.179,5.578C19.229,5.284 20,4.323 20,3.179Z" style="fill:white;fill-rule:nonzero;"/>
    </g>
</svg>
