<?xml version="1.0" encoding="UTF-8" standalone="no"?>
<!DOCTYPE svg PUBLIC "-//W3C//DTD SVG 1.1//EN" "http://www.w3.org/Graphics/SVG/1.1/DTD/svg11.dtd">
<svg width="100%" height="100%" viewBox="0 0 16 16" version="1.1" xmlns="http://www.w3.org/2000/svg" xmlns:xlink="http://www.w3.org/1999/xlink" xml:space="preserve" xmlns:serif="http://www.serif.com/" style="fill-rule:evenodd;clip-rule:evenodd;stroke-linejoin:round;stroke-miterlimit:2;">
    <g>
        <path d="M15.1,4.1L0.9,4.1C0.4,4.1 0,4.5 0,5L0,14.1C0,14.6 0.4,15 0.9,15L15.1,15C15.6,15 16,14.6 16,14.1L16,5C16,4.5 15.6,4.1 15.1,4.1Z" style="fill:rgb(51,51,51);fill-rule:nonzero;"/>
        <path d="M6.1,3.5L6.1,1.5C6.1,1.2 5.9,1 5.6,1L3,1C2.7,1 2.4,1.2 2.4,1.5L2.4,3.4L6.1,3.4L6.1,3.5Z" style="fill:rgb(51,51,51);fill-rule:nonzero;"/>
        <path d="M13.5,3.5L13.5,1.5C13.5,1.2 13.3,1 13,1L10.4,1C10,1 9.8,1.2 9.8,1.5L9.8,3.4L13.5,3.4L13.5,3.5Z" style="fill:rgb(51,51,51);fill-rule:nonzero;"/>
        <g transform="matrix(0.734651,0,0,0.734651,8,9.80905)">
            <g transform="matrix(1,0,0,1,-8,-8)">
                <path d="M16,8C16,6.1 14.4,4.5 12.5,4.5C11.1,4.5 9.9,5.3 9.3,6.5L2,6.5L0,7.5L1,9.5L1.9,9.4L3.8,10.3L4.8,9.3L5.9,9.4L5.9,10.4L7.9,10.4L7.9,9.4L9.3,9.4C9.9,10.6 11.1,11.4 12.5,11.4C14.4,11.5 16,9.9 16,8ZM13.5,8.6C13.2,8.6 12.9,8.3 12.9,8C12.9,7.7 13.2,7.4 13.5,7.4C13.8,7.4 14.1,7.7 14.1,8C14.1,8.3 13.8,8.6 13.5,8.6Z" style="fill:white;fill-rule:nonzero;"/>
            </g>
        </g>
    </g>
</svg>
