<?xml version="1.0" encoding="iso-8859-1"?>
<!-- Generator: Adobe Illustrator 21.0.2, SVG Export Plug-In . SVG Version: 6.00 Build 0)  -->
<svg version="1.1" xmlns="http://www.w3.org/2000/svg" xmlns:xlink="http://www.w3.org/1999/xlink" x="0px" y="0px"
	 viewBox="0 0 17.504 20" style="enable-background:new 0 0 17.504 20;" xml:space="preserve">
<g id="icon-sign-in-log">
	<g>
		<path style="fill:#333333;" d="M2.938,0c0,0,5.252,0.222,7.201,0.311c1.948,0.089,4.414,0.311,4.809,0.355
			c0.395,0.044,1.166,0.173,1.455,0.689c0.37,0.661,0.9,2.415,0.74,4.709c-0.166,2.382-0.912,6.486-1.085,7.308
			c-0.173,0.822-0.296,1.777-0.814,1.91c-0.518,0.133-1.48,0.2-2.935,0.111c-1.455-0.089-3.872-0.267-4.266-0.267
			c-0.395,0-0.863,0.155-1.109,0.4c-0.247,0.245-0.518,0.6-0.641,0.889c-0.123,0.289-0.148,0.644-0.148,0.644
			s0.395-0.444,0.789-0.555c0.394-0.111,1.233-0.044,1.011,0.777c-0.222,0.822-1.406,2.31-2.737,2.221
			c-1.332-0.089-2.176-1.46-2.269-2.088c-0.075-0.506,0-2.621,0.271-4.376c0.271-1.755,0.74-5.487,0.937-6.642
			c0.197-1.155,0.428-3.381,0.345-4.021c-0.092-0.711-0.388-1.1-0.74-1.621C3.444,0.298,2.938,0,2.938,0z"/>
		<path style="fill:#333333;" d="M9.338,16.566c0,0,1.77,0.065,3.576,0.114c1.579,0.043,3.052,0.118,3.921,0.246
			c0.537,0.079,0.763,1.105,0.635,1.604C17.266,19.325,15.947,20,15.824,20c-0.123,0-8.187-0.231-8.187-0.231
			s1.406-0.378,1.849-1.272c0.33-0.664,0.222-0.909,0.173-1.193C9.609,17.02,9.338,16.566,9.338,16.566z"/>
		<ellipse style="fill:#333333;" cx="1.411" cy="3.355" rx="1.411" ry="1.983"/>
	</g>
</g>
<g id="Layer_1">
</g>
</svg>
