<?xml version="1.0" encoding="iso-8859-1"?>
<!-- Generator: Adobe Illustrator 21.0.2, SVG Export Plug-In . SVG Version: 6.00 Build 0)  -->
<svg version="1.1" xmlns="http://www.w3.org/2000/svg" xmlns:xlink="http://www.w3.org/1999/xlink" x="0px" y="0px"
	 viewBox="0 0 18 18" style="enable-background:new 0 0 18 18;" xml:space="preserve">
<g id="icon-footer-site-diagnostics">
	<g id="rXVgY2.tif_3_">
		<g>
			<path style="fill:#4D4D4D;" d="M0,2.517c0.18-0.858,0.833-1.299,1.498-1.732C1.583,0.73,1.665,0.656,1.72,0.572
				c0.378-0.584,1.175-0.749,1.749-0.356c0.568,0.389,0.717,1.193,0.327,1.753C3.387,2.553,2.58,2.69,2.027,2.258
				C1.924,2.178,1.869,2.199,1.773,2.262C1.455,2.475,1.354,2.733,1.432,3.13c0.294,1.497,0.675,2.964,1.299,4.359
				c0.37,0.827,0.796,1.62,1.471,2.244c0.42,0.388,0.897,0.639,1.491,0.584c0.472-0.044,0.852-0.278,1.19-0.59
				c0.486-0.448,0.843-0.994,1.144-1.579c0.758-1.472,1.229-3.042,1.538-4.665c0.041-0.214,0.067-0.431,0.113-0.644
				c0.029-0.138-0.004-0.242-0.107-0.331c-0.04-0.035-0.073-0.077-0.112-0.113c-0.24-0.22-0.241-0.22-0.515-0.062
				C8.366,2.666,7.676,2.518,7.288,1.979C6.932,1.484,7.01,0.741,7.462,0.333C7.954-0.112,8.66-0.111,9.156,0.335
				c0.013,0.012,0.031,0.021,0.038,0.036c0.178,0.344,0.535,0.476,0.812,0.704c0.27,0.223,0.534,0.461,0.76,0.728
				c0.319,0.377,0.345,0.834,0.264,1.308c-0.336,1.974-0.861,3.888-1.784,5.674c-0.437,0.845-0.971,1.615-1.725,2.209
				c-0.018,0.015-0.035,0.034-0.056,0.043c-0.41,0.182-0.595,0.511-0.703,0.942c-0.073,0.293-0.28,0.552-0.423,0.828
				c-0.028,0.054-0.061,0.12-0.053,0.175c0.145,1.008,0.467,1.936,1.225,2.657c0.557,0.53,1.239,0.799,1.984,0.905
				c0.939,0.133,1.872,0.095,2.771-0.242c1.185-0.444,1.865-1.335,2.175-2.543c0.004-0.016-0.001-0.034-0.002-0.063
				c-0.395-0.134-0.757-0.33-1.07-0.616c-0.805-0.737-1.108-1.915-0.753-2.947c0.369-1.072,1.307-1.805,2.409-1.88
				c1.472-0.101,2.722,0.914,2.94,2.386c0.007,0.046,0.024,0.09,0.036,0.135c0,0.165,0,0.331,0,0.496
				c-0.012,0.05-0.028,0.1-0.037,0.152c-0.203,1.162-0.868,1.918-1.978,2.278c-0.106,0.034-0.148,0.079-0.169,0.187
				c-0.122,0.631-0.349,1.223-0.69,1.767c-0.819,1.31-2.028,2.002-3.519,2.243c-0.247,0.04-0.496,0.07-0.744,0.105
				c-0.293,0-0.586,0-0.879,0c-0.278-0.037-0.557-0.065-0.833-0.112c-1.117-0.194-2.091-0.666-2.859-1.525
				c-0.748-0.837-1.134-1.842-1.333-2.934c-0.03-0.166-0.029-0.365-0.122-0.486c-0.336-0.439-0.561-0.921-0.682-1.458
				c-0.013-0.056-0.047-0.127-0.093-0.152c-0.789-0.445-1.367-1.104-1.837-1.863C1.247,7.89,0.691,6.144,0.285,4.343
				C0.173,3.845,0.094,3.339,0,2.836C0,2.73,0,2.623,0,2.517z M15.22,12.416c0.765,0.011,1.389-0.602,1.403-1.377
				c0.013-0.762-0.609-1.401-1.372-1.411c-0.764-0.01-1.392,0.595-1.405,1.354C13.832,11.784,14.427,12.405,15.22,12.416z"/>
			<path style="fill:#4D4D4D;" d="M14.551,11.022c0-0.383,0.297-0.684,0.677-0.686c0.375-0.002,0.685,0.303,0.69,0.68
				c0.005,0.378-0.318,0.704-0.692,0.7C14.849,11.711,14.551,11.404,14.551,11.022z"/>
		</g>
	</g>
</g>
<g id="Layer_1">
</g>
</svg>
