<?xml version="1.0" encoding="UTF-8" standalone="no"?>
<!DOCTYPE svg PUBLIC "-//W3C//DTD SVG 1.1//EN" "http://www.w3.org/Graphics/SVG/1.1/DTD/svg11.dtd">
<svg width="20px" height="20px" version="1.1" xmlns="http://www.w3.org/2000/svg" xmlns:xlink="http://www.w3.org/1999/xlink" xml:space="preserve" xmlns:serif="http://www.serif.com/" style="fill-rule:evenodd;clip-rule:evenodd;stroke-linejoin:round;stroke-miterlimit:2;">
    <g id="TcyAaA.tif_1_">
        <g>
            <path d="M-0.035,18.732C0.244,17.967 0.856,17.49 1.459,17.003C1.994,16.571 2.508,16.124 2.749,15.444C2.847,15.167 2.817,14.973 2.596,14.748C-0.989,11.103 -0.649,5.555 3.347,2.342C7.693,-1.153 14.287,-0.68 17.906,3.387C21.088,6.962 20.651,12.305 16.938,15.328C14.52,17.297 11.754,18.024 8.678,17.701C8.483,17.68 8.241,17.749 8.076,17.859C6.321,19.032 4.443,19.875 2.305,19.995C1.824,20.022 1.335,19.95 0.852,19.907C0.444,19.871 0.139,19.666 -0.035,19.286L-0.035,18.732ZM2.275,18.363C2.286,18.39 2.297,18.417 2.308,18.444C2.516,18.423 2.726,18.414 2.932,18.377C4.622,18.075 6.137,17.374 7.495,16.335C7.8,16.102 8.101,16.019 8.482,16.078C11.22,16.502 13.706,15.928 15.888,14.175C19.318,11.419 19.343,6.413 15.938,3.638C12.515,0.847 7.626,0.836 4.218,3.645C2.757,4.848 1.864,6.399 1.703,8.31C1.512,10.569 2.365,12.424 4.002,13.942C4.309,14.227 4.439,14.531 4.414,14.948C4.347,16.099 3.802,16.994 2.978,17.751C2.75,17.961 2.51,18.159 2.275,18.363Z" style="fill:white;fill-rule:nonzero;"/>
            <path d="M10.077,13.121C9.142,12.993 8.201,12.896 7.274,12.726C6.768,12.633 6.268,12.425 6.149,11.821C6.024,11.187 6.36,10.745 6.851,10.435C7.37,10.107 7.917,9.815 8.476,9.56C9.134,9.259 9.24,8.923 8.8,8.355C8.198,7.577 7.871,6.699 7.988,5.71C8.136,4.458 8.998,3.743 10.22,3.806C11.374,3.865 12.175,4.722 12.195,5.951C12.21,6.851 11.907,7.653 11.352,8.359C10.894,8.941 11.015,9.271 11.688,9.582C12.327,9.877 12.984,10.189 13.524,10.628C14.387,11.329 14.19,12.347 13.123,12.637C12.246,12.876 11.313,12.91 10.405,13.032C10.302,13.046 10.195,13.034 10.089,13.034C10.085,13.063 10.081,13.092 10.077,13.121Z" style="fill:white;fill-rule:nonzero;"/>
        </g>
    </g>
</svg>
