<?xml version="1.0" encoding="UTF-8" standalone="no"?>
<!DOCTYPE svg PUBLIC "-//W3C//DTD SVG 1.1//EN" "http://www.w3.org/Graphics/SVG/1.1/DTD/svg11.dtd">
<svg width="32px" height="32px" version="1.1" xmlns="http://www.w3.org/2000/svg" xmlns:xlink="http://www.w3.org/1999/xlink" xml:space="preserve" xmlns:serif="http://www.serif.com/" style="fill-rule:evenodd;clip-rule:evenodd;stroke-linejoin:round;stroke-miterlimit:2;">
    <g transform="matrix(1.06667,0,0,1.19793,-2058.67,-11.9793)">
        <path d="M1960,13.888C1960,11.742 1958.04,10 1955.63,10L1934.37,10C1931.96,10 1930,11.742 1930,13.888L1930,32.824C1930,34.97 1931.96,36.713 1934.37,36.713L1955.63,36.713C1958.04,36.713 1960,34.97 1960,32.824L1960,13.888Z" style="fill:white;"/>
        <path d="M1960,13.888C1960,11.742 1958.04,10 1955.63,10L1934.37,10C1931.96,10 1930,11.742 1930,13.888L1930,32.824C1930,34.97 1931.96,36.713 1934.37,36.713L1955.63,36.713C1958.04,36.713 1960,34.97 1960,32.824L1960,13.888ZM1957.19,13.888L1957.19,32.824C1957.19,33.588 1956.49,34.208 1955.63,34.208L1934.37,34.208C1933.51,34.208 1932.81,33.588 1932.81,32.824L1932.81,13.888C1932.81,13.125 1933.51,12.504 1934.37,12.504L1955.63,12.504C1956.49,12.504 1957.19,13.125 1957.19,13.888Z" style="fill:white;"/>
    </g>
</svg>
