<?xml version="1.0" encoding="iso-8859-1"?>
<!-- Generator: Adobe Illustrator 21.0.2, SVG Export Plug-In . SVG Version: 6.00 Build 0)  -->
<svg version="1.1" xmlns="http://www.w3.org/2000/svg" xmlns:xlink="http://www.w3.org/1999/xlink" x="0px" y="0px"
	 viewBox="0 0 16.276 19.99" style="enable-background:new 0 0 16.276 19.99;" xml:space="preserve">
<g id="content_x5F_draft_x5F_trashed">
	<g>
		<g>
			<polygon style="fill:#A77A4B;" points="13.452,17.342 14.82,15.926 16.082,14.54 16.082,19.821 11.003,19.821 			"/>
			<path style="fill:#7E5428;" d="M16.258,19.989h-5.662l2.727-2.761l1.367-1.416l1.568-1.721V19.989z M11.41,19.654h4.496v-4.665
				l-0.954,1.047l-1.373,1.422L11.41,19.654z"/>
		</g>
		<g>
			<g>
				<g>
					<polygon style="fill:#EB7833;" points="0.164,19.826 11.197,19.826 16.112,14.965 16.112,0.164 0.164,0.164 					"/>
				</g>
				<g>
					<path style="fill:#C13C0C;" d="M11.264,19.99H0V0h16.276v15.034L11.264,19.99z M0.328,19.662h10.801l4.819-4.766V0.328H0.328
						V19.662z"/>
				</g>
			</g>
			<g>
				<polygon style="fill:#EEC58B;" points="15.921,14.974 11.206,19.58 11.178,14.965 				"/>
				<path style="fill:#C13C0C;" d="M11.098,19.838l-0.029-4.983l5.12,0.01L11.098,19.838z M11.288,15.075l0.025,4.248l4.34-4.239
					L11.288,15.075z"/>
			</g>
			<g>
				<polygon style="fill:#C13C0C;" points="11.197,19.717 10.978,19.717 10.978,14.692 15.784,14.692 15.784,14.911 11.197,14.911 
									"/>
			</g>
			<g>
				<polygon style="fill:#F28C5A;" points="10.978,19.717 0.273,19.717 0.273,0.489 15.803,0.508 15.784,14.692 15.566,14.692 
					15.584,0.726 0.492,0.708 0.492,19.498 10.978,19.498 				"/>
			</g>
			<g>
				<g>
					<polyline style="fill-rule:evenodd;clip-rule:evenodd;fill:#C13C0C;" points="14.454,10.884 14.532,10.698 14.578,10.446 
						14.586,10.204 14.572,9.92 14.467,9.803 14.363,9.688 14.259,9.572 14.179,9.462 14.085,9.369 13.992,9.275 13.898,9.181 
						13.815,9.11 13.818,9.24 13.805,9.383 13.818,9.534 13.807,9.677 13.819,9.827 13.808,9.972 13.82,10.122 13.809,10.266 
						13.77,10.275 13.692,10.294 13.564,10.301 13.384,10.332 13.141,10.365 12.873,10.391 12.555,10.405 12.224,10.432 
						11.842,10.446 11.434,10.485 11.004,10.484 10.556,10.527 10.087,10.528 9.591,10.553 9.11,10.562 8.614,10.581 8.581,10.668 
						8.538,10.737 8.505,10.825 8.462,10.892 8.404,10.973 8.333,11.065 8.252,11.137 8.183,11.197 8.551,11.187 8.895,11.168 
						9.225,11.161 9.531,11.144 9.783,11.146 10.023,11.16 10.213,11.162 10.364,11.168 10.857,11.18 11.463,11.202 12.125,11.166 
						12.798,11.144 13.411,11.085 13.936,11.016 14.296,10.957 					"/>
				</g>
				<g>
					<polyline style="fill-rule:evenodd;clip-rule:evenodd;fill:#C13C0C;" points="8.462,10.892 8.505,10.825 8.538,10.737 
						8.581,10.668 8.614,10.581 8.055,10.597 7.5,10.578 6.942,10.586 6.411,10.568 5.892,10.564 5.388,10.546 4.907,10.532 
						4.452,10.523 4.049,10.497 3.671,10.476 3.331,10.452 3.055,10.43 2.827,10.421 2.652,10.398 2.553,10.371 2.515,10.374 
						2.492,10.027 2.458,9.665 2.435,9.32 2.424,8.991 2.402,8.647 2.378,8.304 2.367,7.976 2.344,7.633 2.32,7.317 2.296,6.975 
						2.284,6.649 2.261,6.308 2.25,5.983 2.226,5.643 2.203,5.304 2.18,4.966 2.457,4.989 2.837,4.994 3.292,5.007 3.809,5.038 
						4.404,5.048 5.036,5.077 5.706,5.094 6.415,5.099 6.971,5.121 7.541,5.128 8.111,5.135 8.681,5.142 9.237,5.164 9.782,5.168 
						10.327,5.172 10.857,5.191 11.351,5.189 11.807,5.2 12.251,5.193 12.657,5.199 13.011,5.199 13.327,5.214 13.581,5.204 
						13.796,5.208 13.808,5.684 13.819,6.161 13.816,6.654 13.827,7.132 13.824,7.626 13.822,8.12 13.818,8.615 13.815,9.11 
						13.898,9.181 13.992,9.275 14.085,9.369 14.179,9.462 14.259,9.572 14.363,9.688 14.467,9.803 14.572,9.92 14.551,9.709 
						14.545,9.483 14.527,9.237 14.531,9.033 14.542,8.455 14.538,7.726 14.513,6.958 14.488,6.191 14.46,5.463 14.42,4.884 
						14.403,4.474 14.405,4.308 14.123,4.323 13.832,4.317 13.567,4.313 13.276,4.308 12.999,4.286 12.721,4.265 12.441,4.278 
						12.164,4.256 11.887,4.236 11.61,4.215 11.319,4.21 11.041,4.191 10.75,4.186 10.47,4.199 10.179,4.195 9.887,4.191 
						9.482,4.195 9.064,4.182 8.672,4.172 8.266,4.176 7.86,4.18 7.467,4.17 7.062,4.174 6.655,4.178 6.339,4.173 6.021,4.197 
						5.704,4.192 5.384,4.216 5.079,4.225 4.761,4.248 4.456,4.257 4.137,4.279 3.819,4.3 3.5,4.321 3.195,4.329 2.863,4.362 
						2.556,4.395 2.237,4.414 1.93,4.446 1.61,4.489 1.588,4.905 1.582,5.309 1.588,5.703 1.58,6.107 1.612,6.503 1.618,6.897 
						1.649,7.295 1.692,7.708 1.709,8.119 1.74,8.519 1.783,8.936 1.813,9.339 1.856,9.758 1.884,10.188 1.901,10.603 1.929,11.034 
						1.954,11.041 2.03,11.039 2.116,11.078 2.186,11.151 2.235,11.166 2.336,11.171 2.524,11.189 2.764,11.196 3.067,11.208 
						3.433,11.224 3.812,11.229 4.255,11.236 4.723,11.247 5.204,11.245 5.685,11.24 6.192,11.237 6.713,11.22 7.206,11.222 
						7.714,11.209 8.183,11.197 8.252,11.137 8.333,11.065 8.404,10.973 					"/>
				</g>
			</g>
			<g>
				<g>
					<path style="fill:#4F2508;" d="M3.895,9.224H3.118c-0.067,0-0.144-0.006-0.144-0.095c0-0.043,0.028-0.07,0.067-0.083
						c0.107-0.034,0.104-0.052,0.104-0.165V7.278c0-0.046,0.006-0.129-0.052-0.147C3.032,7.11,2.974,7.1,2.974,7.024
						c0-0.08,0.077-0.089,0.138-0.089h0.783V9.224z M4.033,6.935C4.553,6.929,4.988,7.29,5.025,8.08
						c0.034,0.719-0.483,1.145-0.991,1.145V9.047C4.22,9.022,4.229,8.848,4.229,8.732V7.428c0-0.116-0.009-0.291-0.196-0.315V6.935z
						"/>
				</g>
				<g>
					<path style="fill:#4F2508;" d="M5.443,7.278c0-0.113,0.003-0.132-0.104-0.165C5.299,7.1,5.271,7.073,5.271,7.03
						c0-0.089,0.101-0.095,0.113-0.095h0.808v1.946c0,0.113-0.003,0.132,0.104,0.165c0.04,0.012,0.067,0.04,0.067,0.083
						c0,0.089-0.101,0.095-0.113,0.095H5.384c-0.012,0-0.113-0.006-0.113-0.095c0-0.043,0.028-0.07,0.067-0.083
						c0.107-0.034,0.104-0.052,0.104-0.165V7.278z M6.33,6.935h0.015c0.199,0,0.407-0.006,0.591,0.083
						C7.141,7.119,7.245,7.287,7.248,7.52C7.254,7.872,7.022,8.025,6.71,8.098v0.006c0.272,0.04,0.533,0.119,0.538,0.444v0.269
						c0,0.028-0.009,0.089,0.031,0.089c0.049,0,0.058-0.089,0.131-0.089c0.04,0,0.089,0.046,0.089,0.089
						c0,0.089-0.101,0.202-0.168,0.254C7.227,9.246,7.116,9.27,6.985,9.27c-0.132,0-0.251-0.033-0.346-0.128
						c-0.107-0.11-0.122-0.245-0.122-0.389V8.545c0-0.141-0.003-0.312-0.187-0.33v-0.18c0.165-0.015,0.187-0.116,0.187-0.266v-0.37
						c0-0.153-0.034-0.226-0.187-0.282V6.935z"/>
				</g>
				<g>
					<path style="fill:#4F2508;" d="M8.272,7.71L7.984,8.756C7.935,8.943,7.978,8.995,8.082,9.041
						c0.049,0.022,0.092,0.04,0.092,0.101c0,0.086-0.098,0.083-0.159,0.083H7.663c-0.061,0-0.172-0.003-0.172-0.092
						c0-0.073,0.052-0.07,0.119-0.104c0.064-0.034,0.147-0.104,0.205-0.321l0.367-1.344h0.009L8.272,7.71z M8.599,8.631H8.152
						l0.043-0.178h0.373L8.26,7.1l0.04-0.165h0.676l0.459,1.934c0.018,0.086,0.021,0.144,0.107,0.18
						c0.043,0.018,0.076,0.04,0.076,0.095c0,0.083-0.11,0.08-0.168,0.08H8.688c-0.061,0-0.15-0.006-0.15-0.086
						c0-0.049,0.018-0.064,0.058-0.086c0.08-0.046,0.092-0.067,0.064-0.186L8.599,8.631z"/>
				</g>
				<g>
					<path style="fill:#4F2508;" d="M9.951,7.278c0-0.113,0.003-0.132-0.104-0.165C9.807,7.1,9.779,7.073,9.779,7.03
						c0-0.089,0.101-0.095,0.113-0.095h0.808v1.946c0,0.113-0.003,0.132,0.104,0.165c0.04,0.012,0.067,0.04,0.067,0.083
						c0,0.089-0.101,0.095-0.113,0.095H9.893c-0.012,0-0.113-0.006-0.113-0.095c0-0.043,0.028-0.07,0.067-0.083
						c0.107-0.034,0.104-0.052,0.104-0.165V7.278z M10.838,6.935h0.683v0.621c0,0.015-0.003,0.073-0.095,0.073
						c-0.052,0-0.067-0.031-0.083-0.076c-0.08-0.248-0.236-0.398-0.505-0.441V6.935z M10.838,7.957
						c0.129-0.033,0.187-0.153,0.214-0.269c0.015-0.052,0.034-0.101,0.098-0.101c0.095,0,0.08,0.11,0.08,0.134v0.661
						c0,0.025,0.015,0.135-0.08,0.135c-0.064,0-0.083-0.049-0.098-0.101c-0.028-0.116-0.086-0.236-0.214-0.269V7.957z"/>
				</g>
				<g>
					<path style="fill:#4F2508;" d="M11.651,6.935h0.441v0.178c-0.159,0.113-0.202,0.315-0.23,0.477
						c-0.009,0.067-0.024,0.147-0.11,0.147c-0.092,0-0.101-0.076-0.101-0.089V6.935z M12.23,6.935h0.75v1.946
						c0,0.113-0.003,0.132,0.104,0.165c0.04,0.012,0.067,0.04,0.067,0.083c0,0.089-0.101,0.095-0.113,0.095h-0.866
						c-0.012,0-0.113-0.006-0.113-0.095c0-0.043,0.028-0.07,0.067-0.083c0.107-0.034,0.104-0.052,0.104-0.165V6.935z M13.558,7.648
						c0,0.012-0.009,0.089-0.101,0.089c-0.086,0-0.101-0.079-0.11-0.147c-0.028-0.162-0.07-0.364-0.23-0.477V6.935h0.441V7.648z"/>
				</g>
			</g>
		</g>
	</g>
</g>
<g id="Layer_1">
</g>
</svg>
