<?xml version="1.0" encoding="UTF-8" standalone="no"?>
<!DOCTYPE svg PUBLIC "-//W3C//DTD SVG 1.1//EN" "http://www.w3.org/Graphics/SVG/1.1/DTD/svg11.dtd">
<svg width="20px" height="16px" version="1.1" xmlns="http://www.w3.org/2000/svg" xmlns:xlink="http://www.w3.org/1999/xlink" xml:space="preserve" xmlns:serif="http://www.serif.com/" style="fill-rule:evenodd;clip-rule:evenodd;stroke-linejoin:round;stroke-miterlimit:2;">
    <g id="icon-video-content-types-dark">
        <g>
            <path d="M19.142,6.429L17.781,7.11C17.478,7.261 17.231,7.662 17.231,8L17.231,4.923C17.231,4.247 16.677,3.692 16,3.692L11.692,3.692C12.03,3.692 12.307,3.416 12.307,3.077C12.307,2.739 12.044,2.374 11.723,2.267L9.199,1.426C8.878,1.319 8.338,1.231 8,1.231L1.231,1.231L1.231,0.615C1.231,0.277 0.954,0 0.615,0C0.276,0 0,0.277 0,0.615L0,4.308C0,4.647 0.277,4.923 0.615,4.923C0.953,4.923 1.23,4.647 1.23,4.308L1.23,3.692L3.692,3.692C3.015,3.692 2.461,4.247 2.461,4.923L2.461,13.538C2.461,14.215 3.015,14.769 3.692,14.769L3.692,15.384C3.692,15.725 3.968,16 4.308,16L11.693,16C12.033,16 12.308,15.725 12.308,15.385L12.308,14.77L16,14.77C16.677,14.77 17.231,14.216 17.231,13.539L17.231,10.462C17.231,10.801 17.479,11.202 17.781,11.353L19.142,12.034C19.445,12.185 19.692,12.032 19.692,11.693L19.692,6.769C19.692,6.431 19.445,6.278 19.142,6.429ZM13.538,12.308L4.923,12.308L4.923,6.154L13.538,6.154L13.538,12.308Z" style="fill:white;fill-rule:nonzero;"/>
            <rect x="17.231" y="7.385" width="2.462" height="3.692" style="fill:white;"/>
            <path d="M6.154,7.385L6.154,11.077L12.308,11.077L12.308,7.385L6.154,7.385ZM8.616,9.846L7.385,9.846L7.385,8.615L8.616,8.615L8.616,9.846ZM11.077,9.846L9.846,9.846L9.846,8.615L11.077,8.615L11.077,9.846Z" style="fill:white;fill-rule:nonzero;"/>
        </g>
    </g>
</svg>
