<?xml version="1.0" encoding="UTF-8" standalone="no"?>
<!DOCTYPE svg PUBLIC "-//W3C//DTD SVG 1.1//EN" "http://www.w3.org/Graphics/SVG/1.1/DTD/svg11.dtd">
<svg width="100%" height="100%" viewBox="0 0 143 58" version="1.1" xmlns="http://www.w3.org/2000/svg" xmlns:xlink="http://www.w3.org/1999/xlink" xml:space="preserve" xmlns:serif="http://www.serif.com/" style="fill-rule:evenodd;clip-rule:evenodd;stroke-linejoin:round;stroke-miterlimit:2;">
    <g>
        <path d="M14.6,37.7C15,37.7 15.2,37.9 15.2,38.2C15.2,38.4 15.2,38.5 15.1,38.6L4,54.5C3.9,54.6 3.9,54.7 3.9,54.8C3.9,54.9 4.1,55 4.3,55L12.4,55C13.3,55 13.8,54.9 14,54.8C14.2,54.6 14.3,54.5 14.4,54.4C14.5,54.3 14.5,54.2 14.6,54.2C14.6,54.2 14.7,54.2 14.8,54.3C14.9,54.3 15,54.4 15,54.4C15,54.4 14.9,54.6 14.8,54.9L14.4,55.9C14.3,56.3 14.2,56.5 14.1,56.7C14,56.9 14,57 14,57L0.5,57C0.2,57 -0,56.7 -0,56.2C-0,56.1 0.1,55.9 0.2,55.7L10.9,40.5C11.2,40 11.2,39.8 10.8,39.8L3.6,39.8C2.7,39.8 2.2,39.9 1.9,40.1C1.8,40.2 1.7,40.3 1.6,40.4C1.5,40.5 1.5,40.6 1.4,40.6C1.4,40.6 1.3,40.6 1.2,40.5C1.1,40.5 1,40.4 1,40.4C1,40.4 1.1,40.2 1.2,40L1.6,39.1C1.7,38.7 1.8,38.5 1.9,38.3C2,38.1 2,38 2.1,38L14.6,38L14.6,37.7Z" style="fill-rule:nonzero;"/>
        <path d="M32.3,46.8C32.8,46.8 33.2,46.6 33.5,46.3C33.5,46.3 33.6,46.2 33.6,46.1C33.6,46 33.7,46 33.9,46C34,46 34.1,46 34.1,46.1L34.1,49.1C34.1,49.2 34,49.2 33.9,49.2L33.7,49.2C33.7,49.2 33.7,49.1 33.6,49.1C33.6,49 33.5,49 33.4,48.9C33.3,48.8 33.2,48.7 32.9,48.6C32.7,48.5 32.4,48.5 32.2,48.5L25.8,48.5L25.8,55.2L32.6,55.2C33.4,55.2 33.8,55.1 34,55C34.2,54.9 34.3,54.8 34.4,54.6C34.5,54.5 34.5,54.4 34.6,54.4C34.6,54.4 34.7,54.4 34.8,54.5C34.9,54.5 34.9,54.6 34.9,54.6C34.9,54.6 34.9,54.8 34.8,55L34.5,55.8C34.4,56.1 34.3,56.3 34.3,56.5C34.3,56.7 34.2,56.8 34.1,56.8L23.3,56.8C23.2,56.8 23.2,56.7 23.2,56.6L23.2,56.4C23.2,56.4 23.3,56.4 23.3,56.3C23.4,56.3 23.4,56.2 23.5,56.1C23.6,56 23.7,55.9 23.8,55.6C23.9,55.4 23.9,55.1 23.9,54.9L23.9,41.9C23.9,41.4 23.7,41 23.4,40.7C23.4,40.7 23.3,40.6 23.2,40.6C23.1,40.6 23.1,40.5 23.1,40.3C23.1,40.2 23.1,40.1 23.2,40.1L34,40.1C34.1,40.1 34.1,40.2 34.2,40.4C34.2,40.6 34.3,40.8 34.5,41.1L34.8,41.9C34.9,42.1 34.9,42.3 34.9,42.3C34.9,42.3 34.9,42.4 34.8,42.4C34.7,42.4 34.6,42.5 34.6,42.5C34.6,42.5 34.5,42.5 34.5,42.4C34.5,42.4 34.4,42.3 34.4,42.2C34.4,42.1 34.2,42 34.1,41.9C33.9,41.8 33.5,41.7 32.7,41.7L25.9,41.7L25.9,46.8L32.3,46.8Z" style="fill-rule:nonzero;"/>
        <path d="M113.5,40.1L116.8,40.1C116.9,40.1 116.9,40.2 116.9,40.3L116.9,40.5C116.9,40.5 116.8,40.5 116.8,40.6C116.7,40.6 116.7,40.7 116.6,40.8C116.5,40.9 116.4,41 116.3,41.3C116.2,41.5 116.2,41.8 116.2,42L116.2,55C116.2,55.5 116.4,55.9 116.7,56.2C116.7,56.2 116.8,56.3 116.9,56.3C117,56.3 117,56.4 117,56.6C117,56.7 117,56.8 116.9,56.8L113.6,56.8C113.5,56.8 113.5,56.7 113.5,56.6L113.5,56.4C113.5,56.4 113.6,56.4 113.6,56.3C113.7,56.3 113.7,56.2 113.8,56.1C113.9,56 114,55.9 114.1,55.6C114.2,55.4 114.2,55.1 114.2,54.9L114.2,41.9C114.2,41.4 114,41 113.7,40.7C113.7,40.7 113.6,40.6 113.5,40.6C113.4,40.6 113.4,40.5 113.4,40.3C113.3,40.2 113.4,40.1 113.5,40.1Z" style="fill-rule:nonzero;"/>
        <path d="M127.4,54.6C126.6,53.8 126,52.9 125.6,51.8C125.2,50.7 124.9,49.6 124.9,48.4C124.9,47.2 125.1,46.1 125.6,45.1C126.1,44.1 126.7,43.1 127.5,42.4C128.3,41.6 129.2,41 130.2,40.6C131.3,40.1 132.3,39.9 133.3,39.9C134.3,39.9 135.3,40 136.2,40.3C138,40.8 139.5,41.8 140.7,43.3C141.9,44.8 142.5,46.5 142.5,48.5C142.5,49.7 142.3,50.8 141.9,51.8C141.5,52.9 140.9,53.8 140.1,54.6C139.3,55.4 138.4,56.1 137.2,56.6C136,57.1 134.8,57.3 133.6,57.3C132.3,57.3 131.2,57.1 130.1,56.6C129,56.1 128.1,55.4 127.4,54.6ZM131.6,55.1C132.3,55.4 132.9,55.5 133.6,55.5C135.8,55.5 137.5,54.9 138.8,53.6C140.1,52.3 140.7,50.6 140.7,48.5C140.7,47.8 140.5,47 140.1,46.2C139.7,45.4 139.2,44.6 138.6,44C138,43.4 137.2,42.8 136.3,42.3C135.4,41.9 134.4,41.6 133.2,41.6C132,41.6 131,41.9 129.9,42.5C128.9,43.1 128.1,43.9 127.5,44.9C126.9,45.9 126.7,47.1 126.7,48.5C126.7,49.9 127.2,51.2 128.2,52.5C129.2,53.7 130.4,54.6 131.6,55.1Z" style="fill-rule:nonzero;"/>
        <path d="M45.4,40.1C45.5,40.1 45.5,40.1 45.6,40.2L57,52.3L57,41.9C57,41.4 56.8,41 56.5,40.7C56.5,40.7 56.4,40.6 56.3,40.6C56.2,40.6 56.2,40.5 56.2,40.3C56.2,40.2 56.2,40.1 56.3,40.1L59.6,40.1C59.7,40.1 59.7,40.2 59.7,40.3L59.7,40.5C59.7,40.5 59.6,40.5 59.6,40.6C59.5,40.6 59.5,40.7 59.4,40.8C59.3,40.9 59.2,41 59.1,41.3C59,41.5 59,41.8 59,42L59,56.4C59,56.7 59,56.8 58.9,56.9C58.8,57 58.7,57 58.6,57C58.5,57 58.3,57 58.3,56.9L45.5,43.1L45.5,55C45.5,55.5 45.6,55.9 45.9,56.2C45.9,56.2 46,56.3 46.1,56.3C46.2,56.3 46.2,56.4 46.2,56.6C46.2,56.7 46.2,56.8 46.1,56.8L42.8,56.8C42.7,56.8 42.7,56.7 42.7,56.6L42.7,56.4C42.7,56.4 42.8,56.4 42.8,56.3C42.9,56.3 42.9,56.2 42.9,56.2C43.2,55.9 43.4,55.4 43.4,55L43.4,41.9C43.4,41.4 43.2,41 42.9,40.7C42.9,40.7 42.8,40.6 42.7,40.6C42.6,40.6 42.6,40.5 42.6,40.3C42.6,40.2 42.6,40.1 42.7,40.1L45.4,40.1Z" style="fill-rule:nonzero;"/>
        <path d="M67.9,55.2L74.6,40.2C74.6,40.1 74.8,40.1 75.1,40.1C75.4,40.1 75.6,40.1 75.6,40.2L82.5,55.2C82.8,55.8 83,56.2 83.3,56.3C83.4,56.3 83.4,56.4 83.4,56.6C83.4,56.7 83.4,56.8 83.3,56.8L79.6,56.8C79.5,56.8 79.5,56.7 79.5,56.6L79.5,56.4C79.5,56.4 79.6,56.4 79.6,56.3C79.7,56.3 79.7,56.2 79.7,56.2C80,55.9 80.1,55.7 80.1,55.5C80.1,55.3 80.1,55.1 80,55L78.5,51.5L71.2,51.5L69.8,55C69.8,55.1 69.7,55.3 69.7,55.3L69.7,55.4C69.7,55.7 69.8,55.9 70.1,56.2C70.1,56.2 70.2,56.3 70.3,56.3C70.4,56.3 70.4,56.4 70.4,56.6C70.4,56.7 70.4,56.8 70.3,56.8L67.1,56.8C67,56.8 67,56.7 67,56.6L67,56.4C67,56.4 67.1,56.4 67.1,56.3C67.3,56.2 67.6,55.9 67.9,55.2ZM72,49.9C72,49.9 71.9,49.9 72,49.9L72,50L77.8,50L77.8,49.9L74.9,43.5L74.8,43.5L72,49.9Z" style="fill-rule:nonzero;"/>
        <path d="M95.6,41.8C95.5,41.8 95.3,41.8 95.2,41.9C95.1,42 95,42.1 95,42.3L95,55C95,55.5 95.2,55.9 95.5,56.2C95.5,56.2 95.6,56.3 95.7,56.3C95.8,56.3 95.8,56.4 95.8,56.6C95.8,56.7 95.8,56.8 95.7,56.8L92.4,56.8C92.3,56.8 92.3,56.7 92.3,56.6L92.3,56.4C92.3,56.4 92.4,56.4 92.4,56.3C92.5,56.3 92.5,56.2 92.6,56.1C92.7,56 92.8,55.9 92.9,55.6C93,55.4 93,55.1 93,54.9L93,41.9C93,41.4 92.8,41 92.5,40.7C92.5,40.7 92.4,40.6 92.3,40.6C92.2,40.6 92.2,40.5 92.2,40.4C92.2,40.3 92.2,40.2 92.3,40.2L97.5,40.2C99,40.2 100.2,40.5 101.3,41.2C102.3,41.8 102.8,42.8 102.8,44.3C102.8,46 101.9,47.2 100.2,48C99.6,48.3 99.1,48.4 98.7,48.5C98.4,48.5 98.2,48.6 98.2,48.6L98.5,48.8C98.6,48.9 98.9,49.1 99.3,49.4C99.7,49.7 100.1,50.1 100.6,50.5C101,50.9 101.5,51.5 102.1,52.2C102.7,52.9 103.1,53.5 103.4,54L104.2,55.5C104.5,56.1 104.8,56.4 105,56.4C105.2,56.5 105.3,56.6 105.3,56.7C105.3,56.9 105.3,56.9 105.2,56.9L102,56.9C101.9,56.9 101.9,56.8 101.9,56.7L101.9,56.5C101.9,56.5 102,56.5 102,56.4C102.1,56.4 102.1,56.3 102.1,56.3C102.1,56.3 102.2,56.2 102.2,56.1L102.2,55.8C101.7,54.5 101,53.3 100.2,52.2C98.6,50.1 97.2,48.9 96.1,48.7C95.9,48.7 95.9,48.7 95.9,48.6L95.9,47.5C95.9,47.4 95.9,47.4 96,47.4C97.7,47.4 99,47.1 99.9,46.4C100.6,45.9 101,45.2 101,44.3C101,43.4 100.7,42.8 100,42.4C99.3,42 98.5,41.8 97.6,41.8L95.6,41.8Z" style="fill-rule:nonzero;"/>
        <g>
            <path d="M76.5,30C75.9,30.6 74.8,30.6 74.1,30L63.8,20.2C63.3,19.8 63.5,19.1 64.1,18.7L74.4,11.9C74.9,11.6 75.6,11.6 76.1,11.9L86.4,18.7C87,19.1 87.2,19.8 86.7,20.2L76.5,30Z" style="fill:rgb(27,117,186);fill-rule:nonzero;"/>
            <path d="M89.2,17.9C88.8,18.3 87.9,18.3 87.3,17.9L77,11.3C76.5,11 76.5,10.5 77,10.2L84.3,5.3C84.6,5.1 85.3,5.1 85.7,5.3L95.5,10.2C96.1,10.5 96.3,11 96,11.3L89.2,17.9Z" style="fill:rgb(80,184,85);fill-rule:nonzero;"/>
            <path d="M63.3,17.9C62.7,18.3 61.8,18.3 61.4,17.9L54.5,11.3C54.2,11 54.4,10.5 55,10.2L64.8,5.3C65.3,5.1 65.9,5.1 66.2,5.3L73.5,10.2C73.9,10.5 73.9,11 73.5,11.3L63.3,17.9Z" style="fill:rgb(80,184,85);fill-rule:nonzero;"/>
            <path d="M76.1,9.6C75.7,9.9 74.9,9.9 74.5,9.6L67.2,4.9C66.9,4.7 66.9,4.3 67.4,4.1L74.8,0.5C75.1,0.3 75.7,0.3 76.1,0.5L83.5,4.1C83.9,4.3 84,4.7 83.7,4.9L76.1,9.6Z" style="fill:rgb(80,184,85);fill-rule:nonzero;"/>
        </g>
    </g>
</svg>
