<?xml version="1.0" encoding="UTF-8" standalone="no"?><!DOCTYPE svg PUBLIC "-//W3C//DTD SVG 1.1//EN" "http://www.w3.org/Graphics/SVG/1.1/DTD/svg11.dtd"><svg width="100%" height="100%" viewBox="0 0 31 48" version="1.1" xmlns="http://www.w3.org/2000/svg" xmlns:xlink="http://www.w3.org/1999/xlink" xml:space="preserve" xmlns:serif="http://www.serif.com/" style="fill-rule:evenodd;clip-rule:evenodd;stroke-linejoin:round;stroke-miterlimit:2;"><g id="food-and-drink" serif:id="food and drink"><path d="M15.474,0c-8.546,0 -15.474,6.927 -15.474,15.474c0,12.473 15.474,32.526 15.474,32.526c0,0 15.474,-20.053 15.474,-32.526c0,-8.547 -6.928,-15.474 -15.474,-15.474Z" style="fill:#f57e21;fill-rule:nonzero;"/><path d="M15.674,0.001l0.199,0.004l0.199,0.006l0.198,0.009l0.198,0.011l0.196,0.014l0.197,0.016l0.195,0.019l0.195,0.021l0.194,0.023l0.193,0.026l0.192,0.028l0.192,0.031l0.191,0.033l0.19,0.035l0.189,0.037l0.189,0.04l0.187,0.042l0.187,0.045l0.186,0.046l0.185,0.049l0.184,0.051l0.183,0.053l0.182,0.056l0.181,0.057l0.181,0.06l0.179,0.062l0.178,0.064l0.177,0.066l0.177,0.068l0.175,0.071l0.174,0.072l0.173,0.074l0.172,0.077l0.171,0.078l0.169,0.081l0.169,0.082l0.167,0.085l0.166,0.086l0.166,0.089l0.163,0.09l0.163,0.092l0.161,0.094l0.161,0.096l0.158,0.098l0.158,0.1l0.156,0.101l0.155,0.104l0.154,0.105l0.152,0.107l0.151,0.108l0.15,0.111l0.148,0.112l0.147,0.114l0.146,0.116l0.144,0.117l0.142,0.119l0.141,0.121l0.14,0.123l0.138,0.124l0.137,0.125l0.135,0.128l0.133,0.129l0.132,0.13l0.131,0.132l0.129,0.134l0.127,0.135l0.126,0.136l0.124,0.139l0.122,0.139l0.121,0.141l0.119,0.143l0.118,0.144l0.115,0.145l0.114,0.147l0.113,0.148l0.11,0.15l0.109,0.151l0.107,0.152l0.105,0.154l0.103,0.155l0.102,0.156l0.1,0.158l0.098,0.159l0.095,0.16l0.095,0.161l0.092,0.163l0.09,0.164l0.088,0.165l0.087,0.166l0.084,0.167l0.083,0.169l0.08,0.17l0.079,0.171l0.076,0.171l0.075,0.173l0.072,0.175l0.07,0.175l0.069,0.176l0.066,0.177l0.064,0.178l0.062,0.18l0.059,0.18l0.058,0.181l0.056,0.182l0.053,0.183l0.051,0.184l0.049,0.185l0.046,0.186l0.045,0.187l0.042,0.188l0.039,0.188l0.038,0.189l0.035,0.19l0.033,0.191l0.03,0.192l0.029,0.192l0.025,0.194l0.024,0.194l0.021,0.194l0.018,0.196l0.017,0.196l0.013,0.197l0.012,0.197l0.008,0.198l0.007,0.199l0.004,0.2l0.001,0.2l-0.025,0.889l-0.074,0.912l-0.12,0.932l-0.195,1.112l-0.251,1.133l-0.303,1.152l-0.352,1.167l-0.336,1.01l-0.367,1.016l-0.395,1.021l-0.42,1.023l-0.444,1.023l-0.464,1.021l-0.483,1.016l-0.498,1.011l-0.685,1.333l-0.704,1.314l-0.716,1.288l-0.724,1.258l-0.725,1.223l-0.899,1.471l-0.882,1.398l-0.853,1.316l-0.654,0.986l-0.922,1.357l-0.832,1.195l-0.937,1.312l-0.832,1.131l-0.382,0.506l-0.044,-0.058l-0.13,-0.17l-0.209,-0.278l-0.282,-0.38l-0.167,-0.227l-0.183,-0.25l-0.199,-0.274l-0.214,-0.296l-0.228,-0.318l-0.242,-0.338l-0.254,-0.36l-0.266,-0.379l-0.277,-0.399l-0.289,-0.417l-0.298,-0.435l-0.307,-0.453l-0.316,-0.469l-0.323,-0.485l-0.331,-0.501l-0.337,-0.516l-0.171,-0.263l-0.172,-0.266l-0.173,-0.271l-0.175,-0.273l-0.175,-0.276l-0.176,-0.28l-0.178,-0.283l-0.178,-0.286l-0.179,-0.289l-0.179,-0.291l-0.18,-0.294l-0.181,-0.297l-0.18,-0.3l-0.182,-0.302l-0.181,-0.305l-0.181,-0.307l-0.181,-0.309l-0.182,-0.311l-0.181,-0.314l-0.18,-0.315l-0.181,-0.318l-0.18,-0.319l-0.179,-0.322l-0.179,-0.323l-0.178,-0.324l-0.178,-0.327l-0.176,-0.327l-0.176,-0.329l-0.174,-0.331l-0.173,-0.331l-0.172,-0.333l-0.171,-0.334l-0.169,-0.335l-0.168,-0.336l-0.166,-0.337l-0.165,-0.338l-0.162,-0.338l-0.161,-0.339l-0.159,-0.339l-0.157,-0.34l-0.155,-0.341l-0.152,-0.34l-0.151,-0.341l-0.147,-0.341l-0.146,-0.341l-0.143,-0.341l-0.14,-0.341l-0.137,-0.341l-0.135,-0.34l-0.131,-0.341l-0.129,-0.34l-0.126,-0.339l-0.122,-0.339l-0.119,-0.338l-0.116,-0.337l-0.056,-0.169l-0.056,-0.168l-0.055,-0.168l-0.054,-0.168l-0.053,-0.167l-0.052,-0.167l-0.051,-0.167l-0.05,-0.167l-0.049,-0.167l-0.049,-0.166l-0.047,-0.166l-0.046,-0.165l-0.046,-0.165l-0.044,-0.165l-0.043,-0.165l-0.043,-0.164l-0.041,-0.164l-0.04,-0.164l-0.039,-0.163l-0.038,-0.162l-0.037,-0.163l-0.036,-0.162l-0.035,-0.161l-0.034,-0.161l-0.032,-0.161l-0.031,-0.16l-0.031,-0.16l-0.029,-0.159l-0.028,-0.159l-0.026,-0.158l-0.026,-0.158l-0.024,-0.158l-0.023,-0.156l-0.022,-0.157l-0.021,-0.155l-0.019,-0.156l-0.018,-0.154l-0.017,-0.154l-0.016,-0.154l-0.014,-0.153l-0.013,-0.152l-0.012,-0.152l-0.01,-0.151l-0.009,-0.15l-0.008,-0.15l-0.006,-0.149l-0.005,-0.149l-0.003,-0.148l-0.002,-0.147l-0.001,-0.146l0.001,-0.2l0.004,-0.2l0.006,-0.199l0.009,-0.198l0.011,-0.197l0.014,-0.197l0.016,-0.196l0.019,-0.196l0.021,-0.194l0.023,-0.194l0.026,-0.194l0.028,-0.192l0.031,-0.192l0.033,-0.191l0.035,-0.19l0.037,-0.189l0.04,-0.188l0.042,-0.188l0.045,-0.187l0.046,-0.186l0.049,-0.185l0.051,-0.184l0.053,-0.183l0.056,-0.182l0.057,-0.181l0.06,-0.18l0.062,-0.18l0.064,-0.178l0.066,-0.177l0.068,-0.176l0.071,-0.175l0.072,-0.175l0.074,-0.173l0.077,-0.171l0.078,-0.171l0.081,-0.17l0.082,-0.169l0.085,-0.167l0.086,-0.166l0.089,-0.165l0.09,-0.164l0.092,-0.163l0.094,-0.161l0.096,-0.16l0.098,-0.159l0.1,-0.158l0.101,-0.156l0.104,-0.155l0.105,-0.154l0.107,-0.152l0.109,-0.151l0.11,-0.15l0.112,-0.148l0.114,-0.147l0.116,-0.145l0.117,-0.144l0.12,-0.143l0.12,-0.141l0.123,-0.139l0.124,-0.139l0.126,-0.136l0.127,-0.135l0.129,-0.134l0.13,-0.132l0.132,-0.13l0.134,-0.129l0.135,-0.128l0.137,-0.125l0.138,-0.124l0.139,-0.123l0.141,-0.121l0.143,-0.119l0.144,-0.117l0.145,-0.116l0.147,-0.114l0.149,-0.112l0.149,-0.111l0.151,-0.108l0.153,-0.107l0.153,-0.105l0.155,-0.104l0.157,-0.101l0.157,-0.1l0.159,-0.098l0.16,-0.096l0.162,-0.094l0.162,-0.092l0.164,-0.09l0.165,-0.089l0.166,-0.086l0.168,-0.085l0.168,-0.082l0.17,-0.081l0.171,-0.078l0.172,-0.077l0.173,-0.074l0.174,-0.072l0.175,-0.071l0.176,-0.068l0.177,-0.066l0.179,-0.064l0.179,-0.062l0.18,-0.06l0.181,-0.057l0.183,-0.056l0.183,-0.053l0.184,-0.051l0.185,-0.049l0.186,-0.046l0.186,-0.045l0.188,-0.042l0.188,-0.04l0.19,-0.037l0.19,-0.035l0.191,-0.033l0.191,-0.031l0.193,-0.028l0.193,-0.026l0.194,-0.023l0.195,-0.021l0.195,-0.019l0.196,-0.016l0.197,-0.014l0.198,-0.011l0.198,-0.009l0.199,-0.006l0.199,-0.004l0.2,-0.001l0.2,0.001Zm-0.375,2l-0.864,0.038l-0.848,0.092l-0.831,0.143l-0.812,0.193l-0.792,0.241l-0.771,0.287l-0.748,0.333l-0.723,0.376l-0.697,0.417l-0.669,0.458l-0.64,0.497l-0.608,0.533l-0.576,0.569l-0.54,0.602l-0.504,0.633l-0.466,0.664l-0.426,0.691l-0.385,0.718l-0.341,0.744l-0.297,0.766l-0.25,0.788l-0.203,0.808l-0.153,0.827l-0.102,0.845l-0.049,0.861l-0.004,0.35l0.001,0.126l0.001,0.128l0.004,0.13l0.004,0.13l0.005,0.131l0.007,0.132l0.008,0.134l0.009,0.134l0.011,0.135l0.011,0.136l0.013,0.137l0.014,0.137l0.015,0.139l0.016,0.139l0.018,0.14l0.018,0.141l0.02,0.142l0.021,0.143l0.023,0.143l0.023,0.145l0.024,0.145l0.026,0.145l0.027,0.146l0.027,0.148l0.029,0.147l0.03,0.149l0.032,0.149l0.032,0.15l0.033,0.15l0.034,0.151l0.036,0.151l0.036,0.152l0.038,0.153l0.039,0.153l0.039,0.154l0.041,0.154l0.041,0.155l0.043,0.156l0.044,0.155l0.044,0.157l0.046,0.157l0.046,0.157l0.048,0.157l0.048,0.158l0.049,0.159l0.051,0.159l0.051,0.159l0.052,0.16l0.053,0.16l0.053,0.158l0.111,0.324l0.114,0.322l0.117,0.324l0.12,0.325l0.123,0.326l0.127,0.327l0.129,0.328l0.133,0.328l0.135,0.328l0.137,0.33l0.141,0.329l0.143,0.33l0.145,0.33l0.148,0.33l0.15,0.33l0.152,0.33l0.155,0.329l0.156,0.33l0.158,0.329l0.161,0.328l0.161,0.328l0.164,0.328l0.165,0.327l0.167,0.325l0.168,0.325l0.169,0.324l0.17,0.323l0.172,0.322l0.172,0.321l0.174,0.319l0.174,0.318l0.176,0.316l0.175,0.315l0.177,0.313l0.177,0.311l0.177,0.31l0.178,0.308l0.178,0.305l0.178,0.304l0.178,0.301l0.178,0.299l0.178,0.297l0.177,0.295l0.178,0.292l0.177,0.289l0.176,0.287l0.176,0.284l0.175,0.281l0.175,0.278l0.173,0.275l0.173,0.272l0.172,0.27l0.17,0.265l0.169,0.263l0.168,0.258l0.332,0.509l0.326,0.493l0.319,0.478l0.311,0.462l0.303,0.446l0.293,0.429l0.284,0.41l0.273,0.393l0.262,0.373l0.25,0.354l0.238,0.333l0.029,0.041l0.029,-0.041l0.237,-0.333l0.25,-0.354l0.263,-0.373l0.273,-0.393l0.284,-0.41l0.293,-0.429l0.303,-0.446l0.311,-0.462l0.319,-0.478l0.325,-0.493l0.333,-0.509l0.167,-0.258l0.17,-0.263l0.17,-0.265l0.172,-0.27l0.173,-0.272l0.173,-0.275l0.175,-0.278l0.175,-0.281l0.176,-0.284l0.176,-0.287l0.177,-0.289l0.178,-0.292l0.177,-0.295l0.178,-0.297l0.178,-0.299l0.178,-0.301l0.178,-0.304l0.178,-0.305l0.178,-0.308l0.177,-0.31l0.177,-0.311l0.176,-0.313l0.176,-0.315l0.175,-0.316l0.175,-0.318l0.173,-0.319l0.173,-0.321l0.172,-0.322l0.17,-0.323l0.169,-0.324l0.168,-0.325l0.167,-0.325l0.165,-0.327l0.163,-0.328l0.162,-0.328l0.16,-0.328l0.159,-0.329l0.156,-0.33l0.154,-0.329l0.153,-0.33l0.15,-0.33l0.147,-0.33l0.146,-0.33l0.143,-0.33l0.14,-0.329l0.138,-0.33l0.135,-0.328l0.132,-0.328l0.13,-0.328l0.126,-0.327l0.124,-0.326l0.12,-0.325l0.117,-0.324l0.114,-0.322l0.111,-0.324l0.053,-0.158l0.053,-0.16l0.052,-0.16l0.051,-0.159l0.05,-0.159l0.05,-0.159l0.048,-0.158l0.048,-0.157l0.046,-0.157l0.046,-0.157l0.044,-0.157l0.044,-0.155l0.042,-0.156l0.042,-0.155l0.041,-0.154l0.039,-0.154l0.039,-0.153l0.037,-0.153l0.037,-0.152l0.035,-0.151l0.035,-0.151l0.033,-0.15l0.032,-0.15l0.031,-0.149l0.03,-0.149l0.029,-0.147l0.028,-0.147l0.027,-0.147l0.025,-0.145l0.025,-0.145l0.023,-0.145l0.022,-0.143l0.021,-0.143l0.02,-0.142l0.019,-0.141l0.017,-0.14l0.017,-0.139l0.015,-0.139l0.014,-0.137l0.013,-0.137l0.011,-0.136l0.011,-0.135l0.009,-0.134l0.008,-0.134l0.006,-0.132l0.006,-0.131l0.004,-0.13l0.003,-0.13l0.002,-0.128l0.001,-0.126l-0.001,-0.176l-0.004,-0.174l-0.005,-0.174l-0.008,-0.173l-0.01,-0.172l-0.012,-0.171l-0.014,-0.171l-0.016,-0.17l-0.018,-0.17l-0.021,-0.169l-0.022,-0.168l-0.025,-0.168l-0.026,-0.167l-0.029,-0.166l-0.03,-0.165l-0.033,-0.165l-0.035,-0.164l-0.036,-0.163l-0.039,-0.163l-0.04,-0.161l-0.043,-0.161l-0.044,-0.16l-0.047,-0.16l-0.048,-0.158l-0.05,-0.158l-0.052,-0.156l-0.054,-0.156l-0.055,-0.155l-0.058,-0.154l-0.059,-0.154l-0.061,-0.152l-0.063,-0.151l-0.065,-0.151l-0.067,-0.149l-0.068,-0.149l-0.07,-0.148l-0.072,-0.147l-0.073,-0.145l-0.075,-0.145l-0.077,-0.143l-0.079,-0.143l-0.08,-0.142l-0.082,-0.14l-0.084,-0.14l-0.085,-0.138l-0.087,-0.137l-0.088,-0.136l-0.09,-0.135l-0.092,-0.134l-0.093,-0.133l-0.095,-0.131l-0.096,-0.131l-0.098,-0.129l-0.099,-0.128l-0.101,-0.127l-0.102,-0.125l-0.104,-0.124l-0.105,-0.123l-0.107,-0.122l-0.108,-0.12l-0.11,-0.119l-0.111,-0.118l-0.112,-0.117l-0.114,-0.115l-0.115,-0.113l-0.116,-0.113l-0.118,-0.111l-0.119,-0.109l-0.121,-0.108l-0.121,-0.107l-0.123,-0.105l-0.124,-0.104l-0.126,-0.102l-0.127,-0.101l-0.128,-0.1l-0.129,-0.097l-0.13,-0.097l-0.132,-0.094l-0.132,-0.094l-0.134,-0.091l-0.135,-0.09l-0.136,-0.089l-0.138,-0.086l-0.138,-0.086l-0.139,-0.083l-0.141,-0.082l-0.141,-0.08l-0.143,-0.079l-0.144,-0.077l-0.144,-0.075l-0.146,-0.074l-0.147,-0.071l-0.147,-0.07l-0.149,-0.069l-0.15,-0.066l-0.15,-0.065l-0.152,-0.063l-0.152,-0.061l-0.153,-0.059l-0.154,-0.058l-0.155,-0.056l-0.156,-0.053l-0.157,-0.053l-0.158,-0.05l-0.158,-0.048l-0.159,-0.046l-0.161,-0.044l-0.16,-0.043l-0.162,-0.04l-0.162,-0.039l-0.164,-0.037l-0.164,-0.034l-0.164,-0.033l-0.166,-0.03l-0.166,-0.029l-0.167,-0.027l-0.167,-0.024l-0.168,-0.023l-0.17,-0.02l-0.169,-0.018l-0.17,-0.017l-0.171,-0.014l-0.172,-0.012l-0.172,-0.009l-0.173,-0.008l-0.173,-0.006l-0.174,-0.003l-0.175,-0.001l-0.175,0.001Z" style="fill:#fff;"/><g id="groceries"><path d="M12.811,9.868c-0.079,-0.009 -0.158,0.018 -0.216,0.072c-0.062,0.057 -0.129,0.126 -0.135,0.2c-0.006,0.089 0.161,0.234 0.28,0.278c0.148,0.055 0.329,0.012 0.488,0.045c0.892,0.186 1.731,0.48 2.401,1.143c0.016,0.016 0.038,0.026 0.063,0.033c0.178,0.05 0.346,-0.108 0.331,-0.293c-0.003,-0.034 -0.008,-0.067 -0.015,-0.101c-0.013,-0.064 -0.094,-0.118 -0.151,-0.168c-0.85,-0.742 -1.861,-1.074 -3.046,-1.209m3.532,4.469c0.069,-0.086 0.078,-0.207 0.023,-0.303c-0.024,-0.042 -0.049,-0.079 -0.08,-0.109c-0.902,-0.879 -2.014,-1.255 -3.245,-1.316c-0.029,-0.002 -0.058,0.01 -0.087,0.029c-0.146,0.096 -0.153,0.309 -0.023,0.426c0.03,0.027 0.061,0.048 0.096,0.061c0.181,0.062 0.391,0.038 0.583,0.076c0.877,0.17 1.685,0.479 2.328,1.135c0.065,0.066 0.218,0.085 0.32,0.066c0.03,-0.006 0.058,-0.031 0.085,-0.065m-2.286,-7.92c0.026,0 0.053,0.004 0.078,0.012c0.559,0.166 1.084,0.389 1.478,0.848c0.315,0.366 0.523,0.778 0.608,1.256c0.432,2.45 0.864,4.901 1.309,7.349c0.048,0.261 -0.008,0.428 -0.221,0.581c-0.115,0.083 -0.22,0.182 -0.331,0.287c-0.102,0.098 -0.262,0.102 -0.369,0.008c-0.216,-0.191 -0.434,-0.382 -0.658,-0.58c-0.103,-0.091 -0.258,-0.091 -0.361,0c-0.217,0.192 -0.433,0.383 -0.658,0.582c-0.103,0.091 -0.258,0.091 -0.362,0.001c-0.214,-0.19 -0.432,-0.382 -0.659,-0.582c-0.102,-0.091 -0.257,-0.091 -0.36,-0.001c-0.202,0.177 -0.405,0.356 -0.625,0.549c-0.139,0.122 -0.356,0.074 -0.43,-0.095c-0.025,-0.056 -0.045,-0.112 -0.055,-0.17c-0.418,-2.308 -0.824,-4.619 -1.235,-6.929c-0.266,-1.492 0.574,-2.75 2.046,-3.064c0.021,-0.004 0.042,-0.013 0.062,-0.023c0.037,-0.019 0.079,-0.029 0.121,-0.029l0.622,0Z" style="fill:#fff;fill-rule:nonzero;"/><path d="M16.453,14.189c-0.073,0.085 -0.125,0.2 -0.195,0.213c-0.102,0.019 -0.255,0 -0.32,-0.066c-0.643,-0.656 -1.451,-0.965 -2.328,-1.135c-0.192,-0.038 -0.402,-0.014 -0.583,-0.076c-0.117,-0.041 -0.197,-0.188 -0.294,-0.287c0.103,-0.08 0.209,-0.234 0.308,-0.229c1.231,0.061 2.343,0.437 3.245,1.316c0.066,0.064 0.102,0.159 0.167,0.264" style="fill:#f59d21;fill-rule:nonzero;"/><path d="M12.685,9.855c1.24,0.125 2.292,0.454 3.172,1.222c0.057,0.05 0.138,0.104 0.151,0.169c0.028,0.13 0.016,0.269 0.021,0.405c-0.136,-0.012 -0.325,0.029 -0.4,-0.045c-0.67,-0.663 -1.509,-0.957 -2.401,-1.143c-0.159,-0.033 -0.34,0.01 -0.488,-0.045c-0.119,-0.044 -0.286,-0.189 -0.28,-0.278c0.009,-0.115 0.168,-0.22 0.225,-0.285" style="fill:#f59d21;fill-rule:nonzero;"/><path d="M8.589,12.771c0.886,-0.341 1.753,-0.673 2.643,-1.015c0.266,1.509 0.529,2.994 0.801,4.535c-0.129,-0.097 -0.225,-0.169 -0.351,-0.263c-0.333,0.292 -0.667,0.585 -1.007,0.884c-0.44,-0.342 -0.81,-0.703 -0.997,-1.26c-0.321,-0.963 -0.714,-1.902 -1.089,-2.881" style="fill:#fff;fill-rule:nonzero;"/><path d="M21.871,25.859l0,-3.487l-0.007,0l0,-4.819c-0.359,0.318 -0.676,0.598 -0.994,0.88c-0.357,-0.313 -0.685,-0.6 -1.024,-0.897c-0.35,0.31 -0.677,0.599 -1.014,0.897c-0.35,-0.306 -0.685,-0.599 -1.025,-0.896c-0.355,0.313 -0.683,0.602 -1.018,0.898c-0.345,-0.305 -0.672,-0.595 -1.016,-0.9c-0.346,0.303 -0.682,0.597 -1.026,0.899c-0.347,-0.307 -0.675,-0.597 -1.018,-0.9c-0.344,0.303 -0.679,0.599 -1.021,0.901c-0.35,-0.308 -0.683,-0.602 -1.022,-0.901c-0.354,0.314 -0.68,0.603 -1.018,0.901c-0.335,-0.295 -0.652,-0.576 -1.001,-0.885l0,12.543l12.204,0c0.008,-0.081 0.021,-0.145 0.019,-0.208c-0.029,-1.342 0.05,-2.686 -0.019,-4.026" style="fill:#fff;fill-rule:nonzero;"/><path d="M19.651,13.272c0.219,-0.067 0.421,-0.166 0.557,-0.412c0.178,-0.324 0.491,-0.467 0.861,-0.473c0.111,-0.001 0.222,0.009 0.333,0.009c0.2,0 0.32,-0.111 0.337,-0.3c0.018,-0.203 -0.094,-0.33 -0.298,-0.369c-0.738,-0.143 -1.461,0.185 -1.866,0.828c-0.166,0.263 -0.257,0.499 0.076,0.717" style="fill:#fff;fill-rule:nonzero;"/><path d="M21.922,14.071c-0.451,-0.668 -1.21,-0.875 -1.941,-0.538c-0.166,0.077 -0.321,0.178 -0.48,0.268c-0.713,-1.057 -1.342,-1.373 -2.095,-1.044l0.579,3.45c0.287,0.251 0.572,0.5 0.869,0.76c0.337,-0.298 0.664,-0.588 1.014,-0.897c0.339,0.297 0.667,0.584 1.024,0.896c0.318,-0.281 0.635,-0.562 0.994,-0.879l0.09,0.447c0.082,-0.166 0.316,-0.357 0.353,-0.719c0.058,-0.561 0.081,-1.022 -0.407,-1.744" style="fill:#fff;fill-rule:nonzero;"/></g></g></svg>