<?xml version="1.0" encoding="UTF-8" standalone="no"?><!DOCTYPE svg PUBLIC "-//W3C//DTD SVG 1.1//EN" "http://www.w3.org/Graphics/SVG/1.1/DTD/svg11.dtd"><svg width="100%" height="100%" viewBox="0 0 31 48" version="1.1" xmlns="http://www.w3.org/2000/svg" xmlns:xlink="http://www.w3.org/1999/xlink" xml:space="preserve" xmlns:serif="http://www.serif.com/" style="fill-rule:evenodd;clip-rule:evenodd;stroke-linejoin:round;stroke-miterlimit:2;"><g id="Street-food-markets" serif:id="Street food markets"><path d="M15.474,0c-8.546,0 -15.474,6.927 -15.474,15.474c0,12.473 15.474,32.526 15.474,32.526c0,0 15.474,-20.053 15.474,-32.526c0,-8.547 -6.928,-15.474 -15.474,-15.474Z" style="fill:#b21d09;fill-rule:nonzero;"/><path d="M15.674,0.001l0.199,0.004l0.199,0.006l0.198,0.009l0.198,0.011l0.196,0.014l0.197,0.016l0.195,0.019l0.195,0.021l0.194,0.023l0.193,0.026l0.192,0.028l0.192,0.031l0.191,0.033l0.19,0.035l0.189,0.037l0.189,0.04l0.187,0.042l0.187,0.045l0.186,0.046l0.185,0.049l0.184,0.051l0.183,0.053l0.182,0.056l0.181,0.057l0.181,0.06l0.179,0.062l0.178,0.064l0.177,0.066l0.177,0.068l0.175,0.071l0.174,0.072l0.173,0.074l0.172,0.077l0.171,0.078l0.169,0.081l0.169,0.082l0.167,0.085l0.166,0.086l0.166,0.089l0.163,0.09l0.163,0.092l0.161,0.094l0.161,0.096l0.158,0.098l0.158,0.1l0.156,0.101l0.155,0.104l0.154,0.105l0.152,0.107l0.151,0.108l0.15,0.111l0.148,0.112l0.147,0.114l0.146,0.116l0.144,0.117l0.142,0.119l0.141,0.121l0.14,0.123l0.138,0.124l0.137,0.125l0.135,0.128l0.133,0.129l0.132,0.13l0.131,0.132l0.129,0.134l0.127,0.135l0.126,0.136l0.124,0.139l0.122,0.139l0.121,0.141l0.119,0.143l0.118,0.144l0.115,0.145l0.114,0.147l0.113,0.148l0.11,0.15l0.109,0.151l0.107,0.152l0.105,0.154l0.103,0.155l0.102,0.156l0.1,0.158l0.098,0.159l0.095,0.16l0.095,0.161l0.092,0.163l0.09,0.164l0.088,0.165l0.087,0.166l0.084,0.167l0.083,0.169l0.08,0.17l0.079,0.171l0.076,0.171l0.075,0.173l0.072,0.175l0.07,0.175l0.069,0.176l0.066,0.177l0.064,0.178l0.062,0.18l0.059,0.18l0.058,0.181l0.056,0.182l0.053,0.183l0.051,0.184l0.049,0.185l0.046,0.186l0.045,0.187l0.042,0.188l0.039,0.188l0.038,0.189l0.035,0.19l0.033,0.191l0.03,0.192l0.029,0.192l0.025,0.194l0.024,0.194l0.021,0.194l0.018,0.196l0.017,0.196l0.013,0.197l0.012,0.197l0.008,0.198l0.007,0.199l0.004,0.2l0.001,0.2l-0.025,0.889l-0.074,0.912l-0.12,0.932l-0.195,1.112l-0.251,1.133l-0.303,1.152l-0.352,1.167l-0.336,1.01l-0.367,1.016l-0.395,1.021l-0.42,1.023l-0.444,1.023l-0.464,1.021l-0.483,1.016l-0.498,1.011l-0.685,1.333l-0.704,1.314l-0.716,1.288l-0.724,1.258l-0.725,1.223l-0.899,1.471l-0.882,1.398l-0.853,1.316l-0.654,0.986l-0.922,1.357l-0.832,1.195l-0.937,1.312l-0.832,1.131l-0.382,0.506l-0.044,-0.058l-0.13,-0.17l-0.209,-0.278l-0.282,-0.38l-0.167,-0.227l-0.183,-0.25l-0.199,-0.274l-0.214,-0.296l-0.228,-0.318l-0.242,-0.338l-0.254,-0.36l-0.266,-0.379l-0.277,-0.399l-0.289,-0.417l-0.298,-0.435l-0.307,-0.453l-0.316,-0.469l-0.323,-0.485l-0.331,-0.501l-0.337,-0.516l-0.171,-0.263l-0.172,-0.266l-0.173,-0.271l-0.175,-0.273l-0.175,-0.276l-0.176,-0.28l-0.178,-0.283l-0.178,-0.286l-0.179,-0.289l-0.179,-0.291l-0.18,-0.294l-0.181,-0.297l-0.18,-0.3l-0.182,-0.302l-0.181,-0.305l-0.181,-0.307l-0.181,-0.309l-0.182,-0.311l-0.181,-0.314l-0.18,-0.315l-0.181,-0.318l-0.18,-0.319l-0.179,-0.322l-0.179,-0.323l-0.178,-0.324l-0.178,-0.327l-0.176,-0.327l-0.176,-0.329l-0.174,-0.331l-0.173,-0.331l-0.172,-0.333l-0.171,-0.334l-0.169,-0.335l-0.168,-0.336l-0.166,-0.337l-0.165,-0.338l-0.162,-0.338l-0.161,-0.339l-0.159,-0.339l-0.157,-0.34l-0.155,-0.341l-0.152,-0.34l-0.151,-0.341l-0.147,-0.341l-0.146,-0.341l-0.143,-0.341l-0.14,-0.341l-0.137,-0.341l-0.135,-0.34l-0.131,-0.341l-0.129,-0.34l-0.126,-0.339l-0.122,-0.339l-0.119,-0.338l-0.116,-0.337l-0.056,-0.169l-0.056,-0.168l-0.055,-0.168l-0.054,-0.168l-0.053,-0.167l-0.052,-0.167l-0.051,-0.167l-0.05,-0.167l-0.049,-0.167l-0.049,-0.166l-0.047,-0.166l-0.046,-0.165l-0.046,-0.165l-0.044,-0.165l-0.043,-0.165l-0.043,-0.164l-0.041,-0.164l-0.04,-0.164l-0.039,-0.163l-0.038,-0.162l-0.037,-0.163l-0.036,-0.162l-0.035,-0.161l-0.034,-0.161l-0.032,-0.161l-0.031,-0.16l-0.031,-0.16l-0.029,-0.159l-0.028,-0.159l-0.026,-0.158l-0.026,-0.158l-0.024,-0.158l-0.023,-0.156l-0.022,-0.157l-0.021,-0.155l-0.019,-0.156l-0.018,-0.154l-0.017,-0.154l-0.016,-0.154l-0.014,-0.153l-0.013,-0.152l-0.012,-0.152l-0.01,-0.151l-0.009,-0.15l-0.008,-0.15l-0.006,-0.149l-0.005,-0.149l-0.003,-0.148l-0.002,-0.147l-0.001,-0.146l0.001,-0.2l0.004,-0.2l0.006,-0.199l0.009,-0.198l0.011,-0.197l0.014,-0.197l0.016,-0.196l0.019,-0.196l0.021,-0.194l0.023,-0.194l0.026,-0.194l0.028,-0.192l0.031,-0.192l0.033,-0.191l0.035,-0.19l0.037,-0.189l0.04,-0.188l0.042,-0.188l0.045,-0.187l0.046,-0.186l0.049,-0.185l0.051,-0.184l0.053,-0.183l0.056,-0.182l0.057,-0.181l0.06,-0.18l0.062,-0.18l0.064,-0.178l0.066,-0.177l0.068,-0.176l0.071,-0.175l0.072,-0.175l0.074,-0.173l0.077,-0.171l0.078,-0.171l0.081,-0.17l0.082,-0.169l0.085,-0.167l0.086,-0.166l0.089,-0.165l0.09,-0.164l0.092,-0.163l0.094,-0.161l0.096,-0.16l0.098,-0.159l0.1,-0.158l0.101,-0.156l0.104,-0.155l0.105,-0.154l0.107,-0.152l0.109,-0.151l0.11,-0.15l0.112,-0.148l0.114,-0.147l0.116,-0.145l0.117,-0.144l0.12,-0.143l0.12,-0.141l0.123,-0.139l0.124,-0.139l0.126,-0.136l0.127,-0.135l0.129,-0.134l0.13,-0.132l0.132,-0.13l0.134,-0.129l0.135,-0.128l0.137,-0.125l0.138,-0.124l0.139,-0.123l0.141,-0.121l0.143,-0.119l0.144,-0.117l0.145,-0.116l0.147,-0.114l0.149,-0.112l0.149,-0.111l0.151,-0.108l0.153,-0.107l0.153,-0.105l0.155,-0.104l0.157,-0.101l0.157,-0.1l0.159,-0.098l0.16,-0.096l0.162,-0.094l0.162,-0.092l0.164,-0.09l0.165,-0.089l0.166,-0.086l0.168,-0.085l0.168,-0.082l0.17,-0.081l0.171,-0.078l0.172,-0.077l0.173,-0.074l0.174,-0.072l0.175,-0.071l0.176,-0.068l0.177,-0.066l0.179,-0.064l0.179,-0.062l0.18,-0.06l0.181,-0.057l0.183,-0.056l0.183,-0.053l0.184,-0.051l0.185,-0.049l0.186,-0.046l0.186,-0.045l0.188,-0.042l0.188,-0.04l0.19,-0.037l0.19,-0.035l0.191,-0.033l0.191,-0.031l0.193,-0.028l0.193,-0.026l0.194,-0.023l0.195,-0.021l0.195,-0.019l0.196,-0.016l0.197,-0.014l0.198,-0.011l0.198,-0.009l0.199,-0.006l0.199,-0.004l0.2,-0.001l0.2,0.001Zm-0.375,2l-0.864,0.038l-0.848,0.092l-0.831,0.143l-0.812,0.193l-0.792,0.24l-0.771,0.288l-0.748,0.333l-0.723,0.376l-0.697,0.417l-0.669,0.458l-0.64,0.497l-0.608,0.533l-0.576,0.569l-0.54,0.602l-0.504,0.633l-0.466,0.664l-0.426,0.691l-0.385,0.719l-0.341,0.743l-0.297,0.766l-0.25,0.788l-0.203,0.808l-0.153,0.827l-0.102,0.845l-0.049,0.861l-0.004,0.35l0.001,0.126l0.001,0.128l0.004,0.129l0.004,0.131l0.005,0.131l0.007,0.132l0.008,0.134l0.009,0.134l0.011,0.135l0.011,0.136l0.013,0.137l0.014,0.137l0.015,0.139l0.016,0.139l0.018,0.14l0.018,0.142l0.02,0.141l0.021,0.143l0.023,0.143l0.023,0.145l0.024,0.144l0.026,0.146l0.027,0.147l0.027,0.147l0.029,0.147l0.03,0.149l0.032,0.149l0.032,0.149l0.033,0.151l0.034,0.151l0.036,0.151l0.036,0.152l0.038,0.153l0.039,0.153l0.039,0.154l0.041,0.155l0.041,0.154l0.043,0.156l0.044,0.155l0.044,0.157l0.046,0.157l0.046,0.157l0.048,0.157l0.048,0.158l0.049,0.159l0.051,0.159l0.051,0.159l0.052,0.16l0.053,0.16l0.053,0.158l0.111,0.324l0.114,0.323l0.117,0.323l0.12,0.325l0.123,0.326l0.127,0.327l0.129,0.328l0.133,0.328l0.135,0.328l0.138,0.33l0.14,0.329l0.143,0.33l0.145,0.33l0.148,0.33l0.15,0.33l0.152,0.33l0.155,0.329l0.156,0.33l0.158,0.329l0.161,0.328l0.161,0.328l0.164,0.328l0.165,0.327l0.167,0.325l0.168,0.325l0.169,0.324l0.17,0.323l0.172,0.322l0.172,0.321l0.174,0.319l0.174,0.318l0.176,0.316l0.175,0.315l0.177,0.313l0.177,0.311l0.177,0.31l0.178,0.308l0.178,0.305l0.178,0.304l0.178,0.301l0.178,0.299l0.178,0.297l0.177,0.295l0.178,0.292l0.177,0.289l0.176,0.287l0.176,0.284l0.175,0.281l0.175,0.278l0.173,0.275l0.173,0.273l0.172,0.269l0.17,0.265l0.169,0.263l0.168,0.258l0.332,0.509l0.326,0.493l0.319,0.478l0.311,0.462l0.303,0.446l0.293,0.429l0.284,0.41l0.273,0.393l0.262,0.373l0.25,0.354l0.238,0.333l0.029,0.041l0.029,-0.041l0.237,-0.333l0.25,-0.354l0.263,-0.373l0.273,-0.393l0.284,-0.41l0.293,-0.429l0.303,-0.446l0.311,-0.462l0.319,-0.478l0.325,-0.493l0.333,-0.509l0.167,-0.258l0.17,-0.263l0.17,-0.265l0.172,-0.269l0.173,-0.273l0.173,-0.275l0.175,-0.278l0.175,-0.281l0.176,-0.284l0.176,-0.287l0.177,-0.289l0.178,-0.292l0.177,-0.295l0.178,-0.297l0.178,-0.299l0.178,-0.301l0.178,-0.304l0.178,-0.305l0.178,-0.308l0.177,-0.31l0.177,-0.311l0.176,-0.313l0.176,-0.315l0.175,-0.316l0.175,-0.318l0.173,-0.319l0.173,-0.321l0.172,-0.322l0.17,-0.323l0.169,-0.324l0.168,-0.325l0.167,-0.325l0.165,-0.327l0.163,-0.328l0.162,-0.328l0.16,-0.328l0.159,-0.329l0.156,-0.33l0.154,-0.329l0.153,-0.33l0.15,-0.33l0.147,-0.33l0.146,-0.33l0.143,-0.33l0.14,-0.329l0.138,-0.33l0.135,-0.328l0.133,-0.328l0.129,-0.328l0.126,-0.327l0.124,-0.326l0.12,-0.325l0.117,-0.323l0.114,-0.323l0.111,-0.324l0.053,-0.158l0.053,-0.16l0.052,-0.16l0.051,-0.159l0.05,-0.159l0.05,-0.159l0.048,-0.158l0.047,-0.157l0.047,-0.157l0.046,-0.157l0.044,-0.157l0.044,-0.155l0.042,-0.156l0.042,-0.155l0.041,-0.154l0.039,-0.154l0.039,-0.153l0.037,-0.153l0.037,-0.152l0.035,-0.151l0.035,-0.151l0.033,-0.15l0.032,-0.15l0.031,-0.149l0.03,-0.149l0.029,-0.147l0.028,-0.147l0.027,-0.147l0.025,-0.146l0.025,-0.144l0.023,-0.144l0.022,-0.144l0.021,-0.143l0.02,-0.142l0.019,-0.141l0.017,-0.14l0.017,-0.139l0.015,-0.139l0.014,-0.137l0.013,-0.137l0.011,-0.136l0.011,-0.135l0.009,-0.134l0.008,-0.134l0.006,-0.132l0.006,-0.131l0.004,-0.13l0.003,-0.13l0.002,-0.128l0.001,-0.126l-0.001,-0.176l-0.004,-0.174l-0.005,-0.174l-0.008,-0.173l-0.01,-0.172l-0.012,-0.171l-0.014,-0.171l-0.016,-0.171l-0.018,-0.169l-0.021,-0.169l-0.022,-0.168l-0.025,-0.168l-0.026,-0.167l-0.029,-0.166l-0.03,-0.165l-0.033,-0.165l-0.035,-0.164l-0.036,-0.163l-0.039,-0.163l-0.04,-0.161l-0.043,-0.161l-0.044,-0.16l-0.047,-0.16l-0.048,-0.158l-0.05,-0.157l-0.052,-0.157l-0.054,-0.156l-0.055,-0.155l-0.058,-0.154l-0.059,-0.154l-0.061,-0.152l-0.063,-0.151l-0.065,-0.151l-0.067,-0.15l-0.068,-0.148l-0.07,-0.148l-0.072,-0.146l-0.073,-0.146l-0.075,-0.145l-0.077,-0.143l-0.079,-0.143l-0.08,-0.142l-0.082,-0.14l-0.084,-0.14l-0.085,-0.138l-0.087,-0.137l-0.088,-0.136l-0.09,-0.135l-0.092,-0.134l-0.093,-0.133l-0.095,-0.131l-0.096,-0.131l-0.098,-0.129l-0.099,-0.128l-0.101,-0.127l-0.102,-0.125l-0.104,-0.124l-0.105,-0.123l-0.107,-0.122l-0.108,-0.12l-0.11,-0.119l-0.111,-0.118l-0.112,-0.117l-0.114,-0.115l-0.115,-0.113l-0.116,-0.113l-0.118,-0.111l-0.119,-0.109l-0.12,-0.108l-0.122,-0.107l-0.123,-0.105l-0.124,-0.104l-0.126,-0.102l-0.127,-0.101l-0.128,-0.099l-0.129,-0.098l-0.13,-0.097l-0.132,-0.094l-0.132,-0.094l-0.134,-0.091l-0.135,-0.09l-0.136,-0.089l-0.138,-0.086l-0.138,-0.086l-0.139,-0.083l-0.141,-0.082l-0.142,-0.08l-0.142,-0.079l-0.144,-0.077l-0.144,-0.075l-0.146,-0.074l-0.147,-0.071l-0.147,-0.07l-0.149,-0.069l-0.15,-0.066l-0.15,-0.065l-0.152,-0.063l-0.152,-0.061l-0.153,-0.059l-0.154,-0.058l-0.156,-0.056l-0.155,-0.054l-0.157,-0.051l-0.158,-0.051l-0.158,-0.048l-0.159,-0.046l-0.16,-0.044l-0.161,-0.043l-0.162,-0.04l-0.162,-0.039l-0.163,-0.037l-0.165,-0.034l-0.164,-0.033l-0.166,-0.03l-0.166,-0.029l-0.167,-0.027l-0.167,-0.024l-0.169,-0.023l-0.169,-0.02l-0.169,-0.018l-0.17,-0.017l-0.171,-0.014l-0.172,-0.012l-0.172,-0.009l-0.173,-0.008l-0.173,-0.006l-0.174,-0.003l-0.175,-0.001l-0.175,0.001Z" style="fill:#fff;"/><g><g id="street-food" serif:id="street food"><path d="M17.722,19.571l-1.466,0c-0.212,0 -0.386,-0.173 -0.386,-0.385l0,-2.44c0,-0.212 0.174,-0.385 0.386,-0.385l1.466,0c0.212,0 0.386,0.173 0.386,0.385l0,2.44c0,0.212 -0.174,0.385 -0.386,0.385" style="fill:#fff;fill-rule:nonzero;"/><path d="M14.587,19.463c-0.026,-0.16 -0.003,-1.222 0.198,-1.818c0.132,-0.39 0.438,-0.73 0.908,-1.012c0.332,-0.198 0.488,-0.306 0.563,-0.272c0.184,0.081 0.275,0.588 0.275,0.588l-0.097,-0.307l0.098,0.306c-0.26,0.084 -0.97,0.41 -1.137,0.904c-0.158,0.465 -0.23,1.304 -0.235,1.45c0,-0.005 -0.019,0.164 -0.02,0.161l-0.553,0Z" style="fill:#fff;fill-rule:nonzero;"/><path d="M19.444,19.463l-0.63,0c0,0.003 -0.006,-0.099 -0.007,-0.094c0.012,-0.13 -0.013,-1.052 -0.17,-1.517c-0.167,-0.494 -0.878,-0.82 -1.137,-0.904c0,0 0.027,-0.513 0.17,-0.587c0.012,-0.006 0.315,0 0.668,0.272c0.434,0.336 0.777,0.622 0.909,1.012c0.201,0.596 0.224,1.658 0.197,1.818" style="fill:#fff;fill-rule:nonzero;"/><path d="M18.003,15.174c0,0.546 -0.443,0.99 -0.99,0.99c-0.546,0 -0.989,-0.444 -0.989,-0.99c0,-0.547 0.443,-0.99 0.989,-0.99c0.547,0 0.99,0.443 0.99,0.99" style="fill:#fff;fill-rule:nonzero;"/><path d="M14.811,14.208c0,-0.012 -0.01,-0.021 -0.021,-0.021c-0.011,0 -0.02,0.009 -0.02,0.021c0,0.011 0.009,0.02 0.02,0.02c0.011,0 0.021,-0.009 0.021,-0.02" style="fill:#ed1c24;fill-rule:nonzero;"/><rect x="16.365" y="16.361" width="1.305" height="3.21" style="fill:#b21d09;"/><rect x="16.605" y="16.361" width="0.852" height="1.118" style="fill:#fff;"/><path d="M12.78,25.836c0,-0.558 -0.456,-1.015 -1.013,-1.016c-0.554,-0.002 -1.012,0.46 -1.01,1.019c0.002,0.562 0.454,1.015 1.013,1.014c0.558,-0.001 1.01,-0.456 1.01,-1.017m0.811,-0.001c0,1.019 -0.805,1.836 -1.814,1.84c-1.018,0.005 -1.833,-0.817 -1.83,-1.845c0.003,-1.018 0.812,-1.828 1.824,-1.826c1.014,0.003 1.82,0.814 1.82,1.831" style="fill:#fff;fill-rule:nonzero;"/><path d="M20.181,25.83c-0.002,-0.559 -0.461,-1.014 -1.018,-1.011c-0.556,0.004 -1.009,0.466 -1.006,1.025c0.003,0.56 0.461,1.013 1.02,1.009c0.559,-0.003 1.007,-0.46 1.004,-1.023m0.809,0.017c-0.005,1.017 -0.818,1.832 -1.824,1.828c-1.02,-0.004 -1.824,-0.826 -1.817,-1.857c0.006,-1.016 0.817,-1.817 1.835,-1.813c1.009,0.004 1.811,0.823 1.806,1.842" style="fill:#fff;fill-rule:nonzero;"/><path d="M10.444,12.122l-2.668,0c0.073,-0.382 0.143,-0.751 0.216,-1.119c0.24,-1.199 0.483,-2.398 0.72,-3.597c0.026,-0.134 0.061,-0.222 0.225,-0.221c0.737,0.006 1.475,0.003 2.213,0.004c0.044,0 0.087,0.014 0.146,0.024c-0.285,1.64 -0.568,3.27 -0.852,4.909" style="fill:#fff;fill-rule:nonzero;"/><path d="M19.67,7.187l0.479,0c0.579,0 1.158,0.008 1.736,-0.004c0.215,-0.004 0.317,0.045 0.363,0.282c0.283,1.486 0.586,2.968 0.882,4.451c0.012,0.059 0.018,0.12 0.029,0.197c-0.065,0.006 -0.122,0.015 -0.179,0.016c-0.746,0 -1.492,-0.005 -2.238,0.004c-0.173,0.002 -0.227,-0.051 -0.256,-0.222c-0.262,-1.559 -0.536,-3.116 -0.816,-4.724" style="fill:#fff;fill-rule:nonzero;"/><path d="M13.619,12.121l-2.607,0c0.286,-1.648 0.57,-3.282 0.853,-4.917l2.13,0c-0.126,1.644 -0.25,3.27 -0.376,4.917" style="fill:#fff;fill-rule:nonzero;"/><path d="M19.104,7.201c0.285,1.648 0.567,3.272 0.851,4.914l-2.604,0c-0.124,-1.632 -0.249,-3.265 -0.375,-4.914l2.128,0Z" style="fill:#fff;fill-rule:nonzero;"/><path d="M16.778,12.118c-0.073,0.004 -0.132,0.01 -0.191,0.011c-0.79,0 -1.579,0 -2.407,0c0.126,-1.65 0.25,-3.275 0.375,-4.91c0.064,-0.012 0.115,-0.029 0.165,-0.03c0.502,-0.002 1.004,0.001 1.506,-0.003c0.125,-0.001 0.19,0.026 0.201,0.173c0.113,1.524 0.233,3.047 0.351,4.571c0.004,0.058 0,0.117 0,0.188" style="fill:#fff;fill-rule:nonzero;"/><path d="M14.15,12.705l2.635,0c0.007,0.45 -0.193,0.782 -0.548,1.015c-0.474,0.311 -0.976,0.324 -1.467,0.041c-0.395,-0.227 -0.603,-0.58 -0.62,-1.056" style="fill:#fff;fill-rule:nonzero;"/><path d="M13.577,12.708c-0.016,0.735 -0.632,1.277 -1.392,1.246c-0.696,-0.028 -1.27,-0.604 -1.228,-1.246l2.62,0Z" style="fill:#fff;fill-rule:nonzero;"/><path d="M23.215,12.709c0.003,0.711 -0.614,1.265 -1.364,1.245c-0.708,-0.018 -1.295,-0.594 -1.254,-1.245l2.618,0Z" style="fill:#fff;fill-rule:nonzero;"/><path d="M17.37,12.702l2.606,0c0.086,0.594 -0.485,1.196 -1.176,1.25c-0.769,0.059 -1.418,-0.498 -1.43,-1.25" style="fill:#fff;fill-rule:nonzero;"/><path d="M7.734,12.707l2.606,0c0.055,0.65 -0.548,1.237 -1.266,1.247c-0.751,0.011 -1.375,-0.567 -1.34,-1.247" style="fill:#fff;fill-rule:nonzero;"/><path d="M11.773,26.288c0.253,-0.002 0.445,-0.195 0.446,-0.449c0,-0.253 -0.193,-0.451 -0.443,-0.455c-0.259,-0.004 -0.463,0.202 -0.457,0.463c0.006,0.258 0.197,0.443 0.454,0.441m1.007,-0.452c0,0.561 -0.452,1.016 -1.011,1.017c-0.558,0.001 -1.011,-0.452 -1.012,-1.014c-0.001,-0.559 0.456,-1.021 1.01,-1.019c0.557,0.001 1.013,0.458 1.013,1.016" style="fill:#b21d09;fill-rule:nonzero;"/><path d="M19.177,26.288c0.254,-0.003 0.444,-0.197 0.443,-0.452c0,-0.252 -0.195,-0.449 -0.446,-0.452c-0.257,-0.004 -0.463,0.207 -0.456,0.466c0.007,0.253 0.204,0.441 0.459,0.438m1.004,-0.458c0.003,0.563 -0.445,1.02 -1.004,1.024c-0.559,0.003 -1.017,-0.45 -1.02,-1.01c-0.003,-0.559 0.45,-1.021 1.006,-1.025c0.557,-0.003 1.016,0.452 1.018,1.011" style="fill:#b21d09;fill-rule:nonzero;"/><path d="M11.773,26.288c-0.257,0.002 -0.448,-0.183 -0.454,-0.441c-0.006,-0.261 0.198,-0.467 0.457,-0.463c0.25,0.004 0.443,0.202 0.443,0.455c-0.001,0.254 -0.193,0.447 -0.446,0.449" style="fill:#fff;fill-rule:nonzero;"/><path d="M19.177,26.288c-0.255,0.003 -0.452,-0.185 -0.459,-0.438c-0.007,-0.259 0.199,-0.47 0.456,-0.466c0.251,0.003 0.446,0.2 0.446,0.452c0.001,0.255 -0.189,0.449 -0.443,0.452" style="fill:#fff;fill-rule:nonzero;"/><path d="M8.541,19.529l0,0.252c0,1.827 0,3.654 0.001,5.481c0,0.076 -0.026,0.169 0.008,0.225c0.073,0.121 0.158,0.282 0.273,0.319c0.169,0.054 0.368,0.013 0.553,0.013c0.074,-1.431 1.119,-2.256 2.103,-2.366c0.572,-0.064 1.109,0.049 1.588,0.373c0.704,0.475 1.05,1.157 1.1,2.003l2.608,0c0.099,-1.598 1.318,-2.34 2.267,-2.394c1.022,-0.058 2.399,0.658 2.533,2.394c0.08,0 0.162,0 0.243,0c0.5,0.001 0.581,-0.08 0.581,-0.58c0,-1.828 0,-3.654 0,-5.481l0,-0.239l-13.858,0Z" style="fill:#fff;fill-rule:nonzero;"/><path d="M22.655,19.942l-14.375,0c-0.277,0 -0.504,-0.227 -0.504,-0.504c0,-0.277 0.227,-0.504 0.504,-0.504l14.375,0c0.277,0 0.504,0.227 0.504,0.504c0,0.277 -0.227,0.504 -0.504,0.504" style="fill:#fff;fill-rule:nonzero;"/><rect x="9.002" y="15.744" width="0.37" height="3.344" style="fill:#fff;"/><rect x="21.536" y="15.744" width="0.37" height="3.344" style="fill:#fff;"/></g></g></g></svg>