<?xml version="1.0" encoding="UTF-8" standalone="no"?>
<!DOCTYPE svg PUBLIC "-//W3C//DTD SVG 1.1//EN" "http://www.w3.org/Graphics/SVG/1.1/DTD/svg11.dtd">
<svg width="100%" height="100%" viewBox="0 0 31 48" version="1.1" xmlns="http://www.w3.org/2000/svg" xmlns:xlink="http://www.w3.org/1999/xlink" xml:space="preserve" xmlns:serif="http://www.serif.com/" style="fill-rule:evenodd;clip-rule:evenodd;stroke-linejoin:round;stroke-miterlimit:2;">
    <g id="Shopping-L1" serif:id="Shopping L1">
        <path d="M15.474,0C6.928,0 0,6.927 0,15.474C0,27.947 15.474,48 15.474,48C15.474,48 30.948,27.947 30.948,15.474C30.948,6.927 24.02,0 15.474,0Z" style="fill:rgb(60,200,49);fill-rule:nonzero;"/>
        <path d="M15.674,0.001L15.873,0.005L16.072,0.011L16.27,0.02L16.468,0.031L16.664,0.045L16.861,0.061L17.056,0.08L17.251,0.101L17.445,0.124L17.638,0.15L17.83,0.178L18.022,0.209L18.213,0.242L18.403,0.277L18.592,0.314L18.781,0.354L18.968,0.396L19.155,0.441L19.341,0.487L19.526,0.536L19.71,0.587L19.893,0.64L20.075,0.696L20.256,0.753L20.437,0.813L20.616,0.875L20.794,0.939L20.971,1.005L21.148,1.073L21.323,1.144L21.497,1.216L21.67,1.29L21.842,1.367L22.013,1.445L22.182,1.526L22.351,1.608L22.518,1.693L22.684,1.779L22.85,1.868L23.013,1.958L23.176,2.05L23.337,2.144L23.498,2.24L23.656,2.338L23.814,2.438L23.97,2.539L24.125,2.643L24.279,2.748L24.431,2.855L24.582,2.963L24.732,3.074L24.88,3.186L25.027,3.3L25.173,3.416L25.317,3.533L25.459,3.652L25.6,3.773L25.74,3.896L25.878,4.02L26.015,4.145L26.15,4.273L26.283,4.402L26.415,4.532L26.546,4.664L26.675,4.798L26.802,4.933L26.928,5.069L27.052,5.208L27.174,5.347L27.295,5.488L27.414,5.631L27.532,5.775L27.647,5.92L27.761,6.067L27.874,6.215L27.984,6.365L28.093,6.516L28.2,6.668L28.305,6.822L28.408,6.977L28.51,7.133L28.61,7.291L28.708,7.45L28.803,7.61L28.898,7.771L28.99,7.934L29.08,8.098L29.168,8.263L29.255,8.429L29.339,8.596L29.422,8.765L29.502,8.935L29.581,9.106L29.657,9.277L29.732,9.45L29.804,9.625L29.874,9.8L29.943,9.976L30.009,10.153L30.073,10.331L30.135,10.511L30.194,10.691L30.252,10.872L30.308,11.054L30.361,11.237L30.412,11.421L30.461,11.606L30.507,11.792L30.552,11.979L30.594,12.167L30.633,12.355L30.671,12.544L30.706,12.734L30.739,12.925L30.769,13.117L30.798,13.309L30.823,13.503L30.847,13.697L30.868,13.891L30.886,14.087L30.903,14.283L30.916,14.48L30.928,14.677L30.936,14.875L30.943,15.074L30.947,15.274L30.948,15.474L30.923,16.363L30.849,17.275L30.729,18.207L30.534,19.319L30.283,20.452L29.98,21.604L29.628,22.771L29.292,23.781L28.925,24.797L28.53,25.818L28.11,26.841L27.666,27.864L27.202,28.885L26.719,29.901L26.221,30.912L25.536,32.245L24.832,33.559L24.116,34.847L23.392,36.105L22.667,37.328L21.768,38.799L20.886,40.197L20.033,41.513L19.379,42.499L18.457,43.856L17.625,45.051L16.688,46.363L15.856,47.494L15.474,48L15.43,47.942L15.3,47.772L15.091,47.494L14.809,47.114L14.642,46.887L14.459,46.637L14.26,46.363L14.046,46.067L13.818,45.749L13.576,45.411L13.322,45.051L13.056,44.672L12.779,44.273L12.49,43.856L12.192,43.421L11.885,42.968L11.569,42.499L11.246,42.014L10.915,41.513L10.578,40.997L10.407,40.734L10.235,40.468L10.062,40.197L9.887,39.924L9.712,39.648L9.536,39.368L9.358,39.085L9.18,38.799L9.001,38.51L8.822,38.219L8.642,37.925L8.461,37.628L8.281,37.328L8.099,37.026L7.918,36.721L7.737,36.414L7.556,36.105L7.374,35.794L7.193,35.48L7.013,35.165L6.832,34.847L6.652,34.528L6.473,34.206L6.294,33.883L6.116,33.559L5.938,33.232L5.762,32.905L5.586,32.576L5.412,32.245L5.239,31.914L5.067,31.581L4.896,31.247L4.727,30.912L4.559,30.576L4.393,30.239L4.228,29.901L4.066,29.563L3.905,29.224L3.746,28.885L3.589,28.545L3.434,28.204L3.282,27.864L3.131,27.523L2.984,27.182L2.838,26.841L2.695,26.5L2.555,26.159L2.418,25.818L2.283,25.478L2.152,25.137L2.023,24.797L1.897,24.458L1.775,24.119L1.656,23.781L1.54,23.444L1.484,23.275L1.428,23.107L1.373,22.939L1.319,22.771L1.266,22.604L1.214,22.437L1.163,22.27L1.113,22.103L1.064,21.936L1.015,21.77L0.968,21.604L0.876,21.274L0.832,21.109L0.789,20.944L0.746,20.78L0.705,20.616L0.665,20.452L0.626,20.289L0.588,20.127L0.551,19.964L0.515,19.802L0.48,19.641L0.446,19.48L0.414,19.319L0.352,18.999L0.323,18.84L0.295,18.681L0.243,18.365L0.219,18.207L0.196,18.051L0.174,17.894L0.153,17.739L0.134,17.583L0.116,17.429L0.099,17.275L0.083,17.121L0.069,16.968L0.056,16.816L0.044,16.664L0.034,16.513L0.025,16.363L0.017,16.213L0.011,16.064L0.006,15.915L0.003,15.767L0.001,15.62L0,15.474L0.001,15.274L0.005,15.074L0.011,14.875L0.02,14.677L0.031,14.48L0.045,14.283L0.061,14.087L0.08,13.891L0.101,13.697L0.124,13.503L0.15,13.309L0.178,13.117L0.209,12.925L0.242,12.734L0.277,12.544L0.314,12.355L0.354,12.167L0.396,11.979L0.441,11.792L0.487,11.606L0.536,11.421L0.587,11.237L0.64,11.054L0.696,10.872L0.753,10.691L0.813,10.511L0.875,10.331L0.939,10.153L1.005,9.976L1.073,9.8L1.144,9.625L1.216,9.45L1.29,9.277L1.367,9.106L1.445,8.935L1.526,8.765L1.608,8.596L1.693,8.429L1.779,8.263L1.868,8.098L1.958,7.934L2.05,7.771L2.144,7.61L2.24,7.45L2.338,7.291L2.438,7.133L2.539,6.977L2.643,6.822L2.748,6.668L2.855,6.516L2.964,6.365L3.074,6.215L3.186,6.067L3.3,5.92L3.416,5.775L3.533,5.631L3.653,5.488L3.773,5.347L3.896,5.208L4.02,5.069L4.146,4.933L4.273,4.798L4.402,4.664L4.532,4.532L4.664,4.402L4.798,4.273L4.933,4.145L5.07,4.02L5.208,3.896L5.347,3.773L5.488,3.652L5.631,3.533L5.775,3.416L5.92,3.3L6.067,3.186L6.216,3.074L6.365,2.963L6.516,2.855L6.669,2.748L6.822,2.643L6.977,2.539L7.134,2.438L7.291,2.338L7.45,2.24L7.61,2.144L7.772,2.05L7.934,1.958L8.098,1.868L8.263,1.779L8.429,1.693L8.597,1.608L8.765,1.526L8.935,1.445L9.106,1.367L9.278,1.29L9.451,1.216L9.625,1.144L9.8,1.073L9.976,1.005L10.153,0.939L10.332,0.875L10.511,0.813L10.691,0.753L10.872,0.696L11.055,0.64L11.238,0.587L11.422,0.536L11.607,0.487L11.793,0.441L11.979,0.396L12.167,0.354L12.355,0.314L12.545,0.277L12.735,0.242L12.926,0.209L13.117,0.178L13.31,0.15L13.503,0.124L13.697,0.101L13.892,0.08L14.087,0.061L14.283,0.045L14.48,0.031L14.678,0.02L14.876,0.011L15.075,0.005L15.274,0.001L15.474,0L15.674,0.001ZM15.299,2.001L14.435,2.039L13.587,2.131L12.756,2.274L11.944,2.467L11.152,2.708L10.381,2.995L9.633,3.328L8.91,3.704L8.213,4.121L7.544,4.579L6.904,5.076L6.296,5.609L5.72,6.178L5.18,6.78L4.676,7.413L4.21,8.077L3.784,8.768L3.399,9.486L3.058,10.23L2.761,10.996L2.511,11.784L2.308,12.592L2.155,13.419L2.053,14.264L2.004,15.125L2,15.475L2.002,15.729L2.01,15.989L2.015,16.12L2.022,16.252L2.03,16.386L2.039,16.52L2.05,16.655L2.061,16.791L2.074,16.927L2.088,17.065L2.103,17.204L2.119,17.343L2.137,17.483L2.155,17.624L2.175,17.766L2.196,17.909L2.219,18.052L2.242,18.197L2.266,18.342L2.292,18.487L2.346,18.781L2.375,18.928L2.405,19.077L2.437,19.226L2.469,19.376L2.502,19.526L2.536,19.677L2.572,19.828L2.608,19.98L2.646,20.133L2.685,20.286L2.724,20.44L2.765,20.594L2.806,20.749L2.849,20.905L2.893,21.06L2.937,21.217L3.029,21.531L3.077,21.688L3.125,21.846L3.174,22.005L3.276,22.323L3.328,22.483L3.381,22.643L3.434,22.801L3.545,23.125L3.659,23.447L3.776,23.771L3.896,24.096L4.019,24.422L4.146,24.749L4.275,25.077L4.408,25.405L4.543,25.733L4.681,26.063L4.821,26.392L4.964,26.722L5.109,27.052L5.257,27.382L5.407,27.712L5.559,28.042L5.714,28.371L5.87,28.701L6.028,29.03L6.35,29.686L6.514,30.014L6.679,30.341L6.846,30.666L7.014,30.991L7.183,31.315L7.353,31.638L7.525,31.96L7.697,32.281L7.871,32.6L8.045,32.918L8.221,33.234L8.396,33.549L8.573,33.862L8.75,34.173L8.927,34.483L9.105,34.791L9.283,35.096L9.461,35.4L9.639,35.701L9.817,36L9.995,36.297L10.172,36.592L10.35,36.884L10.527,37.173L10.703,37.46L10.879,37.744L11.054,38.025L11.229,38.303L11.402,38.578L11.575,38.851L11.747,39.12L11.917,39.385L12.086,39.648L12.254,39.906L12.586,40.415L12.912,40.908L13.231,41.386L13.542,41.848L13.845,42.294L14.138,42.723L14.422,43.133L14.695,43.526L14.957,43.899L15.207,44.253L15.445,44.586L15.474,44.627L15.503,44.586L15.74,44.253L15.99,43.899L16.253,43.526L16.526,43.133L16.81,42.723L17.103,42.294L17.406,41.848L17.717,41.386L18.036,40.908L18.361,40.415L18.694,39.906L18.861,39.648L19.031,39.385L19.201,39.12L19.373,38.851L19.546,38.578L19.719,38.303L19.894,38.025L20.069,37.744L20.245,37.46L20.421,37.173L20.598,36.884L20.776,36.592L20.953,36.297L21.131,36L21.309,35.701L21.487,35.4L21.665,35.096L21.843,34.791L22.021,34.483L22.198,34.173L22.375,33.862L22.551,33.549L22.727,33.234L22.902,32.918L23.077,32.6L23.25,32.281L23.423,31.96L23.595,31.638L23.765,31.315L23.934,30.991L24.102,30.666L24.269,30.341L24.434,30.014L24.597,29.686L24.759,29.358L24.919,29.03L25.078,28.701L25.234,28.371L25.388,28.042L25.541,27.712L25.691,27.382L25.838,27.052L25.984,26.722L26.127,26.392L26.267,26.063L26.405,25.733L26.54,25.405L26.672,25.077L26.802,24.749L26.928,24.422L27.052,24.096L27.172,23.771L27.289,23.447L27.403,23.125L27.514,22.801L27.567,22.643L27.62,22.483L27.672,22.323L27.723,22.164L27.823,21.846L27.871,21.688L27.919,21.531L28.011,21.217L28.055,21.06L28.099,20.905L28.141,20.749L28.183,20.594L28.224,20.44L28.263,20.286L28.302,20.133L28.339,19.98L28.376,19.828L28.446,19.526L28.479,19.376L28.511,19.226L28.542,19.077L28.572,18.928L28.601,18.781L28.629,18.634L28.656,18.487L28.706,18.197L28.729,18.052L28.751,17.909L28.772,17.766L28.792,17.624L28.811,17.483L28.828,17.343L28.845,17.204L28.86,17.065L28.874,16.927L28.887,16.791L28.898,16.655L28.909,16.52L28.918,16.386L28.926,16.252L28.932,16.12L28.938,15.989L28.942,15.859L28.945,15.729L28.947,15.601L28.948,15.475L28.947,15.299L28.943,15.125L28.938,14.951L28.93,14.779L28.92,14.606L28.908,14.435L28.894,14.264L28.878,14.094L28.86,13.924L28.839,13.755L28.817,13.587L28.792,13.419L28.766,13.252L28.737,13.086L28.707,12.921L28.674,12.756L28.639,12.592L28.603,12.429L28.564,12.266L28.524,12.105L28.481,11.944L28.437,11.784L28.39,11.624L28.342,11.466L28.292,11.308L28.24,11.152L28.186,10.996L28.131,10.841L28.073,10.687L28.014,10.533L27.953,10.381L27.89,10.23L27.825,10.079L27.758,9.93L27.69,9.781L27.62,9.633L27.548,9.487L27.475,9.341L27.4,9.196L27.323,9.053L27.244,8.91L27.164,8.768L27.082,8.628L26.998,8.488L26.913,8.35L26.826,8.213L26.738,8.077L26.648,7.942L26.556,7.808L26.463,7.675L26.368,7.544L26.272,7.413L26.174,7.284L26.075,7.156L25.974,7.029L25.872,6.904L25.768,6.78L25.663,6.657L25.556,6.535L25.448,6.415L25.338,6.296L25.227,6.178L25.115,6.061L25.001,5.946L24.886,5.833L24.77,5.72L24.652,5.609L24.533,5.5L24.412,5.392L24.291,5.285L24.168,5.18L24.044,5.076L23.918,4.974L23.791,4.873L23.663,4.773L23.534,4.676L23.404,4.579L23.14,4.391L23.006,4.3L22.871,4.21L22.735,4.121L22.459,3.949L22.32,3.866L22.179,3.784L22.038,3.704L21.895,3.625L21.751,3.548L21.607,3.473L21.461,3.399L21.314,3.328L21.167,3.258L21.018,3.189L20.868,3.123L20.718,3.058L20.566,2.995L20.414,2.934L20.261,2.875L20.107,2.817L19.952,2.761L19.796,2.708L19.639,2.655L19.481,2.605L19.323,2.557L19.164,2.511L19.003,2.467L18.843,2.424L18.681,2.384L18.519,2.345L18.355,2.308L18.191,2.274L18.027,2.241L17.861,2.211L17.695,2.182L17.528,2.155L17.361,2.131L17.193,2.108L17.023,2.088L16.854,2.07L16.684,2.053L16.513,2.039L16.341,2.027L16.169,2.018L15.996,2.01L15.823,2.004L15.649,2.001L15.474,2L15.299,2.001Z" style="fill:white;"/>
        <g transform="matrix(1,0,0,1,-5.97042,2.5606)">
            <g transform="matrix(7,0,0,7,10.6071,15.2636)">
                <path d="M0.045,-0.357C0.045,-0.474 0.078,-0.565 0.143,-0.63C0.208,-0.695 0.299,-0.728 0.415,-0.728C0.534,-0.728 0.626,-0.696 0.69,-0.632C0.755,-0.568 0.787,-0.479 0.787,-0.363C0.787,-0.28 0.773,-0.211 0.745,-0.157C0.717,-0.104 0.676,-0.062 0.623,-0.032C0.57,-0.003 0.503,0.012 0.424,0.012C0.343,0.012 0.276,-0.001 0.223,-0.026C0.17,-0.052 0.128,-0.093 0.095,-0.148C0.062,-0.204 0.045,-0.274 0.045,-0.357ZM0.267,-0.356C0.267,-0.284 0.28,-0.232 0.307,-0.201C0.334,-0.169 0.37,-0.153 0.417,-0.153C0.464,-0.153 0.501,-0.169 0.527,-0.2C0.553,-0.231 0.566,-0.286 0.566,-0.366C0.566,-0.434 0.552,-0.483 0.525,-0.514C0.498,-0.545 0.461,-0.561 0.415,-0.561C0.37,-0.561 0.334,-0.545 0.307,-0.513C0.28,-0.482 0.267,-0.429 0.267,-0.356Z" style="fill:rgb(255,253,238);fill-rule:nonzero;"/>
            </g>
            <g transform="matrix(7,0,0,7,16.4382,15.2636)">
                <path d="M0.072,-0.716L0.44,-0.716C0.52,-0.716 0.58,-0.697 0.62,-0.659C0.66,-0.621 0.68,-0.566 0.68,-0.496C0.68,-0.424 0.658,-0.367 0.615,-0.327C0.571,-0.286 0.505,-0.266 0.416,-0.266L0.294,-0.266L0.294,0L0.072,0L0.072,-0.716ZM0.294,-0.411L0.349,-0.411C0.391,-0.411 0.421,-0.418 0.438,-0.433C0.456,-0.448 0.464,-0.467 0.464,-0.49C0.464,-0.512 0.457,-0.531 0.442,-0.547C0.427,-0.563 0.399,-0.57 0.357,-0.57L0.294,-0.57L0.294,-0.411Z" style="fill:rgb(255,253,238);fill-rule:nonzero;"/>
            </g>
            <g transform="matrix(7,0,0,7,21.4934,15.2636)">
                <path d="M0.073,-0.716L0.666,-0.716L0.666,-0.563L0.294,-0.563L0.294,-0.449L0.639,-0.449L0.639,-0.303L0.294,-0.303L0.294,-0.162L0.676,-0.162L0.676,0L0.073,0L0.073,-0.716Z" style="fill:rgb(255,253,238);fill-rule:nonzero;"/>
            </g>
            <g transform="matrix(7,0,0,7,26.5485,15.2636)">
                <path d="M0.075,-0.716L0.281,-0.716L0.551,-0.32L0.551,-0.716L0.759,-0.716L0.759,0L0.551,0L0.283,-0.393L0.283,0L0.075,0L0.075,-0.716Z" style="fill:rgb(255,253,238);fill-rule:nonzero;"/>
            </g>
        </g>
    </g>
</svg>
