<?xml version="1.0" encoding="UTF-8" standalone="no"?><!DOCTYPE svg PUBLIC "-//W3C//DTD SVG 1.1//EN" "http://www.w3.org/Graphics/SVG/1.1/DTD/svg11.dtd"><svg width="100%" height="100%" viewBox="0 0 31 48" version="1.1" xmlns="http://www.w3.org/2000/svg" xmlns:xlink="http://www.w3.org/1999/xlink" xml:space="preserve" xmlns:serif="http://www.serif.com/" style="fill-rule:evenodd;clip-rule:evenodd;stroke-linejoin:round;stroke-miterlimit:2;"><path id="Transport-L1" serif:id="Transport L1" d="M15.474,0c-8.546,0 -15.474,6.927 -15.474,15.474c0,12.473 15.474,32.526 15.474,32.526c0,0 15.474,-20.053 15.474,-32.526c0,-8.547 -6.928,-15.474 -15.474,-15.474Z" style="fill:#75548d;fill-rule:nonzero;"/><clipPath id="_clip1"><path d="M15.474,0c-8.546,0 -15.474,6.927 -15.474,15.474c0,12.473 15.474,32.526 15.474,32.526c0,0 15.474,-20.053 15.474,-32.526c0,-8.547 -6.928,-15.474 -15.474,-15.474Z" clip-rule="nonzero"/></clipPath><g clip-path="url(#_clip1)"><g id="Bus-and-car" serif:id="Bus and car"><path d="M9.834,25.108l-1.935,0c-0.228,0 -0.413,-0.186 -0.413,-0.414l0,-1.001c-0.676,-0.085 -1.199,-0.663 -1.199,-1.362l0,-7.113c0,0 0.993,-4.644 1.109,-5.132c0.116,-0.487 0.729,-1.903 3.223,-1.911c2.494,-0.008 4.851,-0.025 4.851,-0.025c0,0 2.666,-0.144 3.255,2.187c0.589,2.33 1.043,4.869 1.043,4.869l0,1.529c-1.209,0.001 -2.436,0.007 -2.436,0.007c0,0 -1,-0.019 -1.263,0.599c-0.263,0.618 -1.337,2.922 -1.337,3.451l0,2.912l-4.485,0l0,0.99c0,0.228 -0.185,0.413 -0.413,0.414Zm-0.869,-4.842c0.588,0 1.066,0.478 1.066,1.066c0,0.589 -0.478,1.067 -1.066,1.067c-0.589,0 -1.067,-0.478 -1.067,-1.067c0,-0.588 0.478,-1.066 1.067,-1.066Zm4.041,-9.278l-3.585,0.005c0,0 -0.763,-0.137 -0.975,0.64c-0.212,0.777 -0.505,2.543 -0.505,2.543c0,0 -0.364,1.087 1.026,1.067c1.39,-0.02 8.191,0 8.191,0c0,0 1.26,0.046 0.949,-1.217c-0.31,-1.263 -0.47,-1.964 -0.579,-2.357c-0.062,-0.222 -0.104,-0.717 -1.192,-0.674c-1.339,0.053 -3.33,-0.007 -3.33,-0.007Zm1.713,-2.166l-3.383,0c-0.413,0 -0.748,0.335 -0.748,0.747c0,0.413 0.335,0.748 0.748,0.748l3.383,0c0.413,0 0.748,-0.335 0.748,-0.748c0,-0.412 -0.335,-0.747 -0.748,-0.747Z" style="fill:#fff;"/><g id="car"><path d="M15.987,24.605l-0.52,0l0,-3.358c0,-0.482 0.98,-2.585 1.22,-3.149c0.24,-0.565 1.154,-0.547 1.154,-0.547c0,0 3.135,-0.015 4.085,0c0.951,0.015 0.96,-0.091 1.333,0.337c0.225,0.258 1.349,2.779 1.388,3.362c0.037,0.571 -0.011,3.355 -0.011,3.355l-0.449,0l0,0.999c0,0.184 -0.149,0.334 -0.333,0.334l-1.19,0c-0.184,0 -0.333,-0.15 -0.333,-0.334l0,-0.999l-4.487,0l0,0.999c0,0.184 -0.15,0.334 -0.334,0.334l-1.189,0c-0.184,0 -0.334,-0.15 -0.334,-0.334l0,-0.999Z" style="fill:#fff;"/><path d="M20.093,21.085l-2.897,-0.011c-0.738,-0.002 -0.411,-0.606 -0.411,-0.606c0,0 0.354,-0.926 0.548,-1.434c0.194,-0.508 0.689,-0.483 0.689,-0.483c0,0 1.152,0.011 1.822,0.017c0.081,0 0.167,0.001 0.257,0.002c0.09,-0.001 0.175,-0.002 0.256,-0.002c0.67,-0.006 1.823,-0.017 1.823,-0.017c0,0 0.494,-0.025 0.688,0.483c0.194,0.508 0.549,1.434 0.549,1.434c0,0 0.326,0.604 -0.411,0.606l-2.898,0.011l0,0l-0.007,0l-0.008,0l0,0Z" style="fill:#75548d;"/><circle cx="16.915" cy="23.107" r="0.726" style="fill:#75548d;"/><circle cx="23.259" cy="23.107" r="0.726" style="fill:#75548d;"/></g></g></g><path d="M15.674,0.001l0.199,0.004l0.199,0.006l0.198,0.009l0.198,0.011l0.196,0.014l0.197,0.016l0.195,0.019l0.195,0.021l0.194,0.023l0.193,0.026l0.192,0.028l0.192,0.031l0.191,0.033l0.19,0.035l0.189,0.037l0.189,0.04l0.187,0.042l0.187,0.045l0.186,0.046l0.185,0.049l0.184,0.051l0.183,0.053l0.182,0.056l0.181,0.057l0.181,0.06l0.179,0.062l0.178,0.064l0.177,0.066l0.177,0.068l0.175,0.071l0.174,0.072l0.173,0.074l0.172,0.077l0.171,0.078l0.169,0.081l0.169,0.082l0.167,0.085l0.166,0.086l0.166,0.089l0.163,0.09l0.163,0.092l0.161,0.094l0.161,0.096l0.158,0.098l0.158,0.1l0.156,0.101l0.155,0.104l0.154,0.105l0.152,0.107l0.151,0.108l0.15,0.111l0.148,0.112l0.147,0.114l0.146,0.116l0.144,0.117l0.142,0.119l0.141,0.121l0.14,0.123l0.138,0.124l0.137,0.125l0.135,0.128l0.133,0.129l0.132,0.13l0.131,0.132l0.129,0.134l0.127,0.135l0.126,0.136l0.124,0.139l0.122,0.139l0.121,0.141l0.119,0.143l0.118,0.144l0.115,0.145l0.114,0.147l0.113,0.148l0.11,0.15l0.109,0.151l0.107,0.152l0.105,0.154l0.103,0.155l0.102,0.156l0.1,0.158l0.098,0.159l0.095,0.16l0.095,0.161l0.092,0.163l0.09,0.164l0.088,0.165l0.087,0.166l0.084,0.167l0.083,0.169l0.08,0.17l0.079,0.171l0.076,0.171l0.075,0.173l0.072,0.175l0.07,0.175l0.069,0.176l0.066,0.177l0.064,0.178l0.062,0.18l0.059,0.18l0.058,0.181l0.056,0.182l0.053,0.183l0.051,0.184l0.049,0.185l0.046,0.186l0.045,0.187l0.042,0.188l0.039,0.188l0.038,0.189l0.035,0.19l0.033,0.191l0.03,0.192l0.029,0.192l0.025,0.194l0.024,0.194l0.021,0.194l0.018,0.196l0.017,0.196l0.013,0.197l0.012,0.197l0.008,0.198l0.007,0.199l0.004,0.2l0.001,0.2l-0.025,0.889l-0.074,0.912l-0.12,0.932l-0.195,1.112l-0.251,1.133l-0.303,1.152l-0.352,1.167l-0.336,1.01l-0.367,1.016l-0.395,1.021l-0.42,1.023l-0.444,1.023l-0.464,1.021l-0.483,1.016l-0.498,1.011l-0.685,1.333l-0.704,1.314l-0.716,1.288l-0.724,1.258l-0.725,1.223l-0.899,1.471l-0.882,1.398l-0.853,1.316l-0.654,0.986l-0.922,1.357l-0.832,1.195l-0.937,1.312l-0.832,1.131l-0.382,0.506l-0.044,-0.058l-0.13,-0.17l-0.209,-0.278l-0.282,-0.38l-0.167,-0.227l-0.183,-0.25l-0.199,-0.274l-0.214,-0.296l-0.228,-0.318l-0.242,-0.338l-0.254,-0.36l-0.266,-0.379l-0.277,-0.399l-0.289,-0.417l-0.298,-0.435l-0.307,-0.453l-0.316,-0.469l-0.323,-0.485l-0.331,-0.501l-0.337,-0.516l-0.171,-0.263l-0.172,-0.266l-0.173,-0.271l-0.175,-0.273l-0.175,-0.276l-0.176,-0.28l-0.178,-0.283l-0.178,-0.286l-0.179,-0.289l-0.179,-0.291l-0.18,-0.294l-0.181,-0.297l-0.18,-0.3l-0.182,-0.302l-0.181,-0.305l-0.181,-0.307l-0.181,-0.309l-0.182,-0.311l-0.181,-0.314l-0.18,-0.315l-0.181,-0.318l-0.18,-0.319l-0.179,-0.322l-0.179,-0.323l-0.178,-0.324l-0.178,-0.327l-0.176,-0.327l-0.176,-0.329l-0.174,-0.331l-0.173,-0.331l-0.172,-0.333l-0.171,-0.334l-0.169,-0.335l-0.168,-0.336l-0.166,-0.337l-0.165,-0.338l-0.162,-0.338l-0.161,-0.339l-0.159,-0.339l-0.157,-0.34l-0.155,-0.341l-0.152,-0.34l-0.151,-0.341l-0.147,-0.341l-0.146,-0.341l-0.143,-0.341l-0.14,-0.341l-0.137,-0.341l-0.135,-0.34l-0.131,-0.341l-0.129,-0.34l-0.126,-0.339l-0.122,-0.339l-0.119,-0.338l-0.116,-0.337l-0.056,-0.169l-0.056,-0.168l-0.055,-0.168l-0.054,-0.168l-0.053,-0.167l-0.052,-0.167l-0.051,-0.167l-0.05,-0.167l-0.049,-0.167l-0.049,-0.166l-0.047,-0.166l-0.046,-0.165l-0.046,-0.165l-0.044,-0.165l-0.043,-0.165l-0.043,-0.164l-0.041,-0.164l-0.04,-0.164l-0.039,-0.163l-0.038,-0.162l-0.037,-0.163l-0.036,-0.162l-0.035,-0.161l-0.034,-0.161l-0.032,-0.161l-0.031,-0.16l-0.031,-0.16l-0.029,-0.159l-0.028,-0.159l-0.026,-0.158l-0.026,-0.158l-0.024,-0.158l-0.023,-0.156l-0.022,-0.157l-0.021,-0.155l-0.019,-0.156l-0.018,-0.154l-0.017,-0.154l-0.016,-0.154l-0.014,-0.153l-0.013,-0.152l-0.012,-0.152l-0.01,-0.151l-0.009,-0.15l-0.008,-0.15l-0.006,-0.149l-0.005,-0.149l-0.003,-0.148l-0.002,-0.147l-0.001,-0.146l0.001,-0.2l0.004,-0.2l0.006,-0.199l0.009,-0.198l0.011,-0.197l0.014,-0.197l0.016,-0.196l0.019,-0.196l0.021,-0.194l0.023,-0.194l0.026,-0.194l0.028,-0.192l0.031,-0.192l0.033,-0.191l0.035,-0.19l0.037,-0.189l0.04,-0.188l0.042,-0.188l0.045,-0.187l0.046,-0.186l0.049,-0.185l0.051,-0.184l0.053,-0.183l0.056,-0.182l0.057,-0.181l0.06,-0.18l0.062,-0.18l0.064,-0.178l0.066,-0.177l0.068,-0.176l0.071,-0.175l0.072,-0.175l0.074,-0.173l0.077,-0.171l0.078,-0.171l0.081,-0.17l0.082,-0.169l0.085,-0.167l0.086,-0.166l0.089,-0.165l0.09,-0.164l0.092,-0.163l0.094,-0.161l0.096,-0.16l0.098,-0.159l0.1,-0.158l0.101,-0.156l0.104,-0.155l0.105,-0.154l0.107,-0.152l0.109,-0.151l0.11,-0.15l0.112,-0.148l0.114,-0.147l0.116,-0.145l0.117,-0.144l0.12,-0.143l0.12,-0.141l0.123,-0.139l0.124,-0.139l0.126,-0.136l0.127,-0.135l0.129,-0.134l0.13,-0.132l0.132,-0.13l0.134,-0.129l0.135,-0.128l0.137,-0.125l0.138,-0.124l0.139,-0.123l0.141,-0.121l0.143,-0.119l0.144,-0.117l0.145,-0.116l0.147,-0.114l0.149,-0.112l0.149,-0.111l0.151,-0.108l0.153,-0.107l0.153,-0.105l0.155,-0.104l0.157,-0.101l0.157,-0.1l0.159,-0.098l0.16,-0.096l0.162,-0.094l0.162,-0.092l0.164,-0.09l0.165,-0.089l0.166,-0.086l0.168,-0.085l0.168,-0.082l0.17,-0.081l0.171,-0.078l0.172,-0.077l0.173,-0.074l0.174,-0.072l0.175,-0.071l0.176,-0.068l0.177,-0.066l0.179,-0.064l0.179,-0.062l0.18,-0.06l0.181,-0.057l0.183,-0.056l0.183,-0.053l0.184,-0.051l0.185,-0.049l0.186,-0.046l0.186,-0.045l0.188,-0.042l0.188,-0.04l0.19,-0.037l0.19,-0.035l0.191,-0.033l0.191,-0.031l0.193,-0.028l0.193,-0.026l0.194,-0.023l0.195,-0.021l0.195,-0.019l0.196,-0.016l0.197,-0.014l0.198,-0.011l0.198,-0.009l0.199,-0.006l0.199,-0.004l0.2,-0.001l0.2,0.001Zm-0.375,2l-0.864,0.038l-0.848,0.092l-0.831,0.143l-0.812,0.193l-0.792,0.24l-0.771,0.288l-0.748,0.333l-0.723,0.376l-0.697,0.417l-0.669,0.458l-0.64,0.497l-0.608,0.533l-0.576,0.569l-0.54,0.602l-0.504,0.633l-0.466,0.664l-0.426,0.691l-0.385,0.719l-0.341,0.743l-0.297,0.766l-0.25,0.788l-0.203,0.808l-0.153,0.827l-0.102,0.845l-0.049,0.861l-0.004,0.35l0.001,0.126l0.001,0.128l0.004,0.13l0.004,0.13l0.005,0.131l0.007,0.132l0.008,0.134l0.009,0.134l0.011,0.135l0.011,0.136l0.013,0.137l0.014,0.137l0.015,0.139l0.016,0.139l0.018,0.14l0.018,0.142l0.02,0.141l0.021,0.143l0.023,0.143l0.023,0.145l0.024,0.145l0.026,0.145l0.027,0.147l0.027,0.147l0.029,0.147l0.03,0.149l0.032,0.149l0.032,0.149l0.033,0.151l0.034,0.151l0.036,0.151l0.036,0.152l0.038,0.153l0.039,0.153l0.039,0.154l0.041,0.154l0.041,0.155l0.043,0.156l0.044,0.155l0.044,0.157l0.046,0.157l0.046,0.157l0.048,0.157l0.048,0.158l0.05,0.159l0.05,0.159l0.051,0.159l0.052,0.16l0.053,0.16l0.053,0.158l0.111,0.324l0.114,0.322l0.117,0.324l0.12,0.325l0.123,0.326l0.127,0.327l0.129,0.328l0.133,0.328l0.135,0.328l0.138,0.33l0.14,0.329l0.143,0.33l0.145,0.33l0.148,0.33l0.15,0.33l0.152,0.33l0.155,0.329l0.156,0.33l0.158,0.329l0.161,0.328l0.161,0.328l0.164,0.328l0.165,0.327l0.167,0.325l0.168,0.325l0.169,0.324l0.17,0.323l0.172,0.322l0.172,0.321l0.174,0.319l0.174,0.318l0.176,0.316l0.175,0.315l0.177,0.313l0.177,0.311l0.177,0.31l0.178,0.308l0.178,0.305l0.178,0.304l0.178,0.301l0.178,0.299l0.178,0.297l0.177,0.295l0.178,0.292l0.176,0.289l0.177,0.287l0.176,0.284l0.175,0.281l0.175,0.278l0.173,0.275l0.173,0.273l0.172,0.269l0.17,0.265l0.169,0.263l0.168,0.258l0.332,0.509l0.326,0.493l0.319,0.478l0.311,0.462l0.303,0.446l0.293,0.429l0.284,0.41l0.273,0.393l0.262,0.373l0.25,0.354l0.238,0.333l0.029,0.041l0.029,-0.041l0.237,-0.333l0.25,-0.354l0.263,-0.373l0.273,-0.393l0.284,-0.41l0.293,-0.429l0.303,-0.446l0.311,-0.462l0.319,-0.478l0.325,-0.493l0.333,-0.509l0.167,-0.258l0.17,-0.263l0.17,-0.265l0.172,-0.269l0.173,-0.273l0.173,-0.275l0.175,-0.278l0.175,-0.281l0.176,-0.284l0.176,-0.287l0.177,-0.289l0.178,-0.292l0.177,-0.295l0.178,-0.297l0.178,-0.299l0.178,-0.301l0.178,-0.304l0.178,-0.305l0.178,-0.308l0.177,-0.31l0.177,-0.311l0.176,-0.313l0.176,-0.315l0.175,-0.316l0.175,-0.318l0.173,-0.319l0.173,-0.321l0.172,-0.322l0.17,-0.323l0.169,-0.324l0.168,-0.325l0.167,-0.325l0.165,-0.327l0.163,-0.328l0.162,-0.328l0.16,-0.328l0.159,-0.329l0.156,-0.33l0.154,-0.329l0.153,-0.33l0.15,-0.33l0.147,-0.33l0.146,-0.33l0.143,-0.33l0.14,-0.329l0.138,-0.33l0.135,-0.328l0.132,-0.328l0.13,-0.328l0.126,-0.327l0.124,-0.326l0.12,-0.325l0.117,-0.324l0.114,-0.322l0.111,-0.324l0.053,-0.158l0.053,-0.16l0.052,-0.16l0.051,-0.159l0.05,-0.159l0.05,-0.159l0.048,-0.158l0.048,-0.157l0.046,-0.157l0.046,-0.157l0.044,-0.157l0.044,-0.155l0.042,-0.156l0.042,-0.154l0.041,-0.155l0.039,-0.154l0.039,-0.153l0.037,-0.153l0.037,-0.152l0.035,-0.151l0.035,-0.151l0.033,-0.151l0.032,-0.149l0.031,-0.149l0.03,-0.149l0.029,-0.147l0.028,-0.147l0.027,-0.147l0.025,-0.145l0.025,-0.145l0.023,-0.145l0.022,-0.143l0.021,-0.143l0.02,-0.141l0.019,-0.142l0.017,-0.14l0.017,-0.139l0.015,-0.139l0.014,-0.138l0.013,-0.136l0.011,-0.136l0.011,-0.135l0.009,-0.134l0.008,-0.134l0.006,-0.132l0.006,-0.131l0.004,-0.131l0.003,-0.129l0.002,-0.128l0.001,-0.126l-0.001,-0.176l-0.004,-0.174l-0.005,-0.174l-0.008,-0.172l-0.01,-0.173l-0.012,-0.171l-0.014,-0.171l-0.016,-0.17l-0.018,-0.17l-0.021,-0.169l-0.022,-0.168l-0.025,-0.168l-0.026,-0.167l-0.029,-0.166l-0.03,-0.165l-0.033,-0.165l-0.035,-0.164l-0.036,-0.163l-0.039,-0.163l-0.04,-0.161l-0.043,-0.161l-0.044,-0.16l-0.046,-0.159l-0.049,-0.159l-0.05,-0.157l-0.052,-0.157l-0.054,-0.156l-0.055,-0.155l-0.058,-0.154l-0.059,-0.154l-0.061,-0.152l-0.063,-0.151l-0.065,-0.151l-0.067,-0.15l-0.068,-0.148l-0.07,-0.148l-0.072,-0.146l-0.073,-0.146l-0.075,-0.145l-0.077,-0.143l-0.079,-0.143l-0.08,-0.142l-0.082,-0.14l-0.084,-0.14l-0.085,-0.138l-0.087,-0.137l-0.088,-0.136l-0.09,-0.135l-0.092,-0.134l-0.093,-0.133l-0.095,-0.131l-0.096,-0.131l-0.098,-0.129l-0.099,-0.128l-0.101,-0.127l-0.102,-0.125l-0.104,-0.124l-0.105,-0.123l-0.107,-0.122l-0.108,-0.12l-0.11,-0.119l-0.111,-0.118l-0.112,-0.117l-0.114,-0.115l-0.115,-0.113l-0.116,-0.113l-0.118,-0.111l-0.119,-0.109l-0.121,-0.108l-0.121,-0.107l-0.123,-0.105l-0.124,-0.104l-0.126,-0.102l-0.127,-0.101l-0.128,-0.1l-0.129,-0.097l-0.13,-0.097l-0.132,-0.094l-0.132,-0.094l-0.134,-0.091l-0.135,-0.09l-0.136,-0.089l-0.138,-0.086l-0.138,-0.086l-0.139,-0.083l-0.141,-0.082l-0.142,-0.08l-0.142,-0.079l-0.144,-0.077l-0.144,-0.075l-0.146,-0.074l-0.147,-0.071l-0.148,-0.07l-0.148,-0.069l-0.15,-0.066l-0.15,-0.065l-0.152,-0.063l-0.152,-0.061l-0.153,-0.059l-0.154,-0.058l-0.156,-0.056l-0.155,-0.054l-0.157,-0.051l-0.158,-0.051l-0.158,-0.048l-0.159,-0.046l-0.161,-0.044l-0.16,-0.043l-0.162,-0.04l-0.162,-0.039l-0.164,-0.037l-0.164,-0.034l-0.164,-0.033l-0.166,-0.03l-0.166,-0.029l-0.167,-0.027l-0.167,-0.024l-0.169,-0.023l-0.168,-0.02l-0.17,-0.018l-0.17,-0.017l-0.171,-0.014l-0.172,-0.012l-0.172,-0.009l-0.173,-0.008l-0.173,-0.006l-0.174,-0.003l-0.175,-0.001l-0.175,0.001Z" style="fill:#fff;"/></svg>